<?xml version="1.0" encoding="utf-8"?>
<!-- Generator: Adobe Illustrator 25.2.3, SVG Export Plug-In . SVG Version: 6.00 Build 0)  -->
<svg version="1.1" id="Capa_1" xmlns="http://www.w3.org/2000/svg" xmlns:xlink="http://www.w3.org/1999/xlink" x="0px" y="0px"
	 viewBox="0 0 842.2 549.8" style="enable-background:new 0 0 842.2 549.8;" xml:space="preserve">
<style type="text/css">
	.st0{fill:#003D72;}
	.st1{opacity:0.15;}
	.st2{clip-path:url(#SVGID_2_);}
	.st3{clip-path:url(#SVGID_4_);}
	.st4{clip-path:url(#SVGID_6_);}
	.st5{clip-path:url(#SVGID_10_);}
	.st6{fill:#3D3D3D;}
	.st7{fill:#FFFFFF;}
	.st8{fill-rule:evenodd;clip-rule:evenodd;fill:#B3B3B3;}
	.st9{fill:#B3B3B3;}
	.st10{fill:#999999;}
	.st11{opacity:0.5;}
	.st12{clip-path:url(#SVGID_14_);fill:#B3B3B3;}
	.st13{fill-rule:evenodd;clip-rule:evenodd;fill:#F9F9F9;}
	.st14{fill:#25A7DF;}
	.st15{fill:none;stroke:#E6E6E6;stroke-miterlimit:10;}
	.st16{opacity:0.1;fill:#9FD6F2;}
	.st17{fill:#3AA9E0;}
	.st18{opacity:0.1;}
	.st19{fill:#455A64;}
	.st20{fill:#393769;}
	.st21{fill:#EDB6A4;}
	.st22{opacity:0.3;fill:#EDB6A4;}
	.st23{fill:#263238;}
	.st24{fill:#1A2E35;}
	.st25{fill:#F5F5F5;}
	.st26{fill:#E0E0E0;}
	.st27{opacity:0.3;}
	.st28{fill:#393768;}
	.st29{fill:#E1E1E1;}
	.st30{fill:#25A6DE;}
	.st31{fill:#FAFAFA;}
	.st32{fill:#CCCCCC;}
	.st33{fill:#F2F2F2;}
	.st34{fill:#EBEBEB;}
	.st35{fill:#DCDCDC;}
	.st36{fill:#C8C8C8;}
	.st37{fill-rule:evenodd;clip-rule:evenodd;fill:#25A7DF;}
	.st38{fill:#A8A8A8;}
	.st39{fill-rule:evenodd;clip-rule:evenodd;fill:#F8F8F8;}
	.st40{fill:none;stroke:#E5E5E5;stroke-width:9.535846e-02;stroke-miterlimit:10;}
	.st41{font-family:'Raleway-SemiBold';}
	.st42{font-size:1.6485px;}
	.st43{display:none;}
	.st44{display:inline;opacity:0.1;fill:#9FD6F2;}
	.st45{display:inline;}
	.st46{opacity:0.2;}
	.st47{opacity:0.4;}
	.st48{fill:#0F4C81;}
	.st49{fill:none;stroke:#E5E5E5;stroke-width:9.173123e-02;stroke-miterlimit:10;}
	.st50{fill:none;stroke:#25A7DF;stroke-width:6;stroke-miterlimit:10;}
	.st51{fill:none;stroke:#000000;stroke-width:2;stroke-miterlimit:10;}
	.st52{fill-rule:evenodd;clip-rule:evenodd;fill:#333333;}
	.st53{fill:#333333;}
	.st54{fill-rule:evenodd;clip-rule:evenodd;fill:#3D3D3D;}
	.st55{fill:none;stroke:#919191;stroke-width:0.9905;stroke-miterlimit:10;}
	.st56{opacity:0.7;fill:#003D72;}
	.st57{fill:none;stroke:#FFFFFF;stroke-width:6;stroke-miterlimit:10;}
	.st58{fill:none;stroke:#3D3D3D;stroke-width:3;stroke-miterlimit:10;}
</style>
<g>
	<path class="st16" d="M406.3,528.8c20.1-6.6,37-18.6,56.6-26.9c21.3-9,40.8-15.3,64.2-17.4c25.7-2.2,51.7-1.2,77.2-6.2
		c75.2-14.7,118.4-77.6,133.4-140.5c14.8-62,0.3-127-39.2-178.1c-20.3-26.3-46.9-48.6-77.4-65.3C505,30.6,333.4,34.1,220.9,110.6
		C91.1,198.9,52.1,374.6,172.2,478c6.2,5.3,12.7,10.3,19.5,15c37.2,25.5,83.2,40.4,130.5,43.6c24.4,1.6,49.4,0.2,73.5-4.9
		C399.3,530.9,402.8,530,406.3,528.8z"/>
	<g>
		<path class="st17" d="M571.5,214l-1.5,0l0-0.8l1.5,0c0.9,0,1.8,0,2.8,0l0,0.8C573.4,214,572.4,214,571.5,214z M564.6,213.9
			c-1.5,0-2.9-0.1-4.3-0.1l0-0.8c1.4,0.1,2.8,0.1,4.3,0.1L564.6,213.9z M579.7,213.9l0-0.8c1.4,0,2.9-0.1,4.3-0.1l0,0.8
			C582.5,213.8,581.1,213.9,579.7,213.9z M589.4,213.6l0-0.8c1.4-0.1,2.8-0.1,4.3-0.2l0,0.8C592.2,213.4,590.8,213.5,589.4,213.6z
			 M554.9,213.6c-1.5-0.1-2.9-0.2-4.3-0.3l0.1-0.8c1.4,0.1,2.8,0.2,4.3,0.3L554.9,213.6z M599.1,213l-0.1-0.8
			c1.4-0.1,2.8-0.2,4.3-0.3l0.1,0.8C601.9,212.8,600.5,212.9,599.1,213z M545.2,212.8c-1.5-0.1-2.9-0.3-4.3-0.5l0.1-0.8
			c1.4,0.2,2.8,0.3,4.3,0.5L545.2,212.8z M608.8,212.3l-0.1-0.8c1.4-0.1,2.8-0.2,4.3-0.4l0.1,0.8
			C611.6,212.1,610.2,212.2,608.8,212.3z M535.6,211.6c-1.5-0.2-2.9-0.5-4.3-0.7l0.1-0.8c1.4,0.3,2.8,0.5,4.2,0.7L535.6,211.6z
			 M618.4,211.4l-0.1-0.8c1.4-0.1,2.8-0.3,4.3-0.4l0.1,0.8C621.3,211.1,619.8,211.3,618.4,211.4z M628.1,210.4l-0.1-0.8l1.1-0.1
			c1.1-0.1,2.1-0.3,3.2-0.4l0.1,0.8c-1.1,0.1-2.1,0.3-3.2,0.4L628.1,210.4z M526,209.7c-1.4-0.3-2.8-0.7-4.2-1l0.2-0.8
			c1.3,0.4,2.8,0.7,4.2,1L526,209.7z M637.7,209.1l-0.1-0.8c1.4-0.2,2.8-0.5,4.2-0.7l0.1,0.8C640.5,208.6,639.1,208.8,637.7,209.1z
			 M647.3,207.3l-0.2-0.8c1.4-0.3,2.8-0.6,4.2-0.9l0.2,0.8C650.1,206.7,648.7,207,647.3,207.3z M516.6,207.2
			c-1.4-0.4-2.8-0.9-4.1-1.4l0.3-0.8c1.3,0.5,2.7,1,4.1,1.4L516.6,207.2z M656.7,205.1l-0.2-0.8c1.4-0.4,2.8-0.7,4.2-1.1l0.2,0.8
			C659.5,204.3,658.1,204.7,656.7,205.1z M507.5,203.8c-1.3-0.6-2.7-1.2-3.9-1.9l0.4-0.7c1.2,0.6,2.5,1.3,3.9,1.8L507.5,203.8z
			 M666.1,202.5l-0.2-0.8c1.4-0.4,2.7-0.8,4.1-1.3l0.2,0.8C668.8,201.7,667.4,202.1,666.1,202.5z M675.3,199.6l-0.3-0.8
			c1.4-0.5,2.7-0.9,4.1-1.4l0.3,0.8C678,198.6,676.7,199.1,675.3,199.6z M498.9,199.3c-1.2-0.8-2.5-1.6-3.6-2.4l0.5-0.7
			c1.1,0.8,2.3,1.6,3.6,2.4L498.9,199.3z M684.5,196.3l-0.3-0.8c1.4-0.5,2.7-1,4-1.5l0.3,0.8C687.2,195.3,685.8,195.8,684.5,196.3z
			 M491,193.5c-1.1-0.9-2.2-1.9-3.2-3l0.6-0.6c1,1,2,2,3.1,2.9L491,193.5z M693.5,192.8l-0.3-0.7c1.3-0.5,2.7-1.1,4-1.6l0.3,0.7
			C696.2,191.7,694.9,192.3,693.5,192.8z M702.5,189l-0.3-0.7c1.3-0.6,2.6-1.2,3.9-1.8l0.3,0.7C705.1,187.9,703.8,188.5,702.5,189z
			 M484.3,186.5c-1-1.2-1.8-2.4-2.4-3.6l0.7-0.4c0.6,1.2,1.4,2.4,2.3,3.5L484.3,186.5z M711.3,185l-0.3-0.7c1.3-0.6,2.6-1.2,3.9-1.9
			l0.4,0.7C714,183.8,712.7,184.4,711.3,185z M720.1,180.8l-0.4-0.7c1.3-0.7,2.6-1.3,3.8-1.9l0.4,0.7
			C722.7,179.5,721.4,180.1,720.1,180.8z M480,177.7c-0.2-1-0.3-2-0.3-2.9c0-0.5,0-1,0.1-1.4l0.8,0.1c0,0.5-0.1,0.9-0.1,1.4
			c0,0.9,0.1,1.9,0.3,2.8L480,177.7z M728.7,176.3l-0.4-0.7c1.3-0.7,2.6-1.4,3.8-2l0.4,0.7C731.3,175,730,175.6,728.7,176.3z
			 M737.2,171.7l-0.4-0.7c1.3-0.7,2.5-1.4,3.7-2.1l0.4,0.7C739.8,170.2,738.5,171,737.2,171.7z M481.9,168.2l-0.8-0.3
			c0.5-1.3,1.2-2.6,2-3.9l0.7,0.4C483,165.7,482.4,167,481.9,168.2z M745.7,166.8l-0.4-0.7c1.3-0.8,2.5-1.5,3.7-2.2l0.4,0.7
			C748.2,165.3,747,166.1,745.7,166.8z M754,161.8l-0.4-0.7c1.3-0.8,2.5-1.6,3.6-2.3l0.4,0.7C756.5,160.2,755.3,161,754,161.8z
			 M486.9,160.1l-0.6-0.5c0.9-1.1,1.9-2.1,3-3.2l0.6,0.6C488.7,158.1,487.8,159.1,486.9,160.1z M762.1,156.5l-0.4-0.7
			c2.3-1.6,3.6-2.4,3.6-2.4l0.5,0.7C765.7,154,764.5,154.9,762.1,156.5z M493.8,153.4l-0.5-0.6c1.1-0.9,2.2-1.8,3.4-2.7l0.5,0.6
			C495.9,151.7,494.8,152.5,493.8,153.4z M501.5,147.7l-0.4-0.7c1.2-0.8,2.4-1.5,3.7-2.3l0.4,0.7C503.9,146.2,502.7,147,501.5,147.7
			z M509.9,142.8l-0.4-0.7c1.2-0.7,2.5-1.3,3.8-2l0.4,0.7C512.4,141.5,511.1,142.1,509.9,142.8z M518.5,138.5l-0.3-0.7
			c1.3-0.6,2.7-1.2,4-1.7l0.3,0.8C521.2,137.4,519.9,137.9,518.5,138.5z"/>
		<g>
			<polygon class="st14" points="771.8,135 765.5,153.7 779.4,142.3 833.1,121.2 			"/>
			<polygon class="st18" points="771.8,135 765.5,153.7 779.4,142.3 833.1,121.2 			"/>
			<polygon class="st17" points="781.3,146.5 765.5,153.7 779.4,142.3 			"/>
			<polygon class="st14" points="779.4,142.3 833.1,121.2 789.8,165.7 			"/>
			<polygon class="st14" points="771.8,135 748.8,121 833.1,121.2 			"/>
		</g>
	</g>
	<g>
		<g>
			<path class="st17" d="M432.5,285.7c-0.5-0.5-1-1-1.6-1.5l0.6-0.6c0.5,0.5,1.1,1,1.6,1.5L432.5,285.7z"/>
			<path class="st17" d="M425.4,371.1l0-0.8c1.4,0,2.9-0.1,4.3-0.3l0.1,0.8C428.4,371,426.9,371.1,425.4,371.1z M420,371
				c-1.4-0.1-2.9-0.2-4.3-0.4l0.1-0.8c1.4,0.2,2.9,0.3,4.3,0.4L420,371z M435.2,370l-0.2-0.8c1.4-0.3,2.8-0.7,4.1-1.1l0.2,0.8
				C438,369.3,436.6,369.7,435.2,370z M410.3,369.8c-1.4-0.3-2.8-0.6-4.2-0.9l0.2-0.8c1.4,0.3,2.8,0.6,4.2,0.9L410.3,369.8z
				 M400.8,367.5c-1.4-0.4-2.8-0.8-4.1-1.3l0.3-0.8c1.4,0.5,2.7,0.9,4.1,1.3L400.8,367.5z M444.5,366.9l-0.3-0.7
				c1.3-0.6,2.6-1.3,3.7-2.1l0.4,0.7C447.1,365.6,445.8,366.3,444.5,366.9z M391.6,364.4c-1.3-0.5-2.7-1.1-4-1.7l0.3-0.7
				c1.3,0.6,2.7,1.1,4,1.6L391.6,364.4z M452.6,361.5l-0.5-0.6c1.1-1,2-2,2.9-3.1l0.6,0.5C454.7,359.5,453.7,360.5,452.6,361.5z
				 M382.6,360.5c-1.3-0.6-2.6-1.3-3.9-1.9l0.4-0.7c1.3,0.7,2.6,1.3,3.9,1.9L382.6,360.5z M374,356c-1.3-0.7-2.5-1.4-3.7-2.2
				l0.4-0.7c1.2,0.7,2.5,1.5,3.7,2.2L374,356z M458.7,353.8l-0.7-0.4c0.7-1.2,1.2-2.5,1.7-3.9l0.8,0.3
				C460,351.2,459.4,352.5,458.7,353.8z M365.7,350.9c-1.2-0.8-2.4-1.6-3.6-2.4l0.5-0.7c1.2,0.8,2.4,1.6,3.6,2.4L365.7,350.9z
				 M357.6,345.4c-1.2-0.9-2.3-1.7-3.5-2.6l0.5-0.6c1.1,0.9,2.3,1.7,3.4,2.6L357.6,345.4z M461.9,344.5l-0.8-0.1
				c0.2-1.4,0.4-2.8,0.4-4.2l0.8,0C462.2,341.7,462.1,343.1,461.9,344.5z M350,339.4c-1.1-0.9-2.2-1.8-3.3-2.8l0.5-0.6
				c1.1,0.9,2.2,1.9,3.3,2.8L350,339.4z M461.4,334.8c-0.1-1.4-0.3-2.8-0.6-4.2l0.8-0.2c0.3,1.4,0.5,2.9,0.6,4.3L461.4,334.8z
				 M342.6,333c-1.1-1-2.1-1.9-3.2-2.9l0.6-0.6c1.1,1,2.1,2,3.2,2.9L342.6,333z M335.5,326.4c-1-1-2.1-2-3.1-3l0.6-0.6
				c1,1,2,2,3.1,3L335.5,326.4z M459.4,325.4c-0.4-1.3-0.9-2.7-1.4-4.1l0.8-0.3c0.5,1.4,1,2.8,1.4,4.1L459.4,325.4z M328.6,319.5
				c-1-1-2-2.1-3-3.1l0.6-0.6c1,1,2,2.1,3,3.1L328.6,319.5z M455.9,316.4c-0.6-1.3-1.3-2.6-2-3.8l0.7-0.4c0.7,1.3,1.4,2.6,2,3.9
				L455.9,316.4z M321.8,312.5c-1-1-2-2.1-3-3.1l0.6-0.6c1,1,2,2.1,3,3.1L321.8,312.5z M451.2,307.9c-0.8-1.2-1.6-2.4-2.4-3.6
				l0.7-0.5c0.8,1.2,1.7,2.4,2.4,3.6L451.2,307.9z M315.1,305.5l-3-3.1l0.6-0.6l3,3.1L315.1,305.5z M445.6,300.1
				c-0.9-1.1-1.8-2.2-2.7-3.3l0.6-0.5c0.9,1.1,1.9,2.3,2.7,3.4L445.6,300.1z M308.4,298.5c-1-1-2-2.1-3-3.1l0.6-0.6c1,1,2,2.1,3,3.1
				L308.4,298.5z M439.3,292.7c-1-1-1.9-2.1-3-3.1l0.6-0.6c1,1.1,2,2.1,3,3.2L439.3,292.7z M301.6,291.5c-1-1-2-2-3-3.1l0.6-0.6
				c1,1,2,2,3.1,3.1L301.6,291.5z M294.7,284.7c-1-1-2.1-2-3.1-3l0.6-0.6c1.1,1,2.1,2,3.1,3L294.7,284.7z M287.7,278
				c-1-1-2.1-1.9-3.2-2.9l0.5-0.6c1.1,1,2.1,1.9,3.2,2.9L287.7,278z M280.4,271.5c-1.1-0.9-2.2-1.9-3.3-2.8l0.5-0.6
				c1.1,0.9,2.2,1.9,3.3,2.8L280.4,271.5z M273,265.3c-1.1-0.9-2.2-1.8-3.4-2.7l0.5-0.6c1.1,0.9,2.3,1.8,3.4,2.7L273,265.3z
				 M265.4,259.3c-1.1-0.9-2.3-1.7-3.5-2.6l0.5-0.7c1.2,0.9,2.3,1.7,3.5,2.6L265.4,259.3z M257.6,253.5c-1.2-0.8-2.3-1.6-3.5-2.5
				l0.5-0.7c1.2,0.8,2.4,1.6,3.5,2.5L257.6,253.5z M249.5,248c-1.2-0.8-2.4-1.6-3.6-2.3l0.4-0.7c1.2,0.8,2.4,1.6,3.6,2.4L249.5,248z
				 M241.3,242.8c-1.2-0.7-2.4-1.5-3.7-2.2l0.4-0.7c1.3,0.7,2.5,1.5,3.7,2.2L241.3,242.8z M233,237.9c-1.2-0.7-2.5-1.4-3.8-2.1
				l0.4-0.7c1.3,0.7,2.5,1.4,3.8,2.1L233,237.9z M224.5,233.2c-1.3-0.7-2.5-1.3-3.8-2l0.4-0.7c1.3,0.7,2.6,1.3,3.8,2L224.5,233.2z
				 M215.8,228.8c-1.3-0.6-2.6-1.3-3.9-1.9l0.3-0.7c1.3,0.6,2.6,1.3,3.9,1.9L215.8,228.8z M207.1,224.7c-1.3-0.6-2.6-1.2-3.9-1.8
				l0.3-0.7c1.3,0.6,2.6,1.2,3.9,1.8L207.1,224.7z M198.2,220.7c-1.3-0.6-2.6-1.1-4-1.7l0.3-0.7c1.3,0.6,2.7,1.1,4,1.7L198.2,220.7z
				"/>
			<path class="st17" d="M188.9,216.9c-0.7-0.3-1.3-0.5-2-0.8l0.3-0.8c0.7,0.3,1.3,0.5,2,0.8L188.9,216.9z"/>
		</g>
		<g>
			<polygon class="st14" points="191.5,203.4 198.6,223 183.7,211.3 126.5,190.6 			"/>
			<polygon class="st18" points="191.5,203.4 198.6,223 183.7,211.3 126.5,190.6 			"/>
			<polygon class="st17" points="181.7,215.9 198.6,223 183.7,211.3 			"/>
			<polygon class="st14" points="183.7,211.3 126.5,190.6 173.4,236.3 			"/>
			<polygon class="st14" points="191.5,203.4 215.2,188.1 126.5,190.6 			"/>
		</g>
	</g>
	<g>
		<g id="freepik--character-1--inject-112_1_">
			<rect x="467.7" y="194.6" class="st19" width="122" height="183.9"/>
			<rect x="451.8" y="370.4" class="st19" width="6.5" height="136.7"/>
			<rect x="480.3" y="370.4" class="st19" width="6.5" height="136.7"/>
			<rect x="442.4" y="358.8" class="st19" width="147.8" height="19.8"/>
			<rect x="537.7" y="370.4" class="st19" width="6.5" height="136.7"/>
			<rect x="573.7" y="370.4" class="st19" width="6.5" height="136.7"/>
			<path class="st20" d="M466.7,89.1c2.6-2.8,5.8-5.4,6.8-9.1c0.9-3.4-0.3-7.4,1.5-10.4c2.3-3.7,7.8-4.1,10.5-7.4
				c1.4-1.6,1.8-3.8,3.1-5.5c2.2-2.8,6.3-3.4,9.8-2.9c3.6,0.5,6.9,1.9,10.5,2.3c4.9,0.5,10-0.9,14.6,0.7c5.1,1.7,8.1,6.4,11.4,11
				l4.2,5.3c0.9,0.9,1.8,1.8,2.8,2.5c1.9,1.1,3.7,2.3,5.4,3.7c3.2,3.6,2.8,9-0.7,12.2c-0.1,0.1-0.2,0.2-0.3,0.2
				c3.8,1.5,6.2,5.2,5.9,9.3c-0.4,2.1-1,4.2-1.9,6.2c-0.9,2-1,4.3-0.4,6.4c0.8,2,3.3,3.5,5.2,2.5c-0.8,2.8-2.8,5.1-5.5,6.3
				c1,1.1,2.4,1.8,3.9,1.9c-4.3,9.2-15.3,13.7-25.4,13.4c-10.1-0.3-19.7-4.5-29-8.7l-27-8.1c-2.4-0.6-3.3-3.6-3.1-6
				c0.1-2.5,0.8-5,0-7.3c-1.1-3.2-4.7-5-5.8-8.1C461.7,95.8,464,91.9,466.7,89.1z"/>
			<path class="st21" d="M506.5,60.8h1.5c16.3,0.6,24.8,14.8,23.7,31l-0.7,55.9c-0.1,10.1-8.1,18.4-18.3,18.8l0,0
				c-10.5,0.4-19.3-7.7-19.8-18.2c0-0.1,0-0.2,0-0.4c-0.1-2.9-0.1-5-0.1-5s-15.6-2.1-16.2-17.6c-0.3-7.5,0.5-23.1,1.4-37.1
				C479,73,491.4,61.1,506.5,60.8z"/>
			<path class="st22" d="M492.9,142.9c7.2-0.2,14.2-2.4,20.2-6.4c0,0-4.7,11.4-20.3,10.4L492.9,142.9z"/>
			<path class="st21" d="M530.7,103.3c0.3-0.1,10.7-3.4,10.5,7.3c-0.1,10.7-10.8,8.3-10.8,8S530.7,103.3,530.7,103.3z"/>
			<path class="st20" d="M485.4,70.6c-1.7-1,3.6-6.5,7.9-8.3c6.5-2.7,16.3-4.4,22.2-2.6c7.1,2.2,12.9,5.8,16.4,12.4
				c3.3,6.7,4.8,14.1,4.3,21.5c0,2.3-0.5,4.5-1.6,6.5c-1.5,2.3-4.4,3.8-4.4,7c0.1,1.2-0.4,2.4-1.2,3.2c-2,2-4.3,0-5.4-1.9
				c-2.3-4.2-2.4-9.2-2.5-14c-0.3-3.4,0-6.8,0.9-10.1c0.6-1.8,1.4-3.4,1.9-5.2c0.6-1.8,0.3-3.7-0.7-5.3c-0.3-0.3-0.5-0.6-0.9-0.9
				c-3-2.7-7.2-3.6-11-2.3c-6,2-16.4,5-19,2.9c-3.8-3-4.7-4.9-4.7-4.9L485.4,70.6z"/>
			<path class="st20" d="M514.9,58.2c-5.9-2.2-12.4-2-18,0.6c-3,1.3-5.4,3.8-6.6,6.9c-0.9,3.1,0.3,7.1,3.3,8.4l0.2,0.1
				c4.5,1.6,7.5,1.1,12.1-0.4c3.8-1.2,7.3-3.5,11.1-4.7c4.1-1.3,8.5-1.3,12.7-0.1C525.8,64.2,520.7,60.5,514.9,58.2z"/>
			<path class="st23" d="M531.5,451.9L515.2,491l-3.9,34.6c-0.3,2.4-2.4,4.1-4.8,3.8c-0.1,0-0.2,0-0.3,0l0,0
				c-1.4-0.3-2.6-1.2-3.1-2.4c-3.8-8.1-17.2-37.7-16.3-40.2c1.2-3.2,14.5-43,14.5-43L531.5,451.9z"/>
			<path class="st23" d="M417.4,452.8l8.9,33c0,0-30.6,20.1-29.5,26.4l64.6-14.9l-11.8-52L417.4,452.8z"/>
			<path class="st23" d="M434.2,317.9c3,1.5,10.4,0,10.4,0l29.2-16.1l78.7-4.7l21.4,33.1l-38.6,30.5h-69.8l-31.2-25V317.9z"/>
			<path class="st23" d="M471,305.5c-2.1,1-63.2,20.7-74.4,28.8c-9.6,7-11.3,11.2-8.2,27.9c3.1,16.7,28.3,112,28.3,112l41-10.4
				l-17-95.2l49.3-13.2c0,0-0.7-18.9-7.8-32.3C478.8,317,475.1,311.1,471,305.5z"/>
			<path class="st23" d="M544.4,297.2c0,0,22.2,24.6,26.9,31.8c4.7,7.1-19.7,11.6-19.7,11.6l-20.3-11.6L544.4,297.2z"/>
			<path class="st23" d="M555.1,318c0,0,20.3-3.1,22.9,29.7s-45.8,126.6-45.8,126.6L490,457.9c0,0,20.3-92,33.3-111.8
				C531.3,334.1,542.2,324.4,555.1,318z"/>
			<path class="st24" d="M569.2,160.6c0,0,12,5.7,18.1,25.9c6,19.6,20.9,52.3,19.7,60.3c-1.2,8,2.2,16.7-12,18.7s-21.4,2.2-25.1-2.4
				c-2.4-3-4.4-6.3-6-9.8L569.2,160.6z"/>
			<polygon class="st25" points="534.7,149 531.1,143.9 509.3,163.8 492.8,145.9 488.4,149.5 484.1,160.6 486.4,203.6 478.5,269.8 
				473.8,301.8 545.4,297.1 551.7,270.8 537.9,224.5 532.5,188.5 537.8,155.1 			"/>
			<path class="st24" d="M489.2,148.5l-6.1,7.5c0,0-33.3,12-34.4,13.6c-1,1.6,7.3,70.9,6.8,72.4c-0.5,1.6-9.5,64.1-9.5,64.1
				l-24.4,16.8l28.2,6.2l24-27.1c0,0,14.6-41.7,16.2-63.6c1.6-21.9,3.1-58.3,0-69.8C488.1,162,487.8,155.1,489.2,148.5z"/>
			<path class="st24" d="M397.7,255.4l12.9-13.6l14.9-31.5c0,0,13-36.3,23.2-40.9c10.3-4.6,13,54.7,13,54.7l-36.2,50.5h-5.6
				l-16.5-3.1L397.7,255.4z"/>
			<path class="st24" d="M535.2,146.2l4.1,6.8l29.8,7.7l-0.7,80.5l1.4,42.6c0,0,9.3,32.5,12.3,50.2c4.2,24.1-0.3,23.5-0.3,23.5
				l-13.6-8.2c0,0-33.1-69.8-38.3-86.5c-5.2-16.7-6.8-41.7-6.3-65.1S535.2,146.2,535.2,146.2z"/>
			<path class="st21" d="M408.8,250.5c-2.1-0.5-13-1.6-15.5-0.6c-2.6,1-4.6,3.2-4.2,5.8c-1.1,1.6-1.7,3.5-1.8,5.4
				c0,1.3,0.4,2.6,1.2,3.6c0,0,0.2,5.3,2.6,6.8c0,0,2.4,5.1,5.6,5.3s18.7-1.4,18.7-1.4s4.8,0.5,6.6-2.5c1.9-3.1,4.1-3.6,3.3-7.3
				c-0.9-3.7-2.1-7.9-5.3-9.2l-3.2-1.2c0,0,1.5-4.1-1.5-5l-5.5,0.4L408.8,250.5z"/>
			<path class="st22" d="M414.7,273.9c3.6-4.2,5-9.9,3.7-15.2C418.7,264,417.4,269.4,414.7,273.9z"/>
			<path class="st23" d="M444.1,263.1l1.4-33.8c0.1-1.5,2.7-8.1,4.4-12.3c0.1-0.3,0-0.7-0.3-0.9c0,0,0,0,0,0c-0.3-0.1-0.7,0-0.9,0.4
				c0,0,0,0,0,0c-0.4,1.1-4.4,10.6-4.5,12.8l-1.4,33.8L444.1,263.1z"/>
			<path class="st26" d="M428,263.2c0,0.7,3.5,1.4,7.8,1.6c4.3,0.2,7.9-0.3,7.9-1c0-0.7-3.5-1.4-7.8-1.6
				C431.6,262,428,262.5,428,263.2z"/>
			<path class="st26" d="M410.4,262.5c0,0.7,3.5,1.4,7.8,1.6s7.9-0.3,7.9-1c0-0.7-3.5-1.4-7.8-1.6
				C413.9,261.3,410.4,261.8,410.4,262.5z"/>
			<path class="st23" d="M411.2,262.6c0.4,0,0.7-0.3,0.7-0.6c0-0.3,2-32.5,2.7-36.2c0.6-3.2,7.8-9,8.6-9.5c0.3-0.1,0.5-0.5,0.4-0.8
				c0,0,0,0,0,0c-0.1-0.4-0.6-0.5-0.9-0.4c-0.6,0.2-8.7,6.5-9.4,10.5c-0.7,3.7-2.7,35-2.7,36.4C410.5,262.3,410.8,262.6,411.2,262.6
				C411.2,262.6,411.2,262.6,411.2,262.6L411.2,262.6z"/>
			<path class="st23" d="M427.5,264.4h0.2c0.5-0.1,1-0.4,1.4-0.8c0.2-0.3,0.2-0.7-0.1-1c-0.3-0.2-0.7-0.2-1,0.1c0,0,0,0.1-0.1,0.1
				c-0.1,0.1-0.3,0.2-0.5,0.3c-0.4,0-0.8-0.2-1-0.5c-0.3-0.2-0.7-0.2-0.9,0.1c0,0,0,0,0,0c-0.3,0.2-0.3,0.7,0,0.9c0,0,0,0,0,0
				C426,264.1,426.7,264.4,427.5,264.4z"/>
			<path class="st21" d="M410.2,250.6c1.7,0.5,2.7,2.2,2.2,3.9c-0.2,0.9-0.8,1.6-1.6,2c-0.9,0.4-2,0.5-3,0.4l-15.5-0.4"/>
			<path class="st22" d="M392.2,256.6c1.3,0.2,2.5,0.3,3.8,0.3c2.4,0.1,5.6,0.2,9.2,0.3h2.6c0.9,0.1,1.7,0,2.5-0.3
				c1.5-0.6,2.4-2,2.3-3.6c-0.1-1-0.7-1.9-1.5-2.4c-0.6-0.4-1-0.4-1-0.3s0.3,0.2,0.8,0.6c0.7,0.5,1.1,1.4,1.2,2.3
				c0,1.3-0.7,2.5-2,2.9c-0.8,0.2-1.5,0.3-2.3,0.2h-2.6c-3.6-0.1-6.9-0.1-9.2-0.1C394.8,256.4,393.5,256.4,392.2,256.6z"/>
			<path class="st21" d="M406.4,257.5c3.9-0.5,7.5,0.9,8.5,2c1.1,1,1.1,2.8,0.1,3.8c0,0,0,0-0.1,0.1c-0.7,0.4-1.6,0.6-2.4,0.5
				l-20.2,0.1"/>
			<path class="st22" d="M392.3,264c0.4,0.1,0.9,0.2,1.4,0.1c0.9,0,2.2,0.1,3.9,0.1c3.3,0,7.8,0.1,12.8,0c1.2,0,2.5,0,3.7-0.1
				c0.7-0.1,1.3-0.5,1.6-1c0.3-0.5,0.5-1.2,0.4-1.8c-0.1-1.2-0.8-2.2-1.8-2.7c-0.8-0.4-1.7-0.8-2.5-1c-1.3-0.3-2.6-0.5-3.9-0.4
				c-0.5,0-0.9,0.1-1.4,0.2c1.7,0,3.5,0.2,5.2,0.6c1.4,0.5,3.7,1.1,3.8,3.2c0.2,1-0.5,1.9-1.5,2.1c0,0,0,0-0.1,0
				c-1.2,0.1-2.4,0.1-3.6,0.1c-5,0-9.5,0.1-12.7,0.2l-3.9,0.1C393.3,263.7,392.8,263.8,392.3,264z"/>
			<path class="st21" d="M412,264.4c0.6-0.2,3.1-0.1,3.2,0.5c0.1,0.7-0.1,1.3-0.6,1.8c-0.5,0.4-1.1,0.8-1.7,1
				c-6.1,2.4-12.7,2.8-19.2,3.2"/>
			<path class="st22" d="M393.7,270.8c1.3,0.1,2.6,0.1,3.9,0c3.2-0.1,6.4-0.5,9.5-1.1c1.7-0.4,3.4-0.9,5.1-1.5
				c0.8-0.2,1.5-0.6,2.1-1c0.6-0.4,1.1-1.1,1.2-1.8c0-0.2,0-0.3,0-0.5c0-0.1-0.1-0.2-0.1-0.3c-0.1-0.1-0.1-0.1-0.2-0.2
				c-0.3-0.1-0.5-0.2-0.8-0.3c-0.4,0-0.8,0-1.3,0c-0.7,0-1.1,0.2-1.1,0.2c0,0.1,0.4,0,1,0c0.4,0,0.8,0.1,1.2,0.2
				c0.2,0,0.4,0.1,0.7,0.2c0.1,0.1,0.1,0,0.1,0.2c0,0.1,0,0.3,0,0.4c-0.1,0.6-0.5,1.1-1,1.4c-0.6,0.4-1.3,0.6-2,0.9
				c-1.6,0.6-3.3,1-5,1.4c-3.1,0.6-6.2,1.1-9.4,1.4C396.3,270.4,395,270.6,393.7,270.8z"/>
			<path class="st21" d="M412.5,268.2c1.5-0.3,1.5,0.5,0.7,1.5c-0.4,0.6-1,1.1-1.5,1.6c-2.3,1.7-4.6,3.3-7.1,4.8"/>
			<path class="st22" d="M404.5,276.1c2.1-0.8,4.1-2,5.8-3.4c0.7-0.5,1.4-1.1,2.1-1.7c0.6-0.5,1-1.1,1.4-1.8c0.2-0.3,0.2-0.7,0-1
				c-0.2-0.2-0.5-0.2-0.7-0.2c-0.4,0-0.5,0.2-0.5,0.2s0.2,0,0.5,0.1s0.4,0,0.4,0.2s0,0.3-0.1,0.5c-0.4,0.6-0.8,1.1-1.4,1.5
				c-0.6,0.5-1.4,1-2.1,1.6C408.1,273.3,406.3,274.6,404.5,276.1z"/>
			<path class="st21" d="M416.7,251.1c1,2.8-0.5,5.8-3.3,6.8c0,0,0,0,0,0"/>
			<path class="st22" d="M413.5,258c0,0.1,0.6,0.1,1.3-0.3c0.9-0.5,1.7-1.3,2.1-2.3c0.5-1,0.7-2,0.5-3.1c-0.2-0.8-0.5-1.2-0.6-1.2
				s0,0.5,0.1,1.2c0,0.9-0.2,1.9-0.6,2.7c-0.4,0.9-1,1.6-1.8,2.2C413.9,257.7,413.5,257.8,413.5,258z"/>
			<g class="st27">
				<path d="M571.6,247.2c-4.7-3.9-9.1-8.2-13.2-12.7c-0.9-0.8-1.5-1.8-1.7-3c-0.1-1.4,0.8-2.7,1-4.1c0-1.4-0.2-2.7-0.5-4
					c-0.4-1.3,0-2.7,1-3.7c0.8-0.5,1.8-0.7,2.7-0.5c9.5,0.8,16.5,9.2,15.6,18.6c-0.3,3.4-1.6,6.7-3.8,9.4"/>
			</g>
			<polygon class="st14" points="516.5,172.7 513.7,180.5 507.4,180.5 504,173 509.8,164.2 			"/>
			<polygon class="st14" points="513.7,180.5 521.1,291.4 508.1,305.1 496.6,289.1 507.4,180.5 			"/>
			<g class="st27">
				<path d="M540.3,156.7l7.3,20.5l-3.6,3.3l5.8,5.9c0,0-14.9,39.7-16.9,46.8c-1.9,7.1-3.5,9.6-3.5,9.6s0.9-10.3,1.4-14.9
					c0.5-4.7,15.2-42.7,15.2-42.7l-6.1-4.6l5.1-4.9L540.3,156.7z"/>
			</g>
			<g class="st27">
				<polygon points="481.1,160.6 475.4,170.6 479.4,177.2 472.1,183.7 486,258.2 483.5,228 475.4,183.3 482.8,177.2 477.4,169 				
					"/>
			</g>
			<g>
				<g>
					<g>
						<g>
							<g>
								<g>
									<path class="st14" d="M572.3,222.3c-0.1,0.2-12.8,20-12.8,20l6.2-0.9l1.1,7.6l11.3-24.6L572.3,222.3z"/>
								</g>
							</g>
						</g>
						<g>
							<g>
								<g>
									<polygon class="st14" points="576.8,224.5 570.9,249.7 577.7,244.3 582.6,250.5 583.4,224.4 									"/>
								</g>
							</g>
						</g>
						<g class="st11">
							<g>
								<g>
									<g>
										<path d="M571.4,223.8c0,1,0.7,2,1.6,2.3c0.6,0.2,1.2,0.2,1.6,0.6c0.4,0.4,0.4,1.2,0.9,1.5c0.6,0.3,1.3-0.5,2-0.5
											c0.9,0,1.5,1.2,2.4,1.2c0.6,0,1.1-0.7,1.7-0.7c0.3,0,0.5,0.1,0.7,0.2c0.2,0.1,0.6,0.2,0.9,0.1l0-1.3l0.2-2.5l-11.2-3.2
											L571.4,223.8z"/>
									</g>
								</g>
							</g>
						</g>
						<g>
							<g>
								<g>
									<g>
										<path class="st14" d="M584.1,202.6C584.1,202.6,584.1,202.5,584.1,202.6c0,0,0,0.1,0,0.1
											C584.1,202.6,584.1,202.6,584.1,202.6z"/>
									</g>
								</g>
							</g>
							<g>
								<g>
									<g>
										<path class="st14" d="M588.2,223.4c-0.3-0.4-0.7-0.8-1.1-1.3c-0.5-0.6-1-1.2-1.3-1.7c-0.2-0.3-0.4-0.5-0.5-0.6
											c-0.1,0.1-0.3,0.2-0.4,0.3c-0.5,0.3-1.1,0.6-1.7,0.8c-0.2,0.1-0.3,0.1-0.5,0.2c-1.2,0.3-2.5,0.4-3.7,0.1
											c-0.1,0-0.1,0-0.2,0c0.1,0.1,0.1,0.2,0.2,0.4c0,0,0,0,0,0.1c0,0.3-0.1,0.5-0.2,0.8c-0.1,0.3-0.3,0.6-0.4,1
											c-0.2,0.5-0.4,0.9-0.6,1.2c-0.1,0.2-0.2,0.4-0.2,0.5c-0.2,0.4-0.3,0.7-0.4,0.7c0,0,0.1-0.3,0.3-0.7
											c0.2-0.5,0.5-1.1,0.8-1.8c0.2-0.3,0.3-0.7,0.4-1c0.1-0.3,0.2-0.6,0.2-0.8c0-0.2-0.1-0.3-0.2-0.4c-0.1,0-0.1,0-0.2,0
											c-0.1,0-0.2-0.1-0.3-0.1c-0.8-0.3-1.5-0.6-2.2-1.1c0,0,0,0.1,0,0.1c0,0,0,0,0,0.1c0,0.1,0,0.3,0,0.5c0,0.1,0,0.1,0,0.2
											c-0.1,0.2-0.2,0.4-0.3,0.6c-0.2,0.3-0.4,0.5-0.7,0.8c-0.5,0.6-1,1-1.4,1.4c-0.2,0.2-0.4,0.3-0.5,0.4
											c0.1,0,0.2,0.1,0.3,0.1c0.6,0.5,0.7,1.7,1.5,1.8c0,0,0,0,0.1,0c0.6,0,1.1-0.5,1.7-0.4c0.3,0.1,0.4,0.2,0.6,0.5
											c0.2,0.3,0.4,0.7,0.7,0.9c0.5,0.3,1,0.2,1.5,0c0.5-0.2,1-0.4,1.5-0.5c0.2,0,0.4,0,0.6,0c0.5,0.1,0.9,0.6,1.3,0.7
											c0.2,0.1,0.4,0.1,0.6,0c0.6-0.2,0.6-1,0.9-1.5c0-0.1,0-0.1-0.1-0.2c-0.1-0.5-0.3-1.2-0.5-1.9c-0.1-0.4-0.2-0.7-0.3-1.1
											c-0.1-0.3-0.1-0.6-0.3-0.8c-0.1-0.2-0.3-0.3-0.5-0.3c-0.1,0-0.2,0.1-0.2,0.1c0,0,0-0.1,0.2-0.1c0.1,0,0.4,0,0.5,0.2
											c0,0,0,0,0,0c0.2,0.2,0.2,0.5,0.3,0.9c0.1,0.3,0.2,0.7,0.3,1.1c0,0,0,0,0,0c0.2,0.7,0.3,1.4,0.5,1.9c0,0,0,0.1,0,0.1
											c0,0,0,0,0,0c0.1-0.1,0.1-0.1,0.2-0.2c0.7-0.4,1.6,0.5,2.4,0.1c0.1,0,0.1-0.1,0.2-0.1c0.4-0.3,0.5-0.9,0.9-1.3
											c0.1,0,0.1-0.1,0.2-0.1c0,0,0,0,0,0c0,0-0.1-0.1-0.1-0.1C588.3,223.6,588.3,223.5,588.2,223.4z M579.2,224.2
											c0,0,0.1-0.3,0.2-0.7c0.1-0.4,0.2-0.7,0.2-0.7c0,0,0,0.4-0.1,0.8C579.3,223.9,579.2,224.3,579.2,224.2z M581.1,225.5
											c0,0.4-0.1,0.7-0.1,0.7C581,226.1,581,225.9,581.1,225.5c-0.1-0.5-0.1-1-0.1-1.6c0-0.6,0-1.1,0-1.6c0-0.2,0-0.4,0-0.5
											c0-0.1,0-0.1,0-0.1c0,0,0,0.3,0.1,0.7c0,0.4,0,1,0.1,1.6c0,0.2,0,0.3,0,0.5C581.1,224.8,581.1,225.2,581.1,225.5z
											 M585.2,222.6c-0.2-0.6-0.3-1.2-0.2-1.2c0,0,0.2,0.5,0.4,1.1c0.2,0.6,0.4,1.1,0.4,1.1
											C585.7,223.7,585.4,223.2,585.2,222.6z"/>
									</g>
								</g>
								<g>
									<g>
										<path class="st14" d="M592.3,219.8c0.1-0.1,0.1-0.2,0.2-0.3c0.2-0.6-0.4-1.3-0.2-1.9c0,0,0,0,0,0
											c-0.2-0.1-0.4-0.1-0.6-0.2c-0.3-0.1-0.7-0.3-1-0.4c-0.6-0.2-1.2-0.5-1.7-0.6c-0.4-0.2-0.7-0.3-0.7-0.3c0,0,0.2,0,0.6,0.2
											c0,0,0.1,0,0.2,0c0.4,0.1,1.1,0.4,1.7,0.6c0.6,0.2,1.2,0.5,1.6,0.6c0.3-0.5,0.9-0.5,1.2-1c0.2-0.2,0.2-0.5,0.2-0.8
											c0-0.2-0.1-0.4-0.2-0.6c-0.2-0.4-0.4-0.9-0.4-1.3c0-0.2,0-0.3,0.1-0.4c0.1-0.5,0.5-1.1,0.3-1.6c0-0.1-0.1-0.3-0.2-0.4
											c-0.3-0.5-0.9-0.8-1.1-1.4c0,0,0,0,0,0c-0.3-0.9,0.7-1.8,0.3-2.6c0,0,0-0.1-0.1-0.1c-0.1-0.2-0.2-0.3-0.4-0.4l0,0
											c-0.4-0.3-0.9-0.4-1.3-0.7c-0.1-0.1-0.2-0.2-0.3-0.4c-0.2-0.4-0.1-1-0.5-1.4c-0.1-0.1-0.2-0.2-0.4-0.2
											c-0.5-0.2-1.1-0.1-1.5-0.4c-0.1-0.1-0.2-0.1-0.3-0.2c-0.3,0.4-0.7,0.9-1.1,1.6c-0.8,1.1-1.5,2-1.5,1.9c0,0,0.6-0.9,1.4-2
											c0.5-0.6,0.9-1.2,1.2-1.5c0,0,0,0,0,0c-0.2-0.2-0.3-0.3-0.3-0.6c-0.1-0.4-0.5-0.9-1.1-1c-0.2,0-0.3,0-0.5,0
											c-0.5,0.1-1.2,0.9-1.5,0.9c-0.1,0-0.1-0.1-0.2-0.2c0,0,0,0.1,0,0.1c-0.1,0.3-0.3,1-0.5,1.8c-0.2,0.8-0.4,1.4-0.6,1.7
											c0.2,0.1,0.4,0.1,0.5,0.2c0.5,0.2,1.1,0.5,1.5,0.8c0.1,0.1,0.2,0.2,0.4,0.3c0.5,0.4,1,0.9,1.4,1.4c0,0,0,0,0,0
											c0,0,0,0,0-0.1c0,0,0,0,0,0c0.1-0.1,0.1-0.1,0.2-0.2c0.2-0.1,0.3-0.2,0.5-0.3c0.3-0.2,0.6-0.4,0.9-0.6
											c0.6-0.4,1.1-0.7,1.5-0.9c0.4-0.2,0.6-0.3,0.6-0.3c0,0-0.2,0.2-0.6,0.4c-0.4,0.2-0.9,0.6-1.5,0.9
											c-0.6,0.4-1.1,0.7-1.5,0.9c-0.1,0.1-0.2,0.2-0.3,0.2c0,0.1,0.1,0.1,0.1,0.2c0.5,0.7,0.9,1.4,1.1,2.2c0,0.1,0,0.2,0.1,0.2
											c0-0.1,0.1-0.2,0.1-0.2c0-0.1,0.1-0.1,0.1-0.1c0.1-0.1,0.3-0.2,0.4-0.2c0.2-0.1,0.5-0.2,0.8-0.2c0.6-0.2,1.1-0.3,1.5-0.3
											c0.3,0,0.5-0.1,0.6-0.1c0,0,0.1,0,0.1,0c0,0-0.2,0.1-0.6,0.2c-0.4,0.1-0.9,0.2-1.5,0.4c-0.6,0.2-1.1,0.3-1.4,0.6
											c-0.1,0.1-0.1,0.2-0.2,0.3c0,0.1,0,0.1,0.1,0.2c0.1,0.6,0.2,1.2,0.2,1.9c0,0.3,0,0.6-0.1,0.8c0,0.4-0.1,0.8-0.2,1.2
											c0,0.1,0,0.1-0.1,0.2c-0.1,0.2-0.1,0.4-0.2,0.6c-0.2,0.5-0.5,1-0.8,1.5c-0.2,0.2-0.3,0.4-0.5,0.6
											c-0.3,0.4-0.7,0.7-1.1,1.1c0,0,0,0,0,0c0.1,0.1,0.2,0.3,0.5,0.5c0,0,0,0,0.1,0.1c0.3,0.4,0.8,1,1.3,1.6
											c0.5,0.6,1,1.2,1.3,1.7c0,0.1,0.1,0.1,0.1,0.2c0.3-0.1,0.7-0.1,1-0.2c0.2-0.1,0.4-0.1,0.5-0.3c0.5-0.5,0.2-1.3,0.4-2
											c-0.3-0.3-0.9-0.8-1.4-1.4c-0.5-0.5-0.9-0.9-1.2-1.2c-0.4-0.4-0.6-0.6-0.6-0.6c0,0,0.9,0.8,1.9,1.7
											c0.5,0.4,0.9,0.8,1.2,1.2c0.1,0.1,0.1,0.1,0.2,0.2c0,0,0,0,0,0c0-0.1,0.1-0.2,0.2-0.3
											C591.1,220.4,591.9,220.3,592.3,219.8z M586.9,206.3c0.6-0.4,1-0.7,1-0.7c0,0-0.4,0.4-0.9,0.8c-0.6,0.4-1,0.7-1.1,0.6
											C585.9,207,586.3,206.7,586.9,206.3z M589.3,208.6c-0.6,0.2-1.2,0.3-1.2,0.2c0,0,0.5-0.2,1.1-0.4c0.6-0.2,1.1-0.4,1.1-0.3
											C590.4,208.1,589.9,208.4,589.3,208.6z M590.4,211.3c0.5-0.1,0.8-0.1,0.8,0c0,0-0.4,0.1-0.8,0.2c-0.5,0.1-0.8,0.1-0.8,0.1
											C589.6,211.5,590,211.4,590.4,211.3z M588.7,213.7C588.7,213.7,588.7,213.7,588.7,213.7c0.1,0,0.3-0.1,0.6-0.1
											c0.4,0,0.9-0.1,1.4-0.1c0.6,0,1.1-0.1,1.4-0.1c0.4,0,0.6,0,0.6,0c0,0-0.1,0-0.2,0c-0.1,0-0.2,0-0.4,0
											c-0.4,0-0.9,0.1-1.4,0.1c-0.6,0-1.1,0.1-1.4,0.1C588.9,213.7,588.7,213.7,588.7,213.7z"/>
									</g>
								</g>
								<g>
									<g>
										<path class="st14" d="M575,222c0.3-0.3,0.5-0.5,0.7-0.8c0.2-0.3,0.3-0.5,0.4-0.7c0.1-0.2,0.1-0.4,0-0.5c0-0.1,0-0.1,0-0.2
											c-0.4-0.3-0.8-0.7-1.2-1.1c0,0,0,0,0,0c-0.1,0.1-0.2,0.2-0.4,0.3c0,0,0,0-0.1,0c-0.3,0.2-0.7,0.5-1.1,0.7
											c-0.5,0.3-0.9,0.5-1.2,0.7c-0.3,0.2-0.5,0.3-0.5,0.2c0,0,0,0,0.1-0.1c0.2-0.2,0.9-0.5,1.6-0.9c0.8-0.5,1.4-0.9,1.6-1
											c-0.1-0.2-0.3-0.3-0.4-0.5c-0.2,0.1-0.5,0.2-0.8,0.4c-0.5,0.2-1,0.3-1,0.3c0,0,0.4-0.2,0.9-0.4c0.3-0.1,0.5-0.2,0.7-0.3
											c0,0,0.1,0,0.1,0c-0.4-0.5-0.7-1.1-0.9-1.7c-0.1-0.1-0.1-0.3-0.1-0.4c-0.2-0.6-0.3-1.3-0.4-1.9c0-0.1,0-0.3,0-0.4
											c0-0.6,0.1-1.3,0.2-1.9c0-0.1,0-0.2,0.1-0.3c0-0.1,0.1-0.2,0.1-0.4c0.2-0.6,0.5-1.1,0.8-1.6c0-0.1,0.1-0.1,0.1-0.2
											c-0.1,0-0.2,0-0.3,0c-0.1,0-0.1-0.1-0.2-0.1c-0.4-0.2-0.9-0.5-1.4-0.9c-0.6-0.5-1.1-0.9-1.4-1.3c-0.2-0.2-0.4-0.4-0.5-0.5
											c0,0-0.1-0.1,0-0.1c0,0,0.2,0.2,0.6,0.5c0.1,0.1,0.3,0.3,0.5,0.4c0.3,0.2,0.6,0.5,1,0.8c0.1,0.1,0.2,0.2,0.3,0.2
											c0.5,0.3,0.9,0.6,1.3,0.8c0.1,0,0.2,0.1,0.3,0c0,0,0,0,0,0c0.1-0.1,0.2-0.3,0.3-0.4c-0.2-0.2-0.5-0.5-0.9-0.8
											c-0.6-0.6-1-1.1-1-1.1c0,0,0.5,0.4,1.1,1c0.1,0.1,0.2,0.3,0.4,0.4c0.2,0.2,0.3,0.4,0.5,0.5c0.4-0.4,0.7-0.8,1.2-1.2
											c0,0-0.1-0.1-0.1-0.1c-0.3-0.3-0.6-0.8-1-1.3c-0.3-0.5-0.6-1-0.8-1.4c0,0,0,0,0,0c-0.2-0.4-0.3-0.6-0.2-0.6
											c0,0,0.1,0.2,0.3,0.6c0.2,0.4,0.5,0.8,0.8,1.4c0.3,0.5,0.7,1,0.9,1.3c0,0,0.1,0.1,0.1,0.1c0.1-0.1,0.3-0.2,0.4-0.3
											c0,0,0,0,0,0c0,0,0,0,0,0c-0.1-0.2-0.2-0.5-0.3-0.8c-0.2-0.7-0.4-1.2-0.3-1.2c0,0,0.1,0.2,0.3,0.6
											c0.1,0.2,0.1,0.4,0.2,0.6c0.1,0.3,0.2,0.6,0.3,0.8c0.5-0.4,1.1-0.7,1.8-0.9c0,0,0.1,0,0.1,0c0,0-0.1-0.2-0.3-0.5
											c-0.1-0.1-0.1-0.2-0.2-0.4c-0.1-0.3-0.3-0.6-0.4-0.9c-0.2-0.5-0.4-1-0.5-1.3c-0.1-0.3-0.2-0.6-0.2-0.6
											c0,0,0.1,0.1,0.1,0.3c0.1,0.3,0.4,0.9,0.7,1.6c0.4,1,0.8,1.8,0.7,1.9c0.1,0,0.3-0.1,0.4-0.1c0.5-0.1,1-0.2,1.5-0.2
											c0-0.1,0-0.1,0-0.2c0-0.4,0-0.9,0.1-1.5c0.1-0.6,0.1-1.1,0.2-1.5c0.1-0.3,0.1-0.5,0.1-0.6c0,0,0,0,0,0c0,0,0,0.2,0,0.6
											c0,0.4-0.1,0.9-0.2,1.5c0,0.5-0.1,1-0.1,1.3c0,0.1,0,0.1,0,0.2c0,0.1,0,0.1,0,0.2c0,0,0,0,0,0c0.2,0,0.3,0,0.5,0
											c0-0.1,0-0.4,0.1-0.9c0.1-0.5,0.1-0.9,0.2-0.9c0,0,0.1,0.4,0,0.9c0,0.2-0.1,0.3-0.1,0.5c0,0.1,0,0.1-0.1,0.2
											c0,0.1-0.1,0.2-0.1,0.2c0,0,0,0,0,0c0.6,0,1.3,0.1,1.9,0.3c0,0,0,0,0,0c0,0,0,0,0.1,0c0.1-0.3,0.2-0.8,0.4-1.5
											c0-0.1,0.1-0.2,0.1-0.3c0.3-1,0.6-1.8,0.7-1.9c-0.2-0.4-0.2-1.2-0.8-1.4c-0.4-0.2-0.7-0.2-1-0.1c-0.3,0.1-0.5,0.5-1,0.9
											c-0.2,0.1-0.4,0.2-0.6,0.1c-0.3-0.1-0.7-0.3-0.9-0.6c-0.3-0.5-1.1-0.7-1.7-0.6c-0.1,0-0.2,0-0.3,0.1
											c-0.5,0.1-0.8,0.7-1.2,1.1c-0.2,0.2-0.4,0.4-0.7,0.4c-0.4,0.1-0.8,0-1.2-0.1c-0.2,0-0.5,0-0.7,0.1
											c-0.4,0.3-0.4,0.9-0.7,1.2c-0.1,0.1-0.2,0.2-0.3,0.3c-0.5,0.3-1.2-0.2-1.8,0c-0.2,0.1-0.3,0.2-0.4,0.4
											c-0.2,0.5-0.2,1.1-0.5,1.6c-0.1,0.1-0.1,0.2-0.2,0.3c-0.3,0.3-0.7,0.5-1,0.7c-0.2,0.1-0.3,0.4-0.4,0.6
											c-0.1,0.3-0.1,0.6,0.2,0.8l0-0.2c0.4,0.3,0.3,0.9,0.1,1.3c-0.2,0.3-0.4,0.5-0.6,0.7c-0.1,0.1-0.3,0.2-0.4,0.3
											c-0.3,0.3-0.6,0.8-0.5,1.3c0,0,0,0,0,0c0.1,0.5,0.6,0.8,0.7,1.3c0.1,0.3,0,0.6-0.2,0.9c-0.4,0.7-1.1,1.3-0.8,2
											c0,0.1,0.1,0.1,0.1,0.2c0.4,0.5,1.4,0.6,1.6,1.3c0,0.1,0,0.2,0,0.3c0,0.4-0.3,0.8-0.2,1.2c0.1,0.4,0.4,0.6,0.8,0.8
											c0.5,0.3,1.1,0.4,1.3,0.9c0,0.1,0.1,0.2,0.1,0.2c0.1,0.7-0.4,1.5-0.1,2.1c0.1,0.1,0.2,0.2,0.2,0.3
											c0.5,0.4,1.4,0.2,2.1,0.5c0.1-0.1,0.3-0.3,0.5-0.5C574,223.1,574.5,222.6,575,222z M578.4,205.2c-0.1-0.5-0.1-1,0-1
											c0,0,0.1,0.4,0.2,1c0.1,0.5,0.2,1,0.1,1C578.6,206.2,578.5,205.7,578.4,205.2z M573.2,211.3c0,0-0.4-0.1-0.9-0.3
											c-0.5-0.2-0.8-0.4-0.8-0.5c0,0,0.4,0.1,0.9,0.3C572.9,211.1,573.2,211.3,573.2,211.3z M568.6,210.2c0,0,0.3,0.1,0.7,0.2
											c0.4,0.1,1,0.3,1.6,0.5c0.6,0.2,1.2,0.4,1.6,0.5c0.4,0.1,0.7,0.2,0.7,0.2c0,0-0.3,0-0.7-0.1c-0.3-0.1-0.6-0.2-1-0.3
											c-0.2-0.1-0.4-0.1-0.6-0.2c-0.6-0.2-1.2-0.4-1.6-0.6c-0.2-0.1-0.3-0.1-0.4-0.2C568.7,210.2,568.6,210.2,568.6,210.2z
											 M568.1,214.1c0,0,0.3,0,0.7,0c0.2,0,0.4,0,0.6,0c0.3,0,0.7,0,1.1,0c0.3,0,0.7,0,1,0c0.3,0,0.6,0,0.8,0
											c0.4,0,0.7-0.2,0.7-0.2c0,0,0,0.1-0.1,0.1c-0.1,0-0.2,0.1-0.3,0.1c-0.1,0-0.2,0-0.3,0.1c-0.2,0-0.5,0-0.8,0
											c-0.3,0-0.6,0-1,0c-0.7,0-1.3,0-1.8,0C568.4,214.1,568.1,214.1,568.1,214.1z M569.9,217.7c-0.4,0.1-0.7,0.2-0.7,0.2
											C569.2,217.8,569.4,217.7,569.9,217.7c0.2-0.2,0.5-0.3,0.8-0.4c0.2-0.1,0.5-0.2,0.8-0.2c0.6-0.2,1.2-0.3,1.6-0.5
											c0.1,0,0.2-0.1,0.2-0.1c0-0.1,0.1-0.1,0.1-0.2c0-0.1-0.1-0.1-0.1-0.2c0,0,0.1,0,0.1,0.2c0,0.1,0,0.1,0,0.2c0,0,0,0,0,0
											c0,0.1-0.1,0.1-0.2,0.2c-0.4,0.2-1,0.3-1.6,0.5C570.9,217.4,570.3,217.6,569.9,217.7z"/>
									</g>
								</g>
								<g>
									<g>
										<path class="st14" d="M574.2,211.7c-1,3.6,1,7.4,4.6,8.4c3.6,1,7.4-1,8.4-4.6c1-3.6-1-7.4-4.6-8.4
											C579,206.1,575.3,208.1,574.2,211.7z"/>
									</g>
								</g>
							</g>
						</g>
						<g>
							<g>
								<g>
									<g>
										<path class="st24" d="M589.3,213.7c0.4,0,0.9,0,1.4-0.1c0.6,0,1.1-0.1,1.4-0.1c0.1,0,0.3,0,0.4,0c0.1,0,0.2,0,0.2,0
											c0,0-0.2,0-0.6,0c-0.4,0-0.9,0-1.4,0.1C590.2,213.5,589.7,213.5,589.3,213.7c-0.3-0.1-0.5,0-0.6,0c0,0,0,0,0,0
											C588.7,213.7,588.9,213.7,589.3,213.7z"/>
									</g>
								</g>
							</g>
							<g>
								<g>
									<g>
										<path class="st24" d="M589,216.3c-0.1,0-0.1,0-0.2,0c-0.4-0.1-0.6-0.2-0.6-0.2C588.3,216.1,588.5,216.2,589,216.3
											c0.4,0.3,1,0.5,1.7,0.7c0.4,0.1,0.7,0.3,1,0.4c0.2,0.1,0.4,0.1,0.6,0.2c0,0,0,0,0-0.1c0,0,0,0,0,0c-0.4-0.2-1-0.4-1.6-0.6
											C590.1,216.6,589.5,216.4,589,216.3z"/>
									</g>
								</g>
							</g>
							<g>
								<g>
									<g>
										<path class="st24" d="M589.2,219.9c-1-1-1.9-1.8-1.9-1.7c0,0,0.2,0.3,0.6,0.6c0.3,0.3,0.7,0.8,1.2,1.2
											c0.6,0.6,1.1,1.1,1.4,1.4c0,0,0-0.1,0-0.1c-0.1-0.1-0.1-0.1-0.2-0.2C590,220.8,589.6,220.3,589.2,219.9z"/>
									</g>
								</g>
							</g>
							<g>
								<g>
									<g>
										<path class="st24" d="M587.2,222c-0.5-0.6-1-1.2-1.3-1.6c0,0,0,0-0.1-0.1c-0.2-0.3-0.4-0.4-0.5-0.5c0,0,0,0,0,0
											c0.4-0.3,0.8-0.7,1.1-1.1c0.2-0.2,0.4-0.4,0.5-0.6c0.3-0.5,0.6-0.9,0.8-1.5c0.1-0.2,0.2-0.4,0.2-0.6c0-0.1,0-0.1,0.1-0.2
											c0.1-0.4,0.2-0.8,0.2-1.2c0-0.3,0.1-0.6,0.1-0.8c0-0.6-0.1-1.3-0.2-1.9c0-0.1,0-0.1-0.1-0.2c0-0.1,0.1-0.2,0.2-0.3
											c0.2-0.3,0.8-0.4,1.4-0.6c0.6-0.2,1.1-0.3,1.5-0.4c0.4-0.1,0.6-0.2,0.6-0.2c0,0,0,0-0.1,0c-0.1,0-0.3,0-0.6,0.1
											c-0.4,0.1-0.9,0.2-1.5,0.3c-0.3,0.1-0.6,0.2-0.8,0.2c-0.2,0.1-0.3,0.1-0.4,0.2c-0.1,0-0.1,0.1-0.1,0.1
											c-0.1,0.1-0.1,0.2-0.1,0.2c0-0.1,0-0.2-0.1-0.2c-0.3-0.8-0.6-1.5-1.1-2.2c0-0.1-0.1-0.1-0.1-0.2c0-0.1,0.1-0.2,0.3-0.2
											c0.4-0.2,0.9-0.5,1.5-0.9c0.6-0.4,1.1-0.7,1.5-0.9c0.4-0.2,0.6-0.4,0.6-0.4c0,0-0.3,0.1-0.6,0.3c-0.4,0.2-0.9,0.5-1.5,0.9
											c-0.3,0.2-0.6,0.4-0.9,0.6c-0.2,0.1-0.4,0.2-0.5,0.3c-0.1,0.1-0.2,0.1-0.2,0.2c0,0,0,0,0,0c0,0,0,0,0,0.1c0,0,0,0,0,0
											c-0.4-0.5-0.9-1-1.4-1.4c-0.1-0.1-0.2-0.2-0.4-0.3c-0.5-0.3-1-0.6-1.5-0.8c-0.2-0.1-0.3-0.1-0.5-0.2
											c0.1-0.3,0.3-1,0.6-1.7c0.2-0.8,0.4-1.5,0.5-1.8c0-0.1,0-0.1,0-0.1c0,0,0,0,0,0c-0.1,0.2-0.4,1-0.7,1.9
											c0,0.1-0.1,0.2-0.1,0.3c-0.2,0.6-0.3,1.2-0.4,1.5c0,0,0,0-0.1,0c0,0,0,0,0,0c-0.6-0.2-1.3-0.3-1.9-0.3c0,0,0,0,0,0
											c0,0,0-0.1,0.1-0.2c0-0.1,0-0.1,0.1-0.2c0-0.1,0.1-0.3,0.1-0.5c0.1-0.5,0.1-0.9,0-0.9c0,0-0.1,0.4-0.2,0.9
											c-0.1,0.5-0.1,0.8-0.1,0.9c-0.2,0-0.3,0-0.5,0c0,0,0,0,0,0c0-0.1,0-0.1,0-0.2c0,0,0-0.1,0-0.2c0-0.4,0.1-0.8,0.1-1.3
											c0.1-0.6,0.1-1.1,0.2-1.5s0.1-0.6,0-0.6c0,0,0,0,0,0c0,0.1-0.1,0.3-0.1,0.6c-0.1,0.4-0.1,0.9-0.2,1.5
											c-0.1,0.6-0.1,1.1-0.1,1.5c0,0.1,0,0.1,0,0.2c-0.5,0-1,0.1-1.5,0.2c-0.1,0-0.3,0.1-0.4,0.1c0,0-0.3-0.9-0.7-1.9
											c-0.3-0.7-0.5-1.3-0.7-1.6c-0.1-0.2-0.1-0.3-0.1-0.3c0,0,0,0.2,0.2,0.6c0.1,0.3,0.3,0.8,0.5,1.3c0.1,0.4,0.3,0.7,0.4,0.9
											c0.1,0.1,0.1,0.3,0.2,0.4c0.2,0.3,0.3,0.5,0.3,0.5c0,0-0.1,0-0.1,0c-0.6,0.2-1.2,0.5-1.8,0.9c-0.1-0.2-0.2-0.5-0.3-0.8
											c-0.1-0.2-0.1-0.4-0.2-0.6c-0.1-0.4-0.2-0.6-0.3-0.6c0,0,0.1,0.6,0.3,1.2c0.1,0.3,0.2,0.6,0.3,0.8c0,0,0,0,0,0
											c0,0,0,0,0,0c-0.1,0.1-0.3,0.2-0.4,0.3c0,0-0.1-0.1-0.1-0.1c-0.2-0.3-0.6-0.8-0.9-1.3c-0.3-0.5-0.6-1-0.8-1.4
											c-0.2-0.4-0.3-0.6-0.3-0.6c0,0,0.1,0.2,0.2,0.6c0,0,0,0,0,0c0.2,0.4,0.5,0.9,0.8,1.4c0.3,0.5,0.7,1,1,1.3
											c0,0,0.1,0.1,0.1,0.1c-0.4,0.3-0.8,0.7-1.2,1.2c-0.1-0.1-0.3-0.3-0.5-0.5c-0.1-0.1-0.2-0.2-0.4-0.4
											c-0.6-0.6-1.1-1.1-1.1-1c0,0,0.4,0.5,1,1.1c0.3,0.4,0.6,0.7,0.9,0.8c-0.1,0.1-0.2,0.3-0.3,0.4c0,0,0,0,0,0
											c-0.1,0-0.2,0-0.3,0c-0.4-0.2-0.8-0.4-1.3-0.8c-0.1-0.1-0.2-0.1-0.3-0.2c-0.4-0.3-0.7-0.6-1-0.8c-0.2-0.1-0.3-0.3-0.5-0.4
											c-0.4-0.3-0.6-0.5-0.6-0.5c0,0,0,0,0,0.1c0.1,0.1,0.2,0.3,0.5,0.5c0.3,0.3,0.8,0.8,1.4,1.3c0.5,0.4,1,0.7,1.4,0.9
											c0.1,0,0.1,0.1,0.2,0.1c0.1,0,0.2,0,0.3,0c0,0.1-0.1,0.1-0.1,0.2c-0.3,0.5-0.6,1-0.8,1.6c0,0.1-0.1,0.2-0.1,0.4
											c0,0.1,0,0.2-0.1,0.3c-0.2,0.6-0.2,1.3-0.2,1.9c0,0.2,0,0.3,0,0.4c0,0.7,0.2,1.3,0.4,1.9c0,0.1,0.1,0.3,0.1,0.4
											c0.2,0.6,0.5,1.2,0.9,1.7c0,0-0.1,0-0.1,0c-0.2,0.1-0.4,0.1-0.7,0.3c-0.5,0.2-0.9,0.4-0.9,0.4c0,0,0.5-0.1,1-0.3
											c0.4-0.1,0.7-0.3,0.8-0.4c0.1,0.2,0.3,0.3,0.4,0.5c-0.2,0.1-0.9,0.5-1.6,1c-0.7,0.4-1.3,0.8-1.6,0.9
											c-0.1,0.1-0.1,0.1-0.1,0.1c0,0,0.2-0.1,0.5-0.2c0.3-0.2,0.8-0.4,1.2-0.7c0.4-0.3,0.8-0.5,1.1-0.7c0,0,0,0,0.1,0
											c0.2-0.1,0.3-0.2,0.4-0.3c0,0,0,0,0,0c0.3,0.4,0.7,0.8,1.2,1.1c0,0,0,0.1,0,0.2c0,0.1,0,0.3,0,0.5
											c-0.1,0.2-0.2,0.5-0.4,0.7c-0.2,0.3-0.4,0.5-0.7,0.8c-0.5,0.6-1,1-1.4,1.4c-0.2,0.2-0.4,0.4-0.5,0.5c0,0,0,0,0,0
											c0.1-0.1,0.3-0.2,0.5-0.4c0.4-0.3,0.9-0.8,1.4-1.4c0.3-0.3,0.5-0.5,0.7-0.8c0.2-0.2,0.3-0.4,0.3-0.6c0-0.1,0-0.1,0-0.2
											c0-0.2,0-0.4,0-0.5c0,0,0,0,0-0.1c0,0,0-0.1,0-0.1c0.6,0.5,1.4,0.9,2.2,1.1c0.1,0,0.2,0.1,0.3,0.1c0.1,0,0.1,0,0.2,0
											c0.1,0.1,0.2,0.2,0.2,0.4c0,0.2-0.1,0.5-0.2,0.8c-0.1,0.3-0.3,0.6-0.4,1c-0.3,0.7-0.6,1.3-0.8,1.8
											c-0.2,0.5-0.3,0.7-0.3,0.7c0,0,0.2-0.3,0.4-0.7c0.1-0.2,0.2-0.3,0.2-0.5c0.2-0.4,0.4-0.8,0.6-1.2c0.1-0.3,0.3-0.7,0.4-1
											c0.1-0.3,0.2-0.6,0.2-0.8c0,0,0,0,0-0.1c0-0.2-0.1-0.3-0.2-0.4c0.1,0,0.1,0,0.2,0c1.3,0.3,2.6,0.2,3.7-0.1
											c0.2,0,0.3-0.1,0.5-0.2c0.6-0.2,1.2-0.5,1.7-0.8c0.1-0.1,0.3-0.2,0.4-0.3c0.1,0.1,0.2,0.3,0.5,0.6c0.3,0.4,0.8,1,1.3,1.7
											c0.4,0.5,0.8,1,1.1,1.3c0.1,0.1,0.2,0.2,0.3,0.3c0,0,0.1,0.1,0.1,0.1c0,0,0.1,0,0.1,0c0-0.1-0.1-0.1-0.1-0.2
											C588.2,223.2,587.7,222.7,587.2,222z M578.9,220.1c-3.6-1-5.7-4.8-4.6-8.4c1-3.6,4.8-5.7,8.4-4.6c3.6,1,5.7,4.8,4.6,8.4
											C586.2,219.1,582.5,221.1,578.9,220.1z"/>
									</g>
								</g>
							</g>
							<g>
								<g>
									<g>
										<path class="st24" d="M585.7,223.7c0,0-0.2-0.5-0.4-1.1c-0.2-0.6-0.3-1.1-0.4-1.1c0,0,0,0.5,0.2,1.2
											C585.4,223.2,585.7,223.7,585.7,223.7z"/>
									</g>
								</g>
							</g>
							<g>
								<g>
									<g>
										<path class="st24" d="M584.1,223.5C584.1,223.5,584.1,223.5,584.1,223.5c-0.1-0.4-0.2-0.8-0.3-1.1
											c-0.1-0.3-0.1-0.6-0.3-0.9c0,0,0,0,0,0c-0.2-0.2-0.4-0.2-0.5-0.2c-0.2,0-0.2,0.1-0.2,0.1c0,0,0.1-0.1,0.2-0.1
											c0.1,0,0.3,0,0.5,0.3c0.1,0.2,0.2,0.5,0.3,0.8c0.1,0.3,0.2,0.7,0.3,1.1c0.2,0.8,0.4,1.5,0.5,1.9c0,0.1,0,0.1,0.1,0.2
											c0,0,0-0.1,0.1-0.1c0,0,0-0.1,0-0.1C584.5,224.9,584.3,224.2,584.1,223.5z"/>
									</g>
								</g>
							</g>
							<g>
								<g>
									<g>
										<path class="st24" d="M581,223.9c0,0.6,0,1.1,0,1.6c0,0.4,0,0.7,0,0.7c0,0,0-0.3,0.1-0.7c0-0.3,0-0.7,0-1.1
											c0-0.2,0-0.3,0-0.5c0-0.6,0-1.2-0.1-1.6c0-0.4-0.1-0.7-0.1-0.7c0,0,0,0.1,0,0.1c0,0.1,0,0.3,0,0.5
											C581,222.7,581,223.3,581,223.9z"/>
									</g>
								</g>
							</g>
							<g>
								<g>
									<g>
										<path class="st24" d="M579.5,222.8c0,0-0.1,0.3-0.2,0.7c-0.1,0.4-0.2,0.7-0.2,0.7c0,0,0.2-0.3,0.3-0.7
											C579.6,223.1,579.6,222.8,579.5,222.8z"/>
									</g>
								</g>
							</g>
							<g>
								<g>
									<g>
										<path class="st24" d="M573.3,216.3c0-0.1-0.1-0.2-0.1-0.2C573.2,216.1,573.3,216.2,573.3,216.3c-0.1,0.1-0.1,0.1-0.1,0.2
											c0,0.1-0.1,0.1-0.2,0.1c-0.4,0.1-1,0.3-1.6,0.5c-0.3,0.1-0.5,0.2-0.8,0.2c-0.3,0.1-0.6,0.2-0.8,0.3
											c-0.4,0.1-0.6,0.2-0.6,0.2c0,0,0.3,0,0.7-0.2c0.4-0.1,1-0.3,1.6-0.5c0.6-0.2,1.2-0.4,1.6-0.5c0.1,0,0.2-0.1,0.2-0.2
											c0,0,0,0,0,0C573.3,216.4,573.3,216.3,573.3,216.3z"/>
									</g>
								</g>
							</g>
							<g>
								<g>
									<g>
										<path class="st24" d="M572.9,214c0.1-0.1,0.1-0.1,0.1-0.1c0,0-0.2,0.2-0.7,0.2c-0.2,0-0.5,0-0.8,0c-0.3,0-0.6,0-1,0
											c-0.4,0-0.8,0-1.1,0c-0.2,0-0.4,0-0.6,0c-0.4,0-0.7,0-0.7,0c0,0,0.3,0,0.7,0.1c0.4,0,1.1,0,1.8,0c0.3,0,0.7,0,1,0
											c0.3,0,0.6,0,0.8,0c0.1,0,0.2,0,0.3-0.1C572.7,214.1,572.8,214,572.9,214z"/>
									</g>
								</g>
							</g>
							<g>
								<g>
									<g>
										<path class="st24" d="M573.1,211.6c0,0-0.2-0.1-0.7-0.2c-0.4-0.1-1-0.3-1.6-0.5c-0.6-0.2-1.2-0.4-1.6-0.5
											c-0.4-0.1-0.7-0.2-0.7-0.2c0,0,0.1,0,0.2,0.1c0.1,0,0.3,0.1,0.4,0.2c0.4,0.2,0.9,0.4,1.6,0.6c0.2,0.1,0.4,0.1,0.6,0.2
											c0.4,0.1,0.7,0.2,1,0.3C572.8,211.5,573.1,211.6,573.1,211.6z"/>
									</g>
								</g>
							</g>
							<g>
								<g>
									<g>
										<path class="st24" d="M572.3,211c0.5,0.2,0.8,0.4,0.9,0.3c0,0-0.3-0.2-0.8-0.5c-0.5-0.2-0.8-0.4-0.9-0.3
											C571.5,210.5,571.9,210.8,572.3,211z"/>
									</g>
								</g>
							</g>
							<g>
								<g>
									<g>
										<path class="st24" d="M578.7,206.1c0,0,0-0.4-0.1-1c-0.1-0.5-0.1-1-0.2-1c0,0,0,0.4,0,1
											C578.5,205.7,578.6,206.2,578.7,206.1z"/>
									</g>
								</g>
							</g>
							<g>
								<g>
									<g>
										<path class="st24" d="M585.2,207.1c0,0,0.7-0.8,1.5-1.9c0.5-0.6,0.9-1.2,1.1-1.6c0,0,0,0-0.1-0.1
											c-0.3,0.4-0.7,0.9-1.2,1.5C585.8,206.2,585.2,207.1,585.2,207.1z"/>
									</g>
								</g>
							</g>
							<g>
								<g>
									<g>
										<path class="st24" d="M587,206.4c0.6-0.4,1-0.8,0.9-0.8c0,0-0.5,0.3-1,0.7c-0.6,0.4-1,0.7-1,0.8
											C585.9,207,586.4,206.8,587,206.4z"/>
									</g>
								</g>
							</g>
							<g>
								<g>
									<g>
										<path class="st24" d="M589.3,208.6c0.6-0.2,1.1-0.4,1.1-0.5c0,0-0.5,0.1-1.1,0.3c-0.6,0.2-1.1,0.3-1.1,0.4
											C588.2,208.8,588.7,208.7,589.3,208.6z"/>
									</g>
								</g>
							</g>
							<g>
								<g>
									<g>
										<path class="st24" d="M590.4,211.3c-0.5,0.1-0.8,0.2-0.8,0.2c0,0,0.4,0,0.8-0.1c0.5-0.1,0.8-0.1,0.8-0.2
											C591.3,211.3,590.9,211.3,590.4,211.3z"/>
									</g>
								</g>
							</g>
						</g>
						<g class="st27">
							<g>
								<g>
									<g>
										<path d="M585.2,206.9c-0.1,0.1-0.1,0.2-0.1,0.2c0.1,0.1,0.2,0.2,0.4,0.3c0.1,0,0.2-0.1,0.3-0.1c1.2-0.9,2.4-1.7,3.6-2.6
											c0.2-0.1,0.4-0.3,0.4-0.5c0,0,0,0,0,0c-0.5-0.2-1.1-0.1-1.5-0.4c-0.1-0.1-0.2-0.1-0.3-0.2c-0.3,0.4-0.7,0.9-1.1,1.6
											c-0.8,1.1-1.5,2-1.5,1.9c0,0,0.6-0.9,1.4-2c0.5-0.6,0.9-1.2,1.2-1.5c0,0,0,0,0,0l0,0C586.9,204.7,586,205.8,585.2,206.9z
											 M586.9,206.3c0.6-0.4,1-0.7,1-0.7c0,0-0.4,0.4-0.9,0.8c-0.6,0.4-1,0.7-1.1,0.6C585.9,207,586.3,206.7,586.9,206.3z"/>
									</g>
								</g>
							</g>
							<g>
								<g>
									<g>
										<path d="M588.6,207.6c0.6-0.4,1.1-0.7,1.5-0.9c0.4-0.2,0.6-0.3,0.6-0.3c0,0-0.2,0.2-0.6,0.4c-0.4,0.2-0.9,0.6-1.5,0.9
											c-0.6,0.4-1.1,0.7-1.5,0.9c-0.1,0.1-0.2,0.2-0.3,0.2c0,0.1,0.1,0.1,0.1,0.2c1.8-0.5,3.9-1.1,5.5-1.7
											c-0.1-0.2-0.2-0.3-0.4-0.4l0,0c-0.4-0.3-0.9-0.4-1.3-0.7c-1,0.6-2.1,1.3-3.2,2C587.9,208,588.2,207.8,588.6,207.6z"/>
									</g>
								</g>
							</g>
							<g>
								<g>
									<g>
										<path d="M591.8,210.2c0,0-0.2,0.1-0.6,0.2c-0.4,0.1-0.9,0.2-1.5,0.4c-0.6,0.2-1.1,0.3-1.4,0.6c-0.1,0.1-0.1,0.2-0.2,0.3
											c0,0.1,0,0.1,0.1,0.2c1.3,0.1,3.5-0.2,5.1-0.4c-0.3-0.5-0.9-0.8-1.1-1.4C592.1,210.1,591.9,210.1,591.8,210.2
											C591.8,210.2,591.8,210.2,591.8,210.2z M590.4,211.5c-0.5,0.1-0.8,0.1-0.8,0.1c0,0,0.4-0.1,0.8-0.2c0.5-0.1,0.8-0.1,0.8,0
											C591.3,211.4,590.9,211.4,590.4,211.5z"/>
									</g>
								</g>
							</g>
							<g>
								<g>
									<g>
										<path d="M592.1,213.5c-0.4,0-0.9,0.1-1.4,0.1c-0.6,0-1.1,0.1-1.4,0.1c-0.4,0-0.6,0-0.6,0c0,0,0,0,0,0c-0.1,0-0.2,0-0.2,0
											c0,0.3,0,0.6-0.1,0.8c0.1,0,0.1,0,0.2,0.1c1.3,0.4,3.5,0.8,5.2,1.2c0-0.2-0.1-0.4-0.2-0.6c-0.2-0.4-0.4-0.9-0.4-1.3
											c0-0.2,0-0.3,0.1-0.4c-0.2,0-0.5,0-0.7,0C592.4,213.4,592.3,213.5,592.1,213.5z"/>
									</g>
								</g>
							</g>
							<g>
								<g>
									<g>
										<path d="M590.7,217c-0.6-0.2-1.2-0.5-1.7-0.6c-0.4-0.2-0.7-0.3-0.7-0.3c0,0,0.2,0,0.6,0.2c-0.2-0.1-0.4-0.2-0.6-0.2
											c0,0-0.1,0-0.1,0c-0.1,0.2-0.1,0.4-0.2,0.6c1.2,0.9,3,2.2,4.5,3.2c0.1-0.1,0.1-0.2,0.2-0.3c0.2-0.6-0.4-1.3-0.2-1.9
											c-0.2-0.1-0.4-0.1-0.6-0.2C591.4,217.3,591.1,217.2,590.7,217z"/>
									</g>
								</g>
							</g>
							<g>
								<g>
									<g>
										<path d="M587.8,218.8c-0.2-0.2-0.4-0.4-0.6-0.6c-0.1-0.1-0.1-0.1-0.2-0.2c-0.2,0.2-0.3,0.4-0.5,0.6
											c0.9,1.3,2.1,3.4,3.1,4.9c0.2-0.1,0.4-0.1,0.5-0.3c0.5-0.5,0.2-1.3,0.4-2c-0.3-0.3-0.9-0.8-1.4-1.4
											C588.6,219.5,588.2,219.1,587.8,218.8z"/>
									</g>
								</g>
							</g>
							<g>
								<g>
									<g>
										<path d="M587.1,222.1c-0.5-0.6-1-1.2-1.3-1.7c-0.2-0.3-0.4-0.5-0.5-0.6c-0.1,0.1-0.3,0.2-0.4,0.3c0,0.2,0.1,0.3,0.2,0.5
											c0.6,1.2,1.6,3.2,2.3,4.7c0.4-0.3,0.5-0.9,0.9-1.3c0.1,0,0.1-0.1,0.2-0.1c-0.1-0.1-0.2-0.3-0.3-0.5
											C587.9,223.1,587.5,222.6,587.1,222.1z"/>
									</g>
								</g>
							</g>
							<g>
								<g>
									<g>
										<path d="M584,223.5c-0.1-0.4-0.2-0.7-0.3-1.1c-0.1-0.3-0.1-0.6-0.3-0.8c-0.1-0.2-0.3-0.3-0.5-0.3c-0.1,0-0.2,0.1-0.2,0.1
											c0,0,0-0.1,0.2-0.1c0.1,0,0.4,0,0.5,0.2c-0.1-0.2-0.2-0.4-0.3-0.6c-0.2,0.1-0.3,0.1-0.5,0.2c-0.1,1.6,0,4.1,0.2,6.1
											c0.2,0.1,0.4,0.1,0.6,0c0.6-0.2,0.6-1,0.9-1.5c0-0.1,0-0.1-0.1-0.2C584.4,224.9,584.2,224.2,584,223.5z"/>
									</g>
								</g>
							</g>
							<g>
								<g>
									<g>
										<path d="M581.1,225.5c0,0.4-0.1,0.7-0.1,0.7C581,226.1,581,225.9,581.1,225.5c-0.1-0.5-0.1-1-0.1-1.6c0-0.6,0-1.1,0-1.6
											c0-0.2,0-0.4,0-0.5c0-0.1,0-0.1,0-0.2c-0.5,1.5-1,3.6-1.4,5.3c0.5-0.2,1-0.4,1.5-0.5c0-0.6,0.1-1.3,0.1-2
											C581.1,224.8,581.1,225.2,581.1,225.5z"/>
									</g>
								</g>
							</g>
							<g>
								<g>
									<g>
										<path d="M577.7,225c-0.2,0.4-0.3,0.7-0.4,0.7C577.3,225.7,577.4,225.5,577.7,225c0.1-0.5,0.4-1.1,0.7-1.8
											c0.2-0.3,0.3-0.7,0.4-1c0.1-0.3,0.2-0.6,0.2-0.8c0-0.2-0.1-0.3-0.2-0.4c-0.1,0-0.1,0-0.2,0c-0.1,0-0.2-0.1-0.3-0.1
											c0,0,0,0,0,0c-0.2,0.1-0.3,0.3-0.5,0.5c-0.8,1.2-1.9,3.1-2.8,4.4c0.6,0,1.1-0.5,1.7-0.4c0.3,0.1,0.4,0.2,0.6,0.5
											c0.2-0.4,0.4-0.9,0.5-1.4C577.8,224.7,577.7,224.9,577.7,225z"/>
									</g>
								</g>
							</g>
							<g>
								<g>
									<g>
										<path d="M575,222c0.3-0.3,0.5-0.5,0.7-0.8c0.2-0.3,0.3-0.5,0.4-0.7c0.1-0.2,0.1-0.4,0-0.5c-0.1,0-0.2,0-0.3,0.1
											c-1.3,0.8-3.3,2.2-4.7,3.3c0.5,0.4,1.4,0.2,2.1,0.5c0.1-0.1,0.3-0.3,0.5-0.5C574,223.1,574.5,222.6,575,222z"/>
									</g>
								</g>
							</g>
							<g>
								<g>
									<g>
										<path d="M571.7,220.6c0.2-0.2,0.9-0.5,1.6-0.9c0.8-0.5,1.4-0.9,1.6-1c-0.1-0.2-0.3-0.3-0.4-0.5c-0.2,0.1-0.5,0.2-0.8,0.4
											c-0.5,0.2-1,0.3-1,0.3c0,0,0.4-0.2,0.9-0.4c0.3-0.1,0.5-0.2,0.7-0.3c-0.4,0-0.7,0.2-1,0.3c-1.3,0.5-2.5,0.9-3.8,1.4
											c0.5,0.3,1.1,0.4,1.3,0.9c0,0.1,0.1,0.2,0.1,0.2C571.2,220.9,571.4,220.7,571.7,220.6z"/>
									</g>
								</g>
							</g>
							<g>
								<g>
									<g>
										<path d="M571.4,217.1c0.6-0.2,1.2-0.3,1.6-0.5c0.1,0,0.2-0.1,0.2-0.1c0-0.1,0.1-0.1,0.1-0.2c0-0.1-0.1-0.1-0.1-0.2
											c0,0,0.1,0,0.1,0.2c0,0.1,0,0.1,0,0.2c0,0,0,0,0,0c0.1,0,0.2-0.1,0.3-0.2c-0.1-0.1-0.1-0.3-0.1-0.4c-0.1,0-0.2,0-0.3,0
											c-1.5,0-3.9,0.1-5.7,0.3c0.4,0.5,1.4,0.6,1.6,1.3c0,0.1,0,0.2,0,0.3c0.5-0.1,1.1-0.3,1.7-0.5
											C570.9,217.2,571.2,217.1,571.4,217.1z"/>
									</g>
								</g>
							</g>
							<g>
								<g>
									<g>
										<path d="M570.6,214c0.3,0,0.7,0,1,0c0.3,0,0.6,0,0.8,0c0.4,0,0.7-0.2,0.7-0.2c0,0,0,0.1-0.1,0.1c-0.1,0-0.2,0.1-0.3,0.1
											c0,0,0.1,0,0.1,0c0.1,0,0.2,0,0.3-0.1c0-0.1,0-0.3,0-0.4c-0.1-0.1-0.2-0.1-0.3-0.2c-1.7-0.6-3.4-1.1-5.1-1.7
											c0.1,0.5,0.6,0.8,0.7,1.3c0.1,0.3,0,0.6-0.2,0.9c0.4,0,0.9,0.1,1.4,0.1C569.8,214,570.2,214,570.6,214z"/>
									</g>
								</g>
							</g>
							<g>
								<g>
									<g>
										<path d="M568.6,210.2c0,0,0.3,0.1,0.7,0.2c0.4,0.1,1,0.3,1.6,0.5c0.6,0.2,1.2,0.4,1.6,0.5c0.4,0.1,0.7,0.2,0.7,0.2
											c0,0-0.3,0-0.7-0.1c-0.3-0.1-0.6-0.2-1-0.3c0.6,0.2,1.2,0.4,1.8,0.5c0,0,0,0,0,0c0-0.1,0-0.2,0.1-0.3
											c0-0.1,0.1-0.2,0.1-0.4c0,0,0,0,0,0c-1.2-1.3-3.1-2.5-4.6-3.4c-0.1,0.3-0.1,0.6,0.2,0.8l0-0.2c0.4,0.3,0.3,0.9,0.1,1.3
											c-0.2,0.3-0.4,0.5-0.6,0.7c0.1,0,0.3,0.1,0.4,0.1C568.7,210.2,568.6,210.2,568.6,210.2z M572.4,210.9
											c0.5,0.2,0.8,0.4,0.8,0.5c0,0-0.4-0.1-0.9-0.3c-0.5-0.2-0.8-0.4-0.8-0.5C571.6,210.5,571.9,210.6,572.4,210.9z"/>
									</g>
								</g>
							</g>
							<g>
								<g>
									<g>
										<path d="M570.4,206.5c0,0,0.2,0.2,0.6,0.5c0.1,0.1,0.3,0.3,0.5,0.4c0.4,0.3,0.9,0.7,1.3,1c0.5,0.3,0.9,0.6,1.3,0.8
											c0.1,0,0.2,0.1,0.3,0c0,0,0,0,0,0c0.1-0.1,0.2-0.3,0.3-0.4c-0.2-0.2-0.5-0.5-0.9-0.8c-0.6-0.6-1-1.1-1-1.1
											c0,0,0.5,0.4,1.1,1c0.1,0.1,0.2,0.3,0.4,0.4c-1.1-1.3-2.2-2.6-3.4-3.8c-0.2,0.5-0.2,1.1-0.5,1.6c-0.1,0.1-0.1,0.2-0.2,0.3
											C570.3,206.4,570.3,206.5,570.4,206.5C570.4,206.5,570.4,206.5,570.4,206.5z"/>
									</g>
								</g>
							</g>
							<g>
								<g>
									<g>
										<path d="M573.8,204.2c0,0,0.1,0.2,0.3,0.6c0.2,0.4,0.5,0.8,0.8,1.4c0.3,0.5,0.7,1,0.9,1.3c0,0,0.1,0.1,0.1,0.1
											c0.1-0.1,0.3-0.2,0.4-0.3c0,0,0,0,0,0c-0.1-0.2-0.2-0.5-0.3-0.8c-0.2-0.7-0.4-1.2-0.3-1.2c0,0,0.1,0.2,0.3,0.6
											c-0.4-1.2-0.8-2.5-1.3-3.5c-0.2,0-0.5,0-0.7,0.1c-0.4,0.3-0.4,0.9-0.7,1.2c0.2,0.3,0.4,0.7,0.7,1
											C573.9,204.4,573.8,204.2,573.8,204.2z"/>
									</g>
								</g>
							</g>
							<g>
								<g>
									<g>
										<path d="M577.6,204.4c0.4,1,0.8,1.8,0.7,1.9c0.1,0,0.3-0.1,0.4-0.1c0,0,0,0,0-0.1c-0.1-1.4-0.5-3.6-0.6-5.2
											c-0.1,0-0.2,0-0.3,0.1c-0.5,0.1-0.8,0.7-1.2,1.1c0.1,0.2,0.2,0.5,0.3,0.8C577.1,203.1,577.3,203.7,577.6,204.4z
											 M578.4,204.2c0,0,0.1,0.4,0.2,1c0.1,0.5,0.2,1,0.1,1c0,0-0.2-0.4-0.3-1C578.3,204.7,578.3,204.2,578.4,204.2z"/>
									</g>
								</g>
							</g>
							<g>
								<g>
									<g>
										<path d="M580.7,202.1c0,0,0,0.2,0,0.6s-0.1,0.9-0.2,1.5c0,0.5-0.1,1-0.1,1.3c0,0.1,0,0.2,0,0.3c0.2,0,0.3,0,0.5,0
											c0-0.1,0-0.4,0.1-0.9c0.1-0.5,0.1-0.9,0.2-0.9c0,0,0.1,0.4,0,0.9c0,0.2-0.1,0.3-0.1,0.5c0.4-1.3,0.9-3.1,1.3-4.4
											c-0.3,0.1-0.5,0.5-1,0.9C581.2,202,580.9,202.1,580.7,202.1C580.7,202.1,580.7,202.1,580.7,202.1
											C580.7,202.1,580.7,202.1,580.7,202.1z"/>
									</g>
								</g>
							</g>
							<g>
								<g>
									<g>
										<path d="M583.6,204.5c-0.2,0.8-0.4,1.4-0.6,1.7c0.2,0.1,0.4,0.1,0.5,0.2c0.4-0.3,0.7-0.8,1-1.3c0.5-0.8,1.2-2.2,1.8-3.2
											c-0.2,0-0.3,0-0.5,0c-0.5,0.1-1.2,0.9-1.5,0.9c-0.1,0-0.1-0.1-0.2-0.2c0,0,0,0.1,0,0.1C584,203,583.8,203.7,583.6,204.5z"
											/>
									</g>
								</g>
							</g>
						</g>
						<g>
							<g>
								<path class="st7" d="M587.1,216.2c-1.4,3.6-5.4,5.3-9,3.9c-3.6-1.4-5.3-5.4-3.9-9c1.4-3.6,5.4-5.3,9-3.9
									S588.5,212.7,587.1,216.2z"/>
							</g>
						</g>
					</g>
				</g>
				<circle class="st14" cx="580.8" cy="213.5" r="2.9"/>
			</g>
			<path class="st21" d="M586.4,246.2c0-0.4,0.8-12.5,0.8-12.5s1.7-3.5,1-6c0,0,1.7-4.1,0.8-6s-5.1-5-7-5c-2.3-0.3-4.6-0.7-6.9-1.2
				c0,0-3.9-5.1-7.9-3.5c-4,1.6-3.1,3.1-3.1,3.1c-1.2,0.4-2,1.5-2,2.7c-0.2,1.7,0.3,3.4,1.4,4.8c0,0-4.3-0.5-5.2,1.3
				c-1.6,2.9,0.9,5.8,0.9,5.8s-1.7-0.1-0.7,2.2c1,2.3,2,2.7,2,2.7s-2.2,0.7-1.4,3.5c0.9,2.9,10.3,10.2,10.3,10.2s1.1,4.7,3.7,5.2
				C575.5,254,586,252.7,586.4,246.2z"/>
			<g class="st27">
				<path class="st21" d="M562.5,216.2c0.6-0.4,1.2-0.6,1.9-0.9c0.7-0.1,1.5-0.2,2.3-0.1l2.9,0.2c4.1,0.3,7.3,0.8,7.4,0.6
					c-2.4-0.8-4.8-1.3-7.3-1.4c-1-0.1-2-0.1-2.9-0.2c-0.8-0.1-1.6,0-2.4,0.2C562.9,215.3,562.4,216.2,562.5,216.2z"/>
				<path class="st21" d="M561.4,222.3c1,0.3,2,0.6,3,0.7l7.2,1.4l7.2,1.5c1,0.3,2,0.5,3,0.5c-0.9-0.5-1.9-0.8-2.9-1
					c-1.8-0.5-4.4-1.2-7.2-1.7s-5.4-1-7.3-1.2C563.5,222.3,562.4,222.3,561.4,222.3z"/>
				<path class="st21" d="M559,229.4c0,0.2,4.5,0.4,9.8,1.6s9.4,3.2,9.5,3c-0.8-0.6-1.7-1-2.6-1.4c-2.2-0.9-4.5-1.7-6.8-2.2
					c-2.3-0.5-4.7-0.9-7-1C560.9,229.3,560,229.3,559,229.4z"/>
				<path class="st21" d="M560.3,234.7c0.8,0.4,1.6,0.7,2.4,0.9c1.5,0.5,3.6,1.4,5.8,2.4c4.5,2,8,3.9,8.1,3.7
					c-0.7-0.6-1.4-1.1-2.2-1.4c-1.4-0.8-3.4-1.8-5.6-2.9c-1.9-0.9-3.9-1.6-5.9-2.2C562.1,234.8,561.2,234.7,560.3,234.7z"/>
				<path class="st21" d="M577.7,248.5c0.8-0.2,1.6-0.5,2.4-0.9c0.8-0.4,1.6-1,2.3-1.6c0.8-0.8,1.4-1.9,1.7-3.1
					c0.2-1.1,0.6-2.1,1-3.1c0.5-0.9,1.1-1.6,1.4-2.3c0.3-0.6,0.4-1.2,0.4-1.9c0-0.5-0.2-0.7-0.3-0.7c0,0.8-0.2,1.6-0.6,2.3
					c-0.4,0.7-1,1.4-1.6,2.2c-0.5,1-0.9,2.1-1.1,3.2c-0.5,1.9-1.8,3.5-3.5,4.4C579,247.6,578.3,248,577.7,248.5z"/>
			</g>
		</g>
		<g id="freepik--character-2--inject-112_1_">
			<path class="st28" d="M273.7,100.2l-9.3-11.6c-3.4-4-9.9-4.7-14.4-1.9c-4.5,2.8-6.6,8.6-5.6,13.8c1,5.2,4.9,9.6,9.8,11.6
				c4.3,1.8,9.4,1.9,13.5-0.3C271.7,109.6,274.4,104.8,273.7,100.2z"/>
			<g>
				<g>
					<g>
						<path class="st28" d="M320.2,83.6c3.5,3.8,5.7,8.8,6,13.9c0.4,5.1-1.1,10.4-4,14.6c-2.5-10.9-5.9-21.7-10.3-32"/>
					</g>
				</g>
			</g>
			<rect x="225" y="180.6" class="st19" width="122" height="183.9"/>
			<rect x="229.4" y="375" class="st19" width="6.5" height="136.7"/>
			<rect x="257.9" y="375" class="st19" width="6.5" height="136.7"/>
			<rect x="225.3" y="355.3" class="st19" width="149.7" height="19.8"/>
			<rect x="334.2" y="375" class="st19" width="6.5" height="136.7"/>
			<path class="st29" d="M317,163l-7-6.9l-11.2,35.3l-22.5-36.7l-6.1,2.4l2.7,58.3l-6.8,89l18.5-0.9l34.5-4.8l-2.7-36.8
				c0,0,4.4-50.7,4.4-51.4C320.8,209.8,317,163,317,163z"/>
			<rect x="363.5" y="375" class="st19" width="6.5" height="136.7"/>
			<path class="st0" d="M376.7,462.6l-1.3,31.5c0,0,31.6,11.9,31.9,17.7l-61.1-0.3v-49.1L376.7,462.6z"/>
			<path class="st30" d="M245.2,293.4c0,0-10.4,30.2-6.9,42.4c4.3,14.5,18.2,17.6,26,19.5c7.4,1.7,56.5,7.7,56.5,7.7l21.4,14.6
				v105.8l40.5-0.4l5-115.2c0,0,0.2-17.7-4.9-26.5c-7.9-13.8-90.3-42-95.7-42.6L245.2,293.4z"/>
			<path class="st0" d="M333.4,427.3l-17.5,26.2c0,0,20.8,26.6,18,31.8l-52.1-32l25.5-42L333.4,427.3z"/>
			<path class="st28" d="M320.5,84.4c-1.7-5.4-5.4-9.8-10.4-12.4c-5.6-2.6-11.9-3.2-17.9-1.6c-5.9,1.6-11.5,4.1-16.6,7.4
				c-3,1.6-5.7,3.9-7.9,6.5c-3.7,5-7.3,13.1-7.5,19.3c-0.1,5,2.1,17.6,4.4,22.1c1.2,1.9,2.9,3.3,4.9,4.2c2.4,4.5,5.7,8.5,9.5,11.8
				l3.2-10.2L320.5,84.4z"/>
			<path class="st21" d="M271.1,101.1c0.1-7.4,5.1-13.9,12.3-15.9l22.7-6.5c9.8-1.4,16.8,10.6,17.7,20.5c1,11,1.8,22.6,0.7,30.8
				c-2.1,16.6-14.7,19.1-14.7,19.1s0.2,7.9,0.4,12.7l-11,52.9l-22.6-56.8l-5.5-56.5C271,101,271.1,101.5,271.1,101.1z"/>
			<path class="st22" d="M287.7,143.8c0,0,5.7,11.2,22.2,9.1l-0.1-3.9C302.1,149.4,294.5,147.6,287.7,143.8z"/>
			<path class="st28" d="M318.8,84.2c-1.3-2.4-3.8-4-6.5-3.9c-2.7,0.1-5.3,0.9-7.6,2.4c-9.7,6-14.3,19.8-23.9,26
				c-2.3,1.5-5.5,0.3-7.5,2.3c-2,2-3.2,5.1-2,7.6c-1.4-1.7-2.6-3.6-3.5-5.6c-0.9-2.1-0.9-4.4,0.1-6.4c0.8-1.5,2.3-2.6,2.6-4.3
				c0.3-1.4-0.3-2.9-0.3-4.4c0.1-1.5,0.6-3,1.4-4.2c3.5-7,8.8-12.9,15.3-17c4.3-2.7,9.3-4.1,14.4-4.2c5.1,0,10.1,1.8,14,5.1
				C317.6,79.4,319.9,81.5,318.8,84.2"/>
			<path class="st21" d="M273.7,113c-0.2-0.5-8.9-3.3-8.7,5.8c0.1,8.9,9.1,6.9,9.1,6.6C274,125.2,273.7,113,273.7,113z"/>
			<path class="st28" d="M272.3,111.1c-0.3,2.4,0.1,4.9,1.1,7.1c1.2,2.1,4.1,3.5,6.1,2.2c1.7-1,2.2-3.2,2.4-5.2
				c0.7-5.7,0.9-11.4,1.6-17.1L272.3,111.1z"/>
			<path class="st30" d="M335.7,291.8c0,0,37.3,4.1,44.4,9.2c8,5.6,11.4,17.6,10,28.2C389.2,336.2,366,383,366,383
				s-34.6,66.7-33,65.8l-36.3-24.5l34.8-93.8l-46.9-28.2C284.6,300.4,306.1,289.2,335.7,291.8z"/>
			<path class="st30" d="M309.9,155.3l8.9,9.5l17.5,7.5c0,0-3,65.6-5.4,77.4c-2.2,10.8-4.8,31.7-4.8,31.7l8.7,20.8h-17.6
				c-1.6-7.4-2.6-14.9-2.9-22.5c-0.4-10.9,1.8-30.1,1.8-30.1l1.8-54.2L309.9,155.3z"/>
			<g class="st27">
				<path d="M272.4,303c0,0-0.6,25-11.6,29.4c-7.2,2.7-14.8,3.8-22.4,3.4l-0.7-5.3l25.3-12.8L272.4,303z"/>
			</g>
			<path class="st30" d="M242.9,261.9c-0.2-7.2-5.6-37.7-5.5-62.3c0.1-11.2,1.9-22.4,5.4-33.1c4.2-1.7,27.2-10,27.2-10l6-4.2
				c0.3,1.5,0.4,3,0.4,4.5c-0.9,7.7-1.8,23.8-1.7,26.5c0.1,1.9,6.1,30.6,6.1,47.5c0,7,0,24.4-1.7,40.2c0,20.6-14,49.5-21.1,56.4
				c-7.1,6.9-32.7,5-32.7,5C215.4,326.9,243.1,267.8,242.9,261.9z"/>
			<path class="st30" d="M244.1,166.2c0,0-9.6,1.3-16.4,18.7c-4.1,10.4-21.7,60.4-21.7,75.6c0,6.5,11.9,18.1,11.9,18.1h40.8
				l4.4-19.1l-26-11.7l8.1-26.2L244.1,166.2z"/>
			<path class="st21" d="M270.2,262.4c0,0,12.9-9.5,14.6-9s15.6,8.2,15.6,8.2l1.1,11.6c-1,0.2-2,0.2-3,0l-0.7-0.4
				c-0.2,1.8-1.7,3.2-3.5,3.4c0,0-2.3,3.9-5.2,2.3c0,0-0.1,2.4-2.2,2.6c-1.4,0-2.7-0.3-3.9-1l-1.4-1.6l-3.7-1.3c0,0-2.7,4.5-6.6,4.5
				c-3.9,0-13.1-5.3-13.1-5.3l4.1-15.2L270.2,262.4z"/>
			<path class="st22" d="M279.2,269.5c0,0.1,0.6,0.5,1.7,1c1.4,0.7,2.8,1.5,4.1,2.4c1.2,0.9,2.2,2.1,2.9,3.5
				c0.5,1.1,0.6,1.8,0.7,1.8c0.1-0.7,0-1.4-0.3-2c-0.6-1.5-1.6-2.9-3-3.9c-1.3-1-2.7-1.8-4.3-2.3
				C280.5,269.7,279.9,269.5,279.2,269.5z"/>
			<path class="st22" d="M293.5,277.5c0.1-0.9,0.1-1.8,0-2.6c-0.1-2.2-0.7-4.3-1.8-6.2c-1.3-1.8-3.2-3.1-5.3-3.7
				c-0.8-0.3-1.7-0.5-2.6-0.6c0.8,0.4,1.6,0.8,2.4,1.1c1.9,0.7,3.6,2,4.9,3.6c1,1.8,1.7,3.8,1.9,5.8
				C293.1,275.8,293.2,276.6,293.5,277.5z"/>
			<path class="st22" d="M286,258.8c0.7,0.7,1.6,1.2,2.6,1.5c0.9,0.4,1.9,0.7,3,1.2c1.2,0.5,2.3,1.2,3.2,2.1
				c1.5,1.8,2.3,4.1,2.5,6.5c0,1,0.2,2,0.4,3c0.2-1,0.2-2,0.1-3c0-2.5-0.9-4.9-2.4-6.9c-1-1-2.1-1.8-3.5-2.2c-1.2-0.5-2.2-0.8-3.1-1
				C287,259.3,286.1,258.7,286,258.8z"/>
			<g class="st27">
				<path d="M279.8,249.5c0,0-4.2-0.7-9.7-8.3c-6.3-8.7-12-47.7-12-47.7l5.7-2.2l-3.5-3l7-22.1l-2.9,22.1l5.3,2.7l-7.8,2.7
					c0,0,3.4,22.6,6.1,32C270.9,235.7,272.8,238.6,279.8,249.5z"/>
			</g>
			<g class="st27">
				<path d="M214.9,245.8c0.6-1.4,1.8-2.6,3.2-3.1c1.4-0.5,3-0.8,4.5-0.7c5.4,0,10.2,2.5,14.3,6l-0.4,0.2
					c-5.9-3.3-13.8-4.1-19.5-0.5c-0.4,0.3-0.9,0.5-1.4,0.5C214.8,247.9,214.6,246.7,214.9,245.8z"/>
			</g>
			<g class="st27">
				<path d="M334.6,322.2l-0.4-0.1V322L334.6,322.2z"/>
			</g>
			<g class="st27">
				<path d="M333.6,315.6c2.2-2,4.1-6,6.4-8c-1.4,5-3.4,9.8-5.7,14.5c-9.8-6.5-19.8-14.3-31.7-16.9
					C313.4,304.3,324.4,309.7,333.6,315.6z"/>
			</g>
			<g class="st27">
				<polygon points="382.7,347.8 343.4,445.5 343.4,427.7 				"/>
			</g>
			<path class="st30" d="M333.1,170.8c0,0,13.9,4.1,16.6,15.1c3,12.2,6.3,28.8,9.8,39.3s0.8,11.3,2.7,15.6
				c1.9,4.3,10.1,17.2,3.9,26.8c-6.2,9.5-12.5,15-24.2,10.3c-6.9-2.7-13.1-6.8-18.2-12L333.1,170.8z"/>
			<path class="st21" d="M330.9,228.3c-2.2,1.7-4.6,3.2-7,4.6c-3.1,1.8-5.5,4.7-6.8,8.1c-1,3.8-3.7,5.7-4.6,7.5
				c-0.9,1.8-0.9,9.2-0.8,11c0.1,1.8-5.4,6.1-5.7,6.8c-0.3,0.7-0.8,2.7,0.7,3.1c1.3,0.5,2.7,0.3,3.8-0.6c0.8-0.8,4.1-3.6,4.1-3.6
				s-0.3,3.5,0.8,3.7c1,0.1,1.9,0.1,2.9,0l4.2-6.1c0,0,1,4.4,2.8,3.9c1.8-0.4,2.9-0.9,3.1-3.6c0.2-2,0.7-4,1.5-6v-2.2
				c0,0,2.4,2.9,4.2,2.5c1.8-0.4,2.6-1.4,2.7-2c-0.1-2.4-0.5-4.8-1.1-7.1c-0.6-1.9-1.4-3.8-2.2-5.6c0,0-1-4.9,0.1-6.8
				c1.1-1.8,7.4-7.3,8.1-9.1c0.7-1.8,1.9-4.5-0.8-5.4C338.2,220.7,334.8,225.6,330.9,228.3z"/>
			<path class="st22" d="M317.7,243.6c0,0,0.4,0.5,1.2,0.9c2.2,1.1,4.8,1.3,7.1,0.4c0.9-0.3,1.4-0.7,1.3-0.8
				c-1.6,0.4-3.2,0.6-4.8,0.6C320.9,244.6,319.3,244.2,317.7,243.6z"/>
			<path class="st22" d="M315,265.9c0.8-0.7,1.4-1.6,1.6-2.6c0.5-0.9,0.6-2,0.4-3c-0.5,0.9-0.8,1.8-1,2.8
				C315.6,264,315.2,264.9,315,265.9z"/>
			<path class="st22" d="M322.4,263.2c0.7-0.8,1.1-1.7,1.2-2.7c0.3-1,0.3-2,0-3c-0.3,0.9-0.5,1.9-0.6,2.9
				C322.6,261.3,322.5,262.2,322.4,263.2z"/>
			<g>
				<g>
					<g>
						<path class="st28" d="M319.6,87c-0.8-2-3-3.2-5.1-3.3c-2.1-0.1-4.2,0.7-6.1,1.8c-7.9,4.6-12.3,13.6-20.1,18.3
							c-1.9,1.2-4,2.1-5.7,3.6c-1.6,1.5-2.7,4-1.8,6c-1-1.4-2.1-2.9-2.7-4.6c-0.6-1.7-0.7-3.6,0.2-5.2c0.7-1.2,1.9-2.1,2.2-3.4
							c0.3-1.1-0.2-2.4-0.1-3.5c0.1-1.2,0.6-2.3,1.2-3.4c3-5.4,7.2-10.3,12.6-13.3c3.5-2,7.6-3.1,11.6-3c4,0.1,8.1,1.6,11,4.4
							C318.7,83.1,320.6,84.8,319.6,87"/>
					</g>
				</g>
			</g>
		</g>
		<g id="freepik--Table--inject-112_1_">
			<rect x="144.6" y="279.2" class="st0" width="557.9" height="12.7"/>
			<polygon class="st0" points="651.2,511.8 662,511.8 662.3,285.6 651.5,285.6 			"/>
			<rect x="200.5" y="285.6" class="st0" width="10.8" height="226.1"/>
			<path class="st0" d="M172.7,291.9c0,0.2,118.6,0.4,264.9,0.4s264.9-0.1,264.9-0.4c0-0.2-118.6-0.4-264.9-0.4
				S172.7,291.7,172.7,291.9z"/>
		</g>
	</g>
	<g id="freepik--Chart--inject-119_2_">
		<polygon class="st31" points="503.8,455.6 343.2,455.6 343.2,328.6 503.9,328.3 		"/>
		<path class="st6" d="M493,443.7h-0.5h-1.6h-6.2l-22.9,0.1h-75.6h-32.8v-0.2c0-21.6,0-40.2,0.1-53.4c0-6.6,0-11.8,0-15.4
			c0-1.8,0-3.2,0-4.1c0-0.5,0-1.4,0-1.4h0c0,0,0,0.1,0,0.4c0,0.2,0,0.6,0,1.1c0,0.9,0,2.3,0,4.1c0,3.6,0,8.8,0,15.4
			c0,13.2,0,31.8,0,53.4l-0.2-0.2h32.6h75.6l22.9,0.1h6.2h1.6L493,443.7z"/>
		<rect x="364.8" y="425.3" class="st30" width="14.1" height="14.1"/>
		<rect x="385.4" y="415.2" class="st30" width="14.1" height="24.2"/>
		<rect x="406.2" y="403.8" class="st30" width="14.1" height="35.6"/>
		<rect x="426.3" y="391" class="st30" width="14.1" height="48.4"/>
		<rect x="446.9" y="374.7" class="st30" width="14.1" height="64.7"/>
		<rect x="467.3" y="362.3" class="st30" width="14.1" height="76.5"/>
		<g class="st11">
			<rect x="385.4" y="415.2" class="st7" width="14.1" height="24.2"/>
		</g>
		<g class="st11">
			<rect x="467.3" y="362.3" class="st7" width="14.1" height="76.5"/>
		</g>
		<path class="st6" d="M364.8,410.9l0.2-0.1l0.5-0.4l2.1-1.4l8-5.3l28-18.3l0.3-0.2v6.7l-0.3-0.2l11-7.4l38.9-26l11.8-7.8l3.2-2.1
			l0.8-0.5c0.1-0.1,0.2-0.1,0.3-0.2l-0.3,0.2l-0.8,0.6l-3.2,2.1l-11.7,8l-38.8,26.1l-11,7.4l-0.3,0.2v-6.7l0.3,0.2
			c-11.3,7.3-21.1,13.7-28.1,18.2l-8.1,5.2l-2.2,1.4l-0.6,0.3C364.8,410.8,364.8,410.9,364.8,410.9z"/>
		<path class="st6" d="M469.8,353.5c-0.1-0.6-0.2-1.2-0.2-1.7c0-1.1,0-2.6,0-4.3l0.2,0.2h-0.5c-1.8,0-3.4,0-4.6,0
			c-0.6,0-1.3,0-1.9-0.2c0.6-0.1,1.3-0.2,1.9-0.2c1.2,0,2.8,0,4.6,0h0.8v0.2c0,1.6,0,3.2,0,4.3C470.1,352.4,470,353,469.8,353.5z"/>
		<g class="st27">
			<rect x="426.3" y="391" class="st7" width="14.1" height="48.4"/>
		</g>
	</g>
	<g>
		
			<rect x="10.2" y="408.6" transform="matrix(0.9998 -1.760230e-02 1.760230e-02 0.9998 -7.9615 1.2248)" class="st31" width="110.9" height="88.6"/>
		<path class="st29" d="M120.2,407.6c0,0-0.2,0-0.5,0c-0.4,0-0.9,0-1.6,0c-1.4,0-3.4,0.1-6,0.1c-5.3,0.1-13,0.3-22.7,0.5
			c-19.5,0.4-47.1,0.9-80,1.6l0.3-0.3c0.5,26.4,1,56.6,1.6,88.6v0l-0.3-0.3c41-0.7,79.2-1.4,110.8-1.9l-0.3,0.3
			c-0.4-26.7-0.8-48.8-1-64.3c-0.1-7.7-0.2-13.8-0.2-18c0-2.1,0-3.6-0.1-4.7C120.2,408.2,120.2,407.6,120.2,407.6s0,0.5,0.1,1.6
			c0,1.1,0.1,2.6,0.1,4.7c0.1,4.1,0.2,10.2,0.4,17.9c0.3,15.5,0.7,37.7,1.3,64.4l0,0.3l-0.3,0c-31.7,0.6-69.8,1.3-110.8,2l-0.3,0
			l0-0.3v0c-0.6-32-1.1-62.2-1.5-88.6l0-0.3l0.3,0c33-0.5,60.7-1,80.2-1.3c9.7-0.1,17.4-0.2,22.6-0.3c2.6,0,4.6-0.1,6-0.1
			c0.7,0,1.2,0,1.5,0C120.1,407.6,120.2,407.6,120.2,407.6"/>
		
			<rect x="14" y="414.1" transform="matrix(0.9998 -1.759572e-02 1.759572e-02 0.9998 -7.9586 1.2231)" class="st7" width="103.1" height="77.5"/>
		<polygon class="st29" points="14.7,492.5 49.8,443.7 72.7,473.5 87.5,457.1 117.7,490.7 		"/>
		
			<rect x="87" y="330.4" transform="matrix(0.1659 -0.9861 0.9861 0.1659 -280.045 497.3071)" class="st31" width="133.9" height="167.5"/>
		<path class="st29" d="M247.7,362.1c0,0-0.3,0-0.8-0.1c-0.5-0.1-1.3-0.2-2.3-0.4c-2.1-0.3-5.1-0.8-9-1.5
			c-7.9-1.3-19.3-3.2-33.8-5.6c-29-4.8-70.3-11.7-119.3-19.9l0.5-0.4c-6.6,39.3-14.2,84.4-22.2,132.1l0,0l-0.4-0.6
			c61.2,10.3,118,19.9,165.2,27.9l-0.5,0.3c6.8-39.8,12.4-72.7,16.3-95.8c2-11.5,3.5-20.6,4.6-26.8c0.5-3.1,0.9-5.4,1.2-7.1
			C247.5,362.9,247.7,362.1,247.7,362.1s-0.1,0.8-0.4,2.4c-0.3,1.6-0.6,3.9-1.1,7c-1,6.2-2.5,15.2-4.4,26.7
			c-3.8,23.1-9.3,56.2-15.9,96.1l-0.1,0.4l-0.4-0.1c-47.2-7.9-104-17.5-165.2-27.7l-0.5-0.1l0.1-0.5l0,0
			c8-47.7,15.6-92.7,22.3-132.1l0.1-0.4l0.4,0.1c49.1,8.4,90.5,15.4,119.5,20.3c14.5,2.5,25.9,4.4,33.7,5.8c3.9,0.7,6.8,1.2,8.9,1.5
			c1,0.2,1.7,0.3,2.3,0.4C247.4,362,247.7,362.1,247.7,362.1"/>
		
			<rect x="95.3" y="336.3" transform="matrix(0.1659 -0.9861 0.9861 0.1659 -280.1176 497.1838)" class="st7" width="117.1" height="155.8"/>
		<polygon class="st29" points="67.3,459 133.1,396.2 158.7,446.7 185.3,426.5 220.9,484.8 		"/>
		<path class="st29" d="M181.9,395.4c-1.1,6.7-7.4,11.2-14.1,10.1c-6.7-1.1-11.2-7.4-10.1-14.1c1.1-6.7,7.4-11.2,14.1-10.1
			C178.5,382.4,183,388.7,181.9,395.4"/>
		<rect x="83.1" y="414.7" class="st31" width="180.3" height="117.3"/>
		<path class="st32" d="M197.8,468.4c0,13.6-11,24.5-24.5,24.5c-13.6,0-24.5-11-24.5-24.5c0-13.6,11-24.5,24.5-24.5
			C186.9,443.9,197.8,454.9,197.8,468.4"/>
		<polygon class="st33" points="181.5,468.4 175.1,472.1 168.7,475.8 168.7,468.4 168.7,461 175.1,464.7 		"/>
		<rect x="83.1" y="510.9" class="st32" width="180.3" height="21.1"/>
		<polygon class="st33" points="100.7,521.5 98.1,523 95.5,524.5 95.5,521.5 95.5,518.5 98.1,520 		"/>
		<rect x="115.6" y="521" class="st33" width="133" height="1"/>
		<path class="st33" d="M118.3,521.5c0,1.1-0.9,2-2,2c-1.1,0-2-0.9-2-2c0-1.1,0.9-2,2-2C117.4,519.5,118.3,520.4,118.3,521.5"/>
	</g>
	<g>
		<path class="st26" d="M641.3,166.8h161.1c7,0,12.7,5.7,12.7,12.7v90.2c0,7-5.7,12.7-12.7,12.7H641.3c-7,0-12.7-5.7-12.7-12.7
			v-90.2C628.6,172.4,634.3,166.8,641.3,166.8z"/>
		
			<ellipse transform="matrix(0.7071 -0.7071 0.7071 0.7071 51.5452 576.6315)" class="st34" cx="721.8" cy="226.1" rx="14.2" ry="14.2"/>
		<path class="st7" d="M718.4,230.3v-8.4c0-0.3,0.2-0.5,0.5-0.5c0.1,0,0.2,0,0.3,0.1l7.5,4.2c0.3,0.2,0.3,0.5,0.2,0.8
			c0,0.1-0.1,0.1-0.2,0.2l-7.5,4.2c-0.3,0.1-0.6,0-0.7-0.2C718.4,230.4,718.4,230.3,718.4,230.3z"/>
		<path class="st7" d="M639.3,269v0.3h-1.4v-0.2l0.8-0.7c0.2-0.2,0.2-0.3,0.2-0.4c0-0.1-0.1-0.3-0.4-0.3c-0.2,0-0.3,0.1-0.5,0.2
			l-0.2-0.2c0.2-0.2,0.4-0.3,0.7-0.3c0.4,0,0.7,0.2,0.7,0.5c0,0.2-0.1,0.5-0.3,0.6l-0.5,0.5L639.3,269z"/>
		<path class="st7" d="M639.5,268.1c0-0.1,0.1-0.2,0.2-0.2c0,0,0,0,0,0c0.1,0,0.2,0.1,0.2,0.2c0,0,0,0,0,0c0,0.1-0.1,0.2-0.2,0.2
			l0,0C639.6,268.3,639.5,268.2,639.5,268.1C639.5,268.1,639.5,268.1,639.5,268.1z M639.5,269.1c0-0.1,0.1-0.2,0.2-0.2c0,0,0,0,0,0
			c0.1,0,0.2,0.1,0.2,0.2c0,0.1-0.1,0.2-0.2,0.2c0,0,0,0,0,0C639.6,269.4,639.5,269.3,639.5,269.1
			C639.5,269.1,639.5,269.1,639.5,269.1z"/>
		<path class="st7" d="M640.8,267.4v1.9h-0.4v-1.6H640v-0.3H640.8z"/>
		<path class="st7" d="M642.9,268.9h-0.3v0.4h-0.3v-0.4h-1v-0.2l0.9-1.2h0.4l-0.9,1.2h0.6v-0.4h0.3v0.4h0.3L642.9,268.9z"/>
		<rect x="646" y="268.1" class="st7" width="144.4" height="0.8"/>
		<rect x="645.9" y="267.3" class="st34" width="45.1" height="2"/>
		<path class="st34" d="M692.4,268.4c0,1.2-1,2.2-2.2,2.2c-1.2,0-2.2-1-2.2-2.2c0-1.2,1-2.2,2.2-2.2c0,0,0,0,0,0
			C691.5,266.2,692.4,267.2,692.4,268.4z"/>
		<path class="st7" d="M794,268.4c0,0.3-0.3,0.6-0.6,0.6c0,0,0,0-0.1,0c-0.5,0-0.8-0.3-0.8-0.9c0-0.5,0.4-1,0.9-1
			c0.2,0,0.4,0,0.6,0.1l-0.1,0.3c-0.1-0.1-0.2-0.1-0.4-0.1c-0.4,0-0.6,0.2-0.6,0.7l0,0c0.1-0.1,0.3-0.2,0.5-0.2
			C793.7,267.8,794,268.1,794,268.4C794,268.4,794,268.4,794,268.4z M793.7,268.4c0-0.2-0.2-0.3-0.4-0.3s-0.4,0.1-0.4,0.3
			c0,0.2,0.2,0.3,0.4,0.3c0,0,0,0,0,0C793.5,268.8,793.7,268.7,793.7,268.4z"/>
		<path class="st7" d="M794.2,267.8c0-0.1,0.1-0.2,0.2-0.2l0,0c0.1,0,0.2,0.1,0.2,0.2c0,0.1-0.1,0.2-0.2,0.2c0,0,0,0,0,0
			C794.3,268,794.2,267.9,794.2,267.8C794.2,267.8,794.2,267.8,794.2,267.8z M794.2,268.8c0-0.1,0.1-0.2,0.2-0.2l0,0
			c0.1,0,0.2,0.1,0.2,0.2c0,0,0,0,0,0c0,0.1-0.1,0.2-0.2,0.2l0,0C794.3,269.1,794.2,269,794.2,268.8
			C794.2,268.8,794.2,268.8,794.2,268.8z"/>
		<path class="st7" d="M794.8,268.1c0-0.6,0.4-1,0.8-1s0.8,0.4,0.8,1s-0.3,1-0.8,1C795.2,269.1,794.8,268.7,794.8,268.1z
			 M796.1,268.1c0-0.5-0.2-0.7-0.4-0.7c-0.3,0-0.4,0.2-0.4,0.7s0.2,0.7,0.4,0.7C795.9,268.8,796.1,268.6,796.1,268.1L796.1,268.1z"
			/>
		<path class="st7" d="M796.7,268.1c0-0.6,0.3-1,0.8-1c0.5,0,0.8,0.4,0.8,1s-0.3,1-0.8,1C797,269.1,796.7,268.7,796.7,268.1z
			 M797.9,268.1c0-0.5-0.2-0.7-0.5-0.7c-0.3,0-0.4,0.2-0.4,0.7s0.2,0.7,0.4,0.7C797.7,268.8,797.9,268.6,797.9,268.1z"/>
		<polygon class="st7" points="801.4,268 800.6,268 800.6,266 802.6,266 802.6,266.8 801.4,266.8 		"/>
		<polygon class="st7" points="802.6,270.5 800.6,270.5 800.6,268.6 801.4,268.6 801.4,269.7 802.6,269.7 		"/>
		<polygon class="st7" points="805.7,270.5 803.7,270.5 803.7,269.7 804.9,269.7 804.9,268.6 805.7,268.6 		"/>
		<polygon class="st7" points="805.7,268 804.9,268 804.9,266.8 803.7,266.8 803.7,266 805.7,266 		"/>
		<path class="st7" d="M781,178c1.3-0.1,2.6-0.2,3.9-0.2h0.2v0.2c0,1.5,0,3.2,0,5v0.6l-0.5-0.5l-0.5-0.5c-0.5-0.5-0.9-0.9-1.3-1.3
			h0.4l-2.1,1.8l-0.4,0.4V183c0-1.6,0.1-2.8,0.1-3.7C780.9,178.9,780.9,178.4,781,178c0,0.5,0.1,1,0.1,1.4c0,0.9,0.1,2.1,0.1,3.5
			l-0.4-0.2l2.1-1.9l0.2-0.2l0.2,0.2c0.4,0.4,0.9,0.9,1.3,1.3l0.5,0.5l-0.5,0.2c0-1.8,0-3.5,0-5l0.2,0.2
			C783.6,178.2,782.3,178.1,781,178z"/>
		<path class="st7" d="M795.5,178.6c-0.3,0.4-0.6,0.8-0.9,1.2c-0.6,0.8-1.6,2-2.8,3.3l-0.4,0.5v-3.4l0.1,0.2l-1.7-1.6l-0.5-0.5h0.6
			c1.7,0,3.2,0.1,4.2,0.2C795,178.5,795.6,178.6,795.5,178.6l-1.7,0.1c-1,0-2.4,0.1-4,0.1l0.2-0.4c0.6,0.5,1.1,1.1,1.8,1.6l0,0v0.4
			c0,0.9,0,1.7,0,2.5l-0.5-0.2c1.1-1.2,2.1-2.2,2.9-2.9C794.9,179,795.4,178.6,795.5,178.6z"/>
		<path class="st7" d="M795.5,178.6c0,0.1-0.8,0.6-1.9,1.1s-2,0.7-2.1,0.6s0.8-0.6,1.9-1.1C794,178.8,794.8,178.6,795.5,178.6z"/>
		<path class="st7" d="M802.5,178c0,0,0.2,0,0.7,0c0.6,0.1,1.2,0.5,1.6,1c0.6,0.8,0.8,1.9,0.5,2.8c-0.5,1.6-2.3,2.4-3.8,1.8
			c-0.9-0.3-1.5-1-1.8-1.8c-0.3-1-0.2-2,0.5-2.8c0.4-0.5,1-0.9,1.6-1C802.2,178,802.4,178,802.5,178c-0.1,0-0.4,0-0.8,0.2
			c-0.6,0.2-1.1,0.5-1.4,1c-0.5,0.7-0.6,1.6-0.3,2.4c0.4,1.3,1.9,2.1,3.2,1.6c0.8-0.3,1.4-0.9,1.6-1.6c0.3-0.8,0.2-1.7-0.3-2.4
			c-0.3-0.5-0.8-0.8-1.4-1C802.8,178,802.5,178,802.5,178z"/>
		<path class="st7" d="M803.5,182c-0.1,0.1-0.7-0.4-1.4-1v-0.1v-0.1l0,0c0-0.9,0.1-1.6,0.3-1.6s0.3,0.8,0.3,1.6l0,0v-0.2
			C803.1,181.2,803.6,181.8,803.5,182z"/>
		<path class="st7" d="M735,181.8c0,0.1-19.2,0.3-42.8,0.3c-23.6,0-42.8-0.1-42.8-0.3s19.1-0.2,42.8-0.2S735,181.6,735,181.8z"/>
		<path class="st7" d="M645.4,181.8c0,1.9-1.5,3.4-3.4,3.4c-1.9,0-3.4-1.5-3.4-3.4c0-1.9,1.5-3.4,3.4-3.4c0,0,0,0,0,0
			C643.8,178.4,645.3,179.9,645.4,181.8z"/>
	</g>
	<g>
		<polygon class="st29" points="137.4,100.5 141.3,107.7 148.6,111.7 141.3,115.6 137.4,122.8 133.4,115.6 126.2,111.7 133.4,107.7 
					"/>
		<polygon class="st29" points="199.2,117 203.2,124.3 210.4,128.2 203.2,132.2 199.2,139.4 195.3,132.2 188.1,128.2 195.3,124.3 		
			"/>
		<polygon class="st29" points="197.4,43.4 206.5,60.1 223.1,69.2 206.5,78.3 197.4,94.9 188.3,78.3 171.7,69.2 188.3,60.1 		"/>
		<polygon class="st14" points="642.4,12.6 652.4,31 670.8,41 652.4,51.1 642.4,69.5 632.3,51.1 614,41 632.3,31 		"/>
		<polygon class="st14" points="698,56.6 702.5,64.9 710.8,69.5 702.5,74 698,82.3 693.4,74 685.2,69.5 693.4,64.9 		"/>
		<polygon class="st14" points="660.7,88.1 669.1,103.4 684.3,111.7 669.1,120 660.7,135.2 652.4,120 637.2,111.7 652.4,103.4 		"/>
		<polygon class="st29" points="604.5,93.4 607.4,98.6 612.5,101.4 607.4,104.2 604.5,109.3 601.7,104.2 596.6,101.4 601.7,98.6 		
			"/>
	</g>
	<g>
		<g>
			<rect x="528.3" y="238.7" class="st35" width="234.5" height="156.9"/>
			<rect x="530" y="240.6" class="st24" width="231.1" height="153.1"/>
			<g>
				<rect x="497.7" y="407.3" class="st36" width="295.6" height="10.8"/>
				<polygon class="st35" points="497.7,407.3 528.3,395.6 762.8,395.6 793.4,407.3 				"/>
				<polygon class="st24" points="531,403.1 550.7,395.6 740.4,395.6 760.1,403.1 				"/>
			</g>
			<g>
				<g>
					<rect x="542.7" y="265.8" class="st33" width="204.5" height="111.7"/>
					<rect x="542.7" y="265.9" class="st7" width="204.5" height="103.6"/>
					<g>
						<g>
							<rect x="576.2" y="276.1" class="st6" width="34.5" height="1.9"/>
						</g>
						<g>
							<rect x="576.2" y="280.6" class="st6" width="17" height="1.9"/>
						</g>
					</g>
					<g>
						<g>
							<path class="st14" d="M690.9,294.8h-67.2c-1.1,0-2-0.9-2-2v-15.9c0-1.1,0.9-2,2-2h67.2c1.1,0,2,0.9,2,2v15.9
								C692.9,293.9,692,294.8,690.9,294.8z"/>
						</g>
						<g>
							<path class="st7" d="M636.8,288.2c-1.5,1.9-4.2,2.2-6.1,0.7c-1.9-1.5-2.2-4.2-0.7-6.1c1.5-1.9,4.2-2.2,6.1-0.7
								C638,283.6,638.3,286.3,636.8,288.2z"/>
						</g>
						<g>
							<g>
								<path class="st14" d="M635.8,284c0.1,0.1-1,1.2-2.3,2.5c-0.2,0.2-0.4,0.4-0.6,0.6l-0.1,0.1l-0.1-0.1c-1.1-1.1-1.8-1.9-1.7-2
									c0.1-0.1,0.9,0.7,2,1.7l-0.2,0c0.2-0.2,0.4-0.4,0.6-0.6C634.6,285,635.7,283.9,635.8,284z"/>
							</g>
						</g>
						<g>
							<g>
								<path class="st7" d="M686,283.4c0,0.1-9,0.2-20.2,0.2c-11.2,0-20.2-0.1-20.2-0.2s9-0.2,20.2-0.2
									C676.9,283.2,686,283.3,686,283.4z"/>
							</g>
						</g>
						<g>
							<g>
								<path class="st7" d="M669.4,287.3c0,0.1-5.2,0.2-11.7,0.2c-6.5,0-11.7-0.1-11.7-0.2s5.2-0.2,11.7-0.2
									C664.2,287.2,669.4,287.3,669.4,287.3z"/>
							</g>
						</g>
					</g>
					<g>
						<path class="st29" d="M620.4,311.4L620.4,311.4L620.4,311.4c0-1.1,0-2.2,0-3.2l0-0.1l-0.1,0c-0.6-0.1-1.2-0.2-1.8-0.4
							c-0.2-0.6-0.4-1.2-0.8-1.8c0.3-0.5,0.6-1,0.9-1.6l0-0.1l0,0c-0.8-0.8-1.5-1.5-2.2-2.1l0,0l0,0c-0.5,0.4-1,0.7-1.5,1
							c-0.6-0.3-1.2-0.6-1.8-0.7c-0.2-0.6-0.3-1.2-0.4-1.8l0,0l0,0c-1.2,0-2.2,0-3.1,0.1l0,0l0,0c-0.1,0.7-0.3,1.3-0.4,1.8
							c-0.6,0.2-1.1,0.4-1.4,0.6c-0.1,0.1-0.3,0.1-0.3,0.2c-0.1,0-0.1,0.1-0.1,0.1l0,0c0,0,0,0-0.1-0.1c-0.1,0-0.2-0.1-0.3-0.2
							c-0.3-0.2-0.7-0.4-1.2-0.7l0,0l0,0c-0.6,0.6-1.3,1.3-2.2,2.2l0,0l0,0c0.3,0.5,0.6,1,1,1.5c-0.3,0.5-0.6,1.1-0.7,1.8
							c-0.6,0.1-1.2,0.3-1.8,0.4l-0.1,0l0,0.1c0,1,0,2,0,3.1l0,0.1l0.1,0c0.6,0.1,1.2,0.2,1.8,0.4c0.2,0.6,0.4,1.2,0.8,1.8
							c-0.3,0.5-0.6,1-0.9,1.6l0,0.1l0,0c0.7,0.7,1.4,1.4,2.2,2.1l0.1,0l0.1,0c0.5-0.3,1-0.6,1.5-1c0.5,0.3,1.1,0.5,1.8,0.7
							c0.1,0.6,0.3,1.2,0.4,1.8l0,0.1l0.1,0c1,0,2,0,3.1-0.1l0.1,0l0-0.1c0.1-0.6,0.2-1.2,0.4-1.8c0.6-0.2,1.2-0.4,1.8-0.8
							c0.5,0.3,1,0.6,1.5,0.9l0.1,0l0.1-0.1c0.7-0.8,1.4-1.5,2.1-2.2l0.1-0.1l0-0.1c-0.3-0.5-0.7-1-1-1.5c0.3-0.6,0.5-1.2,0.7-1.8
							C619.3,311.6,619.9,311.5,620.4,311.4z M609.6,307c0.4-0.3,1.2-0.6,2.1-0.4c0.5,0.1,0.9,0.2,1.4,0.5c0.4,0.3,0.9,0.7,1.1,1.3
							c0.1,0.3,0.2,0.6,0.3,0.9c0.1,0.3,0.1,0.6,0,1c-0.1,0.7-0.4,1.3-0.9,1.8c-0.5,0.5-1.1,0.8-1.8,0.9c-0.3,0.1-0.7,0.1-1,0
							c-0.3,0-0.6-0.1-0.9-0.2c-0.6-0.2-1-0.6-1.3-1.1c-0.3-0.4-0.5-0.9-0.6-1.4c-0.1-0.9,0.1-1.7,0.4-2.1c0.3-0.5,0.5-0.7,0.5-0.7
							C609,307.5,609.2,307.3,609.6,307z M607.3,303.4C607.3,303.4,607.3,303.4,607.3,303.4L607.3,303.4
							C607.3,303.4,607.3,303.4,607.3,303.4z"/>
						<path class="st25" d="M596.8,305.4L596.8,305.4L596.8,305.4c0-0.7,0-1.3,0-1.9l0,0l0,0c-0.4-0.1-0.7-0.1-1.1-0.2
							c-0.1-0.4-0.3-0.7-0.5-1.1c0.2-0.3,0.4-0.6,0.6-0.9l0,0l0,0c-0.5-0.5-0.9-0.9-1.3-1.3l0,0l0,0c-0.3,0.2-0.6,0.4-0.9,0.6
							c-0.4-0.2-0.7-0.3-1.1-0.4c-0.1-0.4-0.2-0.7-0.3-1.1l0,0l0,0c-0.7,0-1.3,0-1.8,0l0,0l0,0c-0.1,0.4-0.2,0.8-0.2,1.1
							c-0.4,0.1-0.7,0.2-0.8,0.3c-0.1,0-0.2,0.1-0.2,0.1c0,0-0.1,0-0.1,0c0,0,0,0,0,0c0,0,0,0,0,0l0,0l0,0c0,0,0,0-0.1,0
							c0,0-0.1-0.1-0.2-0.1c-0.2-0.1-0.4-0.2-0.7-0.4l0,0l0,0c-0.3,0.3-0.8,0.8-1.3,1.3l0,0l0,0c0.2,0.3,0.4,0.6,0.6,0.9
							c-0.2,0.3-0.3,0.7-0.4,1.1c-0.3,0.1-0.7,0.2-1.1,0.3l0,0l0,0c0,0.6,0,1.2,0,1.8l0,0l0,0c0.3,0.1,0.7,0.1,1.1,0.2
							c0.1,0.3,0.3,0.7,0.5,1.1c-0.2,0.3-0.4,0.6-0.6,0.9l0,0l0,0c0.4,0.4,0.9,0.8,1.3,1.3l0,0l0,0c0.3-0.2,0.6-0.4,0.9-0.6
							c0.3,0.2,0.7,0.3,1.1,0.4c0.1,0.3,0.2,0.7,0.3,1.1l0,0l0,0c0.6,0,1.2,0,1.8,0l0,0l0,0c0.1-0.3,0.1-0.7,0.2-1.1
							c0.4-0.1,0.7-0.3,1.1-0.5c0.3,0.2,0.6,0.4,0.9,0.6l0,0l0,0c0.4-0.4,0.9-0.9,1.3-1.3l0,0l0,0c-0.2-0.3-0.4-0.6-0.6-0.9
							c0.2-0.3,0.3-0.7,0.4-1.1C596.1,305.5,596.5,305.5,596.8,305.4z M590.3,302.8c0.3-0.2,0.7-0.3,1.3-0.3c0.3,0,0.6,0.1,0.8,0.3
							c0.3,0.2,0.5,0.4,0.7,0.8c0.1,0.2,0.1,0.3,0.2,0.5c0,0.2,0,0.4,0,0.6c0,0.4-0.2,0.8-0.5,1.1c-0.3,0.3-0.7,0.5-1.1,0.6
							c-0.2,0-0.4,0-0.6,0c-0.2,0-0.4-0.1-0.5-0.1c-0.3-0.1-0.6-0.4-0.8-0.6c-0.2-0.3-0.3-0.6-0.3-0.8c-0.1-0.6,0.1-1,0.2-1.3
							c0.2-0.3,0.3-0.4,0.3-0.4C589.9,303.1,590,302.9,590.3,302.8z M589.2,300.5C589.2,300.4,589.2,300.4,589.2,300.5
							c0,0-0.1,0-0.1,0.1C589.1,300.5,589.1,300.5,589.2,300.5z"/>
					</g>
					<g>
						<path class="st25" d="M660.9,310L660.9,310L660.9,310c0-0.5,0-1,0-1.5l0,0l0,0c-0.3-0.1-0.6-0.1-0.8-0.2
							c-0.1-0.3-0.2-0.6-0.4-0.8c0.2-0.2,0.3-0.5,0.4-0.7l0,0l0,0c-0.4-0.4-0.7-0.7-1-1l0,0l0,0c-0.3,0.2-0.5,0.3-0.7,0.5
							c-0.3-0.2-0.6-0.3-0.9-0.3c-0.1-0.3-0.1-0.6-0.2-0.8l0,0l0,0c-0.6,0-1,0-1.4,0l0,0l0,0c-0.1,0.3-0.1,0.6-0.2,0.8
							c-0.3,0.1-0.5,0.2-0.7,0.3c-0.1,0-0.1,0.1-0.2,0.1c0,0,0,0,0,0c0,0,0,0,0,0c0,0,0,0,0,0l0,0l0,0c0,0,0,0,0,0
							c0,0-0.1-0.1-0.1-0.1c-0.1-0.1-0.3-0.2-0.5-0.3l0,0l0,0c-0.3,0.3-0.6,0.6-1,1l0,0l0,0c0.1,0.2,0.3,0.5,0.5,0.7
							c-0.1,0.3-0.3,0.5-0.3,0.8c-0.3,0.1-0.5,0.1-0.8,0.2l0,0l0,0c0,0.5,0,0.9,0,1.4l0,0l0,0c0.3,0.1,0.5,0.1,0.8,0.2
							c0.1,0.3,0.2,0.6,0.4,0.8c-0.1,0.2-0.3,0.5-0.4,0.7l0,0l0,0c0.3,0.3,0.7,0.7,1,1l0,0l0,0c0.2-0.1,0.5-0.3,0.7-0.5
							c0.2,0.1,0.5,0.3,0.8,0.3c0.1,0.3,0.1,0.5,0.2,0.8l0,0l0,0c0.5,0,0.9,0,1.4,0l0,0l0,0c0.1-0.3,0.1-0.5,0.2-0.8
							c0.3-0.1,0.6-0.2,0.8-0.4c0.2,0.1,0.5,0.3,0.7,0.4l0,0l0,0c0.3-0.4,0.7-0.7,1-1l0,0l0,0c-0.2-0.2-0.3-0.5-0.5-0.7
							c0.1-0.3,0.3-0.5,0.3-0.8C660.3,310.1,660.6,310,660.9,310z M655.8,307.9c0.2-0.1,0.6-0.3,1-0.2c0.2,0,0.4,0.1,0.7,0.2
							c0.2,0.1,0.4,0.3,0.5,0.6c0.1,0.1,0.1,0.3,0.1,0.4c0,0.1,0,0.3,0,0.5c0,0.3-0.2,0.6-0.4,0.8c-0.2,0.2-0.5,0.4-0.8,0.4
							c-0.2,0-0.3,0-0.5,0c-0.1,0-0.3-0.1-0.4-0.1c-0.3-0.1-0.5-0.3-0.6-0.5c-0.1-0.2-0.2-0.4-0.3-0.6c-0.1-0.4,0.1-0.8,0.2-1
							c0.1-0.2,0.2-0.3,0.2-0.3C655.5,308.1,655.6,308,655.8,307.9z M654.9,306.1C654.9,306.1,655,306.1,654.9,306.1
							c0,0-0.1,0-0.1,0.1C654.9,306.1,654.9,306.1,654.9,306.1z"/>
						<path class="st29" d="M683.3,315L683.3,315L683.3,315c-0.2-1.1-0.5-2.1-0.7-3.1l0-0.1l-0.1,0c-0.6,0-1.2,0-1.8,0
							c-0.3-0.6-0.7-1.1-1.2-1.6c0.2-0.6,0.4-1.2,0.6-1.7l0,0l0,0c-1-0.6-1.9-1.1-2.6-1.6l0,0l0,0c-0.5,0.5-0.9,1-1.3,1.3
							c-0.6-0.2-1.1-0.2-1.5-0.3c-0.2,0-0.3,0-0.4,0c-0.1,0-0.1,0-0.1,0l0,0c0,0,0,0,0-0.1c0-0.1-0.1-0.2-0.2-0.3
							c-0.1-0.3-0.3-0.7-0.6-1.2l0,0l0,0c-0.8,0.2-1.8,0.4-3,0.7l0,0l0,0c0,0.6,0,1.2,0,1.8c-0.5,0.3-1.1,0.7-1.6,1.1
							c-0.5-0.2-1.1-0.4-1.7-0.6l-0.1,0l0,0c-0.5,0.8-1,1.7-1.6,2.6l0,0.1l0,0c0.4,0.4,0.8,0.8,1.3,1.3c-0.2,0.6-0.3,1.2-0.3,1.9
							c-0.5,0.3-1.1,0.5-1.6,0.8l-0.1,0l0,0.1c0.2,0.9,0.5,2,0.7,3l0,0.1l0.1,0c0.6,0,1.2,0,1.8,0c0.3,0.5,0.7,1.1,1.1,1.5
							c-0.2,0.5-0.4,1.1-0.6,1.7l0,0.1l0.1,0c0.8,0.5,1.7,1,2.6,1.6l0.1,0l0.1-0.1c0.4-0.4,0.8-0.9,1.3-1.3c0.6,0.2,1.2,0.3,1.9,0.3
							c0.3,0.5,0.5,1.1,0.8,1.6l0,0.1l0.1,0c1-0.2,2-0.5,3-0.7l0.1,0l0-0.1c0-0.6,0-1.2,0-1.8c0.6-0.3,1.1-0.7,1.5-1.1
							c0.6,0.2,1.2,0.4,1.7,0.6l0.1,0l0-0.1c0.5-0.9,1.1-1.8,1.6-2.6l0-0.1l-0.1,0c-0.4-0.4-0.9-0.8-1.3-1.3
							c0.2-0.6,0.3-1.3,0.3-1.9C682.3,315.5,682.8,315.2,683.3,315z M674.2,312.3c0.5,0,1.3,0.2,2,0.7c0.4,0.3,0.7,0.7,0.9,1.2
							c0.2,0.5,0.3,1.1,0.3,1.7c0,0.3-0.1,0.6-0.2,0.9c-0.1,0.3-0.3,0.6-0.5,0.8c-0.4,0.5-1,0.9-1.7,1.1c-0.7,0.2-1.4,0.1-2-0.2
							c-0.3-0.1-0.6-0.3-0.8-0.5c-0.2-0.2-0.5-0.4-0.6-0.7c-0.3-0.5-0.5-1.1-0.5-1.6c0-0.5,0.1-1,0.3-1.5c0.4-0.9,1-1.3,1.4-1.6
							c0.5-0.2,0.7-0.3,0.7-0.3C673.4,312.4,673.7,312.3,674.2,312.3z M674.2,308C674.2,308,674.2,308,674.2,308L674.2,308
							C674.2,308,674.2,308,674.2,308z"/>
						<g>
							<g>
								<g>
									<path class="st37" d="M635,321.2c1.5-0.9,3-1.6,4.7-2l1-4.6l7.8-0.1l1.1,4.6c1.6,0.4,3.2,1,4.7,1.9l4-2.6l5.6,5.4l-2.5,4
										c0.9,1.5,1.6,3.1,2,4.7l4.6,1l0.1,7.8l-4.6,1.1c-0.4,1.6-1,3.2-1.9,4.7l2.6,4l-5.4,5.6l-4-2.5c-1.5,0.9-3.1,1.6-4.7,2
										l-1,4.6l-7.8,0.1l-1.1-4.6c-1.6-0.4-3.2-1-4.7-1.9l-4,2.6l-5.6-5.4l2.5-4c-0.9-1.5-1.6-3-2-4.7l-4.6-1l-0.1-7.8l4.6-1.1
										c0.4-1.6,1-3.2,1.9-4.7l-2.6-4l5.4-5.6L635,321.2L635,321.2z"/>
								</g>
							</g>
							<g>
								<path class="st7" d="M650.4,330.4c-0.5-1-1.2-1.7-2.1-2.3c-0.9-0.6-2-0.8-3.3-0.8c-1.3,0-2.4,0.3-3.3,0.8
									c-0.9,0.6-1.6,1.3-2.1,2.3c-0.5,1-0.7,2-0.7,3.1c0,1.1,0.2,2.2,0.7,3.1l0,0c0.1,0.2,0.1,0.3,0,0.5l-0.3,1.1
									c-0.1,0.3,0.1,0.7,0.4,0.7l0.3,0.1c0.7,0.1,1.3,0.2,1.9,0.2h0c0.3,0,0.5,0,0.8,0.1c0.7,0.2,1.4,0.3,2.2,0.3
									c1.3,0,2.3-0.3,3.3-0.8c0.9-0.6,1.6-1.3,2.1-2.2c0.5-0.9,0.7-2,0.7-3.1C651.1,332.4,650.9,331.4,650.4,330.4z M647.1,336
									c-0.5,0.6-1.2,0.9-2.1,0.9c-0.9,0-1.6-0.3-2.1-0.9c-0.5-0.6-0.7-1.4-0.7-2.5c0-1,0.2-1.9,0.7-2.5c0.5-0.6,1.2-0.9,2.1-0.9
									c0.9,0,1.6,0.3,2.1,0.9c0.5,0.6,0.7,1.4,0.7,2.5C647.8,334.6,647.6,335.4,647.1,336z"/>
								<path class="st7" d="M650,347.7c-2.9,1.3-6,1.9-9.5,1.5c-0.7-0.1-1.4-0.5-1.5-1.4l0-0.2c-0.1-0.9,0.3-1.9,1-1.8
									c3.2,0.8,6.4,0.4,9.5-1.4c0.6-0.3,1.3,0.5,1.5,1.4c0,0,0,0,0,0C651.1,346.8,650.6,347.4,650,347.7z"/>
								<path class="st7" d="M650,343c-2.8,1.4-6,2.1-9.4,1.8c-0.7-0.1-1.4-0.5-1.5-1.4l0-0.2c-0.2-0.9,0.3-1.9,1-1.8
									c3.2,0.7,6.4,0.1,9.4-1.7c0.6-0.4,1.3,0.5,1.5,1.3c0,0,0,0,0,0C651.1,342.1,650.6,342.7,650,343z"/>
								<circle class="st7" cx="650.8" cy="326.3" r="1.5"/>
							</g>
						</g>
					</g>
				</g>
				<g>
					<rect x="542.9" y="252.2" class="st6" width="205.2" height="5"/>
					<g>
						<path class="st36" d="M546.9,254.7c0,0.7-0.6,1.2-1.2,1.2c-0.7,0-1.2-0.6-1.2-1.2c0-0.7,0.6-1.2,1.2-1.2
							C546.3,253.5,546.9,254,546.9,254.7z"/>
						<path class="st7" d="M551.9,254.7c0,0.7-0.6,1.2-1.2,1.2c-0.7,0-1.2-0.6-1.2-1.2c0-0.7,0.6-1.2,1.2-1.2
							C551.4,253.5,551.9,254,551.9,254.7z"/>
						<path class="st14" d="M557,254.7c0,0.7-0.6,1.2-1.2,1.2c-0.7,0-1.2-0.6-1.2-1.2c0-0.7,0.6-1.2,1.2-1.2
							C556.4,253.5,557,254,557,254.7z"/>
					</g>
				</g>
				<g>
					<rect x="744.4" y="257.2" class="st35" width="3.6" height="120.3"/>
					<path class="st38" d="M746.2,298.9L746.2,298.9c-0.5,0-0.9-0.4-0.9-0.9v-39.2c0-0.5,0.4-0.9,0.9-0.9h0c0.5,0,0.9,0.4,0.9,0.9
						V298C747.2,298.5,746.8,298.9,746.2,298.9z"/>
				</g>
				<rect x="542.7" y="257.3" class="st39" width="201.7" height="10"/>
				<path class="st6" d="M548.8,263.8c-0.3-0.2-0.5-0.4-0.6-0.7c-0.1-0.3-0.2-0.6-0.2-0.9c0-0.3,0.1-0.7,0.2-0.9
					c0.1-0.3,0.4-0.5,0.6-0.7c0.3-0.2,0.6-0.3,1-0.3c0.4,0,0.7,0.1,1,0.3c0.3,0.2,0.5,0.4,0.6,0.7c0.1,0.3,0.2,0.6,0.2,0.9
					c0,0.3-0.1,0.7-0.2,0.9c-0.1,0.3-0.4,0.5-0.6,0.7c-0.3,0.2-0.6,0.3-1,0.3C549.4,264,549.1,264,548.8,263.8z M550.5,263
					c0.2-0.2,0.2-0.5,0.2-0.8c0-0.3-0.1-0.6-0.2-0.8c-0.2-0.2-0.4-0.3-0.7-0.3c-0.3,0-0.5,0.1-0.7,0.3c-0.2,0.2-0.2,0.5-0.2,0.8
					c0,0.3,0.1,0.6,0.2,0.8c0.2,0.2,0.4,0.3,0.7,0.3C550.1,263.3,550.3,263.2,550.5,263z"/>
				<path class="st6" d="M552.9,263.8c-0.3-0.2-0.5-0.4-0.7-0.7c-0.1-0.3-0.2-0.6-0.2-1c0-0.3,0.1-0.6,0.2-0.9
					c0.1-0.3,0.3-0.5,0.6-0.7c0.3-0.2,0.6-0.2,0.9-0.2c0.3,0,0.6,0.1,0.9,0.2c0.2,0.1,0.4,0.3,0.5,0.6c0.1,0.2,0.2,0.5,0.2,0.8
					c0,0.1,0,0.3-0.1,0.5H553c0,0.3,0.2,0.6,0.4,0.7c0.2,0.2,0.4,0.2,0.7,0.2c0.4,0,0.8-0.1,1.1-0.3l0,0.8c-0.2,0.1-0.3,0.1-0.5,0.2
					c-0.2,0.1-0.4,0.1-0.7,0.1C553.6,264,553.2,264,552.9,263.8z M554.5,261.8c0-0.2-0.1-0.4-0.2-0.5c-0.1-0.1-0.3-0.2-0.5-0.2
					c-0.2,0-0.4,0.1-0.5,0.2c-0.1,0.1-0.2,0.3-0.3,0.5H554.5z"/>
				<path class="st6" d="M556.2,263.8c-0.2-0.2-0.2-0.4-0.2-0.7v-4.5h0.9v4.2c0,0.2,0,0.3,0,0.4c0,0.1,0.1,0.1,0.1,0.1
					c0.1,0,0.2,0,0.3,0l-0.1,0.7h-0.3C556.6,264,556.4,264,556.2,263.8z"/>
				<g>
					<path class="st30" d="M547.2,261.1c-0.1-0.2-0.3-0.4-0.5-0.6c-0.2-0.1-0.5-0.2-0.8-0.2c-0.3,0-0.6,0.1-0.8,0.2
						c-0.2,0.1-0.4,0.3-0.5,0.6c-0.1,0.2-0.2,0.5-0.2,0.8c0,0.3,0.1,0.6,0.2,0.8l0,0c0,0,0,0.1,0,0.1l-0.1,0.3c0,0.1,0,0.2,0.1,0.2
						l0.1,0c0.2,0,0.3,0.1,0.5,0.1h0c0.1,0,0.1,0,0.2,0c0.2,0.1,0.4,0.1,0.6,0.1c0.3,0,0.6-0.1,0.8-0.2c0.2-0.1,0.4-0.3,0.5-0.6
						c0.1-0.2,0.2-0.5,0.2-0.8C547.4,261.6,547.4,261.3,547.2,261.1z M546.4,262.5c-0.1,0.2-0.3,0.2-0.5,0.2c-0.2,0-0.4-0.1-0.5-0.2
						c-0.1-0.2-0.2-0.4-0.2-0.6c0-0.3,0.1-0.5,0.2-0.6c0.1-0.2,0.3-0.2,0.5-0.2c0.2,0,0.4,0.1,0.5,0.2c0.1,0.2,0.2,0.4,0.2,0.6
						C546.6,262.1,546.5,262.3,546.4,262.5z"/>
					<path class="st30" d="M547.1,265.5c-0.7,0.3-1.5,0.5-2.4,0.4c-0.2,0-0.3-0.1-0.4-0.4l0,0c0-0.2,0.1-0.5,0.3-0.4
						c0.8,0.2,1.6,0.1,2.4-0.3c0.2-0.1,0.3,0.1,0.4,0.3c0,0,0,0,0,0C547.4,265.2,547.3,265.4,547.1,265.5z"/>
					<path class="st30" d="M547.2,264.3c-0.7,0.4-1.5,0.5-2.4,0.5c-0.2,0-0.3-0.1-0.4-0.3l0,0c0-0.2,0.1-0.5,0.2-0.5
						c0.8,0.2,1.6,0,2.4-0.4c0.1-0.1,0.3,0.1,0.4,0.3c0,0,0,0,0,0C547.4,264.1,547.3,264.2,547.2,264.3z"/>
					<circle class="st30" cx="547.4" cy="260" r="0.4"/>
				</g>
				<path class="st30" d="M558.3,263.6c-0.3-0.3-0.5-0.7-0.5-1.2v-2.1h0.9v1.9c0,0.3,0,0.5,0.1,0.6c0.1,0.2,0.2,0.3,0.3,0.4
					c0.2,0.1,0.3,0.1,0.6,0.1c0.3,0,0.4,0,0.6-0.1c0.2-0.1,0.3-0.2,0.3-0.4c0.1-0.2,0.1-0.4,0.1-0.6v-1.9h0.9v2.1
					c0,0.5-0.2,0.9-0.5,1.2c-0.3,0.3-0.7,0.4-1.4,0.4S558.6,263.9,558.3,263.6z"/>
				<text transform="matrix(1 0 0 1 657.5087 262.6647)" class="st41 st42">HOME</text>
				<text transform="matrix(1 0 0 1 669.7137 262.6647)" class="st41 st42">HOW IT WORKS</text>
				<text transform="matrix(1 0 0 1 688.8553 262.6647)" class="st41 st42">Partnership</text>
				<text transform="matrix(1 0 0 1 706.3309 262.6647)" class="st41 st42">LOG IN</text>
				<text transform="matrix(1 0 0 1 732.6512 262.6647)"><tspan x="0" y="0" class="st30 st41 st42">EN</tspan><tspan x="2.3" y="0" class="st41 st42"> / ES</tspan></text>
				<line class="st40" x1="653.8" y1="257.3" x2="653.8" y2="267.1"/>
				<line class="st40" x1="666.1" y1="257.3" x2="666.1" y2="267.1"/>
				<line class="st40" x1="686.1" y1="257.3" x2="686.1" y2="267.1"/>
				<line class="st40" x1="702.7" y1="257.3" x2="702.7" y2="267.1"/>
				<line class="st40" x1="715.6" y1="257.3" x2="715.6" y2="267.1"/>
				<line class="st40" x1="729.2" y1="257.3" x2="729.2" y2="267.1"/>
				<rect x="715.6" y="257.3" class="st30" width="13.6" height="10"/>
				<text transform="matrix(1 0 0 1 717.8251 262.7448)" class="st7 st41 st42">FREE TRIAL</text>
			</g>
		</g>
	</g>
</g>
</svg>
