<?xml version="1.0" encoding="utf-8"?>
<!-- Generator: Adobe Illustrator 25.2.1, SVG Export Plug-In . SVG Version: 6.00 Build 0)  -->
<svg version="1.1" id="Layer_1" xmlns="http://www.w3.org/2000/svg" xmlns:xlink="http://www.w3.org/1999/xlink" x="0px" y="0px"
	 viewBox="0 0 640 480" style="enable-background:new 0 0 640 480;" xml:space="preserve">
<style type="text/css">
	.st0{fill:#FFFFFF;}
	.st1{fill:#A8CFEF;}
	.st2{fill:#25A7DF;}
	.st3{fill:#117FA5;}
	.st4{fill:#9F91D3;}
	.st5{fill:#393768;}
	.st6{fill:#ADADEA;}
	.st7{fill:#F2F2F2;}
	.st8{display:none;fill:#25A7DF;}
	.st9{fill:#666666;}
	.st10{fill:#7070E5;}
	.st11{fill:#8B8BF2;}
	.st12{fill:#324570;}
	.st13{fill:#E4EDEB;}
	.st14{fill:#F9AD95;}
	.st15{opacity:0.1;}
	.st16{fill:#E6E9F8;}
	.st17{fill:#B9E0FF;}
	.st18{opacity:0.5;}
	.st19{fill:#1A2E35;}
	.st20{fill:#FAFAFA;}
	.st21{opacity:0.3;}
	.st22{fill:#FF9400;}
	.st23{fill:#EDB6A4;}
	.st24{fill:#3D3D3D;}
	.st25{fill:#E0A494;}
	.st26{opacity:6.000000e-02;}
	.st27{opacity:3.000000e-02;}
	.st28{fill:#375A64;}
	.st29{fill:none;stroke:#FFFFFF;stroke-width:1.0241;stroke-miterlimit:10;}
	.st30{fill:#DEA58E;}
	.st31{fill:#FFD77D;}
</style>
<g>
	<g>
		<path class="st0" d="M330.8,189.3c-32.9-12.3-69-23.1-103.6-17c-14.7,2.6-30.5,10-35.3,24.2c-4.7,14,2.8,30.4-3.5,43.8
			c-4.5,9.5-14.8,14.7-24.8,17.7c-32.6,9.6-73.1,23.5-95.1,51.2c-8,10.1-12.3,24.1-7.6,36.1c4.6,11.6,16.3,18.8,28.2,22.8
			s24.4,5.6,35.9,10.6c11.5,4.9,22.2,14.3,23.9,26.7c2,15.1-8.8,31.2-1,45.5c7.7,14.2,28.6,17,43,18.5c35.2,3.6,72.2-8.3,97.7-33.1
			c9.1-8.8,17.3-19.5,29.4-23.6c23.6-8,46.8,8.3,67.8,16.8c25.4,10.3,51.6,19.6,79,23.2c26.7,3.5,56.3,1.3,80.4-11.7
			c21.1-11.4,34.4-42.8,19.4-64.3c-6.6-9.5-17.3-15.1-26.6-21.8c-22.3-16.2-23-38.6,0.1-54.3c8.4-5.8,17.9-10.1,25.6-16.8
			c7.7-6.7,13.6-16.7,11.9-26.8c-1.7-9.6-9.7-16.7-17.6-22.3c-28.4-20.2-62-31.5-96.4-35.9c-14.1-1.8-29.3-3.1-43.6-2
			c-16,1.2-31.6,7.5-47.8,5.5c-9-1.1-17.5-4.6-25.9-7.9C339.6,192.6,335.2,190.9,330.8,189.3z"/>
	</g>
	<path class="st0" d="M314.8,73.4c0,0.1,0,0.2,0,0.3c-1.1,8.2,5.1,15.8,13.4,16.8c42,5.5,83.8,5.4,125.5-0.2
		c6.9-0.9,12.4-6.5,13.3-13.4c0.3-2.3,0.4-4.7,0.2-7.2c-1.3-15.9-14.6-28.9-30.5-30c-4.9-0.3-9.6,0.4-13.9,2
		c-7.3-13.1-21.4-22-37.4-22c-19.9,0-36.6,13.5-41.5,31.9c-1.3-0.2-2.6-0.3-4-0.3C327.4,51.7,316.5,61.1,314.8,73.4z"/>
	<path class="st0" d="M169.8,58.9c0,0.1,0,0.2,0,0.3c1,7.5-4.7,14.4-12.2,15.4c-38.3,5.1-76.5,5-114.6-0.2
		c-6.3-0.9-11.3-5.9-12.1-12.2c-0.3-2.1-0.3-4.3-0.1-6.6C32,41.1,44.1,29.2,58.6,28.3c4.5-0.3,8.8,0.4,12.7,1.8
		C78,18.1,90.8,10,105.5,10c18.2,0,33.4,12.4,37.8,29.1c1.2-0.2,2.4-0.3,3.6-0.2C158.3,39.1,168.2,47.6,169.8,58.9z"/>
	<g>
		<g>
			<g>
				<path class="st1" d="M431,197.2h-74.4c-16.7,0-30.3-13.6-30.3-30.3c0-16.7,13.6-30.2,30.3-30.2c2.2,0,4.4,0.2,6.5,0.7
					c7.1-10.7,19.1-17.3,32.1-17.3c16.1,0,30.5,10.1,36.1,25c14.2,0.1,25.8,11.8,25.8,26.1C457,185.5,445.4,197.2,431,197.2z
					 M356.6,145c-12.1,0-22,9.9-22,22c0,12.1,9.9,22,22,22H431c9.8,0,17.8-8,17.8-17.8c0-9.8-8-17.8-17.8-17.8c-0.7,0-1.4,0-2,0.1
					l-3.7,0.6l-1-3.6c-3.6-13-15.6-22.1-29.1-22.1c-11.1,0-21.2,6-26.5,15.8l-1.7,3.1l-3.3-1.1C361.4,145.4,359.1,145,356.6,145z"/>
			</g>
			<g>
				<polygon class="st2" points="317.4,115.3 338.1,103.7 390.3,152.5 				"/>
				<polygon class="st3" points="312.2,129.6 317.4,115.3 390.3,152.5 				"/>
				<polygon class="st2" points="308.8,125 285.8,138.7 390.3,152.5 				"/>
			</g>
			<g>
				<g>
					<path class="st2" d="M304.6,121c-14.9-5.7-31.1-9.1-48.1-10.2l0.2-2.7c17.2,1.1,33.7,4.6,48.9,10.4L304.6,121z"/>
				</g>
				<g>
					<path class="st2" d="M179.7,122.9l-1.1-2.5c19.4-8.2,42.9-12.7,66.2-12.7l1.9,0l0,2.8l-1.9,0
						C221.9,110.4,198.8,114.9,179.7,122.9z"/>
				</g>
				<g>
					<path class="st2" d="M77.4,225.8c-0.2-2.9-0.3-5.9-0.3-8.8c0-21.3,4.6-41.8,13.4-59.1l2.5,1.3c-8.6,17-13.1,37-13.1,57.9
						c0,2.9,0.1,5.7,0.3,8.6L77.4,225.8z M152.9,195.4c-12.9,0-20.3-7.5-20.8-21l0-1.4c0-10.8,4.5-21.1,13.2-30.5l2,1.9
						c-8.3,8.9-12.5,18.6-12.5,28.6l0,1.3c0.6,15.2,10.1,18.3,18,18.3c6.3,0,13.8-2,21.7-5.7l1.2,2.5
						C167.5,193.3,159.6,195.4,152.9,195.4z M184.7,184.7l-1.4-2.4c14.9-9.2,30-24.8,30-39.2c0-5.2-2-9.9-6-13.9l2-1.9
						c4.5,4.6,6.8,9.9,6.8,15.8C216,159.6,199.1,175.8,184.7,184.7z M97.8,150.6l-2.3-1.5c17.6-27.9,45.4-41.3,76.8-36.9L172,115
						C141.6,110.7,114.9,123.7,97.8,150.6z"/>
				</g>
				<g>
					<path class="st2" d="M111.3,308c-11.2-12.2-19.9-26.6-25.8-42.8l2.6-0.9c5.7,15.8,14.2,29.9,25.2,41.8L111.3,308z"/>
				</g>
			</g>
		</g>
	</g>
	<g>
		<g>
			<path class="st4" d="M519,388.5H107.8c-23.6,0-42.8-19.2-42.8-42.8v0h496.8v0C561.8,369.3,542.7,388.5,519,388.5z"/>
			<path class="st5" d="M330.1,369.1h-33.4c-12.9,0-23.4-10.5-23.4-23.4v0h80.1v0C353.5,358.6,343,369.1,330.1,369.1z"/>
			<path class="st2" d="M519,388.5H107.8c-23.6,0-42.8-19.2-42.8-42.8v0h496.8v0C561.8,369.3,542.7,388.5,519,388.5z"/>
			<g>
				<g>
					<path class="st6" d="M493.5,345.7H133.4c-23.1,0-41.8-18.7-41.8-41.8V81.6c-0.7-13.3,6.9-19,18.3-19.6h383.5
						c23.1,0,41.8,18.7,41.8,41.8v200.2C535.2,327,516.5,345.7,493.5,345.7z"/>
					<path class="st7" d="M507.7,314.9H119.2c-8.7,0-15.7-7-15.7-15.7V93.7c0-8.6,7-15.7,15.7-15.7h388.5c8.6,0,15.7,7,15.7,15.7
						v205.6C523.3,307.9,516.3,314.9,507.7,314.9z"/>
				</g>
				<path class="st8" d="M518.4,61.9h-410c-9.3,0-16.8,7.5-16.8,16.8v250.2c0,9.3,7.5,16.8,16.8,16.8h410c9.3,0,16.8-7.5,16.8-16.8
					V78.7C535.2,69.5,527.7,61.9,518.4,61.9z"/>
			</g>
		</g>
		<g>
			<g>
				<path class="st9" d="M489.4,96.5v199.8c0,5.3-4.3,9.6-9.6,9.6H147.9c-5.3,0-9.6-4.3-9.6-9.6V96.5c0-5.3,4.3-9.6,9.6-9.6h331.9
					C485.1,86.9,489.4,91.2,489.4,96.5z"/>
				<path class="st6" d="M489.4,96.5v4.4h-351v-4.4c0-5.3,4.3-9.6,9.6-9.6h331.9C485.1,86.9,489.4,91.2,489.4,96.5z"/>
				<path class="st6" d="M489.4,280.6v15.8c0,5.3-4.3,9.6-9.6,9.6H147.9c-5.3,0-9.6-4.3-9.6-9.6v-15.8H489.4z"/>
				<g>
					<path class="st10" d="M477.7,295.3H196.2c-1.2,0-2.2-1-2.2-2.2c0-1.2,1-2.2,2.2-2.2h281.5c1.2,0,2.2,1,2.2,2.2
						C479.9,294.3,478.9,295.3,477.7,295.3z"/>
				</g>
				<path class="st11" d="M150.8,285.7v14.7c0,0.6,0.6,0.9,1.1,0.5l10.5-7.9c0.4-0.3,0.4-0.9,0-1.1l-10.5-6.8
					C151.4,284.9,150.8,285.2,150.8,285.7z"/>
				<path class="st10" d="M171.5,301h-0.4c-1,0-1.8-0.8-1.8-1.8v-12.4c0-1,0.8-1.8,1.8-1.8h0.4c1,0,1.8,0.8,1.8,1.8v12.4
					C173.4,300.2,172.5,301,171.5,301z"/>
				<path class="st10" d="M177.6,301h-0.4c-1,0-1.8-0.8-1.8-1.8v-12.4c0-1,0.8-1.8,1.8-1.8h0.4c1,0,1.8,0.8,1.8,1.8v12.4
					C179.5,300.2,178.6,301,177.6,301z"/>
				<circle class="st11" cx="243.9" cy="293.1" r="7.1"/>
				<circle class="st0" cx="243.9" cy="293.1" r="4.6"/>
				<circle class="st11" cx="149.8" cy="93.9" r="3.2"/>
				<path class="st12" d="M151.1,93.9c0,0.7-0.6,1.3-1.3,1.3c-0.7,0-1.3-0.6-1.3-1.3s0.6-1.3,1.3-1.3
					C150.5,92.6,151.1,93.2,151.1,93.9z"/>
				<circle class="st13" cx="160.9" cy="93.9" r="3.2"/>
				<path class="st12" d="M162.2,93.9c0,0.7-0.6,1.3-1.3,1.3c-0.7,0-1.3-0.6-1.3-1.3s0.6-1.3,1.3-1.3
					C161.6,92.6,162.2,93.2,162.2,93.9z"/>
				<circle class="st14" cx="172" cy="93.9" r="3.2"/>
				<path class="st12" d="M173.3,93.9c0,0.7-0.6,1.3-1.3,1.3c-0.7,0-1.3-0.6-1.3-1.3s0.6-1.3,1.3-1.3
					C172.7,92.6,173.3,93.2,173.3,93.9z"/>
			</g>
			<g>
				<path class="st0" d="M314.4,136.7c-31.3,0-56.6,25.3-56.6,56.6c0,31.3,25.3,56.6,56.6,56.6c31.3,0,56.6-25.4,56.6-56.6
					C371,162,345.6,136.7,314.4,136.7z M314.4,243.2c-27.5,0-49.9-22.3-49.9-49.9c0-27.6,22.3-49.9,49.9-49.9
					c27.5,0,49.9,22.3,49.9,49.9C364.3,220.8,341.9,243.2,314.4,243.2z"/>
				<path class="st0" d="M296.7,165.5V225c0,2.3,2.6,3.6,4.4,2.2l42.3-32c1.5-1.1,1.4-3.5-0.2-4.5L301,163.2
					C299.2,162,296.7,163.3,296.7,165.5z"/>
			</g>
		</g>
	</g>
	<g>
		<g>
			<path class="st15" d="M335.9,262.6v46.9c0,9.1,7.4,16.4,16.4,16.4h64.5l29.4,16.8c1.8,1,3.8-1,2.8-2.8l-5.4-15.8
				c5.3-2.7,9-8.2,9-14.6v-46.9c0-9.1-7.4-16.4-16.4-16.4h-83.8C343.3,246.2,335.9,253.5,335.9,262.6z"/>
			<path class="st16" d="M339,256.4v46.9c0,9.1,7.4,16.4,16.4,16.4h64.5l29.4,16.8c1.8,1,3.8-1,2.8-2.8l-5.4-15.8
				c5.3-2.7,9-8.2,9-14.6v-46.9c0-9.1-7.4-16.4-16.4-16.4h-83.8C346.4,239.9,339,247.3,339,256.4z"/>
			<path class="st1" d="M404.7,276.5h27.2c4,0,7.3-3.3,7.3-7.3v-10.4c0-4-3.3-7.3-7.3-7.3h-27.2c-4,0-7.3,3.3-7.3,7.3v10.4
				C397.4,273.3,400.6,276.5,404.7,276.5z"/>
			<path class="st1" d="M360.3,294.8h60.4c3.1,0,5.6-2.5,5.6-5.6l0,0c0-3.1-2.5-5.6-5.6-5.6h-60.4c-3.1,0-5.6,2.5-5.6,5.6v0
				C354.8,292.3,357.3,294.8,360.3,294.8z"/>
			<path class="st1" d="M360.3,309.7h60.4c3.1,0,5.6-2.5,5.6-5.6l0,0c0-3.1-2.5-5.6-5.6-5.6h-60.4c-3.1,0-5.6,2.5-5.6,5.6v0
				C354.8,307.2,357.3,309.7,360.3,309.7z"/>
		</g>
		<g>
			<g>
				<g>
					<path class="st17" d="M431.8,256.3c-0.1,1.1-28,95.2-28,95.2l24.1-10.8l13.2,29.1l17-112L431.8,256.3z"/>
				</g>
				<g>
					<polygon class="st17" points="452.3,260.3 458,368.1 479,338.6 506.1,357.9 479,252 					"/>
				</g>
				<g class="st18">
					<g>
						<path d="M430,263.5c1.2,4,5.1,7.1,9.2,7.2c2.5,0.1,5.2-0.6,7.3,0.7c2.1,1.3,3,4.5,5.4,4.8c2.9,0.4,4.5-3.4,7.3-4.3
							c3.7-1.2,7.6,3.2,11.2,1.9c2.4-0.9,3.5-3.9,5.9-4.6c1.1-0.3,2.2,0,3.3,0.1c1.1,0.2,2.8-0.1,3.7-0.7l-1.3-5.2l-2.3-10.1h-48.7
							L430,263.5z"/>
					</g>
				</g>
				<g>
					<g>
						<path class="st17" d="M458.5,179.5c2.4,0.2,4.8,0.7,7,1.4c0-0.4,0.1-0.8,0.2-1.1c2.1-5.5,4.1-11,6.2-16.5l0.1-0.1
							c-0.8-0.4-1.4-1-2-2c-1-1.7-3.2-3.1-5.5-3c-1.1,4.7-2.5,11.1-3.5,15.1C460.4,175.4,459.8,177.7,458.5,179.5z"/>
					</g>
					<g>
						<path class="st17" d="M428.8,229.7c-1.5-2.2-2.7-4.7-3.7-7.3c-0.3,0.3-0.7,0.5-1.1,0.7c-0.2,0.1-0.3,0.1-0.5,0.2
							c-0.3,0.2-0.6,0.4-1,0.5c-0.9,0.4-2,0.7-3.2,1c-1.2,0.3-2.5,0.7-3.9,1.1c-2.8,0.8-5.3,1.4-7.1,1.8c-1.8,0.4-3,0.7-3,0.6
							c0-0.1,1.1-0.5,2.9-1c0.7-0.2,1.6-0.5,2.5-0.7c-2,0.4-3.9,0.9-5.7,1.3c-0.7,3.2-3,6.7-1,9.2c0.2,0.3,0.5,0.5,0.7,0.7
							c7.2-2.7,16.5-6.2,22.6-7.8C427.9,229.8,428.3,229.7,428.8,229.7z"/>
					</g>
					<g>
						<path class="st17" d="M447.4,178.7c0,0.3,0,0.6,0,0.8c0,0.3,0,0.6,0,0.9c2.6-0.7,5.2-1,8-1c0-0.1,0-0.3,0-0.4
							c0.1-2,0.3-4,0.4-6c0-0.4,0-0.8,0-1.2c0.1-4.3,0.2-7.9,0.4-8.6c-1.2-1.4-2.3-4.4-4.8-4.7c-2-0.3-3.1,0-3.9,0.8
							C447.6,165.2,447.4,172.8,447.4,178.7z"/>
					</g>
					<g>
						<path class="st17" d="M416,199.6c0.5,0.2,1,0.4,1.5,0.5c-2.1-0.8-4.3-1.8-6.4-2.6C412.5,198.2,414.2,198.9,416,199.6z"/>
					</g>
					<g>
						<path class="st17" d="M423.3,210.1c0.1-2.5,0.6-5,1.2-7.4c-0.6-0.2-1.3-0.4-2-0.6c-1.9-0.3-4.3-0.9-6.8-1.9
							c-2.9-1.1-5.4-2.4-7.2-3.4c-1.2-0.7-2.1-1.2-2.6-1.5c-0.5-0.2-0.9-0.4-1.4-0.6c-0.9,1.4-2.3,2.6-3.2,4.1
							c-0.5,0.8-0.8,1.8-0.8,2.7c7.4,2,16.3,4.7,22.6,8.4C423.2,210,423.3,210,423.3,210.1z"/>
					</g>
					<g>
						<path class="st17" d="M425.8,199.1c0.9-2.2,2-4.2,3.4-6.1c-0.2-0.1-0.3-0.2-0.5-0.3c-1.4-0.9-3.4-2.3-5.4-4
							c-2-1.7-3.7-3.4-4.9-4.6c0,0,0-0.1-0.1-0.1c-1.4-1.2-2.7-2.4-3.9-3.4c-0.2,0.5-0.4,0.9-0.8,1.3c-1.8,1.8-5.1,0.6-7,2.2
							c-0.7,0.6-1.1,1.4-1.2,2.3c6,3.2,11.9,7.2,17.9,11.3C424.4,198.2,425.2,198.7,425.8,199.1z"/>
					</g>
					<g>
						<path class="st17" d="M428.9,187.9c0.8,1.1,1.5,2.1,2,2.9c1.8-2.1,3.8-3.9,6-5.5c-0.7-0.9-1.5-2-2.5-3.2
							c-0.8-1-1.8-2.1-2.8-3.3c-1.5-1.8-2.7-3.5-3.6-4.8c-0.9-1.3-1.4-2.1-1.3-2.1c0,0,0.4,0.3,0.8,0.9c-0.8-1.1-1.6-2.1-2.2-3
							c-0.5,1-1.2,2-2.2,2.6c-1.4,0.9-3.3,0.8-5,1.2c3,3.5,6.3,8.1,9.1,12.4C427.9,186.5,428.4,187.2,428.9,187.9z"/>
					</g>
					<g>
						<path class="st17" d="M439,184c1.9-1.1,3.8-2,5.9-2.8c-0.1-0.2-0.1-0.5-0.2-0.8c-0.4-1.5-1-3.7-1.4-6.1
							c-0.5-2.4-0.8-4.6-0.9-6.2c-0.1-1.3-0.2-2.2-0.2-2.5c0-0.2,0-0.3-0.1-0.4c-1.5,0.2-3.2-0.4-4.2-1.4c-1.9-1.7-5.1-1.5-7.5-0.4
							c2.6,6.2,6.5,14.8,8.6,20.2C438.9,183.8,439,183.9,439,184z"/>
					</g>
					<g>
						<path class="st17" d="M430.7,191.1C430.6,191.1,430.6,191.1,430.7,191.1C430.6,191.1,430.6,191.1,430.7,191.1
							C430.6,191.1,430.6,191.1,430.7,191.1z"/>
					</g>
					<g>
						<path class="st17" d="M424.5,220.6c-0.7-2.5-1.1-5.1-1.2-7.8c-0.1,0-0.1,0-0.2,0c-2.3,0.1-4.9,0.1-7.7,0c-0.9,0-1.7,0-2.7,0
							c-2.7-0.1-5.2-0.2-6.9-0.4c-0.8-0.1-1.5-0.2-1.9-0.2c-0.6,0-1.2-0.1-1.7-0.1c-0.4,0.6-0.8,1.2-1.1,1.8c-1,1.7-1.6,3.9-0.7,5.7
							c0,0.1,0.1,0.1,0.1,0.2c7.5,0.2,15,0.4,22.6,0.7C423.5,220.4,424.1,220.4,424.5,220.6z"/>
					</g>
					<g>
						<path class="st17" d="M435.1,237.4c0.2-0.1,0.3-0.2,0.5-0.3c-2.1-1.7-4.1-3.7-5.7-5.8c-0.2,0.4-0.5,0.7-0.9,1
							c-0.1,0.3-0.4,0.6-0.6,0.9c-1.5,1.1-3.5,2.4-5.8,3.9c-2.3,1.5-4.4,2.8-5.9,3.7c-1.5,0.9-2.5,1.5-2.5,1.4
							c0-0.1,0.8-0.7,2.3-1.7c0.8-0.6,1.9-1.3,3-2c-2.2,1.3-4.4,2.7-6.4,3.9c0.4,1.7-0.2,3.6,0.6,5.2c0.8,1.6,2.4,2.1,4.1,2.4
							c4.5-3.4,9-6.7,13.5-10.1C432.5,238.8,433.7,237.9,435.1,237.4z"/>
					</g>
					<g>
						<path class="st17" d="M496.9,242.6c0.6,0.5,1.3,1,1.8,1.5c0,0,0.1-0.1,0.1-0.1c-0.2-0.1-0.4-0.3-0.6-0.4
							C497.9,243.2,497.4,242.9,496.9,242.6z"/>
					</g>
					<g>
						<path class="st17" d="M480,232.9c-1.7,2-3.7,3.7-5.8,5.2c0.5,0.5,1.1,1.2,1.7,2c0.1,0,0.1,0.1,0.2,0.1
							c0.9,0.7,1.5,1.9,2.2,3.1c0.7,1.2,1.5,2.6,2.3,4c0,0,0.1,0.1,0.1,0.1c1.5,2.5,3,5.2,4.4,7.5c0.2-0.4,0.4-0.7,0.7-1
							c2.4-2.5,7.2-0.1,9.7-2.4c0.3-0.2,0.5-0.5,0.6-0.8c-4.6-5-10.7-12-14.7-16.2C480.9,234.1,480.4,233.5,480,232.9z M481.8,238.3
							c0.2-0.1,1.3,1.8,2.8,4.1c1.5,2.2,2.9,4,2.8,4.1c-0.1,0.1-1.7-1.5-3.3-3.7C482.6,240.4,481.7,238.3,481.8,238.3z"/>
					</g>
					<g>
						<path class="st17" d="M456.4,163.4C456.4,163.3,456.4,163.3,456.4,163.4c-0.1,0.1,0,0.2,0,0.5
							C456.4,163.7,456.4,163.5,456.4,163.4z"/>
					</g>
					<g>
						<path class="st17" d="M487.7,215.4c-0.3,2.4-0.8,4.6-1.6,6.8c0.3,0.1,0.6,0.3,0.9,0.4c1,0.5,2.1,1.1,3.1,1.6
							c-1.9-1.1-3.1-1.8-3-1.9c0.1-0.1,4.4,2,9.6,4.8c2.3,1.2,4.4,2.4,6.1,3.3c0.4,0.2,0.7,0.3,1.1,0.5c0-0.5,0.1-1.1,0.2-1.6
							c0.9-2.6,4.2-3.9,5.3-6.2C502.5,220.8,493.7,217.7,487.7,215.4z"/>
					</g>
					<g>
						<path class="st17" d="M481.5,231c0.6,0.5,1.4,1.1,2.3,1.8c0.1,0.1,0.2,0.1,0.3,0.2c1.9,1.3,4.4,3,7.2,5c2.8,2,5.3,3.8,7.1,5.2
							c0.2,0.2,0.5,0.4,0.7,0.5c1.1-0.8,2.5-1.3,3.7-2c-5.8-5.1-12.7-12.2-18-16.2C483.9,227.4,482.8,229.3,481.5,231z"/>
					</g>
					<g>
						<path class="st17" d="M444.5,242.6c-0.1-0.3-0.3-0.5-0.3-0.7c-2.1-0.8-4.1-1.8-5.9-3c-0.1,0.1-0.1,0.1-0.2,0.2
							c-0.4,0.5-0.9,1.1-1.4,1.6c-0.9,1.1-2.2,2.6-3.7,4.2c-1.6,1.7-3,3.1-4.1,4.2c-1.1,1-1.8,1.6-1.9,1.6c0,0,0.1-0.2,0.4-0.5
							c-0.9,0.9-1.8,1.8-2.6,2.7c1.3,2.6,0,6.4,2.1,8.5c0.4,0.4,0.9,0.7,1.3,0.8c4.5-6.1,10.7-14,15.2-18.9
							C443.7,243,444.1,242.6,444.5,242.6z"/>
					</g>
					<g>
						<path class="st17" d="M457.5,244c0.3,0.4,0.5,0.9,0.5,1.5c0.4,1,0.4,2.2,0.2,3.5c-0.2,1.4-0.4,2.8-0.6,4.4
							c-0.3,2.1-0.5,4-0.8,5.6c-0.2,2.2-0.3,4.3-0.5,6.2c1.3,0.9,2.5,2.2,3.9,2.7c2.2,0.7,4.1-0.4,6.1-1.8
							c-0.4-7.3-0.8-16.4-0.5-22.9c0.1,0.3,0.2,0.5,0.3,0.8c-0.1-0.4-0.1-0.6-0.1-0.6c0.1,0,0.5,1,1.1,2.6c0.6,1.6,1.3,3.9,2.1,6.4
							c0.2,0.7,0.4,1.4,0.6,2c0.8,2.7,1.5,5.4,2,7.9c0.8-0.3,1.7-0.6,2.6-0.5c2,0.1,4.1,1.3,6,1.5c-3.2-7.8-6.6-17.5-7.9-24.1
							C468,242,462.9,243.6,457.5,244z M461.6,256.3c-0.2,0-0.2-1.4-0.2-3.2c0-1.7-0.1-3.2,0.1-3.2c0.2,0,0.5,1.4,0.5,3.2
							C462,254.9,461.8,256.3,461.6,256.3z"/>
					</g>
					<g>
						<path class="st17" d="M454.4,244.1c0,0,0.1-0.1,0.1-0.1c-3.5-0.1-6.9-0.8-10.1-2c0.1,0.1,0.2,0.2,0.3,0.4
							c0,0.1,0.1,0.1,0.1,0.2c0.7,0.2,0.9,1.1,0.8,1.9c0,0.4-0.1,0.7-0.2,1.1c0,0.9-0.3,1.9-0.7,2.9c-0.5,1.3-1.2,2.7-1.9,4.1
							c-1.4,2.8-2.9,5.3-4,7.1c-0.7,1-1.2,1.8-1.6,2.3c0.4,0.1,0.8,0.1,1.2,0.3c3.2,1.2,4.9,5.8,8.3,5.5c0.1,0,0.2,0,0.3-0.1
							c2-6.3,4-15,5.9-20.9C453.3,245.8,453.7,244.8,454.4,244.1z"/>
					</g>
					<g>
						<path class="st17" d="M482.5,193.6c0.4-0.3,0.8-0.7,1.2-1c0.4-0.5,0.9-1,1.5-1.5c0.9-0.6,1.9-1.3,3-1.9
							c2.1-1.3,4.1-2.4,5.6-3.1c1-0.5,1.7-0.8,2.1-1c0.7-0.4,1.4-0.8,2-1.2c0,0,0,0,0,0c-2-3.1,0.6-7.9-1.8-10.8
							c-0.1-0.1-0.2-0.2-0.3-0.4c-5.9,4.4-13.6,9.4-20.2,13.3C478.1,188.3,480.5,190.8,482.5,193.6z M483.9,180.9
							c2.3-1.5,4.1-2.7,4.2-2.6c0.1,0.1-1.6,1.6-3.9,3.1c-2.3,1.5-4.4,2.4-4.4,2.3C479.7,183.5,481.6,182.4,483.9,180.9z"/>
					</g>
					<g>
						<path class="st17" d="M487.5,206.5c0.3,1.7,0.4,3.4,0.4,5.2c0,0.3,0,0.6,0,1c0.2,0,0.4,0,0.5,0c1,0,1.9,0.1,2.8,0.2
							c0.2,0,0.4,0,0.7,0c2,0.1,4.7,0.2,7.6,0.4c2.8,0.2,5.3,0.5,7.2,0.7c0.5-2.1,3.1-3.2,3.9-5.3c0.4-1.1,0.2-2.2-0.2-3.3
							c-7,0.4-16.3,1-22.1,1.1C488.1,206.5,487.8,206.5,487.5,206.5z"/>
					</g>
					<g>
						<path class="st17" d="M479.6,166.2c-3.8,4.8-7.7,9.7-11.5,14.5c-0.2,0.3-0.5,0.6-0.9,0.8c2.6,1,5,2.3,7.2,3.9
							c0.1-0.1,0.1-0.1,0.2-0.2c0,0,0,0,0,0c0.1-0.4,0.4-0.8,0.7-1.1c0.5-0.6,1.1-1.3,1.8-2c3.4-4.1,7.3-8.2,10.6-11.7
							c-0.7-0.3-1.3-0.6-1.8-1.1c-1.4-1.4-1.7-3.8-3.4-5c-0.6-0.4-1.2-0.5-1.8-0.6c0,0,0,0.1,0,0.1
							C480.8,164.7,480.2,165.5,479.6,166.2z"/>
					</g>
					<g>
						<path class="st17" d="M486.8,203.1c0.3-0.1,0.6-0.3,0.9-0.4c0.2-0.1,1-0.5,2.2-1c1.4-0.6,3.4-1.3,5.5-2.1
							c2.2-0.8,4.2-1.5,5.6-2c1.4-0.5,2.4-0.7,2.4-0.7c0,0-0.3,0.2-0.8,0.4c1-0.3,2-0.7,2.9-1c0-2.4,0.7-4.9-0.5-6.9
							c-0.3-0.5-0.7-0.9-1.2-1.3c-6.2,2.5-14.7,6.4-20.1,7.6C485,198,486.1,200.5,486.8,203.1z"/>
					</g>
					<g>
						<path class="st17" d="M506.7,214.4C506.7,214.4,506.8,214.4,506.7,214.4c-0.8-0.1-1.6-0.2-2.5-0.2
							C505.1,214.3,505.9,214.3,506.7,214.4z"/>
					</g>
					<g>
						<path class="st17" d="M445.1,180.3c0.1,0.3,0.1,0.5,0.2,0.8c0.1,0,0.1,0,0.2-0.1c-0.2-0.4-0.3-0.9-0.5-1.3
							C445,179.9,445,180.1,445.1,180.3z"/>
					</g>
					<g>
						<path class="st17" d="M493.8,171.7L493.8,171.7C493.8,171.7,493.8,171.7,493.8,171.7z"/>
					</g>
					<g>
						<path d="M474.5,185.4c0-0.1,0-0.2,0.1-0.3C474.5,185.2,474.4,185.3,474.5,185.4C474.4,185.4,474.5,185.4,474.5,185.4z"/>
					</g>
					<g>
						<path class="st17" d="M483,194.5c0-0.3,0.1-0.7,0.2-1.1c0.1-0.3,0.2-0.5,0.4-0.8c-0.4,0.3-0.8,0.6-1.2,1
							C482.6,193.9,482.8,194.2,483,194.5z"/>
					</g>
					<g>
						<path d="M503.9,231.2c0-0.1,0-0.1,0-0.2c-0.3-0.1-0.7-0.3-1.1-0.5C503.2,230.8,503.5,231,503.9,231.2z"/>
					</g>
					<g>
						<path d="M483.9,232.8c-0.9-0.7-1.7-1.3-2.3-1.8c0,0.1-0.1,0.1-0.1,0.2C481.8,231.4,482.7,232,483.9,232.8z"/>
					</g>
					<g>
						<path d="M484.8,254.7c0.1,0.2,0.2,0.3,0.3,0.5c0-0.1,0-0.1,0.1-0.2c-1.3-2.3-2.9-4.9-4.4-7.5
							C482.3,250.3,483.8,252.8,484.8,254.7z"/>
					</g>
					<g>
						<path class="st17" d="M456.8,244c0.4,0.3,0.8,0.7,1.1,1.3c0,0.1,0,0.1,0.1,0.2c0-0.6-0.2-1.1-0.5-1.5
							C457.3,244,457,244,456.8,244z"/>
					</g>
					<g>
						<path class="st17" d="M444.8,242.6c0.3,0.5,0.5,1.3,0.6,2.2c0,0.2,0,0.5,0,0.7c0.1-0.3,0.1-0.7,0.2-1.1
							C445.7,243.7,445.5,242.8,444.8,242.6z"/>
					</g>
					<g>
						<path d="M438.2,238.9c0,0-0.1,0-0.1-0.1c-0.2,0.3-0.7,0.9-1.3,1.7c-0.1,0.1-0.1,0.1-0.2,0.2c0.5-0.6,1-1.1,1.4-1.6
							C438.1,239.1,438.2,239,438.2,238.9z"/>
					</g>
					<g>
						<path d="M424.8,201.9c-0.4,0.2-0.8,0.3-1.2,0.3c-0.3,0-0.6-0.1-0.9-0.1c0.7,0.2,1.3,0.4,2,0.6
							C424.6,202.4,424.7,202.2,424.8,201.9z"/>
					</g>
					<g>
						<path d="M437.4,185c-0.1,0-0.8-0.6-1.8-1.7c-0.3-0.4-0.7-0.8-1.1-1.2c0.9,1.3,1.8,2.4,2.5,3.2
							C437.1,185.2,437.2,185.1,437.4,185z"/>
					</g>
					<g>
						<path d="M447.3,180.4C447.4,180.4,447.4,180.4,447.3,180.4c0.1-0.3,0.1-0.6,0.1-0.9C447.4,180,447.4,180.3,447.3,180.4z"/>
					</g>
					<g>
						<path d="M455.4,179.4c0.1,0,0.1,0,0.2,0c0.1,0,0.2,0,0.3,0c-0.1-1.3-0.1-3.6,0-6.4c-0.1,2-0.3,4-0.4,6
							C455.4,179.1,455.4,179.2,455.4,179.4z"/>
					</g>
					<g>
						<g>
							<path class="st17" d="M465.7,179.8c-0.1,0.4-0.2,0.8-0.2,1.1c0.6,0.2,1.2,0.4,1.8,0.6c0.3-0.2,0.6-0.5,0.9-0.8
								c3.8-4.8,7.7-9.7,11.5-14.5c0.6-0.7,1.1-1.5,1-2.4c0,0,0-0.1,0-0.1c-2.1-0.2-4.5,0.9-6.5,0.2c-0.6-0.2-1-0.3-1.5-0.5
								c-0.6,1.8-1.6,4.5-2.7,7.6c-2,5.3-3.7,9.6-3.9,9.5c-0.2-0.1,1.3-4.4,3.3-9.7c1.2-3.1,2.2-5.8,2.9-7.5c-0.1,0-0.2-0.1-0.3-0.1
								l-0.1,0.1C469.8,168.7,467.8,174.3,465.7,179.8z M471.7,175c1.8-2.2,3.2-4.1,3.3-4c0.1,0.1-1.1,2.1-2.9,4.3
								c-1.8,2.3-3.4,3.9-3.5,3.8C468.5,179.1,470,177.3,471.7,175z"/>
						</g>
						<g>
							<path class="st17" d="M480.1,178.7c1.9-2.1,3.7-3.9,5-5.3c1.3-1.3,2.1-2.1,2.2-2.1s-0.7,1-1.9,2.4c-1.2,1.4-2.9,3.3-4.8,5.4
								c-1.9,2.1-3.7,3.9-5,5.3c-0.5,0.4-0.7,0.9-0.8,1.3c0.2,0.2,0.4,0.3,0.7,0.5c6.7-3.9,14.3-8.9,20.2-13.3
								c-0.5-0.5-1.2-0.9-1.9-1.1l0,0c-1.9-0.7-4.3-0.6-6.2-1.4c-3.2,3.4-7.2,7.6-10.6,11.7C478,181,479,179.9,480.1,178.7z"/>
						</g>
						<g>
							<path class="st17" d="M496.1,185.1c0,0.1-0.8,0.6-2.2,1.4c-1.4,0.8-3.4,1.9-5.5,3.2c-2.1,1.3-4.2,2.3-4.8,3.8
								c-0.2,0.5-0.3,1-0.3,1.4c0.2,0.3,0.3,0.5,0.4,0.8c5.4-1.1,13.9-5.1,20.1-7.6c-1.9-1.5-4.7-2.1-6.1-4.2
								c-0.7,0.4-1.3,0.8-2,1.2C496,185.2,496.1,185.1,496.1,185.1z M492.1,191.9c-1.8,0.8-3.2,1.4-3.3,1.2c-0.1-0.1,1.3-1,3-1.8
								c1.8-0.8,3.3-1.2,3.4-1C495.3,190.5,493.9,191.1,492.1,191.9z"/>
						</g>
						<g>
							<path class="st17" d="M501.2,197.9c-1.4,0.6-3.4,1.3-5.6,2.1c-2.2,0.8-4.2,1.5-5.6,2c-1.4,0.5-2.4,0.7-2.4,0.6c0,0,0,0,0,0
								c-0.3,0.1-0.6,0.3-0.9,0.4c0.3,1.1,0.6,2.2,0.7,3.4c0.3,0,0.6,0,0.9,0c5.8-0.1,15.2-0.7,22.1-1.1c-0.3-0.8-0.8-1.6-1.3-2.2
								c-1.2-1.6-2.8-3-3.3-4.9c-0.2-0.6-0.2-1.2-0.2-1.9c-0.9,0.3-1.9,0.6-2.9,1C502.3,197.5,501.8,197.7,501.2,197.9z"/>
						</g>
						<g>
							<path class="st17" d="M499.6,213.8c-2.9-0.2-5.5-0.4-7.6-0.6c-1.9-0.2-3.1-0.3-3.1-0.4c0-0.1,0.9-0.1,2.5-0.1
								c-0.9-0.1-1.9-0.1-2.8-0.2c-0.2,0-0.4,0-0.5,0c0,0.9-0.1,1.9-0.2,2.8c6,2.2,14.8,5.4,21.7,7.9c0.2-0.5,0.4-0.9,0.4-1.5
								c0.1-2.7-3.2-4.8-3-7.4c-0.8-0.1-1.7-0.1-2.5-0.2C502.8,214.1,501.2,213.9,499.6,213.8z"/>
						</g>
						<g>
							<path class="st17" d="M490.2,224.3c-1.1-0.6-2.1-1.1-3.1-1.6c-0.3-0.1-0.6-0.3-0.9-0.4c-0.4,1.1-0.8,2.2-1.3,3.2
								c5.3,4,12.2,11.1,18,16.2c0.7-0.4,1.4-1,1.8-1.7c1.4-2.5-0.5-5.5-0.8-8.3c-1.8-0.9-4.4-2.3-7.4-3.9
								C494,226.5,491.8,225.3,490.2,224.3z"/>
						</g>
						<g>
							<path class="st17" d="M491,238.5c-2.8-2-5.3-3.8-7.1-5.2c-1.3-1-2.2-1.7-2.6-2c-0.4,0.5-0.9,1.1-1.3,1.6
								c0.4,0.6,0.9,1.2,1.4,1.7c3.9,4.1,10,11.1,14.7,16.2c1.1-1.8,0.8-4.4,2.1-6.1c0.2-0.2,0.4-0.4,0.6-0.6
								c-0.6-0.5-1.2-1-1.8-1.5C495.2,241.4,493.2,240,491,238.5z"/>
						</g>
						<g>
							<path class="st17" d="M480.1,247.6c-0.8-1.4-1.6-2.8-2.3-4c-0.7-1.2-1.3-2.4-2-3.1c-0.7-0.7-1.7-0.7-2.2-0.5
								c-0.5,0.2-0.7,0.5-0.7,0.5c0,0,0-0.4,0.6-0.7c0.5-0.3,1.5-0.4,2.4,0.2c-0.6-0.8-1.2-1.5-1.7-2c-0.6,0.4-1.2,0.8-1.8,1.2
								c1.3,6.6,4.7,16.4,7.9,24.1c0.9,0.1,1.8,0,2.6-0.6c2-1.6,1.2-4.8,1.9-7.2c-0.1-0.2-0.3-0.5-0.5-0.7
								C483.3,253,481.8,250.5,480.1,247.6z"/>
						</g>
						<g>
							<path class="st17" d="M470.9,259c0.4,1.7,0.6,2.7,0.5,2.8c-0.1,0-0.4-1-0.9-2.7c-0.5-1.9-1.2-4.1-1.9-6.5
								c-0.7-2.4-1.4-4.6-1.9-6.5c-0.3-0.9-0.5-1.6-0.6-2.1c-0.1-0.3-0.2-0.5-0.3-0.8c-0.3,6.5,0.1,15.6,0.5,22.9
								c1.8-1.3,3.5-2.9,5.5-3.7c-0.5-2.5-1.2-5.3-2-7.9C470.3,256.2,470.6,257.8,470.9,259z"/>
						</g>
						<g>
							<path class="st17" d="M456.5,261.3c-0.3,2-0.6,3.3-0.6,3.3c-0.1,0,0-1.3,0.2-3.3c0.2-2,0.6-4.9,1-8c0.2-1.5,0.4-3,0.6-4.4
								c0.2-1.3,0.2-2.5-0.1-3.4c-0.3-0.7-0.8-1.2-1.2-1.4c-0.2,0-0.5,0-0.7,0c-0.4,0-0.7,0-1.1,0c0,0-0.1,0.1-0.1,0.1
								c-0.7,0.7-1,1.7-1.3,2.6c-2,5.9-4,14.6-5.9,20.9c2.3-0.5,3.9-3.4,6.3-3.5c1.1-0.1,2.1,0.4,3,1.1c0.2-1.9,0.4-4.1,0.5-6.2
								C456.7,259.8,456.6,260.6,456.5,261.3z"/>
						</g>
						<g>
							<path class="st17" d="M442.3,252.3c0.7-1.4,1.4-2.8,1.9-4c0.5-1.3,0.8-2.4,0.8-3.4c0-1-0.2-1.7-0.5-2.2
								c-0.4,0-0.8,0.4-1.1,0.7c-4.4,4.9-10.6,12.8-15.2,18.9c2.5,0.9,5.9-0.7,8.9-0.3c0.3-0.5,0.8-1.3,1.4-2.5
								C439.5,257.6,440.9,255.1,442.3,252.3z"/>
						</g>
						<g>
							<path class="st17" d="M427.3,250.2c0.8-0.9,2.8-3.1,5.2-5.6c2.6-2.7,4.7-5.1,5.4-5.8c-0.7-0.5-1.5-1-2.2-1.5
								c-0.5,0.5-1.6,1.4-2.8,2.4c-1.9,1.4-3.5,2.5-3.6,2.4c-0.1-0.1,1.3-1.4,3.2-2.8c1-0.7,1.8-1.4,2.5-1.8
								c-1.4,0.5-2.6,1.4-3.8,2.3c-4.5,3.4-9,6.7-13.5,10.1c2.3,0.4,5,0.5,6.5,2.2c0.2,0.3,0.4,0.6,0.6,0.9
								C425.5,252,426.4,251.1,427.3,250.2z"/>
						</g>
						<g>
							<path class="st17" d="M422.2,236.5c2.3-1.5,4.4-2.8,5.8-3.7c0.3-0.3,0.6-0.6,0.7-0.8c0.1-0.3,0.1-0.6,0-0.8
								c-0.2-0.4-0.5-0.5-0.4-0.6c0,0,0.4,0,0.6,0.5c0.1,0.2,0.2,0.6,0.1,1c0,0.1,0,0.1-0.1,0.2c0.4-0.3,0.7-0.6,0.9-1
								c-0.4-0.5-0.7-1-1.1-1.5c-0.5,0-0.9,0.1-1.4,0.2c-6.1,1.6-15.4,5.1-22.6,7.8c2.3,1.7,6.4,0.9,7.9,3.5c0.2,0.3,0.3,0.6,0.4,1
								c2-1.2,4.2-2.6,6.4-3.9C420.3,237.7,421.2,237.1,422.2,236.5z"/>
						</g>
						<g>
							<path class="st17" d="M415.3,225.3c1.4-0.4,2.7-0.7,3.9-1c1.2-0.3,2.3-0.6,3.1-0.9c1.8-0.6,2.4-1.7,2.5-1.6
								c0,0-0.1,0.3-0.4,0.7c-0.2,0.2-0.5,0.5-0.9,0.8c0.2-0.1,0.3-0.1,0.5-0.2c0.4-0.1,0.9-0.3,1.1-0.7c-0.2-0.6-0.4-1.2-0.6-1.8
								c-0.5-0.2-1-0.2-1.5-0.3c-7.5-0.3-15-0.5-22.6-0.7c1,1.8,3.4,2.6,4.3,4.4c0.6,1.1,0.6,2.4,0.3,3.7c1.8-0.4,3.7-0.8,5.7-1.3
								C412.1,226.2,413.7,225.7,415.3,225.3z"/>
						</g>
						<g>
							<path class="st17" d="M403,212c0-0.1,1.1-0.1,2.9,0c1.8,0.1,4.2,0.2,6.9,0.2c2.7,0.1,5.1,0.1,6.9,0.1c1.8,0,2.9,0,2.9,0.1
								c0,0.1-1.1,0.2-2.9,0.3c-1.2,0.1-2.6,0.1-4.3,0.1c2.8,0.1,5.5,0.1,7.7,0c0.1,0,0.1,0,0.2,0c0-0.4,0-0.8,0-1.1
								c0-0.5,0-1.1,0-1.6c-0.1,0-0.1-0.1-0.2-0.1c-6.2-3.7-15.2-6.4-22.6-8.4c0,1.3,0.5,2.6,1.7,2.9l-0.2-1
								c1.8,0.8,2.3,3.3,1.8,5.2c-0.4,1.2-1.1,2.3-1.8,3.4c0.6,0,1.1,0.1,1.7,0.1C403.3,212.1,403,212,403,212z M418.9,210.4
								c2.1,0.4,3.8,0.8,3.7,1c0,0.2-1.7,0-3.8-0.4c-2.1-0.4-3.8-0.8-3.7-1C415.1,209.8,416.8,210,418.9,210.4z"/>
						</g>
						<g>
							<path class="st17" d="M405.7,195.1c0-0.1,1.2,0.4,3,1.3c0.7,0.3,1.5,0.7,2.3,1.1c2.1,0.9,4.3,1.8,6.4,2.6
								c2.3,0.8,4.4,1.4,6,1.6c0.5,0,0.9,0,1.2-0.2c0.1,0,0.1-0.1,0.2-0.1c0.2-0.7,0.5-1.3,0.7-2c-1-0.5-2.6-1.4-4.4-2.4
								c-3-1.7-5.4-3.3-5.4-3.4c0.1-0.1,2.6,1.2,5.7,2.9c0.7,0.4,1.3,0.7,1.8,1.1c-6.1-4.1-11.9-8.1-17.9-11.3
								c-0.4,2.1,0.5,4.9-0.2,7.1c-0.1,0.5-0.4,0.9-0.6,1.3c0.4,0.2,0.9,0.4,1.4,0.6C405.8,195.2,405.7,195.1,405.7,195.1z"/>
						</g>
						<g>
							<path class="st17" d="M416.7,181.9c0.1-0.1,0.8,0.7,2.1,1.9c1.2,1.2,3,2.8,4.9,4.5c2,1.7,3.9,3.1,5.2,4.2
								c0.2,0.1,0.3,0.2,0.5,0.4c0.4-0.5,0.8-1.1,1.2-1.6c0,0,0-0.1-0.1-0.1c-0.6-0.7-1.4-1.7-2.1-2.8c-1.7-2.3-2.8-4.4-2.7-4.5
								c0.1-0.1,0.8,0.8,1.7,2.1c-2.8-4.4-6.1-8.9-9.1-12.4c-1,0.2-1.8,0.6-2.5,1.3c-1.3,1.5-0.8,3.9-1.4,5.8c1.2,1,2.5,2.2,3.9,3.4
								C417.3,182.7,416.7,181.9,416.7,181.9z"/>
						</g>
						<g>
							<path class="st17" d="M432.2,178.3c2.9,3.6,5.2,6.5,5.2,6.6c0.5-0.4,1.1-0.7,1.6-1c0-0.1-0.1-0.1-0.1-0.2
								c-2.1-5.4-6-14-8.6-20.2c-0.4,0.2-0.8,0.4-1.2,0.6c-1.9,1.2-2.5,3.6-3.5,5.6c0.7,0.9,1.4,1.9,2.2,3
								C428.7,173.8,430.3,175.9,432.2,178.3z M435.2,176.7c0.2-0.1,0.9,1.6,1.8,3.7c1,2,1.8,3.7,1.7,3.8c-0.1,0.1-1.2-1.4-2.2-3.5
								C435.5,178.5,435,176.7,435.2,176.7z"/>
						</g>
						<g>
							<path class="st17" d="M442.1,165.6c0.1,0,0.3,1,0.5,2.5c0.3,1.6,0.6,3.7,1.1,6.1c0.4,2.1,0.8,3.9,1.1,5.4
								c0.2,0.5,0.3,0.9,0.5,1.3c0.6-0.2,1.2-0.4,1.9-0.6c-0.2-0.3-0.3-1.8-0.6-3.8c-0.3-2.1-0.6-3.8-0.4-3.8c0.2,0,0.7,1.6,1,3.8
								c0.1,0.8,0.2,1.5,0.2,2.1c0-5.9,0.1-13.4,0.1-19.4c-0.9,0.9-1.6,2.5-3.2,4.7c-0.5,0.8-1.4,1.2-2.3,1.3c0,0.1,0,0.3,0.1,0.4
								C442.1,165.6,442.1,165.6,442.1,165.6z"/>
						</g>
						<g>
							<path class="st17" d="M456.4,171.7c-0.1,3.3-0.2,6.2-0.3,7.6c0.8,0,1.5,0.1,2.3,0.1c1.3-1.8,1.9-4.1,2.5-6.3
								c1-4,2.4-10.4,3.5-15.1c-0.7,0-1.3,0.2-2,0.6c-1.8,1-3.9,5.2-5,5.2c-0.4,0-0.7-0.2-1-0.5c0,0.2,0,0.3,0,0.5
								C456.5,165.2,456.5,168.2,456.4,171.7z"/>
						</g>
					</g>
					<g>
						<path class="st19" d="M490.1,202c1.4-0.5,3.4-1.2,5.6-2c2.2-0.8,4.1-1.6,5.6-2.1c0.6-0.2,1.1-0.4,1.4-0.6
							c0.5-0.2,0.8-0.4,0.8-0.4c0-0.1-0.9,0.2-2.4,0.7c-1.4,0.5-3.4,1.2-5.6,2c-2.2,0.8-4.1,1.6-5.5,2.1c-1.3,0.5-2.1,0.9-2.2,1
							c0,0,0,0,0,0C487.7,202.8,488.6,202.5,490.1,202z"/>
					</g>
					<g>
						<path class="st19" d="M492,212.8c-0.2,0-0.5,0-0.7,0c-1.6,0-2.5,0-2.5,0.1c0,0.1,1.2,0.2,3.1,0.4c2.1,0.2,4.7,0.4,7.6,0.6
							c1.7,0.1,3.2,0.2,4.7,0.3c0.9,0.1,1.7,0.1,2.5,0.2c0-0.1,0-0.2,0-0.3c0,0,0-0.1,0-0.1c-1.9-0.2-4.4-0.5-7.2-0.7
							C496.6,213,493.9,212.9,492,212.8z"/>
					</g>
					<g>
						<path class="st19" d="M496.8,227.3c-5.2-2.8-9.5-5-9.6-4.8c0,0.1,1.1,0.8,3,1.9c1.7,0.9,3.9,2.2,6.3,3.5c3,1.6,5.7,3,7.4,3.9
							c0-0.1,0-0.3,0-0.4c-0.3-0.2-0.7-0.4-1.1-0.6C501.2,229.7,499.1,228.5,496.8,227.3z"/>
					</g>
					<g>
						<path class="st19" d="M491.4,238c-2.8-2-5.4-3.8-7.2-5c-0.1-0.1-0.2-0.1-0.3-0.2c-1.2-0.8-2-1.3-2.5-1.6
							c0-0.1,0.1-0.1,0.1-0.2c1.3-1.7,2.4-3.6,3.3-5.6c0.5-1,0.9-2.1,1.3-3.2c0.8-2.2,1.3-4.5,1.6-6.8c0.1-0.9,0.2-1.8,0.2-2.8
							c0-0.3,0-0.6,0-1c0-1.8-0.1-3.5-0.4-5.2c-0.2-1.2-0.4-2.3-0.7-3.4c-0.7-2.6-1.7-5-3-7.3c-0.1-0.3-0.3-0.5-0.4-0.8
							c0-0.4,0-0.9,0.3-1.4c0.6-1.5,2.7-2.5,4.8-3.8c2.1-1.3,4.1-2.4,5.5-3.2c1.4-0.8,2.3-1.3,2.2-1.4c0,0-0.1,0-0.3,0.1
							c-0.4,0.1-1.1,0.5-2.1,1c-1.5,0.7-3.4,1.8-5.6,3.1c-1.1,0.7-2.1,1.3-3,1.9c-0.6,0.4-1.1,0.9-1.5,1.5c-0.2,0.2-0.3,0.5-0.4,0.8
							c-0.1,0.4-0.2,0.7-0.2,1.1c-0.2-0.3-0.4-0.6-0.5-0.8c-1.9-2.9-4.3-5.4-7-7.5c-0.2-0.2-0.4-0.3-0.7-0.5c0-0.4,0.3-0.9,0.8-1.3
							c1.3-1.3,3.1-3.2,5-5.3c1.9-2.1,3.6-4,4.8-5.4c1.2-1.4,1.9-2.3,1.9-2.4s-0.9,0.7-2.2,2.1c-1.3,1.3-3.1,3.2-5,5.3
							c-1.1,1.2-2.1,2.3-3.1,3.4c-0.7,0.7-1.3,1.4-1.8,2c-0.3,0.4-0.6,0.7-0.7,1.1c0,0,0,0,0,0c0,0.1-0.1,0.2-0.1,0.3
							c0,0-0.1,0-0.1-0.1c-2.2-1.6-4.6-2.9-7.2-3.9c-0.6-0.2-1.2-0.4-1.8-0.6c-2.2-0.7-4.6-1.2-7-1.4c-0.8-0.1-1.5-0.1-2.3-0.1
							c0.1-1.5,0.2-4.3,0.3-7.6c0.1-3.5,0-6.5,0-7.9c0-0.2,0-0.4,0-0.6c0,0-0.1-0.1-0.1-0.1c-0.2,0.7-0.3,4.3-0.4,8.6
							c0,0.4,0,0.8,0,1.2c0,2.8,0,5.1,0,6.4c-0.1,0-0.2,0-0.3,0c-0.1,0-0.1,0-0.2,0c-2.8,0-5.4,0.4-8,1c0,0-0.1,0-0.1,0
							c0-0.1,0.1-0.5,0.1-0.9c0-0.2,0-0.5,0-0.8c0-0.6-0.1-1.3-0.2-2.1c-0.3-2.1-0.8-3.8-1-3.8c-0.2,0,0.1,1.7,0.4,3.8
							c0.3,1.9,0.4,3.5,0.6,3.8c-0.6,0.2-1.2,0.4-1.9,0.6c-0.1,0-0.1,0-0.2,0.1c0-0.2-0.1-0.5-0.2-0.8c0-0.2-0.1-0.4-0.1-0.7
							c-0.3-1.5-0.7-3.4-1.1-5.4c-0.5-2.4-0.8-4.5-1.1-6.1c-0.3-1.6-0.5-2.5-0.5-2.5c0,0,0,0,0,0.1c0,0.3,0,1.2,0.2,2.5
							c0.2,1.6,0.5,3.8,0.9,6.2c0.5,2.4,1,4.5,1.4,6.1c0.1,0.3,0.2,0.5,0.2,0.8c-2.1,0.7-4,1.7-5.9,2.8c-0.5,0.3-1.1,0.7-1.6,1
							c0.1-0.2-2.3-3.1-5.2-6.6c-1.9-2.4-3.5-4.5-4.5-5.6c-0.5-0.6-0.8-0.9-0.8-0.9c-0.1,0,0.4,0.9,1.3,2.1c0.9,1.3,2.1,3,3.6,4.8
							c1,1.2,1.9,2.4,2.8,3.3c0.4,0.4,0.8,0.9,1.1,1.2c1,1.1,1.7,1.7,1.8,1.7c-0.1,0.1-0.3,0.2-0.4,0.3c-2.2,1.6-4.3,3.4-6,5.5
							c-0.5-0.8-1.2-1.8-2-2.9c-0.5-0.7-1-1.4-1.5-2c-1-1.3-1.6-2.2-1.7-2.1c-0.1,0.1,1,2.1,2.7,4.5c0.8,1.1,1.5,2.1,2.1,2.8
							c0,0,0.1,0.1,0.1,0.1c0,0,0,0,0,0c-0.4,0.5-0.8,1.1-1.2,1.6c-0.1-0.1-0.3-0.2-0.5-0.4c-1.4-1-3.2-2.5-5.2-4.2
							c-2-1.7-3.7-3.3-4.9-4.5c-1.2-1.2-2-1.9-2.1-1.9c-0.1,0.1,0.6,0.9,1.7,2.1c0,0,0,0.1,0.1,0.1c1.2,1.3,2.9,2.9,4.9,4.6
							c2,1.7,3.9,3.1,5.4,4c0.2,0.1,0.3,0.2,0.5,0.3c-1.3,1.9-2.5,3.9-3.4,6.1c-0.6-0.4-1.4-0.9-2.4-1.5c-0.6-0.3-1.2-0.7-1.8-1.1
							c-3-1.7-5.6-3.1-5.7-2.9c-0.1,0.1,2.3,1.7,5.4,3.4c1.8,1,3.4,1.9,4.4,2.4c-0.3,0.7-0.5,1.3-0.7,2c-0.1,0-0.1,0.1-0.2,0.1
							c-0.3,0.2-0.7,0.2-1.2,0.2c-1.6-0.2-3.7-0.8-6-1.6c-0.5-0.2-1-0.4-1.5-0.5c-1.8-0.7-3.5-1.4-4.9-2.1c-0.9-0.4-1.7-0.8-2.3-1.1
							c-1.8-0.9-3-1.4-3-1.3c0,0,0.1,0.1,0.3,0.2c0.4,0.3,1.3,0.8,2.6,1.5c1.8,1,4.3,2.2,7.2,3.4c2.5,1,4.9,1.6,6.8,1.9
							c0.3,0,0.7,0.1,0.9,0.1c0.5,0,0.9-0.1,1.2-0.3c-0.1,0.3-0.2,0.5-0.2,0.8c-0.7,2.4-1.1,4.8-1.2,7.4c0,0.5,0,1.1,0,1.6
							c0,0.4,0,0.8,0,1.1c0.1,2.7,0.5,5.3,1.2,7.8c0.2,0.6,0.4,1.2,0.6,1.8c0.9,2.6,2.1,5.1,3.7,7.3c0.3,0.5,0.7,1,1.1,1.5
							c1.7,2.2,3.6,4.1,5.7,5.8c-0.1,0.1-0.3,0.2-0.5,0.3c-0.6,0.4-1.5,1.1-2.5,1.8c-1.9,1.4-3.3,2.7-3.2,2.8
							c0.1,0.1,1.7-0.9,3.6-2.4c1.3-1,2.3-1.9,2.8-2.4c0.7,0.5,1.4,1.1,2.2,1.5c-0.7,0.7-2.9,3-5.4,5.8c-2.4,2.5-4.4,4.7-5.2,5.6
							c-0.3,0.3-0.4,0.5-0.4,0.5c0.1,0.1,0.8-0.5,1.9-1.6c1.1-1,2.6-2.5,4.1-4.2c1.5-1.6,2.7-3,3.7-4.2c0.1-0.1,0.1-0.2,0.2-0.2
							c0.6-0.8,1.1-1.4,1.3-1.7c0,0,0.1,0,0.1,0.1c1.9,1.2,3.8,2.2,5.9,3c0.1,0.1,0.2,0.4,0.3,0.7c0.2,0.5,0.5,1.2,0.5,2.2
							c0,1-0.3,2.2-0.8,3.4c-0.5,1.2-1.2,2.6-1.9,4c-1.4,2.8-2.8,5.3-3.8,7.1c-0.6,1.1-1.1,2-1.4,2.5c0.1,0,0.1,0,0.2,0
							c0.3-0.5,0.9-1.2,1.6-2.3c1.1-1.8,2.6-4.2,4-7.1c0.7-1.4,1.4-2.8,1.9-4.1c0.4-1,0.6-2,0.7-2.9c0-0.2,0-0.5,0-0.7
							c-0.1-0.9-0.3-1.7-0.6-2.2c0-0.1-0.1-0.2-0.1-0.2c-0.1-0.2-0.2-0.3-0.3-0.4c3.2,1.2,6.5,1.8,10.1,2c0.4,0,0.7,0,1.1,0
							c0.2,0,0.5,0,0.7,0c0.4,0.3,0.9,0.7,1.2,1.4c0.4,0.9,0.3,2.1,0.1,3.4c-0.2,1.4-0.4,2.8-0.6,4.4c-0.4,3.1-0.8,5.9-1,8
							c-0.2,2-0.3,3.3-0.2,3.3c0.1,0,0.3-1.2,0.6-3.3c0.1-0.7,0.2-1.5,0.4-2.3c0.2-1.7,0.5-3.6,0.8-5.6c0.2-1.5,0.4-3,0.6-4.4
							c0.2-1.3,0.2-2.5-0.2-3.5c0-0.1,0-0.1-0.1-0.2c-0.3-0.6-0.7-1-1.1-1.3c0.2,0,0.4,0,0.7,0c5.5-0.3,10.5-2,14.9-4.6
							c0.6-0.4,1.2-0.8,1.8-1.2c2.1-1.5,4.1-3.3,5.8-5.2c0.4-0.5,0.9-1,1.3-1.6c0.4,0.4,1.3,1.1,2.6,2c1.8,1.3,4.3,3.2,7.1,5.2
							c2.2,1.5,4.2,3,5.9,4.1c0.5,0.3,0.9,0.6,1.4,0.9c0.2,0.1,0.4,0.3,0.6,0.4c0.1-0.1,0.2-0.2,0.3-0.2c-0.2-0.2-0.4-0.3-0.7-0.5
							C496.7,241.8,494.2,240,491.4,238z M455.6,240c-15.7,0-28.3-12.7-28.3-28.3s12.7-28.3,28.3-28.3S484,196,484,211.7
							S471.3,240,455.6,240z"/>
					</g>
					<g>
						<path class="st19" d="M487.4,246.4c0.1-0.1-1.3-1.8-2.8-4.1c-1.5-2.2-2.7-4.1-2.8-4.1c-0.1,0.1,0.8,2.1,2.3,4.4
							C485.7,244.9,487.3,246.5,487.4,246.4z"/>
					</g>
					<g>
						<path class="st19" d="M480.7,247.5c0,0-0.1-0.1-0.1-0.1c-0.8-1.4-1.6-2.8-2.3-4c-0.7-1.2-1.3-2.4-2.2-3.1
							c-0.1-0.1-0.1-0.1-0.2-0.1c-0.9-0.6-1.9-0.5-2.4-0.2c-0.6,0.3-0.7,0.7-0.6,0.7c0,0,0.2-0.3,0.7-0.5c0.5-0.2,1.4-0.2,2.2,0.5
							c0.8,0.7,1.3,1.9,2,3.1c0.7,1.3,1.5,2.6,2.3,4c1.6,2.8,3.2,5.4,4.3,7.2c0.2,0.3,0.3,0.5,0.5,0.7c0-0.2,0.1-0.3,0.2-0.5
							c-0.1-0.2-0.2-0.3-0.3-0.5C483.8,252.8,482.3,250.3,480.7,247.5z"/>
					</g>
					<g>
						<path class="st19" d="M468.6,252.6c0.7,2.4,1.3,4.6,1.9,6.5c0.5,1.7,0.8,2.7,0.9,2.7c0.1,0-0.1-1.1-0.5-2.8
							c-0.3-1.2-0.7-2.8-1.1-4.5c-0.2-0.7-0.4-1.3-0.6-2c-0.7-2.5-1.5-4.8-2.1-6.4c-0.6-1.6-1-2.6-1.1-2.6c0,0,0,0.2,0.1,0.6
							c0.1,0.5,0.3,1.2,0.6,2.1C467.3,248,467.9,250.2,468.6,252.6z"/>
					</g>
					<g>
						<path class="st19" d="M461.4,249.9c-0.2,0-0.1,1.4-0.1,3.2c0.1,1.7,0.1,3.2,0.2,3.2c0.2,0,0.4-1.4,0.3-3.2
							C461.9,251.3,461.6,249.9,461.4,249.9z"/>
					</g>
					<g>
						<path class="st19" d="M428.9,231c-0.3-0.5-0.7-0.5-0.6-0.5c0,0,0.3,0.1,0.4,0.6c0.1,0.2,0.1,0.5,0,0.8
							c-0.1,0.3-0.3,0.6-0.7,0.8c-1.4,1-3.6,2.2-5.8,3.7c-1,0.6-1.9,1.2-2.8,1.8c-1.1,0.8-2.2,1.5-3,2c-1.5,1-2.3,1.7-2.3,1.7
							c0,0.1,1-0.5,2.5-1.4c1.5-0.9,3.6-2.2,5.9-3.7c2.3-1.5,4.3-2.8,5.8-3.9c0.3-0.3,0.5-0.6,0.6-0.9c0-0.1,0.1-0.1,0.1-0.2
							C429.1,231.6,429.1,231.2,428.9,231z"/>
					</g>
					<g>
						<path class="st19" d="M424.4,222.5c0.4-0.4,0.4-0.7,0.4-0.7c-0.1-0.1-0.7,1-2.5,1.6c-0.9,0.3-1.9,0.6-3.1,0.9
							c-1.2,0.3-2.5,0.7-3.9,1c-1.7,0.4-3.2,0.9-4.6,1.3c-0.9,0.3-1.8,0.5-2.5,0.7c-1.8,0.5-2.9,0.9-2.9,1c0,0.1,1.2-0.2,3-0.6
							c1.8-0.4,4.3-1.1,7.1-1.8c1.4-0.4,2.7-0.7,3.9-1.1c1.2-0.3,2.3-0.6,3.2-1c0.4-0.2,0.7-0.3,1-0.5
							C423.9,223,424.2,222.7,424.4,222.5z"/>
					</g>
					<g>
						<path class="st19" d="M422.5,212.4c0-0.1-1.1-0.1-2.9-0.1c-1.8,0-4.2,0-6.9-0.1c-2.7-0.1-5.1-0.2-6.9-0.2
							c-1.8-0.1-2.9-0.1-2.9,0c0,0,0.3,0.1,0.9,0.2c0.5,0.1,1.1,0.1,1.9,0.2c1.8,0.2,4.2,0.3,6.9,0.4c0.9,0,1.8,0,2.7,0
							c1.6,0,3.1,0,4.3-0.1C421.4,212.6,422.5,212.5,422.5,212.4z"/>
					</g>
					<g>
						<path class="st19" d="M418.8,210.9c2.1,0.4,3.8,0.5,3.8,0.4c0-0.2-1.7-0.6-3.7-1c-2.1-0.4-3.8-0.5-3.8-0.4
							C415,210.1,416.7,210.6,418.8,210.9z"/>
					</g>
					<g>
						<path class="st19" d="M438.6,184.1c0.1-0.1-0.7-1.7-1.7-3.8c-1-2-1.7-3.7-1.8-3.7c-0.2,0.1,0.3,1.9,1.3,3.9
							C437.4,182.7,438.5,184.2,438.6,184.1z"/>
					</g>
					<g>
						<path class="st19" d="M466,180.5c0.2,0.1,1.9-4.2,3.9-9.5c1.1-3.1,2.1-5.8,2.7-7.6c-0.1,0-0.2-0.1-0.3-0.2
							c-0.7,1.7-1.8,4.5-2.9,7.5C467.3,176.1,465.8,180.5,466,180.5z"/>
					</g>
					<g>
						<path class="st19" d="M472.2,175.4c1.8-2.3,3-4.2,2.9-4.3c-0.1-0.1-1.6,1.7-3.3,4c-1.8,2.2-3.2,4.1-3.1,4.2
							C468.8,179.3,470.4,177.6,472.2,175.4z"/>
					</g>
					<g>
						<path class="st19" d="M484.2,181.4c2.3-1.5,4-3,3.9-3.1c-0.1-0.1-1.9,1.1-4.2,2.6c-2.3,1.5-4.2,2.6-4.1,2.8
							C479.8,183.8,481.9,182.9,484.2,181.4z"/>
					</g>
					<g>
						<path class="st19" d="M491.9,191.4c-1.8,0.8-3.1,1.6-3,1.8c0.1,0.1,1.5-0.5,3.3-1.2c1.8-0.8,3.2-1.4,3.1-1.6
							C495.2,190.2,493.6,190.6,491.9,191.4z"/>
					</g>
					<g>
						<circle class="st20" cx="455.6" cy="211.7" r="28.3"/>
					</g>
				</g>
				<g>
					<g>
						<path class="st19" d="M469,270.7c0,0,0.1,0.2,0.1,0.7c0.1,0.5,0.2,1.2,0.3,2c0.2,1.8,0.5,4.3,0.9,7.3c0.8,6.2,1.9,14.7,3.2,24
							c1.4,9.4,2.7,17.8,3.8,23.9c0.5,3,0.9,5.5,1.2,7.2c0.1,0.8,0.2,1.5,0.3,2c0.1,0.5,0.1,0.7,0.1,0.7c0,0-0.1-0.2-0.2-0.7
							c-0.1-0.5-0.3-1.2-0.4-2c-0.4-1.7-0.8-4.2-1.4-7.2c-1.1-6.1-2.6-14.6-3.9-23.9c-1.4-9.4-2.4-17.9-3.1-24.1
							c-0.3-3.1-0.6-5.6-0.7-7.3c-0.1-0.8-0.1-1.5-0.2-2C469,271,469,270.7,469,270.7z"/>
					</g>
				</g>
				<g>
					<g>
						<path class="st19" d="M452.5,264.8c0.2,0,1.5,23.1,3,51.7c1.5,28.6,2.6,51.7,2.4,51.7s-1.5-23.1-3-51.7
							C453.5,287.9,452.4,264.8,452.5,264.8z"/>
					</g>
				</g>
				<g>
					<g>
						<path class="st19" d="M443.5,269.8c0,0,0,0.2-0.1,0.7c-0.1,0.5-0.2,1.2-0.4,1.9c-0.4,1.8-0.8,4.2-1.4,7.1
							c-1.3,6.1-3,14.3-4.9,23.5c-2,9.1-3.8,17.4-5.1,23.4c-0.7,2.9-1.2,5.3-1.6,7.1c-0.2,0.8-0.3,1.4-0.5,1.9
							c-0.1,0.4-0.2,0.7-0.2,0.7c0,0,0-0.2,0.1-0.7c0.1-0.5,0.2-1.2,0.4-1.9c0.4-1.8,0.8-4.2,1.4-7.1c1.3-6.1,3-14.3,4.9-23.5
							c2-9.1,3.8-17.4,5.1-23.4c0.7-2.9,1.2-5.3,1.6-7.1c0.2-0.8,0.3-1.4,0.5-1.9C443.4,270,443.5,269.8,443.5,269.8z"/>
					</g>
				</g>
				<g>
					<path class="st17" d="M457.8,195.8l4,8.1c0.2,0.4,0.6,0.7,1,0.7l8.9,1.3c1.1,0.2,1.6,1.5,0.8,2.3l-6.4,6.3
						c-0.3,0.3-0.5,0.8-0.4,1.2l1.5,8.9c0.2,1.1-1,2-2,1.4l-8-4.2c-0.4-0.2-0.9-0.2-1.3,0l-8,4.2c-1,0.5-2.2-0.3-2-1.4l1.5-8.9
						c0.1-0.4-0.1-0.9-0.4-1.2l-6.4-6.3c-0.8-0.8-0.4-2.2,0.8-2.3l8.9-1.3c0.4-0.1,0.8-0.3,1-0.7l4-8.1
						C455.9,194.7,457.3,194.7,457.8,195.8z"/>
				</g>
				<g>
					<path class="st17" d="M467.4,193.2l0.5,1.5c0.2,0.7,0.8,1.2,1.4,1.4l1.5,0.5l-1.6,0.5c-0.6,0.2-1.1,0.7-1.4,1.4l-0.5,1.6
						l-0.6-1.7c-0.2-0.6-0.7-1.1-1.4-1.3l-1.5-0.5l1.5-0.5c0.6-0.2,1.1-0.7,1.3-1.3L467.4,193.2z"/>
				</g>
				<g class="st21">
					<g>
						<path d="M465.7,179.8c-0.1,0.4-0.2,0.8-0.2,1.1c0.6,0.2,1.2,0.4,1.8,0.6c0.3-0.2,0.6-0.5,0.9-0.8c3.8-4.8,7.7-9.7,11.5-14.5
							c0.6-0.7,1.1-1.5,1-2.4c0,0,0-0.1,0-0.1c-2.1-0.2-4.5,0.9-6.5,0.2c-0.6-0.2-1-0.3-1.5-0.5c-0.6,1.8-1.6,4.5-2.7,7.6
							c-2,5.3-3.7,9.6-3.9,9.5c-0.2-0.1,1.3-4.4,3.3-9.7c1.2-3.1,2.2-5.8,2.9-7.5c-0.1,0-0.2-0.1-0.3-0.1l-0.1,0.1
							C469.8,168.7,467.8,174.3,465.7,179.8z M471.7,175c1.8-2.2,3.2-4.1,3.3-4c0.1,0.1-1.1,2.1-2.9,4.3c-1.8,2.3-3.4,3.9-3.5,3.8
							C468.5,179.1,470,177.3,471.7,175z"/>
					</g>
					<g>
						<path d="M480.1,178.7c1.9-2.1,3.7-3.9,5-5.3c1.3-1.3,2.1-2.1,2.2-2.1s-0.7,1-1.9,2.4c-1.2,1.4-2.9,3.3-4.8,5.4
							c-1.9,2.1-3.7,3.9-5,5.3c-0.5,0.4-0.7,0.9-0.8,1.3c0.2,0.2,0.4,0.3,0.7,0.5c6.7-3.9,14.3-8.9,20.2-13.3
							c-0.5-0.5-1.2-0.9-1.9-1.1l0,0c-1.9-0.7-4.3-0.6-6.2-1.4c-3.2,3.4-7.2,7.6-10.6,11.7C478,181,479,179.9,480.1,178.7z"/>
					</g>
					<g>
						<path d="M496.1,185.1c0,0.1-0.8,0.6-2.2,1.4c-1.4,0.8-3.4,1.9-5.5,3.2c-2.1,1.3-4.2,2.3-4.8,3.8c-0.2,0.5-0.3,1-0.3,1.4
							c0.2,0.3,0.3,0.5,0.4,0.8c5.4-1.1,13.9-5.1,20.1-7.6c-1.9-1.5-4.7-2.1-6.1-4.2c-0.7,0.4-1.3,0.8-2,1.2
							C496,185.2,496.1,185.1,496.1,185.1z M492.1,191.9c-1.8,0.8-3.2,1.4-3.3,1.2c-0.1-0.1,1.3-1,3-1.8c1.8-0.8,3.3-1.2,3.4-1
							C495.3,190.5,493.9,191.1,492.1,191.9z"/>
					</g>
					<g>
						<path d="M501.2,197.9c-1.4,0.6-3.4,1.3-5.6,2.1c-2.2,0.8-4.2,1.5-5.6,2c-1.4,0.5-2.4,0.7-2.4,0.6c0,0,0,0,0,0
							c-0.3,0.1-0.6,0.3-0.9,0.4c0.3,1.1,0.6,2.2,0.7,3.4c0.3,0,0.6,0,0.9,0c5.8-0.1,15.2-0.7,22.1-1.1c-0.3-0.8-0.8-1.6-1.3-2.2
							c-1.2-1.6-2.8-3-3.3-4.9c-0.2-0.6-0.2-1.2-0.2-1.9c-0.9,0.3-1.9,0.6-2.9,1C502.3,197.5,501.8,197.7,501.2,197.9z"/>
					</g>
					<g>
						<path d="M499.6,213.8c-2.9-0.2-5.5-0.4-7.6-0.6c-1.9-0.2-3.1-0.3-3.1-0.4c0-0.1,0.9-0.1,2.5-0.1c-0.9-0.1-1.9-0.1-2.8-0.2
							c-0.2,0-0.4,0-0.5,0c0,0.9-0.1,1.9-0.2,2.8c6,2.2,14.8,5.4,21.7,7.9c0.2-0.5,0.4-0.9,0.4-1.5c0.1-2.7-3.2-4.8-3-7.4
							c-0.8-0.1-1.7-0.1-2.5-0.2C502.8,214.1,501.2,213.9,499.6,213.8z"/>
					</g>
					<g>
						<path d="M490.2,224.3c-1.1-0.6-2.1-1.1-3.1-1.6c-0.3-0.1-0.6-0.3-0.9-0.4c-0.4,1.1-0.8,2.2-1.3,3.2c5.3,4,12.2,11.1,18,16.2
							c0.7-0.4,1.4-1,1.8-1.7c1.4-2.5-0.5-5.5-0.8-8.3c-1.8-0.9-4.4-2.3-7.4-3.9C494,226.5,491.8,225.3,490.2,224.3z"/>
					</g>
					<g>
						<path d="M491,238.5c-2.8-2-5.3-3.8-7.1-5.2c-1.3-1-2.2-1.7-2.6-2c-0.4,0.5-0.9,1.1-1.3,1.6c0.4,0.6,0.9,1.2,1.4,1.7
							c3.9,4.1,10,11.1,14.7,16.2c1.1-1.8,0.8-4.4,2.1-6.1c0.2-0.2,0.4-0.4,0.6-0.6c-0.6-0.5-1.2-1-1.8-1.5
							C495.2,241.4,493.2,240,491,238.5z"/>
					</g>
					<g>
						<path d="M480.1,247.6c-0.8-1.4-1.6-2.8-2.3-4c-0.7-1.2-1.3-2.4-2-3.1c-0.7-0.7-1.7-0.7-2.2-0.5c-0.5,0.2-0.7,0.5-0.7,0.5
							c0,0,0-0.4,0.6-0.7c0.5-0.3,1.5-0.4,2.4,0.2c-0.6-0.8-1.2-1.5-1.7-2c-0.6,0.4-1.2,0.8-1.8,1.2c1.3,6.6,4.7,16.4,7.9,24.1
							c0.9,0.1,1.8,0,2.6-0.6c2-1.6,1.2-4.8,1.9-7.2c-0.1-0.2-0.3-0.5-0.5-0.7C483.3,253,481.8,250.5,480.1,247.6z"/>
					</g>
					<g>
						<path d="M470.9,259c0.4,1.7,0.6,2.7,0.5,2.8c-0.1,0-0.4-1-0.9-2.7c-0.5-1.9-1.2-4.1-1.9-6.5c-0.7-2.4-1.4-4.6-1.9-6.5
							c-0.3-0.9-0.5-1.6-0.6-2.1c-0.1-0.3-0.2-0.5-0.3-0.8c-0.3,6.5,0.1,15.6,0.5,22.9c1.8-1.3,3.5-2.9,5.5-3.7
							c-0.5-2.5-1.2-5.3-2-7.9C470.3,256.2,470.6,257.8,470.9,259z"/>
					</g>
					<g>
						<path d="M456.5,261.3c-0.3,2-0.6,3.3-0.6,3.3c-0.1,0,0-1.3,0.2-3.3c0.2-2,0.6-4.9,1-8c0.2-1.5,0.4-3,0.6-4.4
							c0.2-1.3,0.2-2.5-0.1-3.4c-0.3-0.7-0.8-1.2-1.2-1.4c-0.2,0-0.5,0-0.7,0c-0.4,0-0.7,0-1.1,0c0,0-0.1,0.1-0.1,0.1
							c-0.7,0.7-1,1.7-1.3,2.6c-2,5.9-4,14.6-5.9,20.9c2.3-0.5,3.9-3.4,6.3-3.5c1.1-0.1,2.1,0.4,3,1.1c0.2-1.9,0.4-4.1,0.5-6.2
							C456.7,259.8,456.6,260.6,456.5,261.3z"/>
					</g>
					<g>
						<path d="M442.3,252.3c0.7-1.4,1.4-2.8,1.9-4c0.5-1.3,0.8-2.4,0.8-3.4c0-1-0.2-1.7-0.5-2.2c-0.4,0-0.8,0.4-1.1,0.7
							c-4.4,4.9-10.6,12.8-15.2,18.9c2.5,0.9,5.9-0.7,8.9-0.3c0.3-0.5,0.8-1.3,1.4-2.5C439.5,257.6,440.9,255.1,442.3,252.3z"/>
					</g>
					<g>
						<path d="M427.3,250.2c0.8-0.9,2.8-3.1,5.2-5.6c2.6-2.7,4.7-5.1,5.4-5.8c-0.7-0.5-1.5-1-2.2-1.5c-0.5,0.5-1.6,1.4-2.8,2.4
							c-1.9,1.4-3.5,2.5-3.6,2.4c-0.1-0.1,1.3-1.4,3.2-2.8c1-0.7,1.8-1.4,2.5-1.8c-1.4,0.5-2.6,1.4-3.8,2.3
							c-4.5,3.4-9,6.7-13.5,10.1c2.3,0.4,5,0.5,6.5,2.2c0.2,0.3,0.4,0.6,0.6,0.9C425.5,252,426.4,251.1,427.3,250.2z"/>
					</g>
					<g>
						<path d="M422.2,236.5c2.3-1.5,4.4-2.8,5.8-3.7c0.3-0.3,0.6-0.6,0.7-0.8c0.1-0.3,0.1-0.6,0-0.8c-0.2-0.4-0.5-0.5-0.4-0.6
							c0,0,0.4,0,0.6,0.5c0.1,0.2,0.2,0.6,0.1,1c0,0.1,0,0.1-0.1,0.2c0.4-0.3,0.7-0.6,0.9-1c-0.4-0.5-0.7-1-1.1-1.5
							c-0.5,0-0.9,0.1-1.4,0.2c-6.1,1.6-15.4,5.1-22.6,7.8c2.3,1.7,6.4,0.9,7.9,3.5c0.2,0.3,0.3,0.6,0.4,1c2-1.2,4.2-2.6,6.4-3.9
							C420.3,237.7,421.2,237.1,422.2,236.5z"/>
					</g>
					<g>
						<path d="M415.3,225.3c1.4-0.4,2.7-0.7,3.9-1c1.2-0.3,2.3-0.6,3.1-0.9c1.8-0.6,2.4-1.7,2.5-1.6c0,0-0.1,0.3-0.4,0.7
							c-0.2,0.2-0.5,0.5-0.9,0.8c0.2-0.1,0.3-0.1,0.5-0.2c0.4-0.1,0.9-0.3,1.1-0.7c-0.2-0.6-0.4-1.2-0.6-1.8c-0.5-0.2-1-0.2-1.5-0.3
							c-7.5-0.3-15-0.5-22.6-0.7c1,1.8,3.4,2.6,4.3,4.4c0.6,1.1,0.6,2.4,0.3,3.7c1.8-0.4,3.7-0.8,5.7-1.3
							C412.1,226.2,413.7,225.7,415.3,225.3z"/>
					</g>
					<g>
						<path d="M403,212c0-0.1,1.1-0.1,2.9,0c1.8,0.1,4.2,0.2,6.9,0.2c2.7,0.1,5.1,0.1,6.9,0.1c1.8,0,2.9,0,2.9,0.1
							c0,0.1-1.1,0.2-2.9,0.3c-1.2,0.1-2.6,0.1-4.3,0.1c2.8,0.1,5.5,0.1,7.7,0c0.1,0,0.1,0,0.2,0c0-0.4,0-0.8,0-1.1
							c0-0.5,0-1.1,0-1.6c-0.1,0-0.1-0.1-0.2-0.1c-6.2-3.7-15.2-6.4-22.6-8.4c0,1.3,0.5,2.6,1.7,2.9l-0.2-1c1.8,0.8,2.3,3.3,1.8,5.2
							c-0.4,1.2-1.1,2.3-1.8,3.4c0.6,0,1.1,0.1,1.7,0.1C403.3,212.1,403,212,403,212z M418.9,210.4c2.1,0.4,3.8,0.8,3.7,1
							c0,0.2-1.7,0-3.8-0.4c-2.1-0.4-3.8-0.8-3.7-1C415.1,209.8,416.8,210,418.9,210.4z"/>
					</g>
					<g>
						<path d="M405.7,195.1c0-0.1,1.2,0.4,3,1.3c0.7,0.3,1.5,0.7,2.3,1.1c2.1,0.9,4.3,1.8,6.4,2.6c2.3,0.8,4.4,1.4,6,1.6
							c0.5,0,0.9,0,1.2-0.2c0.1,0,0.1-0.1,0.2-0.1c0.2-0.7,0.5-1.3,0.7-2c-1-0.5-2.6-1.4-4.4-2.4c-3-1.7-5.4-3.3-5.4-3.4
							c0.1-0.1,2.6,1.2,5.7,2.9c0.7,0.4,1.3,0.7,1.8,1.1c-6.1-4.1-11.9-8.1-17.9-11.3c-0.4,2.1,0.5,4.9-0.2,7.1
							c-0.1,0.5-0.4,0.9-0.6,1.3c0.4,0.2,0.9,0.4,1.4,0.6C405.8,195.2,405.7,195.1,405.7,195.1z"/>
					</g>
					<g>
						<path d="M416.7,181.9c0.1-0.1,0.8,0.7,2.1,1.9c1.2,1.2,3,2.8,4.9,4.5c2,1.7,3.9,3.1,5.2,4.2c0.2,0.1,0.3,0.2,0.5,0.4
							c0.4-0.5,0.8-1.1,1.2-1.6c0,0,0-0.1-0.1-0.1c-0.6-0.7-1.4-1.7-2.1-2.8c-1.7-2.3-2.8-4.4-2.7-4.5c0.1-0.1,0.8,0.8,1.7,2.1
							c-2.8-4.4-6.1-8.9-9.1-12.4c-1,0.2-1.8,0.6-2.5,1.3c-1.3,1.5-0.8,3.9-1.4,5.8c1.2,1,2.5,2.2,3.9,3.4
							C417.3,182.7,416.7,181.9,416.7,181.9z"/>
					</g>
					<g>
						<path d="M432.2,178.3c2.9,3.6,5.2,6.5,5.2,6.6c0.5-0.4,1.1-0.7,1.6-1c0-0.1-0.1-0.1-0.1-0.2c-2.1-5.4-6-14-8.6-20.2
							c-0.4,0.2-0.8,0.4-1.2,0.6c-1.9,1.2-2.5,3.6-3.5,5.6c0.7,0.9,1.4,1.9,2.2,3C428.7,173.8,430.3,175.9,432.2,178.3z
							 M435.2,176.7c0.2-0.1,0.9,1.6,1.8,3.7c1,2,1.8,3.7,1.7,3.8c-0.1,0.1-1.2-1.4-2.2-3.5C435.5,178.5,435,176.7,435.2,176.7z"/>
					</g>
					<g>
						<path d="M442.1,165.6c0.1,0,0.3,1,0.5,2.5c0.3,1.6,0.6,3.7,1.1,6.1c0.4,2.1,0.8,3.9,1.1,5.4c0.2,0.5,0.3,0.9,0.5,1.3
							c0.6-0.2,1.2-0.4,1.9-0.6c-0.2-0.3-0.3-1.8-0.6-3.8c-0.3-2.1-0.6-3.8-0.4-3.8c0.2,0,0.7,1.6,1,3.8c0.1,0.8,0.2,1.5,0.2,2.1
							c0-5.9,0.1-13.4,0.1-19.4c-0.9,0.9-1.6,2.5-3.2,4.7c-0.5,0.8-1.4,1.2-2.3,1.3c0,0.1,0,0.3,0.1,0.4
							C442.1,165.6,442.1,165.6,442.1,165.6z"/>
					</g>
					<g>
						<path d="M456.4,171.7c-0.1,3.3-0.2,6.2-0.3,7.6c0.8,0,1.5,0.1,2.3,0.1c1.3-1.8,1.9-4.1,2.5-6.3c1-4,2.4-10.4,3.5-15.1
							c-0.7,0-1.3,0.2-2,0.6c-1.8,1-3.9,5.2-5,5.2c-0.4,0-0.7-0.2-1-0.5c0,0.2,0,0.3,0,0.5C456.5,165.2,456.5,168.2,456.4,171.7z"/>
					</g>
				</g>
			</g>
			<g>
				<g>
					<path class="st15" d="M404.4,223.9c0.2-1.6,1.8-2.8,3.5-2.8h9.1c1.6,0,2.7,1,2.8,2.5l0,1.1l0.9,27.4h41.6l-0.8-23.4l0-1.7h-8.6
						c-1.4,0-2.5-0.9-2.7-2.1c-0.1-0.3-0.1-0.5,0-0.8c0.2-1.6,1.8-2.9,3.5-2.9h11.3c1.6,0,2.7,1,2.8,2.5l0.3,10.9l4.1,153.2
						c-0.4,1.3-0.8,1.7-1.3,1.7l30.9,61.7c0.5,0.9-0.6,1.7-2.3,1.8h-0.5c-1.6,0-3.1-0.6-3.4-1.4l-8-15.6h-42.7l7.7,15.1
						c0.5,0.9-0.6,1.7-2.3,1.8h-0.5c-1.6,0-3.1-0.6-3.4-1.4L419,398.1h0.1l-5.6-171.2h-6.3c-0.6,0-1-0.1-1.5-0.4
						c-0.9-0.5-1.5-1.4-1.3-2.5C404.4,223.9,404.4,223.9,404.4,223.9z M443.2,432.6h42.7l-5-9.7h-42.7L443.2,432.6z M436.6,419.7
						h42.7l-5-9.7h-42.7L436.6,419.7z M430,406.8h42.7l-5-9.7l-42.5,0.3L430,406.8z M425.3,393h40.4l-0.7-1.4c0.7-0.6,1.4-1.2,2-1.8
						c0.2-0.2,0.4-0.5,0.7-0.7c-0.3,0.2-0.6,0.4-0.9,0.7l-0.5-14.5h-41.6L425.3,393z M424.5,369.5h41.6l-0.6-17.7h-41.6L424.5,369.5
						z M423.7,346h41.6l-0.6-17.7h-41.6L423.7,346z M423,322.5h41.6l-0.6-17.7h-41.6L423,322.5z M422.2,299h41.6l-0.6-17.7h-41.6
						L422.2,299z M421.5,275.5H463l-0.6-17.7h-41.6L421.5,275.5z"/>
					<path class="st22" d="M406.5,221.1h9.3c1.6,0,3,1.2,3.2,2.8l4.8,31.6h42.7l-4.2-27.9h-8.8c-1.8,0-3.2-1.4-3.2-3.2
						c0-1.8,1.4-3.2,3.2-3.2h11.6c1.6,0,3,1.2,3.2,2.8l33.9,225.3c0.3,1.8-0.9,3.4-2.7,3.7c-0.2,0-0.3,0-0.5,0
						c-1.6,0-2.9-1.1-3.2-2.8l-4.8-31.6h-42.7l4.6,30.6c0.3,1.8-0.9,3.4-2.7,3.7c-0.2,0-0.3,0-0.5,0c-1.6,0-2.9-1.1-3.2-2.8
						L413,227.5h-6.5c-1.8,0-3.2-1.4-3.2-3.2C403.3,222.5,404.7,221.1,406.5,221.1z M424.7,261.9l3,19.6h42.7l-3-19.6H424.7z
						 M431.6,307.6h42.7l-3-19.6h-42.7L431.6,307.6z M435.5,333.7h42.7l-3-19.6h-42.7L435.5,333.7z M439.5,359.8h42.7l-3-19.6h-42.7
						L439.5,359.8z M443.4,385.9h42.7l-3-19.6h-42.7L443.4,385.9z M490,412l-3-19.6h-42.7l3,19.6H490z"/>
				</g>
				<g>
					<path class="st7" d="M441,256.8l2.4,7l4.8,13.7l1.5,4.3l1.6,4.6c0,0,0,0,0,0l3.4,9.7l13.3,58.4h8.7l-0.1-0.8l-8.6-55.5
						c0.2-3.5,0.3-7.2,0.5-10.7c0.4-9.5,0.8-18.7,0.8-24.9c0-1.2,0-2.4,0-3.4c0-0.5,0-0.8-0.1-1.2c0-0.4,0-0.8-0.1-1.2H441z"/>
					<path class="st0" d="M429.4,296.1l13.3,58.4h8.8l-0.4-2.8l-8.3-53.5c1.1-1.8,2.8-5.6,4.7-10.2c0.8-2,1.6-4.1,2.4-6.2
						c2.3-6.3,4.5-13.2,5.9-18.4c0.7-2.6,1.1-4.8,1.2-6.3l-5.6-0.3l-16.3-0.7l-4.6-0.2h-0.3l0,1.4l-0.1,5.7v0.5L429.4,296.1z"/>
					<path class="st2" d="M429.1,261.9c-0.1,0.5,0.2,1,0.6,1.3c0.1,0.1,0.2,0.1,0.3,0.2c0.2,0.1,0.4,0.1,0.6,0.1
						c4.3,0,8.7,0.2,12.9,0.2c2.7,0.1,5.2,0.1,7.7-0.1c7.1-0.3,13.2-1.5,17.5-5.1c0.1-0.1,0.3-0.2,0.4-0.3c0.1-0.1,0.2-0.1,0.3-0.3
						c0.9-0.9,1.6-1.9,1.4-3.2l-3.5-21.2v0l-1.6-9.6c0-0.2-0.1-0.3-0.1-0.5c0-0.3-0.1-0.6-0.1-0.8l-4-24.7c-2-0.1-4-0.2-6-0.3
						c-4.2-0.1-8.4-0.1-12.1,0.7c-3.4,0.7-6.4,1.9-8.9,4c-0.3,5-0.5,10.1-0.7,15.1v0.1c-0.1,5-0.2,9.9,0,14.4
						c0.4,9.2-1.7,17.3-3.3,24c-0.1,0.5-0.2,0.9-0.3,1.4C429.7,258.9,429.3,260.4,429.1,261.9z"/>
					<path class="st23" d="M461.3,197.8l2.4,18.9l0.8,6.2c0.1,2.7,0.3,5.4,0.9,6.9c0.1,0.5,0.7,1.9,1.7,3.7v0
						c2.8,5.4,11.5,11.4,15.6,18.7l1.8-0.4l3.3-0.7l-14.7-22l-1.4-9.5l-1.2-8.8c-0.6-4.3-2.9-8.2-6.3-10.8L461.3,197.8z"/>
					<path class="st23" d="M397.6,204.8l21.6,24.4c1.9,2.2,5.4,1.8,6.9-0.7l5.2-7.6l2.4-3.5l0.1-0.2c0.1-0.1,0.1-0.1,0.1-0.1
						l0.5-14.8l-2.8,2.3c-1.4,1.2-2.7,2.7-3.6,4.4l-4.1,7.7l-1.8,3.3l-22.4-19.5l-1.3,2.7L397.6,204.8z"/>
					<path class="st2" d="M423.9,216.6c1.3,1,5,3,6.8,3.9c0.3,0.1,0.5,0.3,0.6,0.3l2.4-3.5l0.1-0.2c0.1-0.1,0.1-0.1,0.1-0.1
						l0.5-14.8l-2.8,2.3c-1.4,1.2-2.7,2.7-3.6,4.4L423.9,216.6z"/>
					<path class="st2" d="M461.3,197.8l3.2,25c2-0.7,5.4-2.4,7.2-3.3l-1.2-8.8C470.2,206.5,466.2,198.4,461.3,197.8z"/>
					<path class="st23" d="M396.1,203.7c0.1,0.8,0.7,1,1.5,1.1l0.8-1.6l1.3-2.7l1.3-2.6c-1.8-0.2-3.3,0.1-4.3,1.4
						c-0.2,0.2-0.4,0.5-0.5,0.8C395.5,201,395.7,202.3,396.1,203.7z"/>
					<path class="st23" d="M482.8,252.2c0.5,1.4,1,2.8,1.7,3.1c1,0.5,3.4,0.2,5.7,0c0.4,0,0.7-0.1,1-0.2c1.1-0.3,1.6-0.8,2.5-1.4
						l-5.8-2.7l-3.3,0.7L482.8,252.2z"/>
					<g>
						<polygon class="st23" points="474.7,354.5 475.5,357.7 474.7,359.3 471.1,359.3 469,357.2 469.3,354.5 						"/>
						<path class="st24" d="M475.7,356.9c0.6,1,0.7,2,0.7,3.1c-0.2,0.6-2.7,1-4.5,0.6c-2.9-1.3-5.9-2.8-7.6-4
							c-0.4-0.5-0.5-1.1,0.1-1.5c1.8,0.3,3.8,0.9,4.8,0.7c0,0.6,0.1,1.2,0.6,1.4C472.2,357.6,474.9,357.5,475.7,356.9z"/>
					</g>
					<g>
						<polygon class="st23" points="449.9,354.5 450.7,357.7 449.9,359.3 446.2,359.3 444.2,357.2 444.4,354.5 						"/>
						<path class="st24" d="M450.8,356.9c0.6,1,0.7,2,0.7,3.1c-0.2,0.6-2.7,1-4.5,0.6c-2.9-1.3-5.9-2.8-7.6-4
							c-0.4-0.5-0.5-1.1,0.1-1.5c1.8,0.3,3.8,0.9,4.8,0.7c0,0.6,0.1,1.2,0.6,1.4C447.3,357.6,450,357.5,450.8,356.9z"/>
					</g>
					<g>
						<path class="st25" d="M455.4,197.4c-0.7,2.6-8.4,2-12.2,0.8c3.6-1.8,2.3-5.6,1.7-7.6l9.2-0.5
							C453.4,191.5,454.9,194.7,455.4,197.4z"/>
						<path class="st23" d="M441.1,189.8c0.4,0.5,1.1,1,2,1.5c0.6,0.3,1.4,0.7,2.1,1c0.8,0.4,1.7,0.7,2.6,1.1c0.3,0,0.6,0.1,0.9,0.1
							c2,0.2,3.8,0.2,5.4-0.4c0.5-0.2,0.9-0.4,1.3-0.7c2.2-4.1,3.6-8.3,4.2-12.6c-4.7-3.5-9.3-6.2-14.1-6.6c-1.1,1.5-2,3.1-2.7,4.6
							c-1.2,2.8-1.7,5.6-1.8,8.2C441,187.2,441.1,188.5,441.1,189.8z"/>
						<path class="st5" d="M455.9,193.6c-2.2,1.1-3.6,1.5-6.4,1c-1-1.9-2.2-4-1.4-6c1.9-2.2,2.5-2.6,2.6-3.9c0-0.7-0.6-1.5-1.9-1.8
							c-0.7,0.2-1.6,1-1.8,1.5l-1-0.6c0.5-1.4,1.6-4.2,2.7-4.5c-2.6-0.5-5.8-0.9-6-2.1c-0.7-3.2-1.1-7.7-0.2-8.2
							c0.5-0.2,4.5,2.6,7.7,3.4c3.5,0.3,6.7,1,9.2,2.4c1.5,1.7,2.6,4.4,2,7.1C460.8,185.9,458.7,189.8,455.9,193.6z"/>
						<path class="st5" d="M441.1,189.8c0.4,0.5,1.1,1,2,1.5c0.6-0.5,1-1,1.2-1.7l2.6-5.2l-1.1-0.6l-2.8,4.1c-1.1,0-1.7-0.8-2-2
							C441,187.2,441.1,188.5,441.1,189.8z"/>
					</g>
					<g>
						<path class="st26" d="M396.1,203.7c0.1,0.8,0.7,1,1.5,1.1l21.6,24.4c1.9,2.2,5.4,1.8,6.9-0.7l5.2-7.6l2.4-3.5
							c-0.1,5-0.2,9.9,0,14.4c0.4,9.2-1.7,17.3-3.3,24h-0.3l0,1.4c-0.4,1.7-0.7,3.2-1,4.7c-0.1,0.5,0.2,1,0.6,1.3
							c0.1-0.1,0.2-0.2,0.3-0.3c1.4-1.4,3.4-3.6,4.4-5.1c0.3-0.4,0.4-1,0.6-1.8c0.6-3.8-0.1-11.4,0.9-13.9c1.2-3.1,1.3-10,0.8-11.4
							c-0.5-1.4-2.7-13.6-2.7-13.6s0,0-0.1,0.1c-0.1,0-0.1,0.1-0.1,0.1c-0.5,0.5-1.6,1.8-3,3.2c-2.5,2.7-5.8,6.1-6.8,6.3
							c-1.6,0.3-9.8-5.8-11-6.9c-1.2-1.1-13-14.5-13.9-15.7c-0.2-0.3-0.4-0.7-0.7-1.1c-0.8-1.6-1.7-4-1.7-4
							c-0.2,0.2-0.4,0.5-0.5,0.8C395.5,201,395.7,202.3,396.1,203.7z"/>
						<path class="st26" d="M462.7,220.1c0,0,1.7,7,1.6,9.5c-0.1,2.6,2.8,13.7,2.3,16.1c-0.4,1.8,0.5,8.2,0.9,11.3
							c0.1,0.9,0.9,1.4,1.1,1.5c0.3-0.3,0.6-0.4,0.7-0.5c0,0,0.1-0.1,0.1-0.1c0.9-0.9,1.6-1.9,1.4-3.2l-3.5-21.2
							c2.8,5.4,11.5,11.4,15.6,18.7c0.5,1.4,1,2.8,1.7,3.1c1,0.5,3.4,0.2,5.7,0c0.4,0,0.7-0.1,1-0.2c-2.3-0.5-5.7-1.6-6.6-3.4
							c-1.3-2.7-5.9-7.7-7.9-10.3c-1.7-2.1-10-12.6-11.1-17.6c0-0.2-0.1-0.3-0.1-0.5c0-0.3-0.1-0.6-0.1-0.8h0
							c-0.3-2.1-1-4.3-1.6-5.9c-0.6-1.6-1.1-2.7-1.1-2.7V220.1z"/>
						<path class="st26" d="M441.5,296.4c0.1,1.6,0.6,11.6,0.8,13.2c0.3,1.6,1.2,14.8,2.4,17.7c1.2,2.8,3.8,19.1,4,20.5
							c0.1,0.7,1.3,2.4,2.4,3.9l-8.3-53.5c1.1-1.8,2.8-5.6,4.7-10.2C444.9,291,441.5,295.3,441.5,296.4z"/>
						<path class="st26" d="M466.3,295c0,2,1,12.9,1.9,16.3c0.9,3.5,3.6,18.7,3.6,22.1c0,3.4,0.2,15.7,2.6,18.4
							c0.6,0.7,1.4,1.3,2.2,1.9l-8.6-55.5c0.2-3.5,0.3-7.2,0.5-10.7C467.4,290.5,466.3,294,466.3,295z"/>
						<path class="st27" d="M449.7,281.8l1.6,4.6c0.5-2.9,1.6-8.8,1.8-9.1c0.2-0.4,3.4-6.9,4.4-7.8c0.9-1,8.4-5.9,9.4-6.3
							c0.4-0.1,1.4-0.4,2.4-0.7c0-1.2,0-2.4,0-3.4c0-0.5,0-0.8-0.1-1.2c0,0,0,0-0.1,0.1c-0.1,0.1-0.3,0.3-0.7,0.5
							c-1.2,0.9-3.9,2.7-7.5,3.8c-0.1,0.1-0.3,0.1-0.5,0.1c-0.1,0-0.1,0-0.2,0c-1.3,0.4-2.7,0.7-4.2,0.8c-0.2,0-0.4,0.1-0.7,0.1
							c0,0-0.1,0.6-0.4,1.6c0,0.1-0.1,0.3-0.1,0.5C453.9,269.8,451.1,280.4,449.7,281.8z"/>
					</g>
				</g>
			</g>
		</g>
	</g>
	<g>
		<g>
			<g>
				<g>
					<path class="st19" d="M569.4,116.7c-0.5,3,0.6,6.2,3,8.1c2.3,1.9,5.7,2.5,8.5,1.5c3.6-1.3,6.1-5,9.8-6.1
						c1.6-0.5,3.3-0.4,4.9-0.9c1.9-0.6,3.6-2.1,4-4.1c0.5-1.9-0.5-4.2-2.4-5c-1-0.4-2.2-0.4-2.8-1.3c-0.9-1.2,0.3-2.8,0.6-4.3
						c0.4-2.1-1.2-4.3-3.3-4.9c-2.1-0.6-4.4,0.1-6,1.5c-1.4,1.2-2.8,2.3-4.7,2.6c-1.1,0.1-3.4-0.1-4.6-2.5"/>
				</g>
			</g>
			<g>
				<g>
					<g>
						<path class="st19" d="M584.6,99.5c0,0,0,0.1,0,0.2c0,0.1,0,0.3,0,0.6c0,0.5-0.2,1.3-0.8,2.1c-0.3,0.4-0.7,0.8-1.1,1
							c-0.5,0.3-1.1,0.5-1.7,0.5c-0.6,0-1.3-0.1-1.9-0.4c-0.6-0.3-1.2-0.7-1.6-1.3c-0.4-0.6-0.7-1.2-1-1.8c-0.3-0.6-0.6-1.2-0.9-1.7
							c-0.7-1-1.7-1.5-2.6-1.8c-0.9-0.3-1.6-0.2-2.2-0.2c-0.5,0.1-0.8,0.2-0.8,0.1c0,0,0.1,0,0.2-0.1c0.1-0.1,0.3-0.1,0.6-0.2
							c0.5-0.1,1.3-0.1,2.2,0.1c0.9,0.3,2,0.8,2.7,1.8c0.8,1,1.1,2.3,2,3.5c0.4,0.6,0.9,1,1.5,1.3c0.6,0.3,1.2,0.4,1.8,0.3
							c0.6,0,1.2-0.2,1.6-0.5c0.5-0.3,0.8-0.6,1.1-1c0.6-0.7,0.8-1.5,0.8-2C584.7,99.8,584.6,99.5,584.6,99.5z"/>
					</g>
				</g>
			</g>
		</g>
		<g>
			<g>
				<g>
					<path class="st23" d="M594,96.8l-2,20.1l-13.9,8.6c0,0,1.8,12.1,1.9,12.4l17.1-12.6c2.1-1.5,3.5-4,3.6-6.6l-0.3-23.2"/>
				</g>
			</g>
			<g>
				<g>
					<g>
						<g>
							<path class="st23" d="M592.5,87.5c-0.1-0.1-1.9,4.4-1.8,5.1c0.1,0.7,1.8,2.8,2.5,3.2c1.3,0.8,0.4,3.6,0.5,4.1l6.7,0.5
								l-0.1-5.2l0.5-3.5c0.2-0.7,0.2-1.5,0.1-2.2c-0.2-0.8-0.6-1.7-1.2-1.6c-1.1,0.1-1.1,0.4-1.1,0.4s-0.7-1.1-1.3-0.2
								c0,0-1-1.2-1.8-0.2c0,0-1.1-1.1-1.9,0.6l-0.5,1.2C593.2,89.5,593.7,88.1,592.5,87.5z"/>
						</g>
					</g>
				</g>
			</g>
		</g>
		<g>
			<g>
				<g>
					<path class="st19" d="M555.7,130.1c-4.1,0.3-7.6-2.7-8.1-4.5c-0.6-1.8,0.1-3.9,1.6-5c1.2-0.9,2.9-1.4,3.4-2.7
						c1-2.4-2.3-5.1-1.1-7.4c0.9-1.6,3.4-1.5,4.5-2.9c1-1.2,0.7-3.1,1.1-4.7c0.6-2.7,3.4-4.5,6.1-4.6c2.7,0,5.3,1.4,7.2,3.5
						c1.9,2,3.1,4.5,4.1,7.1c0.9,2.1,1.6,4.3,1.2,6.5c-0.6,3.2-3.6,5.4-6.5,7C564.7,124.9,561.1,130.6,555.7,130.1"/>
				</g>
			</g>
			<g>
				<g>
					<g>
						<path class="st19" d="M549.3,122.6C549.3,122.6,549.3,122.6,549.3,122.6c-0.1,0-0.2,0-0.3,0c-0.2,0-0.5-0.1-0.8-0.3
							c-0.3-0.2-0.7-0.5-0.9-1c-0.2-0.5-0.3-1.1,0-1.7c0.1-0.3,0.3-0.6,0.6-0.8c0.3-0.2,0.6-0.4,0.9-0.6c0.3-0.2,0.7-0.3,1-0.6
							c0.3-0.2,0.6-0.5,0.8-0.9c0.4-0.7,0.3-1.7,0.1-2.5c-0.2-0.9-0.6-1.8-0.8-2.8c-0.1-0.5-0.1-1,0-1.5c0.1-0.5,0.3-1,0.6-1.3
							c0.3-0.4,0.8-0.6,1.2-0.7c0.4-0.2,0.9-0.2,1.3-0.3c0.8-0.2,1.6-0.4,2.2-0.9c0.6-0.5,0.9-1.1,1.2-1.7c0.5-1.2,0.5-2.3,0.5-3
							c0-0.3,0-0.6,0-0.8c0-0.2,0-0.3,0-0.3c0,0,0,0.1,0,0.3c0,0.2,0,0.5,0,0.8c0,0.7,0,1.8-0.4,3c-0.2,0.6-0.6,1.2-1.2,1.8
							c-0.6,0.5-1.4,0.8-2.2,1c-0.8,0.2-1.7,0.4-2.4,1c-0.3,0.3-0.5,0.7-0.6,1.2c-0.1,0.5-0.1,0.9,0,1.4c0.1,1,0.5,1.8,0.8,2.8
							c0.2,0.9,0.3,1.9-0.1,2.7c-0.2,0.4-0.5,0.7-0.8,1c-0.3,0.2-0.7,0.4-1,0.6c-0.3,0.2-0.6,0.3-0.9,0.6c-0.3,0.2-0.5,0.5-0.6,0.8
							c-0.2,0.6-0.2,1.2,0,1.6c0.2,0.5,0.5,0.8,0.8,0.9C548.9,122.6,549.4,122.6,549.3,122.6z"/>
					</g>
				</g>
			</g>
		</g>
		<g>
			<g>
				<g>
					<g>
						<g>
							<g>
								<g>
									<g>
										<path class="st28" d="M584.7,199.9l8-3.5c0,0,6.3,7,7.9,6.5l-6.3-15.8l-12.8,5L584.7,199.9z"/>
									</g>
								</g>
							</g>
						</g>
						<g class="st21">
							<g>
								<g>
									<g>
										<path d="M584.7,199.9l8-3.5c0,0,6.3,7,7.9,6.5l-6.3-15.8l-12.8,5L584.7,199.9z"/>
									</g>
								</g>
							</g>
						</g>
					</g>
				</g>
			</g>
			<g>
				<g>
					<polygon class="st19" points="585.7,196.5 583.3,190.8 577.9,193.2 572.8,202.9 					"/>
				</g>
			</g>
		</g>
		<g>
			<g>
				<g>
					<g>
						<g>
							<g>
								<g>
									<path class="st28" d="M593.6,203.4l8.1-3.3c0,0,6.1,7.2,7.6,6.7l-5.8-16l-12.9,4.6L593.6,203.4z"/>
								</g>
							</g>
						</g>
					</g>
					<g>
						<g>
							<g>
								<g>
									<path class="st28" d="M603.5,190.8l-1.3,0.5l6.1,15.2c0,0,0.6,0.6,1,0.3L603.5,190.8z"/>
								</g>
							</g>
						</g>
					</g>
				</g>
			</g>
		</g>
		<g>
			<g>
				<g>
					<path class="st11" d="M553.7,171.8c0,0,20.1-2.4,24.2-5.3c4.1-3,4-3.9,4-3.9s0.7-3.1-1.8-3.6c-2.5-0.5-14.4,2.6-14.4,2.6
						l-6.9-1.9L553,163l-3.9,4.7c0,0,1,2.8,2.5,3.3c1.5,0.5,2.2,0.6,2.2,0.6"/>
				</g>
			</g>
			<g class="st21">
				<g>
					<path d="M553.7,171.8c0,0,20.1-2.4,24.2-5.3c4.1-3,4-3.9,4-3.9s0.7-3.1-1.8-3.6c-2.5-0.5-14.4,2.6-14.4,2.6l-6.9-1.9L553,163
						l-3.9,4.7c0,0,1,2.8,2.5,3.3c1.5,0.5,2.2,0.6,2.2,0.6"/>
				</g>
			</g>
		</g>
		<g>
			<g>
				<path class="st23" d="M554.7,168.2c-0.1-0.4-0.2-5.5-0.2-5.5s1.5-2.3,4.2-2.3c2.8,0,6.7,1.3,6.7,1.3l11.8-3.6l0.9,4.4
					c0,0-8.9,7.3-13.6,7.2C559,169.6,554.7,168.2,554.7,168.2z"/>
			</g>
		</g>
		<g>
			<g>
				<g>
					<path class="st23" d="M543.9,155.9L543.9,155.9c-1.3,0.4-2.6,0.3-3.9-0.1c-1.6-0.6-2.9-1.7-3.9-3l-1-1.4
						c-1.2-1.2-8.4-11.5-8.4-11.5l4.1-6.3l8.7,10.6l2.7-7l7.5,5.4l-2.2,8.5C546.8,153.2,546,155.2,543.9,155.9z"/>
				</g>
			</g>
			<g>
				<g>
					<path class="st23" d="M526.2,123.9c0,0,2.1,3.2,2.6,4.3c0.4,0.9,2,3.6,1.9,6.5l-4.1,5.1c0,0-2.6-2.7-3.7-2.9
						c-0.8-0.1-3.2-2.5-3.2-2.5s-0.2-1.1,0.5-1.2c0,0-0.5-1.5,0-2c0,0-0.5-1.2,0.2-1.8c0,0,0.3-1.4,0.8-1.9c0.5-0.5,5.5,1.1,5.5,1.1
						s-1.1-2.7-1.2-3.4C525.5,124.6,526.2,123.9,526.2,123.9z"/>
				</g>
			</g>
		</g>
		<g>
			<g>
				<g>
					<path class="st19" d="M554.7,168.2c-0.1,0.4-1.4,9.6-1.4,9.6s-8.3,19.3-9.5,25.2c-1.2,5.8-0.6,11.9,5.7,13.8
						c6.3,1.8,11.6-2.9,11.6-2.9s2.2,3.2,8.2,2.6c6.1-0.6,27.8-13.4,27.8-13.4l-3.5-9.5l-16.8,6c0,0,8.7-16.4,9.2-20.7
						c0.4-3.3-4.3-14-8-16.2c0,0-10.6,7.8-14.2,7.1C560.3,169,554.7,168.2,554.7,168.2z"/>
				</g>
			</g>
			<g>
				<g>
					<g>
						<path class="st28" d="M566.5,178c0,0,0,0,0,0.1c0,0.1,0,0.2,0,0.3c0,0.3-0.1,0.6-0.2,1.1c-0.2,1-0.5,2.4-1.1,4.1
							c-0.6,1.7-1.4,3.7-2.4,5.8c-1,2.2-2,4.5-2.9,7.1c-0.4,1.3-0.8,2.6-1.1,3.8c-0.3,1.3-0.5,2.5-0.6,3.6c-0.2,2.3,0.2,4.5,0.8,6.1
							c0.7,1.7,1.5,2.8,2.2,3.6c0.3,0.4,0.6,0.7,0.8,0.8c0.1,0.1,0.2,0.2,0.2,0.2c0,0,0.1,0.1,0.1,0.1s0,0-0.1-0.1
							c-0.1-0.1-0.1-0.1-0.2-0.2c-0.2-0.2-0.5-0.4-0.8-0.8c-0.7-0.7-1.6-1.9-2.3-3.6c-0.7-1.7-1.1-3.8-0.9-6.2
							c0.1-1.2,0.3-2.4,0.6-3.7c0.3-1.3,0.7-2.5,1.1-3.8c0.9-2.6,1.9-5,2.9-7.1c1-2.2,1.8-4.1,2.4-5.8c0.6-1.7,1-3.1,1.2-4.1
							c0.1-0.5,0.2-0.9,0.2-1.1C566.5,178.3,566.5,178.2,566.5,178C566.5,178.1,566.5,178,566.5,178z"/>
					</g>
				</g>
			</g>
			<g>
				<g>
					<g>
						<path class="st28" d="M593.7,193.4c0,0-0.1,0-0.2,0.1c-0.2,0.1-0.4,0.1-0.6,0.2c-0.6,0.2-1.4,0.5-2.4,0.8
							c-2,0.7-4.8,1.6-7.8,2.8c-3,1.1-5.8,2.2-7.6,3.3c-0.2,0.1-0.4,0.3-0.6,0.4c-0.2,0.2-0.4,0.3-0.5,0.4c-0.3,0.3-0.5,0.6-0.7,0.8
							c-0.1,0.2-0.2,0.4-0.3,0.6c-0.1,0.1-0.1,0.2-0.1,0.2c0,0,0-0.1,0.1-0.2c0.1-0.1,0.2-0.4,0.3-0.6c0.1-0.3,0.3-0.6,0.6-0.9
							c0.1-0.2,0.3-0.3,0.5-0.5c0.2-0.1,0.4-0.3,0.6-0.4c1.8-1.1,4.5-2.2,7.6-3.4c3-1.1,5.8-2.1,7.8-2.7c1-0.3,1.8-0.6,2.4-0.8
							c0.3-0.1,0.5-0.1,0.7-0.2C593.6,193.4,593.6,193.4,593.7,193.4z"/>
					</g>
				</g>
			</g>
			<g>
				<g>
					<g>
						<path class="st28" d="M586,178.7c0,0,0,0.1,0,0.2c0,0.2-0.1,0.4-0.1,0.7c-0.1,0.6-0.3,1.4-0.7,2.4c-0.7,2-1.8,4.6-3.2,7.5
							c-1.4,2.9-2.7,5.4-3.7,7.3c-0.5,0.9-0.9,1.7-1.2,2.2c-0.1,0.2-0.2,0.4-0.3,0.6c-0.1,0.1-0.1,0.2-0.1,0.2c0,0,0-0.1,0.1-0.2
							c0.1-0.2,0.2-0.4,0.3-0.6c0.3-0.5,0.7-1.3,1.1-2.2c1-1.9,2.3-4.4,3.6-7.3c1.4-2.9,2.5-5.5,3.3-7.5c0.4-1,0.6-1.8,0.8-2.3
							c0.1-0.3,0.1-0.5,0.1-0.7C586,178.8,586,178.7,586,178.7z"/>
					</g>
				</g>
			</g>
		</g>
		<g>
			<g>
				<g>
					<path class="st11" d="M560.2,123.6l-8.6,0.1c0,0-3,11.1-2.9,18.5c0,4.5,2.7,11,3.4,13.4c0.4,1.7-1.3,3.9-1.8,5.5c0,0,0,0,0,0.1
						c-0.7,2.4-4.2,10.5,3.9,10.6c0,0-4.2-2.4-2-6.5c2.1-3.9,6.1-5.6,9.4-3.6c3.3,2,4.4,1.2,7.5,0c3.1-1.2,14-4.2,12.5,1.4
						c0,0,1.7-3.2-1.6-5.6c-2.5-1.8-4.6-6.8-4.6-11.8c0-2.7,1.2-5.5,3.3-7.1l3.7-2.7c0,0-3.8,0.2-2.6-5.7c1.2-5.8,2-7,2-7l-7.3,2.3
						c-0.3,0.1-0.5,0.1-0.8,0.1l-3.7-0.3L560.2,123.6z"/>
				</g>
			</g>
			<g>
				<g>
					<path class="st11" d="M541.3,137.7c0,0,4.2-10.1,5.9-11.7c1.5-1.5,4.4-2.2,4.4-2.2l-2.6,19.1L541.3,137.7z"/>
				</g>
			</g>
			<g class="st21">
				<g>
					<g>
						<path d="M574.2,146.8c0.3-1.6,0.7-3.3,1.3-4.8c0.7-1.5,1.7-3,3.1-3.8c0.3-0.2,0.6-0.4,0.9-0.6c0.3-0.3,0.4-0.6,0.3-1
							c-0.2-0.6-1-0.7-1.6-0.6c-1.2,0.3-2.2,1.2-2.8,2.3c-0.6,1.1-0.9,2.3-1.2,3.5c-0.3,1.5-0.5,3-0.3,4.5"/>
					</g>
				</g>
			</g>
			<g class="st21">
				<g>
					<g>
						<path d="M570.4,147.2c-0.5-0.1-0.9,0.2-1.2,0.5c-0.3,0.4-0.5,0.8-0.7,1.2c-1,2.2-2.9,4-5.2,4.9c-0.6,0.2-1.2,0.4-1.8,0.8
							s-1,1-0.9,1.6c0,0,4-0.7,6.7-3.9C570,149.1,570.4,147.2,570.4,147.2z"/>
					</g>
				</g>
			</g>
		</g>
		<g>
			<g>
				<path class="st19" d="M576.3,123.9c0.5,0.7,1.4,0.9,2.3,0.7c0.8-0.2,1.6-0.6,2.4-0.9c0.8-0.3,1.7-0.6,2.5-0.3
					c1,0.3,1.6,1.3,2.5,1.8c1.2,0.7,3,0.3,3.8-0.9c0.4-0.6,0.6-1.4,0.8-2.1s0.7-1.4,1.4-1.7c0.8-0.3,1.8,0,2.6-0.2
					c1.2-0.3,1.9-1.6,2.1-2.8c0.4-2.2,1.7-6.6-6.9-7.4"/>
			</g>
		</g>
		<g>
			<g>
				<g>
					<g>
						<g>
							<g>
								<g>
									<g>
										<path class="st23" d="M573.6,106.6c0.7-4.5-2.6-8.8-7.2-9.3c-4.4-0.5-8.3,2.7-9,7c-0.6,3.8-1.2,7.6-1.2,9
											c0,4.2,2.4,5.9,3.4,6.4c0.2,0.1,0.8,0.3,1.1,0.3l0,0c0,0,0,0,0,0l-1,4.8c-0.5,3.1,1.2,6,4.4,6.5c3.2,0.5,5.7-1.9,6.2-5
											L573.6,106.6z"/>
									</g>
								</g>
								<g>
									<g>
										<g>
											<g>
												<g>
													<path class="st30" d="M560.7,120c0,0,2.7,0.7,6.5-0.8c0,0-1.7,3.4-6.7,2.1L560.7,120z"/>
												</g>
											</g>
										</g>
									</g>
								</g>
							</g>
						</g>
					</g>
				</g>
			</g>
		</g>
		<g>
			<g>
				<path class="st19" d="M579.2,118.3c0.3-0.6,0.5-1.1,0.6-1.5c0.5-1.4,0.5-3.7-0.1-5c-0.6-1.3-2.2-2.5-2.6-3.7
					c-0.7-1.9-0.1-2.3-0.6-6.2c-0.3-2.2-3.1-5.3-6.2-4.9c-0.9-1.1-2.3-1.7-3.6-2c-3.3-0.7-6.9,0.5-9,3.5c-0.9,1.4-1.5,3.2-1,4.9
					c0.8,1.3,3.6,0.6,5.3-0.3c1.7,1.2,4.2,0.7,5.4-1c0.3,0.4,0.8,0.7,1.3,0.7c0,0.5,0.1,0.9,0.1,1.2c0.1,1.2,1.9,3,1.9,4.2
					c0,2.3-1.8,2.4-2.3,4.6c-0.4,1.7,0.9,2.7,1.1,4.4c0,0.3-3.1,5.8,0.8,8.2c0,0,0.1,0.1,0.3,0.2c1.4,1.4,1.5,3.6,0.3,5.3
					c-1.1,1.5-2.2,4.1,0.4,5.5c0,0,0.8-2.4,1.9-2.9c2.8-1.2,5.6-1.3,4.6-7.4C576.8,120.1,578.3,120.8,579.2,118.3z"/>
			</g>
		</g>
	</g>
	<g>
		<g>
			<g>
				<g>
					<g>
						<g>
							<g>
								<g>
									<g>
										<g>
											<g>
												<g>
													<g>
														<path class="st23" d="M73.6,199l1.2,18.1l9.1-0.6c0.1-1.1,0.1-5.1,0.1-5.1s3.8-0.5,3.9-4.3c0.1-1.8-0.1-5.6-0.3-9
															c-0.2-3.8-3.4-6.7-7.2-6.5h0C76.4,191.7,73.4,195.1,73.6,199z"/>
													</g>
												</g>
											</g>
										</g>
									</g>
								</g>
							</g>
						</g>
					</g>
				</g>
				<g>
					<g>
						<g>
							<g>
								<g>
									<g>
										<g>
											<g>
												<g>
													<g>
														<g>
															<g>
																<g>
																	<path class="st30" d="M84,211.3c0,0-2.4,0.1-4.9-1.5c0,0,1.1,2.7,4.9,2.5L84,211.3z"/>
																</g>
															</g>
														</g>
													</g>
												</g>
											</g>
										</g>
									</g>
								</g>
							</g>
						</g>
					</g>
				</g>
				<g>
					<g>
						<g>
							<g>
								<path class="st24" d="M77.8,194.9C77.8,194.9,77.8,195,77.8,194.9c-0.6,0.5-1,1.2-1.2,1.9c0,0,0,0.1,0,0.1
									c-0.2,1.1-0.2,2.2-0.3,3.2c-0.2,1.1-0.6,2.2-1.4,2.9c-0.3,0.3-0.9,0.5-1.2,0.1c-0.1-0.1-0.1-0.3-0.1-0.5
									c-0.2-2.6-0.8-4.9-0.8-7.6c0-0.7,0.4-1.4,1-1.8c0.6-0.4,1.3-0.8,1.9-0.5c0.6,0.3,1.4,1.5,1.9,2"/>
							</g>
						</g>
					</g>
				</g>
				<g>
					<g>
						<g>
							<g>
								<g>
									<g>
										<g>
											<g>
												<g>
													<g>
														<g>
															<path class="st23" d="M74.9,200.7c-0.1,0-2.6-0.8-2.5,1.8c0,2.6,2.6,2,2.6,1.9C75,204.3,74.9,200.7,74.9,200.7z"/>
														</g>
													</g>
												</g>
											</g>
										</g>
									</g>
								</g>
							</g>
						</g>
					</g>
				</g>
				<g>
					<g>
						<g>
							<g>
								<path class="st24" d="M75.4,193.5c-0.8-0.9,0.7-2.6,2-3.2c1.2-0.6,2.9-0.2,4.3,0.1c0.8,0.2,1.7,0.4,2.5,0.3
									c0.6-0.1,1.1-0.4,1.6-0.6c0.5-0.3,1-0.5,1.6-0.5c0.6,0,1.2,0.2,1.5,0.7c0.3,0.5,0.1,1.2-0.5,1.4c0.7-0.5,1.7-0.1,2,0.7
									c0.2,0.8-0.5,1.7-1.3,1.6c0.3-0.3,0.9,0.1,1,0.5c0,0.5-0.3,0.8-0.7,1.1c-1,0.6-2.3,0.6-3.4,0.4c-1.2-0.2-2.2-0.7-3.4-0.9
									c-1.1-0.2-3.1-0.7-4.1-0.2c-0.8,0.4-1.2,1.4-1.7,1.3c-0.5-0.1-0.8-0.6-1-1C75.4,194.5,75.4,194,75.4,193.5"/>
							</g>
						</g>
					</g>
				</g>
				<g>
					<g>
						<g>
							<path class="st24" d="M85.6,187.6c0,0,0,0,0.1,0.1c0.1,0.1,0.1,0.2,0.2,0.4c0.1,0.3,0.1,0.9-0.2,1.5c-0.4,0.5-1.1,0.9-2,1
								c-0.9,0.1-1.8-0.2-2.7-0.5c-0.5-0.1-0.9-0.2-1.4-0.3c-0.4,0-0.9,0-1.3,0.1c-0.8,0.2-1.4,0.6-1.9,1.1
								c-0.4,0.4-0.7,0.9-0.9,1.2c-0.2,0.3-0.2,0.5-0.2,0.5c0,0,0,0,0-0.1c0-0.1,0.1-0.2,0.1-0.4c0.1-0.3,0.4-0.8,0.8-1.3
								c0.4-0.5,1.1-0.9,1.9-1.1c0.4-0.1,0.9-0.1,1.3-0.1c0.5,0,0.9,0.1,1.4,0.3c0.9,0.3,1.8,0.5,2.6,0.5c0.8,0,1.5-0.4,1.9-0.9
								c0.4-0.5,0.4-1,0.3-1.4C85.7,187.7,85.6,187.6,85.6,187.6z"/>
						</g>
					</g>
				</g>
			</g>
			<g>
				<g>
					<g>
						<g>
							<g>
								<g>
									<g>
										<path class="st28" d="M70.3,278.4l-5-6.6c0,0-8.3,2.8-9.4,1.7l12.4-10.1l8.1,9.9L70.3,278.4z"/>
									</g>
								</g>
							</g>
						</g>
					</g>
				</g>
			</g>
			<g>
				<g>
					<g>
						<g>
							<g>
								<g>
									<g>
										<path class="st28" d="M57.6,282.5l-5-6.6c0,0-8.3,2.8-9.4,1.7l12.4-10.1l8.1,9.9L57.6,282.5z"/>
									</g>
								</g>
							</g>
						</g>
					</g>
				</g>
			</g>
			<g>
				<g>
					<g>
						<path class="st23" d="M65.4,175.1c0.1,0,0.6,4.5,0.3,5.1c-0.3,0.6-2.3,2.3-3.1,2.3c-0.8,0-1.8,1.1-2,1.5l-4.9-1.1l1.2-2.7
							l-0.1-3.4c0-0.7,0.2-1.4,0.5-2c0.4-0.7,1-1.4,1.5-1.1c0.9,0.4,0.9,0.7,0.9,0.7s0.9-0.8,1.2,0.2c0,0,1.2-0.8,1.7,0.3
							c0,0,1.3-0.7,1.6,1l0.1,1.2C64.2,176.8,64.1,175.4,65.4,175.1z"/>
					</g>
				</g>
			</g>
			<g>
				<g>
					<path class="st23" d="M109.3,224c-0.3,0.2-0.5,0.6-0.7,0.9c-0.2,0.3-0.4,0.6-0.6,0.9c-0.4,0.6-0.8,1.3-1.2,2
						c-0.7,1.3-1.2,2.7-1.5,4.2c0,0.2-0.1,0.3,0,0.5c0,0.1,0.1,0.2,0.2,0.3c1,1.2,2,2.4,3,3.7c0.1,0.1,3.7-2.5,4.1-2.7
						c0.4-0.2,0.7-0.6,1-0.9c0.1-0.2,0.3-0.3,0.4-0.5c0.1-0.2,0.1-0.4-0.1-0.6c-0.1-0.1-0.2-0.1-0.2-0.2c-0.1-0.2,0-0.4,0.1-0.6
						c0.1-0.3-0.1-0.7-0.1-1c0-0.2,0.1-0.3,0.1-0.5c0-0.3-0.1-0.5-0.2-0.8c-0.1-0.4-0.3-0.7-0.4-1.1c-0.1-0.2-0.1-0.4-0.3-0.5
						c-0.2-0.1-0.4-0.1-0.7-0.1c-1.2,0.2-2.4,0.4-3.6,0.8c0.3-0.7,0.7-1.4,0.9-2.2c0.1-0.2,0.2-0.4,0.1-0.7
						C109.8,224.6,109.5,224.2,109.3,224z"/>
				</g>
			</g>
			<g>
				<g>
					<g>
						<path class="st24" d="M67.8,254.9l-0.6,4.5c-0.3,2.1-0.3,4.3-0.1,6.4l1.7,16.7l-6.1-7.6c0,0-6.1,3.5-6.3,7
							c0,0,11.6,13.7,14.6,15.6c3,1.9,10.7,0.2,11.2-5.7c0,0,0.6,5.5,7.5,5.4c6.9,0,7.3-16.4,7.3-16.4l-2.5-24.8L67.8,254.9z"/>
					</g>
				</g>
			</g>
			<g>
				<g>
					<g>
						<path class="st2" d="M71.1,210.5c0,0-3.8-1.5-5.6-3c-1.7-1.5-6.6-9.7-6.6-9.7l2.8-14.5l-6.2-3.2c0,0-7.6,17.2-6.8,20.5
							c0.7,3.2,13.5,21.4,13.5,21.4l3,12.8l3.2,11.5c0,0-1.5,0.6-0.7,2.9c0.8,2.3,1.8,3.3,0.7,3.7c-1.7,0.7-0.6,2.1-0.6,2.1
							l27.2,1.2c0,0-3.1-22.1-2.4-26.1c0.7-4.1,0.2-11.1,0.2-11.1l-6.2-2L71.1,210.5z"/>
					</g>
				</g>
				<g>
					<g>
						<path class="st2" d="M92.8,218.8c2.8,1.3,5.5,19.8,5.5,19.8l6.7-6.9l3.9,5.1c0,0-5.9,9.9-7.2,10.9c-1.1,0.8-4.5,3.4-6.7,2.4
							c-2.2-0.9-3.3-16.9-3.3-16.9L92.8,218.8z"/>
					</g>
				</g>
				<g>
					<g>
						<path class="st2" d="M74,212.1c0,0-0.3-2.2,0.4-1.8c0,0,9.9,3.3,9.8,4c-0.1,0.6,0,2.4,0,2.4l-6.6-0.1L74,212.1z"/>
					</g>
				</g>
				<g class="st21">
					<g>
						<g>
							<path d="M81.5,248.2c-0.9,0.3-1.9,0.5-2.8,0.5c-0.4,0-0.9,0-1.2-0.2c-0.3-0.3-0.4-0.8-0.3-1.2c0.2-0.4,0.6-0.7,1-0.9
								c1.5-0.6,3.4,0.1,4.7-0.7c0.7-0.4,1.1-1.2,1.6-1.8c0.9-1.1,2-2,3.3-2.5c0.2-0.1,0.4-0.1,0.6-0.1c0.4,0.2,0.3,0.8,0.1,1.2
								C87.1,245.4,84.7,247.6,81.5,248.2"/>
						</g>
					</g>
				</g>
				<g class="st21">
					<g>
						<g>
							<path d="M92.5,230c1.9,4.9,1.1,10.7,3.6,15.4c0.5,0.9,1.1,1.8,1.2,2.8c0.1,1-0.6,2.2-1.6,2.1c-0.6,0-1.3-0.4-1.5-1
								c-0.3-0.6-0.2-1.3-0.3-1.9c-0.4-3.8-0.9-7.6-1.2-11.4C92.5,234,92.6,232,92.5,230"/>
						</g>
					</g>
				</g>
				<g class="st21">
					<g>
						<g>
							<path d="M74.5,212.5c1.5,1.8,3.3,3.3,5.3,4.5c0.5,0.3,1,0.6,1.6,0.7c0.6,0.1,1.2,0.1,1.7-0.2c0.2-0.1,0.4-0.3,0.5-0.6
								c0.1-0.2,0-0.5-0.2-0.7c-0.1-0.1-0.3-0.1-0.5-0.1C79.8,215.8,76.9,214.2,74.5,212.5"/>
						</g>
					</g>
				</g>
			</g>
		</g>
	</g>
	<g>
		<g>
			<path class="st31" d="M409.8,177.6l0.4,1.2c0.2,0.5,0.6,0.9,1.1,1.1l1.2,0.4l-1.2,0.4c-0.5,0.2-0.9,0.5-1,1l-0.4,1.2l-0.5-1.2
				c-0.2-0.5-0.5-0.8-1-1l-1.1-0.4l1.1-0.4c0.5-0.2,0.8-0.5,1-1L409.8,177.6z"/>
		</g>
		<g>
			<path class="st31" d="M352.2,110.8l0.4,1.2c0.2,0.5,0.6,0.9,1.1,1.1l1.2,0.4l-1.2,0.4c-0.5,0.2-0.9,0.5-1,1l-0.4,1.2l-0.5-1.2
				c-0.2-0.5-0.5-0.8-1-1l-1.1-0.4l1.1-0.4c0.5-0.2,0.8-0.5,1-1L352.2,110.8z"/>
		</g>
		<g>
			<path class="st31" d="M217.9,186.8l0.4,1.2c0.2,0.5,0.6,0.9,1.1,1.1l1.2,0.4l-1.2,0.4c-0.5,0.2-0.9,0.5-1,1l-0.4,1.2l-0.5-1.2
				c-0.2-0.5-0.5-0.8-1-1l-1.1-0.4l1.1-0.4c0.5-0.2,0.8-0.5,1-1L217.9,186.8z"/>
		</g>
		<g>
			<path class="st31" d="M430.8,214.2l0.4,1.2c0.2,0.5,0.6,0.9,1.1,1.1l1.2,0.4l-1.2,0.4c-0.5,0.2-0.9,0.5-1,1l-0.4,1.2l-0.5-1.2
				c-0.2-0.5-0.5-0.8-1-1l-1.1-0.4l1.1-0.4c0.5-0.2,0.8-0.5,1-1L430.8,214.2z"/>
		</g>
		<g>
			<path class="st31" d="M421.3,116.4l1.5,4.7c0.7,2.1,2.3,3.7,4.4,4.4l4.7,1.5l-4.8,1.6c-2,0.7-3.5,2.2-4.2,4.1l-1.7,4.8l-1.9-5.1
				c-0.7-1.9-2.2-3.4-4.2-4l-4.6-1.5l4.5-1.5c1.9-0.6,3.4-2.1,4.1-3.9L421.3,116.4z"/>
		</g>
		<g>
			<path class="st31" d="M232.5,226.4l1.5,4.7c0.7,2.1,2.3,3.7,4.4,4.4l4.7,1.5l-4.8,1.6c-2,0.7-3.5,2.2-4.2,4.1l-1.7,4.8l-1.9-5.1
				c-0.7-1.9-2.2-3.4-4.2-4l-4.6-1.5l4.5-1.5c1.9-0.6,3.4-2.1,4.1-3.9L232.5,226.4z"/>
		</g>
		<g>
			<path class="st31" d="M221.6,122.3l0.6,1.9c0.3,0.9,0.9,1.5,1.8,1.8l2,0.6l-2,0.7c-0.8,0.3-1.4,0.9-1.7,1.7l-0.7,2l-0.8-2.1
				c-0.3-0.8-0.9-1.4-1.7-1.7l-1.9-0.6l1.9-0.6c0.8-0.3,1.4-0.9,1.7-1.6L221.6,122.3z"/>
		</g>
		<g>
			<path class="st31" d="M405.4,257.9l0.6,1.9c0.3,0.9,0.9,1.5,1.8,1.8l2,0.6l-2,0.7c-0.8,0.3-1.4,0.9-1.7,1.7l-0.7,2l-0.8-2.1
				c-0.3-0.8-0.9-1.4-1.7-1.7l-1.9-0.6l1.9-0.6c0.8-0.3,1.4-0.9,1.7-1.6L405.4,257.9z"/>
		</g>
	</g>
</g>
</svg>
