<?xml version="1.0" encoding="utf-8"?>
<!-- Generator: Adobe Illustrator 25.2.3, SVG Export Plug-In . SVG Version: 6.00 Build 0)  -->
<svg version="1.1" id="Capa_1" xmlns="http://www.w3.org/2000/svg" xmlns:xlink="http://www.w3.org/1999/xlink" x="0px" y="0px"
	 viewBox="0 0 935.7 731.8" style="enable-background:new 0 0 935.7 731.8;" xml:space="preserve">
<style type="text/css">
	.st0{fill:#25A6DE;}
	.st1{clip-path:url(#SVGID_2_);}
	.st2{fill:none;}
	.st3{fill:#E2E2E2;}
	.st4{fill:#FFFFFF;}
	.st5{fill:none;stroke:#E2E2E2;stroke-width:13;stroke-linecap:round;stroke-linejoin:round;stroke-miterlimit:10;}
	.st6{fill:none;stroke:#25A3DB;stroke-width:13;stroke-linecap:round;stroke-linejoin:round;stroke-miterlimit:10;}
	.st7{fill:#25A3DB;}
	.st8{fill:none;stroke:#FFFFFF;stroke-width:13;stroke-linecap:round;stroke-linejoin:round;stroke-miterlimit:10;}
	.st9{fill:none;stroke:#000000;stroke-width:2;stroke-miterlimit:10;}
	.st10{fill-rule:evenodd;clip-rule:evenodd;fill:#F9F9F9;}
	.st11{fill:#3D3D3D;}
	.st12{fill:#25A7DF;}
	.st13{fill:none;stroke:#E6E6E6;stroke-miterlimit:10;}
	.st14{fill:#E1E1E1;}
	.st15{opacity:0.8;}
	.st16{clip-path:url(#SVGID_8_);fill-rule:evenodd;clip-rule:evenodd;fill:#ECECEC;}
	.st17{fill:#9DD8FF;}
	.st18{fill:#CCCCCC;}
	.st19{fill:#0F4C81;}
	.st20{opacity:0.5;}
	.st21{clip-path:url(#SVGID_10_);fill:#9DD8FF;}
	.st22{clip-path:url(#SVGID_12_);fill:#9DD8FF;}
	.st23{clip-path:url(#SVGID_14_);fill:#9DD8FF;}
	.st24{clip-path:url(#SVGID_16_);fill:#9DD8FF;}
	.st25{clip-path:url(#SVGID_18_);fill:#9DD8FF;}
	.st26{clip-path:url(#SVGID_20_);fill:#9DD8FF;}
	.st27{clip-path:url(#SVGID_22_);fill:#9DD8FF;}
	.st28{clip-path:url(#SVGID_24_);fill:#9DD8FF;}
	.st29{fill:#E6E6E6;}
	.st30{fill:#6CB7D8;}
	.st31{fill:#82C4E8;}
	.st32{fill:#98CFF4;}
	.st33{fill:#ACDAFF;}
	.st34{fill:#808080;}
	.st35{fill:#4D4D4D;}
	.st36{fill:#FAFAFA;}
	.st37{fill:#F2F2F2;}
	.st38{fill:#CB5555;}
	.st39{fill:#FFB3B3;}
	.st40{fill:#07345F;}
	.st41{fill:#003D72;}
	.st42{fill:#CF6363;}
	.st43{fill:#174287;}
	.st44{clip-path:url(#SVGID_26_);fill-rule:evenodd;clip-rule:evenodd;fill:#ECECEC;}
	.st45{clip-path:url(#SVGID_28_);fill:#9DD8FF;}
	.st46{clip-path:url(#SVGID_30_);fill:#9DD8FF;}
	.st47{clip-path:url(#SVGID_32_);fill:#9DD8FF;}
	.st48{clip-path:url(#SVGID_34_);fill:#9DD8FF;}
	.st49{clip-path:url(#SVGID_36_);fill:#9DD8FF;}
	.st50{clip-path:url(#SVGID_38_);fill:#9DD8FF;}
	.st51{clip-path:url(#SVGID_40_);fill:#9DD8FF;}
	.st52{clip-path:url(#SVGID_42_);fill:#9DD8FF;}
	.st53{fill:#27A7DF;}
	.st54{fill:none;stroke:#E6E6E6;stroke-width:1.861;stroke-miterlimit:10;}
	.st55{fill:#C6DFFD;}
	.st56{fill:none;stroke:#25A7DF;stroke-width:1.833;stroke-miterlimit:10;}
	.st57{opacity:0.2;}
	.st58{clip-path:url(#SVGID_44_);fill:#27A7DF;}
	.st59{clip-path:url(#SVGID_46_);fill:#27A7DF;}
	.st60{clip-path:url(#SVGID_48_);fill:#27A7DF;}
	.st61{fill:#50B8E5;}
	.st62{clip-path:url(#SVGID_50_);fill:#27A7DF;}
	.st63{fill-rule:evenodd;clip-rule:evenodd;fill:#B3B3B3;}
	.st64{fill:#B3B3B3;}
	.st65{fill:#999999;}
	.st66{clip-path:url(#SVGID_52_);fill:#B3B3B3;}
	.st67{opacity:0.9;}
	.st68{opacity:0.9;clip-path:url(#SVGID_54_);}
	.st69{clip-path:url(#SVGID_56_);fill:#FFFFFF;}
	.st70{clip-path:url(#SVGID_58_);fill:#D7EBF2;}
	.st71{clip-path:url(#SVGID_60_);fill:#FFFFFF;}
	.st72{clip-path:url(#SVGID_62_);fill:#FFFFFF;}
	.st73{clip-path:url(#SVGID_54_);fill:#25A3DB;}
	.st74{clip-path:url(#SVGID_64_);fill:#FFFFFF;}
	.st75{fill:#2346B5;}
</style>
<g>
	<polygon class="st14" points="35.1,166.6 38.7,173.3 45.4,177 38.7,180.7 35.1,187.4 31.4,180.7 24.7,177 31.4,173.3 	"/>
	<polygon class="st14" points="103.7,61.3 112.2,76.8 127.6,85.2 112.2,93.7 103.7,109.1 95.3,93.7 79.9,85.2 95.3,76.8 	"/>
	<polygon class="st12" points="638.2,28.8 647.5,45.9 664.6,55.2 647.5,64.5 638.2,81.6 628.9,64.5 611.8,55.2 628.9,45.9 	"/>
	<polygon class="st12" points="710.9,55.2 715.1,62.9 722.8,67.1 715.1,71.3 710.9,79 706.7,71.3 699,67.1 706.7,62.9 	"/>
	<polygon class="st12" points="766.1,97.3 773.8,111.4 787.9,119.1 773.8,126.8 766.1,141 758.4,126.8 744.2,119.1 758.4,111.4 	"/>
	<polygon class="st14" points="710.9,102.6 713.6,107.4 718.3,110 713.6,112.6 710.9,117.4 708.3,112.6 703.6,110 708.3,107.4 	"/>
	<path class="st14" d="M452.7,210c0,0,1.3,0.1,3.5,1.1c2.1,1,5.1,3.1,6.9,7c0.9,1.9,1.5,4.2,1.4,6.7c-0.1,2.5-0.8,5.2-2.3,7.6
		c-0.7,1.2-1.7,2.3-2.8,3.3c-1.1,1-2.4,1.8-3.8,2.4c-2.8,1.3-6.1,1.6-9.3,0.9c-3.2-0.7-6-2.5-8-4.8c-1-1.2-1.8-2.4-2.4-3.8
		c-0.6-1.3-1-2.8-1.1-4.2c-0.4-2.8,0.2-5.5,1.1-7.8c1-2.3,2.5-4.1,4.1-5.5c3.3-2.7,6.9-3.4,9.2-3.4C451.5,209.5,452.7,210,452.7,210
		c0,0.1-1.3-0.3-3.6-0.2c-2.3,0.1-5.7,0.8-8.8,3.5c-1.5,1.3-3,3.1-3.9,5.3c-0.9,2.2-1.4,4.8-1,7.4c0.2,1.3,0.5,2.7,1.1,3.9
		c0.6,1.3,1.3,2.5,2.3,3.6c1.9,2.2,4.6,3.8,7.6,4.5c3,0.6,6.1,0.3,8.8-0.9c1.3-0.6,2.6-1.3,3.6-2.3c1.1-0.9,2-1.9,2.7-3.1
		c1.5-2.2,2.1-4.8,2.3-7.2c0.1-2.4-0.4-4.6-1.2-6.5c-1.7-3.7-4.5-5.9-6.5-6.9C454,210.3,452.7,210.1,452.7,210"/>
	<path class="st14" d="M464.4,194.3c0,0,0-0.2,0-0.5c0-0.4,0-0.9,0-1.6c0-1.4,0-3.5-0.1-6.2l0.1,0.1c-3.4-0.7-7.9-1.7-13.3-2.9
		l0.2-0.1c-1.1,2.3-2.2,4.8-3.5,7.5l-0.1,0.1l-0.2,0c-2.8,0.1-5.7,0.6-8.7,1.5l-0.2,0.1l-0.1-0.1c-1.8-1.8-3.8-3.8-5.9-5.8l0.4,0
		c-3.6,2.3-7.5,4.8-11.5,7.3l0.1-0.4c0.9,2.4,1.8,5,2.8,7.8l0.1,0.2l-0.1,0.2c-1.9,2-3.6,4.5-5.1,7.2l-0.1,0.2l-0.2,0
		c-2.6,0-5.4,0-8.2,0l0.4-0.3c-0.9,4.2-1.9,8.7-3,13.3l-0.2-0.4c2.3,1.1,4.9,2.3,7.4,3.5l0.2,0.1l0,0.2c0.1,2.8,0.6,5.7,1.5,8.6
		l0.1,0.2l-0.2,0.2c-1.8,1.8-3.8,3.8-5.8,5.8l0.1-0.5c2.3,3.6,4.8,7.6,7.3,11.5l-0.5-0.2c2.5-0.9,5.1-1.8,7.8-2.8l0.2-0.1l0.2,0.2
		c2,1.9,4.5,3.7,7.2,5l0,0l0,0c0.1,0.2-0.2-0.4,0.2,0.4v0v0v0v0.1v0.1l0,0.3l0,0.5l0,1l0,2.1c0,1.4,0,2.7,0,4.1l-0.3-0.4
		c4.5,1,8.9,2,13.3,3l-0.5,0.2c1.2-2.5,2.4-5,3.5-7.4l0.1-0.2l0.2,0c3-0.1,5.9-0.6,8.6-1.5l0.2-0.1l0.2,0.2c2,2,3.9,3.9,5.8,5.8
		l-0.5-0.1c3.9-2.5,7.8-4.9,11.5-7.3l-0.2,0.5c-0.9-2.6-1.9-5.2-2.8-7.8l-0.1-0.2l0.2-0.2c2-2.2,3.7-4.6,5.1-7.2l0.1-0.2h0.2
		c2.8,0,5.6,0,8.2,0l-0.3,0.3c1.1-4.7,2.1-9.1,3-13.3l0.2,0.4c-2.6-1.2-5.1-2.4-7.4-3.6l-0.2-0.1l0-0.2c-0.1-3.1-0.7-6-1.5-8.7
		l-0.1-0.2l0.1-0.1c2.1-2.1,4-4,5.8-5.8l0,0.3c-2.8-4.5-5.2-8.3-7.2-11.5l0.2,0.1c-3.1,1.1-5.7,2-7.8,2.7l-0.1,0l-0.1-0.1
		c-2.2-2-4-3.3-5.3-4.1c-0.6-0.4-1.1-0.6-1.4-0.9C464.6,194.4,464.4,194.3,464.4,194.3c0,0,0.2,0.1,0.5,0.2c0.3,0.2,0.8,0.4,1.5,0.8
		c1.3,0.8,3.2,2,5.4,4l-0.1,0c2.1-0.8,4.7-1.7,7.7-2.8l0.1-0.1l0.1,0.1c2.1,3.2,4.5,7,7.3,11.5l0.1,0.2l-0.1,0.1
		c-1.8,1.8-3.7,3.7-5.8,5.9l0.1-0.3c0.9,2.7,1.4,5.6,1.6,8.8l-0.2-0.3c2.4,1.1,4.8,2.3,7.4,3.5l0.2,0.1l-0.1,0.3
		c-0.9,4.2-1.9,8.6-3,13.3l-0.1,0.3l-0.3,0c-2.7,0-5.4,0-8.2,0l0.3-0.2c-1.4,2.6-3.1,5.1-5.2,7.4l0.1-0.4c0.9,2.5,1.8,5.1,2.8,7.8
		l0.1,0.3l-0.3,0.2c-3.7,2.4-7.6,4.8-11.5,7.3l-0.3,0.2l-0.2-0.2c-1.9-1.9-3.9-3.8-5.8-5.8l0.4,0.1c-2.8,0.9-5.8,1.4-8.9,1.5
		l0.4-0.2c-1.2,2.5-2.3,4.9-3.5,7.4l-0.1,0.3l-0.3-0.1c-4.4-1-8.8-2-13.3-3l-0.3-0.1v-0.3c0-1.4,0-2.7,0-4.1l0-2.1l0-1l0-0.5l0-0.3
		V254V254v0v0v0c0.5,0.7,0.1,0.2,0.2,0.4l0,0l0,0c-2.7-1.4-5.3-3.2-7.3-5.2l0.4,0.1c-2.7,0.9-5.3,1.9-7.8,2.8l-0.3,0.1l-0.2-0.3
		c-2.5-4-5-7.9-7.3-11.5l-0.2-0.3l0.2-0.2c2-2,4-4,5.8-5.8l-0.1,0.4c-0.9-3-1.4-6-1.5-8.9l0.2,0.3c-2.6-1.2-5.1-2.4-7.4-3.5
		l-0.3-0.1l0.1-0.3c1-4.6,2.1-9.1,3-13.3l0.1-0.3h0.3c2.9,0,5.7,0,8.2,0l-0.3,0.2c1.5-2.8,3.3-5.3,5.2-7.3l-0.1,0.4
		c-1-2.7-1.9-5.4-2.7-7.8l-0.1-0.2l0.2-0.1c4-2.5,7.9-5,11.5-7.3l0.2-0.1l0.2,0.2c2,2,4,4,5.8,5.8l-0.3-0.1c3-0.9,6-1.4,8.8-1.5
		l-0.2,0.1c1.3-2.7,2.5-5.2,3.6-7.4l0.1-0.2l0.2,0c5.4,1.2,9.9,2.3,13.3,3.1l0.1,0v0.1c0,2.6,0,4.7-0.1,6.1c0,0.7,0,1.2,0,1.6
		C464.4,194.2,464.4,194.3,464.4,194.3"/>
	<g class="st15">
		<g>
			<defs>
				<rect id="SVGID_25_" x="281.6" y="26.5" width="162.2" height="162.2"/>
			</defs>
			<clipPath id="SVGID_2_">
				<use xlink:href="#SVGID_25_"  style="overflow:visible;"/>
			</clipPath>
			<path style="clip-path:url(#SVGID_2_);fill-rule:evenodd;clip-rule:evenodd;fill:#ECECEC;" d="M393.4,48.7
				c5.3,2.8,10.1,6.2,14.4,10.1l15.4-5.5l14.4,22.8L426,87.7c1.8,5.5,2.8,11.4,3,17.3l14.7,7l-5.9,26.3l-16.3,0
				c-2.7,5.3-6.2,10.1-10.1,14.4l5.5,15.4l-22.8,14.4L382.6,171c-5.5,1.8-11.4,2.8-17.3,3l-7,14.7l-26.3-5.9l0-16.3
				c-5.3-2.7-10.1-6.2-14.4-10.1l-15.4,5.5l-14.4-22.8l11.5-11.5c-1.8-5.5-2.8-11.4-3-17.3l-14.7-7l5.9-26.3l16.3,0
				c2.7-5.3,6.2-10.1,10.1-14.4l-5.5-15.4l22.8-14.4l11.5,11.5c5.5-1.8,11.4-2.8,17.3-3l7-14.7l26.3,5.9L393.4,48.7z M370.2,79.7
				c-15.6-3.5-31.1,6.3-34.6,21.9c-3.5,15.6,6.3,31.1,21.9,34.6c15.6,3.5,31.1-6.3,34.6-21.9C395.6,98.7,385.8,83.2,370.2,79.7"/>
		</g>
	</g>
	<path class="st17" d="M408.2,416.8l-1.9,0.7l0,0c-0.3,0.1-0.7,0-0.8-0.4c-0.1-0.3,0-0.7,0.4-0.8l2-0.8c0.3-0.1,0.7,0,0.8,0.4
		C408.7,416.3,408.5,416.7,408.2,416.8L408.2,416.8z"/>
	<path class="st17" d="M400.7,420.2l-1.8,1l0,0c-0.3,0.2-0.7,0.1-0.9-0.2c-0.2-0.3-0.1-0.7,0.2-0.9l1.8-1c0.3-0.2,0.7-0.1,0.9,0.2
		C401.2,419.6,401.1,420,400.7,420.2L400.7,420.2z"/>
	<path class="st17" d="M393.9,424.7l-1.6,1.3l0,0c-0.3,0.2-0.7,0.2-0.9-0.1c-0.2-0.3-0.2-0.7,0.1-0.9l1.6-1.3
		c0.3-0.2,0.7-0.2,0.9,0.1C394.2,424.1,394.2,424.5,393.9,424.7L393.9,424.7z"/>
	<path class="st17" d="M387.7,430.1l-1.4,1.5l0,0c-0.3,0.3-0.7,0.3-0.9,0c-0.3-0.3-0.3-0.7,0-0.9l1.5-1.5c0.3-0.3,0.7-0.3,0.9,0
		C388,429.4,388,429.8,387.7,430.1L387.7,430.1z"/>
	<path class="st17" d="M382.3,436.2l-1.2,1.6l0,0c-0.2,0.3-0.6,0.3-0.9,0.1c-0.3-0.2-0.4-0.6-0.1-0.9l1.3-1.7
		c0.2-0.3,0.6-0.3,0.9-0.1C382.5,435.5,382.5,435.9,382.3,436.2L382.3,436.2z"/>
	<path class="st17" d="M377.6,443l-1.1,1.8l0,0c-0.2,0.3-0.6,0.4-0.9,0.2c-0.3-0.2-0.4-0.6-0.2-0.9l1.1-1.8c0.2-0.3,0.6-0.4,0.9-0.2
		S377.8,442.6,377.6,443L377.6,443z"/>
	<path class="st17" d="M373.6,450.2l-0.9,1.9l0,0c-0.2,0.3-0.6,0.5-0.9,0.3c-0.3-0.2-0.5-0.6-0.3-0.9l0.9-1.9
		c0.2-0.3,0.6-0.5,0.9-0.3C373.6,449.4,373.8,449.8,373.6,450.2L373.6,450.2z"/>
	<path class="st17" d="M370.5,457.7l-0.7,1.9l0,0c-0.1,0.4-0.5,0.6-0.9,0.4c-0.4-0.1-0.6-0.5-0.4-0.9l0.7-2c0.1-0.4,0.5-0.6,0.9-0.4
		C370.4,457,370.6,457.4,370.5,457.7L370.5,457.7z"/>
	<path class="st17" d="M368.1,465.6l-0.5,2l0,0c-0.1,0.4-0.5,0.6-0.8,0.5c-0.4-0.1-0.6-0.5-0.5-0.8l0.5-2c0.1-0.4,0.5-0.6,0.8-0.5
		C368,464.8,368.2,465.2,368.1,465.6L368.1,465.6z"/>
	<path class="st17" d="M366.6,473.7l-0.2,2l0,0c0,0.4-0.4,0.7-0.8,0.6c-0.4,0-0.7-0.4-0.6-0.8l0.3-2.1c0-0.4,0.4-0.7,0.8-0.6
		C366.4,472.9,366.6,473.3,366.6,473.7L366.6,473.7z"/>
	<path class="st17" d="M365.9,481.9l0,2.1v0c0,0.4-0.3,0.7-0.7,0.7c-0.4,0-0.7-0.3-0.7-0.7l0-2.1c0-0.4,0.3-0.7,0.7-0.7
		C365.6,481.1,365.9,481.4,365.9,481.9L365.9,481.9z"/>
	<path class="st17" d="M366.2,490.1l0.2,2l0,0c0,0.4-0.3,0.8-0.7,0.8c-0.4,0-0.8-0.3-0.8-0.7l-0.2-2.1c0-0.4,0.3-0.8,0.7-0.8
		C365.8,489.3,366.2,489.6,366.2,490.1L366.2,490.1z"/>
	<path class="st17" d="M367.3,498.2l0.4,2l0,0c0.1,0.4-0.2,0.8-0.6,0.9c-0.4,0.1-0.8-0.2-0.9-0.6l-0.4-2.1c-0.1-0.4,0.2-0.8,0.6-0.9
		C366.8,497.5,367.2,497.8,367.3,498.2L367.3,498.2z"/>
	<path class="st17" d="M369.2,506.2l0.6,2l0,0c0.1,0.4-0.1,0.8-0.5,0.9c-0.4,0.1-0.8-0.1-0.9-0.5l-0.6-2c-0.1-0.4,0.1-0.8,0.5-0.9
		C368.7,505.5,369.1,505.8,369.2,506.2L369.2,506.2z"/>
	<path class="st17" d="M372,513.9l0.8,1.9l0,0c0.2,0.4,0,0.8-0.4,1c-0.4,0.2-0.8,0-1-0.4l-0.8-1.9c-0.2-0.4,0-0.8,0.4-1
		C371.3,513.3,371.8,513.5,372,513.9L372,513.9z"/>
	<path class="st17" d="M375.4,521.4l1,1.8l0,0c0.2,0.4,0.1,0.8-0.3,1c-0.4,0.2-0.8,0.1-1-0.3l-1-1.8c-0.2-0.4-0.1-0.8,0.3-1
		C374.7,520.8,375.2,521,375.4,521.4L375.4,521.4z"/>
	<path class="st17" d="M379.5,528.5l1.1,1.7l0,0c0.2,0.4,0.1,0.8-0.2,1.1c-0.4,0.2-0.8,0.1-1.1-0.2l-1.2-1.7
		c-0.2-0.4-0.1-0.8,0.2-1.1C378.8,528,379.3,528.1,379.5,528.5L379.5,528.5z"/>
	<path class="st17" d="M384.3,535.2l1.3,1.6l0,0c0.3,0.3,0.2,0.8-0.1,1.1c-0.3,0.3-0.8,0.2-1.1-0.1l-1.3-1.6
		c-0.3-0.3-0.2-0.8,0.1-1.1C383.5,534.8,384,534.8,384.3,535.2L384.3,535.2z"/>
	<path class="st17" d="M389.7,541.4l1.4,1.5l0,0c0.3,0.3,0.3,0.8,0,1.1s-0.8,0.3-1.1,0l-1.5-1.5c-0.3-0.3-0.3-0.8,0-1.1
		C388.8,541,389.4,541,389.7,541.4L389.7,541.4z"/>
	<path class="st17" d="M395.6,547l1.6,1.3l0,0c0.3,0.3,0.4,0.8,0.1,1.1c-0.3,0.3-0.8,0.4-1.1,0.1l-1.6-1.4c-0.3-0.3-0.4-0.8-0.1-1.1
		C394.8,546.8,395.3,546.7,395.6,547L395.6,547z"/>
	<path class="st17" d="M402.1,552l1.7,1.1l0,0c0.4,0.3,0.5,0.8,0.2,1.1c-0.3,0.4-0.8,0.5-1.1,0.2l-1.7-1.2c-0.4-0.3-0.5-0.8-0.2-1.1
		C401.2,551.9,401.7,551.8,402.1,552L402.1,552z"/>
	<path class="st17" d="M409.1,556.4l1.8,1l0,0c0.4,0.2,0.6,0.7,0.3,1.1c-0.2,0.4-0.7,0.6-1.1,0.3c-0.6-0.3-1.2-0.6-1.9-1
		c-0.4-0.2-0.5-0.7-0.3-1.1C408.2,556.3,408.7,556.1,409.1,556.4L409.1,556.4z"/>
	<path class="st17" d="M416.5,559.9l1.9,0.8l0,0c0.4,0.2,0.6,0.7,0.5,1.1c-0.2,0.4-0.7,0.6-1.1,0.5l-1.9-0.8
		c-0.4-0.2-0.6-0.7-0.5-1.1C415.5,559.9,416,559.7,416.5,559.9L416.5,559.9z"/>
	<path class="st17" d="M424.2,562.7l2,0.6l0,0c0.4,0.1,0.7,0.6,0.6,1c-0.1,0.4-0.6,0.7-1,0.6l-2-0.6c-0.4-0.1-0.7-0.6-0.6-1
		C423.2,562.8,423.7,562.5,424.2,562.7L424.2,562.7z"/>
	<path class="st17" d="M432.1,564.7l2,0.4l0,0c0.5,0.1,0.8,0.5,0.7,1c-0.1,0.5-0.5,0.8-1,0.7l-2.1-0.4c-0.5-0.1-0.8-0.5-0.7-1
		C431.2,564.9,431.6,564.6,432.1,564.7L432.1,564.7z"/>
	<path class="st17" d="M440.2,565.9l2,0.2l0,0c0.5,0,0.8,0.5,0.8,0.9c0,0.5-0.5,0.8-0.9,0.8l-2.1-0.2c-0.5,0-0.8-0.5-0.8-0.9
		S439.7,565.8,440.2,565.9L440.2,565.9z"/>
	<path class="st17" d="M448.4,566.3l2.1,0h0c0.5,0,0.9,0.4,0.9,0.9c0,0.5-0.4,0.9-0.9,0.9l-2.1,0c-0.5,0-0.9-0.4-0.9-0.9
		C447.5,566.7,447.9,566.3,448.4,566.3L448.4,566.3z"/>
	<path class="st17" d="M456.6,566l2-0.2l0,0c0.5,0,0.9,0.3,1,0.8c0,0.5-0.3,0.9-0.8,1l-2.1,0.2c-0.5,0-0.9-0.3-1-0.8
		C455.8,566.4,456.1,566,456.6,566L456.6,566z"/>
	<path class="st17" d="M464.8,564.9l2-0.4l0,0c0.5-0.1,0.9,0.2,1,0.7s-0.2,0.9-0.7,1l-2.1,0.4c-0.5,0.1-0.9-0.2-1-0.7
		C464,565.4,464.3,565,464.8,564.9L464.8,564.9z"/>
	<path class="st17" d="M472.8,563.1l2-0.5l0,0c0.5-0.1,1,0.1,1.1,0.6c0.1,0.5-0.1,1-0.6,1.1l-2,0.6c-0.5,0.1-1-0.1-1.1-0.6
		C472,563.7,472.3,563.3,472.8,563.1L472.8,563.1z"/>
	<path class="st17" d="M480.6,560.7l1.9-0.7l0,0c0.5-0.2,1,0.1,1.1,0.5c0.2,0.5-0.1,1-0.5,1.1l-2,0.7c-0.5,0.2-1-0.1-1.1-0.5
		C479.9,561.4,480.1,560.8,480.6,560.7L480.6,560.7z"/>
	<path class="st17" d="M488.2,557.5l1.9-0.9l0,0c0.4-0.2,1,0,1.2,0.4c0.2,0.4,0,1-0.4,1.2l-1.9,0.9c-0.4,0.2-1,0-1.2-0.4
		C487.6,558.3,487.8,557.8,488.2,557.5L488.2,557.5z"/>
	<path class="st17" d="M495.5,553.8l1.8-1l0,0c0.4-0.2,1-0.1,1.2,0.3c0.2,0.4,0.1,1-0.3,1.2l-1.8,1c-0.4,0.2-1,0.1-1.2-0.3
		C494.9,554.6,495.1,554.1,495.5,553.8L495.5,553.8z"/>
	<path class="st17" d="M502.6,549.5l1.7-1.1l0,0c0.4-0.3,1-0.2,1.2,0.2c0.3,0.4,0.2,1-0.2,1.2l-1.7,1.2c-0.4,0.3-1,0.2-1.2-0.2
		C502,550.4,502.1,549.8,502.6,549.5L502.6,549.5z"/>
	<path class="st17" d="M509.3,544.8l1.6-1.2l0,0c0.4-0.3,1-0.2,1.2,0.2c0.3,0.4,0.2,1-0.2,1.2l-1.7,1.3c-0.4,0.3-1,0.2-1.2-0.2
		C508.8,545.7,508.9,545.1,509.3,544.8L509.3,544.8z"/>
	<path class="st17" d="M515.7,539.7l1.6-1.3l0,0c0.4-0.3,0.9-0.3,1.3,0.1c0.3,0.4,0.3,0.9-0.1,1.3l-1.6,1.4
		c-0.4,0.3-0.9,0.3-1.3-0.1C515.3,540.6,515.4,540,515.7,539.7L515.7,539.7z"/>
	<path class="st17" d="M521.9,534.2l1.5-1.4l0,0c0.4-0.3,0.9-0.3,1.3,0c0.3,0.4,0.3,0.9,0,1.3l-1.5,1.4c-0.4,0.3-0.9,0.3-1.3,0
		C521.5,535.1,521.6,534.6,521.9,534.2L521.9,534.2z"/>
	<path class="st17" d="M527.9,528.5l1.4-1.5l0,0c0.3-0.4,0.9-0.4,1.3,0c0.4,0.3,0.4,0.9,0,1.3l-1.5,1.5c-0.3,0.4-0.9,0.4-1.3,0
		C527.5,529.4,527.5,528.9,527.9,528.5L527.9,528.5z"/>
	<path class="st17" d="M533.6,522.5l1.4-1.5l0,0c0.3-0.4,0.9-0.4,1.3,0c0.4,0.3,0.4,0.9,0.1,1.3l-1.4,1.5c-0.3,0.4-0.9,0.4-1.3,0
		C533.3,523.5,533.2,522.9,533.6,522.5L533.6,522.5z"/>
	<path class="st17" d="M539.1,516.4l1.4-1.6c0.3-0.4,0.9-0.4,1.3-0.1c0.4,0.3,0.4,0.9,0.1,1.3l-1.4,1.6c-0.3,0.4-0.9,0.4-1.3,0.1
		C538.8,517.4,538.8,516.8,539.1,516.4"/>
	<path class="st17" d="M544.5,510.2l1.3-1.6c0.3-0.4,0.9-0.4,1.3-0.1c0.4,0.3,0.4,0.9,0.1,1.3l-1.3,1.6c-0.3,0.4-0.9,0.4-1.3,0.1
		C544.3,511.1,544.2,510.5,544.5,510.2"/>
	<path class="st17" d="M549.8,503.8l1.3-1.6c0.3-0.4,0.9-0.4,1.3-0.1c0.4,0.3,0.4,0.9,0.1,1.3l-1.3,1.6c-0.3,0.4-0.9,0.4-1.3,0.1
		C549.6,504.8,549.5,504.2,549.8,503.8"/>
	<path class="st17" d="M555.1,497.4l1.3-1.6c0.3-0.4,0.9-0.5,1.3-0.1c0.4,0.3,0.5,0.9,0.1,1.3l-1.3,1.6c-0.3,0.4-0.9,0.5-1.3,0.1
		C554.8,498.4,554.8,497.8,555.1,497.4"/>
	<path class="st17" d="M560.3,490.9l1.3-1.6c0.3-0.4,0.9-0.5,1.3-0.1c0.4,0.3,0.5,0.9,0.1,1.3l-1.3,1.6c-0.3,0.4-0.9,0.5-1.3,0.1
		C560,491.9,560,491.3,560.3,490.9"/>
	<path class="st17" d="M565.5,484.5l1.3-1.6c0.3-0.4,0.9-0.5,1.3-0.1c0.4,0.3,0.5,0.9,0.1,1.3l-1.3,1.6c-0.3,0.4-0.9,0.5-1.3,0.1
		C565.2,485.5,565.2,484.9,565.5,484.5"/>
	<path class="st17" d="M570.7,478.1l1.3-1.6c0.3-0.4,0.9-0.4,1.3-0.1c0.4,0.3,0.4,0.9,0.1,1.3l-1.3,1.6c-0.3,0.4-0.9,0.4-1.3,0.1
		C570.4,479,570.4,478.5,570.7,478.1"/>
	<path class="st17" d="M576,471.7l1.3-1.6c0.3-0.4,0.9-0.4,1.3-0.1c0.4,0.3,0.4,0.9,0.1,1.3l-1.3,1.6c-0.3,0.4-0.9,0.4-1.3,0.1
		C575.7,472.7,575.7,472.1,576,471.7"/>
	<path class="st17" d="M581.5,465.4l1.4-1.6c0.3-0.4,0.9-0.4,1.3-0.1c0.4,0.3,0.4,0.9,0.1,1.3l-1.4,1.6c-0.3,0.4-0.9,0.4-1.3,0.1
		C581.1,466.4,581.1,465.8,581.5,465.4"/>
	<path class="st17" d="M587,459.2l1.4-1.5c0.3-0.4,0.9-0.4,1.3,0c0.4,0.3,0.4,0.9,0,1.3l0,0l-1.4,1.5l0,0c-0.3,0.4-0.9,0.4-1.3,0
		C586.7,460.2,586.7,459.6,587,459.2"/>
	<path class="st17" d="M592.8,453.2l1.5-1.5c0.4-0.4,0.9-0.4,1.3,0c0.4,0.4,0.4,0.9,0,1.3l0,0l-1.5,1.5l0,0c-0.4,0.4-0.9,0.4-1.3,0
		C592.4,454.2,592.4,453.6,592.8,453.2"/>
	<path class="st17" d="M598.7,447.4l1.5-1.4c0.4-0.3,1-0.3,1.3,0c0.3,0.4,0.3,1,0,1.3l0,0l-1.5,1.4l0,0c-0.4,0.3-1,0.3-1.3,0
		C598.3,448.3,598.3,447.7,598.7,447.4"/>
	<path class="st17" d="M604.9,441.8l1.6-1.3c0.4-0.3,1-0.3,1.3,0.1c0.3,0.4,0.3,1-0.1,1.3l0,0l-1.6,1.3l0,0c-0.4,0.3-1,0.3-1.3-0.1
		C604.5,442.8,604.5,442.2,604.9,441.8"/>
	<path class="st17" d="M611.4,436.6l1.7-1.3c0.4-0.3,1-0.2,1.3,0.2c0.3,0.4,0.2,1-0.2,1.3l0,0l-1.6,1.2l0,0c-0.4,0.3-1,0.2-1.3-0.2
		C610.9,437.5,611,436.9,611.4,436.6"/>
	<path class="st17" d="M618.2,431.7l1.7-1.2c0.4-0.3,1-0.2,1.3,0.3c0.3,0.4,0.2,1-0.3,1.3l0,0l-1.7,1.1l0,0c-0.4,0.3-1,0.2-1.3-0.3
		C617.6,432.6,617.7,432,618.2,431.7"/>
	<path class="st17" d="M625.2,427.2l1.8-1c0.4-0.3,1-0.1,1.3,0.3c0.3,0.4,0.1,1-0.3,1.3l0,0l-1.8,1l0,0c-0.4,0.3-1,0.1-1.3-0.3
		C624.6,428.1,624.8,427.5,625.2,427.2"/>
	<path class="st17" d="M632.5,423.2l1.9-0.9c0.5-0.2,1,0,1.3,0.4c0.2,0.5,0,1-0.4,1.3l0,0l-1.8,0.9l0,0c-0.5,0.2-1,0-1.3-0.4
		C631.9,424,632.1,423.4,632.5,423.2"/>
	<path class="st17" d="M640,419.6l1.9-0.8c0.5-0.2,1,0,1.2,0.5c0.2,0.5,0,1-0.5,1.2l0,0l-1.9,0.8l0,0c-0.5,0.2-1,0-1.2-0.5
		C639.4,420.4,639.6,419.8,640,419.6"/>
	<path class="st17" d="M647.8,416.5l2-0.7c0.5-0.2,1,0.1,1.2,0.6c0.2,0.5-0.1,1-0.6,1.2l0,0l-1.9,0.7l0,0c-0.5,0.2-1-0.1-1.2-0.6
		C647,417.2,647.3,416.7,647.8,416.5"/>
	<path class="st17" d="M655.7,413.8l2-0.6c0.5-0.1,1,0.1,1.2,0.6c0.1,0.5-0.1,1-0.6,1.2l0,0l-2,0.6l0,0c-0.5,0.1-1-0.1-1.2-0.6
		C654.9,414.5,655.2,414,655.7,413.8"/>
	<path class="st17" d="M663.7,411.6l2-0.5c0.5-0.1,1,0.2,1.1,0.7c0.1,0.5-0.2,1-0.7,1.1l0,0l-2,0.5l0,0c-0.5,0.1-1-0.2-1.1-0.7
		C662.9,412.3,663.2,411.8,663.7,411.6"/>
	<path class="st17" d="M671.9,409.9l2.1-0.4c0.5-0.1,1,0.3,1.1,0.8c0.1,0.5-0.3,1-0.8,1.1l0,0l-2,0.4l0,0c-0.5,0.1-1-0.3-1.1-0.8
		C671,410.5,671.4,410,671.9,409.9"/>
	<path class="st17" d="M680.1,408.7l2.1-0.2c0.5-0.1,1,0.3,1,0.8c0.1,0.5-0.3,1-0.8,1l0,0l-2,0.2l0,0c-0.5,0.1-1-0.3-1-0.8
		C679.2,409.2,679.6,408.7,680.1,408.7"/>
	<path class="st17" d="M688.4,407.9l2.1-0.1c0.5,0,1,0.4,1,0.9c0,0.5-0.4,1-0.9,1h0l-2.1,0.1l0,0c-0.5,0-1-0.4-1-0.9
		C687.5,408.4,687.9,407.9,688.4,407.9"/>
	<path class="st17" d="M696.8,407.6h2.1c0.5,0,1,0.4,1,1c0,0.5-0.4,1-1,1h0l-2.1,0h0c-0.5,0-1-0.4-1-1
		C695.8,408,696.3,407.6,696.8,407.6"/>
	<path class="st17" d="M705.1,407.8l2.1,0.1c0.5,0,0.9,0.5,0.9,1c0,0.5-0.5,0.9-1,0.9l0,0l-2.1-0.1l0,0c-0.5,0-0.9-0.5-0.9-1
		C704.1,408.1,704.6,407.7,705.1,407.8"/>
	<path class="st17" d="M713.4,408.4l2.1,0.2c0.5,0.1,0.9,0.5,0.8,1.1c-0.1,0.5-0.5,0.9-1.1,0.8l0,0l-2-0.2l0,0
		c-0.5-0.1-0.9-0.5-0.8-1.1C712.4,408.7,712.9,408.4,713.4,408.4"/>
	<path class="st17" d="M721.7,409.6l2.1,0.4c0.5,0.1,0.9,0.6,0.8,1.1c-0.1,0.5-0.6,0.9-1.1,0.8l0,0l-2-0.4l0,0
		c-0.5-0.1-0.9-0.6-0.8-1.1C720.7,409.8,721.2,409.5,721.7,409.6"/>
	<path class="st17" d="M729.9,411.2l2,0.5c0.5,0.1,0.8,0.6,0.7,1.2s-0.6,0.8-1.2,0.7l0,0l-2-0.5l0,0c-0.5-0.1-0.8-0.6-0.7-1.2
		C728.8,411.4,729.4,411.1,729.9,411.2"/>
	<path class="st17" d="M738,413.3l2,0.6c0.5,0.2,0.8,0.7,0.6,1.2c-0.2,0.5-0.7,0.8-1.2,0.6l0,0l-2-0.6l0,0c-0.5-0.2-0.8-0.7-0.6-1.2
		C736.9,413.4,737.4,413.1,738,413.3"/>
	<path class="st17" d="M745.9,415.9l2,0.7c0.5,0.2,0.8,0.7,0.6,1.2c-0.2,0.5-0.7,0.8-1.2,0.6l0,0l-1.9-0.7l0,0
		c-0.5-0.2-0.8-0.7-0.6-1.2C744.8,415.9,745.4,415.7,745.9,415.9"/>
	<path class="st17" d="M753.7,418.9l1.9,0.8c0.5,0.2,0.7,0.8,0.5,1.3c-0.2,0.5-0.8,0.7-1.3,0.5l0,0l-1.9-0.8l0,0
		c-0.5-0.2-0.7-0.8-0.5-1.3C752.6,418.9,753.2,418.7,753.7,418.9"/>
	<path class="st17" d="M761.2,422.4l1.9,1c0.5,0.2,0.7,0.8,0.4,1.3c-0.2,0.5-0.8,0.7-1.3,0.4l0,0l-1.8-0.9l0,0
		c-0.5-0.2-0.7-0.8-0.4-1.3C760.2,422.4,760.7,422.2,761.2,422.4"/>
	<path class="st17" d="M768.6,426.4l1.8,1.1c0.5,0.3,0.6,0.9,0.3,1.3c-0.3,0.5-0.9,0.6-1.3,0.3l0,0l-1.8-1l0,0
		c-0.5-0.3-0.6-0.9-0.3-1.3C767.5,426.3,768.1,426.1,768.6,426.4"/>
	<path class="st17" d="M775.7,430.8l1.7,1.2c0.4,0.3,0.6,0.9,0.3,1.4c-0.3,0.4-0.9,0.6-1.4,0.3l0,0l-1.7-1.2l0,0
		c-0.4-0.3-0.6-0.9-0.3-1.3C774.6,430.6,775.2,430.5,775.7,430.8"/>
	<path class="st17" d="M782.5,435.6l1.7,1.2c0.4,0.3,0.5,0.9,0.2,1.4c-0.3,0.4-0.9,0.5-1.4,0.2l0,0l-1.7-1.2l0,0
		c-0.4-0.3-0.5-0.9-0.2-1.4S782,435.3,782.5,435.6"/>
	<path class="st17" d="M789.1,440.6l1.6,1.3c0.4,0.3,0.5,0.9,0.2,1.4c-0.3,0.4-0.9,0.5-1.4,0.2l-1.6-1.3c-0.4-0.3-0.5-0.9-0.2-1.4
		C788,440.4,788.7,440.3,789.1,440.6"/>
	<path class="st17" d="M795.6,445.7l1.6,1.3c0.4,0.3,0.5,0.9,0.2,1.4c-0.3,0.4-0.9,0.5-1.4,0.2l-1.6-1.3c-0.4-0.3-0.5-0.9-0.2-1.4
		C794.6,445.5,795.2,445.4,795.6,445.7"/>
	<path class="st17" d="M802.1,450.8l1.6,1.2l0,0c0.4,0.3,0.5,0.9,0.2,1.4c-0.3,0.4-0.9,0.5-1.4,0.2l-1.7-1.3
		c-0.4-0.3-0.5-0.9-0.2-1.4C801.1,450.6,801.7,450.5,802.1,450.8L802.1,450.8z"/>
	<path class="st17" d="M808.8,455.7l1.7,1.2l0,0c0.4,0.3,0.5,0.9,0.2,1.4c-0.3,0.4-0.9,0.5-1.4,0.2l-1.7-1.2
		c-0.4-0.3-0.5-0.9-0.2-1.4C807.7,455.5,808.3,455.4,808.8,455.7L808.8,455.7z"/>
	<path class="st17" d="M815.6,460.4l1.7,1.1l0,0c0.5,0.3,0.6,0.9,0.3,1.4c-0.3,0.5-0.9,0.6-1.4,0.3l-1.8-1.1
		c-0.5-0.3-0.6-0.9-0.3-1.4C814.5,460.2,815.1,460.1,815.6,460.4L815.6,460.4z"/>
	<path class="st17" d="M822.7,464.5l1.8,0.9l0,0c0.5,0.2,0.7,0.8,0.4,1.3c-0.2,0.5-0.8,0.7-1.3,0.4l-1.9-1c-0.5-0.2-0.7-0.8-0.4-1.3
		C821.6,464.4,822.2,464.2,822.7,464.5L822.7,464.5z"/>
	<path class="st17" d="M830.1,467.9l1.9,0.7l0,0c0.5,0.2,0.8,0.8,0.6,1.3c-0.2,0.5-0.8,0.8-1.3,0.6l-2-0.7c-0.5-0.2-0.8-0.8-0.6-1.3
		C829,468,829.6,467.7,830.1,467.9L830.1,467.9z"/>
	<path class="st17" d="M837.9,470.4l2,0.4l0,0c0.5,0.1,0.9,0.7,0.7,1.2c-0.1,0.5-0.7,0.9-1.2,0.7l-2.1-0.5c-0.5-0.1-0.9-0.7-0.7-1.2
		C836.8,470.6,837.3,470.3,837.9,470.4L837.9,470.4z"/>
	<path class="st17" d="M845.9,471.7c0.7,0.1,1.3,0.1,2,0.1l0,0c0.5,0,1,0.5,0.9,1.1c0,0.5-0.5,1-1.1,0.9c-0.7,0-1.4-0.1-2.1-0.1
		c-0.5,0-1-0.5-0.9-1.1C844.8,472.1,845.3,471.7,845.9,471.7"/>
	<path class="st17" d="M854,471.7l2-0.2l0,0c0.5-0.1,1,0.3,1.1,0.9c0.1,0.5-0.3,1-0.9,1.1l-2.1,0.3c-0.5,0.1-1-0.3-1.1-0.9
		C853,472.2,853.4,471.7,854,471.7L854,471.7z"/>
	<path class="st17" d="M861.9,470.2l1.9-0.6l0,0c0.5-0.2,1.1,0.1,1.2,0.7c0.2,0.5-0.1,1.1-0.7,1.2l-2,0.6c-0.5,0.2-1.1-0.1-1.2-0.7
		C861.1,470.9,861.4,470.4,861.9,470.2L861.9,470.2z"/>
	<path class="st17" d="M869.6,467.4l1.8-0.9l0,0c0.5-0.2,1.1,0,1.3,0.5c0.2,0.5,0,1.1-0.5,1.3l-1.9,0.9c-0.5,0.2-1.1,0-1.3-0.5
		C868.8,468.3,869,467.7,869.6,467.4L869.6,467.4z"/>
	<path class="st17" d="M876.7,463.5l1.7-1.1l0,0c0.5-0.3,1.1-0.2,1.4,0.3c0.3,0.5,0.2,1.1-0.3,1.4l-1.8,1.2
		c-0.5,0.3-1.1,0.2-1.4-0.3C876.1,464.5,876.2,463.8,876.7,463.5L876.7,463.5z"/>
	<path class="st17" d="M883.3,458.7l1.5-1.3l0,0c0.4-0.4,1.1-0.3,1.4,0.1s0.3,1.1-0.1,1.4l-1.6,1.4c-0.4,0.4-1.1,0.3-1.4-0.1
		C882.8,459.7,882.8,459.1,883.3,458.7L883.3,458.7z"/>
	<path class="st17" d="M889.2,453.1l1.4-1.5l0,0c0.4-0.4,1-0.4,1.4-0.1c0.4,0.4,0.4,1,0.1,1.4l-1.4,1.6c-0.4,0.4-1,0.4-1.4,0.1
		C888.8,454.1,888.8,453.5,889.2,453.1L889.2,453.1z"/>
	<path class="st17" d="M894.4,446.8l1.2-1.7l0,0c0.3-0.5,1-0.6,1.4-0.2c0.5,0.3,0.6,1,0.2,1.4L896,448c-0.3,0.5-1,0.6-1.4,0.2
		C894.2,447.9,894.1,447.3,894.4,446.8L894.4,446.8z"/>
	<path class="st17" d="M898.9,439.9l1-1.8l0,0c0.3-0.5,0.9-0.7,1.4-0.4c0.5,0.3,0.7,0.9,0.4,1.4l-1,1.8c-0.3,0.5-0.9,0.7-1.4,0.4
		C898.8,441.1,898.6,440.5,898.9,439.9L898.9,439.9z"/>
	<path class="st17" d="M902.6,432.7l0.8-1.9l0,0c0.2-0.5,0.8-0.8,1.3-0.5c0.5,0.2,0.8,0.8,0.5,1.3l-0.8,1.9
		c-0.2,0.5-0.8,0.8-1.3,0.5C902.6,433.8,902.4,433.2,902.6,432.7L902.6,432.7z"/>
	<path class="st17" d="M905.4,425l0.6-2l0,0c0.2-0.5,0.7-0.8,1.3-0.7c0.5,0.2,0.8,0.7,0.7,1.3l-0.6,2c-0.2,0.5-0.7,0.8-1.3,0.7
		C905.6,426.1,905.3,425.6,905.4,425L905.4,425z"/>
	<path class="st17" d="M907.4,417.1l0.4-2l0,0c0.1-0.6,0.6-0.9,1.2-0.8c0.6,0.1,0.9,0.6,0.8,1.2l-0.4,2.1c-0.1,0.6-0.6,0.9-1.2,0.8
		C907.7,418.2,907.3,417.6,907.4,417.1L907.4,417.1z"/>
	<path class="st17" d="M908.6,409l0.2-2l0,0c0-0.6,0.5-1,1.1-0.9c0.6,0,1,0.5,0.9,1.1l-0.2,2.1c0,0.6-0.5,1-1.1,0.9
		C908.9,410,908.5,409.5,908.6,409L908.6,409z"/>
	<path class="st17" d="M909,400.8l0-2v0c0-0.6,0.5-1,1-1c0.6,0,1,0.5,1,1l0,2.1c0,0.6-0.5,1-1,1C909.4,401.8,909,401.4,909,400.8
		L909,400.8z"/>
	<path class="st17" d="M908.7,392.6l-0.2-2l0,0c-0.1-0.6,0.4-1.1,0.9-1.1c0.6-0.1,1.1,0.4,1.1,0.9l0.2,2.1c0.1,0.6-0.4,1.1-0.9,1.1
		C909.2,393.6,908.7,393.2,908.7,392.6L908.7,392.6z"/>
	<path class="st17" d="M907.7,384.4l-0.4-2l0,0c-0.1-0.6,0.3-1.1,0.8-1.2c0.6-0.1,1.1,0.3,1.2,0.8l0.4,2.1c0.1,0.6-0.3,1.1-0.8,1.2
		C908.3,385.4,907.8,385,907.7,384.4L907.7,384.4z"/>
	<path class="st17" d="M906,376.4l-0.5-2l0,0c-0.1-0.5,0.2-1.1,0.7-1.2c0.5-0.1,1.1,0.2,1.2,0.7l0.5,2c0.1,0.5-0.2,1.1-0.7,1.2
		C906.7,377.3,906.2,377,906,376.4L906,376.4z"/>
	<path class="st17" d="M903.8,368.5l-0.7-1.9l0,0c-0.2-0.5,0.1-1.1,0.6-1.3c0.5-0.2,1.1,0.1,1.3,0.6l0.7,2c0.2,0.5-0.1,1.1-0.6,1.3
		C904.6,369.4,904,369.1,903.8,368.5L903.8,368.5z"/>
	<path class="st17" d="M901,360.8l-0.8-1.9l0,0c-0.2-0.5,0-1.1,0.6-1.3c0.5-0.2,1.1,0,1.3,0.6l0.8,1.9c0.2,0.5,0,1.1-0.6,1.3
		C901.8,361.6,901.2,361.3,901,360.8L901,360.8z"/>
	<path class="st17" d="M897.6,353.3l-0.9-1.8l0,0c-0.3-0.5-0.1-1.1,0.5-1.4c0.5-0.3,1.1-0.1,1.4,0.5l0.9,1.9
		c0.3,0.5,0.1,1.1-0.5,1.4C898.5,354,897.9,353.8,897.6,353.3L897.6,353.3z"/>
	<path class="st17" d="M893.7,346.1l-1.1-1.8l0,0c-0.3-0.5-0.1-1.1,0.4-1.4c0.5-0.3,1.1-0.1,1.4,0.4l1.1,1.8
		c0.3,0.5,0.1,1.1-0.4,1.4C894.6,346.8,894,346.6,893.7,346.1L893.7,346.1z"/>
	<path class="st17" d="M889.3,339.2l-1.2-1.7l0,0c-0.3-0.5-0.2-1.1,0.2-1.4c0.5-0.3,1.1-0.2,1.4,0.2l1.2,1.7
		c0.3,0.5,0.2,1.1-0.2,1.4C890.3,339.8,889.6,339.7,889.3,339.2L889.3,339.2z"/>
	<path class="st17" d="M884.3,332.7l-1.3-1.6l0,0c-0.4-0.4-0.3-1.1,0.1-1.4c0.4-0.4,1.1-0.3,1.4,0.1l1.3,1.6
		c0.4,0.4,0.3,1.1-0.1,1.4C885.3,333.1,884.7,333.1,884.3,332.7L884.3,332.7z"/>
	<path class="st17" d="M878.9,326.5l-1.4-1.5l0,0c-0.4-0.4-0.4-1,0-1.4c0.4-0.4,1-0.4,1.4,0l1.4,1.5c0.4,0.4,0.4,1,0,1.4
		S879.3,326.9,878.9,326.5L878.9,326.5z"/>
	<path class="st17" d="M873.1,320.5l-1.5-1.4l0,0c-0.4-0.4-0.4-1,0-1.4c0.4-0.4,1-0.4,1.4,0l1.5,1.5c0.4,0.4,0.4,1,0,1.4
		C874.2,320.9,873.5,320.9,873.1,320.5L873.1,320.5z"/>
	<path class="st17" d="M867.2,314.8l-1.5-1.4l0,0c-0.4-0.4-0.4-1-0.1-1.4c0.4-0.4,1-0.4,1.4-0.1l1.5,1.4c0.4,0.4,0.4,1,0.1,1.4
		C868.2,315.1,867.6,315.2,867.2,314.8L867.2,314.8z"/>
	<path class="st17" d="M861.1,309.3l-1.6-1.4l0,0c-0.4-0.3-0.4-0.9-0.1-1.3c0.3-0.4,0.9-0.4,1.3-0.1l1.6,1.4
		c0.4,0.3,0.4,0.9,0.1,1.3C862.1,309.6,861.5,309.6,861.1,309.3L861.1,309.3z"/>
	<path class="st17" d="M854.8,303.9l-1.6-1.3l0,0c-0.4-0.3-0.4-0.9-0.1-1.3c0.3-0.4,0.9-0.4,1.3-0.1l1.6,1.3
		c0.4,0.3,0.5,0.9,0.1,1.3S855.2,304.2,854.8,303.9C854.8,303.9,854.8,303.9,854.8,303.9L854.8,303.9z"/>
	<path class="st17" d="M848.4,298.6l-1.6-1.3c-0.4-0.3-0.4-0.8-0.1-1.2c0.3-0.4,0.8-0.4,1.2-0.1l1.6,1.3c0.4,0.3,0.4,0.8,0.2,1.2
		C849.4,298.9,848.8,298.9,848.4,298.6L848.4,298.6L848.4,298.6z"/>
	<path class="st17" d="M841.9,293.5l-1.6-1.3c-0.4-0.3-0.4-0.8-0.2-1.1c0.3-0.4,0.8-0.4,1.1-0.2l1.7,1.2c0.4,0.3,0.4,0.8,0.2,1.2
		C842.8,293.7,842.3,293.8,841.9,293.5C841.9,293.5,841.9,293.5,841.9,293.5L841.9,293.5z"/>
	<path class="st17" d="M835.3,288.6l-1.7-1.2c-0.3-0.2-0.4-0.7-0.2-1.1c0.2-0.3,0.7-0.4,1.1-0.2l1.7,1.2c0.3,0.2,0.4,0.7,0.2,1.1
		C836.1,288.7,835.7,288.8,835.3,288.6C835.3,288.6,835.3,288.6,835.3,288.6L835.3,288.6z"/>
	<path class="st17" d="M828.5,283.8l-1.7-1.2l0,0c-0.3-0.2-0.4-0.7-0.2-1c0.2-0.3,0.6-0.4,1-0.2l1.7,1.1c0.3,0.2,0.4,0.7,0.2,1
		C829.3,283.9,828.9,284,828.5,283.8C828.6,283.8,828.6,283.8,828.5,283.8L828.5,283.8z"/>
	<path class="st17" d="M821.7,279.2l-1.7-1.1l0,0c-0.3-0.2-0.4-0.6-0.2-0.9c0.2-0.3,0.6-0.4,0.8-0.2l1.8,1.1
		c0.3,0.2,0.4,0.6,0.2,0.9C822.4,279.3,822,279.4,821.7,279.2C821.7,279.2,821.7,279.2,821.7,279.2L821.7,279.2z"/>
	<path class="st17" d="M814.7,274.8l-1.8-1l0,0c-0.3-0.2-0.3-0.5-0.2-0.7c0.2-0.3,0.5-0.3,0.7-0.2l1.8,1c0.3,0.2,0.4,0.5,0.2,0.8
		C815.3,274.9,815,275,814.7,274.8C814.7,274.8,814.7,274.8,814.7,274.8L814.7,274.8z"/>
	<path class="st17" d="M807.5,270.7l-1.8-0.9l0,0c-0.2-0.1-0.3-0.4-0.2-0.6c0.1-0.2,0.4-0.3,0.6-0.2l1.9,0.9
		c0.2,0.1,0.3,0.4,0.2,0.6C808,270.7,807.7,270.8,807.5,270.7L807.5,270.7L807.5,270.7z"/>
	<polygon class="st17" points="801.5,254.2 798.9,264.9 792.8,258.5 	"/>
	<path class="st12" d="M754.8,236.4l22.8,32.4c0.4,0.6,1.1,1,1.9,1.2c0.8,0.1,1.5-0.1,2.1-0.5l31.6-24.1c0.4-0.3,0.5-0.7,0.4-1.2
		c-0.1-0.4-0.5-0.8-0.9-0.8L754.8,236.4z"/>
	<polygon class="st17" points="801.5,254.2 754.8,236.4 796.4,258.1 795.8,261.1 	"/>
	<polygon class="st12" points="793.4,260.4 798.9,264.9 796.4,258.1 	"/>
	<path class="st18" d="M467.5,658.4c0,10.1-37.8,18.2-84.3,18.2c-46.6,0-84.3-8.2-84.3-18.2c0-10.1,37.8-18.2,84.3-18.2
		C429.7,640.2,467.5,648.3,467.5,658.4"/>
	<path class="st18" d="M792.7,607.5c0,10.1-100.8,18.2-225,18.2s-225-8.2-225-18.2c0-10.1,100.8-18.2,225-18.2
		S792.7,597.4,792.7,607.5"/>
	<path class="st18" d="M501.3,609.5c0,10.1-98,18.2-218.8,18.2c-120.9,0-218.8-8.2-218.8-18.2c0-10.1,98-18.2,218.8-18.2
		C403.3,591.3,501.3,599.5,501.3,609.5"/>
	<rect x="445.6" y="316.6" class="st19" width="322.9" height="271"/>
	<path class="st12" d="M780.7,280.8L433.9,283c-4.7,0-8.3,3.5-8.3,7.7v51.8c0,4.1,3.5,7.4,8,7.4l347.1,2.2c5.2,0,9.2-3.5,9.2-7.8
		v-55.6C790,284.3,785.8,280.8,780.7,280.8"/>
	<g class="st20">
		<g>
			<defs>
				<rect id="SVGID_27_" x="425.3" y="280.8" width="364.8" height="9.6"/>
			</defs>
			<clipPath id="SVGID_4_">
				<use xlink:href="#SVGID_27_"  style="overflow:visible;"/>
			</clipPath>
			<path style="clip-path:url(#SVGID_4_);fill:#9DD8FF;" d="M780.7,280.8L433.5,283c-4.5,0-8.2,3.3-8.2,7.4l364.8-1.8
				C790.1,284.3,785.9,280.8,780.7,280.8"/>
		</g>
	</g>
	<g class="st20">
		<g>
			<defs>
				<rect id="SVGID_29_" x="425.3" y="342.4" width="364.8" height="9.6"/>
			</defs>
			<clipPath id="SVGID_6_">
				<use xlink:href="#SVGID_29_"  style="overflow:visible;"/>
			</clipPath>
			<path style="clip-path:url(#SVGID_6_);fill:#9DD8FF;" d="M433.5,349.9l347.2,2.2c5.2,0,9.3-3.5,9.3-7.8l-364.8-1.8
				C425.3,346.5,428.9,349.8,433.5,349.9"/>
		</g>
	</g>
	<path class="st12" d="M780.9,367.1l-347.2-0.7c-4.9,0-8.8,3.5-8.9,7.9l-0.6,53.4c-0.1,4.2,3.7,7.6,8.4,7.7l348.3,3c5,0,9-3.4,9-7.8
		V375C790,370.7,785.9,367.1,780.9,367.1"/>
	<g class="st20">
		<g>
			<defs>
				<rect id="SVGID_31_" x="424.9" y="366.4" width="365.1" height="8.6"/>
			</defs>
			<clipPath id="SVGID_8_">
				<use xlink:href="#SVGID_31_"  style="overflow:visible;"/>
			</clipPath>
			<path style="clip-path:url(#SVGID_8_);fill:#9DD8FF;" d="M781,367.1l-347.5-0.7c-4.7,0-8.5,3.4-8.6,7.6l365.1,1
				C790.1,370.7,786,367.1,781,367.1"/>
		</g>
	</g>
	<g class="st20">
		<g>
			<defs>
				<rect id="SVGID_33_" x="424.3" y="427.7" width="365.8" height="10.7"/>
			</defs>
			<clipPath id="SVGID_10_">
				<use xlink:href="#SVGID_33_"  style="overflow:visible;"/>
			</clipPath>
			<path class="st21" d="M432.7,435.4l348.3,3c5,0,9.1-3.4,9.1-7.8l-365.8-2.9C424.2,431.9,428,435.3,432.7,435.4"/>
		</g>
	</g>
	<path class="st12" d="M781.3,453.6H434.4c-5,0-8.8,3.7-8.8,8.2v55.3c0,4.3,3.6,7.5,8.4,7.5h347.3c4.8,0,8.6-3.2,8.6-7.5v-55.6
		C790,457.2,786.1,453.6,781.3,453.6"/>
	<g class="st20">
		<g>
			<defs>
				<rect id="SVGID_35_" x="425.3" y="453.6" width="364.8" height="8.1"/>
			</defs>
			<clipPath id="SVGID_12_">
				<use xlink:href="#SVGID_35_"  style="overflow:visible;"/>
			</clipPath>
			<path class="st22" d="M781.3,453.6H434c-4.8,0-8.8,3.7-8.8,8.1h364.8C790.1,457.3,786.1,453.6,781.3,453.6"/>
		</g>
	</g>
	<g class="st20">
		<g>
			<defs>
				<rect id="SVGID_37_" x="425.3" y="517.3" width="364.8" height="7.4"/>
			</defs>
			<clipPath id="SVGID_14_">
				<use xlink:href="#SVGID_37_"  style="overflow:visible;"/>
			</clipPath>
			<path class="st23" d="M434,524.7h347.3c4.8,0,8.8-3,8.8-7.4H425.3C425.3,521.8,429.2,524.7,434,524.7"/>
		</g>
	</g>
	<path class="st12" d="M781.7,541.6l-347-1.4c-5.1,0-9.1,3.6-9.1,8.1v55.3c0,4.3,3.8,7.9,8.7,7.9l347.2,0.1c4.7,0,8.6-3.5,8.6-7.7
		l0.1-54.6C790.3,545.1,786.4,541.6,781.7,541.6"/>
	<g class="st20">
		<g>
			<defs>
				<rect id="SVGID_39_" x="425.3" y="540.2" width="365" height="9.1"/>
			</defs>
			<clipPath id="SVGID_16_">
				<use xlink:href="#SVGID_39_"  style="overflow:visible;"/>
			</clipPath>
			<path class="st24" d="M781.7,541.6l-347.5-1.4c-4.9,0-8.9,3.5-8.9,7.8l365,1.3C790.3,545.1,786.4,541.6,781.7,541.6"/>
		</g>
	</g>
	<g class="st20">
		<g>
			<defs>
				<rect id="SVGID_41_" x="425.3" y="603.7" width="364.8" height="8"/>
			</defs>
			<clipPath id="SVGID_18_">
				<use xlink:href="#SVGID_41_"  style="overflow:visible;"/>
			</clipPath>
			<path class="st25" d="M434.2,611.5l347.3,0.1c4.7,0,8.6-3.5,8.6-7.7l-364.8-0.3C425.3,608,429.3,611.5,434.2,611.5"/>
		</g>
	</g>
	<path class="st4" d="M456.7,315.8c0,4.2-3.4,7.5-7.5,7.5c-4.2,0-7.5-3.4-7.5-7.5c0-4.2,3.4-7.5,7.5-7.5
		C453.3,308.3,456.7,311.7,456.7,315.8"/>
	<path class="st4" d="M480.5,315.8c0,4.2-3.4,7.5-7.5,7.5c-4.2,0-7.5-3.4-7.5-7.5c0-4.2,3.4-7.5,7.5-7.5
		C477.2,308.3,480.5,311.7,480.5,315.8"/>
	<path class="st4" d="M504.4,315.8c0,4.2-3.4,7.5-7.5,7.5c-4.2,0-7.5-3.4-7.5-7.5c0-4.2,3.4-7.5,7.5-7.5
		C501,308.3,504.4,311.7,504.4,315.8"/>
	<path class="st12" d="M92,250.3c-0.6,76.8,61.1,139.5,137.9,140.1c76.8,0.6,139.5-61.1,140.1-137.9
		c0.6-76.8-61.1-139.5-137.9-140.1C155.4,111.8,92.7,173.5,92,250.3"/>
	<path class="st29" d="M110.7,250.4c-0.5,66.5,53,120.8,119.4,121.3c66.5,0.5,120.8-53,121.3-119.4c0.5-66.5-53-120.8-119.4-121.3
		C165.5,130.5,111.2,183.9,110.7,250.4"/>
	<path class="st4" d="M274.1,256.1c16.8-25.4,18.6-71.1,10.1-95.5c-15.4-9-33.3-14.3-52.4-14.5c-58.1-0.5-105.6,46.3-106,104.4
		c-0.1,16.8,3.7,32.7,10.6,46.9c0.8,0.1,1.7,0,2.5,0.4C177.3,313.8,242.5,303.8,274.1,256.1"/>
	<path class="st12" d="M231.7,170.2L231.7,170.2c2,0,3.7-1.6,3.7-3.7l0.2-22.5c0-2-1.6-3.7-3.7-3.7c-2,0-3.7,1.6-3.7,3.7l-0.2,22.5
		C228,168.5,229.6,170.2,231.7,170.2"/>
	<path class="st12" d="M230.2,362.4L230.2,362.4c2,0,3.7-1.6,3.7-3.6l0.2-22.5c0-2-1.6-3.7-3.7-3.7c-2,0-3.7,1.6-3.7,3.7l-0.2,22.5
		C226.5,360.7,228.1,362.4,230.2,362.4"/>
	<path class="st12" d="M312.2,252L312.2,252c0,2,1.6,3.7,3.7,3.7l22.5,0.2c2,0,3.7-1.6,3.7-3.6c0-2-1.6-3.7-3.7-3.7l-22.5-0.2
		C313.9,248.3,312.2,250,312.2,252"/>
	<path class="st12" d="M120,250.5L120,250.5c0,2,1.6,3.7,3.6,3.7l22.5,0.2c2,0,3.7-1.6,3.7-3.6c0-2-1.6-3.7-3.7-3.7l-22.5-0.2
		C121.7,246.8,120,248.5,120,250.5"/>
	<path class="st12" d="M277.9,164.4c-1,1.8-0.4,4,1.3,5c1.8,1,4,0.4,5-1.3c1-1.8,0.4-4-1.3-5C281.2,162,279,162.6,277.9,164.4"/>
	<path class="st12" d="M177.8,334.7c-1,1.8-0.4,4,1.3,5c1.8,1,4,0.4,5-1.3c1-1.8,0.4-4-1.3-5C181.1,332.3,178.8,332.9,177.8,334.7"
		/>
	<path class="st12" d="M315.1,199.5c-1.8,1-2.4,3.2-1.4,5c1,1.8,3.2,2.4,5,1.4c1.8-1,2.4-3.2,1.4-5
		C319.2,199.1,316.9,198.5,315.1,199.5"/>
	<path class="st12" d="M143.3,296.9c-1.8,1-2.4,3.2-1.4,5c1,1.8,3.2,2.4,5,1.4c1.8-1,2.4-3.2,1.4-5
		C147.3,296.5,145.1,295.9,143.3,296.9"/>
	<path class="st12" d="M318.1,298.3c-1.8-1-4-0.4-5,1.3c-1,1.8-0.4,4,1.3,5c1.8,1,4,0.4,5-1.3C320.4,301.5,319.8,299.3,318.1,298.3"
		/>
	<path class="st12" d="M147.7,198.1c-1.8-1-4-0.4-5,1.3s-0.4,4,1.3,5c1.8,1,4,0.4,5-1.3S149.5,199.2,147.7,198.1"/>
	<path class="st12" d="M283,335.5c-1-1.8-3.2-2.4-5-1.4c-1.8,1-2.4,3.2-1.4,5c1,1.8,3.2,2.4,5,1.4C283.3,339.5,284,337.3,283,335.5"
		/>
	<path class="st12" d="M185.5,163.6c-1-1.8-3.2-2.4-5-1.4c-1.8,1-2.4,3.2-1.4,5c1,1.8,3.2,2.4,5,1.4
		C185.9,167.6,186.5,165.4,185.5,163.6"/>
	<path class="st11" d="M268.4,223.7c11-4.3,62.4-26.4,62.4-26.4l0.2,0.4l0.4,0.7l0.2,0.4c0,0-46.7,30.7-56.4,37.5
		c-9.6,6.8-43.9,17.5-43.9,17.5l-0.6-1.2l-0.4-0.7l-0.6-1.2C229.6,250.7,257.4,228,268.4,223.7"/>
	<path class="st11" d="M196.1,258.8c-8.4-1.3-48.4-5.6-48.4-5.6l0-0.4l0-0.8l0-0.4c0,0,39.8-5.5,48.2-7s33.7,4.9,33.7,4.9l0,1.3
		l0,0.8l0,1.3C229.6,252.9,204.5,260.1,196.1,258.8"/>
	<path class="st12" d="M223.7,251.3c0,4.1,3.2,7.4,7.3,7.4c4.1,0,7.4-3.2,7.4-7.3c0-4.1-3.2-7.4-7.3-7.4
		C227,244,223.7,247.2,223.7,251.3"/>
	<path class="st11" d="M158,401.7l-32.7,196.1c-0.4,2.3,1.4,4.3,3.7,4.3c1.7,0,3.3-1.2,3.6-2.9l42.9-197.5H158z"/>
	<path class="st11" d="M189.6,389.9l-23.1,197.5c-0.3,2.3,1.6,4.2,3.9,4.1c1.7-0.1,3.2-1.4,3.5-3.1L207,389L189.6,389.9z"/>
	<path class="st11" d="M325,401.7l32.7,196.1c0.4,2.3-1.4,4.3-3.7,4.3c-1.7,0-3.2-1.2-3.6-2.9l-42.9-197.5H325z"/>
	<path class="st11" d="M293.3,389.9l23.1,197.5c0.3,2.3-1.6,4.2-3.9,4.1c-1.7-0.1-3.2-1.4-3.5-3.1L275.9,389L293.3,389.9z"/>
	<path class="st11" d="M352.7,406.2H133.6c-5,0-9.1-4.1-9.1-9.1s4.1-9.1,9.1-9.1h219.1c5,0,9.1,4.1,9.1,9.1S357.6,406.2,352.7,406.2
		"/>
	<path class="st30" d="M136.3,557.5l-0.6-0.2c0.1-0.2,6.5-18.8,2.8-40.7c-3.4-20.3-16.5-47.7-59.3-63.1l0.2-0.6
		c19,6.9,33.8,16.6,44,29.1c8.2,9.9,13.4,21.6,15.6,34.6C142.9,538.7,136.3,557.4,136.3,557.5"/>
	<path class="st30" d="M85.3,455.5c0,0-11.2,1.7-17-3.5C62.4,446.8,72.3,444.3,85.3,455.5"/>
	<path class="st30" d="M96.9,461c0,0-3.5-14.9-9-17.8C82.5,440.3,81.7,450.9,96.9,461"/>
	<path class="st30" d="M95.1,460c0,0-15.1-2.2-19.9,1.9C70.6,465.8,80.1,470.4,95.1,460"/>
	<path class="st30" d="M104.4,465.7c0,0-15.1-2.2-19.9,1.9C79.9,471.5,89.4,476.1,104.4,465.7"/>
	<path class="st30" d="M113.8,472.3c0,0-15.1-2.2-19.9,1.9C89.2,478.2,98.8,482.7,113.8,472.3"/>
	<path class="st30" d="M122.8,481.4c0,0-14.9-3.4-19.9,0.3C97.9,485.3,107.1,490.6,122.8,481.4"/>
	<path class="st30" d="M131.1,493.5c0,0-13.9-6.4-19.5-4C105.9,492.1,113.8,499.2,131.1,493.5"/>
	<path class="st30" d="M137.2,508.4c0,0-11.1-10.5-17.2-10C113.7,498.9,118.9,508.2,137.2,508.4"/>
	<path class="st30" d="M139.8,525.8c0,0-6.9-13.6-12.9-15.2C120.9,509,122.6,519.5,139.8,525.8"/>
	<path class="st30" d="M139.1,542.8c0,0-3.6-14.9-9.1-17.8C124.6,522.2,123.9,532.8,139.1,542.8"/>
	<path class="st30" d="M107.3,467.5c0,0,1.5-13.1-3.5-20.1c-5-7-6.7,1-4.8,5.5C100.9,457.4,107.3,467.5,107.3,467.5"/>
	<path class="st30" d="M115,473.5c0,0,3.5-12.7-0.3-20.4c-3.9-7.7-6.8-0.1-5.6,4.7C110.2,462.6,115,473.5,115,473.5"/>
	<path class="st30" d="M122.1,480.6c0,0,6.4-11.5,4.4-19.9c-2-8.4-6.6-1.6-6.5,3.3C120,468.9,122.1,480.6,122.1,480.6"/>
	<path class="st30" d="M129,489.8c0,0,6.4-11.5,4.4-19.9c-2-8.4-6.6-1.6-6.5,3.3C126.9,478.1,129,489.8,129,489.8"/>
	<path class="st30" d="M135,502.4c0,0,7.8-10.6,6.9-19.2c-0.9-8.6-6.3-2.5-6.9,2.4C134.5,490.5,135,502.4,135,502.4"/>
	<path class="st30" d="M139.1,519.1c0,0,9.7-8.9,10.4-17.5c0.8-8.6-5.8-3.6-7.2,1.1C140.8,507.3,139.1,519.1,139.1,519.1"/>
	<path class="st30" d="M139.8,534.2c0,0,11.3-6.8,13.7-15c2.5-8.2-4.9-4.7-7.3-0.4C143.8,523,139.8,534.2,139.8,534.2"/>
	<path class="st30" d="M208.9,528.3l0.6-0.2c-0.1-0.2-6.5-18.8-2.8-40.7c3.4-20.3,16.5-47.7,59.3-63.1l-0.2-0.6
		c-19,6.9-33.8,16.6-44,29.1c-8.2,9.9-13.4,21.6-15.6,34.6C202.3,509.4,208.8,528.1,208.9,528.3"/>
	<path class="st30" d="M259.9,426.2c0,0,11.2,1.7,17-3.5C282.7,417.6,272.8,415.1,259.9,426.2"/>
	<path class="st30" d="M248.2,431.7c0,0,3.5-14.9,9-17.8C262.7,411,263.4,421.6,248.2,431.7"/>
	<path class="st30" d="M250,430.7c0,0,15.1-2.2,19.9,1.9C274.6,436.6,265,441.2,250,430.7"/>
	<path class="st30" d="M240.7,436.4c0,0,15.1-2.2,19.9,1.9C265.3,442.3,255.7,446.9,240.7,436.4"/>
	<path class="st30" d="M231.3,443c0,0,15.1-2.2,19.9,1.9C255.9,448.9,246.3,453.5,231.3,443"/>
	<path class="st30" d="M222.3,452.2c0,0,14.9-3.4,19.9,0.3C247.2,456.1,238.1,461.4,222.3,452.2"/>
	<path class="st30" d="M214,464.3c0,0,13.9-6.4,19.5-4S231.4,470,214,464.3"/>
	<path class="st30" d="M208,479.2c0,0,11.1-10.5,17.2-10C231.4,469.7,226.2,479,208,479.2"/>
	<path class="st30" d="M205.3,496.5c0,0,6.9-13.6,12.9-15.2S222.5,490.2,205.3,496.5"/>
	<path class="st30" d="M206,513.6c0,0,3.6-14.9,9.1-17.8C220.6,492.9,221.3,503.5,206,513.6"/>
	<path class="st30" d="M237.8,438.2c0,0-1.5-13.1,3.5-20.1c5-7,6.7,1,4.8,5.5C244.2,428.2,237.8,438.2,237.8,438.2"/>
	<path class="st30" d="M230.2,444.3c0,0-3.5-12.7,0.3-20.4c3.9-7.7,6.8-0.1,5.6,4.7C234.9,433.4,230.2,444.3,230.2,444.3"/>
	<path class="st30" d="M223.1,451.4c0,0-6.4-11.5-4.4-19.9c2-8.4,6.6-1.6,6.5,3.3C225.2,439.7,223.1,451.4,223.1,451.4"/>
	<path class="st30" d="M216.1,460.6c0,0-6.4-11.5-4.4-19.9c2-8.4,6.6-1.6,6.5,3.3C218.2,448.9,216.1,460.6,216.1,460.6"/>
	<path class="st30" d="M210.1,473.2c0,0-7.8-10.6-6.9-19.2c0.9-8.6,6.3-2.5,6.9,2.4C210.7,461.3,210.1,473.2,210.1,473.2"/>
	<path class="st30" d="M206,489.8c0,0-9.7-8.9-10.4-17.5c-0.8-8.6,5.8-3.6,7.2,1.1C204.3,478.1,206,489.8,206,489.8"/>
	<path class="st30" d="M205.4,505c0,0-11.3-6.8-13.7-15c-2.5-8.2,4.9-4.7,7.3-0.4C201.3,493.8,205.4,505,205.4,505"/>
	<path class="st31" d="M143.7,502.8c0,0-13.1-38.9-1.3-50.1c11.8-11.2-2.9-27,0.6-37.3c3.5-10.3,16.2-16.5,21.8,2.5
		c5.6,18.9,7.1,19.5,21.1,20.4c14,0.9,12.9,29,10.4,41.9c-2.5,12.9,11.2-7.5,15.4,6.4c4.1,13.9-15.9,42.5-37,57.4
		c-21.1,14.9-46.9-27.5-45.2-38.1C131.2,495.3,139,509.5,143.7,502.8"/>
	<path class="st30" d="M145.6,448.6c-0.7,1.5-1.8,2.9-3.2,4.2c-11.8,11.2,1.3,50.1,1.3,50.1c-4.8,6.6-12.5-7.6-14.3,3
		c-1.8,10.6,24.1,53,45.2,38.1c1.1-0.8,2.3-1.6,3.4-2.5C175.6,508.3,164.3,476.5,145.6,448.6"/>
	<path class="st32" d="M137.8,552.8c0,0-28.7-14.4-28.3-27.1c0.4-12.7-16.5-13.4-20.2-21.1c-3.8-7.6-0.1-18.1,13.4-10.6
		c13.5,7.5,14.7,6.9,22.9-0.3c8.2-7.2,23.1,9,28.8,17.5c5.7,8.5,2.1-10.3,12.1-4.9c9.9,5.4,14.5,32.4,11,52.3
		c-3.5,19.9-41.2,10.6-46.1,3.7C126.7,555.5,138.8,559.1,137.8,552.8"/>
	<path class="st31" d="M109,521.7c0.4,1.2,0.6,2.6,0.5,4.1c-0.4,12.7,28.3,27.1,28.3,27.1c1,6.3-11.1,2.7-6.3,9.6
		c4.9,6.9,42.5,16.2,46.1-3.7c0.2-1.1,0.4-2.2,0.5-3.3C158.5,538.3,134.8,526.8,109,521.7"/>
	<path class="st33" d="M202.3,548.8c0,0,37.8-15.9,38.4-32.2c0.5-16.3,22.1-15.8,27.6-25.2c5.4-9.4,1.6-23-16.3-14.7
		c-17.9,8.4-19.3,7.6-29.2-2.3c-9.9-9.9-30.2,9.5-38.3,19.9c-8,10.4-1.8-13.4-15-7.3c-13.1,6.1-21.3,40.1-18.5,65.8
		c2.8,25.7,51.7,17,58.5,8.6C216.3,553.1,200.5,556.7,202.3,548.8"/>
	<path class="st32" d="M241.7,511.5c-0.6,1.5-1,3.2-1,5.2c-0.5,16.3-38.4,32.2-38.4,32.2c-1.8,8,14,4.4,7.2,12.7
		c-6.8,8.4-55.6,17.1-58.5-8.6c-0.2-1.4-0.3-2.8-0.4-4.2C177.2,528.5,208.4,515.9,241.7,511.5"/>
	<path class="st31" d="M312.6,500.4c0,0,10.9-32.4,1.1-41.7c-9.8-9.3,2.4-22.5-0.5-31.1c-2.9-8.6-13.5-13.7-18.1,2.1
		c-4.6,15.8-5.9,16.3-17.5,17c-11.6,0.7-10.7,24.1-8.7,34.9c2.1,10.8-9.4-6.2-12.8,5.3c-3.5,11.6,13.3,35.4,30.8,47.8
		c17.6,12.4,39.1-22.9,37.6-31.7C323,494.1,316.6,505.9,312.6,500.4"/>
	<path class="st30" d="M311.1,455.2c0.6,1.2,1.5,2.4,2.6,3.5c9.8,9.3-1.1,41.7-1.1,41.7c4,5.5,10.4-6.3,11.9,2.5
		c1.5,8.8-20,44.1-37.6,31.7c-0.9-0.7-1.9-1.4-2.8-2.1C286.1,504.9,295.5,478.4,311.1,455.2"/>
	<path class="st32" d="M268.5,545.5c0,0-28.7-14.4-28.3-27.1S223.8,505,220,497.4c-3.8-7.6-0.1-18.1,13.4-10.6
		c13.5,7.5,14.7,6.9,22.9-0.3c8.2-7.2,23.1,9,28.8,17.5c5.7,8.5,2.1-10.3,12.1-4.9c9.9,5.4,14.5,32.4,11,52.3
		c-3.5,19.9-41.2,10.6-46.1,3.7S269.5,551.8,268.5,545.5"/>
	<path class="st31" d="M239.7,514.4c0.4,1.2,0.6,2.6,0.5,4.1c-0.4,12.7,28.3,27.1,28.3,27.1c1,6.3-11.1,2.7-6.3,9.6
		c4.9,6.9,42.5,16.2,46.1-3.7c0.2-1.1,0.4-2.2,0.5-3.3C289.2,531,265.5,519.5,239.7,514.4"/>
	<path class="st31" d="M229.1,553.6c0,0-26.1-3.4-29.2-13.3c-3.1-9.9-16.3-6-21.3-10.9c-5-4.9-4.9-14,7.6-11.8s13.2,1.4,17.7-6.4
		c4.4-7.8,20.3,0.7,27,5.8c6.7,5.1-1.1-8.6,8-7s19.9,21.1,22.6,37.5c2.6,16.3-29,19.3-34.6,15.3
		C221.3,558.7,231.6,558.2,229.1,553.6"/>
	<path class="st30" d="M198.5,537.3c0.6,0.8,1.1,1.8,1.5,3c3.1,9.9,29.2,13.3,29.2,13.3c2.5,4.6-7.9,5.1-2.3,9.1
		c5.6,4,37.3,1.1,34.6-15.3c-0.1-0.9-0.3-1.8-0.5-2.7C241.2,536.9,219.8,534.3,198.5,537.3"/>
	<path class="st33" d="M333,548.8c0,0,37.8-15.9,38.4-32.2c0.5-16.3,22.1-15.8,27.6-25.2c5.4-9.4,1.6-23-16.3-14.7
		c-17.9,8.4-19.3,7.6-29.2-2.3s-30.2,9.5-38.3,19.9c-8,10.4-1.8-13.4-15-7.3c-13.1,6.1-21.3,40.1-18.5,65.8
		c2.8,25.7,51.7,17,58.5,8.6C347,553.1,331.2,556.7,333,548.8"/>
	<path class="st32" d="M372.4,511.5c-0.6,1.5-1,3.2-1,5.2c-0.5,16.3-38.4,32.2-38.4,32.2c-1.8,8,14,4.4,7.2,12.7
		c-6.8,8.4-55.6,17.1-58.5-8.6c-0.2-1.4-0.3-2.8-0.4-4.2C307.9,528.5,339.1,515.9,372.4,511.5"/>
	<polygon class="st34" points="390.7,609.5 108.9,609.5 101.8,545.2 397.8,545.2 	"/>
	<rect x="97.4" y="540.7" class="st35" width="304.3" height="15.2"/>
	
		<rect x="494.1" y="544.7" transform="matrix(0.9998 -1.760230e-02 1.760230e-02 0.9998 -10.5145 10.0601)" class="st36" width="144.3" height="115.3"/>
	<path class="st14" d="M637.3,543.4c0,0-0.2,0-0.7,0c-0.5,0-1.1,0-2,0.1c-1.8,0-4.4,0.1-7.8,0.2c-6.9,0.1-16.9,0.4-29.5,0.6
		c-25.3,0.5-61.3,1.2-104.1,2l0.4-0.4c0.6,34.3,1.3,73.7,2.1,115.3v0l-0.4-0.4c53.4-0.9,103-1.8,144.2-2.5l-0.3,0.4
		c-0.5-34.7-1-63.5-1.3-83.6c-0.1-10.1-0.2-18-0.3-23.4c0-2.7-0.1-4.7-0.1-6.2C637.3,544.1,637.3,543.4,637.3,543.4s0,0.7,0.1,2.1
		c0,1.4,0.1,3.4,0.1,6.1c0.1,5.4,0.3,13.3,0.5,23.3c0.4,20.2,1,49,1.7,83.8l0,0.3l-0.3,0c-41.2,0.7-90.8,1.6-144.2,2.6l-0.4,0l0-0.4
		v0c-0.7-41.6-1.4-81-2-115.3l0-0.4l0.4,0c42.9-0.7,79-1.2,104.4-1.6c12.6-0.2,22.6-0.3,29.4-0.4c3.4,0,6-0.1,7.8-0.1
		c0.9,0,1.5,0,2,0C637.1,543.4,637.3,543.4,637.3,543.4"/>
	
		<rect x="499.1" y="551.9" transform="matrix(0.9998 -1.759572e-02 1.759572e-02 0.9998 -10.5107 10.0546)" class="st4" width="134.1" height="100.8"/>
	<polygon class="st14" points="500,653.9 545.7,590.4 575.4,629.1 594.7,607.8 634.1,651.5 	"/>
	<path class="st14" d="M586.9,582c0.1,5.8-4.5,10.6-10.4,10.7c-5.8,0.1-10.6-4.5-10.7-10.4c-0.1-5.8,4.5-10.6,10.4-10.7
		S586.8,576.2,586.9,582"/>
	
		<rect x="594" y="443" transform="matrix(0.1659 -0.9861 0.9861 0.1659 23.8336 1132.1659)" class="st36" width="174.3" height="218"/>
	<path class="st14" d="M803.1,484.2c0,0-0.4,0-1-0.1c-0.7-0.1-1.7-0.3-3-0.5c-2.7-0.4-6.6-1.1-11.7-1.9c-10.2-1.7-25.1-4.1-44-7.3
		c-37.8-6.3-91.4-15.2-155.3-25.8l0.7-0.5c-8.6,51.2-18.4,109.8-28.8,171.8l0,0l-0.5-0.7c79.6,13.4,153.5,25.9,214.9,36.3l-0.6,0.4
		c8.8-51.7,16.1-94.6,21.2-124.6c2.6-15,4.6-26.8,6-34.8c0.7-4,1.2-7.1,1.6-9.2C802.9,485.2,803.1,484.2,803.1,484.2s-0.1,1-0.5,3.1
		c-0.3,2.1-0.8,5.1-1.5,9.1c-1.3,8-3.2,19.8-5.7,34.7c-5,30.1-12.1,73.1-20.8,125l-0.1,0.5l-0.5-0.1c-61.4-10.3-135.4-22.7-215-36.1
		l-0.6-0.1l0.1-0.6l0,0c10.5-62,20.3-120.7,29-171.8l0.1-0.6l0.6,0.1c63.9,10.9,117.7,20,155.5,26.4c18.8,3.2,33.7,5.8,43.9,7.5
		c5,0.9,8.9,1.6,11.6,2c1.3,0.2,2.3,0.4,2.9,0.5C802.8,484.1,803.1,484.2,803.1,484.2"/>
	
		<rect x="604.9" y="450.6" transform="matrix(0.1659 -0.9861 0.9861 0.1659 23.7369 1132.0051)" class="st4" width="152.3" height="202.7"/>
	<polygon class="st14" points="568.5,610.3 654,528.6 687.4,594.3 722,568 768.3,643.9 	"/>
	<path class="st14" d="M717.5,527.6c-1.5,8.7-9.7,14.6-18.4,13.1c-8.7-1.5-14.5-9.7-13.1-18.4c1.5-8.7,9.7-14.6,18.4-13.1
		C713.1,510.6,719,518.9,717.5,527.6"/>
	<rect x="589" y="552.7" class="st36" width="234.6" height="152.6"/>
	<path class="st18" d="M738.3,622.5c0,17.6-14.3,31.9-31.9,31.9c-17.6,0-31.9-14.3-31.9-31.9c0-17.6,14.3-31.9,31.9-31.9
		C724,590.6,738.3,604.9,738.3,622.5"/>
	<polygon class="st37" points="717.1,622.5 708.7,627.3 700.4,632.2 700.4,622.5 700.4,612.9 708.7,617.7 	"/>
	<rect x="589" y="677.9" class="st18" width="234.6" height="27.4"/>
	<polygon class="st37" points="611.8,691.6 608.5,693.5 605.1,695.5 605.1,691.6 605.1,687.7 608.5,689.6 	"/>
	<rect x="631.3" y="690.9" class="st37" width="173.1" height="1.2"/>
	<path class="st37" d="M634.8,691.6c0,1.4-1.2,2.6-2.6,2.6c-1.4,0-2.6-1.2-2.6-2.6c0-1.4,1.2-2.6,2.6-2.6
		C633.6,689,634.8,690.1,634.8,691.6"/>
	<path class="st11" d="M570.1,265.1c-11,11-23.9,16.6-38.6,16.6c-9.1,0-17.6-1.8-25.6-5.5c-8-3.6-14.9-8.6-20.8-15
		c-5.9-6.4-10.6-13.9-14-22.5c-3.4-8.6-5.2-18-5.2-28c0-9.5,1.7-18.4,5.2-26.8c3.4-8.4,8.2-15.7,14.2-22c6-6.3,13.1-11.3,21.3-15
		c8.2-3.7,17.1-5.6,26.7-5.6c13,0,24.1,2.7,33.4,8.2c9.3,5.5,16.3,12.8,20.9,22l-20.1,14.8c-3.5-6.9-8.4-12.1-14.7-15.8
		c-6.3-3.6-13.1-5.5-20.5-5.5c-5.8,0-11.2,1.2-16.1,3.7c-4.9,2.5-9,5.8-12.5,10.1c-3.4,4.3-6.1,9.2-8,14.8
		c-1.9,5.6-2.8,11.5-2.8,17.7c0,6.5,1,12.6,3.1,18.2c2.1,5.6,4.9,10.6,8.6,14.7c3.6,4.2,8,7.4,13,9.8c5,2.4,10.4,3.6,16.3,3.6
		c13.4,0,25.4-6.3,36.2-18.9v-9.7h-27.9v-19.7h50.1v72.1h-22.2V265.1z"/>
	<path class="st11" d="M713,246.2c0,16.3-14,28.9-28.8,33.3c-4.7,1.4-9.5,2.1-14.4,2.1h-64.6V146.9h71.6c4.6,0,8.9,1,12.6,3
		c3.8,2,7,4.6,9.6,7.8c2.6,3.2,4.7,6.8,6.1,10.9c1.4,4.1,2.2,8.2,2.2,12.3c0,6.5-1.6,12.6-4.9,18.4c-3.3,5.7-8,10-14.3,12.7
		c7.7,2.3,13.7,6.3,18.2,12.1C710.7,230.1,713,237.4,713,246.2 M631.2,169.1v33.7h34.7c4.4,0,8.1-1.5,11.2-4.5
		c3.1-3,4.6-7.2,4.6-12.4c0-5.1-1.4-9.2-4.2-12.2c-2.8-3-6.3-4.5-10.5-4.5H631.2z M686.8,241.3c0-2.4-0.4-4.7-1.2-6.9
		c-0.8-2.2-1.9-4.1-3.3-5.7c-1.4-1.6-3-2.9-4.9-3.9c-1.9-0.9-4-1.4-6.2-1.4h-39.9v35.2h38.6c2.4,0,4.6-0.4,6.7-1.3
		c2.1-0.9,3.9-2.1,5.4-3.7c1.5-1.6,2.7-3.4,3.6-5.6C686.3,245.9,686.8,243.7,686.8,241.3"/>
	<path class="st38" d="M313.5,326.2c0,0,24.5-35.6,28.3-44.1c3.9-8.5,4.3-15.7-1.8-20.1c-6.1-4.4-17.3-7.9-27.2,6.1
		c-9.9,14-28.2,56.8-29,70.2c-0.8,13.4,59.9,54,65.3,56.6c5.9-1.6,8.5-10.4,8.5-10.4S318.5,334.8,313.5,326.2"/>
	<path class="st39" d="M333.6,620.8c0,0,1.2,7-2.8,17.6c-4,10.6-4.2,14,0,16.3c4.2,2.3,7.3,3,19.1,0c11.8-3,25-9.6,25-9.6
		s-12.8-8.2-16-11.6c-3.1-3.5-9.7-15.9-9.6-17.6C349.5,614.1,333.6,620.8,333.6,620.8"/>
	<path class="st40" d="M365.8,639c-4.8,3.2-9.3,6.6-15.4,5.8c-4.9-1.2-6.7-6.1-9.8-9.8c-2.1-1.7-5.4-2.2-8.2-1.4
		c-0.4,1.5-0.9,3.1-1.6,4.8c-4,10.6-4.2,14,0,16.3c4.2,2.3,7.3,3,19.1,0c11.8-3,25-9.6,25-9.6S370.2,642.1,365.8,639"/>
	<path class="st39" d="M477.2,254.3l14.8,6.4c4.9-6.1,8.6-10.7,11-11.2c6.3,0.8,9-1.8,10.6-4c1.7-2.1-0.4-3.4-0.1-4.2
		c1.7-2.6-1.2-3.6-0.7-4.2c1.8-2.1,1.5-3.3,0.4-3.9c-1.1-0.6-2.9-1.1-2.6-2.2c0.3-1.1,4.8-3.9,8.8-5.8s8.2-4.8,5.8-6.4
		c-2.4-1.6-24.7,9.1-28.8,13.7c-4.2,4.6-3.1,9.4-8.3,14.5C486.2,249,482,251.7,477.2,254.3"/>
	<path class="st39" d="M349.1,618.6c0,0,1,14.4-3.6,26.2c-4.6,11.8-3.3,17,5.1,19.4c8.3,2.4,13-3.3,23.8-3
		c10.9,0.3,25.3-0.9,29-10.9c3.7-10-13.7-5.5-24.2-8.6c-10.5-3.1-5.8-21.6-5.8-21.6L349.1,618.6z"/>
	<path class="st41" d="M379.6,641.5c-0.9,3.2,7.6,6.5,5.1,8.2c-9.2,6.7-20.2-4.9-30.6-8.6c-2.1-1.1-4.6-1.1-7.1-0.6
		c-0.4,1.5-0.9,2.9-1.4,4.3c-4.6,11.8-3.3,17,5.1,19.4c8.3,2.4,13-3.3,23.8-3c10.9,0.3,31.4-1.8,35.2-11.7
		C413.2,639.6,390.1,644.4,379.6,641.5"/>
	<path class="st40" d="M366.7,433.4c-5.7-2.7-9.5-6.7-12-11.1c-4.9-8.8-4.5-19.3-2.7-24.6c2.7-8,13.4-28.3,13.4-28.3l-26.4-4.9
		c0,0-11.8,20.4-17.9,36.5c-6,16.1-1.1,33.1,1.8,45.8c2.9,12.7,10.3,49.1,7.1,62.8c-3.1,13.6-8.9,34.4-7.4,50.3
		c1.6,15.9,9.4,53.6,9.2,62.1c2.6,1.2,5.2,1.6,7.6,1.5c7.1-0.2,12.5-4.4,12.5-4.4s1.8-65,8.5-93.6
		C367.1,496.8,373.8,443.6,366.7,433.4"/>
	<path class="st41" d="M408.8,369c0,0,7.7,29.5,5.4,61c-2.4,31.6-23.5,84.6-25.9,96.2c-2.4,11.6-5.7,45-8.6,60
		c-3,15-4.5,29-2.8,32.9c-7,7.4-25.6,6.6-29.8,0c1.5-30.7,0.7-57,6.6-77.7c5.8-20.7,2.2-26.1,4.6-39c2.4-13,4.8-53,6-57.8
		c1.2-4.8-10.7-7.1-15-14.9c-4.3-7.7-13.3-26.4,11.5-64.3C386.9,364.6,408.8,369,408.8,369"/>
	<path class="st39" d="M395.3,191c0,0,2.2,26.5-0.7,34.7c-3,8.2-6,14.1-7.6,15.8c-1.6,1.6-9.5-1.3-11.1,0
		c-1.6,1.3-1.4,16.7-1.4,16.7l-21.9-0.9c0,0,2.5-27.7,4.5-35.3C358.9,214.3,393,190.4,395.3,191"/>
	<path class="st42" d="M343.4,256.7c0,0,17-8.5,30.8-1.8c13.8,6.7,35.5,34.8,38.9,40.2c3.3,5.4,5.6,17.4,0,28.4
		c-5.6,10.9-3.6,43.1-0.7,48.7c-23.5,6.9-59.9,2.5-76.6-4.9c9.4-13.6,14.3-18.8,7.6-33.7C336.7,318.6,328.7,276.1,343.4,256.7"/>
	<path class="st42" d="M429,289.1c0,0-35.3-24.8-43.8-28.8c-8.4-4-15.6-4.5-20.1,1.6c-4.5,6-8,17.2,5.8,27.2
		c13.8,10.1,56.5,28.8,69.9,29.7c13.4,0.9,54.6-59.3,57.3-64.7c-1.5-6-10.3-8.6-10.3-8.6S437.7,284.2,429,289.1"/>
	<path class="st43" d="M393.6,178.5c-10.1-10.1-28.9-14-28.9-14c-15.9-5.4-28.3,9.5-31.9,22.9c-3.6,13.4-1.8,29-7.3,46.6
		c-2.8,8.6-42.4,70,9.6,114.5c13.2,6.5,23.3,9.4,37.6-1.6c-15-35.8-10.3-70.1-7.3-80.4c2.9-10,9-10.3,14.5-8.3
		c0.3,0.1,0.5,0.2,0.8,0.3c-0.5-1-1.2-2.2-2-3.4c-2.8-8.3-0.2-25.5,5.5-31.6c6.7-7.1,9.8-18.8,10.9-27.2c1.6,10.1-2,16.3-4.5,19.9
		C400.4,208.7,403.7,188.6,393.6,178.5"/>
</g>
</svg>
