<svg version="1" xmlns="http://www.w3.org/2000/svg" width="426.667" height="426.667" viewBox="0 0 320.000000 320.000000"><path d="M219 6.3c-5.2 2.4-8 5-10 9.1-5.2 10.9.1 23.8 11.1 27 15.6 4.5 29.5-10.4 23.3-25.2-4.1-9.8-15.6-15-24.4-10.9zM145.9 37.4c-.2.2-2.6.6-5.4 1-16.3 1.8-29.7 8.1-41.5 19.7-14.9 14.6-22.9 35-22.8 58.4 0 12.2 1.8 21.3 6.4 32.5 1.9 4.6 3.4 9.4 3.4 10.5 0 1.2-1.1 5.5-2.5 9.6-1.6 4.7-2.3 8.4-1.9 10.2.7 3.1 4.4 5.4 10.1 6.2 2.1.3 4.4.8 5.1 1 .7.3 5.9.7 11.5 1.1 12.3.7 13.6.9 19.5 2.8 7.4 2.4 9.9 2.7 23.2 3.1 24 .7 41.3-5.8 56.5-21.1 15.5-15.7 22.6-35 22-59.8C228.4 74.8 205 45.8 170 39c-5.6-1.1-23.4-2.3-24.1-1.6zM162 74.5c9.7 1.6 18.8 9.8 22.7 20.1 2.7 7.2 3.5 12.6 3.5 22.3-.1 18.5-7.3 32-20.2 37.9-4.6 2.1-7 2.6-15 2.6-8.2 0-10.3-.3-15.1-2.5-3.1-1.5-7.3-4.4-9.4-6.4-9.1-9.1-13-27.2-9.8-44.7 1.6-9 4.2-14.7 9.3-20.2 8.1-8.8 19.1-11.7 34-9.1zM202 199.3c-14.7 8.4-35.7 16.2-48.5 18.3-2.2.3-4.2.7-4.5.9-.3.2-3.7.7-7.5 1.1-12.8 1.4-35.8.8-44.8-1.2-6.8-1.6-9.8-1.6-12-.1-5.4 3.5-8 15-5.7 24.9 1.6 6.7 7.6 12.9 14.2 14.7 5.2 1.5 29.3 1.9 42.7.8 15.8-1.3 33.1-4.9 49.6-10.2 11.5-3.7 30.4-12.3 34.7-15.7 10-7.8 10.2-23.1.4-33.3-5.6-5.9-8.5-5.9-18.6-.2zM206.5 252.8c-32.9 19.9-72.2 28.2-106.5 22.6-13.1-2.2-14-2.1-17.1 1.4-3.6 4.1-5.2 10.2-4.6 17.8.8 11 7.2 18.4 17.5 20.4 4.6.8 41.8.6 45.7-.3 1.1-.2 4.3-.8 7-1.1 9-1.3 10.9-1.7 20.5-4.1 22.5-5.6 48.7-16.9 53.9-23.2 5.3-6.5 6.3-14.9 2.8-23.3-4.4-10.2-12.2-14.4-19.2-10.2z"/></svg>