<?xml version="1.0" encoding="utf-8"?>
<!-- Generator: Adobe Illustrator 23.1.0, SVG Export Plug-In . SVG Version: 6.00 Build 0)  -->
<svg version="1.1" xmlns="http://www.w3.org/2000/svg" xmlns:xlink="http://www.w3.org/1999/xlink" x="0px" y="0px"
	 viewBox="0 0 100 85.1" style="enable-background:new 0 0 100 85.1;" xml:space="preserve">
<style type="text/css">
	.st0{fill:#FFFFFF;}
</style>
<g id="Capa_2">
</g>
<g id="Capa_1">
	<g>
		<path class="st0" d="M72.7,24c-1.9-1.8-4.8-1.7-6.6,0.1c-1.8,1.9-1.7,4.8,0.1,6.6c3.1,3,4.8,6.9,4.8,11.2s-1.7,8.2-4.8,11.2
			c-1.9,1.8-1.9,4.8-0.1,6.6c0.9,1,2.2,1.4,3.4,1.4c1.2,0,2.3-0.4,3.3-1.3c4.9-4.7,7.6-11.1,7.6-18C80.3,35.2,77.6,28.8,72.7,24z"/>
		<path class="st0" d="M83.4,10.6C81.5,8.9,78.5,9,76.8,11c-1.7,1.9-1.6,4.9,0.4,6.6c6.9,6.2,10.9,15.1,10.9,24.4s-4,18.2-10.9,24.4
			c-1.9,1.7-2.1,4.7-0.4,6.6c0.9,1,2.2,1.6,3.5,1.6c1.1,0,2.2-0.4,3.1-1.2c8.9-8,14-19.4,14-31.4C97.5,30,92.4,18.6,83.4,10.6z"/>
		<path class="st0" d="M50.5,4.8L22.2,25.9H5.3c-1.6,0-2.8,1.3-2.8,2.8v26.5c0,1.6,1.3,2.8,2.8,2.8h16.9l28.3,21.2
			c1.9,1.4,4.5,0.1,4.5-2.3V7C55,4.7,52.3,3.4,50.5,4.8z"/>
	</g>
</g>
</svg>
