<?xml version="1.0" encoding="utf-8"?>
<!-- Generator: Adobe Illustrator 23.1.0, SVG Export Plug-In . SVG Version: 6.00 Build 0)  -->
<svg version="1.1"
	 id="Capa_1" xmlns:cc="http://creativecommons.org/ns#" xmlns:dc="http://purl.org/dc/elements/1.1/" xmlns:inkscape="http://www.inkscape.org/namespaces/inkscape" xmlns:rdf="http://www.w3.org/1999/02/22-rdf-syntax-ns#" xmlns:sodipodi="http://sodipodi.sourceforge.net/DTD/sodipodi-0.dtd" xmlns:svg="http://www.w3.org/2000/svg"
	 xmlns="http://www.w3.org/2000/svg" xmlns:xlink="http://www.w3.org/1999/xlink" x="0px" y="0px" viewBox="0 0 79.7 95.5"
	 style="enable-background:new 0 0 79.7 95.5;" xml:space="preserve">
<style type="text/css">
	.st0{fill:#FFFFFF;}
</style>
<g transform="translate(0,-952.36218)">
	<path class="st0" d="M9.1,955.7c-1.7,0-3,1.7-3,3v82c0,1.6,1.4,3,3,3h62c1.6,0,3-1.4,3-3v-64c0-0.8-0.3-1.6-0.9-2.1l-18-18
		c-0.6-0.6-1.3-0.9-2.1-0.9H9.1z M12.1,961.7h38v15c0,1.6,1.4,3,3,3h15v58h-56L12.1,961.7z M56.1,965.9l7.8,7.8h-7.8V965.9z
		 M20.1,989.7c-1.7,0-3,1.3-3,3c0,1.7,1.3,3,3,3h32c1.7,0,3-1.3,3-3c0-1.7-1.3-3-3-3H20.1z M20.1,1005.7c-1.7,0-3,1.3-3,3
		c0,1.7,1.3,3,3,3h40c1.7,0,3-1.3,3-3c0-1.7-1.3-3-3-3H20.1z M20.1,1021.7c-1.7,0-3,1.3-3,3c0,1.7,1.3,3,3,3h40c1.7,0,3-1.3,3-3
		c0-1.7-1.3-3-3-3H20.1z"/>
</g>
</svg>
