<svg id="Layer_1" data-name="Layer 1" xmlns="http://www.w3.org/2000/svg" viewBox="0 0 50 60"><defs><style>.cls-1{fill:#5374d7;}.cls-2{fill:#3a5784;}.cls-3{fill:#fff;}</style></defs><title>ic_contacts</title><path id="Shape" class="cls-1" d="M25,28.17c-8.3,0-25,4.15-25,12.35v8.8H50v-8.8C50,32.33,33.3,28.17,25,28.17Zm0-7c5.7,0.2,10.5-4.55,10.7-10.58h0C35.5,4.55,30.8-.19,25.1,0h0c-5.7-.2-10.5,4.55-10.7,10.58h0A10.5,10.5,0,0,0,25,21.16h0Z"/><ellipse class="cls-2" cx="25" cy="49.42" rx="10.7" ry="10.58"/><path class="cls-3" d="M30,48v2.67H26.6v3.66H23.5V50.71H20V48h3.5V44.38h3.1V48H30Z"/></svg>