<svg xmlns="http://www.w3.org/2000/svg" width="60" height="60" viewBox="0 0 60 60">
  <metadata><?xpacket begin="﻿" id="W5M0MpCehiHzreSzNTczkc9d"?>
<x:xmpmeta xmlns:x="adobe:ns:meta/" x:xmptk="Adobe XMP Core 5.6-c140 79.160451, 2017/05/06-01:08:21        ">
   <rdf:RDF xmlns:rdf="http://www.w3.org/1999/02/22-rdf-syntax-ns#">
      <rdf:Description rdf:about=""/>
   </rdf:RDF>
</x:xmpmeta>
                                                                                                    
                                                                                                    
                                                                                                    
                                                                                                    
                                                                                                    
                                                                                                    
                                                                                                    
                                                                                                    
                                                                                                    
                                                                                                    
                                                                                                    
                                                                                                    
                                                                                                    
                                                                                                    
                                                                                                    
                                                                                                    
                                                                                                    
                                                                                                    
                                                                                                    
                                                                                                    
                           
<?xpacket end="w"?></metadata>
<defs>
    <style>
      .cls-1 {
        fill: #fff;
        fill-rule: evenodd;
      }
    </style>
  </defs>
  <path id="ic_calendar" class="cls-1" d="M15.175,42.019H30.5V26.987H15.175V42.019ZM9.16,53.961V21.086h42.68V53.961H9.16ZM48.833,6.053V0.012H42.674V6.053H18.326V0.012H12.168V6.053H9.16A5.887,5.887,0,0,0,4.792,7.88,5.842,5.842,0,0,0,3,12.094V53.961a5.835,5.835,0,0,0,1.791,4.215A5.878,5.878,0,0,0,9.16,60h42.68a5.958,5.958,0,0,0,4.3-1.826A5.739,5.739,0,0,0,58,53.961V12.094A5.746,5.746,0,0,0,56.138,7.88a5.967,5.967,0,0,0-4.3-1.827H48.833Z"/>
</svg>
