<svg id="Layer_1" data-name="Layer 1" xmlns="http://www.w3.org/2000/svg" viewBox="0 0 120 120"><defs><style>.cls-1{fill:#a4492e;}.cls-2{fill:#fff;}</style></defs><title>ic_categories_lg</title><rect class="cls-1" width="120" height="120" rx="15" ry="15"/><circle class="cls-2" cx="60" cy="60" r="40"/><path class="cls-1" d="M40.75,39.74A5.75,5.75,0,1,1,35,45.48,5.74,5.74,0,0,1,40.75,39.74ZM54.87,69.59H80.11c6.52,0,6.52,9.86,0,9.86H54.87c-6.52,0-6.52-9.86,0-9.86h0Zm-14.13-.82A5.75,5.75,0,1,1,35,74.52,5.75,5.75,0,0,1,40.75,68.77Zm14.13-13.7H80.11c6.52,0,6.52,9.86,0,9.86H54.87c-6.52,0-6.52-9.86,0-9.86h0Zm-14.13-.82A5.75,5.75,0,1,1,35,60,5.75,5.75,0,0,1,40.75,54.25Zm14.13-13.7H80.11c6.52,0,6.52,9.86,0,9.86H54.87c-6.52,0-6.52-9.86,0-9.86h0Z"/></svg>