<?xml version="1.0" encoding="utf-8"?>
<!-- Generator: Adobe Illustrator 21.1.0, SVG Export Plug-In . SVG Version: 6.00 Build 0)  -->
<svg version="1.1" id="Layer_1" xmlns="http://www.w3.org/2000/svg" xmlns:xlink="http://www.w3.org/1999/xlink" x="0px" y="0px"
	 viewBox="0 0 120 120" style="enable-background:new 0 0 120 120;" xml:space="preserve">
<style type="text/css">
	.st0{fill:#39623B;}
	.st1{fill:#FFFFFF;}
	.st2{fill:#FFFFFF;stroke:#548954;stroke-width:1.5;stroke-miterlimit:10;}
</style>
<g>
	<path class="st0" d="M120,15v90c0,8.3-6.7,15-15,15H15c-8.3,0-15-6.7-15-15V15C0,6.7,6.7,0,15,0h90C113.3,0,120,6.7,120,15z"/>
	<path class="st1" d="M85,17.5L25.3,25l9.7,77.5L94.7,95L85,17.5z M60.4,44.2l2.3-5.7c-0.1-0.2-0.2-0.4-0.3-0.6
		c-0.1-0.8,0.5-1.5,1.2-1.6c0.8-0.1,1.5,0.5,1.6,1.2c0,0.3-0.1,0.6-0.2,0.9l1.6,1.9l2.3-6.1c-0.2-0.2-0.3-0.4-0.3-0.7
		c-0.1-0.8,0.5-1.5,1.2-1.6c0.8-0.1,1.5,0.5,1.6,1.2c0,0.2,0,0.5-0.1,0.7l3.8,6.1l1.7-8.4c-0.2-0.2-0.4-0.5-0.4-0.8
		c-0.1-0.8,0.5-1.5,1.2-1.6c0.8-0.1,1.5,0.5,1.6,1.2c0.1,0.7-0.3,1.2-0.9,1.5L76.1,42c-0.1,0.3-0.3,0.5-0.6,0.6
		c-0.3,0.1-0.6-0.1-0.8-0.3L70.2,35l-2.7,7c-0.1,0.2-0.3,0.4-0.6,0.5c-0.3,0-0.5-0.1-0.7-0.3l-2.4-2.9l-2.1,5.3
		c-0.1,0.3-0.3,0.4-0.6,0.5c-0.1,0-0.2,0-0.4,0C60.4,45,60.3,44.6,60.4,44.2z M57.8,34.1c0.4-0.1,0.8,0.2,0.8,0.6l1.5,11.8l21.4-2.7
		c0.4-0.1,0.8,0.2,0.8,0.6c0.1,0.4-0.2,0.8-0.6,0.8l-22.2,2.8c-0.4,0.1-0.8-0.2-0.8-0.6L57.2,35C57.1,34.6,57.4,34.2,57.8,34.1z
		 M52.1,43.2l2.8,20.3l-5,0.7l-2.8-20.3L52.1,43.2z M45.3,41.2l3.3,23.5l-5,0.7l-3.3-23.5L45.3,41.2z M35.1,50.6l5-0.7l2.2,15.5
		l-5,0.7L35.1,50.6z M38.7,74.3l-0.5-3.2l45.7-6.6l0.5,3.2L38.7,74.3z M39.2,78l45.7-6.6l0.5,3.2l-45.7,6.6L39.2,78z M40.2,84.8
		l45.7-6.6l0.5,3.2L40.7,88L40.2,84.8z M41.2,91.7l45.7-6.6l0.5,3.2l-45.7,6.6L41.2,91.7z"/>
	<g>
		<g>
			<circle class="st2" cx="93.8" cy="96.7" r="15"/>
		</g>
		<g>
			<path class="st0" d="M93.7,99.8l0.6-0.6c0.1-0.1,0.2-0.1,0.2-0.2l3.8-3.7c0.4-0.4,0.4-1.1,0-1.5c-0.4-0.4-1.1-0.4-1.5,0l-2.1,2.1
				v-7.4c0-0.6-0.5-1-1-1c-0.6,0-1,0.5-1,1v7.4l-2.1-2.1c-0.4-0.4-1.1-0.4-1.5,0c-0.4,0.4-0.4,1.1,0,1.5L93.7,99.8z"/>
			<path class="st0" d="M102.2,95.9c-0.6,0-1,0.5-1,1v5.2c0,0.1-0.1,0.2-0.2,0.2H86.4c0,0-0.1,0-0.1-0.1v-5.3c0-0.6-0.5-1-1-1
				c-0.6,0-1,0.5-1,1v5.3c0,1.2,1,2.2,2.2,2.2H101c1.3,0,2.3-1,2.3-2.3v-5.2C103.2,96.4,102.8,95.9,102.2,95.9z"/>
		</g>
	</g>
</g>
</svg>
