<?xml version="1.0" encoding="utf-8"?>
<!-- Generator: Adobe Illustrator 21.1.0, SVG Export Plug-In . SVG Version: 6.00 Build 0)  -->
<svg version="1.1" id="Layer_1" xmlns="http://www.w3.org/2000/svg" xmlns:xlink="http://www.w3.org/1999/xlink" x="0px" y="0px"
	 viewBox="0 0 120 120" style="enable-background:new 0 0 120 120;" xml:space="preserve">
<style type="text/css">
	.st0{fill:#663A91;}
	.st1{fill:#4B276B;}
	.st2{fill:#FFFFFF;}
	.st3{fill:#FFFFFF;stroke:#660BAB;stroke-miterlimit:10;}
	.st4{fill:#660BAB;}
	.st5{fill:none;stroke:#660BAB;stroke-width:4;stroke-linecap:round;stroke-linejoin:round;stroke-miterlimit:10;}
</style>
<g>
	<path class="st0" d="M120,15v90c0,8.3-6.7,15-15,15H15c-8.3,0-15-6.7-15-15V15C0,6.7,6.7,0,15,0h90C113.3,0,120,6.7,120,15z"/>
	<g>
		<path class="st1" d="M93.9,17.9v84.4c0,1.4-1.2,2.6-2.6,2.6H28.9c-1.4,0-2.6-1.2-2.6-2.6V41.6c0-0.1,0.1-0.2,0.2-0.3l25.8-25.8
			c0.1-0.1,0.2-0.1,0.3-0.2h38.7C92.7,15.3,93.9,16.4,93.9,17.9z"/>
		<path class="st2" d="M53.9,16.1v21.3c0,2.9-2.4,5.3-5.3,5.3l-21.5,0.1c-0.4,0-0.7-0.2-0.9-0.6l0,0c-0.1-0.2-0.1-0.4,0-0.7
			c0-0.1,0.1-0.2,0.2-0.3l25.8-25.8c0.1-0.1,0.2-0.1,0.3-0.2s0.3-0.1,0.4-0.1c0.1,0,0.2,0,0.4,0.1c0,0,0,0,0.1,0
			C53.7,15.4,53.9,15.8,53.9,16.1z"/>
	</g>
	<g>
		<circle class="st3" cx="97.5" cy="96.7" r="15"/>
		<g>
			<g>
				<g>
					<path class="st4" d="M112.4,97.3H82.7c-0.2,0-0.3-0.2-0.3-0.4s0.1-0.4,0.3-0.4h29.7c0.2,0,0.3,0.2,0.3,0.4
						S112.5,97.3,112.4,97.3z"/>
				</g>
				<g>
					<path class="st5" d="M84.6,96.9"/>
				</g>
			</g>
			<g>
				<path class="st4" d="M99.6,104.8L99.6,104.8c-0.6,0-1.2-0.5-1.2-1.2V89.7c0-0.6,0.5-1.2,1.2-1.2l0,0c0.6,0,1.2,0.5,1.2,1.2v13.9
					C100.8,104.2,100.3,104.8,99.6,104.8z"/>
				<path class="st4" d="M85.8,97.8L85.8,97.8c-0.6,0-1.2-0.5-1.2-1.2l0,0c0-0.6,0.5-1.2,1.2-1.2l0,0c0.6,0,1.2,0.5,1.2,1.2l0,0
					C86.9,97.3,86.4,97.8,85.8,97.8z"/>
				<path class="st4" d="M90.4,103.6L90.4,103.6c-0.6,0-1.2-0.5-1.2-1.2v-8.1c0-0.6,0.5-1.2,1.2-1.2l0,0c0.6,0,1.2,0.5,1.2,1.2v8.1
					C91.5,103.1,91,103.6,90.4,103.6z"/>
				<path class="st4" d="M95,100.1L95,100.1c-0.6,0-1.2-0.5-1.2-1.2V92c0-0.6,0.5-1.2,1.2-1.2l0,0c0.6,0,1.2,0.5,1.2,1.2v6.9
					C96.2,99.6,95.7,100.1,95,100.1z"/>
				<path class="st4" d="M104.3,97.8L104.3,97.8c-0.6,0-1.2-0.5-1.2-1.2V92c0-0.6,0.5-1.2,1.2-1.2l0,0c0.6,0,1.2,0.5,1.2,1.2v4.6
					C105.4,97.3,104.9,97.8,104.3,97.8z"/>
				<path class="st4" d="M108.9,97.8L108.9,97.8c-0.6,0-1.2-0.5-1.2-1.2l0,0c0-0.6,0.5-1.2,1.2-1.2l0,0c0.6,0,1.2,0.5,1.2,1.2l0,0
					C110.1,97.3,109.5,97.8,108.9,97.8z"/>
			</g>
		</g>
	</g>
	<path class="st2" d="M76.4,50.3L76.4,50.3L76.4,50.3h-0.2H61.9h-9.3h-0.1h-0.2c-1,0-1.9,0.8-1.9,1.9v15.4c-0.7-0.3-1.5-0.4-2.3-0.4
		c-3.5,0-6.3,2.8-6.3,6.3s2.8,6.3,6.3,6.3s6.3-2.8,6.3-6.3c0-0.1,0-0.1,0-0.2v-0.1V60h7.4h12.4v7.6c-0.7-0.3-1.5-0.4-2.3-0.4l0,0
		l0,0c-1.7,0-3.3,0.7-4.5,1.8c-0.3,0.3-0.5,0.6-0.8,0.9c-0.2,0.3-0.4,0.7-0.6,1.1c-0.3,0.8-0.5,1.6-0.5,2.5s0.2,1.7,0.5,2.5
		c0.2,0.4,0.4,0.7,0.6,1.1s0.5,0.6,0.8,0.9c1.1,1.1,2.7,1.8,4.5,1.8l0,0l0,0c2.2,0,4.1-1.1,5.2-2.8c0.7-1,1.1-2.2,1.1-3.5
		c0-0.1,0-0.1,0-0.2v-0.1l0,0V58v-5.7v-0.1C78.3,51.1,77.4,50.3,76.4,50.3z"/>
</g>
</svg>
