<?xml version="1.0" encoding="utf-8"?>
<!-- Generator: Adobe Illustrator 21.1.0, SVG Export Plug-In . SVG Version: 6.00 Build 0)  -->
<svg version="1.1" id="Layer_1" xmlns="http://www.w3.org/2000/svg" xmlns:xlink="http://www.w3.org/1999/xlink" x="0px" y="0px"
	 viewBox="0 0 120 120" style="enable-background:new 0 0 120 120;" xml:space="preserve">
<style type="text/css">
	.st0{fill:#6373A1;}
	.st1{fill:#FFFFFF;}
	.st2{fill:#39496B;}
</style>
<g>
	<path class="st0" d="M120,15v90c0,8.3-6.7,15-15,15H15c-8.3,0-15-6.7-15-15V15C0,6.7,6.7,0,15,0h90C113.3,0,120,6.7,120,15z"/>
	<g>
		<circle class="st1" cx="60" cy="50.5" r="31"/>
		<path class="st2" d="M78.4,52.7L48.8,67.3c-0.2,0.1-0.3,0.1-0.5,0.1s-0.4-0.1-0.6-0.2c-0.3-0.2-0.6-0.6-0.6-1l0.1-29.6
			c0-0.4,0.2-0.8,0.6-1c0.3-0.2,0.8-0.2,1.1,0l29.5,14.9c0.4,0.2,0.7,0.6,0.6,1.1C79,52.1,78.8,52.5,78.4,52.7z"/>
	</g>
	<path class="st2" d="M120,99.2v4.5H79.6c-1,0-1.9-0.5-2.2-1.5l-2.7-7.6l-6.6,22.1c-0.3,0.9-1.1,1.6-2.1,1.6h-0.2
		c-1-0.1-1.9-0.9-2-1.9l-4.7-33.9v-0.3L59,82.5l-7,32.6c-0.2,1-1.1,1.7-2.1,1.7l0,0c-1,0-1.9-0.7-2.2-1.7l-5-22.7L38.2,103
		c-0.3,0.8-1.1,1.3-2,1.3H0.1v-4.4h34.6l6.7-15.6c0.4-0.9,1.3-1.4,2.2-1.3c1,0.1,1.7,0.8,2,1.7l4.3,19.6l4.8-22.2l2.8-13
		c0.2-1.1,1.2-1.8,2.2-1.7c1.1,0,2,0.8,2.1,1.9l1.8,13.1l3.2,23.4l5.7-18.9c0.3-0.9,1.1-1.6,2.1-1.6c0.9,0,1.8,0.6,2.1,1.5l4.4,12.5
		H120V99.2z"/>
</g>
</svg>
