<?xml version="1.0" encoding="utf-8"?>
<!-- Generator: Adobe Illustrator 23.1.0, SVG Export Plug-In . SVG Version: 6.00 Build 0)  -->
<svg version="1.1" id="Capa_1" xmlns="http://www.w3.org/2000/svg" xmlns:xlink="http://www.w3.org/1999/xlink" x="0px" y="0px"
	 viewBox="0 0 300 300" style="enable-background:new 0 0 300 300;" xml:space="preserve">
<style type="text/css">
	.st0{fill:#FFFFFF;}
</style>
<path class="st0" d="M297.7,176.4l-1.5-3.7l-1.5,3.7c0,0-6.7,16.5-15.7,15.7c-2.6-7.1-7.9-10.1-16.1-9.7c-1.5-3-3.4-6-5.6-9V170
	c2.6-3.7,3.7-7.1,4.5-10.1c1.9,0,4.9,0,7.5-1.9c3.4-2.6,4.9-7.1,4.9-13.5c0-6.7-3-14.2-8.6-20.6c-9-10.1-17.6-12.7-24.7-7.1
	c0.7-3.3,0.5-7.5,0.5-11.2c0-23.2-18.7-41.9-41.9-41.9c-23.2,0-41.9,18.7-41.9,41.9c0,15.7,8.6,29.9,22.4,37l3.4,1.9l-3.7,1.1
	c-3.7,1.1-7.5,2.6-10.8,4.1l-1.5,0.7l-0.7-1.5c-4.9-11.6-16.1-19.1-28.4-19.1c-10.9,0-21,6-26.6,15.3l-0.7,1.5l-1.1-0.7
	c-4.1-1.9-9-3.7-13.5-4.9l-4.1-1.1l3.7-1.9c15.3-7.5,25.4-23.2,25.4-40c0-24.7-19.8-44.5-44.5-44.5c-24.7,0-44.5,19.8-44.5,44.5
	c0,17.2,10.1,32.9,25.4,40l3.7,1.9l-4.1,1.1C23.6,150.2,0,180.5,0,215.3v4.9h88.3l-0.7,1.9c-1.9,5.6-3,11.2-3,17.2v4.9h106.2
	c2.2,1.5,5.2,2.2,8.2,2.2c4.1,0,7.5-1.5,9.4-2.2c2.6,1.5,5.2,2.2,7.9,2.2c2.6,0,11.6-0.4,16.8-5.6c4.1,4.1,11.2,5.6,16.8,5.6
	c2.6,0,5.6-0.7,7.9-2.2c1.5,0.7,4.9,2.2,9.4,2.2c8.2,0,15.3-6.7,15.3-14.2c0-4.1-1.5-8.2-4.5-10.9c9-3.4,15.7-9,19.1-16.1
	C303.3,191.7,297.7,177.1,297.7,176.4z M215.5,134.5c-1.9,1.9-4.5,6-8.2,14.2c-1.1,1.9-2.6,3.7-4.1,3.7c-1.5,0-2.6-2.6-2.6-7.1
	c0-2.2,0.4-4.5,1.5-6.7c3.4-8.2,11.6-15,14.6-15.3c3.4-0.4,4.5,1.1,5.2,2.6c0,0.4,0.4,0.4,0.4,0.7l0.7,1.1l1.1-0.4
	c0,0,0.4,0,0.7-0.4c0.2-0.3,0.5-0.6,0.7-0.9c2.7-0.3,7.3-0.5,11.2-0.2c3,0,5.2,0.4,6,0.7l1.1,0.4l0.7-1.1c1.1-1.5,3.4-3.7,5.6-3.4
	c3.7,0.7,16.1,11.2,16.1,22.1c0,4.5-1.1,7.1-2.6,7.1c-1.5,0-3.4-1.5-4.1-3.7c-7.5-15.7-10.5-15.7-11.6-15.7h-0.7l-0.4,0.7
	c-0.4,0.7-0.4,0.7,1.5,5.2c1.9,4.1,6.4,14.2,6.4,15.7c0,1.9-0.7,6.7-3.7,11.2c-1.9,2.6-4.7,5-8.1,6.5c-2.6,1.1-5.8,2.1-9.8,2.1
	c-9,0-21.3-6-21.3-19.1v-0.4c0-1.5,4.9-12.3,6.4-16.1c1.9-4.1,1.9-4.1,1.5-4.9l-0.4-0.7c0,0,0.6,0.3-0.6-0.2
	C217.5,131.9,215.5,134.5,215.5,134.5z M177.3,129.2c-0.4-0.4-0.4-0.4-0.7-0.7c-1.5-1.5-2.6-3-3.7-4.5c0,0,0-0.4-0.4-0.4
	c-0.4-0.4-0.4-0.7-0.7-1.1c-1.5-2.2-2.6-4.9-3.4-7.5c-0.4-1.1-0.4-1.9-0.7-3c0,0,0,0,0-0.4c0-0.4,0-1.1-0.4-1.5
	c-0.4-1.5-0.4-3.4-0.4-4.9c0-16.5,12.7-30.3,28.8-31.8c1.1,0,2.2,0,3.4,0c17.6,0,32.2,14.2,32.2,32.2c0,1.1,0,2.2,0,3.4
	c-0.4,3-2.1,8.5-3.2,11.1c-1.5-1.2-2.5-3.2-3.1-2.9c-2.6-2.2-9.4-7.5-22.1,4.1c-2.2,2.2-4.5,4.9-6,7.1c-1.8,2.9-3.2,5.7-4.3,8.6
	c-1.8-0.4-3.2-0.7-4.7-1.5c-0.4,0-0.4,0-0.7-0.4c-0.4,0-0.7-0.4-1.1-0.4c-0.7-0.4-1.1-0.4-1.9-0.7
	C181.5,132.6,179.2,131.1,177.3,129.2z M137.7,140.5c11.6,0,20.6,9.4,20.6,20.6c0,11.6-9.4,20.6-20.6,20.6s-20.6-9-20.6-20.6
	C117.1,149.4,126.5,140.5,137.7,140.5z M42.3,98.2c0-16.8,12-30.7,27.7-34c2.2-0.4,4.5-0.7,7.1-0.7c2.2,0,4.9,0.4,7.1,0.7
	c15.7,3.4,27.7,17.2,27.7,34c0,18-13.5,32.6-31.1,34.4c-1.1,0-2.2,0-3.4,0c-1.1,0-2.2,0-3.4,0C55.7,130.7,42.3,116.1,42.3,98.2z
	 M93.5,210.4H10.1v-1.5c0.4-4.1,1.1-8.6,2.2-12.3c2.2-7.9,6-15.3,10.9-21.7c12.3-16.1,31.4-25.8,53.1-25.8c7.9,0,15.7,1.5,22.8,4.1
	c2.2,0.7,4.9,1.9,7.1,3l0.7,0.4h0.4v1.1c0,1.5-0.4,2.6-0.4,3.7c0,7.9,3,15,7.9,20.6c1.9,1.9,3.7,3.4,6,4.9l2.6,1.9l-3,1.1
	c-4.9,1.9-9.7,4.1-13.8,7.5c-4.9,3.7-9.4,7.9-12.7,13.1H93.5z M180.7,234.4H95l0.4-1.9c3.4-20.6,21.7-36.3,42.7-36.3
	c21,0,39.3,15.7,42.7,36.3V234.4z M208.4,210.4v8.2c-0.7,0.4-1.2,1.1-2,1.5c-3.4,2.6-5.2,6.7-5.2,11.6c0,1.9,0.4,3.7,1.1,5.6
	c-2.2,0.7-4.9,0.4-6.7-0.7c-1.5-0.7-3-2.2-3-4.5c0-6,5.6-6.7,6-6.7h2.2l-0.7-1.9c-0.4-0.7-0.7-1.5-1.1-2.6
	c-1.1-2.9-2.5-6.5-3.3-10.1h0c-1.5-6.4-2.2-13.1,0-16.8c1.1-1.9,3-2.6,6-2.6c1.9,0,4.1,0.4,6.7,1.1V210.4z M208.4,183.1
	c-12.7-3.7-18.7,4.1-19.8,6c-3.3,5.1-3.7,12-2,21h-4l-0.7-0.4c-1.5-2.2-3.4-4.5-5.2-6.7c-0.7-0.7-1.5-1.5-2.2-2.2
	c-0.4-0.4-0.7-0.7-0.7-0.7c-5.2-4.9-11.6-8.6-18.3-10.9l-3-1.1l2.6-1.9c8.2-5.2,13.5-14.6,13.8-24.3V161l0.7-0.4
	c7.3-4,15-6.3,23.1-7.4c0,0.1,0.1,0.2,0.1,0.3c0.7,1.9,1.9,3.4,3.4,4.5c2.6,1.9,5.6,2.2,7.5,2.2c0.7,4.9,3.4,8.6,4.9,10.1V183.1z
	 M254.7,235.9c-1.5,1.1-3,1.9-4.9,1.9c-8.6,0-12.7-3-12.7-8.6v-8.6v-10.1v-6.4c-0.4-2.2-1.9-3.7-3.7-3.7c-2.2,0-3.7,1.5-4.1,3.7v6.4
	h0v10.1v8.6c0,7.1-7.1,8.6-12.7,8.6c-3.7,0-6.7-3-6.7-5.6c0-6,5.3-6.7,5.7-6.7h1.5v-4.9v-10.1v-32.2c4.5,2.6,10.1,4.1,16.1,4.1
	c5.8,0,11.5-1.8,15.9-4.2c0,0,0.1,0.1,0.1,0.1v0.4c0,0,0.1,0.1,0.1,0.1v31.7l-0.1,10.1v4.9h1.5c0.4,0,6,0.7,6,6.7
	C256.6,233.2,255.8,234.7,254.7,235.9z M271.1,214.5c-0.4,0-0.7,0.4-1.1,0.4l-0.7,0.4l-0.4,0.7c-0.7,1.9-1.1,3.7-1.9,4.9
	c-0.7,1.5-1.1,2.6-1.1,2.6l-0.7,1.9h2.2c0.4,0,6,0.7,6,6.7c0,1.1-0.7,3-2.6,4.5c-1.5,0.7-3.7,1.9-7.1,0.7c0.7-1.9,1.1-3.4,1.1-5.2
	c0-4.5-1.9-8.6-5.2-11.6c-0.7-0.7-1-1.1-1.8-1.5v-8.6l-0.1-18.3c4.1-1.1,7.1-1.5,9.4-0.7c3,0.7,4.5,3,4.9,7.1v1.1l1.1,0.4
	c9,3,15-0.4,18.3-3.7C287.6,208.2,275.6,213,271.1,214.5z"/>
</svg>
