<?xml version="1.0" encoding="utf-8"?>
<!-- Generator: Adobe Illustrator 23.1.0, SVG Export Plug-In . SVG Version: 6.00 Build 0)  -->
<svg version="1.1" id="Capa_1" xmlns="http://www.w3.org/2000/svg" xmlns:xlink="http://www.w3.org/1999/xlink" x="0px" y="0px"
	 viewBox="0 0 158.7 91.3" style="enable-background:new 0 0 158.7 91.3;" xml:space="preserve">
<style type="text/css">
	.st0{fill:#EFEFEF;}
	.st1{fill:#FFFFFF;}
</style>
<g>
	<g>
		<g>
			<g>
				<path class="st0" d="M139,52.5c-0.1,0.1-0.2,0.2-0.3,0.3c-3.5,4.1-8.2,6.4-13.3,6.4c-5,0-9.7-2.3-13.3-6.4
					c-0.1-0.1-0.2-0.2-0.3-0.3c-9.2,4.2-15.7,13.6-15.7,24.3v6.9c0,2,1.6,3.5,3.5,3.5h51.4c2,0,3.5-1.6,3.5-3.5v-6.9
					C154.7,66.1,148.2,56.7,139,52.5z"/>
				<path class="st0" d="M125.5,56.2c4.1,0,7.8-1.8,10.5-4.8c3-3.3,5-8,5-13.3c0-10-6.9-18.1-15.5-18.1C116.9,19.9,110,28,110,38
					c0,5.3,1.9,10,5,13.3C117.7,54.4,121.4,56.2,125.5,56.2z"/>
			</g>
		</g>
	</g>
	<g>
		<g>
			<g>
				<path class="st0" d="M46.8,52.5c-0.1,0.1-0.2,0.2-0.3,0.3c-3.5,4.1-8.2,6.4-13.3,6.4c-5,0-9.7-2.3-13.3-6.4
					c-0.1-0.1-0.2-0.2-0.3-0.3C10.5,56.7,4.1,66.1,4.1,76.8v6.9c0,2,1.6,3.5,3.5,3.5H59c2,0,3.5-1.6,3.5-3.5v-6.9
					C62.5,66.1,56,56.7,46.8,52.5z"/>
				<path class="st0" d="M33.3,56.2c4.1,0,7.8-1.8,10.5-4.8c3-3.3,5-8,5-13.3c0-10-6.9-18.1-15.5-18.1c-8.6,0-15.5,8.1-15.5,18.1
					c0,5.3,1.9,10,5,13.3C25.5,54.4,29.2,56.2,33.3,56.2z"/>
			</g>
		</g>
	</g>
	<g>
		<g>
			<path class="st1" d="M96.2,42.1c-0.1,0.1-0.2,0.3-0.3,0.4c-4.1,4.8-9.6,7.5-15.5,7.5c-5.9,0-11.4-2.6-15.5-7.5
				c-0.1-0.1-0.2-0.3-0.3-0.4C53.8,47.1,46.2,58,46.2,70.6v8.1c0,2.3,1.9,4.1,4.1,4.1h60.1c2.3,0,4.1-1.9,4.1-4.1v-8.1
				C114.6,58,107,47.1,96.2,42.1z"/>
			<path class="st1" d="M80.4,46.5c4.8,0,9.1-2.2,12.3-5.7c3.6-3.9,5.8-9.4,5.8-15.6C98.5,13.5,90.4,4,80.4,4
				c-10,0-18.1,9.5-18.1,21.2c0,6.1,2.2,11.7,5.8,15.6C71.3,44.3,75.7,46.5,80.4,46.5z"/>
		</g>
	</g>
</g>
</svg>
