<svg xmlns="http://www.w3.org/2000/svg" width="60" height="60" viewBox="0 0 60 60">
  <metadata><?xpacket begin="﻿" id="W5M0MpCehiHzreSzNTczkc9d"?>
<x:xmpmeta xmlns:x="adobe:ns:meta/" x:xmptk="Adobe XMP Core 5.6-c140 79.160451, 2017/05/06-01:08:21        ">
   <rdf:RDF xmlns:rdf="http://www.w3.org/1999/02/22-rdf-syntax-ns#">
      <rdf:Description rdf:about=""/>
   </rdf:RDF>
</x:xmpmeta>
                                                                                                    
                                                                                                    
                                                                                                    
                                                                                                    
                                                                                                    
                                                                                                    
                                                                                                    
                                                                                                    
                                                                                                    
                                                                                                    
                                                                                                    
                                                                                                    
                                                                                                    
                                                                                                    
                                                                                                    
                                                                                                    
                                                                                                    
                                                                                                    
                                                                                                    
                                                                                                    
                           
<?xpacket end="w"?></metadata>
<defs>
    <style>
      .cls-1 {
        fill: #fff;
        fill-rule: evenodd;
      }
    </style>
  </defs>
  <path id="ic" class="cls-1" d="M0.6,29.862a1.744,1.744,0,0,1,.29-2.76l10.486-9.689V6.988a3.87,3.87,0,0,1,1.108-2.759,3.532,3.532,0,0,1,5.243,0,3.883,3.883,0,0,1,1.106,2.759v3.68L28.857,1.592a1.505,1.505,0,0,1,2.329,0L59.149,27.1a1.659,1.659,0,0,1,.233,2.7,1.74,1.74,0,0,1-1.4.736,1.533,1.533,0,0,1-1.164-.49L30.023,5.639,3.226,30.045A1.556,1.556,0,0,1,.6,29.862ZM22.566,58.007H11.381a3.5,3.5,0,0,1-2.621-1.165,3.868,3.868,0,0,1-1.106-2.759V34.828a3.911,3.911,0,0,1,1.4-3.066L27.692,15.7a3.595,3.595,0,0,1,4.66,0L50.992,31.762a3.911,3.911,0,0,1,1.4,3.066V54.083a3.87,3.87,0,0,1-1.108,2.759,3.5,3.5,0,0,1-2.62,1.165H37.478V38.385H22.566V58.007Z"/>
</svg>
