<?xml version="1.0" encoding="utf-8"?>
<!-- Generator: Adobe Illustrator 21.1.0, SVG Export Plug-In . SVG Version: 6.00 Build 0)  -->
<svg version="1.1" id="Layer_1" xmlns="http://www.w3.org/2000/svg" xmlns:xlink="http://www.w3.org/1999/xlink" x="0px" y="0px"
	 viewBox="0 0 100 81.7" style="enable-background:new 0 0 100 81.7;" xml:space="preserve">
<style type="text/css">
	.st0{fill:#FFFFFF;}
	.st1{opacity:0.81;}
	.st2{opacity:0.66;fill:#FFFFFF;enable-background:new    ;}
	.st3{fill:#434996;}
	.st4{fill:#6C6CCF;}
	.st5{fill:#CF694C;}
	.st6{opacity:0.12;fill:#FFFFFF;enable-background:new    ;}
	.st7{fill:#39623B;}
	.st8{fill:#75A961;}
	.st9{fill:#BCCACE;}
	.st10{fill:#2C5E82;}
	.st11{fill:#F3C144;}
	.st12{fill:#BBEBFF;}
	.st13{fill:#00CFDD;}
	.st14{fill:#B2BBC4;}
	.st15{fill:#005B83;}
	.st16{fill:#FA7A49;}
</style>
<g>
	<g>
		<g>
			<g>
				<g>
					<path class="st0" d="M75.4,29.4h-1.9c-0.8,0-1.5-0.7-1.5-1.5v-2.2c0-0.4-0.3-0.8-0.6-0.9c-0.2-0.1-0.5-0.2-0.7-0.3
						c-0.4-0.2-0.8-0.1-1.1,0.2l-1.6,1.6c-0.3,0.3-0.7,0.4-1,0.4c-0.4,0-0.8-0.2-1-0.4l-1.4-1.4c-0.6-0.6-0.6-1.5,0-2.1l1.6-1.6
						c0.3-0.3,0.4-0.7,0.2-1.1c-0.1-0.2-0.2-0.5-0.3-0.7c-0.1-0.4-0.5-0.6-0.9-0.6H63c-0.8,0-1.5-0.7-1.5-1.5v-1.9
						c0-0.8,0.7-1.5,1.5-1.5h2.2c0.4,0,0.8-0.3,0.9-0.6c0.1-0.2,0.2-0.5,0.3-0.7c0.2-0.4,0.1-0.8-0.2-1.1l-1.6-1.6
						c-0.6-0.6-0.6-1.5,0-2.1l1.4-1.4c0.6-0.6,1.5-0.6,2.1,0L69.7,8c0.3,0.3,0.7,0.4,1.1,0.2C71,8.1,71.3,8,71.5,7.9
						c0.4-0.1,0.6-0.5,0.6-0.9V4.7c0-0.8,0.7-1.5,1.5-1.5h1.9c0.8,0,1.5,0.7,1.5,1.5v2.2c0,0.4,0.3,0.8,0.6,0.9
						c0.2,0.1,0.5,0.2,0.7,0.3c0.4,0.2,0.8,0.1,1.1-0.2L81,6.3c0.6-0.6,1.5-0.6,2.1,0l1.4,1.4c0.6,0.6,0.6,1.5,0,2.1l-1.6,1.6
						c-0.3,0.3-0.4,0.7-0.2,1.1c0.1,0.2,0.2,0.5,0.3,0.7c0.1,0.4,0.5,0.6,0.9,0.6h2.2c0.8,0,1.5,0.7,1.5,1.5v1.9
						c0,0.8-0.7,1.5-1.5,1.5h-2.2c-0.4,0-0.8,0.3-0.9,0.6c-0.1,0.2-0.2,0.5-0.3,0.7c-0.2,0.4-0.1,0.8,0.2,1.1l1.6,1.6
						c0.6,0.6,0.6,1.5,0,2.1l-1.4,1.4c-0.3,0.3-0.7,0.4-1,0.4c-0.4,0-0.8-0.2-1-0.4l-1.6-1.6c-0.3-0.3-0.7-0.4-1.1-0.2
						c-0.2,0.1-0.5,0.2-0.7,0.3c-0.4,0.1-0.6,0.5-0.6,0.9v2.2C76.9,28.7,76.2,29.4,75.4,29.4z M70.2,23.9c0.2,0,0.4,0,0.6,0.1
						c0.2,0.1,0.4,0.2,0.6,0.3c0.6,0.2,1,0.8,1,1.4v2.2c0,0.5,0.4,1,1,1h1.9c0.5,0,1-0.4,1-1v-2.2c0-0.6,0.4-1.2,1-1.4
						c0.2-0.1,0.4-0.2,0.6-0.3c0.6-0.3,1.2-0.1,1.7,0.3l1.6,1.6c0.4,0.4,1,0.4,1.4,0l1.4-1.4c0.4-0.4,0.4-1,0-1.4l-1.6-1.6
						c-0.4-0.4-0.6-1.1-0.3-1.7c0.1-0.2,0.2-0.4,0.3-0.6c0.2-0.6,0.8-1,1.4-1h2.2c0.5,0,1-0.4,1-1v-1.9c0-0.5-0.4-1-1-1h-2.2
						c-0.6,0-1.2-0.4-1.4-1c-0.1-0.2-0.2-0.4-0.3-0.6c-0.3-0.6-0.1-1.2,0.3-1.7L84,9.4c0.4-0.4,0.4-1,0-1.4l-1.4-1.4
						c-0.4-0.4-1-0.4-1.4,0l-1.6,1.6c-0.4,0.4-1.1,0.6-1.7,0.3c-0.2-0.1-0.4-0.2-0.6-0.3c-0.6-0.2-1-0.8-1-1.4V4.7c0-0.5-0.4-1-1-1
						h-1.9c-0.5,0-1,0.4-1,1v2.2c0,0.6-0.4,1.2-1,1.4c-0.2,0.1-0.4,0.2-0.6,0.3c-0.6,0.3-1.2,0.1-1.7-0.3l-1.6-1.6
						c-0.4-0.4-1-0.4-1.4,0l-1.4,1.4c-0.4,0.4-0.4,1,0,1.4l1.6,1.6c0.4,0.4,0.6,1.1,0.3,1.7c-0.1,0.2-0.2,0.4-0.3,0.6
						c-0.2,0.6-0.8,1-1.4,1h-2.2c-0.5,0-1,0.4-1,1v1.9c0,0.5,0.4,1,1,1h2.2c0.6,0,1.2,0.4,1.4,1c0.1,0.2,0.2,0.4,0.3,0.6
						c0.3,0.6,0.1,1.2-0.3,1.7l-1.6,1.6c-0.4,0.4-0.4,1,0,1.4l1.4,1.4c0.4,0.4,1,0.4,1.4,0l1.6-1.6C69.4,24,69.8,23.9,70.2,23.9z
						 M74.4,23.1c-3.8,0-6.9-3.1-6.9-6.9s3.1-6.9,6.9-6.9c3.8,0,6.9,3.1,6.9,6.9C81.3,20.1,78.2,23.1,74.4,23.1z M74.4,9.9
						c-3.5,0-6.4,2.9-6.4,6.4s2.9,6.4,6.4,6.4s6.4-2.9,6.4-6.4S77.9,9.9,74.4,9.9z"/>
				</g>
				<g>
					<path class="st0" d="M71.8,65h-2.4c-0.6,0-1.1-0.4-1.3-0.9c-0.1-0.2-0.2-0.5-0.3-0.7c-0.2-0.5-0.1-1.1,0.3-1.6l1.7-1.7
						c0.5-0.5,0.5-1.4,0-1.9l-1.5-1.5c-0.5-0.5-1.4-0.5-1.9,0l-1.7,1.7c-0.4,0.4-1,0.5-1.6,0.3c-0.2-0.1-0.5-0.2-0.7-0.3
						c-0.5-0.2-0.9-0.7-0.9-1.3v-2.4c0-0.8-0.6-1.4-1.4-1.4h-2.2c-0.8,0-1.4,0.6-1.4,1.4V57c0,0.6-0.4,1.1-0.9,1.3
						c-0.2,0.1-0.5,0.2-0.7,0.3c-0.5,0.2-1.1,0.1-1.6-0.3l-1.7-1.7c-0.5-0.5-1.4-0.5-1.9,0l-1.5,1.5c-0.5,0.5-0.5,1.4,0,1.9l1.7,1.7
						c0.4,0.4,0.5,1,0.3,1.6c-0.1,0.2-0.2,0.5-0.3,0.7c-0.2,0.5-0.7,0.9-1.3,0.9H46c-0.8,0-1.4,0.6-1.4,1.4v2.2
						c0,0.8,0.6,1.4,1.4,1.4h2.4c0.6,0,1.1,0.4,1.3,0.9c0.1,0.2,0.2,0.5,0.3,0.7c0.2,0.5,0.1,1.1-0.3,1.6L48,74.8
						c-0.5,0.5-0.5,1.4,0,1.9l1.5,1.5c0.5,0.5,1.4,0.5,1.9,0l1.7-1.7c0.4-0.4,1-0.5,1.6-0.3c0.2,0.1,0.5,0.2,0.7,0.3
						c0.5,0.2,0.9,0.7,0.9,1.3v2.4c0,0.8,0.6,1.4,1.4,1.4H60c0.8,0,1.4-0.6,1.4-1.4v-2.4c0-0.6,0.4-1.1,0.9-1.3
						c0.2-0.1,0.5-0.2,0.7-0.3c0.5-0.2,1.1-0.1,1.6,0.3l1.7,1.7c0.5,0.5,1.4,0.5,1.9,0l1.5-1.5c0.5-0.5,0.5-1.4,0-1.9L68,73.1
						c-0.4-0.4-0.5-1-0.3-1.6c0.1-0.2,0.2-0.5,0.3-0.7c0.2-0.5,0.7-0.9,1.3-0.9h2.4c0.8,0,1.4-0.6,1.4-1.4v-2.2
						C73.1,65.6,72.5,65,71.8,65z M58.9,74.8c-4,0-7.3-3.3-7.3-7.3s3.3-7.3,7.3-7.3s7.3,3.3,7.3,7.3S62.9,74.8,58.9,74.8z"/>
				</g>
				<g>
					<path class="st0" d="M33.7,79.6h-1.6c-0.7,0-1.3-0.6-1.3-1.3v-1.8c0-0.3-0.2-0.6-0.5-0.7c-0.2-0.1-0.4-0.2-0.6-0.2
						c-0.3-0.1-0.7-0.1-0.9,0.2l-1.3,1.3c-0.2,0.2-0.6,0.4-0.9,0.4c-0.3,0-0.7-0.1-0.9-0.4l-1.2-1.2c-0.2-0.2-0.4-0.6-0.4-0.9
						s0.1-0.7,0.4-0.9l1.3-1.3c0.2-0.2,0.3-0.6,0.2-0.9c-0.1-0.2-0.2-0.4-0.2-0.6c-0.1-0.3-0.4-0.5-0.7-0.5h-1.8
						c-0.7,0-1.3-0.6-1.3-1.3v-1.6c0-0.7,0.6-1.3,1.3-1.3h1.8c0.3,0,0.6-0.2,0.7-0.5c0.1-0.2,0.2-0.4,0.2-0.6
						c0.1-0.3,0.1-0.7-0.2-0.9l-1.3-1.3c-0.2-0.2-0.4-0.6-0.4-0.9s0.1-0.7,0.4-0.9l1.2-1.2c0.5-0.5,1.3-0.5,1.8,0l1.3,1.3
						c0.2,0.2,0.6,0.3,0.9,0.2c0.2-0.1,0.4-0.2,0.6-0.2c0.3-0.1,0.5-0.4,0.5-0.7v-1.8c0-0.7,0.6-1.3,1.3-1.3h1.6
						c0.7,0,1.3,0.6,1.3,1.3v1.8c0,0.3,0.2,0.6,0.5,0.7c0.2,0.1,0.4,0.2,0.6,0.2c0.3,0.1,0.7,0.1,0.9-0.2l1.3-1.3
						c0.5-0.5,1.3-0.5,1.8,0l1.2,1.2c0.2,0.2,0.4,0.6,0.4,0.9s-0.1,0.7-0.4,0.9L40,64.6c-0.2,0.2-0.3,0.6-0.2,0.9
						c0.1,0.2,0.2,0.4,0.2,0.6c0.1,0.3,0.4,0.5,0.7,0.5h1.8c0.7,0,1.3,0.6,1.3,1.3v1.6c0,0.7-0.6,1.3-1.3,1.3h-1.8
						c-0.3,0-0.6,0.2-0.7,0.5c-0.1,0.2-0.2,0.4-0.2,0.6c-0.1,0.3-0.1,0.7,0.2,0.9l1.3,1.3c0.2,0.2,0.4,0.6,0.4,0.9s-0.1,0.7-0.4,0.9
						l-1.2,1.2c-0.2,0.2-0.6,0.4-0.9,0.4s-0.7-0.1-0.9-0.4L37,75.8c-0.2-0.2-0.6-0.3-0.9-0.2c-0.2,0.1-0.4,0.2-0.6,0.2
						c-0.3,0.1-0.5,0.4-0.5,0.7v1.8C35,79,34.4,79.6,33.7,79.6z M29.4,74.9c0.2,0,0.4,0,0.5,0.1c0.2,0.1,0.4,0.2,0.5,0.2
						c0.5,0.2,0.8,0.7,0.8,1.2v1.8c0,0.4,0.4,0.8,0.8,0.8h1.6c0.4,0,0.8-0.4,0.8-0.8v-1.8c0-0.5,0.3-1,0.8-1.2
						c0.2-0.1,0.4-0.1,0.5-0.2c0.5-0.2,1.1-0.1,1.5,0.3l1.3,1.3c0.3,0.3,0.8,0.3,1.1,0l1.2-1.2c0.1-0.1,0.2-0.3,0.2-0.6
						c0-0.2-0.1-0.4-0.2-0.6L39.5,73c-0.4-0.4-0.5-1-0.3-1.5c0.1-0.2,0.2-0.4,0.2-0.5c0.2-0.5,0.7-0.8,1.2-0.8h1.8
						c0.4,0,0.8-0.4,0.8-0.8v-1.6c0-0.4-0.4-0.8-0.8-0.8h-1.8c-0.5,0-1-0.3-1.2-0.8c-0.1-0.2-0.1-0.4-0.2-0.5
						c-0.2-0.5-0.1-1.1,0.3-1.5l1.3-1.3c0.1-0.1,0.2-0.3,0.2-0.6s-0.1-0.4-0.2-0.6l-1.2-1.2c-0.3-0.3-0.8-0.3-1.1,0l-1.3,1.3
						c-0.4,0.4-1,0.5-1.5,0.3c-0.2-0.1-0.4-0.2-0.5-0.2c-0.5-0.2-0.8-0.7-0.8-1.2v-1.8c0-0.4-0.4-0.8-0.8-0.8H32
						c-0.4,0-0.8,0.4-0.8,0.8v1.8c0,0.5-0.3,1-0.8,1.2c-0.2,0.1-0.4,0.1-0.5,0.2c-0.5,0.2-1.1,0.1-1.5-0.3l-1.3-1.3
						c-0.3-0.3-0.8-0.3-1.1,0l-1.2,1.2c-0.1,0.1-0.2,0.3-0.2,0.6s0.1,0.4,0.2,0.6l1.3,1.3c0.4,0.4,0.5,1,0.3,1.5
						c-0.1,0.2-0.2,0.4-0.2,0.5c-0.2,0.5-0.7,0.8-1.2,0.8h-1.8c-0.4,0-0.8,0.4-0.8,0.8v1.6c0,0.4,0.4,0.8,0.8,0.8H25
						c0.5,0,1,0.3,1.2,0.8c0.1,0.2,0.1,0.4,0.2,0.5c0.2,0.5,0.1,1.1-0.3,1.5l-1.3,1.3c-0.1,0.1-0.2,0.3-0.2,0.6
						c0,0.2,0.1,0.4,0.2,0.6l1.2,1.2c0.3,0.3,0.8,0.3,1.1,0l1.3-1.3C28.7,75,29,74.9,29.4,74.9z M32.9,74.4c-3.2,0-5.8-2.6-5.8-5.8
						c0-3.2,2.6-5.8,5.8-5.8s5.8,2.6,5.8,5.8C38.7,71.8,36.1,74.4,32.9,74.4z M32.9,63.3c-2.9,0-5.3,2.4-5.3,5.3s2.4,5.3,5.3,5.3
						c2.9,0,5.3-2.4,5.3-5.3C38.2,65.6,35.8,63.3,32.9,63.3z"/>
				</g>
			</g>
		</g>
		<g>
			<g class="st1">
				<path class="st0" d="M86.7,52.5h-3.3c-0.1,0-0.2-0.1-0.2-0.2c0-0.1,0.1-0.2,0.2-0.2h3.3c0.1,0,0.2,0.1,0.2,0.2
					C87,52.4,86.8,52.5,86.7,52.5z"/>
				<path class="st0" d="M86.7,57.9h-3.3c-0.1,0-0.2-0.1-0.2-0.2c0-0.1,0.1-0.2,0.2-0.2h3.3c0.1,0,0.2,0.1,0.2,0.2
					C87,57.7,86.8,57.9,86.7,57.9z"/>
				<g>
					<g>
						<g>
							<path class="st0" d="M89,63.3H69.2c-0.4,0-0.7-0.3-0.7-0.7V46c0-0.4,0.3-0.7,0.7-0.7H89c0.4,0,0.7,0.3,0.7,0.7v16.6
								C89.7,63,89.4,63.3,89,63.3z M69.2,45.9c-0.1,0-0.2,0.1-0.2,0.2v16.6c0,0.1,0.1,0.2,0.2,0.2H89c0.1,0,0.2-0.1,0.2-0.2V46
								c0-0.1-0.1-0.2-0.2-0.2H69.2V45.9z"/>
							<path class="st2" d="M89,63.3H69.2c-0.4,0-0.7-0.3-0.7-0.7V46c0-0.4,0.3-0.7,0.7-0.7H89c0.4,0,0.7,0.3,0.7,0.7v16.6
								C89.7,63,89.4,63.3,89,63.3z M69.2,45.9c-0.1,0-0.2,0.1-0.2,0.2v16.6c0,0.1,0.1,0.2,0.2,0.2H89c0.1,0,0.2-0.1,0.2-0.2V46
								c0-0.1-0.1-0.2-0.2-0.2H69.2V45.9z"/>
						</g>
					</g>
					<path class="st0" d="M86.7,49.9H71.2c-0.1,0-0.2-0.1-0.2-0.2s0.1-0.2,0.2-0.2h15.5c0.1,0,0.2,0.1,0.2,0.2S86.8,49.9,86.7,49.9z
						"/>
					<path class="st0" d="M86.7,55.1H71.2c-0.1,0-0.2-0.1-0.2-0.2c0-0.1,0.1-0.2,0.2-0.2h15.5c0.1,0,0.2,0.1,0.2,0.2
						C87,55,86.8,55.1,86.7,55.1z"/>
					<path class="st0" d="M79.6,52.5h-8.4c-0.1,0-0.2-0.1-0.2-0.2c0-0.1,0.1-0.2,0.2-0.2h8.4c0.1,0,0.2,0.1,0.2,0.2
						S79.7,52.5,79.6,52.5z"/>
					<path class="st0" d="M79.6,57.9h-8.4c-0.1,0-0.2-0.1-0.2-0.2c0-0.1,0.1-0.2,0.2-0.2h8.4c0.1,0,0.2,0.1,0.2,0.2
						C79.8,57.7,79.7,57.9,79.6,57.9z"/>
					<path class="st0" d="M76.8,60.3h-5.6c-0.1,0-0.2-0.1-0.2-0.2c0-0.1,0.1-0.2,0.2-0.2h5.6c0.1,0,0.2,0.1,0.2,0.2
						C77.1,60.2,77,60.3,76.8,60.3z"/>
				</g>
			</g>
			<g class="st1">
				<path class="st0" d="M23.4,25.2h-3.7c-0.1,0-0.2-0.1-0.2-0.2s0.1-0.2,0.2-0.2h3.7c0.1,0,0.2,0.1,0.2,0.2
					C23.6,25.1,23.5,25.2,23.4,25.2z"/>
				<path class="st0" d="M23.4,31.3h-3.7c-0.1,0-0.2-0.1-0.2-0.2s0.1-0.2,0.2-0.2h3.7c0.1,0,0.2,0.1,0.2,0.2
					C23.6,31.1,23.5,31.3,23.4,31.3z"/>
				<g>
					<g>
						<g>
							<path class="st0" d="M26,37.4H3.4c-0.4,0-0.7-0.3-0.7-0.7V17.8c0-0.4,0.3-0.7,0.7-0.7H26c0.4,0,0.7,0.3,0.7,0.7v18.9
								C26.7,37.1,26.4,37.4,26,37.4z M3.4,17.7c-0.1,0-0.2,0.1-0.2,0.2v18.9c0,0.1,0.1,0.2,0.2,0.2H26c0.1,0,0.2-0.1,0.2-0.2v-19
								c0-0.1-0.1-0.2-0.2-0.2H3.4V17.7z"/>
							<path class="st2" d="M26,37.4H3.4c-0.4,0-0.7-0.3-0.7-0.7V17.8c0-0.4,0.3-0.7,0.7-0.7H26c0.4,0,0.7,0.3,0.7,0.7v18.9
								C26.7,37.1,26.4,37.4,26,37.4z M3.4,17.7c-0.1,0-0.2,0.1-0.2,0.2v18.9c0,0.1,0.1,0.2,0.2,0.2H26c0.1,0,0.2-0.1,0.2-0.2v-19
								c0-0.1-0.1-0.2-0.2-0.2H3.4V17.7z"/>
						</g>
					</g>
					<path class="st0" d="M23.4,22.2H5.9c-0.1,0-0.2-0.1-0.2-0.2s0.1-0.2,0.2-0.2h17.6c0.1,0,0.2,0.1,0.2,0.2
						C23.6,22.1,23.5,22.2,23.4,22.2z"/>
					<path class="st0" d="M23.4,28.1H5.9c-0.1,0-0.2-0.1-0.2-0.2s0.1-0.2,0.2-0.2h17.6c0.1,0,0.2,0.1,0.2,0.2
						C23.6,28,23.5,28.1,23.4,28.1z"/>
					<path class="st0" d="M15.2,25.2H5.7c-0.1,0-0.2-0.1-0.2-0.2s0.1-0.2,0.2-0.2h9.5c0.1,0,0.2,0.1,0.2,0.2
						C15.5,25.1,15.4,25.2,15.2,25.2z"/>
					<path class="st0" d="M15.2,31.3H5.7c-0.1,0-0.2-0.1-0.2-0.2s0.1-0.2,0.2-0.2h9.5c0.1,0,0.2,0.1,0.2,0.2
						C15.5,31.1,15.4,31.3,15.2,31.3z"/>
					<path class="st0" d="M12.1,34.1H5.7c-0.1,0-0.2-0.1-0.2-0.2c0-0.1,0.1-0.2,0.2-0.2h6.4c0.1,0,0.2,0.1,0.2,0.2
						C12.4,34,12.3,34.1,12.1,34.1z"/>
				</g>
			</g>
		</g>
	</g>
	<g>
		<g>
			<g>
				<path class="st3" d="M96,23.9h-1.9h-7.8H85c-0.5,0-0.9,0.4-1.1,0.9L83.5,26c-0.2,0.5-0.6,0.9-1.1,0.9H66.6
					c-0.6,0-1.2,0.6-1.2,1.3l0,0v17.9c0,0.7,0.5,1.3,1.2,1.3h0.1h27.4h1.9c0.7,0,1.2-0.6,1.2-1.3V29.6v-2.8v-1.7
					C97.2,24.5,96.7,23.9,96,23.9z"/>
				<path class="st4" d="M84.7,27l0.4-1.2c0.2-0.5,0.6-0.9,1.2-0.9h9.7c0.7,0,1.2,0.6,1.2,1.3v1.7v2.8v16.5c0,0.7-0.6,1.3-1.2,1.3
					H66.8c-0.7,0-1.2-0.6-1.2-1.3V29.3c0-0.7,0.6-1.3,1.2-1.3h16.9C84.1,27.9,84.6,27.6,84.7,27z"/>
			</g>
			<path class="st0" d="M95,38.5c-0.3,0-0.5,0.2-0.5,0.5v5.7c0,0.3-0.3,0.6-0.6,0.6h-7.2c-0.3,0-0.5,0.2-0.5,0.5s0.2,0.5,0.5,0.5
				h7.2c0.9,0,1.6-0.7,1.6-1.6V39C95.5,38.7,95.3,38.5,95,38.5z"/>
		</g>
		<g>
			<g>
				<g>
					<path class="st5" d="M5.8,44.2h1.9h7.8h1.3c0.5,0,0.9,0.4,1.1,1l0.4,1.4c0.2,0.6,0.6,1,1.1,1h15.9c0.6,0,1.2,0.7,1.2,1.5l0,0
						v20.1c0,0.8-0.5,1.5-1.2,1.5h-0.1H7.7H5.8c-0.7,0-1.2-0.7-1.2-1.5V50.7v-3.1v-1.9C4.6,44.9,5.1,44.2,5.8,44.2z"/>
					<path class="st6" d="M17.2,47.8l-0.4-1.4c-0.2-0.6-0.6-1-1.2-1H5.8c-0.7,0-1.2,0.7-1.2,1.5v1.9v3.1v18.5c0,0.8,0.6,1.5,1.2,1.5
						h29.5c0.7,0,1.2-0.7,1.2-1.5V50.3c0-0.8-0.6-1.5-1.2-1.5h-17C17.8,48.8,17.3,48.4,17.2,47.8z"/>
				</g>
			</g>
			<path class="st0" d="M12.5,48.1H7.9c-0.6,0-1,0.5-1,1.1v3.4c0,0.3,0.2,0.5,0.5,0.5s0.5-0.2,0.5-0.5v-3.4v-0.1h4.6
				c0.3,0,0.5-0.2,0.5-0.5S12.8,48.1,12.5,48.1z"/>
		</g>
	</g>
	<g>
		<path class="st7" d="M68.1,14.7h-2.5C64.9,8,59.2,2.8,52.4,2.8S39.8,8,39.1,14.7h-2.5c-5.2,0-9.5,4.2-9.5,9.5l0,0
			c0,5.2,4.2,9.5,9.5,9.5h31.5c5.2,0,9.5-4.2,9.5-9.5l0,0C77.6,18.9,73.3,14.7,68.1,14.7z"/>
		<path class="st8" d="M68.1,11.9h-2.5C64.9,5.2,59.2,0,52.3,0S39.8,5.2,39.1,11.9h-2.5c-5.2,0-9.5,4.2-9.5,9.5l0,0
			c0,5.2,4.2,9.5,9.5,9.5h31.5c5.2,0,9.5-4.2,9.5-9.5l0,0C77.6,16.1,73.3,11.9,68.1,11.9z"/>
		<g>
			<path class="st0" d="M52.3,21.3l0.6-0.6c0.1-0.1,0.2-0.1,0.2-0.2l3.8-3.7c0.4-0.4,0.4-1.1,0-1.5s-1.1-0.4-1.5,0l-2.1,2.1V9.9
				c0-0.6-0.5-1-1-1c-0.6,0-1,0.5-1,1v7.4l-2.1-2.1c-0.4-0.4-1.1-0.4-1.5,0s-0.4,1.1,0,1.5L52.3,21.3z"/>
			<path class="st0" d="M60.8,17.4c-0.6,0-1,0.5-1,1v5.2c0,0.1-0.1,0.2-0.2,0.2H45c0,0-0.1,0-0.1-0.1v-5.3c0-0.6-0.5-1-1-1
				c-0.6,0-1,0.5-1,1v5.3c0,1.2,1,2.2,2.2,2.2h14.5c1.3,0,2.3-1,2.3-2.3v-5.2C61.8,17.8,61.3,17.4,60.8,17.4z"/>
		</g>
	</g>
	<g id="_x35__3_">
		<g id="_x35__4_">
			<g>
				<rect x="50.4" y="46" transform="matrix(0.46 -0.8879 0.8879 0.46 -15.6298 92.617)" class="st9" width="35.8" height="26.4"/>
				
					<rect x="52" y="46.4" transform="matrix(0.4599 -0.888 0.888 0.4599 -15.5676 93.6297)" class="st0" width="34.4" height="26.4"/>
				<g>
					<g>
						
							<rect x="66" y="43.9" transform="matrix(0.4556 -0.8902 0.8902 0.4556 -5.6263 85.483)" class="st10" width="2.2" height="6.9"/>
					</g>
					<g>
						
							<rect x="66.3" y="45.4" transform="matrix(0.4556 -0.8902 0.8902 0.4556 -8.3364 87.593)" class="st11" width="2.2" height="10.5"/>
					</g>
					<g>
						
							<rect x="64.4" y="48.1" transform="matrix(0.4556 -0.8902 0.8902 0.4556 -11.1119 86.9688)" class="st12" width="2.2" height="9"/>
					</g>
					<g>
						
							<rect x="62.7" y="50.7" transform="matrix(0.4554 -0.8903 0.8903 0.4554 -13.8835 86.595)" class="st13" width="2.2" height="7.9"/>
					</g>
				</g>
			</g>
			<g>
				
					<rect x="65.7" y="53.3" transform="matrix(0.4658 -0.8849 0.8849 0.4658 -20.633 92.6531)" class="st14" width="1.4" height="20.3"/>
				
					<rect x="64.3" y="56" transform="matrix(0.4659 -0.8848 0.8848 0.4659 -23.793 92.8405)" class="st14" width="1.4" height="20.3"/>
				
					<rect x="62.9" y="58.6" transform="matrix(0.4659 -0.8848 0.8848 0.4659 -26.9187 92.9926)" class="st14" width="1.4" height="20.3"/>
				
					<rect x="61.4" y="61.4" transform="matrix(0.4658 -0.8849 0.8849 0.4658 -30.1191 93.203)" class="st14" width="1.4" height="20.3"/>
			</g>
		</g>
		<path class="st14" d="M81.8,53.1l0.1-0.4l0,0l0.2-0.3c0.1,0,0.2,0,0.3-0.1s0.1-0.2,0.2-0.2c0.1,0,0.1,0,0.2-0.1
			c0.1-0.1,0.4-0.5,0.3-0.5c0,0,0,0.1-0.1,0.1c0.3-0.3,0.6-0.8,0.6-1.2c0-0.3-0.2-0.6-0.4-0.6h-0.1c-0.1-0.2-0.6-0.5-1.2-0.3
			c-0.5,0.1-0.5,0.7-0.7,1.1c0-0.1-0.1-0.1-0.1,0C80.9,51,81,51.1,81,51.3c0,0.1-0.1,0.3-0.1,0.5c0,0.1,0,0.1,0.1,0.2l-0.1,0.3l0,0
			l-0.3,0.3c-2.1-0.4-1.8-0.6-3,1.6c1.2,0.6,3.5,1.8,4.7,2.5C83.3,54.2,83.2,54.5,81.8,53.1z"/>
		<g>
			<rect x="77.7" y="52.8" transform="matrix(0.452 -0.892 0.892 0.452 -7.8813 100.8696)" class="st14" width="1" height="8.1"/>
			<rect x="76.8" y="54.6" transform="matrix(0.452 -0.892 0.892 0.452 -9.9409 101.0716)" class="st14" width="1" height="8.1"/>
			<rect x="75.9" y="56.3" transform="matrix(0.452 -0.892 0.892 0.452 -11.9055 101.2355)" class="st14" width="1" height="8.1"/>
		</g>
	</g>
	<g id="_x35_">
		<g>
			
				<rect x="27.9" y="31.9" transform="matrix(0.9644 -0.2646 0.2646 0.9644 -12.2045 13.1258)" class="st9" width="29.5" height="39.9"/>
			
				<rect x="28.9" y="32.4" transform="matrix(0.9644 -0.2646 0.2646 0.9644 -12.095 13.3792)" class="st0" width="29.5" height="38.3"/>
			<g>
				<g>
					
						<rect x="30.4" y="49.9" transform="matrix(0.9644 -0.2646 0.2646 0.9644 -13.0883 10.2986)" class="st15" width="2.5" height="7.7"/>
				</g>
				<g>
					
						<rect x="32.9" y="45.1" transform="matrix(0.9644 -0.2646 0.2646 0.9644 -12.2657 10.8469)" class="st11" width="2.5" height="11.7"/>
				</g>
				<g>
					
						<rect x="35.9" y="45.8" transform="matrix(0.9644 -0.2646 0.2646 0.9644 -12.138 11.6324)" class="st12" width="2.5" height="10.1"/>
				</g>
				<g>
					
						<rect x="38.9" y="46.4" transform="matrix(0.9644 -0.2646 0.2646 0.9644 -12.0047 12.426)" class="st13" width="2.5" height="8.8"/>
				</g>
				<g>
					<g>
						<path class="st15" d="M53.5,45.4L40,49.1c-0.2,0.1-0.5-0.1-0.6-0.3l-2.1-7.6c-0.1-0.2,0.1-0.5,0.3-0.6s0.5,0.1,0.6,0.3l2,7.2
							l13.1-3.6c0.2-0.1,0.5,0.1,0.6,0.3C53.8,45,53.7,45.3,53.5,45.4z"/>
					</g>
					<g>
						<path class="st16" d="M40.7,47.1c-0.1,0-0.2,0-0.2,0c-0.2-0.1-0.4-0.3-0.3-0.6l1-4.3c0-0.2,0.2-0.3,0.3-0.3
							c0.2-0.1,0.3,0,0.4,0.1l1.7,1.6l1.1-4.7c0-0.2,0.2-0.3,0.3-0.3c0.2,0,0.3,0,0.5,0.1l3.4,3.9l0.3-6.1c0-0.3,0.2-0.5,0.5-0.4
							c0.3,0,0.5,0.2,0.4,0.5l-0.4,7.3c0,0.2-0.1,0.4-0.3,0.4c-0.2,0.1-0.4,0-0.5-0.1l-3.5-4.1l-1,4.6c0,0.2-0.2,0.3-0.3,0.3
							c-0.2,0.1-0.3,0-0.5-0.1l-1.7-1.6l-0.8,3.5C41,46.9,40.8,47.1,40.7,47.1z"/>
					</g>
					<g>
						
							<ellipse transform="matrix(0.9644 -0.2646 0.2646 0.9644 -9.6957 12.5331)" class="st16" cx="41.7" cy="42.3" rx="0.9" ry="0.9"/>
					</g>
					<g>
						
							<ellipse transform="matrix(0.9644 -0.2646 0.2646 0.9644 -7.8977 14.4448)" class="st16" cx="49.7" cy="36.5" rx="0.9" ry="0.9"/>
					</g>
					<g>
						
							<ellipse transform="matrix(0.9644 -0.2646 0.2646 0.9644 -8.725 13.3191)" class="st16" cx="45.1" cy="39" rx="0.9" ry="0.9"/>
					</g>
				</g>
			</g>
		</g>
		<g>
			
				<rect x="32.9" y="55.9" transform="matrix(0.9661 -0.2582 0.2582 0.9661 -13.1503 13.3479)" class="st14" width="22.6" height="1.6"/>
			
				<rect x="33.8" y="59.3" transform="matrix(0.9661 -0.2581 0.2581 0.9661 -13.9758 13.6855)" class="st14" width="22.6" height="1.6"/>
			
				<rect x="34.7" y="62.6" transform="matrix(0.9661 -0.2581 0.2581 0.9661 -14.7956 14.0299)" class="st14" width="22.6" height="1.6"/>
			
				<rect x="35.6" y="65.9" transform="matrix(0.9661 -0.2582 0.2582 0.9661 -15.6203 14.3577)" class="st14" width="22.6" height="1.6"/>
		</g>
	</g>
</g>
</svg>
