<?xml version="1.0" encoding="utf-8"?>
<!-- Generator: Adobe Illustrator 21.1.0, SVG Export Plug-In . SVG Version: 6.00 Build 0)  -->
<svg version="1.1" id="Layer_1" xmlns="http://www.w3.org/2000/svg" xmlns:xlink="http://www.w3.org/1999/xlink" x="0px" y="0px"
	 viewBox="0 0 100 81.7" style="enable-background:new 0 0 100 81.7;" xml:space="preserve">
<style type="text/css">
	.st0{opacity:0.41;fill:#508DB7;enable-background:new    ;}
	.st1{fill:#FCFFFF;}
	.st2{fill:#C4E5DB;}
	.st3{fill:#DCAF2F;}
	.st4{opacity:0.67;fill:#DCAF2F;enable-background:new    ;}
	.st5{fill:#E06938;}
	.st6{fill:#616473;}
	.st7{fill:#FFFFFF;}
	.st8{fill:#6B6C6E;}
	.st9{fill:#508DB7;}
	.st10{fill:#E6AD99;}
	.st11{clip-path:url(#SVGID_2_);}
	.st12{opacity:0.41;}
	.st13{fill:#427476;}
	.st14{clip-path:url(#SVGID_4_);fill:#C4E5DB;}
	.st15{clip-path:url(#SVGID_6_);fill:#508DB7;}
	.st16{clip-path:url(#SVGID_8_);}
	.st17{fill:#437776;}
	.st18{clip-path:url(#SVGID_10_);fill:#508DB7;}
</style>
<g>
	<g>
		<g>
			
				<rect x="14.4" y="9.1" transform="matrix(0.4877 -0.873 0.873 0.4877 -5.7246 37.0291)" class="st0" width="28.6" height="28.6"/>
			<rect x="13.7" y="7.3" transform="matrix(0.4877 -0.873 0.873 0.4877 -4.4883 35.496)" class="st1" width="28.6" height="28.6"/>
			<rect x="17" y="7.1" transform="matrix(0.4877 -0.873 0.873 0.4877 -2.9642 35.4044)" class="st2" width="23.3" height="26.3"/>
		</g>
		
			<rect x="21.6" y="14.9" transform="matrix(0.4885 -0.8725 0.8725 0.4885 -12.061 35.6093)" class="st3" width="5.4" height="26.3"/>
		<g>
			<polygon class="st3" points="34.8,22.7 35.4,31.2 27.2,26.6 			"/>
			<polygon class="st4" points="34.8,22.7 35.4,31.2 29.7,28.1 			"/>
		</g>
		<g>
			<polygon class="st3" points="23.9,18.2 24.3,25 17.7,21.4 			"/>
			<polygon class="st4" points="23.9,18.2 24.3,25 19.8,22.5 			"/>
		</g>
		<g>
			<polygon class="st3" points="29.9,19.2 30.6,29.8 20.4,24.1 			"/>
			<polygon class="st4" points="29.9,19.2 30.6,29.8 23.6,25.9 			"/>
		</g>
		<ellipse transform="matrix(0.4885 -0.8725 0.8725 0.4885 3.4456 27.5383)" class="st5" cx="25.2" cy="10.8" rx="2.3" ry="2.3"/>
	</g>
	<g>
		<path class="st6" d="M78.7,79H5.3V33.4c0-1.7,1.4-3.1,3.1-3.1h67.3c1.7,0,3.1,1.4,3.1,3.1V79H78.7z"/>
		<path class="st7" d="M6.4,77.8V33.4c0-1,0.8-1.9,1.9-1.9h67.3c1,0,1.9,0.8,1.9,1.9v44.4H6.4z"/>
		<path class="st6" d="M77.5,79.6H5c-2.8,0-5-2.3-5-5l0,0h82.6l0,0C82.6,77.3,80.3,79.6,77.5,79.6z"/>
		<g>
			<rect x="9.6" y="38.5" class="st8" width="4.2" height="4.2"/>
			<rect x="16.5" y="40.4" class="st8" width="8.3" height="0.9"/>
			<rect x="16.5" y="41.9" class="st8" width="21.1" height="0.9"/>
		</g>
		<g>
			<rect x="9.6" y="46.7" class="st8" width="4.2" height="4.2"/>
			<rect x="16.5" y="48.5" class="st8" width="8.3" height="0.9"/>
			<rect x="16.5" y="50" class="st8" width="21.1" height="0.9"/>
		</g>
		<g>
			<rect x="9.6" y="54.8" class="st8" width="4.2" height="4.2"/>
			<rect x="16.5" y="56.6" class="st8" width="8.3" height="0.9"/>
			<rect x="16.5" y="58.1" class="st8" width="21.1" height="0.9"/>
		</g>
		<g>
			<rect x="9.6" y="62.9" class="st8" width="4.2" height="4.2"/>
			<rect x="16.5" y="64.7" class="st8" width="8.3" height="0.9"/>
			<rect x="16.5" y="66.2" class="st8" width="21.1" height="0.9"/>
		</g>
		<g>
			<g>
				<path class="st9" d="M69.6,68.5h-1c-0.2,0-0.4-0.2-0.4-0.4s0.2-0.4,0.4-0.4h0.6v-0.6c0-0.2,0.2-0.4,0.4-0.4s0.4,0.2,0.4,0.4v1
					C70,68.3,69.8,68.5,69.6,68.5z"/>
			</g>
			<g>
				<path class="st9" d="M65.6,68.5h-2c-0.2,0-0.4-0.2-0.4-0.4s0.2-0.4,0.4-0.4h2c0.2,0,0.4,0.2,0.4,0.4S65.8,68.5,65.6,68.5z
					 M60.5,68.5h-2c-0.2,0-0.4-0.2-0.4-0.4s0.2-0.4,0.4-0.4h2c0.2,0,0.4,0.2,0.4,0.4S60.7,68.5,60.5,68.5z M55.4,68.5h-2
					c-0.2,0-0.4-0.2-0.4-0.4s0.2-0.4,0.4-0.4h2c0.2,0,0.4,0.2,0.4,0.4S55.6,68.5,55.4,68.5z M50.3,68.5h-2c-0.2,0-0.4-0.2-0.4-0.4
					s0.2-0.4,0.4-0.4h2c0.2,0,0.4,0.2,0.4,0.4S50.5,68.5,50.3,68.5z M45.2,68.5h-2c-0.2,0-0.4-0.2-0.4-0.4s0.2-0.4,0.4-0.4h2
					c0.2,0,0.4,0.2,0.4,0.4S45.4,68.5,45.2,68.5z"/>
			</g>
			<g>
				<path class="st9" d="M40.1,68.5h-1c-0.2,0-0.4-0.2-0.4-0.4v-1c0-0.2,0.2-0.4,0.4-0.4s0.4,0.2,0.4,0.4v0.6h0.6
					c0.2,0,0.4,0.2,0.4,0.4S40.3,68.5,40.1,68.5z"/>
			</g>
			<g>
				<path class="st9" d="M39.1,64.5c-0.2,0-0.4-0.2-0.4-0.4v-2c0-0.2,0.2-0.4,0.4-0.4s0.4,0.2,0.4,0.4v2
					C39.5,64.4,39.3,64.5,39.1,64.5z M39.1,59.6c-0.2,0-0.4-0.2-0.4-0.4v-2c0-0.2,0.2-0.4,0.4-0.4s0.4,0.2,0.4,0.4v2
					C39.5,59.5,39.3,59.6,39.1,59.6z M39.1,54.7c-0.2,0-0.4-0.2-0.4-0.4v-2c0-0.2,0.2-0.4,0.4-0.4s0.4,0.2,0.4,0.4v2
					C39.5,54.6,39.3,54.7,39.1,54.7z M39.1,49.8c-0.2,0-0.4-0.2-0.4-0.4v-2c0-0.2,0.2-0.4,0.4-0.4s0.4,0.2,0.4,0.4v2
					C39.5,49.7,39.3,49.8,39.1,49.8z M39.1,44.9c-0.2,0-0.4-0.2-0.4-0.4v-2c0-0.2,0.2-0.4,0.4-0.4s0.4,0.2,0.4,0.4v2
					C39.5,44.8,39.3,44.9,39.1,44.9z"/>
			</g>
			<g>
				<path class="st9" d="M39.1,40c-0.2,0-0.4-0.2-0.4-0.4v-1c0-0.2,0.2-0.4,0.4-0.4h1c0.2,0,0.4,0.2,0.4,0.4S40.3,39,40.1,39h-0.6
					v0.6C39.5,39.9,39.3,40,39.1,40z"/>
			</g>
			<g>
				<path class="st9" d="M65.6,39h-2c-0.2,0-0.4-0.2-0.4-0.4s0.2-0.4,0.4-0.4h2c0.2,0,0.4,0.2,0.4,0.4S65.8,39,65.6,39z M60.5,39h-2
					c-0.2,0-0.4-0.2-0.4-0.4s0.2-0.4,0.4-0.4h2c0.2,0,0.4,0.2,0.4,0.4S60.7,39,60.5,39z M55.4,39h-2c-0.2,0-0.4-0.2-0.4-0.4
					s0.2-0.4,0.4-0.4h2c0.2,0,0.4,0.2,0.4,0.4S55.6,39,55.4,39z M50.3,39h-2c-0.2,0-0.4-0.2-0.4-0.4s0.2-0.4,0.4-0.4h2
					c0.2,0,0.4,0.2,0.4,0.4S50.5,39,50.3,39z M45.2,39h-2c-0.2,0-0.4-0.2-0.4-0.4s0.2-0.4,0.4-0.4h2c0.2,0,0.4,0.2,0.4,0.4
					S45.4,39,45.2,39z"/>
			</g>
			<g>
				<path class="st9" d="M69.6,40c-0.2,0-0.4-0.2-0.4-0.4V39h-0.6c-0.2,0-0.4-0.2-0.4-0.4s0.2-0.4,0.4-0.4h1c0.2,0,0.4,0.2,0.4,0.4
					v1C70,39.9,69.8,40,69.6,40z"/>
			</g>
			<g>
				<path class="st9" d="M69.6,64.5c-0.2,0-0.4-0.2-0.4-0.4v-2c0-0.2,0.2-0.4,0.4-0.4s0.4,0.2,0.4,0.4v2
					C70,64.4,69.8,64.5,69.6,64.5z M69.6,59.6c-0.2,0-0.4-0.2-0.4-0.4v-2c0-0.2,0.2-0.4,0.4-0.4S70,57,70,57.2v2
					C70,59.5,69.8,59.6,69.6,59.6z M69.6,54.7c-0.2,0-0.4-0.2-0.4-0.4v-2c0-0.2,0.2-0.4,0.4-0.4s0.4,0.2,0.4,0.4v2
					C70,54.6,69.8,54.7,69.6,54.7z M69.6,49.8c-0.2,0-0.4-0.2-0.4-0.4v-2c0-0.2,0.2-0.4,0.4-0.4s0.4,0.2,0.4,0.4v2
					C70,49.7,69.8,49.8,69.6,49.8z M69.6,44.9c-0.2,0-0.4-0.2-0.4-0.4v-2c0-0.2,0.2-0.4,0.4-0.4s0.4,0.2,0.4,0.4v2
					C70,44.8,69.8,44.9,69.6,44.9z"/>
			</g>
		</g>
		
			<rect x="25.6" y="50.3" transform="matrix(0.9506 -0.3104 0.3104 0.9506 -17.0993 14.2276)" class="st0" width="21.1" height="21.1"/>
		<g>
			
				<rect x="24" y="49.4" transform="matrix(0.9506 -0.3104 0.3104 0.9506 -16.8936 13.691)" class="st1" width="21.1" height="21.1"/>
			
				<rect x="24.5" y="50.3" transform="matrix(0.9506 -0.3104 0.3104 0.9506 -16.585 13.5251)" class="st10" width="19.4" height="17.2"/>
			<g>
				<g>
					<defs>
						
							<rect id="SVGID_1_" x="24.5" y="50.3" transform="matrix(0.9506 -0.3104 0.3104 0.9506 -16.585 13.5251)" width="19.4" height="17.2"/>
					</defs>
					<clipPath id="SVGID_2_">
						<use xlink:href="#SVGID_1_"  style="overflow:visible;"/>
					</clipPath>
					<g class="st11">
						<g>
							<g>
								<path class="st9" d="M39.2,67.9c0,0-4.3-5-2.4-10.1c1.4-3.7,3.2-2.9,4,0.9C41.6,62.5,39.2,67.9,39.2,67.9z"/>
								<path class="st0" d="M39.1,67.8l-0.2-12.3c-0.7,0-1.4,0.7-2,2.4C35.1,62.4,38.4,66.9,39.1,67.8z"/>
							</g>
							<g class="st12">
								<path class="st9" d="M38.9,57.2c0.4,0.8,0.6,1.6,0.8,2.4c0.1,0.8,0.2,1.6,0.2,2.5c0,0.8,0,1.6-0.1,2.5
									c-0.1,0.8-0.3,1.6-0.7,2.5c-0.4-0.8-0.6-1.6-0.8-2.4c-0.1-0.8-0.2-1.6-0.2-2.5c0-0.8,0-1.6,0.1-2.5
									C38.3,58.8,38.5,58,38.9,57.2z"/>
							</g>
							<g class="st12">
								<path class="st9" d="M40.2,58.4c0.1,0.6,0,1-0.2,1.5c-0.2,0.4-0.5,0.8-1,1.1c-0.1-0.6,0-1,0.2-1.5
									C39.4,59,39.6,58.7,40.2,58.4z"/>
							</g>
							<g class="st12">
								<path class="st9" d="M39,62.4c-0.6-0.2-0.9-0.5-1.2-0.9c-0.3-0.4-0.5-0.8-0.4-1.4c0.6,0.2,0.9,0.5,1.2,0.9
									C38.9,61.4,39.1,61.8,39,62.4z"/>
							</g>
							<g class="st12">
								<path class="st9" d="M39,65.2c-0.6-0.2-0.9-0.5-1.2-0.9c-0.3-0.4-0.5-0.8-0.4-1.4c0.6,0.2,0.9,0.5,1.2,0.9
									C38.8,64.2,39,64.6,39,65.2z"/>
							</g>
							<g class="st12">
								<path class="st9" d="M40.3,61.5c0.1,0.6,0,1-0.2,1.5c-0.2,0.4-0.5,0.8-1,1.1c-0.1-0.6,0-1,0.2-1.5
									C39.5,62.2,39.7,61.8,40.3,61.5z"/>
							</g>
						</g>
						<g>
							<g>
								<path class="st9" d="M38.7,68c0,0-8.1-3.5-8.7-10.8c-0.4-5.3,2.2-5.4,5.4-1.2S38.7,68,38.7,68z"/>
								<path class="st0" d="M38.4,67.9L31,53.1c-0.8,0.4-1.2,1.7-1,4.1C30.5,63.8,37.1,67.2,38.4,67.9z"/>
							</g>
							<g class="st12">
								<path class="st9" d="M32,55.2c0.9,0.8,1.7,1.6,2.3,2.5c0.7,0.9,1.2,1.8,1.7,2.8s0.9,2,1.3,3.1c0.3,1.1,0.6,2.2,0.6,3.4
									c-0.9-0.8-1.7-1.6-2.3-2.5c-0.7-0.9-1.2-1.8-1.7-2.8s-0.9-2-1.2-3.1C32.3,57.5,32.1,56.4,32,55.2z"/>
							</g>
							<g class="st12">
								<path class="st9" d="M34.3,55.9c0.5,0.6,0.6,1.2,0.6,1.9c0,0.6-0.1,1.2-0.6,1.9c-0.5-0.6-0.6-1.2-0.6-1.9
									C33.7,57.2,33.8,56.6,34.3,55.9z"/>
							</g>
							<g class="st12">
								<path class="st9" d="M35.3,61.4c-0.8,0.1-1.4-0.1-1.9-0.4c-0.5-0.3-1-0.7-1.3-1.4c0.8-0.1,1.4,0.1,1.9,0.4
									C34.5,60.3,34.9,60.7,35.3,61.4z"/>
							</g>
							<g class="st12">
								<path class="st9" d="M36.9,64.8c-0.8,0.1-1.4-0.1-1.9-0.4s-1-0.7-1.3-1.4c0.8-0.1,1.4,0.1,1.9,0.4
									C36.1,63.7,36.6,64.1,36.9,64.8z"/>
							</g>
							<g class="st12">
								<path class="st9" d="M36.2,59.7c0.5,0.6,0.6,1.2,0.6,1.9c0,0.6-0.1,1.2-0.6,1.9c-0.5-0.6-0.6-1.2-0.6-1.9
									C35.7,60.9,35.8,60.3,36.2,59.7z"/>
							</g>
						</g>
						<g>
							<g>
								<path class="st9" d="M39.2,68.3c0,0-7.3,1.4-11.1-3.4c-2.8-3.5-1-4.8,3.1-3.4C35.3,62.9,39.2,68.3,39.2,68.3z"/>
								<path class="st0" d="M38.9,68.3l-12-6.8c-0.4,0.6-0.1,1.7,1.2,3.3C31.5,69.2,37.7,68.5,38.9,68.3z"/>
							</g>
							<g class="st12">
								<path class="st9" d="M28.6,62.5c1,0.1,1.9,0.3,2.8,0.7c0.9,0.3,1.7,0.7,2.5,1.2c0.8,0.4,1.6,1,2.3,1.5c0.7,0.6,1.4,1.2,2,2
									c-1-0.1-1.9-0.3-2.8-0.7c-0.9-0.3-1.7-0.7-2.5-1.2s-1.6-1-2.3-1.5C29.9,63.9,29.2,63.3,28.6,62.5z"/>
							</g>
							<g class="st12">
								<path class="st9" d="M30.5,61.9c0.6,0.2,1,0.6,1.3,1s0.5,0.9,0.4,1.6c-0.6-0.2-1-0.6-1.3-1C30.7,63.1,30.5,62.6,30.5,61.9z"
									/>
							</g>
							<g class="st12">
								<path class="st9" d="M33.7,65.3c-0.5,0.4-1,0.6-1.5,0.6s-1,0-1.6-0.4c0.5-0.4,1-0.6,1.5-0.6C32.7,64.9,33.2,64.9,33.7,65.3z
									"/>
							</g>
							<g class="st12">
								<path class="st9" d="M36.5,66.9c-0.5,0.4-1,0.6-1.5,0.6s-1,0-1.6-0.4c0.5-0.4,1-0.6,1.5-0.6S35.9,66.6,36.5,66.9z"/>
							</g>
							<g class="st12">
								<path class="st9" d="M33.6,63.6c0.6,0.2,1,0.6,1.3,1s0.5,0.9,0.4,1.6c-0.6-0.2-1-0.6-1.3-1C33.8,64.8,33.6,64.3,33.6,63.6z"
									/>
							</g>
						</g>
					</g>
				</g>
			</g>
		</g>
	</g>
	<path class="st13" d="M40.3,50.6l13.1,13.1c0.6,0.6,1.5,0.6,2,0l13.1-13.1c0.9-0.9,0.3-2.4-1-2.4h-2.1c-0.8,0-1.4-0.6-1.4-1.4V35.2
		c0-0.8-0.6-1.4-1.4-1.4H46.4c-0.8,0-1.4,0.6-1.4,1.4v11.5c0,0.8-0.6,1.4-1.4,1.4h-2.1C40,48.1,39.4,49.7,40.3,50.6z"/>
	<g>
		<polygon class="st0" points="87.7,3.9 58.6,7.1 61.3,36.1 90.9,33.3 		"/>
		<g>
			<g>
				
					<rect x="58.8" y="4.4" transform="matrix(0.9945 -0.105 0.105 0.9945 -1.5847 7.8091)" class="st1" width="29.1" height="29.1"/>
				
					<rect x="59.7" y="5.6" transform="matrix(0.9945 -0.105 0.105 0.9945 -1.4291 7.7741)" class="st2" width="26.8" height="23.7"/>
				<path class="st13" d="M60.7,27.4c0,0,3.2-7.1,4.9-4.8c1.7,2.3,2.7,3.5,3.9-0.4s1.9-10.9,5.1-6.5s4.1,9.6,5.7,7.8s4.7-2.1,7,1.1
					l0.4,3.4l-26.6,2.8L60.7,27.4z"/>
				<ellipse transform="matrix(0.9945 -0.105 0.105 0.9945 -0.7462 8.4344)" class="st3" cx="79.7" cy="11.3" rx="3.1" ry="3.1"/>
			</g>
		</g>
	</g>
	
		<rect x="67.9" y="45.9" transform="matrix(0.2323 -0.9726 0.9726 0.2323 4.5199 126.5907)" class="st0" width="29.1" height="29.1"/>
	<g>
		
			<rect x="67" y="44.2" transform="matrix(0.2323 -0.9726 0.9726 0.2323 5.4842 124.4011)" class="st1" width="29.1" height="29.1"/>
		<g>
			<defs>
				
					<rect id="SVGID_3_" x="70.1" y="43.8" transform="matrix(0.2293 -0.9733 0.9733 0.2293 7.3965 123.8369)" width="23.7" height="26.8"/>
			</defs>
			<clipPath id="SVGID_4_">
				<use xlink:href="#SVGID_3_"  style="overflow:visible;"/>
			</clipPath>
			
				<rect x="70.1" y="43.8" transform="matrix(0.2323 -0.9726 0.9726 0.2323 7.2054 123.6142)" class="st14" width="23.7" height="26.8"/>
		</g>
		<g>
			<defs>
				
					<rect id="SVGID_5_" x="70.1" y="43.8" transform="matrix(0.2323 -0.9726 0.9726 0.2323 7.2054 123.6143)" width="23.7" height="26.8"/>
			</defs>
			<clipPath id="SVGID_6_">
				<use xlink:href="#SVGID_5_"  style="overflow:visible;"/>
			</clipPath>
			<path class="st15" d="M65.7,59.2c0,0,2.2-2.6,7.4,1.8c4,3.3,7.5-0.9,11.9,3.1c3.5,3.2,7-3.3,11.7,3c3,4-12.7,12-12.7,12
				l-23.3-9.8L65.7,59.2z"/>
		</g>
		<g>
			<defs>
				
					<rect id="SVGID_7_" x="70.1" y="43.8" transform="matrix(0.2323 -0.9726 0.9726 0.2323 7.2054 123.6143)" width="23.7" height="26.8"/>
			</defs>
			<clipPath id="SVGID_8_">
				<use xlink:href="#SVGID_7_"  style="overflow:visible;"/>
			</clipPath>
			<g class="st16">
				<path class="st17" d="M83.4,61.2c0,0-0.9,2.9-3.6,2.7c0,0-3.4,0.2-5.3-1c-0.5-0.3-1.2-2.2-1.2-2.2S78.9,60.9,83.4,61.2z"/>
				<path class="st1" d="M79.5,52.8c0,0,2.8,3.1,2.7,7.7l-4.4,0.1L79.5,52.8z"/>
				<path class="st1" d="M78.9,53.9l-1.3,6.6l-2.9-0.2C74.6,60.4,75.8,55.2,78.9,53.9z"/>
			</g>
		</g>
		<g>
			<defs>
				
					<rect id="SVGID_9_" x="70.1" y="43.8" transform="matrix(0.2323 -0.9726 0.9726 0.2323 7.2054 123.6143)" width="23.7" height="26.8"/>
			</defs>
			<clipPath id="SVGID_10_">
				<use xlink:href="#SVGID_9_"  style="overflow:visible;"/>
			</clipPath>
			<path class="st18" d="M63.5,59.7c0,0,3.4-1.4,7.4,1.8c4.1,3.2,6.9-0.8,11.4,2.7c3.7,3,8.4-1.3,11.5,2.6S81.7,79.6,81.7,79.6
				l-23.3-9.8L63.5,59.7z"/>
		</g>
		<g>
			<ellipse transform="matrix(0.2323 -0.9726 0.9726 0.2323 10.0952 109.198)" class="st1" cx="74.2" cy="48.2" rx="1" ry="1"/>
			
				<ellipse transform="matrix(0.2323 -0.9726 0.9726 0.2323 12.4994 113.6924)" class="st1" cx="78.3" cy="48.9" rx="1.3" ry="1.3"/>
			
				<ellipse transform="matrix(0.2323 -0.9726 0.9726 0.2323 11.8174 111.2054)" class="st1" cx="76.4" cy="48.1" rx="1.5" ry="1.5"/>
		</g>
		<g>
			<ellipse transform="matrix(0.2323 -0.9726 0.9726 0.2323 12.3395 124.3892)" class="st1" cx="85" cy="54.4" rx="0.8" ry="0.8"/>
			<ellipse transform="matrix(0.2323 -0.9726 0.9726 0.2323 14.2857 128.0357)" class="st1" cx="88.3" cy="55" rx="1" ry="1"/>
			
				<ellipse transform="matrix(0.2323 -0.9726 0.9726 0.2323 13.6938 126.1237)" class="st1" cx="86.7" cy="54.4" rx="1.2" ry="1.2"/>
		</g>
		<g>
			<ellipse transform="matrix(0.2323 -0.9726 0.9726 0.2323 22.1495 127.8087)" class="st1" cx="92" cy="49.9" rx="0.5" ry="0.5"/>
			<ellipse transform="matrix(0.2323 -0.9726 0.9726 0.2323 23.2653 129.9447)" class="st1" cx="94" cy="50.2" rx="0.6" ry="0.6"/>
			<ellipse transform="matrix(0.2323 -0.9726 0.9726 0.2323 22.8886 128.7505)" class="st1" cx="93" cy="49.9" rx="0.7" ry="0.7"/>
		</g>
	</g>
</g>
</svg>
