<?xml version="1.0" encoding="utf-8"?>
<!-- Generator: Adobe Illustrator 21.1.0, SVG Export Plug-In . SVG Version: 6.00 Build 0)  -->
<svg version="1.1" id="Layer_1" xmlns="http://www.w3.org/2000/svg" xmlns:xlink="http://www.w3.org/1999/xlink" x="0px" y="0px"
	 viewBox="0 0 100 81.7" style="enable-background:new 0 0 100 81.7;" xml:space="preserve">
<style type="text/css">
	.st0{fill:#EBECF2;}
	.st1{fill:#616473;}
	.st2{fill:#353A3B;}
	.st3{fill:#1A191A;}
	.st4{fill:#5D7CA9;}
	.st5{fill:#39435B;}
	.st6{fill:#FFFFFF;}
	.st7{fill:#548983;}
	.st8{fill:#ECCA59;}
	.st9{fill:#F0F1F1;}
	.st10{fill:#1C2430;}
	.st11{fill:#CF694C;}
	.st12{fill:#B34E41;}
</style>
<g>
	<g>
		<path class="st0" d="M94.4,15.9c-0.1,0-0.2,0-0.2,0c-0.3-2.7-2.5-4.7-5.3-4.7c-0.9,0-1.8,0.2-2.6,0.7c-1.3-3.1-4.3-5.3-7.9-5.3
			c-4.7,0-8.5,3.8-8.5,8.5c0,0.3,0,0.6,0,0.9c-2.8,0.1-5,2.5-5,5.3c0,2.9,2.3,5.2,5.1,5.3c0,0,0,0,0.1,0h23.7c0,0,0,0,0.1,0
			c0.2,0,0.3,0,0.5,0c2.9,0,5.3-2.4,5.3-5.3S97.3,15.9,94.4,15.9z"/>
		<g>
			<path class="st1" d="M84.4,19.8H74.1c-0.2,0-0.3-0.1-0.3-0.3v-8.3c0-0.2,0.1-0.3,0.3-0.3h10.4c0.2,0,0.3,0.1,0.3,0.3v8.3
				C84.8,19.6,84.7,19.8,84.4,19.8z"/>
			<path class="st0" d="M83.8,18.1L81.3,14c-0.1-0.1-0.2-0.2-0.3-0.2l0,0c-0.1,0-0.2,0.1-0.3,0.2l-1.6,2.8l-1.7-1
				c-0.1,0-0.1-0.1-0.2-0.1s-0.2,0-0.3,0.1L75.2,18c-0.1,0.1-0.1,0.3,0,0.4s0.2,0.2,0.3,0.2h8.1c0.1,0,0.3-0.1,0.3-0.2
				C83.8,18.3,83.8,18.2,83.8,18.1z"/>
			<circle class="st0" cx="77.4" cy="13.9" r="1"/>
		</g>
	</g>
	<g>
		<path class="st0" d="M4.8,23.5c0.1,0,0.1,0,0.2,0c0.3-2.3,2.2-4.2,4.6-4.2c0.8,0,1.6,0.2,2.3,0.6c1.1-2.7,3.8-4.7,6.9-4.7
			c4.1,0,7.5,3.3,7.5,7.5c0,0.3,0,0.5,0,0.8c2.5,0.1,4.4,2.2,4.4,4.7s-2,4.6-4.5,4.7c0,0,0,0-0.1,0H5.1c0,0,0,0-0.1,0s-0.3,0-0.4,0
			c-2.6,0-4.7-2.1-4.7-4.7C0.1,25.6,2.2,23.5,4.8,23.5z"/>
		<path class="st1" d="M24.7,26.5l-6.3,0.3l-0.9-2.7c-0.1-0.2-0.3-0.3-0.5-0.3s-0.4,0.1-0.4,0.3l-1.2,4l-1.1-7.8
			c0-0.2-0.2-0.4-0.4-0.4s-0.4,0.1-0.5,0.4l-1.6,7.5l-0.9-4.2c0-0.2-0.2-0.3-0.4-0.4c-0.2,0-0.4,0.1-0.5,0.3l-1.4,3.3L3,26.9
			c-0.3,0-0.5,0.2-0.5,0.5s0.2,0.5,0.5,0.5l0,0l5.9-0.1c0.2,0,0.4-0.1,0.4-0.3l1-2.3l1.1,4.9c0,0.2,0.2,0.4,0.5,0.4l0,0
			c0.2,0,0.4-0.2,0.5-0.4l1.5-7l1,7.3c0,0.2,0.2,0.4,0.4,0.4l0,0c0.2,0,0.4-0.1,0.5-0.3l1.4-4.7l0.6,1.6c0.1,0.2,0.3,0.3,0.5,0.3
			l6.7-0.3c0.3,0,0.5-0.2,0.4-0.5C25.2,26.7,24.9,26.5,24.7,26.5z"/>
	</g>
	<path class="st1" d="M92.1,70.8H30.6c-1.9,0-3.5-1.6-3.5-3.5V24.9c0-1.9,1.6-3.5,3.5-3.5h61.5c1.9,0,3.5,1.6,3.5,3.5v42.4
		C95.6,69.2,93.9,70.8,92.1,70.8z"/>
	<path class="st0" d="M90.7,69.8H32.1c-1.9,0-3.5-1.6-3.5-3.5V26c0-1.9,1.6-3.5,3.5-3.5h58.6c1.9,0,3.5,1.6,3.5,3.5v40.3
		C94.1,68.2,92.6,69.8,90.7,69.8z"/>
	<path class="st1" d="M97.2,75.2H25.5c-1.6,0-2.9-1.3-2.9-2.9l0,0c0-0.8,0.7-1.5,1.5-1.5h74.4c0.8,0,1.5,0.7,1.5,1.5l0,0
		C100.1,73.9,98.8,75.2,97.2,75.2z"/>
	<circle class="st2" cx="61.4" cy="23.5" r="0.5"/>
	<circle class="st2" cx="61.4" cy="68.7" r="0.5"/>
	<path class="st3" d="M22.7,71.7h77.4c-0.2-0.5-0.6-0.9-1.2-0.9H23.9C23.2,70.8,22.9,71.2,22.7,71.7z"/>
	<path class="st4" d="M90.8,67.4H32c-0.7,0-1.3-0.6-1.3-1.3v-40c0-0.7,0.6-1.3,1.3-1.3h58.8c0.7,0,1.3,0.6,1.3,1.3v40.1
		C91.9,66.9,91.4,67.4,90.8,67.4z"/>
	<path class="st5" d="M90.8,24.8H32c-0.7,0-1.3,0.6-1.3,1.3v2.6h61.4v-2.6C91.9,25.4,91.4,24.8,90.8,24.8z"/>
	<circle class="st6" cx="84.1" cy="26.8" r="0.9"/>
	<circle class="st7" cx="86.8" cy="26.8" r="0.9"/>
	<circle class="st8" cx="89.8" cy="26.8" r="0.9"/>
	<g>
		<polygon class="st9" points="34.7,64 33.7,64.7 33.7,64 32.6,64.7 32.6,64 32.2,64 32.2,65.5 32.6,65.5 32.6,64.9 33.7,65.5 
			33.7,64.9 34.7,65.5 		"/>
		<polygon class="st9" points="41.4,64 41.4,64.7 40.4,64 40.4,64.7 39.2,64 39.2,65.5 40.4,64.9 40.4,65.5 41.4,64.9 41.4,65.5 
			41.8,65.5 41.8,64 		"/>
		<polygon class="st9" points="35.9,63.5 38.4,64.8 35.9,66 		"/>
		<path class="st9" d="M43.7,64.4l1-0.9v0.9v0.7V66l-1-0.9l0,0h-0.5v-0.7H43.7z M44.9,64.1v1.3c0.4,0,0.7-0.3,0.7-0.7
			S45.2,64.1,44.9,64.1z M44.8,63.5v0.3c0.5,0.1,0.9,0.5,0.9,1s-0.4,0.9-0.9,1V66c0.7,0,1.3-0.6,1.3-1.3
			C46.1,63.9,45.4,63.5,44.8,63.5z"/>
		<path class="st9" d="M81.9,63.5V66h3.5v-2.5H81.9z M85.1,65.7h-2.7v-1.8h2.7V65.7z"/>
		<path class="st9" d="M87.3,63.5h0.8v0.4h-0.4v0.4h-0.4V63.5z M90.2,65.7h-0.4V66h0.8v-0.8h-0.4V65.7z M89.8,63.5v0.4h0.4v0.4h0.4
			v-0.8L89.8,63.5z M87.7,65.2h-0.4V66h0.8v-0.4h-0.4V65.2z"/>
		<path class="st9" d="M80.3,65v-0.4h-0.4c0-0.1-0.1-0.2-0.1-0.3l0.3-0.3l-0.3-0.3l-0.3,0.3c-0.1,0-0.2-0.1-0.3-0.1v-0.4h-0.4v0.4
			c-0.1,0-0.2,0.1-0.3,0.1l-0.3-0.3L78.1,64l0.3,0.3c-0.1,0.1-0.1,0.2-0.1,0.3h-0.4V65h0.4c0,0.1,0.1,0.2,0.1,0.3l-0.2,0.2l0.3,0.3
			l0.2-0.2c0.1,0.1,0.2,0.1,0.3,0.1V66h0.4v-0.3c0.1,0,0.2-0.1,0.3-0.1l0.2,0.2l0.3-0.3l-0.3-0.3c0-0.1,0.1-0.2,0.1-0.3h0.4V65z
			 M79.1,65.3c-0.3,0-0.5-0.2-0.5-0.5s0.2-0.5,0.5-0.5s0.5,0.2,0.5,0.5C79.7,65.1,79.3,65.3,79.1,65.3z"/>
	</g>
	<path class="st10" d="M90.1,62H32.8c-0.3,0-0.6-0.3-0.6-0.6l0,0c0-0.3,0.3-0.6,0.6-0.6h57.3c0.3,0,0.6,0.3,0.6,0.6l0,0
		C90.7,61.8,90.4,62,90.1,62z"/>
	<path class="st5" d="M71.9,62H32.8c-0.3,0-0.6-0.3-0.6-0.6l0,0c0-0.3,0.3-0.6,0.6-0.6h39.1c0.3,0,0.6,0.3,0.6,0.6l0,0
		C72.6,61.8,72.2,62,71.9,62z"/>
	<path class="st11" d="M55.2,62H32.8c-0.3,0-0.6-0.3-0.6-0.6l0,0c0-0.3,0.3-0.6,0.6-0.6h22.5c0.3,0,0.6,0.3,0.6,0.6l0,0
		C55.9,61.8,55.6,62,55.2,62z"/>
	<circle class="st12" cx="55.2" cy="61.4" r="1.1"/>
	<circle class="st0" cx="60.9" cy="44.5" r="10"/>
	<polygon class="st11" points="57.7,39.8 67.2,44.5 57.7,49.5 	"/>
	<g>
		<path class="st0" d="M4.8,59.8c0.1,0,0.1,0,0.2,0c0.3-2.3,2.2-4.2,4.6-4.2c0.8,0,1.6,0.2,2.3,0.6c1.1-2.7,3.8-4.7,6.9-4.7
			c4.1,0,7.5,3.3,7.5,7.5c0,0.3,0,0.5,0,0.8c2.5,0.1,4.4,2.2,4.4,4.7s-2,4.6-4.5,4.7c0,0,0,0-0.1,0H5.1c0,0,0,0-0.1,0s-0.3,0-0.4,0
			c-2.6,0-4.7-2.1-4.7-4.7C0.1,61.9,2.2,59.8,4.8,59.8z"/>
		<path class="st1" d="M11.6,59.7H7.4c-1,0-1.8,0.8-1.8,1.8v4.1c0,1,0.8,1.8,1.8,1.8h4.1c1,0,1.8-0.8,1.8-1.8v-4.1
			C13.4,60.5,12.6,59.7,11.6,59.7z M11.4,63.5l-3.7,1.8c0,0,0,0-0.1,0H7.5l-0.1-0.1v-3.7c0-0.1,0-0.1,0.1-0.1h0.1l3.7,1.9
			C11.4,63.3,11.4,63.4,11.4,63.5C11.6,63.5,11.4,63.5,11.4,63.5z"/>
		<g>
			<path class="st1" d="M22.2,65.1l0.1,0.1l0,0l0,0h0.1l0,0l0,0l0,0l0,0l0,0l0,0l0,0l1.3-1.3c0.1-0.1,0.1-0.3,0-0.5
				c-0.1-0.1-0.3-0.1-0.5,0l-0.7,0.7v-3V61c-0.1-0.1-0.2-0.2-0.3-0.2l0,0c0,0,0,0-0.1,0l0,0l0,0l0,0C22.1,60.8,22,61,22,61v3
				l-0.7-0.7c-0.1-0.1-0.3-0.1-0.5,0c-0.1,0.1-0.1,0.3,0,0.5L22.2,65.1z"/>
			<path class="st1" d="M25.7,64.2c-0.2,0-0.3,0.1-0.3,0.3v1.1h-2.9h-2.9v-1.1c0-0.2-0.1-0.3-0.3-0.3S19,64.2,19,64.5V66
				c0,0.2,0.1,0.3,0.3,0.3h3.2h3.2c0.1,0,0.1,0,0.2-0.1c0,0,0.1,0,0.1-0.1s0.1-0.1,0.1-0.2v-1.5C25.9,64.4,25.9,64.2,25.7,64.2z"/>
		</g>
	</g>
</g>
</svg>
