<svg id="Capa_1" data-name="Capa 1" xmlns="http://www.w3.org/2000/svg" viewBox="0 0 100 81.67"><defs><style>.cls-1{fill:#e2e0d0;}.cls-2{fill:#eae8dc;}.cls-3{fill:#e59683;}.cls-4{fill:#b6cce0;}.cls-5{fill:gray;}.cls-6{fill:#999;}</style></defs><title>ic_header_sample</title><path class="cls-1" d="M100,12V63.13H0V12A2.79,2.79,0,0,1,2.79,9.17H97.21A2.79,2.79,0,0,1,100,12ZM70.69,47.49V25.8A4.76,4.76,0,0,0,65.93,21H34.07a4.76,4.76,0,0,0-4.76,4.76V47.49a4.76,4.76,0,0,0,4.76,4.76H65.93A4.76,4.76,0,0,0,70.69,47.49Z" transform="translate(0 -9.17)"/><path class="cls-2" d="M100,63.13v-53a2.78,2.78,0,0,0-2.09-.94H40.84L8.2,63.13H100Z" transform="translate(0 -9.17)"/><path class="cls-3" d="M51.31,25.8V47.49a4.76,4.76,0,0,1-4.76,4.76H14.69a4.76,4.76,0,0,1-4.76-4.76V25.8A4.76,4.76,0,0,1,14.69,21H46.55A4.76,4.76,0,0,1,51.31,25.8ZM27.61,42.73l10.53-6.08L27.61,30.57V42.73Z" transform="translate(0 -9.17)"/><polygon class="cls-4" points="38.14 27.48 27.61 33.56 27.61 21.4 38.14 27.48"/><polygon class="cls-5" points="58.9 63.43 60.99 79.36 39.01 79.36 41.1 63.43 58.9 63.43"/><path class="cls-6" d="M100,63.13V69.8a2.79,2.79,0,0,1-2.79,2.79H2.79A2.79,2.79,0,0,1,0,69.8V63.13H100Z" transform="translate(0 -9.17)"/><rect class="cls-6" x="30.62" y="77.04" width="38.75" height="4.62"/><path class="cls-6" d="M63.69,21H78.53a0.72,0.72,0,0,1,0,1.44H63.69A0.72,0.72,0,1,1,63.69,21Z" transform="translate(0 -9.17)"/><path class="cls-6" d="M63.69,26.89H78.53a0.72,0.72,0,1,1,0,1.44H63.69A0.72,0.72,0,1,1,63.69,26.89Z" transform="translate(0 -9.17)"/><path class="cls-6" d="M67.65,51.72h-4a0.72,0.72,0,1,1,0-1.44h4a0.64,0.64,0,0,1,.63.72A0.6,0.6,0,0,1,67.65,51.72Z" transform="translate(0 -9.17)"/><path class="cls-6" d="M67.65,45.87h-4a0.72,0.72,0,1,1,0-1.44h4a0.64,0.64,0,0,1,.63.72A0.6,0.6,0,0,1,67.65,45.87Z" transform="translate(0 -9.17)"/><path class="cls-6" d="M88,40H63.69A0.71,0.71,0,0,1,63,39.3a0.66,0.66,0,0,1,.72-0.72H88a0.71,0.71,0,0,1,.72.72A0.66,0.66,0,0,1,88,40Z" transform="translate(0 -9.17)"/><path class="cls-6" d="M88,34.09H63.69a0.72,0.72,0,1,1,0-1.44H88a0.71,0.71,0,0,1,.72.72A0.66,0.66,0,0,1,88,34.09Z" transform="translate(0 -9.17)"/></svg>