<?xml version="1.0" encoding="utf-8"?>
<!-- Generator: Adobe Illustrator 21.1.0, SVG Export Plug-In . SVG Version: 6.00 Build 0)  -->
<svg version="1.1" id="Layer_1" xmlns="http://www.w3.org/2000/svg" xmlns:xlink="http://www.w3.org/1999/xlink" x="0px" y="0px"
	 viewBox="0 0 100 81.7" style="enable-background:new 0 0 100 81.7;" xml:space="preserve">
<style type="text/css">
	.st0{fill:#444654;}
	.st1{fill:#FFFFFF;}
	.st2{fill:#512B74;}
	.st3{fill:#660BAB;}
	.st4{fill:#EBECF2;}
</style>
<g>
	<g>
		<g>
			<path class="st0" d="M87.1,29.6h-3.2v-7.8c0-9.7-7.9-17.6-17.6-17.6H66c-9.7,0-17.6,7.9-17.6,17.6v7.8h-3.2v-7.8
				c0-2.8,0.5-5.5,1.6-8.1c1-2.5,2.6-4.7,4.4-6.6c1.9-1.9,4.1-3.4,6.6-4.4c2.6-1.1,5.3-1.6,8.1-1.6h0.3c2.8,0,5.5,0.5,8.1,1.6
				c2.5,1,4.7,2.6,6.6,4.4s3.4,4.1,4.4,6.6c1.1,2.6,1.6,5.3,1.6,8.1v7.8L87.1,29.6z"/>
		</g>
		<circle class="st1" cx="36.6" cy="37.7" r="3.6"/>
		<path class="st0" d="M47.4,41.9c0,0.9-0.8,1.7-1.7,1.7h-7.3c-0.9,0-1.7-0.8-1.7-1.7v-8.3c0-0.9,0.8-1.7,1.7-1.7h7.3
			c0.9,0,1.7,0.8,1.7,1.7V41.9z"/>
		<path class="st1" d="M49.1,26.1h-4.6c-0.3,0-0.7,0.3-0.7,0.7v0.6v5.1c0,0.3,0.3,0.7,0.7,0.7h4.6c0.3,0,0.7-0.3,0.7-0.7v-5.1v-0.6
			C49.8,26.4,49.4,26.1,49.1,26.1z"/>
		<path class="st2" d="M50.4,44.6c0,0.6-0.5,1-1,1H42c-0.6,0-1-0.5-1-1V30.9c0-0.6,0.5-1,1-1h7.4c0.6,0,1,0.5,1,1V44.6z"/>
		<g>
			<circle class="st2" cx="66.1" cy="21.5" r="3.1"/>
			<path class="st0" d="M66.1,14.3c0-0.4-0.3-0.5-0.5-0.3l-7.5,4.3c-0.3,0.1-0.8,0.3-1.2,0.3h-1.4c-0.4,0-0.6,0.3-0.6,0.6v4.5
				c0,0.4,0.3,0.6,0.6,0.6H57c0.4,0,0.8,0.1,1.2,0.3l7.5,4.3c0.3,0.1,0.5,0,0.5-0.3L66.1,14.3L66.1,14.3z"/>
		</g>
		<g>
			<g>
				<path class="st0" d="M67.6,27.1l-0.3-1c2.1-0.5,3.6-2.5,3.6-4.6s-1.4-4.1-3.6-4.6l0.3-1c2.6,0.6,4.4,3,4.4,5.5
					C71.9,24.1,70.1,26.4,67.6,27.1z"/>
			</g>
			<g>
				<path class="st0" d="M70.1,28.8l-0.5-0.9c2.3-1.3,3.7-3.7,3.7-6.5s-1.4-5.2-3.7-6.5l0.5-0.9c2.7,1.4,4.3,4.3,4.3,7.4
					S72.9,27.4,70.1,28.8z"/>
			</g>
			<g>
				<path class="st0" d="M72.6,30.4L72,29.6c2.6-1.9,4.1-4.9,4.1-8.1s-1.5-6.3-4.1-8.1l0.6-0.8c2.8,2.1,4.6,5.4,4.6,9
					S75.4,28.4,72.6,30.4z"/>
			</g>
		</g>
		<g>
			<path class="st2" d="M53.1,25.3c-0.3,0-0.5-0.3-0.6-0.5c-0.3-1-0.4-2.2-0.4-3.2c0-3.1,1-6.1,3-8.5c1.8-2.5,4.5-4.1,7.4-4.9
				C62.8,8,63,8.3,63.2,8.5c0.1,0.4-0.1,0.6-0.4,0.8c-5.5,1.5-9.3,6.6-9.3,12.3c0,1,0.1,1.9,0.4,3c0.1,0.4-0.1,0.6-0.5,0.8
				C53.2,25.3,53.1,25.3,53.1,25.3z"/>
		</g>
		<g>
			<path class="st2" d="M78,15.9c-0.3,0-0.4-0.1-0.5-0.4c-0.8-1.4-1.7-2.6-2.8-3.6c-0.3-0.3-0.3-0.6,0-0.9c0.3-0.3,0.6-0.3,0.9,0
				c1.3,1.2,2.3,2.5,3.1,4c0.1,0.3,0,0.6-0.3,0.9C78.1,15.9,78.1,15.9,78,15.9z"/>
		</g>
		<g>
			<path class="st2" d="M69.8,35.1c-0.3,0-0.5-0.1-0.6-0.5s0.1-0.6,0.4-0.8c5.5-1.5,9.3-6.6,9.3-12.3c0-1-0.1-1.9-0.4-3
				c-0.1-0.4,0.1-0.6,0.5-0.8c0.4-0.1,0.6,0.1,0.8,0.5c0.3,1,0.4,2.2,0.4,3.2c0,3.1-1,6.1-3,8.5c-1.8,2.5-4.5,4.1-7.4,4.9
				C69.9,35.1,69.8,35.1,69.8,35.1z"/>
		</g>
		<g>
			<path class="st2" d="M72.2,10.2c-0.1,0-0.1,0-0.3-0.1c-0.8-0.4-1.5-0.6-2.3-0.9c-0.4-0.2-0.5-0.4-0.4-0.8C69.4,8,69.6,7.9,70,8
				c0.9,0.3,1.7,0.5,2.6,1c0.3,0.1,0.4,0.5,0.3,0.9C72.6,10.1,72.5,10.2,72.2,10.2z"/>
		</g>
		<g>
			<path class="st2" d="M62.5,35.1L62.5,35.1c-1-0.3-1.8-0.5-2.7-1c-0.3-0.1-0.4-0.5-0.3-0.9c0.1-0.3,0.5-0.4,0.9-0.3
				c0.8,0.4,1.5,0.6,2.3,0.9c0.4,0.1,0.5,0.4,0.4,0.8C63,34.8,62.8,35.1,62.5,35.1z"/>
		</g>
		<g>
			<path class="st2" d="M57.2,32.3c-0.1,0-0.3,0-0.4-0.1c-1.3-1.2-2.3-2.5-3.1-4c-0.1-0.3,0-0.6,0.3-0.9c0.3-0.1,0.6,0,0.9,0.3
				c0.8,1.4,1.7,2.6,2.8,3.6c0.3,0.3,0.3,0.6,0,0.9C57.6,32.1,57.5,32.3,57.2,32.3z"/>
		</g>
		<g>
			<polygon class="st2" points="69.4,33 68.5,34.8 70.3,35.9 			"/>
			<polygon class="st2" points="62.9,10.1 63.8,8.1 62,7.2 			"/>
		</g>
	</g>
	<g>
		<g>
			<path class="st0" d="M43.8,80L2.2,28.1c-0.6-0.8-0.5-1.9,0.3-2.5L32.7,1.4c0.8-0.6,1.9-0.5,2.5,0.3l41.6,51.9
				c0.6,0.8,0.5,1.9-0.3,2.5L46.3,80.3C45.5,80.9,44.4,80.8,43.8,80z"/>
			
				<rect x="20.7" y="8.9" transform="matrix(0.7804 -0.6253 0.6253 0.7804 -16.2173 32.965)" class="st1" width="36.2" height="61.4"/>
			
				<ellipse transform="matrix(0.7804 -0.6253 0.6253 0.7804 -28.1066 51.6328)" class="st1" cx="59.5" cy="65.8" rx="1.1" ry="1.1"/>
		</g>
		<g>
			<path class="st0" d="M28.5,24l-0.1,1.3l-0.1,1.3l-0.4,6.2c-0.4-0.1-0.8-0.1-1.2-0.1c-1.1,0.2-1.9,1-1.8,1.9
				c0.1,0.8,1.2,1.3,2.3,1.2c1-0.2,1.7-0.8,1.8-1.6l0,0l0.5-7.7l5-0.5l-0.4,5.8c-0.4-0.1-0.8-0.1-1.2-0.1c-1.1,0.2-1.9,1-1.8,1.9
				c0.1,0.8,1.2,1.3,2.3,1.1c1-0.2,1.7-0.8,1.8-1.6l0,0l0.5-7.3l0.1-1.5l0.1-1.1L28.5,24z"/>
			
				<rect x="27.9" y="37" transform="matrix(0.7804 -0.6253 0.6253 0.7804 -15.7781 31.8489)" class="st0" width="19.2" height="2.7"/>
			
				<rect x="34.7" y="41" transform="matrix(0.7804 -0.6253 0.6253 0.7804 -17.5216 34.7536)" class="st0" width="12.1" height="2.7"/>
			<g>
				<path class="st3" d="M56.6,38.8L33.7,57.1c-0.2,0.2-0.5,0.1-0.7-0.1l0,0c-0.2-0.2-0.1-0.5,0.1-0.7L56,38
					c0.2-0.2,0.5-0.1,0.7,0.1l0,0C56.8,38.3,56.8,38.6,56.6,38.8z"/>
				<path class="st3" d="M52.7,43L50,41.7c-0.3-0.2-0.4-0.6-0.1-0.9l2.1-1.7c0.3-0.2,0.7-0.1,0.8,0.3l0.6,3
					C53.5,42.9,53.1,43.2,52.7,43z"/>
			</g>
			<path class="st3" d="M42.8,60.9l-2.2,1.8c-1,0.8-2.6,0.7-3.4-0.4l0,0c-0.8-1-0.7-2.6,0.4-3.4l2.2-1.8c1-0.8,2.6-0.7,3.4,0.4l0,0
				C44.1,58.5,43.9,60.1,42.8,60.9z"/>
			<polygon class="st1" points="38.5,61.4 39,59.2 40.8,61.4 			"/>
			<polygon class="st1" points="40.1,60.1 40.6,57.9 42.4,60.1 			"/>
			<path class="st3" d="M45.5,52.5l2.2-1.8c1-0.8,2.6-0.7,3.4,0.4l0,0c0.8,1,0.7,2.6-0.4,3.4l-2.2,1.8c-1,0.8-2.6,0.7-3.4-0.4l0,0
				C44.3,54.8,44.5,53.3,45.5,52.5z"/>
			<polygon class="st1" points="49,52.7 48.5,54.9 46.7,52.7 			"/>
			<path class="st3" d="M53.5,46.1l2.2-1.8c1-0.8,2.6-0.7,3.4,0.4l0,0c0.8,1,0.7,2.6-0.4,3.4l-2.2,1.8c-1,0.8-2.6,0.7-3.4-0.4l0,0
				C52.3,48.5,52.4,46.9,53.5,46.1z"/>
			<polygon class="st1" points="57.8,45.6 57.3,47.8 55.6,45.6 			"/>
			<polygon class="st1" points="56.2,46.9 55.7,49.1 54,46.9 			"/>
		</g>
		<path class="st0" d="M9.4,27.8l-0.7,0.6c-0.2,0.1-0.4,0.1-0.6-0.1l-0.4-0.5c-0.1-0.2-0.1-0.4,0.1-0.6l0.7-0.6
			c0.2-0.1,0.4-0.1,0.6,0.1l0.4,0.5C9.6,27.4,9.6,27.7,9.4,27.8z"/>
		<path class="st0" d="M13.2,24.8l-0.7,0.6c-0.2,0.1-0.4,0.1-0.6-0.1l-0.4-0.5c-0.1-0.2-0.1-0.4,0.1-0.6l0.7-0.6
			c0.2-0.1,0.4-0.1,0.6,0.1l0.4,0.5C13.4,24.4,13.3,24.7,13.2,24.8z"/>
		<path class="st0" d="M31.4,10.2l-0.7,0.6c-0.2,0.1-0.4,0.1-0.6-0.1l-0.4-0.5c-0.1-0.2-0.1-0.4,0.1-0.6L30.5,9
			c0.2-0.1,0.4-0.1,0.6,0.1l0.4,0.5C31.6,9.8,31.6,10.1,31.4,10.2z"/>
		<path class="st0" d="M27.2,13.6l-0.7,0.6c-0.2,0.1-0.4,0.1-0.6-0.1l-0.4-0.5c-0.1-0.2-0.1-0.4,0.1-0.6l0.7-0.6
			c0.2-0.1,0.4-0.1,0.6,0.1l0.3,0.5C27.4,13.2,27.4,13.5,27.2,13.6z"/>
		<path class="st0" d="M34.1,8.1l-0.7,0.6c-0.2,0.1-0.4,0.1-0.6-0.1l-0.4-0.5c-0.2-0.1-0.2-0.4,0-0.5L33.2,7
			c0.2-0.1,0.4-0.1,0.6,0.1l0.4,0.5C34.3,7.7,34.2,7.9,34.1,8.1z"/>
	</g>
	<g>
		<g>
			<path class="st4" d="M81.9,54.9H66.7c-0.6,0-1.1-0.5-1.1-1.1s0.5-1.1,1.1-1.1h15.1c1.4,0,2.5-1.1,2.5-2.5V35.6
				c0-0.6,0.5-1.1,1.1-1.1s1.1,0.5,1.1,1.1v14.7C86.6,52.8,84.4,54.9,81.9,54.9z"/>
		</g>
		<path class="st4" d="M87.8,26.1h-4.6c-0.3,0-0.7,0.3-0.7,0.7v0.6v5.1c0,0.3,0.3,0.7,0.7,0.7h4.6c0.1,0,0.2,0,0.3-0.1
			c0.2-0.1,0.4-0.4,0.4-0.6v-5.7C88.5,26.4,88.1,26.1,87.8,26.1z"/>
		<circle class="st2" cx="66.1" cy="53.8" r="3.2"/>
		<circle class="st1" cx="94.5" cy="37.7" r="3.6"/>
		<path class="st0" d="M83.7,41.9c0,0.9,0.8,1.7,1.7,1.7h7.3c0.9,0,1.7-0.8,1.7-1.7v-8.3c0-0.9-0.8-1.7-1.7-1.7h-7.3
			c-0.9,0-1.7,0.8-1.7,1.7V41.9z"/>
		<path class="st2" d="M80.7,44.6c0,0.6,0.5,1,1,1h7.5c0.6,0,1-0.5,1-1V30.9c0-0.6-0.5-1-1-1h-7.4c-0.6,0-1,0.5-1,1L80.7,44.6
			L80.7,44.6z"/>
	</g>
</g>
</svg>
