<?xml version="1.0" encoding="utf-8"?>
<!-- Generator: Adobe Illustrator 23.1.0, SVG Export Plug-In . SVG Version: 6.00 Build 0)  -->
<svg version="1.1" id="Capa_1" xmlns="http://www.w3.org/2000/svg" xmlns:xlink="http://www.w3.org/1999/xlink" x="0px" y="0px"
	 viewBox="0 0 158.7 175.1" style="enable-background:new 0 0 158.7 175.1;" xml:space="preserve">
<style type="text/css">
	.st0{fill:#D8DEEE;}
	.st1{fill:#AFB9D7;}
	.st2{fill:#D2D8E8;}
	.st3{fill:#304C5E;}
	.st4{fill:#B6BDD6;}
	.st5{fill:#FFFFFF;}
</style>
<g>
	<rect x="3.6" y="2.6" class="st0" width="131.6" height="151"/>
	<rect x="13" y="10.9" class="st1" width="131.6" height="151"/>
	<rect x="23.6" y="21.5" class="st2" width="131.6" height="151"/>
	<rect x="46.9" y="42.4" class="st3" width="13" height="13"/>
	<g>
		<rect x="65.6" y="46.8" class="st4" width="31.5" height="2.1"/>
		<rect x="65.6" y="54.4" class="st4" width="65" height="2.1"/>
	</g>
	<rect x="46.9" y="66.6" class="st3" width="13" height="13"/>
	<g>
		<rect x="65.6" y="71" class="st4" width="31.5" height="2.1"/>
		<rect x="65.6" y="78.6" class="st4" width="65" height="2.1"/>
	</g>
	<rect x="46.9" y="89.2" class="st3" width="13" height="13"/>
	<g>
		<rect x="65.6" y="93.7" class="st4" width="31.5" height="2.1"/>
		<rect x="65.6" y="101.2" class="st4" width="65" height="2.1"/>
	</g>
	<rect x="46.9" y="113.4" class="st3" width="13" height="13"/>
	<g>
		<rect x="65.6" y="117.8" class="st4" width="31.5" height="2.1"/>
		<rect x="65.6" y="125.4" class="st4" width="65" height="2.1"/>
	</g>
	<rect x="46.9" y="137.6" class="st3" width="13" height="13"/>
	<g>
		<rect x="65.6" y="142" class="st4" width="31.5" height="2.1"/>
		<rect x="65.6" y="149.5" class="st4" width="65" height="2.1"/>
	</g>
	<path class="st5" d="M63.1,59.1H43.4V39.4h19.7V59.1z M44.9,57.6h16.7V40.9H44.9V57.6z"/>
	<path class="st5" d="M63.1,83.3H43.4V63.6h19.7V83.3z M44.9,81.8h16.7V65.1H44.9V81.8z"/>
	<path class="st5" d="M63.1,105.9H43.4V86.2h19.7V105.9z M44.9,104.4h16.7V87.7H44.9V104.4z"/>
	<path class="st5" d="M63.1,130.1H43.4v-19.7h19.7V130.1z M44.9,128.6h16.7v-16.7H44.9V128.6z"/>
	<path class="st5" d="M63.1,154.3H43.4v-19.7h19.7V154.3z M44.9,152.8h16.7v-16.7H44.9V152.8z"/>
</g>
</svg>
