<svg id="Layer_1" data-name="Layer 1" xmlns="http://www.w3.org/2000/svg" viewBox="0 0 60 58.44"><defs><style>.cls-1{fill:#fff;}</style></defs><title>ic_signout</title><path class="cls-1" d="M38.73,16.89V24H20a1.7,1.7,0,0,0-1.71,1.71v8.53A1.7,1.7,0,0,0,20,36H38.73v7.14A2.05,2.05,0,0,0,42,44.75L59.19,31.67a2.08,2.08,0,0,0,0-3.29L42,15.25A2,2,0,0,0,38.73,16.89Z" transform="translate(0 -0.78)"/><path class="cls-1" d="M0,2.49v55a1.7,1.7,0,0,0,1.71,1.71h20a1.7,1.7,0,0,0,1.71-1.71V50.56a1.7,1.7,0,0,0-1.71-1.71H10.3V11.08H21.73a1.7,1.7,0,0,0,1.71-1.71V2.49A1.7,1.7,0,0,0,21.73.78h-20A1.7,1.7,0,0,0,0,2.49Z" transform="translate(0 -0.78)"/></svg>