<svg id="Capa_1" data-name="Capa 1" xmlns="http://www.w3.org/2000/svg" viewBox="0 0 125 78.51"><defs><style>.cls-1{fill:#487771;stroke:#fff;stroke-miterlimit:10;stroke-width:5px;}.cls-2{fill:#fff;}</style></defs><title>ic_upload_lg</title><path class="cls-1" d="M101.94,56.66a27,27,0,0,0,.9-6.93A26.1,26.1,0,0,0,94.93,30.9a27.12,27.12,0,0,0-19.08-7.66A26.64,26.64,0,0,0,50.23,41.36,15.75,15.75,0,0,0,24.15,57a20.26,20.26,0,0,0-4-.41A20,20,0,0,0,5.89,62.5,19.85,19.85,0,0,0,0,76.68,20.11,20.11,0,0,0,20.13,96.74h0l79.73,0A20.1,20.1,0,0,0,101.94,56.66Z" transform="translate(2.5 -20.74)"/><path class="cls-2" d="M68.36,68.28a3,3,0,0,1-2,.73A3.14,3.14,0,0,1,64,68l-1.2-1.33V78.4a3,3,0,0,1-6,0V66.82L55.86,68a3,3,0,0,1-4.22.32A3,3,0,0,1,51.33,64l6.38-7.4A3,3,0,0,1,62,56.3c0.09,0.07.29,0.29,0.32,0.32L68.67,64A3,3,0,0,1,68.36,68.28Z" transform="translate(2.5 -20.74)"/></svg>