<svg xmlns="http://www.w3.org/2000/svg" width="60" height="60" viewBox="0 0 60 60">
  <metadata><?xpacket begin="﻿" id="W5M0MpCehiHzreSzNTczkc9d"?>
<x:xmpmeta xmlns:x="adobe:ns:meta/" x:xmptk="Adobe XMP Core 5.6-c140 79.160451, 2017/05/06-01:08:21        ">
   <rdf:RDF xmlns:rdf="http://www.w3.org/1999/02/22-rdf-syntax-ns#">
      <rdf:Description rdf:about=""/>
   </rdf:RDF>
</x:xmpmeta>
                                                                                                    
                                                                                                    
                                                                                                    
                                                                                                    
                                                                                                    
                                                                                                    
                                                                                                    
                                                                                                    
                                                                                                    
                                                                                                    
                                                                                                    
                                                                                                    
                                                                                                    
                                                                                                    
                                                                                                    
                                                                                                    
                                                                                                    
                                                                                                    
                                                                                                    
                                                                                                    
                           
<?xpacket end="w"?></metadata>
<defs>
    <style>
      .cls-1 {
        fill: #fff;
        fill-rule: evenodd;
      }
    </style>
  </defs>
  <path id="ic" class="cls-1" d="M56.764,33.507a11.983,11.983,0,0,1,3.281,8.5,11.978,11.978,0,0,1-3.281,8.5,10.521,10.521,0,0,1-7.969,3.5H37.546a3.492,3.492,0,0,1-2.637-1.188A3.96,3.96,0,0,1,33.8,50.008v-12h7.969l-11.719-16-11.719,16H26.3v12a3.967,3.967,0,0,1-1.113,2.812,3.5,3.5,0,0,1-2.637,1.188H13.17a12.253,12.253,0,0,1-9.258-4.126A13.935,13.935,0,0,1,.046,40.006a14.072,14.072,0,0,1,3.222-9.187A12.1,12.1,0,0,1,11.3,26.257v-0.25A19.92,19.92,0,0,1,16.8,11.882,17.512,17.512,0,0,1,30.045,6.006a17.509,17.509,0,0,1,13.241,5.876A19.922,19.922,0,0,1,48.8,26.008a22.978,22.978,0,0,1-.351,4H48.8A10.525,10.525,0,0,1,56.764,33.507Z"/>
</svg>
