<?xml version="1.0" encoding="utf-8"?>
<!-- Generator: Adobe Illustrator 23.1.0, SVG Export Plug-In . SVG Version: 6.00 Build 0)  -->
<svg version="1.1" id="Capa_1" xmlns="http://www.w3.org/2000/svg" xmlns:xlink="http://www.w3.org/1999/xlink" x="0px" y="0px"
	 viewBox="0 0 22.7 22.2" style="enable-background:new 0 0 22.7 22.2;" xml:space="preserve">
<style type="text/css">
	.st0{fill:#FFFFFF;}
</style>
<g>
	<path class="st0" d="M20.3,1h-18c-0.6,0-1,0.4-1,1v18c0,0.6,0.4,1,1,1h18c0.6,0,1-0.4,1-1V2C21.3,1.4,20.9,1,20.3,1z M19.3,3v13.7
		l-3.3-3c-0.4-0.4-1-0.4-1.4,0L11.3,17l-3.2-5.5c-0.4-0.7-1.3-0.7-1.7,0l-3.1,5V3H19.3z"/>
	<circle class="st0" cx="13" cy="7.6" r="2"/>
</g>
</svg>
