<?xml version="1.0" encoding="utf-8"?>
<!-- Generator: Adobe Illustrator 23.1.0, SVG Export Plug-In . SVG Version: 6.00 Build 0)  -->
<svg version="1.1" xmlns="http://www.w3.org/2000/svg" xmlns:xlink="http://www.w3.org/1999/xlink" x="0px" y="0px"
	 viewBox="0 0 100 67.8" style="enable-background:new 0 0 100 67.8;" xml:space="preserve">
<style type="text/css">
	.st0{fill:#FFFFFF;}
</style>
<g id="Capa_2">
</g>
<g id="Capa_1">
	<path class="st0" d="M92.2,10.6c-3.3-1.9-7.3-1.9-10.6,0l-11.3,6.5v-3.7c0-5.8-4.7-10.6-10.6-10.6H13.1C7.3,2.8,2.5,7.5,2.5,13.4
		v41C2.5,60.2,7.2,65,13.1,65h46.6c5.8,0,10.6-4.7,10.6-10.6v-3.7l11.3,6.5c1.7,1,3.5,1.4,5.3,1.4s3.6-0.5,5.3-1.4
		c3.3-1.9,5.3-5.3,5.3-9.2V19.8C97.5,15.9,95.5,12.5,92.2,10.6z M13.1,54.4v-41h46.6v41H13.1z M86.9,48l-16.6-9.6v-9.1l16.6-9.6V48z
		"/>
</g>
</svg>
