<?xml version="1.0" encoding="utf-8"?>
<!-- Generator: Adobe Illustrator 23.1.0, SVG Export Plug-In . SVG Version: 6.00 Build 0)  -->
<svg version="1.1" id="Capa_1" xmlns="http://www.w3.org/2000/svg" xmlns:xlink="http://www.w3.org/1999/xlink" x="0px" y="0px"
	 viewBox="0 0 234 231.6" style="enable-background:new 0 0 234 231.6;" xml:space="preserve">
<style type="text/css">
	.st0{fill:#FFFFFF;}
	.st1{fill:#25A7DF;}
</style>
<circle class="st0" cx="117" cy="115.8" r="111.5"/>
<g>
	<path class="st1" d="M143.6,79.1c-2.8-5.3-6.7-9.5-11.8-12.6c-5.1-3.1-11.2-4.6-18.2-4.6s-13.1,1.5-18.2,4.6
		c-5.2,3.1-9.1,7.3-11.8,12.6c-2.7,5.3-4.1,11.1-4.1,17.4c0,6.3,1.4,12,4.1,17.3l0,0c0.5,0.9,0.6,1.9,0.2,2.9l-1.9,5.9
		c-0.6,1.8,0.5,3.8,2.4,4.1l1.9,0.4c3.8,0.8,7.3,1.1,10.7,1.1l0,0c1.4,0,2.9,0.2,4.3,0.7c3.7,1.3,7.8,1.9,12.4,1.9
		c7,0,13.1-1.5,18.2-4.6c5.1-3.1,9.1-7.3,11.8-12.5s4.1-11,4.1-17.3C147.8,90.2,146.4,84.4,143.6,79.1z M125.2,110
		c-2.7,3.3-6.6,5-11.6,5c-5.1,0-9-1.7-11.8-5c-2.7-3.3-4.1-7.9-4.1-13.7c0-5.8,1.4-10.4,4.1-13.7c2.7-3.3,6.6-5,11.8-5
		c5,0,8.9,1.7,11.6,5c2.7,3.3,4.1,7.9,4.1,13.7C129.4,102.2,128.1,106.7,125.2,110z"/>
	<path class="st1" d="M141.4,175.1c-16.1,7.4-33.5,10.5-52.7,8.3c-3.9-0.4-7.5-2.9-8.2-7.8l-0.2-0.8c-0.7-4.9,1.9-10.7,5.6-9.8
		c17.7,4.4,35.3,2,52.8-7.6c3.3-1.8,7.4,2.9,8.2,7.6c0,0.1,0,0.1,0,0.2C147.8,170,144.9,173.5,141.4,175.1z"/>
	<path class="st1" d="M141.6,149.4c-15.8,7.9-33.1,11.6-52.4,10.1c-3.9-0.3-7.6-2.6-8.5-7.5l-0.2-0.8c-0.9-4.8,1.5-10.8,5.3-10
		c17.8,3.8,35.3,0.8,52.5-9.4c3.3-2,7.5,2.6,8.4,7.4c0,0.1,0,0.1,0,0.2C147.6,144.1,144.9,147.6,141.6,149.4z"/>
	<circle class="st1" cx="145.9" cy="56.1" r="8.5"/>
</g>
</svg>
