<svg xmlns="http://www.w3.org/2000/svg" viewBox="0 0 1282 1483.12"><defs><style>.cls-1{fill:#fff;}</style></defs><title>Recurso 7</title><g id="Capa_2" data-name="Capa 2"><g id="Capa_1-2" data-name="Capa 1"><path class="cls-1" d="M611,1262h671v219H755.36S574,1485.78,544,1481c-88-14-224-91-252-205s65-295,133-327,84-41,169-41,202,25,247,61,114,27,164-1,47.9-110.59,38-152c-11-46-59-62-117-62s-93.55,12.2-157,49c-50,29-117.25,50.14-196,46-95-5-198-33-261-104s-59-109-65-220c-4.1-75.89,73-244,225-275,111.22-22.68,177-12,260,29s170.77,67.85,260,50c30-6,71-27,70-58-1.36-42.09-5-61-46-69s-175-3-175-3H0V0H1052s209.5,27.06,215,293c6,290-341,247-375,247s-98-2-149-33-75-69-152-71S472,509,471,548s35,84,93,89,127-11,156-27,156-49,232-50,170,7,222,81,56.24,312.31,25,395c-34,90-112,154-239,157-84,2-177-4-253-48-103.45-59.89-154-32-174,34s45,72,77,83Z"/></g></g></svg>