<?xml version="1.0" encoding="utf-8"?>
<!-- Generator: Adobe Illustrator 23.1.0, SVG Export Plug-In . SVG Version: 6.00 Build 0)  -->
<svg version="1.1" id="Capa_1" xmlns="http://www.w3.org/2000/svg" xmlns:xlink="http://www.w3.org/1999/xlink" x="0px" y="0px"
	 viewBox="0 0 500 500" style="enable-background:new 0 0 500 500;" xml:space="preserve">
<style type="text/css">
	.st0{fill:#FFFFFF;}
</style>
<g>
	<path class="st0" d="M199.2,137c-8.3-16.3-20.6-29.2-36.2-38.7S128.5,84.2,107,84.2s-40.2,4.6-55.9,14.1
		c-15.7,9.5-27.9,22.4-36.2,38.7c-8.3,16.3-12.6,34.1-12.6,53.4c0,19.3,4.3,36.9,12.6,53.1l0,0c1.5,2.8,1.8,5.8,0.6,8.9l-5.8,18.1
		c-1.8,5.5,1.5,11.7,7.4,12.6l5.8,1.2c11.7,2.5,22.4,3.4,32.9,3.4l0,0c4.3,0,8.9,0.6,13.2,2.1c11.4,4,24,5.8,38.1,5.8
		c21.5,0,40.2-4.6,55.9-14.1c15.7-9.5,27.9-22.4,36.2-38.4s12.6-33.8,12.6-53.1C211.8,171.4,207.5,153.6,199.2,137z M142.7,232.2
		c-8.3,10.1-20.3,15.4-35.6,15.4c-15.7,0-27.6-5.2-36.2-15.4c-8.3-10.1-12.6-24.3-12.6-42.1c0-17.8,4.3-31.9,12.6-42.1
		s20.3-15.4,36.2-15.4c15.4,0,27.3,5.2,35.6,15.4c8.3,10.1,12.6,24.3,12.6,42.1C155.3,207.9,151.3,222.1,142.7,232.2z"/>
	<path class="st0" d="M192.4,432.1C143,454.9,89.5,464.4,30.6,457.6c-12-1.2-23-8.9-25.2-24l-0.3-2.5c-2.1-15,5.8-32.9,17.2-30.1
		c54.4,13.5,108.4,6.1,162.2-23.3c10.1-5.5,22.7,8.9,25.2,23.3c0,0.3,0,0.3,0,0.6C211.8,416.5,203.2,426.9,192.4,432.1z"/>
	<path class="st0" d="M192.7,352.9c-48.5,24.3-101.7,35.6-160.9,31c-12-0.9-23.3-8-26.1-23l-0.6-2.5c-2.8-14.7,4.6-33.2,16.3-30.7
		c54.7,11.7,108.4,2.5,161.2-28.9c10.1-6.1,23,8,25.8,22.7c0,0.3,0,0.3,0,0.6C211.5,336.6,203.5,347.4,192.7,352.9z"/>
	<circle class="st0" cx="206.5" cy="66.3" r="26.1"/>
	<path class="st0" d="M276.9,305.9c-22.4-19.7-33.5-46.7-33.5-81.1V85.1h58.7v128.1c0,17.2,1.8,31.3,5.8,42.7
		c4,11.4,11.4,20.3,22.1,26.7c10.7,6.4,20.9,9.5,40.5,9.5c20,0,29.8-3.1,40.5-9.5c10.7-6.4,18.1-15,22.1-26.7
		c4-11.4,5.8-25.8,5.8-42.7V85.1h58.7v139.7c0,34.4-11.1,61.7-33.5,81.1c-22.4,19.7-50.1,29.5-94,29.5
		C326.6,335.4,299,325.6,276.9,305.9z"/>
</g>
</svg>
