<?xml version="1.0" encoding="utf-8"?>
<!-- Generator: Adobe Illustrator 23.1.0, SVG Export Plug-In . SVG Version: 6.00 Build 0)  -->
<svg version="1.1" id="Layer_1" xmlns="http://www.w3.org/2000/svg" xmlns:xlink="http://www.w3.org/1999/xlink" x="0px" y="0px"
	 viewBox="0 0 239.2 177.1" style="enable-background:new 0 0 239.2 177.1;" xml:space="preserve">
<style type="text/css">
	.st0{fill:#FEFEFE;}
	.st1{fill:#6D9FAA;}
</style>
<path class="st0" d="M-227.9-213.2"/>
<g>
	<path class="st1" d="M178,101.6c-15.4,0-29.8,4.4-42,12.1c14.9,2,29.2,6.9,42,14.4c16.4,0,31.1,7.6,40.7,19.5
		c6.3-6.2,12.6-12.5,18.9-18.8C223.2,112.2,201.8,101.6,178,101.6z"/>
	<path class="st1" d="M60.1,101.6c-23.2,0-44.2,10.1-58.6,26.1l18.8,18.8c9.6-11.2,23.9-18.4,39.8-18.4c1.4,0,2.9,0.1,4.3,0.2
		c11.9-7,25-11.8,38.6-14.1C90.6,106.2,75.9,101.6,60.1,101.6z"/>
	<path class="st1" d="M162.9,71.6c4,6.2,9.5,11.1,15.9,13.8c7.4,3.2,15,3.1,21.4-0.1c6.4-3.2,11-9.3,12.8-17.1
		c1.9-8,0.7-16.8-3.3-24.8c-4-8-10.4-14.2-18-17.5c-3.6-1.6-7.3-2.3-10.9-2.3c-3.7,0-7.2,0.8-10.5,2.5c-2.9,1.5-5.4,3.5-7.4,5.9
		c2,6.2,3.1,12.8,3.1,19.8C166,58.8,164.9,65.4,162.9,71.6z"/>
	<path class="st1" d="M74.5,32c-2-2.4-4.5-4.5-7.4-5.9c-13.5-6.8-31.1,1-39.4,17.3c-4,8-5.2,16.8-3.3,24.8
		c1.8,7.8,6.4,13.9,12.8,17.1c6.4,3.2,14,3.3,21.4,0.1c6.4-2.7,11.9-7.6,15.9-13.8c-2-6.2-3.1-12.9-3.1-19.8
		C71.4,44.8,72.5,38.1,74.5,32z"/>
	<path class="st1" d="M167.4,129.2c-12.1-5.8-25.2-9.3-38.8-10.2c-2.4-0.2-4.8-0.3-7.3-0.3c-3.8,0-7.7,0.2-11.4,0.6
		c-12.6,1.4-24.8,5-36.1,10.6c-10.9,5.5-21,12.8-29.6,21.8l21.8,21.8c14.3-15.3,34.3-24.1,55.3-24.1c21.8,0,42.3,9.3,56.7,25.6
		c7.3-7.2,14.7-14.6,21.9-21.7C190.6,143.2,179.6,135.1,167.4,129.2z"/>
	<path class="st1" d="M158.8,63.4c0.7-3.7,1.1-7.6,1.1-11.6c0-4.3-0.5-8.5-1.3-12.5C155.9,46.4,155.8,55,158.8,63.4z"/>
	<path class="st1" d="M78.5,63.4c3-8.4,2.9-17,0.2-24.1c-0.9,4-1.3,8.2-1.3,12.5C77.4,55.8,77.8,59.7,78.5,63.4z"/>
	<path class="st1" d="M158.6,39.3c-0.3-1.6-0.7-3.1-1.2-4.6c-0.4-1.3-0.8-2.5-1.3-3.7C149.6,13.9,135.3,2,118.7,2
		C102,2,87.7,13.9,81.2,31c-0.5,1.2-0.9,2.4-1.3,3.7c-0.5,1.5-0.8,3-1.2,4.6c2.7,7.1,2.8,15.7-0.2,24.1c0.3,1.7,0.7,3.3,1.2,4.9
		c0.4,1.4,0.8,2.7,1.3,4c6.5,17.3,20.9,29.3,37.6,29.3c16.7,0,31.1-12,37.6-29.3c0.5-1.3,0.9-2.6,1.3-4c0.5-1.6,0.9-3.2,1.2-4.9
		C155.8,55,155.9,46.4,158.6,39.3z"/>
</g>
</svg>
