<?xml version="1.0" encoding="utf-8"?>
<!-- Generator: Adobe Illustrator 23.1.0, SVG Export Plug-In . SVG Version: 6.00 Build 0)  -->
<svg version="1.1" id="Layer_1" xmlns="http://www.w3.org/2000/svg" xmlns:xlink="http://www.w3.org/1999/xlink" x="0px" y="0px"
	 viewBox="0 0 155.7 177.1" style="enable-background:new 0 0 155.7 177.1;" xml:space="preserve">
<style type="text/css">
	.st0{fill:#FEFEFE;}
	.st1{fill:#6D9FAA;}
</style>
<path class="st0" d="M-272.1-213.2"/>
<g>
	<path class="st1" d="M123.2,129.2c-12.1-5.8-25.2-9.3-38.8-10.2c-2.4-0.2-4.8-0.3-7.3-0.3c-3.8,0-7.7,0.2-11.4,0.6
		c-12.6,1.4-24.8,5-36.1,10.6c-10.9,5.5-21,12.8-29.6,21.8l21.8,21.8c14.3-15.3,34.3-24.1,55.3-24.1c21.8,0,42.3,9.3,56.7,25.6
		c7.3-7.2,14.7-14.6,21.9-21.7C146.4,143.2,135.4,135.2,123.2,129.2z"/>
	<path class="st1" d="M114.6,63.5c0.7-3.7,1.1-7.6,1.1-11.6c0-4.3-0.5-8.5-1.3-12.5C111.7,46.5,111.6,55.1,114.6,63.5z"/>
	<path class="st1" d="M34.3,63.5c3-8.4,2.9-17,0.2-24.1c-0.9,4-1.3,8.2-1.3,12.5C33.2,55.9,33.6,59.8,34.3,63.5z"/>
	<path class="st1" d="M114.4,39.4c-0.3-1.6-0.7-3.1-1.2-4.6c-0.4-1.3-0.8-2.5-1.3-3.7c-6.5-17.1-20.8-29-37.4-29
		c-16.7,0-31,11.9-37.5,29c-0.5,1.2-0.9,2.4-1.3,3.7c-0.5,1.5-0.8,3-1.2,4.6c2.7,7.1,2.8,15.7-0.2,24.1c0.3,1.7,0.7,3.3,1.2,4.9
		c0.4,1.4,0.8,2.7,1.3,4c6.5,17.3,20.9,29.3,37.6,29.3s31.1-12,37.6-29.3c0.5-1.3,0.9-2.6,1.3-4c0.5-1.6,0.9-3.2,1.2-4.9
		C111.6,55.1,111.7,46.5,114.4,39.4z"/>
</g>
</svg>
