<?xml version="1.0" encoding="utf-8"?>
<!-- Generator: Adobe Illustrator 23.1.0, SVG Export Plug-In . SVG Version: 6.00 Build 0)  -->
<svg version="1.1" id="Layer_1" xmlns="http://www.w3.org/2000/svg" xmlns:xlink="http://www.w3.org/1999/xlink" x="0px" y="0px"
	 viewBox="0 0 417.5 318.5" style="enable-background:new 0 0 417.5 318.5;" xml:space="preserve">
<style type="text/css">
	.st0{fill:#A2C3CC;}
	.st1{fill:#FEFEFE;}
	.st2{fill:#6D9FAA;}
	.st3{fill:#6D9FAA;stroke:#A2C3CC;stroke-width:6;stroke-miterlimit:10;}
</style>
<rect class="st0" width="417.5" height="319"/>
<path class="st1" d="M-137.3-145.2"/>
<g>
	<path class="st2" d="M267.2,198.1c16.5,0,31.2,7.6,40.8,19.5c6.3-6.2,12.6-12.5,18.9-18.8c-14.5-16.7-35.9-27.3-59.7-27.3
		c-23.2,0-44.2,10.1-58.6,26.1l18.8,18.8C237,205.3,251.3,198.1,267.2,198.1z"/>
	<path class="st2" d="M149.2,198.1c16.5,0,31.2,7.6,40.8,19.5c6.3-6.2,12.6-12.5,18.9-18.8c-14.5-16.7-35.9-27.3-59.7-27.3
		c-23.2,0-44.2,10.1-58.6,26.1l18.8,18.8C119,205.3,133.3,198.1,149.2,198.1z"/>
	<ellipse transform="matrix(0.893 -0.45 0.45 0.893 -27.205 136.9184)" class="st3" cx="274.4" cy="125.7" rx="30.4" ry="36.2"/>
	<ellipse transform="matrix(0.45 -0.893 0.893 0.45 -34.5229 195.3076)" class="st3" cx="141.3" cy="125.7" rx="36.2" ry="30.4"/>
	<path class="st3" d="M210.5,222.5c22.8,0,43.2,10.6,56.5,27c8.8-8.6,17.5-17.3,26.2-26c-20.1-23.2-49.7-37.8-82.7-37.8
		c-32.2,0-61.2,14-81.2,36.2l26.1,26.1C168.7,232.4,188.5,222.5,210.5,222.5z"/>
	<ellipse class="st3" cx="207.8" cy="121.8" rx="44.3" ry="52.8"/>
</g>
</svg>
