<?xml version="1.0" encoding="utf-8"?>
<!-- Generator: Adobe Illustrator 23.1.0, SVG Export Plug-In . SVG Version: 6.00 Build 0)  -->
<svg version="1.1" id="Layer_1" xmlns="http://www.w3.org/2000/svg" xmlns:xlink="http://www.w3.org/1999/xlink" x="0px" y="0px"
	 viewBox="0 0 318.5 318.5" style="enable-background:new 0 0 318.5 318.5;" xml:space="preserve">
<style type="text/css">
	.st0{fill:#FEFEFE;}
	.st1{fill:#5374D7;stroke:#FFFFFF;stroke-miterlimit:10;}
	.st2{fill:#5374D7;stroke:#FFFFFF;stroke-width:5.9998;stroke-miterlimit:9.9997;}
	.st3{fill:#5374D7;stroke:#FFFFFF;stroke-width:6;stroke-miterlimit:10;}
	.st4{fill:#5374D7;stroke:#FFFFFF;stroke-width:8.4608;stroke-miterlimit:10;}
	.st5{fill:#FFFFFF;}
</style>
<path class="st0" d="M-1035.6-142.9"/>
<g>
	<path class="st1" d="M217.7,174c16.5,0,31.2,7.6,40.8,19.5c6.3-6.2,12.6-12.5,18.9-18.8c-14.5-16.7-35.9-27.3-59.7-27.3
		c-23.2,0-44.2,10.1-58.6,26.1l18.8,18.8C187.5,181.2,201.8,174,217.7,174z"/>
	<path class="st1" d="M99.7,174c16.5,0,31.2,7.6,40.8,19.5c6.3-6.2,12.6-12.5,18.9-18.8c-14.5-16.7-35.9-27.3-59.7-27.3
		c-23.2,0-44.2,10.1-58.6,26.1l18.8,18.8C69.5,181.2,83.8,174,99.7,174z"/>
	<ellipse transform="matrix(0.893 -0.45 0.45 0.893 -21.6566 112.0748)" class="st2" cx="224.9" cy="101.6" rx="30.4" ry="36.2"/>
	<ellipse transform="matrix(0.45 -0.893 0.893 0.45 -40.2275 137.8643)" class="st2" cx="91.8" cy="101.6" rx="36.2" ry="30.4"/>
	<path class="st3" d="M161,198.4c22.8,0,43.2,10.6,56.5,27c8.8-8.6,17.5-17.3,26.2-26c-20.1-23.2-49.7-37.8-82.7-37.8
		c-32.2,0-61.2,14-81.2,36.2l26.1,26.1C119.2,208.3,139,198.4,161,198.4z"/>
	<ellipse class="st3" cx="158.3" cy="97.7" rx="44.3" ry="52.8"/>
</g>
<g>
	<ellipse class="st4" cx="159.2" cy="236" rx="40.8" ry="40.4"/>
	<path class="st5" d="M178.3,230.5v10.2h-13v14h-11.8v-13.8h-13.4v-10.3h13.4v-13.8h11.8v13.8H178.3z"/>
</g>
</svg>
