<?xml version="1.0" encoding="utf-8"?>
<!-- Generator: Adobe Illustrator 23.1.0, SVG Export Plug-In . SVG Version: 6.00 Build 0)  -->
<svg version="1.1" id="Layer_1" xmlns="http://www.w3.org/2000/svg" xmlns:xlink="http://www.w3.org/1999/xlink" x="0px" y="0px"
	 viewBox="0 0 318.5 318.5" style="enable-background:new 0 0 318.5 318.5;" xml:space="preserve">
<style type="text/css">
	.st0{fill:#FEFEFE;}
	.st1{fill:#5374D7;stroke:#FFFFFF;stroke-width:6;stroke-miterlimit:10;}
	.st2{fill:#5374D7;stroke:#FFFFFF;stroke-width:8.4608;stroke-miterlimit:10;}
	.st3{fill:#FFFFFF;}
</style>
<path class="st0" d="M-652.8-145.2"/>
<g>
	<path class="st1" d="M158.5,198.9c22.8,0,43.2,10.6,56.5,27c8.8-8.6,17.5-17.3,26.2-26c-20.1-23.2-49.7-37.8-82.7-37.8
		c-32.2,0-61.2,14-81.2,36.2l26.1,26.1C116.7,208.8,136.5,198.9,158.5,198.9z"/>
	<ellipse class="st1" cx="155.8" cy="98.2" rx="44.3" ry="52.8"/>
</g>
<g>
	<ellipse class="st2" cx="159.2" cy="233.7" rx="40.8" ry="40.4"/>
	<path class="st3" d="M178.3,228.3v10.2h-13v14h-11.8v-13.8h-13.4v-10.3h13.4v-13.8h11.8v13.8H178.3z"/>
</g>
</svg>
