<svg id="Layer_1" data-name="Layer 1" xmlns="http://www.w3.org/2000/svg" viewBox="0 0 60 60"><defs><style>.cls-1{fill:#57acf1;}</style></defs><title>ic_audio</title><path class="cls-1" d="M30,0h0A30.09,30.09,0,0,0,0,30H0A30.09,30.09,0,0,0,30,60h0A30.09,30.09,0,0,0,60,30h0A30.09,30.09,0,0,0,30,0ZM41.67,21.8h0a2.62,2.62,0,0,1-3.56,1l0,0-3.73-2.17V39.43a2.25,2.25,0,0,1-.26,1,8.15,8.15,0,0,1-7.44,6A7.91,7.91,0,0,1,18,39.28a7.92,7.92,0,0,1,7.61-8.2,8.47,8.47,0,0,1,3.81.61V16.1A2.44,2.44,0,0,1,31,13.84a2.69,2.69,0,0,1,2.46.11l7.27,4.2a2.65,2.65,0,0,1,1,3.63v0Z"/></svg>