<?xml version="1.0" encoding="utf-8"?>
<!-- Generator: Adobe Illustrator 23.1.0, SVG Export Plug-In . SVG Version: 6.00 Build 0)  -->
<svg version="1.1" id="Capa_1" xmlns="http://www.w3.org/2000/svg" xmlns:xlink="http://www.w3.org/1999/xlink" x="0px" y="0px"
	 viewBox="0 0 100 95" style="enable-background:new 0 0 100 95;" xml:space="preserve">
<style type="text/css">
	.st0{fill:#2D65B2;}
</style>
<path class="st0" d="M91,41.1H24.3l19.3-19.3c2.5-2.5,2.5-6.5,0-8.9c-1.2-1.2-2.8-1.8-4.5-1.8s-3.3,0.7-4.5,1.9l-30,30.1
	c-2.5,2.5-2.5,6.5,0,8.9l30,30.1c1.2,1.2,2.8,1.8,4.5,1.8s3.3-0.6,4.5-1.8c1.2-1.2,1.9-2.8,1.9-4.5s-0.7-3.3-1.8-4.5L24.3,53.7H91
	c3.5,0,6.3-2.8,6.3-6.3S94.5,41.1,91,41.1z"/>
</svg>
