<svg xmlns="http://www.w3.org/2000/svg" width="20" height="20" viewBox="0 0 20 20">
  <metadata><?xpacket begin="﻿" id="W5M0MpCehiHzreSzNTczkc9d"?>
<x:xmpmeta xmlns:x="adobe:ns:meta/" x:xmptk="Adobe XMP Core 5.6-c140 79.160451, 2017/05/06-01:08:21        ">
   <rdf:RDF xmlns:rdf="http://www.w3.org/1999/02/22-rdf-syntax-ns#">
      <rdf:Description rdf:about=""/>
   </rdf:RDF>
</x:xmpmeta>
                                                                                                    
                                                                                                    
                                                                                                    
                                                                                                    
                                                                                                    
                                                                                                    
                                                                                                    
                                                                                                    
                                                                                                    
                                                                                                    
                                                                                                    
                                                                                                    
                                                                                                    
                                                                                                    
                                                                                                    
                                                                                                    
                                                                                                    
                                                                                                    
                                                                                                    
                                                                                                    
                           
<?xpacket end="w"?></metadata>
<defs>
    <style>
      .cls-1 {
        fill: #fff;
        fill-rule: evenodd;
      }
    </style>
  </defs>
  <path id="ic" class="cls-1" d="M0.015,17.5v2.515h20V17.5q0-2.222-3.421-3.6a17.632,17.632,0,0,0-6.579-1.374A17.631,17.631,0,0,0,3.436,13.9Q0.015,15.278.015,17.5h0ZM14.985,5.044a4.886,4.886,0,0,0-1.462-3.538A4.741,4.741,0,0,0,10.015.015,4.738,4.738,0,0,0,6.506,1.506,4.882,4.882,0,0,0,5.044,5.044,4.782,4.782,0,0,0,6.506,8.553a4.782,4.782,0,0,0,3.509,1.462,4.786,4.786,0,0,0,3.509-1.462A4.786,4.786,0,0,0,14.985,5.044Z"/>
</svg>
