<?xml version="1.0" encoding="utf-8"?>
<!-- Generator: Adobe Illustrator 23.1.0, SVG Export Plug-In . SVG Version: 6.00 Build 0)  -->
<svg version="1.1" id="Layer_1" xmlns="http://www.w3.org/2000/svg" xmlns:xlink="http://www.w3.org/1999/xlink" x="0px" y="0px"
	 viewBox="0 0 120 120" style="enable-background:new 0 0 120 120;" xml:space="preserve">
<style type="text/css">
	.st0{fill:#449AB3;}
	.st1{fill:#FFFFFF;}
</style>
<title>ic_categories_lg</title>
<path class="st0" d="M15,0h90c8.3,0,15,6.7,15,15v90c0,8.3-6.7,15-15,15H15c-8.3,0-15-6.7-15-15V15C0,6.7,6.7,0,15,0z"/>
<circle class="st1" cx="60" cy="60" r="40"/>
<path class="st0" d="M40.8,39.7c3.2,0,5.7,2.6,5.7,5.8c0,3.2-2.6,5.7-5.8,5.7c-3.2,0-5.7-2.6-5.7-5.8c0,0,0,0,0,0
	C35,42.3,37.6,39.7,40.8,39.7C40.7,39.7,40.7,39.7,40.8,39.7z M54.9,69.6h25.2c6.5,0,6.5,9.9,0,9.9H54.9
	C48.3,79.4,48.3,69.6,54.9,69.6L54.9,69.6z M40.7,68.8c3.2,0,5.8,2.6,5.8,5.7c0,3.2-2.6,5.8-5.7,5.8S35,77.7,35,74.5c0,0,0,0,0,0
	C35,71.3,37.6,68.8,40.7,68.8L40.7,68.8z M54.9,55.1h25.2c6.5,0,6.5,9.9,0,9.9H54.9C48.3,64.9,48.3,55.1,54.9,55.1
	C54.9,55.1,54.9,55.1,54.9,55.1z M40.7,54.2c3.2,0,5.8,2.6,5.8,5.7s-2.6,5.8-5.7,5.8S35,63.2,35,60c0,0,0,0,0,0
	C35,56.8,37.6,54.2,40.7,54.2L40.7,54.2z M54.9,40.5h25.2c6.5,0,6.5,9.9,0,9.9H54.9C48.3,50.4,48.3,40.5,54.9,40.5L54.9,40.5z"/>
</svg>
