<?xml version="1.0" encoding="utf-8"?>
<!-- Generator: Adobe Illustrator 23.1.0, SVG Export Plug-In . SVG Version: 6.00 Build 0)  -->
<svg version="1.1" id="Layer_1" xmlns="http://www.w3.org/2000/svg" xmlns:xlink="http://www.w3.org/1999/xlink" x="0px" y="0px"
	 viewBox="0 0 120 120" style="enable-background:new 0 0 120 120;" xml:space="preserve">
<style type="text/css">
	.st0{fill:#A4492E;}
	.st1{fill:#FFFFFF;}
</style>
<path class="st0" d="M120,15v90c0,8.3-6.7,15-15,15H15c-8.3,0-15-6.7-15-15V15C0,6.7,6.7,0,15,0h90C113.3,0,120,6.7,120,15z"/>
<g>
	<path class="st1" d="M64.1,74.8h-8.3c-1.6,0-3,1.3-3,3v5.1c0,1.6,1.3,3,3,3h8.3c1.6,0,3-1.3,3-3v-5.1
		C67.1,76.2,65.8,74.8,64.1,74.8z"/>
	<path class="st1" d="M44.8,74.8h-8.3c-1.6,0-3,1.3-3,3v5.1c0,1.6,1.3,3,3,3h8.3c1.6,0,3-1.3,3-3v-5.1
		C47.8,76.2,46.3,74.8,44.8,74.8z"/>
	<path class="st1" d="M64.1,56.1h-8.3c-1.6,0-3,1.3-3,3v5.1c0,1.6,1.3,3,3,3h8.3c1.6,0,3-1.3,3-3v-5.1
		C67.1,57.5,65.8,56.1,64.1,56.1z"/>
	<path class="st1" d="M44.8,56.1h-8.3c-1.6,0-3,1.3-3,3v5.1c0,1.6,1.3,3,3,3h8.3c1.6,0,3-1.3,3-3v-5.1
		C47.8,57.5,46.3,56.1,44.8,56.1z"/>
	<path class="st1" d="M83.6,56.1h-8.3c-1.6,0-3,1.3-3,3v5.1c0,1.6,1.3,3,3,3h8.3c1.6,0,3-1.3,3-3v-5.1
		C86.6,57.5,85.1,56.1,83.6,56.1z"/>
</g>
<g>
	<path class="st1" d="M89.8,29.4v3.3V34c0,3.2-2.6,5.8-5.8,5.8h-1c-3.2,0-5.8-2.6-5.8-5.8v-1.3v-3.3h-34v3.3V34
		c0,3.2-2.6,5.8-5.8,5.8h-1c-3.2,0-5.8-2.6-5.8-5.8v-1.3v-3.3h-2c-4.6,0-8.4,3.8-8.4,8.4v56.8c0,4.6,3.8,8.4,8.4,8.4h54.9H84v-0.1
		c0.6-0.1,1.1-0.4,1.6-0.9l13.2-13.7c0.5-0.6,1.2-1.2,1.2-2l0,0V37.7c0-4.6-3.8-8.4-8.4-8.4L89.8,29.4L89.8,29.4z M26.5,94.5v-48h67
		v36.4h-7.3c-2.8,0-5.1,2.3-5.1,5.1v8.4H28.4C27.4,96.4,26.5,95.5,26.5,94.5z"/>
	<path class="st1" d="M83.5,37.1L83.5,37.1c-1.9,0-3.5-1.6-3.5-3.5v-13c0-1.9,1.6-3.5,3.5-3.5l0,0c1.9,0,3.5,1.6,3.5,3.5v13
		C87,35.6,85.4,37.1,83.5,37.1z"/>
	<path class="st1" d="M36.7,37.1L36.7,37.1c-1.9,0-3.5-1.6-3.5-3.5v-13c0-1.9,1.6-3.5,3.5-3.5l0,0c1.9,0,3.5,1.6,3.5,3.5v13
		C40.2,35.6,38.6,37.1,36.7,37.1z"/>
</g>
</svg>
