<?xml version="1.0" encoding="utf-8"?>
<!-- Generator: Adobe Illustrator 21.1.0, SVG Export Plug-In . SVG Version: 6.00 Build 0)  -->
<svg version="1.1" id="Layer_1" xmlns="http://www.w3.org/2000/svg" xmlns:xlink="http://www.w3.org/1999/xlink" x="0px" y="0px"
	 viewBox="0 0 120 120" style="enable-background:new 0 0 120 120;" xml:space="preserve">
<style type="text/css">
	.st0{fill:#20C4CB;}
	.st1{fill:#FFFFFF;}
</style>
<path class="st0" d="M120,15v90c0,8.3-6.7,15-15,15H15c-8.3,0-15-6.7-15-15V15C0,6.7,6.7,0,15,0h90C113.3,0,120,6.7,120,15z"/>
<g>
	<path class="st1" d="M92.6,24.8H27.2c-4.5,0-8.2,3.7-8.2,8.2v42c0,4.5,3.7,8.2,8.2,8.2h20.6c-0.7-2.2,0-5,2-6.5
		c0.9-0.7,2.2-1.1,3.3-1.1c1.9,0,3.5,0.9,4.6,2.4l0.6,0.6v-3.3H28.5V32h63v43.3h-2.8v7.8h4.1c4.5,0,8.2-3.7,8.2-8.2v-42
		C100.8,28.5,97.1,24.8,92.6,24.8z M23.6,56.9c-1.1,0-2-0.9-2-2c0-1.1,0.9-2,2-2s2,0.9,2,2C25.9,56,24.8,56.9,23.6,56.9z"/>
	<path class="st1" d="M70.9,54.9l-2.4,1.5c-0.3-2.5-2.4-4.5-4.9-4.5c-2.8,0-5.2,2.2-5.2,5v5.7l-3.3,2c-0.2,0.2-0.6,0.2-0.9,0.2
		c-0.9,0-1.6-0.6-1.6-1.4V44c0-0.7,0.5-1.3,1.3-1.4c0.1,0,0.2,0,0.3,0c0.3,0,0.6,0.1,0.9,0.3l15.8,9.8c0.2,0.1,0.3,0.2,0.4,0.4
		C71.9,53.6,71.7,54.5,70.9,54.9z"/>
	<path class="st1" d="M86.9,91.5c-0.1-5.1,0-10.2,0-15.3v-2.3c0-1.5-0.9-2.6-2.2-3c-0.4-0.2-0.6-0.2-1.1-0.2c-1.7,0-2.8,1.7-2.8,3.2
		v6.5H80v-8c0-1.7-1.3-3.2-3-3.2c-1.7-0.2-3.2,1.3-3.2,3v8.2h-0.7V69.8c0-1.7-1.3-3.2-2.8-3.2c-1.4-0.1-2.5,0.7-3,2v12h-0.8V65.9
		h0.1v-8.8c0-1.7-1.4-3.2-3.1-3.2c-1.6,0.1-3,1.3-3,3v27.3l-3.9-5.4c-1.3-1.7-3.7-2.2-5.4-0.9s-2.2,3.7-0.9,5.4L62,101.6
		c0.7,1,1.8,1.6,3,1.6c0,0,17.9,0,17.9,0C86.3,103.2,87,97.1,86.9,91.5z"/>
</g>
</svg>
