<?xml version="1.0" encoding="utf-8"?>
<!-- Generator: Adobe Illustrator 23.1.0, SVG Export Plug-In . SVG Version: 6.00 Build 0)  -->
<svg version="1.1" id="Layer_1" xmlns="http://www.w3.org/2000/svg" xmlns:xlink="http://www.w3.org/1999/xlink" x="0px" y="0px"
	 viewBox="0 0 120 120" style="enable-background:new 0 0 120 120;" xml:space="preserve">
<style type="text/css">
	.st0{fill:#FFFFFF;}
</style>
<g>
	<g>
		<path class="st0" d="M54.5,27.2c-0.1,0-0.2,0-0.3,0.1C53.5,27.4,53,28,53,28.7v19.7c0,0.8,0.7,1.4,1.5,1.4c0.3,0,0.6-0.1,0.8-0.2
			l15.4-9.9c0.7-0.4,0.9-1.3,0.4-1.9c-0.1-0.2-0.2-0.2-0.4-0.4l-15.3-9.9C55.2,27.3,54.9,27.2,54.5,27.2z"/>
		<g>
			<path class="st0" d="M88.3,63.5H31.7c-3.4,0-6.2-2.8-6.2-6.2V19.7c0-3.4,2.8-6.2,6.2-6.2h56.6c3.4,0,6.2,2.8,6.2,6.2v37.6
				C94.5,60.7,91.7,63.5,88.3,63.5z M31.7,18.5c-0.7,0-1.2,0.5-1.2,1.2v37.6c0,0.7,0.5,1.2,1.2,1.2h56.6c0.7,0,1.2-0.5,1.2-1.2V19.7
				c0-0.7-0.5-1.2-1.2-1.2H31.7z"/>
		</g>
	</g>
	<g>
		<g>
			<path class="st0" d="M61.2,84.6c-0.8,0-1.5-0.7-1.5-1.5c0-4.1,4-5.1,6.2-5.1h11.7c0.2,0,2.1,0,2.4-1.1c0.1-0.6-0.4-1.2-0.9-1.4
				c-0.7-0.2-1.6-0.2-2.5-0.2c-1.1,0-3,0-5.3,0c-17.8,0.1-28.5,0.1-30.4-0.5c-2.8-0.9-3.6-2.9-3.5-4.5c0.1-2.2,1.9-4,4.4-4.4
				c1.9-0.3,6.7-0.3,11.1-0.2c0.8,0,1.5,0,1.8,0c2.7,0,3.8-0.5,4.2-0.9c0.5-0.5,0.5-1.5,0.5-3c0-0.3,0-0.6,0-0.8
				c0-0.8,0.7-1.5,1.5-1.5s1.5,0.7,1.5,1.5c0,0.3,0,0.5,0,0.8c0,1.7,0.1,3.6-1.4,5.1c-1.2,1.3-3.3,1.8-6.4,1.8c-0.3,0-1,0-1.9,0
				c-2.8-0.1-8.7-0.2-10.5,0.1c-1.3,0.2-1.9,1-1.9,1.7c0,0.6,0.5,1.1,1.4,1.4c2,0.6,21.3,0.4,29.5,0.4c2.3,0,4.2,0,5.3,0
				c1,0,2.3,0,3.5,0.4c2.1,0.7,3.4,2.8,2.9,4.8c-0.5,2.1-2.5,3.5-5.3,3.5H65.8c-0.3,0-3.2,0.1-3.2,2.1C62.7,83.9,62,84.6,61.2,84.6z
				"/>
		</g>
		<path class="st0" d="M64.9,82.3h-7.1c-3.6,0-6.6,3-6.6,6.6v14.5c0,5.6,4.6,10.1,10.1,10.1c5.6,0,10.1-4.6,10.1-10.1V88.9
			C71.5,85.3,68.5,82.3,64.9,82.3z M63.3,100.7c0,1.1-0.9,1.9-1.9,1.9c-1.1,0-1.9-0.9-1.9-1.9V88.1c0-1.1,0.9-1.9,1.9-1.9
			c0.5,0,1,0.2,1.4,0.6s0.6,0.8,0.6,1.4L63.3,100.7L63.3,100.7z"/>
	</g>
</g>
</svg>
