<?xml version="1.0" encoding="utf-8"?>
<!-- Generator: Adobe Illustrator 23.1.0, SVG Export Plug-In . SVG Version: 6.00 Build 0)  -->
<svg version="1.1" id="Layer_1" xmlns="http://www.w3.org/2000/svg" xmlns:xlink="http://www.w3.org/1999/xlink" x="0px" y="0px"
	 viewBox="0 0 120 120" style="enable-background:new 0 0 120 120;" xml:space="preserve">
<style type="text/css">
	.st0{fill:#4BB37F;}
	.st1{fill:#FFFFFF;}
	.st2{fill:#5BA882;}
</style>
<path class="st0" d="M15,0h90c8.3,0,15,6.7,15,15v90c0,8.3-6.7,15-15,15H15c-8.3,0-15-6.7-15-15V15C0,6.7,6.7,0,15,0z"/>
<path class="st1" d="M60,24.1c-19.8,0-35.9,16.1-35.9,35.9c0,7.4,2.2,14.3,6.1,20l-6.1,13.6l13.1-5.9c0.5,0.4,1,0.8,1.5,1.2
	c5.9,4.4,13.3,7,21.2,7c19.8,0,35.9-16.1,35.9-35.9C95.9,40.2,79.8,24.1,60,24.1z"/>
<path class="st2" d="M47.1,40.2c0.8-0.7,1.6-1.3,2.5-1.9c0.9-0.6,1.9-1.1,2.9-1.6c1-0.4,2.2-0.8,3.4-1.1c1.2-0.3,2.6-0.4,4-0.4
	c1.9,0,3.7,0.3,5.3,0.8c1.6,0.5,3,1.3,4.1,2.3c1.1,1,2,2.2,2.6,3.6c0.6,1.4,0.9,3,0.9,4.7c0,1.7-0.2,3.2-0.7,4.4
	c-0.5,1.2-1.1,2.3-1.8,3.2c-0.7,0.9-1.5,1.7-2.4,2.4c-0.9,0.7-1.7,1.3-2.5,1.9c-0.8,0.6-1.5,1.2-2,1.7c-0.6,0.6-0.9,1.2-1,1.9
	l-0.8,4.9h-5.7l-0.6-5.5c-0.1-1,0-2,0.4-2.8c0.4-0.8,1-1.5,1.7-2.2c0.7-0.7,1.5-1.3,2.4-1.9c0.9-0.6,1.7-1.3,2.5-2s1.4-1.5,2-2.4
	c0.5-0.9,0.8-2,0.8-3.2c0-0.8-0.2-1.5-0.5-2.2c-0.3-0.6-0.7-1.2-1.3-1.6c-0.5-0.5-1.2-0.8-1.9-1.1c-0.7-0.2-1.6-0.4-2.4-0.4
	c-1.3,0-2.3,0.1-3.2,0.4c-0.9,0.3-1.6,0.6-2.2,0.9c-0.6,0.3-1.1,0.7-1.6,0.9c-0.4,0.3-0.8,0.4-1.1,0.4c-0.8,0-1.4-0.3-1.7-1
	L47.1,40.2z M53.4,79.7c0-0.7,0.1-1.3,0.4-2c0.3-0.6,0.6-1.2,1.1-1.6c0.4-0.4,1-0.8,1.6-1.1c0.6-0.3,1.3-0.4,2-0.4
	c0.7,0,1.4,0.1,2,0.4c0.6,0.3,1.1,0.6,1.6,1.1c0.5,0.4,0.8,1,1.1,1.6c0.3,0.6,0.4,1.3,0.4,2c0,0.7-0.1,1.4-0.4,2
	c-0.3,0.6-0.6,1.1-1.1,1.6c-0.5,0.4-1,0.8-1.6,1.1c-0.6,0.3-1.3,0.4-2,0.4c-0.7,0-1.4-0.1-2-0.4c-0.6-0.3-1.2-0.6-1.6-1.1
	c-0.4-0.4-0.8-1-1.1-1.6C53.6,81.1,53.4,80.4,53.4,79.7z"/>
</svg>
