<svg xmlns="http://www.w3.org/2000/svg" width="60" height="60" viewBox="0 0 60 60">
  <metadata><?xpacket begin="﻿" id="W5M0MpCehiHzreSzNTczkc9d"?>
<x:xmpmeta xmlns:x="adobe:ns:meta/" x:xmptk="Adobe XMP Core 5.6-c140 79.160451, 2017/05/06-01:08:21        ">
   <rdf:RDF xmlns:rdf="http://www.w3.org/1999/02/22-rdf-syntax-ns#">
      <rdf:Description rdf:about=""/>
   </rdf:RDF>
</x:xmpmeta>
                                                                                                    
                                                                                                    
                                                                                                    
                                                                                                    
                                                                                                    
                                                                                                    
                                                                                                    
                                                                                                    
                                                                                                    
                                                                                                    
                                                                                                    
                                                                                                    
                                                                                                    
                                                                                                    
                                                                                                    
                                                                                                    
                                                                                                    
                                                                                                    
                                                                                                    
                                                                                                    
                           
<?xpacket end="w"?></metadata>
<defs>
    <style>
      .cls-1 {
        fill: #fff;
        fill-rule: evenodd;
      }
    </style>
  </defs>
  <path id="ic" class="cls-1" d="M58.929,6.157a3.861,3.861,0,0,1,1.115,2.758V52.057a3.862,3.862,0,0,1-1.115,2.759,3.542,3.542,0,0,1-2.64,1.164H3.723a3.537,3.537,0,0,1-2.64-1.164A3.853,3.853,0,0,1-.03,52.057V16.637a3.644,3.644,0,0,1,1.113-2.7,3.626,3.626,0,0,1,2.64-1.1H30.006q3.283-.368,3.753-3.923a3.861,3.861,0,0,1,1.115-2.758,3.539,3.539,0,0,1,2.642-1.165H56.289A3.543,3.543,0,0,1,58.929,6.157Z"/>
</svg>
