<?xml version="1.0" encoding="utf-8"?>
<!-- Generator: Adobe Illustrator 23.1.0, SVG Export Plug-In . SVG Version: 6.00 Build 0)  -->
<svg version="1.1" id="Capa_1" xmlns="http://www.w3.org/2000/svg" xmlns:xlink="http://www.w3.org/1999/xlink" x="0px" y="0px"
	 viewBox="0 0 300 300" style="enable-background:new 0 0 300 300;" xml:space="preserve">
<style type="text/css">
	.st0{fill:#FFFFFF;}
</style>
<g>
	<path class="st0" d="M193.8,262.5h37.5c3.7,0,6.2-2.5,6.2-6.2v-75c0-3.8-2.5-6.2-6.2-6.2h-37.5v-18.8H250c3.7,0,6.2-2.5,6.2-6.2
		v-25h37.5c3.8,0,6.2-2.5,6.2-6.2v-75c0-3.8-2.5-6.2-6.2-6.2h-87.5c-3.7,0-6.2,2.5-6.2,6.2v75c0,3.8,2.5,6.2,6.2,6.2h37.5v18.8
		H131.2V125h37.5c3.8,0,6.2-2.5,6.2-6.2v-75c0-3.8-2.5-6.2-6.2-6.2H81.2c-3.8,0-6.2,2.5-6.2,6.2v75c0,3.8,2.5,6.2,6.2,6.2h37.5v18.8
		H50c-3.8,0-6.2,2.5-6.2,6.2v25H6.2c-3.7,0-6.2,2.5-6.2,6.2v75c0,3.8,2.5,6.2,6.2,6.2h87.5c3.8,0,6.2-2.5,6.2-6.2v-75
		c0-3.8-2.5-6.2-6.2-6.2H56.2v-18.8h125V175h-37.5c-3.8,0-6.2,2.5-6.2,6.2v75c0,3.8,2.5,6.2,6.2,6.2h37.5 M243.8,87.5v-6.2
		c0-3.8,2.5-6.2,6.2-6.2s6.2,2.5,6.2,6.2v6.2H243.8z M212.5,50h75v62.5H275c0-6.2-2.5-12.5-6.9-16.9c0-0.6,0.6-1.2,0.6-1.9V81.2
		c0-10.6-8.1-18.8-18.8-18.8s-18.8,8.1-18.8,18.8v12.5c0,0.6,0,1.2,0.6,1.9c-4.4,4.4-6.9,10.6-6.9,16.9h-12.5V50z M250,100
		c6.9,0,12.5,5.6,12.5,12.5h-25C237.5,105.6,243.1,100,250,100z M118.8,81.2c0-3.8,2.5-6.2,6.2-6.2s6.2,2.5,6.2,6.2
		s-2.5,6.2-6.2,6.2S118.8,85,118.8,81.2z M87.5,50h75v62.5H150c0-8.1-3.8-15-10-20c2.5-3.1,3.8-7.5,3.8-11.2
		c0-10.6-8.1-18.8-18.8-18.8s-18.8,8.1-18.8,18.8c0,4.4,1.3,8.1,3.8,11.2c-6.2,4.4-10,11.9-10,20H87.5V50z M125,100
		c6.9,0,12.5,5.6,12.5,12.5h-25C112.5,105.6,118.1,100,125,100z M43.8,218.8c0-3.8,2.5-6.2,6.2-6.2s6.2,2.5,6.2,6.2
		c0,3.7-2.5,6.2-6.2,6.2S43.8,222.5,43.8,218.8z M37.5,250c0-6.9,5.6-12.5,12.5-12.5s12.5,5.6,12.5,12.5H37.5z M87.5,187.5V250H75
		c0-8.1-3.8-15-10-20c2.5-3.1,3.8-7.5,3.8-11.2c0-10.6-8.1-18.8-18.8-18.8s-18.8,8.1-18.8,18.8c0,4.4,1.2,8.1,3.8,11.2
		c-6.2,4.4-10,11.9-10,20H12.5v-62.5H87.5z M181.2,225v-6.2c0-3.8,2.5-6.2,6.2-6.2c3.7,0,6.2,2.5,6.2,6.2v6.2H181.2z M150,187.5h75
		V250h-12.5c0-6.2-2.5-12.5-6.9-16.9c0-0.6,0.6-1.3,0.6-1.9v-12.5c0-10.6-8.1-18.8-18.8-18.8s-18.8,8.1-18.8,18.8v12.5
		c0,0.6,0,1.2,0.6,1.9c-4.4,4.4-6.9,10.6-6.9,16.9H150V187.5z M175,250c0-6.9,5.6-12.5,12.5-12.5c6.9,0,12.5,5.6,12.5,12.5H175z"/>
</g>
</svg>
