<?xml version="1.0" encoding="utf-8"?>
<!-- Generator: Adobe Illustrator 23.1.0, SVG Export Plug-In . SVG Version: 6.00 Build 0)  -->
<svg version="1.1" id="Capa_1" xmlns="http://www.w3.org/2000/svg" xmlns:xlink="http://www.w3.org/1999/xlink" x="0px" y="0px"
	 viewBox="0 0 174 112.9" style="enable-background:new 0 0 174 112.9;" xml:space="preserve">
<style type="text/css">
	.st0{opacity:0.8;}
	.st1{fill:#5C7283;}
	.st2{fill:#2B4247;}
	.st3{fill:#3A4F55;}
	.st4{fill:#04171B;}
	.st5{fill:#CECECE;}
	.st6{fill:#FFFFFF;}
	.st7{fill:#25A7DF;}
	.st8{fill:#F9F9F9;}
	.st9{fill:#AF0808;}
	.st10{fill:#354662;}
	.st11{fill:#58CDB0;}
	.st12{fill:#7B909C;}
</style>
<g>
	<g class="st0">
		<path class="st1" d="M169.4,111.4H4.6c-1.1,0-2-0.9-2-2s0.9-2,2-2h164.8c1.1,0,2,0.9,2,2S170.5,111.4,169.4,111.4z"/>
	</g>
	<g>
		<g>
			<path class="st2" d="M164.1,91.8c0,3.3-2.7,6-6,6H14.7c-3.3,0-6-2.7-6-6V7.4c0-3.3,2.7-6,6-6h143.5c3.3,0,6,2.7,6,6V91.8z"/>
			<path class="st3" d="M9.5,98.8c2.4,0,2.4,0,5.4,0h142.9c3,0,4,0,5.4,0c2.9,0-2.4,8.9-5.4,8.9H15C12,107.7,6.7,98.8,9.5,98.8z"/>
			<path class="st4" d="M63.8,98.8H11.2c-1.2,0-1.6,0-2.1,0c-1.7,0,2.3,8.9,5.9,8.9h52.5C64.7,103.6,65,98.8,63.8,98.8z"/>
			<rect x="26.4" y="95.4" class="st5" width="11.7" height="3.4"/>
			<rect x="134.3" y="95.4" class="st5" width="11.7" height="3.4"/>
			<rect x="16" y="8.8" class="st6" width="140.9" height="81.8"/>
		</g>
		<g>
			
				<rect x="25.2" y="24.5" transform="matrix(-1 -1.224647e-16 1.224647e-16 -1 145.6886 107.1877)" class="st7" width="95.4" height="58.2"/>
			
				<ellipse transform="matrix(0.2312 -0.9729 0.9729 0.2312 1.9694 106.7001)" class="st8" cx="68.5" cy="52.1" rx="14.3" ry="14.3"/>
			<polygon class="st9" points="78.7,52.1 62.9,43 62.9,61.2 			"/>
			<g>
				<rect x="25.4" y="77.6" class="st6" width="93.7" height="0.7"/>
				<g>
					<rect x="25.4" y="77.6" class="st9" width="49.8" height="0.7"/>
				</g>
				<g>
					<g>
						<polygon class="st6" points="27.5,80.6 27.5,79.1 28.5,79.9 29.5,80.6 28.5,81.4 27.5,82.2 						"/>
					</g>
					<g>
						<g>
							<path class="st6" d="M32.2,79.2c-0.3,0.2-0.8,0.6-1.1,0.8h-0.5v1.1h0.5c0.3,0.3,0.8,0.6,1.1,0.8c0.3,0.3,0.6,0,0.6-0.5
								s0-1.4,0-1.9C32.8,79.2,32.5,79,32.2,79.2z"/>
						</g>
						<g>
							<g>
								<path class="st6" d="M33.1,80.2C33.1,80.2,33,80.2,33.1,80.2c-0.1-0.1-0.1-0.1,0-0.1l1.1-0.9c0,0,0.1,0,0.1,0
									c0,0,0,0.1,0,0.1L33.1,80.2C33.1,80.2,33.1,80.2,33.1,80.2z"/>
							</g>
							<g>
								<path class="st6" d="M34.2,82.1c0,0-1.2-0.9-1.2-0.9c0,0,0-0.1,0-0.1c0,0,0,0,0.1,0l1.1,0.9C34.3,82,34.3,82.1,34.2,82.1
									C34.3,82.1,34.2,82.1,34.2,82.1z"/>
							</g>
						</g>
						<g>
							<path class="st6" d="M34.3,80.7h-1.2c0,0-0.1,0-0.1-0.1c0,0,0-0.1,0.1-0.1h1.2C34.3,80.6,34.4,80.6,34.3,80.7
								C34.4,80.7,34.3,80.7,34.3,80.7z"/>
						</g>
					</g>
					<g>
						<path class="st6" d="M117.4,82h-3.9v-2.8h3.9V82z M113.7,81.7h3.4v-2.2h-3.4V81.7z"/>
					</g>
				</g>
			</g>
			<g>
				<rect x="33.8" y="16.6" class="st5" width="74.8" height="6.4"/>
				<g>
					<path class="st6" d="M107.7,21.2c0,0.5-0.4,0.9-0.9,0.9h-2.9c-0.5,0-0.9-0.4-0.9-0.9v-2.9c0-0.5,0.4-0.9,0.9-0.9h2.9
						c0.5,0,0.9,0.4,0.9,0.9V21.2z"/>
					<path class="st10" d="M105.1,20.8c-0.7,0-1.3-0.6-1.3-1.3c0-0.7,0.6-1.3,1.3-1.3s1.3,0.6,1.3,1.3
						C106.4,20.2,105.8,20.8,105.1,20.8z M105.1,18.3c-0.6,0-1.1,0.5-1.1,1.1c0,0.6,0.5,1.1,1.1,1.1s1.1-0.5,1.1-1.1
						C106.2,18.8,105.7,18.3,105.1,18.3z"/>
					<polygon class="st10" points="106.9,21.4 105.9,20.4 106,20.3 107,21.3 					"/>
				</g>
				<rect x="21.3" y="16.6" class="st9" width="10.3" height="6.4"/>
			</g>
		</g>
	</g>
	<rect x="16" y="8.8" class="st11" width="140.9" height="4.8"/>
	<rect x="123.2" y="25.1" class="st12" width="13.9" height="9.5"/>
	<rect x="123.2" y="40.5" class="st12" width="13.9" height="9.5"/>
	<rect x="123.2" y="56" class="st12" width="13.9" height="9.5"/>
	<rect x="123.2" y="71.5" class="st12" width="13.9" height="9.5"/>
	<g>
		<rect x="139" y="25.1" class="st5" width="14.6" height="1.7"/>
		<rect x="139" y="28.1" class="st5" width="14.6" height="1.7"/>
		<rect x="139" y="31.1" class="st5" width="14.6" height="1.7"/>
	</g>
	<g>
		<rect x="139" y="40.1" class="st5" width="14.6" height="1.7"/>
		<rect x="139" y="43.1" class="st5" width="14.6" height="1.7"/>
		<rect x="139" y="46.1" class="st5" width="14.6" height="1.7"/>
	</g>
	<g>
		<rect x="139" y="56.1" class="st5" width="14.6" height="1.7"/>
		<rect x="139" y="59.1" class="st5" width="14.6" height="1.7"/>
		<rect x="139" y="62.1" class="st5" width="14.6" height="1.7"/>
	</g>
	<g>
		<rect x="139" y="72.1" class="st5" width="14.6" height="1.7"/>
		<rect x="139" y="75.1" class="st5" width="14.6" height="1.7"/>
		<rect x="139" y="78.1" class="st5" width="14.6" height="1.7"/>
	</g>
</g>
</svg>
