<?xml version="1.0" encoding="utf-8"?>
<!-- Generator: Adobe Illustrator 21.1.0, SVG Export Plug-In . SVG Version: 6.00 Build 0)  -->
<svg version="1.1" id="Layer_1" xmlns="http://www.w3.org/2000/svg" xmlns:xlink="http://www.w3.org/1999/xlink" x="0px" y="0px"
	 viewBox="0 0 100 81.7" style="enable-background:new 0 0 100 81.7;" xml:space="preserve">
<style type="text/css">
	.st0{fill:#FD8C10;}
	.st1{fill:#0A3C5F;}
	.st2{fill:#00959B;}
	.st3{fill:#FEC22E;}
	.st4{fill:#18898D;}
	.st5{fill:#606474;}
	.st6{fill:#EAECF2;}
	.st7{fill:#2F3738;}
	.st8{fill:#141213;}
	.st9{fill:#B3B3B3;}
	.st10{fill:#31415C;}
	.st11{fill:#FFFFFF;}
	.st12{fill:#3F9EC0;}
	.st13{fill:#F0A549;}
	.st14{fill:#EFF0F0;}
	.st15{fill:#111F2D;}
	.st16{fill:#00AA9D;}
	.st17{fill:#0B8C81;}
	.st18{fill:#DFB177;}
	.st19{fill:#0D6B77;}
	.st20{fill:#E64A4B;}
	.st21{fill:#08304D;}
	.st22{fill:#116569;}
	.st23{fill:#FFD22C;}
	.st24{fill:#F5C515;}
	.st25{opacity:0.25;fill:#47C5C9;}
</style>
<g>
	<g id="_x2014_ÎÓÈ_x5F_28_x5F_3_x5F__1_">
		<g>
			<g>
				<path class="st0" d="M35.4,13.1c-0.8,0.4-1.6,0.9-2.4,1.5l1.3,3.1c-0.6,0.5-1.2,1.1-1.8,1.7l-3.2-1.2c-0.6,0.7-1.1,1.5-1.5,2.3
					l2.4,2.3c-0.4,0.8-0.7,1.6-0.9,2.4L26,25.5c-0.2,0.9-0.3,1.8-0.4,2.7l3.2,1.1c0,0.9,0,1.8,0.1,2.6l-3,1.5
					c0.2,0.9,0.4,1.7,0.7,2.6l3.4-0.2c0.3,0.8,0.7,1.6,1.2,2.4L29,40.8c0.3,0.4,0.5,0.7,0.8,1.1c0.3,0.3,0.6,0.7,0.9,1l3-1.6
					c0.7,0.6,1.4,1.2,2.1,1.7l-0.9,3.3c0.8,0.5,1.6,0.8,2.4,1.2l2.1-2.7c0.8,0.3,1.7,0.5,2.6,0.6l0.5,3.3c0.9,0.1,1.8,0.1,2.7,0.1
					l0.8-3.3c0.8-0.1,1.7-0.2,2.5-0.5l1.8,2.8c0.9-0.3,1.7-0.6,2.5-1l-0.6-3.3c0.7-0.4,1.4-0.9,2-1.4l2.8,1.8c0.7-0.6,1.3-1.3,1.9-2
					L57.2,39c0.5-0.6,0.9-1.3,1.2-2l3.3,0.5c0.4-0.9,0.7-1.8,1-2.7L59.8,33c0.2-0.7,0.3-1.5,0.3-2.3l3.3-0.9c0-1-0.1-1.9-0.2-2.9
					l-3.4-0.5c-0.2-0.7-0.4-1.4-0.6-2.1l2.6-2.1c-0.4-0.9-0.8-1.7-1.4-2.6l-3.3,0.9c-0.2-0.3-0.4-0.6-0.7-0.9
					c-0.2-0.3-0.5-0.6-0.7-0.8l1.5-3c-0.7-0.7-1.5-1.3-2.3-1.8l-2.6,2.2c-0.6-0.4-1.3-0.7-2-1l0.2-3.4c-0.9-0.3-1.8-0.6-2.8-0.7
					l-1.5,3c-0.8-0.1-1.5-0.1-2.3-0.1l-1.2-3.2c-0.9,0.1-1.9,0.2-2.8,0.4L40,14.7c-0.8,0.2-1.5,0.5-2.2,0.8L35.4,13.1z M51.3,24.1
					c3.2,3.8,2.6,9.5-1.2,12.6c-3.8,3.2-9.5,2.6-12.6-1.2c-3.2-3.8-2.6-9.5,1.2-12.6C42.5,19.8,48.1,20.3,51.3,24.1z"/>
				<g>
					
						<ellipse transform="matrix(0.7706 -0.6373 0.6373 0.7706 -8.8318 35.1213)" class="st1" cx="44.4" cy="29.8" rx="5.8" ry="5.8"/>
				</g>
			</g>
		</g>
		<g>
			<g>
				<path class="st2" d="M5.5,27.8l-2.3-0.2l-0.8,3l2.2,0.9c0,1,0.1,2,0.3,3l-1.9,1.3l1.3,2.8l2.3-0.7c0.6,0.8,1.3,1.5,2.1,2L8,42.1
					l2.8,1.3l1.3-2c1,0.2,1.9,0.3,2.9,0.2l1,2.2l3-0.8l-0.3-2.5c0.8-0.4,1.6-1,2.3-1.7l2.2,1.1l1.8-2.6l-1.8-1.7
					c0.2-0.4,0.3-0.8,0.4-1.2c0.1-0.5,0.2-1,0.3-1.5l2.4-0.6l-0.3-3.1L23.4,29c-0.3-0.9-0.7-1.8-1.2-2.5l1.4-2l-2.2-2.2l-2,1.5
					c-0.8-0.5-1.7-0.9-2.6-1.2l-0.2-2.4L13.6,20L13,22.3c-1,0.1-1.9,0.4-2.8,0.8l-1.6-1.7l-2.5,1.8l1.1,2.1
					C6.5,26,5.9,26.9,5.5,27.8z M15.5,27c2.7,0.7,4.4,3.5,3.7,6.3c-0.7,2.7-3.5,4.4-6.3,3.7c-2.7-0.7-4.4-3.5-3.7-6.3
					C9.9,27.9,12.7,26.2,15.5,27z"/>
				
					<ellipse transform="matrix(0.2513 -0.9679 0.9679 0.2513 -20.269 37.6544)" class="st3" cx="14.2" cy="31.9" rx="3.5" ry="3.5"/>
			</g>
		</g>
		<path class="st1" d="M30.4,3.3l-2.8,2c-0.5-0.3-1-0.4-1.6-0.5l-0.8-3.2l-1.7,0.1L23,4.9c-0.5,0.2-1,0.4-1.5,0.7l-2.8-1.7l-1.2,1.3
			l2,2.8c-0.3,0.5-0.4,1-0.5,1.6l-3.2,0.8l0.1,1.7l3.3,0.6c0.2,0.5,0.4,1,0.7,1.5l-1.7,2.8l1.3,1.2l2.8-2c0.5,0.3,1,0.4,1.6,0.5
			l0.8,3.2l1.7-0.1l0.6-3.3c0.5-0.2,1-0.4,1.5-0.7l2.8,1.7l1.2-1.3l-2-2.8c0.3-0.5,0.4-1,0.5-1.6l3.2-0.8L34,9.4l-3.3-0.6
			c-0.2-0.5-0.4-1-0.7-1.5l1.8-2.8L30.4,3.3z M26.7,12.5c-1,1-2.6,1.1-3.7,0.1c-1-1-1.1-2.6-0.1-3.7c1-1,2.6-1.1,3.7-0.1
			C27.7,9.8,27.7,11.4,26.7,12.5z"/>
		<ellipse transform="matrix(0.9694 -0.2454 0.2454 0.9694 -1.8632 6.425)" class="st4" cx="24.8" cy="10.7" rx="1.8" ry="1.8"/>
	</g>
	<g>
		<path class="st5" d="M81.9,63.4H17.1c-2,0-3.7-1.7-3.7-3.7V15.1c0-2,1.7-3.7,3.7-3.7h64.8c2,0,3.7,1.7,3.7,3.7v44.7
			C85.6,61.7,83.9,63.4,81.9,63.4z"/>
		<path class="st6" d="M80.4,62.4H18.7c-2,0-3.7-1.7-3.7-3.7V16.2c0-2,1.7-3.7,3.7-3.7h61.7c2,0,3.7,1.7,3.7,3.7v42.5
			C84,60.7,82.4,62.4,80.4,62.4z"/>
		<path class="st5" d="M87.3,68.1H11.7c-1.7,0-3.1-1.4-3.1-3.1l0,0c0-0.8,0.7-1.6,1.6-1.6h78.4c0.8,0,1.6,0.7,1.6,1.6l0,0
			C90.3,66.7,89,68.1,87.3,68.1z"/>
		<circle class="st7" cx="49.6" cy="13.6" r="0.5"/>
		<circle class="st7" cx="49.6" cy="61.2" r="0.5"/>
		<path class="st8" d="M8.8,64.4h81.5c-0.2-0.5-0.6-0.9-1.3-0.9H10.2C9.4,63.4,9,63.8,8.8,64.4z"/>
		<path class="st9" d="M80.5,59.8h-62c-0.7,0-1.4-0.6-1.4-1.4V16.3c0-0.7,0.6-1.4,1.4-1.4h62c0.7,0,1.4,0.6,1.4,1.4v42.2
			C81.8,59.3,81.3,59.8,80.5,59.8z"/>
		<path class="st10" d="M80.5,15h-62c-0.7,0-1.4,0.6-1.4,1.4v2.7h64.7v-2.7C81.8,15.6,81.3,15,80.5,15z"/>
		<circle class="st11" cx="73.5" cy="17.1" r="0.9"/>
		<circle class="st12" cx="76.4" cy="17.1" r="0.9"/>
		<circle class="st13" cx="79.5" cy="17.1" r="0.9"/>
		<g>
			<polygon class="st14" points="21.4,56.3 20.4,57 20.4,56.3 19.2,57 19.2,56.3 18.8,56.3 18.8,57.8 19.2,57.8 19.2,57.2 
				20.4,57.8 20.4,57.2 21.4,57.8 			"/>
			<polygon class="st14" points="28.5,56.3 28.5,57 27.4,56.3 27.4,57 26.3,56.3 26.3,57.8 27.4,57.2 27.4,57.8 28.5,57.2 
				28.5,57.8 28.9,57.8 28.9,56.3 			"/>
			<polygon class="st14" points="22.7,55.7 25.3,57.1 22.7,58.4 			"/>
			<path class="st14" d="M30.9,56.7l1.1-0.9v0.9v0.7v0.9l-1.1-0.9l0,0h-0.5v-0.7H30.9z M32.2,56.4v1.4c0.4,0,0.7-0.3,0.7-0.7
				C32.9,56.6,32.5,56.4,32.2,56.4z M32.1,55.7v0.3c0.5,0.1,0.9,0.5,0.9,1.1c0,0.5-0.4,0.9-0.9,1.1v0.2c0.7,0,1.4-0.6,1.4-1.4
				C33.4,56.3,32.8,55.7,32.1,55.7z"/>
			<path class="st14" d="M71.3,55.7v2.6H75v-2.6H71.3z M74.5,58.1h-2.8v-1.9h2.8V58.1z"/>
			<path class="st14" d="M76.8,55.7h0.8v0.4h-0.4v0.4h-0.4V55.7z M79.9,58.1h-0.4v0.3h0.8v-0.8h-0.4V58.1z M79.5,55.7v0.4h0.4v0.4
				h0.4v-0.8L79.5,55.7z M77.3,57.5h-0.4v0.8h0.8v-0.4h-0.4V57.5z"/>
			<path class="st14" d="M69.6,57.3v-0.4h-0.4c0-0.1-0.1-0.2-0.1-0.3l0.3-0.3L69,55.9l-0.3,0.3c-0.1,0-0.2-0.1-0.3-0.1v-0.4H68v0.4
				c-0.1,0-0.2,0.1-0.3,0.1l-0.3-0.3l-0.2,0.3l0.3,0.3c-0.1,0.1-0.1,0.2-0.1,0.3h-0.4v0.4h0.4c0,0.1,0.1,0.2,0.1,0.3l-0.2,0.2
				l0.3,0.3l0.2-0.2c0.1,0.1,0.2,0.1,0.3,0.1v0.3h0.4v-0.3c0.1,0,0.2-0.1,0.3-0.1l0.2,0.2l0.3-0.3L69,57.5c0-0.1,0.1-0.2,0.1-0.3
				h0.4V57.3z M68.2,57.6c-0.3,0-0.5-0.2-0.5-0.5c0-0.3,0.2-0.5,0.5-0.5c0.3,0,0.5,0.2,0.5,0.5C68.8,57.4,68.5,57.6,68.2,57.6z"/>
		</g>
		<path class="st15" d="M79.8,54.2H19.4c-0.3,0-0.6-0.3-0.6-0.6l0,0c0-0.3,0.3-0.6,0.6-0.6h60.4c0.3,0,0.6,0.3,0.6,0.6l0,0
			C80.4,53.9,80.2,54.2,79.8,54.2z"/>
		<path class="st10" d="M60.7,54.2H19.5c-0.3,0-0.6-0.3-0.6-0.6l0,0c0-0.3,0.3-0.6,0.6-0.6h41.2c0.3,0,0.6,0.3,0.6,0.6l0,0
			C61.4,53.9,61,54.2,60.7,54.2z"/>
		<path class="st16" d="M43.1,54.2H19.4c-0.3,0-0.6-0.3-0.6-0.6l0,0c0-0.3,0.3-0.6,0.6-0.6h23.7c0.3,0,0.6,0.3,0.6,0.6l0,0
			C43.8,53.9,43.4,54.2,43.1,54.2z"/>
		<circle class="st17" cx="43" cy="53.5" r="1.2"/>
		<circle class="st6" cx="49" cy="35.8" r="10.5"/>
		<polygon class="st16" points="45.7,30.8 55.8,35.8 45.7,41 		"/>
	</g>
	<path class="st18" d="M70.2,80.2l-0.5-1.4c0,0-2.2,0.6-4.6-1.5L53.2,65.6c0,0-0.7-0.6-0.8-1.1c0,0-0.6-1.5,0.5-2.7
		c0,0,1.2-1,2.5-0.3c0,0,0.9,0.3,2,1.5l2.5,2.3l1.1,0.9l-4.3-11.5l-4.1-10.9c0,0-0.3-2,0.7-2.8c0,0,1.1-1,2.2-0.4
		c0,0,1.2,0.3,1.8,1.6l2.6,6.9l4.8,13.2c0,0-1.7-4.8-1.7-5.7c0,0,0-2.2,1.7-2.6c0,0,1.6-0.7,2.9,0.7c0,0,0.9,0.5,1.5,3.1l1,2.5
		c0,0-1.7-4.2-1.6-4.7c0.1-0.4-0.1-1.7,1.6-2.4c0,0,1.5-0.5,2.6,0.8c0,0,0.2,0,0.8,1.4l1.1,2.8c0,0-1.2-2.8-1.1-3.1
		c0,0,0-1.7,1.1-2.1c0,0,1-0.8,2.1,0c0,0,0.8,0.2,1.4,1.9l2.8,8.3c0,0,2.1,7.1,0.4,11.1l0.5,1.5L70.2,80.2z"/>
	<g>
		<path class="st19" d="M88.4,31.9h5.4c2.7,0,4.9,2.2,4.9,4.9v0.3c0,2.7-2.2,4.9-4.9,4.9h-1.7l1.1,2.9L89,42h-0.6
			c-2.7,0-4.9-2.2-4.9-4.9v-0.3C83.5,34.1,85.7,31.9,88.4,31.9z"/>
		<g>
			<g>
				<g>
					<path class="st20" d="M82,36.4c0-0.8,0.2-1.5,0.4-2.2c0.3-0.7,0.7-1.3,1.2-1.8c0.5-0.5,1.1-0.9,1.8-1.2c0.6-0.3,1.3-0.4,2-0.4
						v-0.3c0-4.2-3.4-7.6-7.6-7.6h-8.4c-4.2,0-7.6,3.4-7.6,7.6V31c0,4.2,3.4,7.6,7.6,7.6h2.7l-1.7,4.5l6.5-4.5h0.9
						c0.8,0,1.6-0.1,2.3-0.4c-0.1-0.5-0.2-1-0.2-1.5V36.4z"/>
				</g>
			</g>
		</g>
		<circle class="st11" cx="69.8" cy="30.4" r="1.5"/>
		<circle class="st11" cx="75.1" cy="30.4" r="1.5"/>
		<circle class="st11" cx="80.4" cy="30.4" r="1.5"/>
	</g>
	<g>
		<g>
			<g>
				<path class="st1" d="M11.4,68.4c0.2,0.2-0.2,0.5,0,0.7c0.2,0.2,0,0.4,0,0.7c0,0.3-0.2,0.6-0.7,0.8H8.9H7.1
					c-0.5-0.1-0.7-0.4-0.7-0.7c0-0.3-0.2-0.3,0-0.5c0.2-0.2-0.2-0.5,0-0.7c0.2-0.2-0.3-0.5,0-0.7c0.3-0.3,0-0.4,0-0.9h2.5h2.5
					c0,0.5-0.2,0.4,0,0.7C11.7,67.9,11.2,68.2,11.4,68.4z"/>
				<path class="st4" d="M10.4,70.9c-0.1,0.1-0.3,0.2-0.4,0.3l-0.5,0.1c-0.2,0.1-0.4,0.3-0.7,0.3c-0.2,0-0.4-0.2-0.7-0.3l-0.5-0.1
					c-0.2,0-0.3-0.1-0.4-0.3l-0.2-0.3h1.8h1.8L10.4,70.9z"/>
				<path class="st21" d="M11.4,68.4c-0.2-0.2,0.3-0.5,0-0.7c-0.3-0.3,0-0.2,0-0.7h-1.3c0,0.5-0.2,0.4,0,0.7c0.3,0.3-0.2,0.5,0,0.7
					c0.2,0.2-0.2,0.5,0,0.7c0.2,0.2,0,0.4,0,0.7c0,0.3-0.2,0.6-0.7,0.8h1.3c0.5-0.1,0.7-0.5,0.7-0.8c0-0.3,0.2-0.5,0-0.7
					C11.2,68.9,11.6,68.6,11.4,68.4z"/>
				<path class="st22" d="M9.8,70.6c0,0,0,0.1-0.2,0.3c-0.2,0.3-0.7,0.6-0.7,0.6c0.2,0,0.4-0.2,0.6-0.3l0.5-0.1
					c0.2,0,0.3-0.1,0.4-0.3l0.2-0.3L9.8,70.6z"/>
			</g>
			<path class="st4" d="M11.3,68l-4.8,0.2c-0.1,0-0.2-0.1-0.2-0.2l0,0c0-0.1,0.1-0.2,0.2-0.2l4.8-0.2c0.1,0,0.2,0.1,0.2,0.2l0,0
				C11.4,67.9,11.4,68,11.3,68z"/>
			<path class="st4" d="M11.3,68.7l-4.8,0.2c-0.1,0-0.2-0.1-0.2-0.2l0,0c0-0.1,0.1-0.2,0.2-0.2l4.8-0.2c0.1,0,0.2,0.1,0.2,0.2l0,0
				C11.4,68.7,11.4,68.7,11.3,68.7z"/>
			<path class="st4" d="M11.3,69.5l-4.8,0.2c-0.1,0-0.2-0.1-0.2-0.2l0,0c0-0.1,0.1-0.2,0.2-0.2l4.8-0.2c0.1,0,0.2,0.1,0.2,0.2l0,0
				C11.4,69.4,11.4,69.5,11.3,69.5z"/>
		</g>
		<g>
			<g>
				<g>
					<path class="st23" d="M16.5,55.5c0-4.2-3.4-7.6-7.6-7.6c-4.2,0-7.6,3.4-7.6,7.6c0,2.1,0.9,4,2.2,5.4c1.1,1.1,1.8,2.4,2.2,3.8
						L6.4,67h5l0.6-2.2c0.4-1.5,1.2-2.8,2.3-3.9C15.7,59.5,16.5,57.6,16.5,55.5z"/>
				</g>
			</g>
		</g>
		<g>
			<path class="st11" d="M6.4,57.4c-0.1-0.1-0.3-0.1-0.4,0.1c-0.1,0.1-0.1,0.3,0.1,0.4c0,0,1.4,1.2,1.7,2.7C8,62,8,66,8,66
				c0,0.2,0.1,0.3,0.3,0.3c0,0,0,0,0,0c0.1,0,0.3-0.1,0.3-0.3c0-0.2,0-4.1-0.2-5.5C8,58.7,6.5,57.5,6.4,57.4z"/>
			<path class="st11" d="M11.3,57.4c-0.1,0.1-1.6,1.3-1.9,3c-0.2,1.4-0.2,5.4-0.2,5.5c0,0.2,0.1,0.3,0.3,0.3c0,0,0,0,0,0
				c0.1,0,0.3-0.1,0.3-0.3c0,0,0-4.1,0.2-5.4c0.2-1.5,1.7-2.7,1.7-2.7c0.1-0.1,0.1-0.3,0.1-0.4C11.6,57.3,11.4,57.3,11.3,57.4z"/>
			<path class="st11" d="M11.9,56.2c-0.4-0.5-0.7-0.8-1.1-0.8c-0.3,0-0.6,0.2-0.9,0.5c-0.3-0.3-0.6-0.5-0.9-0.5c0,0,0,0,0,0
				c-0.3,0-0.6,0.2-0.9,0.5c-0.3-0.3-0.6-0.5-0.9-0.5c0,0,0,0,0,0c-0.4,0-0.8,0.3-1.1,0.8c-0.1,0.2-0.1,0.4,0,0.6
				c0.1,0.2,0.3,0.2,0.4,0c0.5-0.7,1-0.7,1.4,0c0,0,0,0,0,0c0,0,0,0,0,0c0.1,0.1,0.1,0.1,0.2,0.1c0.1,0,0.2,0,0.2-0.1c0,0,0,0,0-0.1
				c0.5-0.6,0.9-0.6,1.4,0c0,0,0,0,0,0c0,0,0,0,0,0c0.1,0.1,0.1,0.1,0.2,0.1c0.1,0,0.2,0,0.2-0.1c0,0,0,0,0-0.1
				c0.5-0.6,0.9-0.6,1.4,0.1c0.1,0.1,0.1,0.1,0.2,0.1c0.1,0,0.2,0,0.2-0.1C12,56.6,12,56.4,11.9,56.2z"/>
		</g>
		<path class="st24" d="M8.9,47.9c-0.2,0-0.5,0-0.7,0c3.9,0.4,6.9,3.6,6.9,7.6c0,2.1-0.9,4.1-2.3,5.4c-1.1,1.1-1.9,2.4-2.3,3.9
			L10,67h1.4l0.6-2.2c0.4-1.5,1.2-2.8,2.3-3.9c1.4-1.4,2.3-3.3,2.3-5.4C16.5,51.3,13.1,47.9,8.9,47.9z"/>
	</g>
	<g>
		<ellipse transform="matrix(0.8275 -0.5615 0.5615 0.8275 -9.589 17.465)" class="st11" cx="23.6" cy="24.3" rx="7.3" ry="7.3"/>
		<ellipse transform="matrix(0.8275 -0.5615 0.5615 0.8275 -9.589 17.465)" class="st25" cx="23.6" cy="24.3" rx="5.6" ry="5.6"/>
		<path class="st2" d="M8.9,7.4l6.5,9.6l1-0.7l0,0l1.2-0.8l1.2-0.8l0,0l1-0.7l-6.5-9.6c-0.5-0.7-1.4-0.9-2.1-0.4l-0.9,0.6L9.3,5.3
			C8.6,5.8,8.5,6.8,8.9,7.4z"/>
		<path class="st3" d="M17.5,18c-3,2.9-3.6,7.6-1.2,11.2c2.7,4,8.2,5,12.2,2.3c4-2.7,5-8.2,2.3-12.2c-2.4-3.6-7.1-4.8-10.9-3.1
			l-1.1-1.6l0,0l-1.2,0.8l-1.2,0.8l0,0L17.5,18z M29.1,20.6c2,3,1.3,7.1-1.7,9.1c-3,2-7.1,1.3-9.1-1.7c-2-3-1.3-7.1,1.7-9.1
			C22.9,16.9,27,17.6,29.1,20.6z"/>
	</g>
</g>
</svg>
