<?xml version="1.0" encoding="utf-8"?>
<!-- Generator: Adobe Illustrator 21.1.0, SVG Export Plug-In . SVG Version: 6.00 Build 0)  -->
<svg version="1.1" id="Layer_1" xmlns="http://www.w3.org/2000/svg" xmlns:xlink="http://www.w3.org/1999/xlink" x="0px" y="0px"
	 viewBox="0 0 100 81.7" style="enable-background:new 0 0 100 81.7;" xml:space="preserve">
<style type="text/css">
	.st0{fill:#FFFFFF;}
	.st1{fill:#278983;}
	.st2{fill:#F7CA4F;}
	.st3{fill:#606474;}
	.st4{fill:#EAECF2;}
	.st5{fill:#2F3738;}
	.st6{fill:#141213;}
	.st7{fill:#00AA9D;}
	.st8{fill:#31415C;}
	.st9{fill:#EFF0F0;}
	.st10{fill:#111F2D;}
	.st11{fill:#752994;}
	.st12{fill:#522264;}
	.st13{fill:#0094CA;}
	.st14{fill:#0A2D4E;}
	.st15{fill:#72C7EC;}
	.st16{fill:#EA394A;}
	.st17{opacity:0.3;fill:#FFFFFF;}
	.st18{fill:#FDE7CA;}
	.st19{fill:#52BBD0;}
	.st20{fill:#51666F;}
	.st21{fill:#D5594D;}
	.st22{fill:#005793;}
	.st23{opacity:0.1;}
	.st24{fill:#F28A11;}
	.st25{fill:#C6E6E7;}
	.st26{fill:#40B1B5;}
	.st27{fill:#18898D;}
	.st28{opacity:0.4;fill:#FFFFFF;}
	.st29{fill:#323B6D;}
	.st30{fill:#B3C7E8;}
	.st31{fill:#FDF294;}
	.st32{fill:#FAE7F1;}
	.st33{opacity:0.2;fill:#AE79B2;}
	.st34{fill:#A086BD;}
</style>
<g>
	<circle class="st0" cx="73.1" cy="16.8" r="0.9"/>
	<circle class="st1" cx="75.8" cy="16.8" r="0.9"/>
	<circle class="st2" cx="78.8" cy="16.8" r="0.9"/>
	<g>
		<path class="st3" d="M89.1,60.8H27.6c-1.9,0-3.5-1.6-3.5-3.5V14.9c0-1.9,1.6-3.5,3.5-3.5h61.5c1.9,0,3.5,1.6,3.5,3.5v42.4
			C92.6,59.1,90.9,60.8,89.1,60.8z"/>
		<path class="st4" d="M87.7,59.8H29.1c-1.9,0-3.5-1.6-3.5-3.5V16c0-1.9,1.6-3.5,3.5-3.5h58.6c1.9,0,3.5,1.6,3.5,3.5v40.3
			C91.1,58.1,89.6,59.8,87.7,59.8z"/>
		<path class="st3" d="M94.2,65.2H22.5c-1.6,0-2.9-1.3-2.9-2.9l0,0c0-0.8,0.7-1.5,1.5-1.5h74.4c0.8,0,1.5,0.7,1.5,1.5l0,0
			C97.1,63.9,95.8,65.2,94.2,65.2z"/>
		<circle class="st5" cx="58.4" cy="13.5" r="0.5"/>
		<circle class="st5" cx="58.4" cy="58.6" r="0.5"/>
		<path class="st6" d="M19.7,61.6h77.4c-0.2-0.5-0.6-0.9-1.2-0.9H20.9C20.2,60.8,19.9,61.1,19.7,61.6z"/>
		<path class="st7" d="M87.8,57.4H29c-0.7,0-1.3-0.6-1.3-1.3v-40c0-0.7,0.6-1.3,1.3-1.3h58.8c0.7,0,1.3,0.6,1.3,1.3v40.1
			C88.9,56.9,88.4,57.4,87.8,57.4z"/>
		<path class="st8" d="M87.8,14.8H29c-0.7,0-1.3,0.6-1.3,1.3v2.6h61.4v-2.6C88.9,15.4,88.4,14.8,87.8,14.8z"/>
		<g>
			<polygon class="st9" points="31.7,54 30.7,54.6 30.7,54 29.6,54.6 29.6,54 29.2,54 29.2,55.5 29.6,55.5 29.6,54.9 30.7,55.5 
				30.7,54.9 31.7,55.5 			"/>
			<polygon class="st9" points="38.4,54 38.4,54.6 37.4,54 37.4,54.6 36.2,54 36.2,55.5 37.4,54.9 37.4,55.5 38.4,54.9 38.4,55.5 
				38.8,55.5 38.8,54 			"/>
			<polygon class="st9" points="32.9,53.5 35.4,54.8 32.9,56 			"/>
			<path class="st9" d="M40.7,54.4l1-0.9v0.9V55V56l-1-0.9l0,0h-0.5v-0.7H40.7z M41.9,54v1.3c0.4,0,0.7-0.3,0.7-0.7S42.2,54,41.9,54
				z M41.8,53.5v0.3c0.5,0.1,0.9,0.5,0.9,1s-0.4,0.9-0.9,1V56c0.7,0,1.3-0.6,1.3-1.3S42.4,53.5,41.8,53.5z"/>
			<path class="st9" d="M78.9,53.5V56h3.5v-2.5H78.9z M82.1,55.6h-2.7v-1.8h2.7V55.6z"/>
			<path class="st9" d="M84.3,53.5h0.8v0.4h-0.4v0.4h-0.4V53.5z M87.2,55.6h-0.4V56h0.8v-0.8h-0.4V55.6z M86.8,53.5v0.4h0.4v0.4h0.4
				v-0.8L86.8,53.5z M84.7,55.1h-0.4V56h0.8v-0.4h-0.4V55.1z"/>
			<path class="st9" d="M77.3,55v-0.4h-0.4c0-0.1-0.1-0.2-0.1-0.3l0.3-0.3l-0.3-0.3l-0.3,0.3c-0.1,0-0.2-0.1-0.3-0.1v-0.4h-0.4v0.4
				c-0.1,0-0.2,0.1-0.3,0.1l-0.3-0.3L75.1,54l0.3,0.3c-0.1,0.1-0.1,0.2-0.1,0.3h-0.4V55h0.4c0,0.1,0.1,0.2,0.1,0.3l-0.2,0.2l0.3,0.3
				l0.2-0.2c0.1,0.1,0.2,0.1,0.3,0.1V56h0.4v-0.3c0.1,0,0.2-0.1,0.3-0.1l0.2,0.2l0.3-0.3l-0.3-0.3c0-0.1,0.1-0.2,0.1-0.3h0.4V55z
				 M76.1,55.3c-0.3,0-0.5-0.2-0.5-0.5s0.2-0.5,0.5-0.5s0.5,0.2,0.5,0.5C76.7,55,76.3,55.3,76.1,55.3z"/>
		</g>
		<path class="st10" d="M87.1,52H29.8c-0.3,0-0.6-0.3-0.6-0.6l0,0c0-0.3,0.3-0.6,0.6-0.6h57.3c0.3,0,0.6,0.3,0.6,0.6l0,0
			C87.7,51.8,87.4,52,87.1,52z"/>
		<path class="st8" d="M68.9,52H29.8c-0.3,0-0.6-0.3-0.6-0.6l0,0c0-0.3,0.3-0.6,0.6-0.6h39.1c0.3,0,0.6,0.3,0.6,0.6l0,0
			C69.6,51.8,69.2,52,68.9,52z"/>
		<path class="st11" d="M52.2,52H29.8c-0.3,0-0.6-0.3-0.6-0.6l0,0c0-0.3,0.3-0.6,0.6-0.6h22.5c0.3,0,0.6,0.3,0.6,0.6l0,0
			C52.9,51.8,52.6,52,52.2,52z"/>
		<circle class="st12" cx="52.2" cy="51.4" r="1.1"/>
		<circle class="st4" cx="57.9" cy="34.5" r="10"/>
		<polygon class="st11" points="54.7,29.8 64.2,34.5 54.7,39.5 		"/>
	</g>
	<g>
		<g>
			<path class="st8" d="M78.6,58.5c0.9-2.1,2.4-5.6,2.4-5.6h-5.8c-1.2,0-2.2-1.3-2.2-3v-9c0-1.6,1-3,2.2-3h19.6c1.2,0,2.2,1.3,2.2,3
				v9c0,1.6-1,3-2.2,3h-9.7c0,0-3.9,3.9-6,5.9C78.9,59.1,78.5,58.8,78.6,58.5z"/>
		</g>
		<rect x="76.5" y="40.1" class="st0" width="3.7" height="5.8"/>
		<rect x="81.6" y="40.1" class="st0" width="13" height="0.9"/>
		<rect x="81.6" y="42.6" class="st0" width="13" height="0.9"/>
		<rect x="81.6" y="45.1" class="st0" width="13" height="0.9"/>
		<rect x="76.4" y="47.2" class="st0" width="18.1" height="0.9"/>
		<rect x="76.4" y="49.4" class="st0" width="18.1" height="0.9"/>
	</g>
	<g>
		<g>
			<path class="st13" d="M10.2,67.1L10.2,67.1c-0.1,0-0.2-0.1-0.3-0.2l-0.4-1.9c0-0.1,0.1-0.2,0.2-0.3l0,0c0.1,0,0.2,0.1,0.3,0.2
				l0.4,1.9C10.4,67,10.3,67.1,10.2,67.1z"/>
			<path class="st13" d="M7.3,53.3L7.3,53.3c-0.3,0.1-0.7-0.2-0.8-0.5L6,50.5c-0.1-0.3,0.2-0.7,0.5-0.8l0,0c0.3-0.1,0.7,0.2,0.8,0.5
				l0.5,2.3C7.8,52.9,7.6,53.2,7.3,53.3z"/>
			<path class="st13" d="M9.9,66L9.9,66c-0.3,0.1-0.7-0.2-0.8-0.5l-0.5-2.3c-0.1-0.3,0.2-0.7,0.5-0.8l0,0c0.3-0.1,0.7,0.2,0.8,0.5
				l0.5,2.3C10.5,65.6,10.3,66,9.9,66z"/>
			<path class="st14" d="M7.6,51.4l-1.4,0.3c-0.4,0.1-0.6,0.4-0.5,0.8l1.2,5.7l1.5,5.7c0.1,0.3,0.4,0.5,0.8,0.5l0.8-0.2
				c0.3-0.1,0.6-0.4,0.5-0.7l-0.9-5.8l-1.2-5.7C8.3,51.5,8,51.3,7.6,51.4z"/>
			<path class="st13" d="M9.4,58l-2.2,0.5c-0.2,0-0.4-0.1-0.4-0.3l0,0c0-0.2,0.1-0.4,0.3-0.4l2.2-0.5c0.2,0,0.4,0.1,0.4,0.3l0,0
				C9.7,57.8,9.6,58,9.4,58z"/>
			<path class="st13" d="M10.4,57.1L10.4,57.1c-0.2,0-0.3-0.1-0.4-0.2l-1.1-5.4c0-0.2,0.1-0.3,0.2-0.4l0,0c0.2,0,0.3,0.1,0.4,0.2
				l1.1,5.4C10.7,56.9,10.6,57,10.4,57.1z"/>
			
				<rect x="8.5" y="51.8" transform="matrix(0.9789 -0.2042 0.2042 0.9789 -10.5588 2.9158)" class="st15" width="0.6" height="1.6"/>
		</g>
		<g>
			
				<rect x="10.3" y="47.9" transform="matrix(0.9987 5.125197e-02 -5.125197e-02 0.9987 2.8208 -0.5299)" class="st16" width="2.9" height="13.8"/>
			
				<rect x="11" y="47.9" transform="matrix(0.9987 5.123248e-02 -5.123248e-02 0.9987 2.8197 -0.5298)" class="st17" width="1.6" height="13.8"/>
			<polygon class="st14" points="11.1,66.2 12.8,61.7 9.9,61.5 			"/>
			<polygon class="st18" points="12,63.8 12.8,61.7 9.9,61.5 10.5,63.8 			"/>
			
				<rect x="10.7" y="46.4" transform="matrix(0.9987 5.125197e-02 -5.125197e-02 0.9987 2.4327 -0.5598)" class="st14" width="2.9" height="1.4"/>
			<path class="st19" d="M13.6,46.6l-2.9-0.1l0.1-1.3c0-0.1,0.1-0.2,0.2-0.2l2.5,0.1c0.1,0,0.2,0.1,0.2,0.2L13.6,46.6z"/>
		</g>
		<g>
			
				<rect x="13.4" y="51.4" transform="matrix(-0.9079 -0.4191 0.4191 -0.9079 3.8369 117.478)" class="st16" width="2.9" height="13.8"/>
			
				<rect x="14" y="51.4" transform="matrix(-0.9079 -0.4191 0.4191 -0.9079 3.8364 117.4778)" class="st17" width="1.6" height="13.8"/>
			<polygon class="st14" points="19.7,47.9 16.4,51.5 19.1,52.7 			"/>
			<polygon class="st18" points="18,49.8 16.4,51.5 19.1,52.7 19.3,50.4 			"/>
			
				<rect x="10.2" y="64.5" transform="matrix(-0.9079 -0.4191 0.4191 -0.9079 -5.1224 129.2966)" class="st20" width="2.9" height="1.4"/>
			<path class="st21" d="M10,65.2l2.6,1.2l-0.6,1.2c0,0.1-0.1,0.1-0.1,0.1l-2.4-1.1c-0.1,0-0.1-0.1-0.1-0.1L10,65.2z"/>
		</g>
		<g>
			
				<rect x="7" y="60.6" transform="matrix(-1 -1.224647e-16 1.224647e-16 -1 22.6975 135.3204)" class="st22" width="8.8" height="14"/>
			
				<rect x="7" y="60.6" transform="matrix(-1 -1.224647e-16 1.224647e-16 -1 18.3203 135.3204)" class="st23" width="4.4" height="14"/>
		</g>
	</g>
	<g>
		<g>
			<path class="st24" d="M92.5,58.9c0-0.5,0.4-0.9,0.9-0.9l4.5,0c0.5,0,0.9,0.4,0.9,0.9l0,2.9c0,0.5-0.4,0.9-0.9,0.9l-4.5,0
				c-0.5,0-0.9-0.4-0.9-0.9L92.5,58.9z"/>
			<g>
				<path class="st25" d="M97.3,63.4c0,1-0.9,1.9-1.9,1.9l-9.3,0c-1,0-1.9-0.8-1.9-1.9l0-6c0,0,0.1-0.1,0.1-0.2l2,0l0-1.3l-1.4,0
					c0.3-0.3,0.8-0.5,1.3-0.5l9.3,0c0.5,0,1,0.2,1.3,0.6c0.3,0.3,0.5,0.7,0.6,1.1c0,0.1,0,0.2,0,0.3L97.3,63.4z"/>
			</g>
			<path class="st26" d="M88.5,75.7C88.5,75.7,88.5,75.7,88.5,75.7l0-9.3c0-1,0.9-1.9,2.1-1.9l0.8,0c1.1,0,2.1,0.8,2.1,1.9l0,9.3
				c0,1-1,1.8-2.1,1.8l-0.8,0l-0.1,0l-1.9,0c-0.5,0-0.9-0.3-0.9-0.8l0-0.1C87.7,76.1,88.1,75.7,88.5,75.7z"/>
			<circle class="st24" cx="67.4" cy="60.3" r="3.4"/>
			<path class="st27" d="M66.2,75.1c0,0.7,0.6,1.3,1.3,1.3l0.1,0c0.7,0,1.3-0.6,1.3-1.3l0-29.8c0-0.7-0.6-1.3-1.3-1.3l-0.1,0
				c-0.7,0-1.3,0.6-1.3,1.3L66.2,75.1z"/>
			<path class="st27" d="M86.7,65.3c0,1,0.8,1.9,1.9,1.9l4.7,0c1,0,1.9-0.8,1.9-1.9l0-9.9c0-1-0.8-1.9-1.9-1.9l-4.7,0
				c-1,0-1.9,0.8-1.9,1.9L86.7,65.3z"/>
			<path class="st25" d="M68.9,45.4c0,0,3,10.2,17.7,10.2l0,9.7c0,0-17.7,2.6-17.7,9.8L68.9,45.4z"/>
			<path class="st28" d="M86.5,56l0,1.2C71.9,57.3,68.9,47,68.9,47l0-1.2C68.9,45.8,71.9,56,86.5,56z"/>
			<path class="st28" d="M97.3,57.1v0.2h-2.1V56h1.6C97,56.3,97.2,56.7,97.3,57.1z"/>
		</g>
	</g>
	<g>
		<g>
			<g>
				<path class="st29" d="M38.1,40.4H13.9c-0.5,0-0.9-0.4-0.9-0.9V5.9C13,5.4,13.4,5,13.9,5h24.2C38.6,5,39,5.4,39,5.9v33.5
					C39,40,38.6,40.4,38.1,40.4z"/>
				<rect x="13.4" y="9.6" class="st0" width="25.1" height="22.8"/>
				<rect x="14.5" y="37" class="st0" width="23.5" height="0.4"/>
				<rect x="19.7" y="36" class="st0" width="18.2" height="0.4"/>
				<rect x="19.7" y="34.8" class="st0" width="18.2" height="0.4"/>
				<rect x="19.7" y="33.9" class="st0" width="18.2" height="0.4"/>
				<g>
					<circle class="st30" cx="17.6" cy="34.5" r="1"/>
					<circle class="st30" cx="15.1" cy="34.5" r="1"/>
				</g>
			</g>
			<path class="st31" d="M36.8,39.7h-2.3c-0.2,0-0.4-0.2-0.4-0.4v-0.7c0-0.2,0.2-0.4,0.4-0.4h2.3c0.2,0,0.4,0.2,0.4,0.4v0.7
				C37.2,39.5,37,39.7,36.8,39.7z"/>
			<circle class="st32" cx="30.5" cy="39" r="0.4"/>
			<circle class="st32" cx="31.9" cy="39" r="0.4"/>
			<circle class="st32" cx="33.3" cy="39" r="0.4"/>
		</g>
		<g>
			<path class="st30" d="M35.6,30H4c-0.4,0-0.8-0.3-0.8-0.8V8.7c0-1.1,0.9-2,2-2h29c1.1,0,2,0.9,2,2v20.6C36.3,29.7,36,30,35.6,30z"
				/>
			<path class="st0" d="M4.2,9C4.2,9,4.2,9,4.2,9l0,19.5c0,0.4,0.3,0.7,0.7,0.7h29.8c0.4,0,0.7-0.3,0.7-0.7V9c0,0,0,0,0,0H4.2z"/>
			<path class="st33" d="M34.5,23c-3.3,1-6.7,1.7-10.2,1.7c-2.2,0-4.4-0.1-6.6-0.5c-2.2-0.3-4.5-0.9-6.5-2.1c-2-1.1-3.5-2.9-4.2-5
				c-0.5-1.5-0.7-3.2-0.9-4.8C6,11.2,5.9,10.1,5.9,9H4.2c0,0,0,0,0,0v19.5c0,0.4,0.3,0.7,0.7,0.7h29.8c0.4,0,0.7-0.3,0.7-0.7v-5.7
				C35.1,22.8,34.8,22.9,34.5,23z"/>
			<path class="st34" d="M4.2,26.2v2.3c0,0.4,0.3,0.7,0.7,0.7h29.8c0.4,0,0.7-0.3,0.7-0.7v-2.3H4.2z"/>
			<path class="st33" d="M31.3,28.5c-5.4,0.7-11,0.8-16.4,0.5c-1.4-0.1-2.7-0.2-4.1-0.3c-1.1-0.1-2.1-0.2-3.2-0.4
				c-1.2-0.2-2.5-0.6-3.4-1.4v1.6c0,0.4,0.3,0.7,0.7,0.7h29.8c0.4,0,0.7-0.3,0.7-0.7v-0.7C34.1,28,32.7,28.3,31.3,28.5z"/>
			<path class="st29" d="M32.6,27.9H7c-0.1,0-0.1,0-0.1-0.1v-0.1c0-0.1,0-0.1,0.1-0.1h25.7c0.1,0,0.1,0,0.1,0.1L32.6,27.9
				C32.7,27.9,32.7,27.9,32.6,27.9z"/>
			<path class="st0" d="M32.7,27.6h-9.2v0.3h9.2c0,0,0.1,0,0.1-0.1L32.7,27.6C32.7,27.7,32.7,27.6,32.7,27.6z"/>
			<rect x="23.3" y="27.1" class="st29" width="0.3" height="1.4"/>
			<path class="st0" d="M9.1,26.4H6.3c-0.2,0-0.3,0.1-0.3,0.3v2C6,28.8,6.1,29,6.3,29h2.8c0.2,0,0.3-0.1,0.3-0.3v-2
				C9.4,26.5,9.3,26.4,9.1,26.4z"/>
			<path class="st29" d="M6.9,27.7v-0.5c0-0.1,0.2-0.2,0.3-0.2l0.5,0.3l0.5,0.3c0.1,0.1,0.1,0.3,0,0.3l-0.5,0.3l-0.5,0.3
				c-0.1,0.1-0.3,0-0.3-0.2V27.7z"/>
		</g>
	</g>
</g>
</svg>
