<?xml version="1.0" encoding="utf-8"?>
<!-- Generator: Adobe Illustrator 23.1.0, SVG Export Plug-In . SVG Version: 6.00 Build 0)  -->
<svg version="1.1" id="Layer_1" xmlns="http://www.w3.org/2000/svg" xmlns:xlink="http://www.w3.org/1999/xlink" x="0px" y="0px"
	 viewBox="0 0 100 81.7" style="enable-background:new 0 0 100 81.7;" xml:space="preserve">
<style type="text/css">
	.st0{fill:#B0BEEA;}
	.st1{opacity:0.75;fill:#F1F1F1;}
	.st2{fill:#00739F;}
	.st3{fill:#FFFFFF;}
	.st4{fill:#8CA3EA;}
	.st5{opacity:0.5;fill:#8FD0D6;}
	.st6{fill:#E6E6E6;}
	.st7{fill-rule:evenodd;clip-rule:evenodd;fill:#E1E1E1;}
	.st8{fill:none;}
	.st9{fill:#E1E1E1;}
	.st10{fill:#25A7DF;}
	.st11{opacity:0.5;fill:#FD425F;}
	.st12{fill:#D0DEF2;}
	.st13{fill:#8FD0D6;}
	.st14{fill:#00923D;}
	.st15{fill:#FF4F5B;}
	.st16{fill:#F08036;}
	.st17{fill:#FFBA22;}
</style>
<path class="st0" d="M24.3,21c-0.2-1.1-1.2-1.8-2.3-1.8c-0.2,0-0.4,0-0.6,0.1c-0.6-1.2-1.8-2-3.2-2c-0.4,0-0.7,0.1-1,0.2
	c-0.8-1.3-2.1-2.1-3.7-2.1c-1.9,0-3.5,1.2-4.1,2.8C9,17.9,8.5,17.8,8,17.8c-1.6,0-3,1.3-3,3c0,0.1,0,0.2,0,0.3H24.3z"/>
<path class="st1" d="M100,81.7H0c0-1.4,1.2-3.3,2.2-4.4c1.8-1.8,4.1-3.2,5.7-5.2c0.3-0.4,0.6-0.8,0.9-1.3c1.4-2.5,1.8-5.5,1.7-8.5
	c0-1.2-0.2-2.4-0.3-3.6c-0.6-4.6-1.6-9.4-0.3-13.9c1.9-6.4,9-10.7,15.5-9.4c9.1,1.8,14.9,12.5,24.2,13.1c4.2,0.3,8.2-1.7,12.3-3.1
	c3.4-1.2,6.9-2,10.5-1.6c3.5,0.4,7.1,2.1,9,5.1c2.7,4.2,1.8,9.8,3.6,14.5c0.1,0.2,0.2,0.4,0.3,0.6c1.1,2.5,3,4.7,5.4,6.1
	c2.3,1.3,5.1,2,6.9,4C99.4,76,99.9,78.9,100,81.7z"/>
<g>
	<path class="st2" d="M9.3,44.5C9.3,44.5,9.3,44.5,9.3,44.5c-0.2-0.1-0.3-0.3-0.5-0.4c0,0,0-0.1,0-0.1c0,0,0.1,0,0.1,0
		c0.1,0.1,0.3,0.3,0.4,0.4C9.4,44.4,9.4,44.5,9.3,44.5C9.4,44.5,9.3,44.5,9.3,44.5z M8.5,43.7C8.5,43.7,8.5,43.7,8.5,43.7
		c-0.2-0.2-0.3-0.3-0.4-0.5c0,0,0-0.1,0-0.1c0,0,0.1,0,0.1,0c0.1,0.2,0.2,0.3,0.4,0.5C8.6,43.6,8.6,43.6,8.5,43.7
		C8.5,43.7,8.5,43.7,8.5,43.7z M7.8,42.7C7.8,42.7,7.8,42.7,7.8,42.7c-0.2-0.2-0.3-0.4-0.4-0.5c0,0,0-0.1,0-0.1c0,0,0.1,0,0.1,0
		c0.1,0.2,0.2,0.3,0.3,0.5C7.9,42.7,7.9,42.7,7.8,42.7C7.8,42.7,7.8,42.7,7.8,42.7z M77.7,42C77.7,42,77.7,41.9,77.7,42
		c-0.1-0.1,0-0.1,0-0.1c0.2,0,0.3,0,0.5-0.1c0,0,0.1,0,0.1,0.1c0,0,0,0.1-0.1,0.1C78.1,41.9,77.9,42,77.7,42
		C77.7,42,77.7,42,77.7,42z M78.8,41.9C78.8,41.9,78.8,41.8,78.8,41.9c-0.1-0.1,0-0.1,0-0.1c0.2,0,0.4-0.1,0.6-0.1
		c0,0,0.1,0,0.1,0.1c0,0,0,0.1-0.1,0.1C79.2,41.8,79,41.8,78.8,41.9C78.8,41.9,78.8,41.9,78.8,41.9z M7.2,41.7
		C7.2,41.7,7.2,41.7,7.2,41.7c-0.2-0.2-0.2-0.4-0.3-0.6c0,0,0-0.1,0-0.1c0,0,0.1,0,0.1,0c0.1,0.2,0.2,0.4,0.2,0.5
		C7.3,41.7,7.3,41.7,7.2,41.7C7.2,41.7,7.2,41.7,7.2,41.7z M80,41.7C79.9,41.7,79.9,41.7,80,41.7c-0.1-0.1-0.1-0.1,0-0.1
		c0.2,0,0.4-0.1,0.6-0.1c0,0,0.1,0,0.1,0.1c0,0,0,0.1-0.1,0.1C80.4,41.6,80.2,41.7,80,41.7C80,41.7,80,41.7,80,41.7z M81.1,41.5
		C81.1,41.5,81.1,41.4,81.1,41.5c-0.1-0.1-0.1-0.1,0-0.1c0.2,0,0.4-0.1,0.6-0.1c0,0,0.1,0,0.1,0.1c0,0,0,0.1-0.1,0.1
		C81.5,41.4,81.3,41.4,81.1,41.5C81.1,41.5,81.1,41.5,81.1,41.5z M82.3,41.2C82.2,41.2,82.2,41.2,82.3,41.2c-0.1-0.1-0.1-0.1,0-0.1
		c0.2,0,0.4-0.1,0.6-0.1c0,0,0.1,0,0.1,0.1c0,0,0,0.1-0.1,0.1C82.7,41.1,82.5,41.2,82.3,41.2C82.3,41.2,82.3,41.2,82.3,41.2z
		 M83.4,40.9C83.4,40.9,83.3,40.9,83.4,40.9c-0.1-0.1-0.1-0.1,0-0.1c0.2-0.1,0.4-0.1,0.6-0.2c0,0,0.1,0,0.1,0c0,0,0,0.1,0,0.1
		C83.8,40.8,83.6,40.8,83.4,40.9C83.4,40.9,83.4,40.9,83.4,40.9z M6.8,40.7C6.7,40.7,6.7,40.6,6.8,40.7c-0.1-0.2-0.2-0.4-0.2-0.6
		c0,0,0-0.1,0-0.1c0,0,0.1,0,0.1,0C6.7,40.2,6.8,40.4,6.8,40.7C6.9,40.6,6.8,40.6,6.8,40.7C6.8,40.7,6.8,40.7,6.8,40.7z M84.5,40.5
		C84.5,40.5,84.4,40.5,84.5,40.5c-0.1-0.1-0.1-0.1,0-0.1c0.2-0.1,0.4-0.1,0.5-0.2c0,0,0.1,0,0.1,0c0,0,0,0.1,0,0.1
		C84.9,40.4,84.7,40.5,84.5,40.5C84.5,40.5,84.5,40.5,84.5,40.5z M85.6,40.1C85.6,40.1,85.5,40.1,85.6,40.1c-0.1-0.1-0.1-0.1,0-0.1
		c0.2-0.1,0.4-0.2,0.5-0.2c0,0,0.1,0,0.1,0c0,0,0,0.1,0,0.1C86,39.9,85.8,40,85.6,40.1C85.6,40.1,85.6,40.1,85.6,40.1z M86.6,39.6
		C86.6,39.6,86.6,39.6,86.6,39.6c-0.1-0.1-0.1-0.1,0-0.1c0.2-0.1,0.3-0.2,0.5-0.3c0,0,0.1,0,0.1,0c0,0,0,0.1,0,0.1
		C87,39.4,86.8,39.5,86.6,39.6C86.7,39.6,86.6,39.6,86.6,39.6z M6.5,39.5C6.4,39.5,6.4,39.5,6.5,39.5c-0.1-0.2-0.2-0.4-0.2-0.6
		c0,0,0-0.1,0.1-0.1c0,0,0.1,0,0.1,0.1C6.4,39.1,6.5,39.3,6.5,39.5C6.5,39.5,6.5,39.5,6.5,39.5C6.5,39.5,6.5,39.5,6.5,39.5z
		 M87.7,39C87.6,39,87.6,39,87.7,39c-0.1-0.1-0.1-0.1,0-0.1c0.2-0.1,0.3-0.2,0.5-0.3c0,0,0.1,0,0.1,0c0,0,0,0.1,0,0.1
		C88,38.8,87.9,38.9,87.7,39C87.7,39,87.7,39,87.7,39z M88.6,38.4C88.6,38.4,88.6,38.4,88.6,38.4c-0.1-0.1-0.1-0.1,0-0.1
		c0.2-0.1,0.3-0.2,0.5-0.3c0,0,0.1,0,0.1,0c0,0,0,0.1,0,0.1C89,38.2,88.8,38.3,88.6,38.4C88.7,38.4,88.7,38.4,88.6,38.4z M6.3,38.4
		C6.2,38.4,6.2,38.4,6.3,38.4c-0.1-0.3-0.1-0.5-0.1-0.6c0,0,0-0.1,0.1-0.1c0,0,0.1,0,0.1,0.1C6.3,37.9,6.3,38.1,6.3,38.4
		C6.3,38.3,6.3,38.4,6.3,38.4C6.3,38.4,6.3,38.4,6.3,38.4z M89.6,37.7C89.5,37.7,89.5,37.7,89.6,37.7c-0.1-0.1-0.1-0.1,0-0.1
		c0.1-0.1,0.3-0.3,0.4-0.4c0,0,0.1,0,0.1,0c0,0,0,0.1,0,0.1C89.9,37.4,89.8,37.6,89.6,37.7C89.6,37.7,89.6,37.7,89.6,37.7z
		 M6.2,37.2C6.1,37.2,6.1,37.2,6.2,37.2L6.1,37c0-0.2,0-0.3,0-0.5c0,0,0-0.1,0.1-0.1c0,0,0.1,0,0.1,0.1c0,0.2,0,0.3,0,0.5L6.2,37.2
		C6.3,37.2,6.2,37.2,6.2,37.2z M90.4,36.9C90.4,36.9,90.4,36.9,90.4,36.9c-0.1-0.1-0.1-0.1-0.1-0.1c0.1-0.1,0.3-0.3,0.4-0.4
		c0,0,0.1,0,0.1,0c0,0,0,0.1,0,0.1C90.8,36.6,90.6,36.8,90.4,36.9C90.5,36.9,90.5,36.9,90.4,36.9z M91.2,36.1
		C91.2,36.1,91.2,36.1,91.2,36.1c-0.1,0-0.1-0.1-0.1-0.1c0.1-0.1,0.3-0.3,0.4-0.4c0,0,0.1,0,0.1,0c0,0,0,0.1,0,0.1
		C91.5,35.7,91.4,35.9,91.2,36.1C91.3,36.1,91.3,36.1,91.2,36.1z M6.2,36.1C6.2,36,6.2,36,6.2,36.1c-0.1-0.3,0-0.5,0-0.7
		c0,0,0-0.1,0.1-0.1c0,0,0.1,0,0.1,0.1C6.3,35.6,6.3,35.8,6.2,36.1C6.3,36,6.3,36.1,6.2,36.1z M92,35.2C91.9,35.2,91.9,35.2,92,35.2
		c-0.1,0-0.1-0.1-0.1-0.1c0.1-0.2,0.2-0.3,0.3-0.5c0,0,0.1,0,0.1,0c0,0,0,0.1,0,0.1C92.2,34.8,92.1,35,92,35.2
		C92,35.1,92,35.2,92,35.2z M6.4,34.9C6.4,34.9,6.4,34.9,6.4,34.9C6.4,34.9,6.3,34.9,6.4,34.9c0-0.3,0-0.5,0.1-0.7
		c0,0,0.1-0.1,0.1-0.1c0,0,0.1,0.1,0.1,0.1C6.6,34.5,6.5,34.7,6.4,34.9C6.5,34.9,6.4,34.9,6.4,34.9z M92.6,34.2
		C92.6,34.2,92.6,34.2,92.6,34.2c-0.1,0-0.1-0.1-0.1-0.1c0.1-0.2,0.2-0.3,0.3-0.5c0,0,0.1,0,0.1,0c0,0,0,0.1,0,0.1
		C92.9,33.8,92.8,34,92.6,34.2C92.7,34.2,92.6,34.2,92.6,34.2z M6.7,33.8C6.7,33.8,6.7,33.8,6.7,33.8C6.6,33.8,6.6,33.7,6.7,33.8
		c0-0.3,0.1-0.5,0.1-0.6c0,0,0.1-0.1,0.1,0c0,0,0.1,0.1,0,0.1C6.9,33.4,6.8,33.5,6.7,33.8C6.8,33.8,6.7,33.8,6.7,33.8z M93.2,33.2
		C93.1,33.2,93.1,33.2,93.2,33.2c-0.1,0-0.1-0.1-0.1-0.1c0.1-0.2,0.2-0.4,0.2-0.5c0,0,0.1-0.1,0.1,0c0,0,0.1,0.1,0,0.1
		C93.4,32.8,93.3,32.9,93.2,33.2C93.2,33.1,93.2,33.2,93.2,33.2z M7.1,32.7C7.1,32.7,7.1,32.7,7.1,32.7c-0.1,0-0.1-0.1-0.1-0.1
		c0.1-0.2,0.2-0.4,0.3-0.5c0,0,0.1,0,0.1,0c0,0,0,0.1,0,0.1C7.4,32.3,7.3,32.5,7.1,32.7C7.2,32.7,7.2,32.7,7.1,32.7z M93.6,32.1
		C93.6,32.1,93.6,32.1,93.6,32.1C93.5,32.1,93.5,32,93.6,32.1c0-0.3,0.1-0.5,0.1-0.6c0,0,0.1-0.1,0.1,0c0,0,0.1,0.1,0,0.1
		C93.8,31.7,93.7,31.8,93.6,32.1C93.7,32.1,93.6,32.1,93.6,32.1z M7.7,31.7C7.7,31.7,7.7,31.7,7.7,31.7c-0.1,0-0.1-0.1-0.1-0.1
		c0.1-0.2,0.2-0.3,0.3-0.5c0,0,0.1,0,0.1,0c0,0,0,0.1,0,0.1C8,31.3,7.9,31.5,7.7,31.7C7.7,31.7,7.7,31.7,7.7,31.7z M61.2,31.6
		c-0.1,0-0.1,0-0.2,0c0,0-0.1,0-0.1-0.1c0,0,0-0.1,0.1-0.1c0.2,0,0.4,0,0.6,0c0,0,0.1,0,0.1,0.1c0,0,0,0.1-0.1,0.1
		C61.4,31.5,61.3,31.6,61.2,31.6z M60.4,31.5c-0.2,0-0.4,0-0.6,0c0,0-0.1,0-0.1-0.1c0,0,0-0.1,0.1-0.1c0.2,0,0.4,0,0.6,0
		C60.4,31.4,60.5,31.4,60.4,31.5C60.5,31.5,60.4,31.5,60.4,31.5z M62.2,31.5C62.1,31.5,62.1,31.5,62.2,31.5c-0.1-0.1,0-0.1,0-0.1
		c0.2,0,0.4,0,0.6,0c0,0,0.1,0,0.1,0.1c0,0,0,0.1-0.1,0.1C62.5,31.5,62.4,31.5,62.2,31.5L62.2,31.5z M59.2,31.4
		C59.2,31.4,59.2,31.4,59.2,31.4c-0.2,0-0.4-0.1-0.6-0.1c0,0-0.1,0-0.1-0.1c0,0,0-0.1,0.1-0.1c0.2,0,0.4,0.1,0.6,0.1
		C59.3,31.3,59.3,31.3,59.2,31.4C59.3,31.4,59.3,31.4,59.2,31.4z M63.3,31.4C63.3,31.4,63.2,31.4,63.3,31.4c-0.1-0.1,0-0.1,0-0.1
		c0.2,0,0.4-0.1,0.6-0.1c0,0,0.1,0,0.1,0.1c0,0,0,0.1-0.1,0.1C63.7,31.3,63.5,31.4,63.3,31.4C63.3,31.4,63.3,31.4,63.3,31.4z
		 M58.1,31.2C58.1,31.2,58.1,31.2,58.1,31.2c-0.2,0-0.4-0.1-0.6-0.1c0,0-0.1,0-0.1-0.1c0,0,0-0.1,0.1-0.1c0.2,0,0.4,0.1,0.6,0.1
		C58.1,31.1,58.2,31.1,58.1,31.2C58.2,31.2,58.1,31.2,58.1,31.2z M64.5,31.2C64.4,31.2,64.4,31.2,64.5,31.2c-0.1-0.1-0.1-0.1,0-0.1
		c0.2,0,0.4-0.1,0.6-0.1c0,0,0.1,0,0.1,0.1c0,0,0,0.1-0.1,0.1C64.9,31.1,64.7,31.2,64.5,31.2C64.5,31.2,64.5,31.2,64.5,31.2z
		 M93.9,31C93.9,31,93.9,31,93.9,31C93.9,30.9,93.8,30.9,93.9,31c0-0.3,0-0.5,0-0.7c0,0,0-0.1,0.1-0.1c0,0,0.1,0,0.1,0.1
		C94.1,30.5,94,30.7,93.9,31C94,30.9,94,31,93.9,31z M57,30.9C57,30.9,56.9,30.9,57,30.9c-0.2-0.1-0.4-0.1-0.6-0.2
		c0,0-0.1-0.1,0-0.1c0,0,0.1-0.1,0.1,0c0.2,0.1,0.4,0.1,0.6,0.2C57,30.8,57,30.8,57,30.9C57,30.9,57,30.9,57,30.9z M65.6,30.9
		C65.6,30.9,65.5,30.9,65.6,30.9c-0.1-0.1-0.1-0.1,0-0.1c0.2-0.1,0.4-0.1,0.6-0.2c0,0,0.1,0,0.1,0c0,0,0,0.1,0,0.1
		C66,30.8,65.8,30.9,65.6,30.9C65.6,30.9,65.6,30.9,65.6,30.9z M8.4,30.7C8.4,30.7,8.4,30.7,8.4,30.7c-0.1,0-0.1-0.1-0.1-0.1
		c0.1-0.2,0.3-0.3,0.4-0.4c0,0,0.1,0,0.1,0c0,0,0,0.1,0,0.1C8.7,30.4,8.6,30.5,8.4,30.7C8.4,30.7,8.4,30.7,8.4,30.7z M55.9,30.5
		C55.9,30.5,55.8,30.5,55.9,30.5c-0.2-0.1-0.4-0.2-0.6-0.2c0,0-0.1-0.1,0-0.1c0,0,0.1-0.1,0.1,0c0.2,0.1,0.4,0.2,0.5,0.2
		C55.9,30.4,55.9,30.5,55.9,30.5C55.9,30.5,55.9,30.5,55.9,30.5z M66.7,30.5C66.7,30.5,66.6,30.5,66.7,30.5c-0.1-0.1-0.1-0.1,0-0.1
		c0.1,0,0.2-0.1,0.3-0.1c0.1,0,0.1-0.1,0.2-0.1c0,0,0.1,0,0.1,0c0,0,0,0.1,0,0.1c-0.1,0-0.1,0.1-0.2,0.1
		C66.9,30.4,66.8,30.5,66.7,30.5C66.7,30.5,66.7,30.5,66.7,30.5z M67.8,30.1C67.7,30.1,67.7,30.1,67.8,30.1c-0.1-0.1-0.1-0.1,0-0.1
		c0.2-0.1,0.3-0.2,0.5-0.3c0,0,0.1,0,0.1,0c0,0,0,0.1,0,0.1C68.2,29.9,68,30,67.8,30.1C67.8,30.1,67.8,30.1,67.8,30.1z M54.8,30.1
		C54.8,30.1,54.8,30.1,54.8,30.1c-0.2-0.1-0.4-0.2-0.6-0.3c0,0,0-0.1,0-0.1c0,0,0.1,0,0.1,0c0.2,0.1,0.3,0.2,0.5,0.3
		C54.9,29.9,54.9,30,54.8,30.1C54.8,30.1,54.8,30.1,54.8,30.1z M9.2,29.9C9.2,29.9,9.2,29.9,9.2,29.9c-0.1-0.1-0.1-0.1,0-0.1
		c0.1-0.1,0.3-0.3,0.4-0.4c0,0,0.1,0,0.1,0c0,0,0,0.1,0,0.1C9.5,29.6,9.4,29.7,9.2,29.9C9.2,29.9,9.2,29.9,9.2,29.9z M94.1,29.8
		C94.1,29.8,94.1,29.8,94.1,29.8C94.1,29.8,94,29.8,94.1,29.8c-0.1-0.2,0-0.3,0-0.5c0-0.1,0-0.1,0-0.2c0,0,0-0.1,0.1-0.1
		c0,0,0.1,0,0.1,0.1c0,0.1,0,0.1,0,0.2C94.2,29.5,94.2,29.6,94.1,29.8C94.2,29.8,94.2,29.8,94.1,29.8z M68.8,29.6
		C68.8,29.6,68.8,29.5,68.8,29.6c-0.1-0.1-0.1-0.1,0-0.1c0.2-0.1,0.3-0.2,0.5-0.3c0,0,0.1,0,0.1,0c0,0,0,0.1,0,0.1
		C69.2,29.4,69,29.4,68.8,29.6C68.8,29.6,68.8,29.6,68.8,29.6z M53.8,29.5C53.8,29.5,53.8,29.5,53.8,29.5c-0.2-0.1-0.4-0.2-0.5-0.3
		c0,0,0-0.1,0-0.1c0,0,0.1,0,0.1,0c0.2,0.1,0.3,0.2,0.5,0.3C53.9,29.4,53.9,29.4,53.8,29.5C53.8,29.5,53.8,29.5,53.8,29.5z
		 M10.1,29.1C10.1,29.1,10.1,29.1,10.1,29.1C10,29.1,10,29,10.1,29c0.2-0.1,0.3-0.2,0.5-0.3c0,0,0.1,0,0.1,0c0,0,0,0.1,0,0.1
		C10.5,28.9,10.3,29,10.1,29.1C10.1,29.1,10.1,29.1,10.1,29.1z M69.8,29C69.8,29,69.8,28.9,69.8,29c-0.1-0.1-0.1-0.1,0-0.1
		c0.2-0.1,0.3-0.2,0.5-0.3c0,0,0.1,0,0.1,0c0,0,0,0.1,0,0.1C70.2,28.7,70,28.8,69.8,29C69.8,28.9,69.8,29,69.8,29z M52.8,28.8
		C52.8,28.8,52.8,28.8,52.8,28.8c-0.2-0.1-0.4-0.3-0.5-0.4c0,0,0-0.1,0-0.1c0,0,0.1,0,0.1,0c0.1,0.1,0.3,0.2,0.4,0.4
		C52.9,28.7,52.9,28.8,52.8,28.8C52.9,28.8,52.8,28.8,52.8,28.8z M94.2,28.6C94.1,28.6,94.1,28.6,94.2,28.6
		c-0.1-0.3-0.1-0.5-0.1-0.6c0,0,0-0.1,0.1-0.1c0,0,0.1,0,0.1,0.1C94.2,28.2,94.2,28.4,94.2,28.6C94.3,28.6,94.2,28.6,94.2,28.6
		L94.2,28.6z M11.1,28.5C11,28.5,11,28.5,11.1,28.5c-0.1-0.1-0.1-0.1,0-0.1l0.5-0.3c0,0,0.1,0,0.1,0c0,0,0,0.1,0,0.1L11.1,28.5
		C11.1,28.5,11.1,28.5,11.1,28.5z M70.8,28.3C70.7,28.3,70.7,28.3,70.8,28.3c-0.1-0.1-0.1-0.1,0-0.1c0.2-0.1,0.3-0.3,0.4-0.4
		c0,0,0.1,0,0.1,0c0,0,0,0.1,0,0.1C71.1,28,71,28.1,70.8,28.3C70.8,28.3,70.8,28.3,70.8,28.3z M51.9,28.1
		C51.9,28.1,51.9,28.1,51.9,28.1c-0.2-0.2-0.3-0.3-0.5-0.5c0,0,0-0.1,0-0.1c0,0,0.1,0,0.1,0c0.1,0.1,0.3,0.3,0.4,0.4
		C52,28,52,28,51.9,28.1C52,28.1,52,28.1,51.9,28.1z M12,27.8C12,27.8,12,27.8,12,27.8c-0.1-0.1-0.1-0.1,0-0.1
		c0.2-0.1,0.3-0.2,0.5-0.3c0,0,0.1,0,0.1,0c0,0,0,0.1,0,0.1C12.4,27.6,12.2,27.7,12,27.8C12,27.8,12,27.8,12,27.8z M94,27.5
		C94,27.5,94,27.5,94,27.5c-0.1-0.2-0.2-0.4-0.2-0.6c0,0,0-0.1,0.1-0.1c0,0,0.1,0,0.1,0.1C94,27,94.1,27.2,94,27.5
		C94.1,27.4,94.1,27.5,94,27.5C94,27.5,94,27.5,94,27.5z M71.6,27.5C71.6,27.5,71.6,27.5,71.6,27.5c-0.1,0-0.1-0.1-0.1-0.1
		c0.1-0.1,0.3-0.3,0.4-0.4c0,0,0.1,0,0.1,0c0,0,0,0.1,0,0.1C71.9,27.2,71.8,27.3,71.6,27.5C71.7,27.5,71.6,27.5,71.6,27.5z
		 M51.2,27.2C51.2,27.2,51.1,27.2,51.2,27.2c-0.2-0.2-0.3-0.3-0.4-0.5c0,0,0-0.1,0-0.1c0,0,0.1,0,0.1,0c0.1,0.2,0.2,0.3,0.3,0.5
		C51.3,27.1,51.3,27.1,51.2,27.2C51.2,27.2,51.2,27.2,51.2,27.2z M13,27.1C12.9,27.1,12.9,27.1,13,27.1c-0.1-0.1-0.1-0.1,0-0.1
		c0.1-0.1,0.2-0.2,0.4-0.3l0.1-0.1c0,0,0.1,0,0.1,0c0,0,0,0.1,0,0.1l-0.1,0.1C13.3,26.9,13.1,27,13,27.1C13,27.1,13,27.1,13,27.1z
		 M72.3,26.6C72.3,26.6,72.3,26.6,72.3,26.6c-0.1,0-0.1-0.1-0.1-0.1l0.3-0.5c0,0,0.1,0,0.1,0c0,0,0,0.1,0,0.1L72.3,26.6
		C72.4,26.6,72.4,26.6,72.3,26.6z M13.8,26.4C13.8,26.4,13.8,26.4,13.8,26.4c-0.1-0.1-0.1-0.1,0-0.1c0.1-0.1,0.3-0.3,0.4-0.4
		c0,0,0.1,0,0.1,0c0,0,0,0.1,0,0.1C14.2,26.1,14,26.2,13.8,26.4C13.9,26.4,13.9,26.4,13.8,26.4z M93.7,26.4
		C93.7,26.4,93.7,26.3,93.7,26.4c-0.1-0.2-0.2-0.4-0.3-0.6c0,0,0-0.1,0-0.1c0,0,0.1,0,0.1,0C93.7,25.9,93.7,26.1,93.7,26.4
		C93.8,26.3,93.8,26.3,93.7,26.4C93.7,26.4,93.7,26.4,93.7,26.4z M50.5,26.2C50.5,26.2,50.5,26.2,50.5,26.2
		c-0.2-0.2-0.2-0.4-0.3-0.6c0,0,0-0.1,0-0.1c0,0,0.1,0,0.1,0c0.1,0.2,0.2,0.4,0.3,0.5C50.6,26.1,50.6,26.2,50.5,26.2
		C50.6,26.2,50.6,26.2,50.5,26.2z M73,25.6C73,25.6,73,25.6,73,25.6c-0.1,0-0.1-0.1-0.1-0.1c0.1-0.2,0.2-0.3,0.3-0.5
		c0,0,0.1,0,0.1,0c0,0,0,0.1,0,0.1C73.3,25.3,73.2,25.4,73,25.6C73.1,25.6,73,25.6,73,25.6z M14.7,25.6
		C14.7,25.6,14.6,25.5,14.7,25.6c-0.1,0-0.1-0.1-0.1-0.1c0.1-0.1,0.3-0.3,0.4-0.4c0,0,0.1,0,0.1,0c0,0,0,0.1,0,0.1
		C15,25.3,14.9,25.4,14.7,25.6C14.7,25.5,14.7,25.6,14.7,25.6z M93.3,25.3C93.2,25.3,93.2,25.3,93.3,25.3c-0.2-0.2-0.2-0.4-0.3-0.6
		c0,0,0-0.1,0-0.1c0,0,0.1,0,0.1,0c0.1,0.2,0.2,0.3,0.3,0.5C93.4,25.2,93.3,25.3,93.3,25.3C93.3,25.3,93.3,25.3,93.3,25.3z
		 M50.1,25.1C50,25.1,50,25.1,50.1,25.1c-0.1-0.2-0.2-0.4-0.3-0.6c0,0,0-0.1,0-0.1c0,0,0.1,0,0.1,0C50,24.7,50.1,24.9,50.1,25.1
		C50.1,25.1,50.1,25.1,50.1,25.1C50.1,25.1,50.1,25.1,50.1,25.1z M15.5,24.7C15.5,24.7,15.4,24.7,15.5,24.7c-0.1,0-0.1-0.1-0.1-0.1
		c0.1-0.1,0.3-0.3,0.4-0.4c0,0,0.1,0,0.1,0c0,0,0,0.1,0,0.1C15.8,24.4,15.7,24.5,15.5,24.7C15.5,24.7,15.5,24.7,15.5,24.7z
		 M73.7,24.7C73.7,24.7,73.7,24.6,73.7,24.7c-0.1,0-0.1-0.1-0.1-0.1c0.1-0.2,0.2-0.3,0.3-0.5c0,0,0.1,0,0.1,0c0,0,0,0.1,0,0.1
		C74,24.3,73.9,24.5,73.7,24.7C73.7,24.6,73.7,24.7,73.7,24.7z M92.7,24.3C92.7,24.3,92.6,24.3,92.7,24.3c-0.2-0.2-0.3-0.4-0.4-0.5
		c0,0,0-0.1,0-0.1c0,0,0.1,0,0.1,0c0.1,0.2,0.2,0.3,0.3,0.5C92.8,24.2,92.8,24.2,92.7,24.3C92.7,24.3,92.7,24.3,92.7,24.3z M49.7,24
		C49.6,24,49.6,24,49.7,24c-0.1-0.2-0.2-0.4-0.2-0.6c0,0,0-0.1,0.1-0.1c0,0,0.1,0,0.1,0.1C49.6,23.6,49.7,23.8,49.7,24
		C49.8,24,49.7,24,49.7,24C49.7,24,49.7,24,49.7,24z M16.2,23.8C16.2,23.8,16.2,23.8,16.2,23.8c-0.1,0-0.1-0.1-0.1-0.1
		c0.1-0.1,0.2-0.3,0.4-0.5c0,0,0.1,0,0.1,0c0,0,0,0.1,0,0.1C16.6,23.5,16.4,23.7,16.2,23.8C16.3,23.8,16.3,23.8,16.2,23.8z
		 M74.4,23.7C74.4,23.7,74.4,23.7,74.4,23.7c-0.1,0-0.1-0.1-0.1-0.1c0.1-0.2,0.2-0.3,0.4-0.5c0,0,0.1,0,0.1,0c0,0,0,0.1,0,0.1
		C74.7,23.4,74.6,23.5,74.4,23.7C74.4,23.7,74.4,23.7,74.4,23.7z M92,23.3C92,23.3,92,23.3,92,23.3c-0.2-0.2-0.3-0.3-0.4-0.5
		c0,0,0-0.1,0-0.1c0,0,0.1,0,0.1,0c0.1,0.1,0.3,0.3,0.4,0.4C92.1,23.2,92.1,23.3,92,23.3C92,23.3,92,23.3,92,23.3z M49.4,22.9
		C49.3,22.9,49.3,22.9,49.4,22.9c-0.1-0.2-0.2-0.4-0.2-0.6c0,0,0-0.1,0.1-0.1c0,0,0.1,0,0.1,0.1C49.4,22.4,49.4,22.6,49.4,22.9
		C49.5,22.9,49.4,22.9,49.4,22.9C49.4,22.9,49.4,22.9,49.4,22.9z M17,22.9C17,22.9,16.9,22.9,17,22.9c-0.1,0-0.1-0.1-0.1-0.1
		c0.1-0.2,0.2-0.3,0.3-0.5c0,0,0.1,0,0.1,0c0,0,0,0.1,0,0.1C17.3,22.6,17.1,22.7,17,22.9C17,22.9,17,22.9,17,22.9z M75.1,22.8
		C75.1,22.8,75.1,22.8,75.1,22.8c-0.1,0-0.1-0.1-0.1-0.1c0.1-0.1,0.3-0.3,0.4-0.4c0,0,0.1,0,0.1,0c0,0,0,0.1,0,0.1
		C75.5,22.5,75.3,22.7,75.1,22.8C75.2,22.8,75.2,22.8,75.1,22.8z M91.2,22.5C91.2,22.5,91.2,22.5,91.2,22.5
		c-0.2-0.2-0.3-0.3-0.5-0.4c0,0,0-0.1,0-0.1c0,0,0.1,0,0.1,0c0.1,0.1,0.3,0.3,0.4,0.4C91.3,22.4,91.3,22.4,91.2,22.5
		C91.3,22.5,91.2,22.5,91.2,22.5z M76,22C76,22,75.9,22,76,22c-0.1-0.1-0.1-0.1,0-0.1c0.1-0.1,0.3-0.3,0.4-0.4c0,0,0.1,0,0.1,0
		c0,0,0,0.1,0,0.1C76.3,21.7,76.2,21.9,76,22C76,22,76,22,76,22z M17.7,22C17.6,22,17.6,22,17.7,22c-0.1,0-0.1-0.1-0.1-0.1
		c0.1-0.2,0.2-0.3,0.3-0.5c0,0,0.1,0,0.1,0c0,0,0,0.1,0,0.1C17.9,21.6,17.8,21.8,17.7,22C17.7,21.9,17.7,22,17.7,22z M49.1,21.8
		C49.1,21.8,49.1,21.8,49.1,21.8l-0.2-0.6c0,0,0-0.1,0.1-0.1c0,0,0.1,0,0.1,0.1L49.1,21.8C49.2,21.7,49.2,21.8,49.1,21.8
		C49.1,21.8,49.1,21.8,49.1,21.8z M90.4,21.7C90.3,21.7,90.3,21.7,90.4,21.7c-0.2-0.1-0.3-0.3-0.5-0.4c0,0,0-0.1,0-0.1
		c0,0,0.1,0,0.1,0c0.2,0.1,0.3,0.2,0.5,0.4C90.4,21.6,90.4,21.6,90.4,21.7C90.4,21.7,90.4,21.7,90.4,21.7z M76.9,21.3
		C76.8,21.3,76.8,21.3,76.9,21.3c-0.1-0.1-0.1-0.1,0-0.1c0.1-0.1,0.3-0.2,0.5-0.3l0,0c0,0,0.1,0,0.1,0c0,0,0,0.1,0,0.1l0,0
		C77.2,21,77.1,21.1,76.9,21.3C76.9,21.3,76.9,21.3,76.9,21.3z M18.3,21C18.3,21,18.3,21,18.3,21c-0.1,0-0.1-0.1-0.1-0.1
		c0.1-0.2,0.2-0.3,0.3-0.5c0,0,0.1,0,0.1,0c0,0,0,0.1,0,0.1C18.5,20.6,18.4,20.8,18.3,21C18.3,21,18.3,21,18.3,21z M89.4,21
		C89.4,21,89.4,21,89.4,21c-0.2-0.1-0.4-0.2-0.5-0.3c0,0,0-0.1,0-0.1c0,0,0.1,0,0.1,0c0.2,0.1,0.3,0.2,0.5,0.3
		C89.5,20.9,89.5,20.9,89.4,21C89.5,20.9,89.5,21,89.4,21z M48.9,20.6C48.8,20.6,48.8,20.6,48.9,20.6c-0.1-0.2-0.2-0.4-0.2-0.6
		c0,0,0-0.1,0.1-0.1c0,0,0.1,0,0.1,0.1C48.9,20.2,48.9,20.4,48.9,20.6C48.9,20.6,48.9,20.6,48.9,20.6C48.9,20.6,48.9,20.6,48.9,20.6
		z M77.8,20.6C77.8,20.6,77.8,20.6,77.8,20.6c-0.1-0.1-0.1-0.1,0-0.1c0.2-0.1,0.3-0.2,0.5-0.3c0,0,0.1,0,0.1,0c0,0,0,0.1,0,0.1
		C78.2,20.4,78,20.5,77.8,20.6C77.9,20.6,77.8,20.6,77.8,20.6z M88.4,20.3C88.4,20.3,88.4,20.3,88.4,20.3c-0.2-0.1-0.4-0.2-0.6-0.3
		c0,0-0.1-0.1,0-0.1c0,0,0.1-0.1,0.1,0c0.2,0.1,0.4,0.2,0.5,0.3C88.5,20.2,88.5,20.3,88.4,20.3C88.5,20.3,88.5,20.3,88.4,20.3z
		 M78.9,20.1C78.8,20.1,78.8,20.1,78.9,20.1c-0.1-0.1-0.1-0.1,0-0.1c0.2-0.1,0.4-0.2,0.5-0.2c0,0,0.1,0,0.1,0c0,0,0,0.1,0,0.1
		C79.3,19.9,79.1,20,78.9,20.1C78.9,20.1,78.9,20.1,78.9,20.1z M18.9,20C18.8,20,18.8,20,18.9,20c-0.1,0-0.1-0.1-0.1-0.1
		c0.1-0.2,0.2-0.3,0.3-0.5c0,0,0.1-0.1,0.1,0c0,0,0.1,0.1,0,0.1C19.1,19.6,19,19.7,18.9,20C18.9,19.9,18.9,20,18.9,20z M87.4,19.8
		C87.4,19.8,87.4,19.8,87.4,19.8c-0.2-0.1-0.4-0.1-0.6-0.2c0,0-0.1-0.1,0-0.1c0,0,0.1-0.1,0.1,0c0.2,0.1,0.4,0.1,0.6,0.2
		C87.5,19.7,87.5,19.8,87.4,19.8C87.4,19.8,87.4,19.8,87.4,19.8z M80,19.7C79.9,19.7,79.9,19.6,80,19.7c-0.1-0.1-0.1-0.1,0-0.1
		c0.2-0.1,0.4-0.1,0.6-0.2c0,0,0.1,0,0.1,0.1c0,0,0,0.1-0.1,0.1C80.4,19.5,80.2,19.6,80,19.7C80,19.7,80,19.7,80,19.7z M48.6,19.5
		C48.6,19.5,48.5,19.5,48.6,19.5c-0.1-0.2-0.2-0.4-0.2-0.6c0,0,0-0.1,0.1-0.1c0,0,0.1,0,0.1,0.1C48.6,19,48.6,19.2,48.6,19.5
		C48.7,19.4,48.7,19.5,48.6,19.5C48.6,19.5,48.6,19.5,48.6,19.5z M86.3,19.5C86.3,19.5,86.3,19.5,86.3,19.5
		c-0.2-0.1-0.4-0.1-0.6-0.1c0,0-0.1,0-0.1-0.1c0,0,0-0.1,0.1-0.1c0.2,0,0.4,0.1,0.6,0.1C86.3,19.3,86.4,19.4,86.3,19.5
		C86.3,19.4,86.3,19.5,86.3,19.5z M81.1,19.4C81.1,19.4,81,19.3,81.1,19.4c-0.1-0.1-0.1-0.1,0-0.1c0.2,0,0.4-0.1,0.6-0.1
		c0,0,0.1,0,0.1,0.1c0,0,0,0.1-0.1,0.1C81.5,19.3,81.3,19.3,81.1,19.4C81.1,19.4,81.1,19.4,81.1,19.4z M85.1,19.2
		C85.1,19.2,85.1,19.2,85.1,19.2c-0.2,0-0.4-0.1-0.6-0.1c0,0-0.1,0-0.1-0.1c0,0,0-0.1,0.1-0.1c0.2,0,0.4,0,0.6,0.1
		C85.2,19.1,85.2,19.1,85.1,19.2C85.2,19.2,85.2,19.2,85.1,19.2z M82.2,19.2C82.2,19.2,82.2,19.1,82.2,19.2c-0.1-0.1,0-0.1,0-0.1
		c0.2,0,0.4,0,0.6,0c0,0,0.1,0,0.1,0.1c0,0,0,0.1-0.1,0.1C82.6,19.1,82.4,19.1,82.2,19.2C82.2,19.2,82.2,19.2,82.2,19.2z M84,19.1
		c-0.2,0-0.3,0-0.5,0l-0.1,0c0,0-0.1,0-0.1-0.1c0,0,0-0.1,0.1-0.1l0.1,0c0.2,0,0.3,0,0.5,0C84,19,84.1,19,84,19.1
		C84.1,19.1,84,19.1,84,19.1z M19.4,18.9C19.4,18.9,19.3,18.9,19.4,18.9c-0.1,0-0.1-0.1-0.1-0.1c0.1-0.2,0.2-0.4,0.2-0.5
		c0,0,0.1-0.1,0.1,0c0,0,0.1,0.1,0,0.1C19.6,18.5,19.5,18.7,19.4,18.9C19.4,18.9,19.4,18.9,19.4,18.9z M48.3,18.4
		C48.2,18.4,48.2,18.4,48.3,18.4c-0.1-0.2-0.2-0.4-0.3-0.6c0,0,0-0.1,0-0.1c0,0,0.1,0,0.1,0C48.2,17.9,48.3,18.1,48.3,18.4
		C48.4,18.3,48.3,18.4,48.3,18.4C48.3,18.4,48.3,18.4,48.3,18.4z M19.8,17.8C19.8,17.8,19.8,17.8,19.8,17.8
		C19.8,17.8,19.7,17.8,19.8,17.8c0-0.3,0.1-0.5,0.1-0.6c0,0,0.1-0.1,0.1,0c0,0,0.1,0.1,0,0.1C20,17.4,20,17.6,19.8,17.8
		C19.9,17.8,19.8,17.8,19.8,17.8z M47.9,17.3C47.8,17.3,47.8,17.3,47.9,17.3c-0.1-0.2-0.2-0.4-0.3-0.6c0,0,0-0.1,0-0.1
		c0,0,0.1,0,0.1,0c0.1,0.2,0.2,0.4,0.2,0.5C48,17.2,47.9,17.3,47.9,17.3C47.9,17.3,47.9,17.3,47.9,17.3z M20.2,16.7
		C20.2,16.7,20.2,16.7,20.2,16.7C20.1,16.7,20.1,16.7,20.2,16.7c0-0.3,0-0.5,0.1-0.7c0,0,0.1-0.1,0.1-0.1c0,0,0.1,0.1,0.1,0.1
		C20.4,16.3,20.3,16.5,20.2,16.7C20.3,16.7,20.2,16.7,20.2,16.7z M47.4,16.2C47.3,16.2,47.3,16.2,47.4,16.2
		c-0.2-0.2-0.3-0.4-0.4-0.5c0,0,0-0.1,0-0.1c0,0,0.1,0,0.1,0c0.1,0.2,0.2,0.3,0.3,0.5C47.4,16.2,47.4,16.2,47.4,16.2
		C47.4,16.2,47.4,16.2,47.4,16.2z M20.5,15.6C20.5,15.6,20.5,15.6,20.5,15.6C20.5,15.6,20.4,15.6,20.5,15.6c0-0.3,0-0.5,0.1-0.7
		c0,0,0-0.1,0.1-0.1c0,0,0.1,0,0.1,0.1C20.7,15.2,20.6,15.4,20.5,15.6C20.6,15.6,20.5,15.6,20.5,15.6z M46.7,15.3
		C46.7,15.3,46.7,15.3,46.7,15.3c-0.2-0.2-0.3-0.3-0.4-0.5c0,0,0-0.1,0-0.1c0,0,0.1,0,0.1,0c0.1,0.1,0.3,0.3,0.4,0.5
		C46.8,15.2,46.8,15.2,46.7,15.3C46.7,15.3,46.7,15.3,46.7,15.3z M20.7,14.5C20.7,14.5,20.7,14.5,20.7,14.5
		C20.7,14.5,20.7,14.4,20.7,14.5c0-0.3,0-0.5,0-0.7c0,0,0-0.1,0.1-0.1c0,0,0.1,0,0.1,0.1C20.9,14,20.9,14.2,20.7,14.5
		C20.8,14.4,20.8,14.5,20.7,14.5z M46,14.4C45.9,14.4,45.9,14.4,46,14.4c-0.2-0.2-0.3-0.3-0.5-0.4c0,0,0-0.1,0-0.1c0,0,0.1,0,0.1,0
		c0.1,0.1,0.3,0.3,0.4,0.4C46,14.3,46,14.3,46,14.4C46,14.4,46,14.4,46,14.4z M45.1,13.6C45.1,13.6,45.1,13.6,45.1,13.6
		c-0.2-0.1-0.4-0.3-0.5-0.4c0,0,0-0.1,0-0.1c0,0,0.1,0,0.1,0c0.2,0.1,0.3,0.2,0.5,0.4C45.2,13.5,45.2,13.5,45.1,13.6
		C45.1,13.6,45.1,13.6,45.1,13.6z M20.9,13.3C20.9,13.3,20.8,13.3,20.9,13.3c-0.1-0.3,0-0.5,0-0.7c0,0,0-0.1,0.1-0.1
		c0,0,0.1,0,0.1,0.1C21,12.9,21,13.1,20.9,13.3C21,13.3,20.9,13.3,20.9,13.3z M44.1,12.9C44.1,12.9,44.1,12.9,44.1,12.9
		c-0.2-0.1-0.4-0.2-0.5-0.3c0,0,0-0.1,0-0.1c0,0,0.1,0,0.1,0c0.2,0.1,0.3,0.2,0.5,0.3C44.2,12.8,44.2,12.9,44.1,12.9
		C44.2,12.9,44.2,12.9,44.1,12.9z M43.1,12.3C43.1,12.3,43.1,12.3,43.1,12.3c-0.2-0.1-0.4-0.2-0.6-0.3c0,0-0.1-0.1,0-0.1
		c0,0,0.1-0.1,0.1,0c0.2,0.1,0.4,0.2,0.5,0.3C43.2,12.2,43.2,12.3,43.1,12.3C43.2,12.3,43.2,12.3,43.1,12.3z M21.2,12.3
		c-0.2,0-0.3,0-0.5,0c0,0-0.1,0-0.1-0.1c0,0,0-0.1,0.1-0.1c0.2,0,0.3,0,0.5,0l0.1,0c0,0,0.1,0,0.1,0.1
		C21.4,12.3,21.4,12.3,21.2,12.3L21.2,12.3z M21.9,12.3C21.9,12.3,21.8,12.3,21.9,12.3c-0.1-0.1,0-0.1,0-0.1c0.2,0,0.4,0,0.6,0
		c0,0,0.1,0,0.1,0.1c0,0,0,0.1-0.1,0.1C22.3,12.3,22.1,12.3,21.9,12.3L21.9,12.3z M20.2,12.3C20.2,12.3,20.1,12.3,20.2,12.3
		c-0.2,0-0.4-0.1-0.6-0.1c0,0-0.1,0-0.1-0.1c0,0,0-0.1,0.1-0.1c0.2,0,0.4,0.1,0.6,0.1C20.2,12.1,20.2,12.2,20.2,12.3
		C20.2,12.2,20.2,12.3,20.2,12.3z M23.1,12.2C23,12.2,23,12.2,23.1,12.2c-0.1-0.1-0.1-0.1,0-0.1c0,0,0.4,0,0.6-0.1
		c0,0,0.1,0,0.1,0.1c0,0,0,0.1-0.1,0.1C23.5,12.2,23.3,12.2,23.1,12.2C23.1,12.2,23.1,12.2,23.1,12.2z M21,12.1
		C20.9,12.1,20.9,12.1,21,12.1c-0.1-0.2-0.1-0.4-0.1-0.6l0-0.1c0,0,0-0.1,0.1-0.1c0,0,0.1,0,0.1,0.1l0,0.1
		C21.1,11.8,21.1,11.9,21,12.1C21.1,12.1,21,12.1,21,12.1z M24.2,12.1C24.2,12.1,24.2,12.1,24.2,12.1c-0.1-0.1,0-0.1,0-0.1
		c0.2,0,0.4-0.1,0.6-0.1c0,0,0.1,0,0.1,0.1c0,0,0,0.1-0.1,0.1C24.6,12,24.4,12.1,24.2,12.1C24.2,12.1,24.2,12.1,24.2,12.1z M19,12
		C19,12,19,12,19,12c-0.1,0-0.2-0.1-0.3-0.1c-0.1,0-0.2-0.1-0.3-0.1c0,0-0.1-0.1,0-0.1c0,0,0.1-0.1,0.1,0c0.1,0,0.2,0.1,0.3,0.1
		c0.1,0,0.2,0.1,0.2,0.1C19.1,11.9,19.1,11.9,19,12C19.1,12,19,12,19,12z M25.4,11.9C25.3,11.9,25.3,11.9,25.4,11.9
		c-0.1-0.1-0.1-0.1,0-0.1c0.2,0,0.4-0.1,0.6-0.1c0,0,0.1,0,0.1,0.1c0,0,0,0.1-0.1,0.1C25.8,11.9,25.6,11.9,25.4,11.9
		C25.4,11.9,25.4,11.9,25.4,11.9z M42.1,11.9C42.1,11.9,42,11.9,42.1,11.9c-0.2-0.1-0.4-0.1-0.6-0.2c0,0-0.1-0.1,0-0.1
		c0,0,0.1-0.1,0.1,0c0.2,0.1,0.4,0.1,0.5,0.2C42.1,11.7,42.1,11.8,42.1,11.9C42.1,11.8,42.1,11.9,42.1,11.9z M26.5,11.7
		C26.5,11.7,26.5,11.7,26.5,11.7c-0.1-0.1-0.1-0.1,0-0.1c0.2,0,0.4-0.1,0.6-0.1c0,0,0.1,0,0.1,0.1c0,0,0,0.1-0.1,0.1
		C26.9,11.7,26.7,11.7,26.5,11.7C26.5,11.7,26.5,11.7,26.5,11.7z M17.9,11.6C17.9,11.6,17.9,11.6,17.9,11.6
		c-0.2-0.1-0.4-0.2-0.5-0.3c0,0,0-0.1,0-0.1s0.1,0,0.1,0c0.1,0.1,0.3,0.2,0.5,0.3C18,11.4,18,11.5,17.9,11.6
		C18,11.5,18,11.6,17.9,11.6z M27.7,11.5C27.6,11.5,27.6,11.5,27.7,11.5c-0.1-0.1-0.1-0.1,0-0.1l0.6-0.1c0,0,0.1,0,0.1,0.1
		c0,0,0,0.1-0.1,0.1L27.7,11.5C27.7,11.5,27.7,11.5,27.7,11.5z M41,11.5C41,11.5,41,11.5,41,11.5c-0.2-0.1-0.4-0.1-0.6-0.2
		c0,0-0.1-0.1-0.1-0.1c0,0,0.1-0.1,0.1-0.1c0.2,0.1,0.4,0.1,0.6,0.2C41,11.3,41,11.4,41,11.5C41,11.4,41,11.5,41,11.5z M28.8,11.4
		C28.8,11.4,28.8,11.3,28.8,11.4c-0.1-0.1-0.1-0.1,0-0.1c0.2,0,0.4-0.1,0.6-0.1c0,0,0.1,0,0.1,0.1c0,0,0,0.1-0.1,0.1
		C29.2,11.3,29,11.3,28.8,11.4C28.8,11.4,28.8,11.4,28.8,11.4z M30,11.2C30,11.2,29.9,11.1,30,11.2c-0.1-0.1-0.1-0.1,0-0.1
		c0.2,0,0.4-0.1,0.6-0.1c0,0,0.1,0,0.1,0.1c0,0,0,0.1-0.1,0.1C30.4,11.1,30.2,11.1,30,11.2C30,11.2,30,11.2,30,11.2z M39.8,11.1
		C39.8,11.1,39.8,11.1,39.8,11.1c-0.2,0-0.4-0.1-0.6-0.1c0,0-0.1,0-0.1-0.1c0,0,0-0.1,0.1-0.1c0.2,0,0.4,0.1,0.6,0.1
		C39.9,11,39.9,11.1,39.8,11.1C39.9,11.1,39.9,11.1,39.8,11.1z M31.1,11C31.1,11,31.1,11,31.1,11c-0.1-0.1,0-0.1,0-0.1
		c0.2,0,0.4-0.1,0.6-0.1c0,0,0.1,0,0.1,0.1c0,0,0,0.1-0.1,0.1C31.5,11,31.3,11,31.1,11C31.1,11,31.1,11,31.1,11z M21,11
		C20.9,11,20.9,10.9,21,11c-0.1-0.3-0.1-0.4-0.1-0.7c0,0,0-0.1,0.1-0.1c0,0,0.1,0,0.1,0.1C21,10.5,21,10.7,21,11
		C21,10.9,21,11,21,11L21,11z M38.7,10.9C38.7,10.9,38.7,10.9,38.7,10.9c-0.2,0-0.4-0.1-0.6-0.1c0,0-0.1,0-0.1-0.1
		c0,0,0-0.1,0.1-0.1c0.2,0,0.4,0.1,0.6,0.1C38.7,10.8,38.8,10.8,38.7,10.9C38.8,10.9,38.7,10.9,38.7,10.9z M32.3,10.9
		C32.3,10.9,32.2,10.8,32.3,10.9c-0.1-0.1,0-0.1,0-0.1c0.2,0,0.4,0,0.6-0.1c0,0,0.1,0,0.1,0.1c0,0,0,0.1-0.1,0.1
		C32.7,10.8,32.5,10.8,32.3,10.9C32.3,10.9,32.3,10.9,32.3,10.9z M17,10.8C17,10.8,17,10.8,17,10.8c-0.2-0.2-0.3-0.3-0.4-0.5
		c0,0,0-0.1,0-0.1c0,0,0.1,0,0.1,0c0.1,0.2,0.2,0.3,0.4,0.4C17.1,10.7,17.1,10.8,17,10.8C17.1,10.8,17.1,10.8,17,10.8z M37.5,10.8
		c-0.2,0-0.4,0-0.6,0c0,0-0.1,0-0.1-0.1c0,0,0-0.1,0.1-0.1c0.2,0,0.4,0,0.6,0C37.6,10.6,37.6,10.7,37.5,10.8
		C37.6,10.7,37.6,10.8,37.5,10.8z M33.5,10.8C33.4,10.8,33.4,10.7,33.5,10.8c-0.1-0.1,0-0.1,0-0.1c0.2,0,0.4,0,0.6,0
		c0,0,0.1,0,0.1,0.1c0,0,0,0.1-0.1,0.1C33.9,10.7,33.5,10.8,33.5,10.8z M34.6,10.7C34.6,10.7,34.6,10.7,34.6,10.7
		c-0.1-0.1,0-0.1,0-0.1c0.2,0,0.4,0,0.6,0c0,0,0.1,0,0.1,0.1c0,0,0,0.1-0.1,0.1C35,10.7,34.6,10.7,34.6,10.7z M36.4,10.7
		c-0.1,0-0.5,0-0.6,0c0,0-0.1,0-0.1-0.1c0,0,0-0.1,0.1-0.1c0.1,0,0.5,0,0.6,0C36.4,10.5,36.5,10.6,36.4,10.7
		C36.4,10.6,36.4,10.7,36.4,10.7z M16.4,9.9C16.4,9.9,16.3,9.9,16.4,9.9c-0.2-0.2-0.2-0.4-0.3-0.6c0,0,0-0.1,0.1-0.1
		c0,0,0.1,0,0.1,0.1c0,0.2,0.1,0.4,0.2,0.5C16.5,9.8,16.4,9.9,16.4,9.9C16.4,9.9,16.4,9.9,16.4,9.9z M20.9,9.8
		C20.9,9.8,20.8,9.8,20.9,9.8c-0.1-0.3-0.1-0.5-0.1-0.6c0,0,0-0.1,0.1-0.1c0,0,0.1,0,0.1,0.1C20.9,9.3,21,9.5,20.9,9.8
		C21,9.8,21,9.8,20.9,9.8C20.9,9.8,20.9,9.8,20.9,9.8z M16.1,8.8C16.1,8.8,16,8.7,16.1,8.8C16,8.7,16,8.6,16,8.6
		c0-0.2,0-0.3,0.1-0.5c0,0,0-0.1,0.1-0.1c0,0,0.1,0,0.1,0.1c0,0.2-0.1,0.3-0.1,0.5C16.2,8.6,16.2,8.6,16.1,8.8
		C16.2,8.7,16.1,8.8,16.1,8.8L16.1,8.8z M20.7,8.7C20.7,8.7,20.7,8.6,20.7,8.7c-0.1-0.3-0.2-0.4-0.2-0.6c0,0,0-0.1,0-0.1
		c0,0,0.1,0,0.1,0C20.7,8.2,20.8,8.4,20.7,8.7C20.8,8.6,20.8,8.6,20.7,8.7C20.8,8.7,20.8,8.7,20.7,8.7z M16.3,7.6
		C16.3,7.6,16.3,7.6,16.3,7.6c-0.1,0-0.1-0.1-0.1-0.1c0.1-0.2,0.2-0.4,0.3-0.5c0,0,0.1,0,0.1,0c0,0,0,0.1,0,0.1
		C16.6,7.2,16.5,7.4,16.3,7.6C16.4,7.6,16.4,7.6,16.3,7.6z M20.4,7.6C20.4,7.6,20.3,7.5,20.4,7.6C20.2,7.3,20.1,7.2,20,7
		c0,0,0-0.1,0-0.1c0,0,0.1,0,0.1,0c0.1,0.2,0.2,0.3,0.3,0.5C20.5,7.5,20.5,7.5,20.4,7.6C20.4,7.5,20.4,7.6,20.4,7.6z M17,6.7
		C17,6.7,17,6.7,17,6.7c-0.1-0.1-0.1-0.1,0-0.1c0.2-0.1,0.3-0.2,0.5-0.3c0,0,0.1,0,0.1,0c0,0,0,0.1,0,0.1C17.4,6.4,17.2,6.6,17,6.7
		C17.1,6.7,17,6.7,17,6.7z M19.7,6.6C19.7,6.6,19.7,6.6,19.7,6.6c-0.2-0.1-0.4-0.2-0.5-0.3c0,0-0.1-0.1,0-0.1c0,0,0.1-0.1,0.1,0
		c0.2,0.1,0.4,0.2,0.5,0.3C19.8,6.5,19.8,6.6,19.7,6.6C19.7,6.6,19.7,6.6,19.7,6.6z M18.1,6.2C18,6.2,18,6.2,18.1,6.2
		C18,6.1,18,6,18,6c0.2,0,0.4,0,0.6,0c0,0,0.1,0,0.1,0.1c0,0,0,0.1-0.1,0.1C18.4,6.1,18.3,6.1,18.1,6.2C18.1,6.2,18.1,6.2,18.1,6.2z
		"/>
	<g>
		<path class="st0" d="M12.4,34.2c0.9-0.5,1.4-1.2,1.4-2c0-1.6-2.4-3-5.3-3s-5.3,1.3-5.3,3c0,1.6,2.4,3,5.3,3c1,0,1.8-0.1,2.6-0.4
			c0.7,1.1,2.1,1.2,2.1,1.2C12.5,35.6,12.4,34.7,12.4,34.2z"/>
		<g>
			<path class="st3" d="M5.9,32.2c0-0.1,0-0.1,0-0.2C5.9,32,6,32,6,32c0,0,0.1-0.1,0.1-0.1c0,0,0.1,0,0.2,0c0.1,0,0.1,0,0.2,0
				c0,0,0.1,0,0.1,0.1c0,0,0.1,0.1,0.1,0.1c0,0,0,0.1,0,0.2c0,0.1,0,0.1,0,0.2c0,0,0,0.1-0.1,0.1c0,0-0.1,0.1-0.1,0.1
				c0,0-0.1,0-0.2,0c-0.1,0-0.1,0-0.2,0c0,0-0.1,0-0.1-0.1c0,0-0.1-0.1-0.1-0.1C5.9,32.4,5.9,32.3,5.9,32.2z"/>
			<path class="st3" d="M8.1,32.2c0-0.1,0-0.1,0-0.2c0,0,0-0.1,0.1-0.1c0,0,0.1-0.1,0.1-0.1c0,0,0.1,0,0.2,0c0.1,0,0.1,0,0.2,0
				c0,0,0.1,0,0.1,0.1c0,0,0.1,0.1,0.1,0.1c0,0,0,0.1,0,0.2c0,0.1,0,0.1,0,0.2c0,0,0,0.1-0.1,0.1c0,0-0.1,0.1-0.1,0.1
				c0,0-0.1,0-0.2,0c-0.1,0-0.1,0-0.2,0c0,0-0.1,0-0.1-0.1c0,0-0.1-0.1-0.1-0.1C8.1,32.4,8.1,32.3,8.1,32.2z"/>
			<path class="st3" d="M10.3,32.2c0-0.1,0-0.1,0-0.2c0,0,0-0.1,0.1-0.1c0,0,0.1-0.1,0.1-0.1c0,0,0.1,0,0.2,0c0.1,0,0.1,0,0.2,0
				c0,0,0.1,0,0.1,0.1c0,0,0.1,0.1,0.1,0.1c0,0,0,0.1,0,0.2c0,0.1,0,0.1,0,0.2c0,0,0,0.1-0.1,0.1c0,0-0.1,0.1-0.1,0.1
				c0,0-0.1,0-0.2,0c-0.1,0-0.1,0-0.2,0c0,0-0.1,0-0.1-0.1c0,0-0.1-0.1-0.1-0.1C10.3,32.4,10.3,32.3,10.3,32.2z"/>
		</g>
	</g>
	<g>
		<path class="st0" d="M84.4,23.8c-2.4,0.9-3.6,3.5-2.7,5.9c0.3,0.8,0.8,1.5,1.5,2c0.1,0.4,0.2,1.3-0.6,2.1c0,0,1.4-0.2,1.8-1.4
			c1,0.4,2.1,0.4,3.2,0c2.4-0.9,3.6-3.5,2.7-5.9C89.4,24.2,86.8,22.9,84.4,23.8z"/>
		<path class="st3" d="M89.2,26.7h-6.5c-0.1,0-0.2-0.1-0.2-0.2c0-0.1,0.1-0.2,0.2-0.2h6.5c0.1,0,0.2,0.1,0.2,0.2
			C89.4,26.6,89.3,26.7,89.2,26.7z"/>
		<path class="st3" d="M89.2,27.8h-6.5c-0.1,0-0.2-0.1-0.2-0.2c0-0.1,0.1-0.2,0.2-0.2h6.5c0.1,0,0.2,0.1,0.2,0.2
			C89.4,27.7,89.3,27.8,89.2,27.8z"/>
		<path class="st3" d="M89.2,28.8h-6.5c-0.1,0-0.2-0.1-0.2-0.2c0-0.1,0.1-0.2,0.2-0.2h6.5c0.1,0,0.2,0.1,0.2,0.2
			C89.4,28.8,89.3,28.8,89.2,28.8z"/>
		<path class="st3" d="M86.7,29.9h-3.9c-0.1,0-0.2-0.1-0.2-0.2c0-0.1,0.1-0.2,0.2-0.2h3.9c0.1,0,0.2,0.1,0.2,0.2
			C86.8,29.8,86.8,29.9,86.7,29.9z"/>
	</g>
</g>
<g>
	<path id="XMLID_15_" class="st4" d="M82,45.5c-0.3-1.5,0.6-3,0.1-4.4c-0.4-0.9-1.3-1.4-2.2-1c-1.2,0.5-1.5,1.7-1.8,2.9
		c-0.2,0.8-0.4,1.5-1,2.2c-0.5,0.5-1.1,1-1.6,1.5c-0.9,0.9-1.4,1.8-1.5,3.1c-0.2,1.4,0,3-1,4.1c-0.8,0.9-2.2,1.3-2.6,2.6
		c-0.4,1.4,0.8,3.3-0.5,4.3c-0.5,0.5-1.2,0.7-1.7,1.2c-0.4,0.4-0.6,0.9-0.8,1.5c-0.3,1.2-0.2,2.4,0.5,3.4c0,0,0.1,0.1,0.1,0.1
		c0.6,1.1,1.3,2.1,2.3,2.7c1,0.5,2.2,0.7,3.1,0c1.6-1.1,1.5-3.4,2.5-4.9c0.4-0.5,0.8-0.8,1.5-1c0.7-0.1,1.4,0,2.1-0.3
		c1-0.4,1.4-1.5,1.5-2.5c0.2-1.5-0.4-3.1,0.1-4.6c0.5-1.3,1.7-2.2,2.2-3.5C84.5,50.4,82.4,47.9,82,45.5z"/>
	<path id="XMLID_14_" class="st5" d="M76.8,55.1c-1.8-0.8-5.3,2.5-6.8,6.1l1-5.5c0.6-0.7,1.6-1.7,3.3-2.7c2.7-1.5,5.2-3.5,3.5-4.4
		c-1.7-0.8-4.9,2.1-6.5,5.5l1.2-7c0.4-0.4,1-0.9,1.9-1.4c1.7-0.9,3.3-2.2,2.2-2.7c-1-0.4-2.8,1.1-3.9,3l0.4-2.3
		c0.2-0.7,0.6-1.7,1.2-2.6c1.5-2.2,2.5-4.5,1.1-4.6c-1.5-0.1-3.1,4-2.9,7.4l-0.2,1.2c-0.1-2.5-1.5-5.3-2.7-5.2
		c-1.2,0.1-0.1,1.9,1.1,3.3c1,1.1,1.3,2.1,1.5,2.6l-1,5.5c-0.2-3.9-2.3-8.3-4.3-8.2c-1.9,0.2-0.2,3,1.8,5.3c1.5,1.7,2.1,3.2,2.3,4
		l-1.2,6.6c-0.2-3.9-2.4-8.2-4.3-7.9c-1.5,0.2-0.7,2.2,1.6,4.8c1.5,1.8,2.2,3.5,2.5,4.4L69,63.6c0.2,0.1,0.4,0.1,0.6,0.1l0.2-1.2
		c0.5-0.7,1.6-1.9,3.6-3C76,58,78.6,56,76.8,55.1z"/>
	<g id="XMLID_13_">
		<path class="st6" d="M80.5,69.5c-1-1.4-5-0.4-7.8,1.6l3.1-3.6c0.7-0.3,1.9-0.6,3.6-0.5c2.6,0.1,5.5-0.3,4.5-1.7
			c-0.9-1.3-4.6-0.6-7.3,1.2l4-4.7c0.5-0.1,1.1-0.3,2-0.2c1.7,0,3.4-0.2,2.8-1.1c-0.5-0.8-2.5-0.4-4.2,0.5l1.3-1.5
			c0.5-0.4,1.2-1,2.1-1.4c2.1-1,3.9-2.3,2.8-3c-1.1-0.7-4.1,1.6-5.4,4.2l-0.7,0.8c1-1.9,1.2-4.6,0.3-5c-1-0.5-0.9,1.3-0.6,3
			c0.2,1.2,0.1,2.1,0,2.5L78,64.2c1.6-3,1.9-7.2,0.4-8c-1.5-0.7-1.5,2.1-1,4.7c0.4,2,0.1,3.3,0,4l-3.8,4.4c1.5-3,1.9-7.2,0.3-7.8
			c-1.2-0.5-1.5,1.4-1,4.3c0.3,2,0.1,3.6-0.1,4.4L71,72.4c0.1,0.2,0.2,0.3,0.4,0.3l0.7-0.8c0.7-0.3,2-0.7,3.9-0.6
			C78.7,71.3,81.5,70.9,80.5,69.5z"/>
	</g>
</g>
<path class="st0" d="M70.7,14c0.3-1.2,1.3-2,2.6-2c0.2,0,0.5,0,0.7,0.1c0.6-1.3,2-2.2,3.5-2.2c0.4,0,0.8,0.1,1.2,0.2
	c0.8-1.4,2.4-2.3,4.1-2.3c2.1,0,3.8,1.3,4.5,3.1c0.5-0.3,1-0.4,1.6-0.4c1.8,0,3.3,1.5,3.3,3.3c0,0.1,0,0.2,0,0.3H70.7z"/>
<g>
	<g>
		<g>
			<g>
				<g>
					<g>
						<g>
							<g>
								<path class="st7" d="M36.5,49c0.5,0.6,1,1.2,1.3,1.9l2.1,0l0.8,3.4l-1.9,0.9c0,0.8-0.1,1.5-0.4,2.3l1.5,1.5l-1.9,3l-2-0.7
									c-0.6,0.5-1.2,1-1.9,1.3l0,2.1l-3.4,0.8l-0.9-1.9c-0.8,0-1.5-0.1-2.3-0.4l-1.5,1.5l-3-1.9l0.7-2c-0.5-0.6-1-1.2-1.3-1.9
									l-2.1,0l-0.8-3.4l1.9-0.9c0-0.8,0.1-1.5,0.4-2.3l-1.5-1.5l1.9-3l2,0.7c0.6-0.5,1.2-1,1.9-1.3l0-2.1l3.4-0.8l0.9,1.9
									c0.8,0,1.5,0.1,2.3,0.4l1.5-1.5l3,1.9L36.5,49L36.5,49z M32.3,51.8c-1.8-1.1-4.1-0.6-5.2,1.2c-1.1,1.8-0.6,4.1,1.2,5.2
									c1.8,1.1,4.1,0.6,5.2-1.2C34.6,55.2,34,52.9,32.3,51.8z"/>
							</g>
						</g>
					</g>
				</g>
			</g>
		</g>
		<g>
			<g>
				<g>
					<g>
						<g>
							<g>
								<path class="st7" d="M38.5,34.6c0.3,0.3,0.5,0.7,0.7,1l1.2,0l0.4,1.9L39.8,38c0,0.4-0.1,0.8-0.2,1.3l0.8,0.8l-1,1.6
									l-1.1-0.4c-0.3,0.3-0.7,0.5-1,0.7l0,1.2l-1.9,0.4l-0.5-1.1c-0.4,0-0.8-0.1-1.3-0.2l-0.8,0.8l-1.6-1l0.4-1.1
									c-0.3-0.3-0.5-0.7-0.7-1l-1.2,0l-0.4-1.9l1.1-0.5c0-0.4,0.1-0.8,0.2-1.3l-0.8-0.8l1-1.6l1.1,0.4c0.3-0.3,0.7-0.5,1-0.7
									l0-1.2l1.9-0.4l0.5,1.1c0.4,0,0.8,0.1,1.3,0.2l0.8-0.8l1.6,1L38.5,34.6L38.5,34.6z M36.2,36.1c-1-0.6-2.3-0.3-2.9,0.7
									c-0.6,1-0.3,2.3,0.7,2.9c1,0.6,2.3,0.3,2.9-0.7C37.5,38,37.2,36.7,36.2,36.1z"/>
							</g>
						</g>
					</g>
				</g>
			</g>
		</g>
		<g>
			<g>
				<g>
					<g>
						<g>
							<g>
								<g>
									<path class="st8" d="M23.9,36.8c0.2,0.3,0.4,0.5,0.6,0.8l1,0l0.4,1.5L25,39.6c0,0.3-0.1,0.7-0.2,1l0.7,0.7l-0.8,1.3
										l-0.9-0.3c-0.3,0.2-0.5,0.4-0.8,0.6l0,1l-1.5,0.4L21,43.4c-0.3,0-0.7-0.1-1-0.2l-0.7,0.7L17.9,43l0.3-0.9
										c-0.2-0.3-0.4-0.5-0.6-0.8l-1,0l-0.4-1.5l0.9-0.4c0-0.3,0.1-0.7,0.2-1l-0.7-0.7l0.8-1.3l0.9,0.3c0.3-0.2,0.5-0.4,0.8-0.6
										l0-1l1.5-0.4l0.4,0.9c0.3,0,0.7,0.1,1,0.2l0.7-0.7l1.3,0.8L23.9,36.8L23.9,36.8z M22,38.1c-0.8-0.5-1.8-0.3-2.3,0.5
										c-0.5,0.8-0.3,1.8,0.5,2.3c0.8,0.5,1.8,0.3,2.3-0.5C23.1,39.6,22.8,38.6,22,38.1z"/>
								</g>
								<g>
									<g>
										<path class="st9" d="M22,38.1C22,38.1,22.1,38.1,22,38.1c0.2,0.1,0.2,0.2,0.3,0.2c0.2,0.2,0.4,0.5,0.5,1
											c0,0.2,0,0.5-0.1,0.8c-0.1,0.3-0.3,0.5-0.5,0.7c-0.1,0.1-0.3,0.2-0.4,0.2c-0.2,0.1-0.3,0.1-0.5,0.1
											c-0.4,0-0.7-0.1-1.1-0.3c-0.3-0.2-0.6-0.5-0.7-0.8c-0.1-0.2-0.1-0.3-0.1-0.5c0-0.2,0-0.3,0-0.5c0.1-0.3,0.2-0.6,0.4-0.8
											c0.2-0.2,0.4-0.4,0.7-0.4c0.5-0.2,0.9-0.1,1.1,0C21.8,37.9,21.9,38,22,38.1C22,38.1,22,38.1,22,38.1c0,0-0.1-0.1-0.4-0.2
											c-0.2-0.1-0.7-0.1-1.1,0c-0.2,0.1-0.4,0.2-0.6,0.4c-0.2,0.2-0.3,0.5-0.4,0.8c0,0.2,0,0.3,0,0.5c0,0.2,0,0.3,0.1,0.5
											c0.1,0.3,0.4,0.6,0.7,0.8c0.3,0.2,0.7,0.3,1,0.2c0.2,0,0.3,0,0.5-0.1c0.2-0.1,0.3-0.1,0.4-0.2c0.2-0.2,0.4-0.4,0.5-0.7
											c0.1-0.3,0.1-0.5,0.1-0.8c0-0.5-0.3-0.8-0.4-1C22.2,38.2,22,38.1,22,38.1z"/>
									</g>
								</g>
								<g>
									<g>
										<path class="st9" d="M23.9,36.8C23.9,36.8,23.9,36.8,23.9,36.8c0-0.1,0-0.2,0.1-0.2c0.1-0.2,0.1-0.4,0.2-0.7l0,0
											c-0.3-0.2-0.8-0.5-1.3-0.8l0,0c-0.2,0.2-0.4,0.4-0.7,0.7l0,0l0,0c-0.3-0.1-0.6-0.2-1-0.2l0,0l0,0
											c-0.1-0.3-0.3-0.6-0.4-0.9l0,0c-0.5,0.1-1,0.2-1.5,0.4l0,0c0,0.3,0,0.6,0,1l0,0l0,0c-0.3,0.1-0.6,0.3-0.8,0.6l0,0l0,0
											c-0.3-0.1-0.6-0.2-0.9-0.3l0.1,0c-0.3,0.4-0.5,0.9-0.8,1.3l0-0.1c0.2,0.2,0.4,0.4,0.7,0.7l0,0l0,0c-0.1,0.3-0.2,0.6-0.2,1
											l0,0l0,0c-0.3,0.1-0.6,0.3-0.9,0.4l0-0.1c0.1,0.5,0.2,1,0.4,1.5l-0.1,0c0.3,0,0.6,0,1,0l0,0l0,0c0.2,0.3,0.3,0.6,0.6,0.8
											l0,0l0,0c0,0,0-0.1,0,0.1l0,0l0,0l0,0l0,0l0,0l0,0l0,0.1l0,0.1l-0.1,0.2C18.1,42.7,18,42.9,18,43l0-0.1
											c0.5,0.3,0.9,0.6,1.3,0.8l-0.1,0c0.2-0.2,0.4-0.5,0.7-0.7l0,0l0,0c0.3,0.1,0.7,0.2,1,0.2l0,0l0,0c0.1,0.3,0.3,0.6,0.4,0.9
											l-0.1,0c0.5-0.1,1-0.2,1.5-0.4l0,0c0-0.3,0-0.6,0-1l0,0l0,0c0.3-0.2,0.6-0.4,0.8-0.6l0,0l0,0c0.3,0.1,0.6,0.2,0.9,0.3
											l-0.1,0c0.3-0.5,0.6-0.9,0.8-1.3l0,0.1c-0.2-0.2-0.5-0.5-0.7-0.7l0,0l0,0c0.1-0.3,0.2-0.7,0.2-1l0,0l0,0
											c0.3-0.1,0.6-0.3,0.9-0.4l0,0c-0.1-0.6-0.2-1.1-0.3-1.5l0,0c-0.4,0-0.7,0-1,0l0,0l0,0c-0.2-0.3-0.3-0.5-0.4-0.6
											C24,37,24,36.9,23.9,36.8C23.9,36.8,23.9,36.8,23.9,36.8C23.9,36.8,23.9,36.8,23.9,36.8c0.1,0.1,0.1,0.1,0.2,0.2
											c0.1,0.1,0.3,0.3,0.4,0.6l0,0c0.3,0,0.6,0,1,0l0,0l0,0c0.1,0.4,0.2,0.9,0.4,1.5l0,0l0,0c-0.3,0.1-0.5,0.3-0.9,0.4l0,0
											c0,0.3-0.1,0.7-0.2,1l0,0c0.2,0.2,0.4,0.4,0.7,0.7l0,0l0,0c-0.3,0.4-0.5,0.9-0.8,1.3l0,0l0,0c-0.3-0.1-0.6-0.2-0.9-0.3
											l0,0c-0.2,0.2-0.5,0.4-0.8,0.6l0,0c0,0.3,0,0.6,0,1l0,0l0,0c-0.5,0.1-1,0.2-1.5,0.4l0,0l0,0c-0.1-0.3-0.3-0.6-0.4-0.9l0,0
											c-0.3,0-0.7-0.1-1-0.2l0.1,0c-0.2,0.2-0.4,0.4-0.7,0.7l0,0l0,0c-0.4-0.3-0.9-0.6-1.3-0.8l0,0l0,0c0.1-0.1,0.1-0.3,0.2-0.4
											l0.1-0.2l0-0.1l0-0.1l0,0l0,0l0,0l0,0l0,0l0,0c0,0.1,0,0,0,0.1l0,0l0,0c-0.2-0.3-0.4-0.6-0.6-0.8l0,0c-0.3,0-0.7,0-1,0
											l0,0l0,0c-0.1-0.5-0.2-1-0.4-1.5l0,0l0,0c0.3-0.1,0.6-0.3,0.9-0.4l0,0c0-0.4,0.1-0.7,0.2-1l0,0.1
											c-0.2-0.2-0.5-0.5-0.7-0.7l0,0l0,0c0.3-0.5,0.6-0.9,0.8-1.3l0,0l0,0c0.3,0.1,0.6,0.2,0.9,0.3l0,0c0.3-0.2,0.6-0.5,0.8-0.6
											l0,0c0-0.3,0-0.7,0-1l0,0l0,0c0.5-0.1,1.1-0.2,1.5-0.4l0,0l0,0c0.1,0.3,0.3,0.6,0.4,0.9l0,0c0.4,0,0.7,0.1,1,0.2l0,0
											c0.2-0.2,0.5-0.5,0.7-0.7l0,0l0,0c0.5,0.3,1,0.6,1.3,0.8l0,0l0,0c-0.1,0.3-0.2,0.5-0.2,0.7C24,36.7,24,36.7,23.9,36.8
											C23.9,36.8,23.9,36.8,23.9,36.8z"/>
									</g>
								</g>
							</g>
						</g>
					</g>
				</g>
			</g>
		</g>
	</g>
</g>
<g>
	<g>
		<g>
			<g>
				<g>
					<g>
						<g>
							<g>
								<path class="st7" d="M53.6,60c-0.4,0-0.8,0.1-1.2,0.2l-0.8-0.8l-1.6,1l0.4,1.1c-0.3,0.3-0.5,0.6-0.7,1l-1.1,0l-0.4,1.8
									l1,0.5c0,0.4,0.1,0.8,0.2,1.2l-0.8,0.8l1,1.6l1.1-0.4c0.3,0.3,0.6,0.5,1,0.7l0,1.1l1.8,0.4l0.5-1c0.4,0,0.8-0.1,1.2-0.2
									l0.8,0.8l1.6-1l-0.4-1.1c0.3-0.3,0.5-0.6,0.7-1l1.1,0l0.4-1.8l-1-0.5c0-0.4-0.1-0.8-0.2-1.2l0.8-0.8l-1-1.6l-1.1,0.4
									c-0.3-0.3-0.6-0.5-1-0.7l0-1.1L54,58.9L53.6,60L53.6,60z M54.2,62.6c1.1,0.2,1.8,1.3,1.6,2.4c-0.2,1.1-1.3,1.8-2.4,1.6
									c-1.1-0.2-1.8-1.3-1.6-2.4C52,63.1,53.1,62.4,54.2,62.6z"/>
							</g>
						</g>
					</g>
				</g>
			</g>
		</g>
		<g>
			<g>
				<g>
					<g>
						<g>
							<g>
								<path class="st7" d="M58,53.6c-0.2,0-0.5,0.1-0.7,0.1l-0.5-0.4l-0.9,0.6l0.2,0.6c-0.1,0.2-0.3,0.4-0.4,0.6l-0.6,0l-0.2,1
									l0.6,0.3c0,0.2,0.1,0.5,0.1,0.7l-0.4,0.5l0.6,0.9l0.6-0.2c0.2,0.1,0.4,0.3,0.6,0.4l0,0.6l1,0.2l0.3-0.6
									c0.2,0,0.5-0.1,0.7-0.1l0.5,0.4l0.9-0.6l-0.2-0.6c0.1-0.2,0.3-0.4,0.4-0.6l0.6,0l0.2-1L60.8,56c0-0.2-0.1-0.5-0.1-0.7
									l0.4-0.5L60.5,54l-0.6,0.2c-0.2-0.1-0.4-0.3-0.6-0.4l0-0.6l-1-0.2L58,53.6L58,53.6z M58.4,55c0.6,0.1,1,0.7,0.9,1.3
									c-0.1,0.6-0.7,1-1.3,0.9c-0.6-0.1-1-0.7-0.9-1.3C57.2,55.3,57.8,54.9,58.4,55z"/>
							</g>
						</g>
					</g>
				</g>
			</g>
		</g>
		<g>
			<g>
				<g>
					<g>
						<g>
							<g>
								<g>
									<path class="st8" d="M62.9,59.8c-0.2,0-0.4,0-0.5,0.1L62,59.6L61.3,60l0.2,0.5c-0.1,0.1-0.2,0.3-0.3,0.5l-0.5,0l-0.2,0.8
										L61,62c0,0.2,0,0.4,0.1,0.5l-0.4,0.4l0.5,0.7l0.5-0.2c0.1,0.1,0.3,0.2,0.5,0.3l0,0.5l0.8,0.2l0.2-0.5c0.2,0,0.4,0,0.5-0.1
										l0.4,0.4l0.7-0.5l-0.2-0.5c0.1-0.1,0.2-0.3,0.3-0.5l0.5,0l0.2-0.8l-0.5-0.2c0-0.2,0-0.4-0.1-0.5l0.4-0.4l-0.5-0.7l-0.5,0.2
										c-0.1-0.1-0.3-0.2-0.5-0.3l0-0.5l-0.8-0.2L62.9,59.8L62.9,59.8z M63.2,61c0.5,0.1,0.8,0.6,0.7,1.1
										c-0.1,0.5-0.6,0.8-1.1,0.7c-0.5-0.1-0.8-0.6-0.7-1.1C62.2,61.2,62.7,60.9,63.2,61z"/>
								</g>
								<g>
									<g>
										<path class="st9" d="M63.2,61C63.2,61,63.2,61,63.2,61c-0.1,0-0.2,0-0.2,0c-0.1,0-0.4,0-0.6,0.2c-0.1,0.1-0.2,0.2-0.2,0.3
											c-0.1,0.1-0.1,0.3-0.1,0.5c0,0.1,0,0.2,0.1,0.3c0,0.1,0.1,0.2,0.2,0.2c0.1,0.1,0.3,0.2,0.5,0.3c0.2,0,0.4,0,0.6-0.1
											c0.1,0,0.2-0.1,0.2-0.2c0.1-0.1,0.1-0.1,0.2-0.2c0.1-0.1,0.1-0.3,0.1-0.5c0-0.2,0-0.3-0.1-0.4c-0.1-0.2-0.3-0.4-0.4-0.4
											C63.3,61,63.3,61,63.2,61C63.2,61,63.2,61,63.2,61c0,0,0.1,0,0.2,0.1c0.1,0.1,0.3,0.2,0.4,0.4c0.1,0.1,0.1,0.2,0.1,0.4
											c0,0.1,0,0.3-0.1,0.4c0,0.1-0.1,0.1-0.2,0.2c-0.1,0.1-0.1,0.1-0.2,0.1c-0.2,0.1-0.4,0.1-0.5,0.1c-0.2,0-0.4-0.1-0.5-0.3
											c-0.1-0.1-0.1-0.1-0.1-0.2c0-0.1-0.1-0.2-0.1-0.2c0-0.2,0-0.3,0.1-0.5c0.1-0.1,0.1-0.2,0.2-0.3c0.2-0.2,0.4-0.2,0.5-0.2
											C63.1,61,63.2,61,63.2,61z"/>
									</g>
								</g>
								<g>
									<g>
										<path class="st9" d="M62.9,59.8C62.9,59.8,62.9,59.8,62.9,59.8c0,0,0-0.1,0.1-0.1c0-0.1,0.1-0.2,0.2-0.3l0,0
											c0.2,0,0.5,0.1,0.8,0.2l0,0c0,0.2,0,0.3,0,0.5l0,0l0,0c0.2,0.1,0.3,0.2,0.5,0.3l0,0l0,0c0.1-0.1,0.3-0.1,0.5-0.2l0,0
											c0.1,0.2,0.3,0.5,0.5,0.7l0,0c-0.1,0.1-0.2,0.2-0.4,0.4l0,0l0,0c0.1,0.2,0.1,0.3,0.1,0.5l0,0l0,0c0.1,0.1,0.3,0.1,0.5,0.2
											l0,0c-0.1,0.3-0.1,0.5-0.2,0.8l0,0c-0.2,0-0.3,0-0.5,0l0,0l0,0c-0.1,0.2-0.2,0.3-0.3,0.5l0,0l0,0c0.1,0.1,0.1,0.3,0.2,0.5
											l0,0c-0.2,0.1-0.5,0.3-0.7,0.5l0,0c-0.1-0.1-0.2-0.2-0.4-0.4l0,0l0,0c-0.2,0.1-0.3,0.1-0.5,0.1l0,0l0,0c0,0,0,0,0,0l0,0
											l0,0l0,0l0,0l0,0l0,0l0,0l0,0.1l-0.1,0.1c0,0.1-0.1,0.2-0.1,0.2l0,0c-0.3-0.1-0.6-0.1-0.8-0.2l0,0c0-0.2,0-0.3,0-0.5l0,0
											l0,0c-0.2-0.1-0.3-0.2-0.5-0.3l0,0l0,0c-0.2,0.1-0.3,0.1-0.5,0.2l0,0c-0.2-0.2-0.3-0.5-0.5-0.7l0,0
											c0.1-0.1,0.2-0.2,0.4-0.4l0,0l0,0C61.1,62.4,61,62.2,61,62l0,0l0,0c-0.2-0.1-0.3-0.1-0.5-0.2l0,0c0.1-0.3,0.1-0.6,0.2-0.8
											l0,0c0.2,0,0.3,0,0.5,0l0,0l0,0c0.1-0.2,0.2-0.3,0.3-0.5l0,0l0,0c-0.1-0.2-0.1-0.3-0.2-0.5l0,0c0.3-0.2,0.5-0.3,0.7-0.5
											l0,0c0.1,0.1,0.3,0.3,0.4,0.3l0,0l0,0c0.2-0.1,0.3-0.1,0.4-0.1C62.8,59.8,62.9,59.8,62.9,59.8
											C62.9,59.8,62.9,59.8,62.9,59.8C62.9,59.8,62.9,59.8,62.9,59.8c-0.1,0-0.1,0-0.1,0c-0.1,0-0.2,0-0.4,0.1l0,0
											c-0.1-0.1-0.2-0.2-0.4-0.4l0,0l0,0c-0.2,0.1-0.4,0.3-0.7,0.5l0,0l0,0c0.1,0.1,0.1,0.3,0.2,0.5l0,0
											c-0.1,0.1-0.2,0.3-0.3,0.5l0,0c-0.2,0-0.3,0-0.5,0l0,0l0,0c-0.1,0.3-0.1,0.5-0.2,0.8l0,0l0,0c0.2,0.1,0.3,0.1,0.5,0.2l0,0
											c0,0.2,0,0.4,0.1,0.5l0,0c-0.1,0.1-0.2,0.2-0.4,0.4l0,0l0,0c0.2,0.2,0.3,0.5,0.5,0.7l0,0l0,0c0.2-0.1,0.3-0.1,0.5-0.2l0,0
											c0.1,0.1,0.3,0.2,0.5,0.3l0,0c0,0.2,0,0.3,0,0.5l0,0l0,0c0.3,0.1,0.5,0.1,0.8,0.2l0,0l0,0c0-0.1,0.1-0.2,0.1-0.2l0.1-0.1
											l0-0.1l0,0l0,0l0,0l0,0l0,0l0,0l0,0c0,0,0,0,0,0l0,0l0,0c0.2,0,0.4-0.1,0.5-0.1l0,0c0.1,0.1,0.3,0.2,0.4,0.4l0,0l0,0
											c0.2-0.2,0.5-0.3,0.7-0.5l0,0l0,0c-0.1-0.2-0.1-0.3-0.2-0.5l0,0c0.1-0.1,0.2-0.3,0.3-0.5l0,0c0.2,0,0.4,0,0.5,0l0,0l0,0
											c0.1-0.3,0.1-0.6,0.2-0.8l0,0l0,0c-0.2-0.1-0.3-0.1-0.5-0.2l0,0c0-0.2-0.1-0.4-0.1-0.5l0,0c0.1-0.1,0.2-0.3,0.4-0.4l0,0
											l0,0c-0.2-0.2-0.3-0.5-0.5-0.7l0,0l0,0c-0.2,0.1-0.3,0.1-0.5,0.2l0,0c-0.1-0.1-0.3-0.2-0.5-0.3l0,0c0-0.2,0-0.4,0-0.5l0,0
											l0,0c-0.3-0.1-0.6-0.1-0.8-0.2l0,0l0,0c-0.1,0.2-0.1,0.3-0.1,0.3C63,59.7,62.9,59.8,62.9,59.8
											C62.9,59.8,62.9,59.8,62.9,59.8z"/>
									</g>
								</g>
							</g>
						</g>
					</g>
				</g>
			</g>
		</g>
	</g>
</g>
<g>
	<g>
		<path class="st2" d="M55.3,31.6c-0.1-1.5-0.4-2.8-0.9-3.9c-0.5-1.1-1.2-2-2.1-2.8c-0.9-0.7-1.9-1.3-3-1.6c-1-0.3-2.1-0.4-3.3-0.3
			c0,0,0,0,0,0c-0.2,0-0.4,0-0.6,0c-1.3,0.1-2.5,0.4-3.6,0.9c-1.1,0.5-2,1.1-2.8,2C38,26.7,37.4,27.8,37,29
			c-0.1,0.4-0.2,0.8-0.3,1.2c-0.3,1.5,0.8,2.8,2.2,3c0.2,0,0.3,0,0.5,0l1.6-0.1c1.1-0.1,2.1-0.9,2.4-2l0,0c0.1-0.5,0.3-1,0.5-1.3
			c0.2-0.4,0.5-0.6,0.8-0.8c0.3-0.1,0.5-0.2,0.8-0.3c0,0,0.1,0,0.1,0c1.7-0.1,2.7,1.1,2.9,3.8c0,0.6,0,1.1-0.1,1.6
			c-0.1,0.5-0.3,1-0.5,1.5c-0.2,0.5-0.5,1-0.8,1.4c-0.3,0.5-0.7,1-1.1,1.5c-0.5,0.6-1,1.3-1.3,1.9c-0.3,0.6-0.6,1.3-0.8,2.1
			c-0.2,0.7-0.3,1.5-0.3,2.4c0,0.3,0,0.5,0,0.8c0,0.9,0.7,1.7,1.6,1.9c0.1,0,0.3,0,0.5,0l2.2-0.2c1-0.1,1.7-0.9,1.8-1.8c0,0,0,0,0,0
			c0-0.5,0.1-1,0.2-1.5c0.1-0.5,0.2-0.9,0.4-1.3c0.2-0.4,0.4-0.9,0.8-1.3c0.6-0.8,1.1-1.5,1.7-2.2c0.5-0.7,1-1.5,1.4-2.3
			c0.4-0.8,0.7-1.6,0.9-2.4C55.3,33.6,55.3,32.7,55.3,31.6z M38.6,31.5C38.6,31.5,38.6,31.6,38.6,31.5c-0.5,0.3-0.9-0.1-1.1-0.5
			c-0.4-0.6-0.4-1.3-0.2-1.9c0.2-0.8,0.6-1.4,1.1-2c0.6-0.7,1.2-1.4,1.9-1.9c0.1-0.1,0.3,0.1,0.2,0.2c-0.7,1-1.7,1.7-2.4,2.8
			c-0.3,0.6-0.6,1.2-0.5,1.9C37.7,30.8,38,31.1,38.6,31.5z M50.6,53c-0.2-0.4-0.5-0.8-0.8-1.1c-0.3-0.3-0.7-0.5-1.2-0.7
			C48.1,51,47.6,51,47,51c0,0,0,0,0,0c-0.6,0-1,0.2-1.5,0.4c-0.4,0.2-0.8,0.5-1.1,0.9c-0.3,0.3-0.5,0.7-0.6,1.2
			c-0.1,0.5-0.2,0.9-0.1,1.5c0,0.5,0.2,1,0.4,1.4c0.2,0.4,0.5,0.8,0.8,1.1c0.3,0.3,0.7,0.5,1.2,0.7c0.2,0.1,0.5,0.1,0.8,0.2
			c0.2,0,0.5,0,0.7,0c0.6,0,1.1-0.2,1.5-0.4c0.4-0.2,0.8-0.5,1.1-0.9c0.3-0.3,0.5-0.8,0.6-1.2c0.1-0.5,0.2-0.9,0.1-1.5
			C50.9,53.9,50.8,53.4,50.6,53z M45.6,56.8c-2.3-0.3-2.3-4.4-0.1-4.9c0.1,0,0.1,0.1,0.1,0.2c-0.8,0.6-1.2,1.3-1.2,2.3
			c0,1,0.6,1.6,1.4,2.1C45.8,56.6,45.8,56.8,45.6,56.8z"/>
		<path class="st10" d="M54.5,31.6c-0.1-1.5-0.4-2.8-0.9-3.9c-0.5-1.1-1.2-2-2.1-2.8c-0.9-0.7-1.9-1.3-3-1.6
			c-0.8-0.2-1.7-0.3-2.6-0.3c0,0,0,0,0,0c-0.4,0-0.9,0-1.3,0c-1.3,0.1-2.5,0.4-3.6,0.9c-1.1,0.5-2,1.1-2.8,2
			c-0.8,0.8-1.4,1.9-1.8,3.2c-0.1,0.4-0.2,0.8-0.3,1.2c-0.3,1.6,1.1,3.1,2.7,3l0.2,0l1.4-0.1c1.1-0.1,2.1-0.9,2.4-2v0
			c0.1-0.5,0.3-1,0.5-1.3c0.2-0.4,0.5-0.6,0.8-0.8c0.3-0.2,0.6-0.3,0.9-0.3c0.2,0,0.4,0,0.6,0c1.3,0.2,2.1,1.4,2.3,3.7
			c0,0.6,0,1.1-0.1,1.6c-0.1,0.5-0.3,1-0.5,1.5c-0.2,0.5-0.5,1-0.8,1.4c-0.3,0.5-0.7,1-1.1,1.5c-0.5,0.6-1,1.3-1.3,1.9
			c-0.3,0.6-0.6,1.3-0.8,2.1c-0.2,0.7-0.3,1.5-0.3,2.4c0,0.3,0,0.5,0,0.8c0,1.1,0.9,2,2,1.9l0.3,0l1.9-0.1c1-0.1,1.7-0.9,1.8-1.8
			c0,0,0,0,0,0c0-0.5,0.1-1,0.2-1.5c0.1-0.5,0.2-0.9,0.4-1.3c0.2-0.4,0.4-0.9,0.8-1.3c0.6-0.8,1.1-1.5,1.7-2.2
			c0.5-0.7,1-1.5,1.4-2.3c0.4-0.8,0.7-1.6,0.9-2.4C54.5,33.6,54.6,32.7,54.5,31.6z M40.5,25.4c-0.7,1-1.7,1.7-2.4,2.8
			c-0.3,0.6-0.6,1.2-0.5,1.9c0.1,0.7,0.4,1,1,1.4c0,0,0,0.1,0,0.1c-0.4,0.2-0.9-0.2-1.1-0.6c-0.4-0.6-0.4-1.3-0.2-1.9
			c0.2-0.8,0.6-1.4,1.1-2c0.6-0.7,1.2-1.4,1.9-1.9C40.4,25.1,40.6,25.3,40.5,25.4z M49.9,53c-0.2-0.4-0.5-0.8-0.8-1.1
			c-0.3-0.3-0.7-0.5-1.2-0.7C47.6,51.1,47.3,51,47,51c0,0,0,0,0,0c-0.2,0-0.5,0-0.7,0c-0.5,0-1,0.2-1.5,0.4
			c-0.4,0.2-0.8,0.5-1.1,0.9c-0.3,0.3-0.5,0.7-0.6,1.2c-0.1,0.5-0.2,0.9-0.2,1.5c0,0.5,0.2,1,0.4,1.4c0.2,0.4,0.5,0.8,0.8,1.1
			c0.3,0.3,0.7,0.5,1.2,0.7c0.5,0.1,1,0.2,1.5,0.2c0.6,0,1.1-0.2,1.5-0.4c0.4-0.2,0.8-0.5,1.1-0.9c0.3-0.3,0.5-0.8,0.6-1.2
			c0.1-0.5,0.2-0.9,0.1-1.5C50.2,53.9,50.1,53.4,49.9,53z M45.6,56.8c-2.3-0.3-2.3-4.4-0.1-4.9c0.1,0,0.1,0.1,0.1,0.2
			c-0.8,0.6-1.2,1.3-1.2,2.3c0,1,0.6,1.6,1.4,2.1C45.8,56.6,45.8,56.8,45.6,56.8z"/>
	</g>
	<g>
		<path class="st2" d="M60.9,54c-0.1-0.5-0.3-0.9-0.6-1.2c-0.3-0.4-0.6-0.7-1.1-0.9c-0.4-0.2-0.9-0.4-1.5-0.4c-0.3,0-0.6,0-0.8,0
			c-0.2,0-0.5,0.1-0.7,0.1c-0.5,0.1-0.9,0.4-1.2,0.6c-0.3,0.3-0.6,0.6-0.9,1.1c-0.2,0.4-0.4,0.9-0.4,1.4c-0.1,0.5,0,1,0.1,1.5
			c0.1,0.5,0.3,0.9,0.6,1.2c0.3,0.4,0.6,0.6,1.1,0.9c0.4,0.2,0.9,0.4,1.5,0.4c0.1,0,0.1,0,0.2,0c0.5,0,0.9,0,1.3-0.1
			c0.5-0.1,0.9-0.3,1.2-0.6c0.3-0.3,0.6-0.6,0.9-1.1c0.2-0.4,0.4-0.9,0.4-1.4C61.1,54.9,61.1,54.5,60.9,54z M56.2,57.2
			c0.2,0.1,0.1,0.4-0.1,0.4c-1.1-0.5-1.8-1.6-1.7-2.8c0.1-1,0.8-2.3,1.9-2.4c0,0,0.1,0.1,0,0.1c-0.7,0.7-1.4,1.3-1.5,2.3
			C54.7,55.8,55.3,56.6,56.2,57.2z M61.5,24l-1.2-0.1c-0.2,0-0.4,0-0.6,0h0c-1.4,0.1-2.5,1.2-2.6,2.6l-1.4,18.1
			c-0.1,1.5,1,2.9,2.6,3.1c1.5,0.2,2.9-0.9,3.2-2.5l2.6-18C64.2,25.7,63.1,24.2,61.5,24z M57.7,27.2c-0.1,0.9-0.2,1.9-0.3,2.8
			c-0.2,1.8-0.2,3.6-0.6,5.4c0,0.1-0.2,0.1-0.2,0c0-1.1,0.2-2.3,0.3-3.4c0.1-1.1,0.2-2.2,0.4-3.3c0.1-1.3,0.1-3.4,1.8-3.6
			c0.1,0,0.1,0.1,0,0.1C58.2,25.5,57.8,26.1,57.7,27.2z"/>
		<path class="st10" d="M60.3,54c-0.1-0.5-0.3-0.9-0.6-1.2c-0.3-0.4-0.6-0.7-1.1-0.9c-0.4-0.2-0.9-0.4-1.5-0.4c-0.1,0-0.1,0-0.2,0
			c-0.5,0-0.9,0-1.3,0.1c-0.5,0.1-0.9,0.4-1.2,0.6c-0.3,0.3-0.6,0.6-0.9,1.1c-0.2,0.4-0.4,0.9-0.4,1.4c-0.1,0.5,0,1,0.1,1.5
			c0.1,0.5,0.3,0.9,0.6,1.2c0.3,0.4,0.6,0.6,1.1,0.9c0.4,0.2,0.9,0.4,1.5,0.4c0.3,0,0.6,0,0.8,0c0.2,0,0.5,0,0.7-0.1
			c0.5-0.1,0.9-0.3,1.2-0.6c0.3-0.3,0.6-0.6,0.9-1.1c0.2-0.4,0.4-0.9,0.4-1.4C60.5,54.9,60.4,54.5,60.3,54z M56.2,52.3
			C56.3,52.3,56.3,52.4,56.2,52.3c-0.7,0.7-1.4,1.4-1.5,2.4c-0.1,1.1,0.6,1.9,1.4,2.5c0.2,0.1,0.1,0.4-0.1,0.4
			c-1.1-0.5-1.8-1.6-1.7-2.8C54.4,53.7,55.1,52.4,56.2,52.3z M60.8,24l-1.2-0.1h0c-1.6-0.2-3.1,1-3.2,2.6L55,44.6
			c-0.1,1.5,1,2.9,2.6,3.1c0.2,0,0.4,0,0.6,0c1.3-0.1,2.4-1.1,2.5-2.5l2.6-18C63.6,25.7,62.5,24.2,60.8,24z M59.1,25.1
			c-1,0.4-1.3,1.1-1.4,2.1c-0.1,0.9-0.2,1.9-0.3,2.8c-0.2,1.8-0.2,3.6-0.6,5.4c0,0.1-0.2,0.1-0.2,0c0-1.1,0.2-2.3,0.3-3.4
			c0.1-1.1,0.2-2.2,0.4-3.3c0.1-1.3,0.1-3.4,1.8-3.6C59.2,25,59.2,25.1,59.1,25.1z"/>
	</g>
</g>
<g>
	<g>
		<path class="st11" d="M29,62.9c-0.1,0.8-0.3,1.5-0.7,2.1c-0.1,0.2-0.2,0.4-0.3,0.6c-0.1,0.2-0.3,0.5-0.5,0.7
			c-0.7,1.1-1.4,2.2-1.6,3.4c-0.1,0.5,0,1.1,0,1.6c0,0.2,0,0.4,0,0.6c0,0.3-0.1,0.5-0.1,0.8c-0.5,1.6-2.3,2.5-2.8,4
			c-0.3,0.9-0.2,1.8-0.1,2.7c0,0.6,0,1.4-0.3,2h-2.9c-0.9-1.8-0.8-3.6-2.8-5c-1.1-0.8-2.6-1.2-3.3-2.4c-0.6-0.9-0.7-2.1-0.8-3.2
			c0-0.2,0-0.4,0-0.5c0-0.1,0-0.2,0-0.3c0-0.5-0.1-1-0.3-1.4c-0.6-1.7-2.2-2.7-3.2-4.2c-0.2-0.3-0.3-0.5-0.4-0.8
			c-0.1-0.1-0.1-0.3-0.2-0.4c-0.6-1.7-0.4-3.6,0.5-5.2c0.2-0.3,0.5-0.7,0.8-0.9c0.1-0.1,0.3-0.2,0.5-0.3c0,0,0.1,0,0.1,0
			c0.5-0.1,1-0.1,1.5,0.2c1.5,0.7,2,2.5,2.7,4.1c0,0.1,0.1,0.2,0.1,0.3c0.1,0.3,0.2,0.5,0.4,0.8c0.3,0.6,0.7,1.1,1.2,1.5
			c0.4,0.3,0.9,0.6,1.3,0.9c0.7,0.7,1,1.7,1.2,2.7c0,0.3,0.1,0.6,0.1,0.9c0,0.3,0,0.5,0,0.8c0.1,1.6,0.5,3.4,1.9,4.1
			c-0.1-1.2-0.2-2.5,0.1-3.7c0.1-0.2,0.1-0.5,0.2-0.7c0-0.1,0.1-0.2,0.1-0.3c0.4-0.7,1-1.3,1.4-2c0.6-1,0.8-2.1,1.1-3.2
			c0-0.2,0.1-0.4,0.2-0.5c0-0.1,0.1-0.3,0.1-0.4c0.5-1.4,1.8-2.7,3.3-2.4c0.1,0,0.2,0,0.2,0.1c0.2,0.1,0.4,0.2,0.6,0.3
			C28.7,60.9,29.1,61.9,29,62.9z"/>
		<path class="st12" d="M28.3,65c-0.1,0.2-0.2,0.4-0.3,0.6c-0.6,0-1.3,0-2,0.1h0c-0.8,1.3-1.7,2.5-2.1,4c-0.2,0.7-0.3,1.4-0.4,2.1
			c0.4,0.3,0.8,0,1.6-0.2c0.3-0.1,0.6-0.1,0.8-0.1c0,0.2,0,0.4,0,0.6c-0.6,0.1-1.2,0.2-1.9,0.4c-0.4,0.1-0.5,0.2-0.7,0.1
			c-0.1,0.3-0.1,0.5-0.2,0.8c-0.3,1-0.8,2-1.1,3.1c-0.5,1.7-0.7,3.5-0.7,5.2h-0.7c-0.1-1.4-0.3-2.9-0.8-4.3c-0.7-1.8-1.8-3.4-2.8-5
			c-0.2,0-0.4,0-0.7-0.1c-0.5-0.1-1.4-0.6-1.8-0.8c-0.5-0.2-1.1-0.3-1.6-0.4c0-0.2,0-0.4,0-0.5c0.6,0.1,1.2,0.3,1.8,0.5
			c0.2,0.1,1,0.5,1.3,0.5c0.2,0,0.4,0,0.5,0c-0.2-0.4-0.4-0.7-0.6-1.1c-0.9-1.7-1.6-3.4-2.4-5.1c-0.9,0-2.1-0.8-2.8-1.1
			c-0.6-0.2-1.1-0.3-1.7-0.5c-0.1-0.1-0.1-0.3-0.2-0.4c0.3,0,0.5,0.1,0.8,0.1c1.1,0.2,2.3,0.9,3.4,1.1c0.1,0,0.1,0,0.2,0
			c-0.2-0.5-0.5-1-0.8-1.4c-0.6-1-1.2-2-1.6-3.2c-0.1-0.4-0.4-1.7-0.7-2.7c0.1-0.1,0.3-0.2,0.5-0.3c0,0,0.1,0,0.1,0
			c0.6,1.2,0.8,3,1.1,3.6c0.6,1.3,1.4,2.4,2.1,3.7c0.5-0.5,0.6-1.7,0.9-2.4c0-0.1,0.1-0.2,0.2-0.4c0.1,0.3,0.2,0.5,0.4,0.8
			c-0.3,0.6-0.5,1.3-0.8,2c-0.1,0.2-0.1,0.5-0.2,0.7c0.6,1.2,1,2.5,1.6,3.8c0.4,0.9,0.9,1.7,1.4,2.5c0.3-0.3,0.3-0.7,0.5-1.3
			c0.3-0.9,0.7-1.8,1.2-2.6c0,0.3,0.1,0.6,0.1,0.9c0,0.1-0.1,0.1-0.1,0.2c-0.4,0.9-0.7,1.9-1.1,2.8c0,0.2-0.1,0.5-0.2,0.7
			c0.9,1.5,1.9,3,2.6,4.7c0.5,1.1,0.7,2.3,0.9,3.5c0.1-0.7,0.2-1.5,0.3-2.2c0.4-2,1.2-3.8,1.7-5.7c-0.5-0.5-1-1.7-1.3-2.1
			c-0.2-0.3-0.5-0.5-0.7-0.7c0.1-0.2,0.1-0.5,0.2-0.7c0.8,0.6,1.5,1.6,1.9,2.4c0,0.1,0.1,0.1,0.1,0.2c0.4-2.3,1.2-3.8,2.4-5.8
			c0-0.1,0.1-0.1,0.1-0.2c-0.5-0.9-1.2-1.6-2-2.1c0-0.2,0.1-0.4,0.2-0.5c0.5,0.3,0.9,0.7,1.3,1.1c0.3,0.3,0.5,0.8,0.8,1.1
			c0.8-1.6,1.3-3.2,1.5-4.9c0.2,0.1,0.4,0.2,0.6,0.3c-0.1,1.1-0.4,2.2-0.8,3.2c-0.2,0.5-0.5,1-0.8,1.5c0.5,0.1,1-0.1,1.5-0.1
			C28,65,28.1,65,28.3,65z"/>
	</g>
	<path class="st13" d="M20.9,77.5c0,0-4.3-4.8-12.3-4.5L10,75l-2.2-1.8c0,0-4.6,0.4-7.8,1.5c0,0,6.8,3.6,8.5,3.9l2.3-0.7l-1.2,1.7
		c0,0,3.7,2.1,7.6,1.7C21,80.9,20.9,77.5,20.9,77.5z"/>
</g>
<g>
	<g>
		<path class="st14" d="M17.7,47.9c-0.1-0.6-0.4-1.1-0.8-1.5c-0.6-0.5-1.4-0.7-2.2-0.7c-0.8-0.1-1.7-0.1-2.5,0.2
			c-0.8,0.2-1.5,0.7-1.9,1.5C10,48,10,48.8,10.2,49.6c0.1,0.4,0.3,0.9,0.6,1.2c0.3,0.3,0.8,0.5,1.2,0.6c0.5,0.1,0.9,0.1,1.4,0.1l0,0
			c0.1,0.3,0,0.7-0.2,1c-0.1,0.1-0.2,0.3-0.3,0.4s-0.2,0.3-0.2,0.4c0,0.2,0.1,0.3,0.2,0.4c-0.1-0.2,0.1-0.5,0.2-0.6
			c0.2-0.2,0.4-0.2,0.6-0.4c0.3-0.3,0.5-0.8,0.5-1.2c0.4,0,0.9,0,1.3,0c0.4-0.1,0.9-0.2,1.2-0.5c0.4-0.3,0.6-0.8,0.8-1.3
			C17.7,49,17.8,48.5,17.7,47.9z"/>
	</g>
	<g>
		<path class="st3" d="M12.3,49.1H12c-0.1,0-0.2,0.1-0.2,0.2v0.3c0,0.1,0.1,0.2,0.2,0.2h0.3c0.1,0,0.2-0.1,0.2-0.2v-0.3
			C12.5,49.2,12.4,49.1,12.3,49.1z"/>
		<path class="st3" d="M14.1,49.1h-0.3c-0.1,0-0.2,0.1-0.2,0.2v0.3c0,0.1,0.1,0.2,0.2,0.2h0.3c0.1,0,0.2-0.1,0.2-0.2v-0.3
			C14.3,49.2,14.2,49.1,14.1,49.1z"/>
		<path class="st3" d="M15.9,49.1h-0.3c-0.1,0-0.2,0.1-0.2,0.2v0.3c0,0.1,0.1,0.2,0.2,0.2h0.3c0.1,0,0.2-0.1,0.2-0.2v-0.3
			C16.1,49.2,16,49.1,15.9,49.1z"/>
	</g>
</g>
<g>
	<g>
		<path class="st15" d="M55.6,8.4c0.1-0.4-0.2-0.9-0.6-1.1c-0.4-0.2-0.9,0-1.2,0.3c-0.4-0.6-1.5-0.6-1.9,0.1
			c-0.6-0.5-1.6-0.2-1.9,0.4c-0.4-0.1-0.8,0.1-1,0.4c-0.2,0.3-0.3,0.7-0.1,1.1c-0.5,0.2-0.7,0.8-0.5,1.3c0.2,0.4,1.1,0.5,1.1,0.5
			c0.1,0.5,0.5,1,1,1.1c-0.2-0.4-0.2-0.8,0-1.2c0.5,0,0.9-0.1,1.3-0.5c0.4,0.7,1.4,0.8,2,0.3c0.2,0.5,0.7,0.8,1.2,0.7
			c0.5-0.1,0.9-0.5,0.9-1c0.5-0.2,0.8-0.7,0.8-1.3C56.5,9,56.1,8.5,55.6,8.4z"/>
	</g>
	<g>
		<path class="st3" d="M51,9.1h-0.3c-0.1,0-0.2,0.1-0.2,0.2v0.3c0,0.1,0.1,0.2,0.2,0.2H51c0.1,0,0.2-0.1,0.2-0.2V9.3
			C51.2,9.2,51.1,9.1,51,9.1z"/>
		<path class="st3" d="M52.8,9.1h-0.3c-0.1,0-0.2,0.1-0.2,0.2v0.3c0,0.1,0.1,0.2,0.2,0.2h0.3c0.1,0,0.2-0.1,0.2-0.2V9.3
			C53,9.2,52.9,9.1,52.8,9.1z"/>
		<path class="st3" d="M54.6,9.1h-0.3c-0.1,0-0.2,0.1-0.2,0.2v0.3c0,0.1,0.1,0.2,0.2,0.2h0.3c0.1,0,0.2-0.1,0.2-0.2V9.3
			C54.8,9.2,54.7,9.1,54.6,9.1z"/>
	</g>
</g>
<g>
	<g>
		<path class="st16" d="M24.9,35.1c-0.2-0.2-1-0.2-1.3-0.3c-1.7-0.1-2-0.2-3.8-0.2c-0.9,0-1.9,0-2.5,0.7c-0.4,0.5-0.4,1.5-0.3,2
			c0.1,0.7,0.2,1.4,0.3,2.1c0,0.2,0.1,0.3,0.2,0.4c0.1,0.1,0.3,0.1,0.5,0.1c1.9,0.1,3.7,0.1,3.7,0.1c0,0.4-0.4,3.7-0.4,3.7
			s2-3.2,2.1-3.7c1.1,0.1,1.4-0.3,1.6-0.6c0.2-0.4,0.2-0.8,0.2-1.2C25.2,37.5,25.1,35.3,24.9,35.1z"/>
	</g>
	<g>
		<g>
			<path class="st3" d="M19,38.2h0.2c0.1,0,0.1-0.1,0.1-0.1v-2c0-0.1-0.1-0.1-0.1-0.1H19c-0.1,0-0.1,0.1-0.1,0.1v2
				C18.9,38.2,18.9,38.2,19,38.2z"/>
			<path class="st3" d="M19.2,38.5H19c-0.1,0-0.1,0.1-0.1,0.1v0.2c0,0.1,0.1,0.1,0.1,0.1h0.2c0.1,0,0.1-0.1,0.1-0.1v-0.2
				C19.4,38.6,19.3,38.5,19.2,38.5z"/>
		</g>
		<g>
			<path class="st3" d="M21,38.2h0.2c0.1,0,0.1-0.1,0.1-0.1v-2c0-0.1-0.1-0.1-0.1-0.1H21c-0.1,0-0.1,0.1-0.1,0.1v2
				C20.9,38.2,20.9,38.2,21,38.2z"/>
			<path class="st3" d="M21.2,38.5H21c-0.1,0-0.1,0.1-0.1,0.1v0.2c0,0.1,0.1,0.1,0.1,0.1h0.2c0.1,0,0.1-0.1,0.1-0.1v-0.2
				C21.4,38.6,21.3,38.5,21.2,38.5z"/>
		</g>
		<g>
			<path class="st3" d="M23,38.2h0.2c0.1,0,0.1-0.1,0.1-0.1v-2c0-0.1-0.1-0.1-0.1-0.1H23c-0.1,0-0.1,0.1-0.1,0.1v2
				C22.9,38.2,22.9,38.2,23,38.2z"/>
			<path class="st3" d="M23.2,38.5H23c-0.1,0-0.1,0.1-0.1,0.1v0.2c0,0.1,0.1,0.1,0.1,0.1h0.2c0.1,0,0.1-0.1,0.1-0.1v-0.2
				C23.4,38.6,23.3,38.5,23.2,38.5z"/>
		</g>
	</g>
</g>
<g>
	<g>
		<path class="st17" d="M73.1,39c1.1,0,2.1,0.4,3.2,0.8c0.5,0.2,1.1,0.4,1.4,0.9c0.4,0.5,0.4,1.2,0.4,1.8c0,0.6-0.2,1.3-0.7,1.7
			c-0.5,0.4-1.1,0.5-1.7,0.5c-0.7,0.1-1.3,0.1-2,0.2l-0.1,0c-0.1,0.5-1.4,1.2-1.7,1.5c0.2-0.4,0.5-1.3,0.3-1.6c-0.5,0-0.9-0.4-1-0.9
			c-0.1-0.5-0.1-1,0-1.5c0.1-0.6,0.2-1.2,0.2-1.8c0-0.3,0.1-0.7,0.3-1C72,39.1,72.6,39,73.1,39z"/>
	</g>
	<g>
		<g>
			<path class="st3" d="M73,40.9c-0.2-0.1-0.5-0.1-0.7,0c-0.1,0.1-0.2,0.1-0.2,0.3c0,0.1-0.1,0.2-0.1,0.3c0,0,0,0.1,0,0.1
				c0,0,0.1,0,0.1,0h0.2c0.1,0,0.1,0,0.1-0.1c0-0.1,0-0.2,0.1-0.2c0.1-0.1,0.3-0.1,0.4,0c0,0.1,0.1,0.1,0.1,0.2c0,0.1,0,0.1,0,0.2
				c0,0,0,0.1-0.1,0.1c0,0-0.1,0.1-0.1,0.2c-0.1,0.1-0.1,0.2-0.2,0.2c0,0.1-0.1,0.2-0.1,0.3c0,0.1,0,0.2,0,0.2c0,0,0,0.1,0,0.1
				c0,0,0.1,0,0.1,0h0.2c0.1,0,0.1,0,0.1-0.1c0-0.1,0-0.1,0-0.2c0-0.1,0.1-0.1,0.1-0.2c0-0.1,0.1-0.1,0.1-0.2
				c0.1-0.1,0.1-0.1,0.1-0.2c0-0.1,0.1-0.1,0.1-0.2c0-0.1,0-0.1,0-0.2c0-0.1,0-0.3-0.1-0.4C73.2,41,73.1,41,73,40.9z"/>
			<path class="st3" d="M72.7,43h-0.2c-0.1,0-0.1,0.1-0.1,0.1v0.2c0,0.1,0.1,0.1,0.1,0.1h0.2c0.1,0,0.1-0.1,0.1-0.1v-0.2
				C72.8,43,72.7,43,72.7,43z"/>
		</g>
		<g>
			<path class="st3" d="M74.9,40.9c-0.2-0.1-0.5-0.1-0.7,0C74.1,41,74,41.1,74,41.2c0,0.1-0.1,0.2-0.1,0.3c0,0,0,0.1,0,0.1
				c0,0,0.1,0,0.1,0h0.2c0.1,0,0.1,0,0.1-0.1c0-0.1,0-0.2,0.1-0.2c0.1-0.1,0.3-0.1,0.4,0c0,0.1,0.1,0.1,0.1,0.2c0,0.1,0,0.1,0,0.2
				c0,0,0,0.1-0.1,0.1c0,0-0.1,0.1-0.1,0.2c-0.1,0.1-0.1,0.2-0.2,0.2c0,0.1-0.1,0.2-0.1,0.3c0,0.1,0,0.2,0,0.2c0,0,0,0.1,0,0.1
				c0,0,0.1,0,0.1,0h0.2c0.1,0,0.1,0,0.1-0.1c0-0.1,0-0.1,0-0.2c0-0.1,0.1-0.1,0.1-0.2c0-0.1,0.1-0.1,0.1-0.2
				c0.1-0.1,0.1-0.1,0.1-0.2c0-0.1,0.1-0.1,0.1-0.2c0-0.1,0-0.1,0-0.2c0-0.1,0-0.3-0.1-0.4C75.1,41,75.1,41,74.9,40.9z"/>
			<path class="st3" d="M74.7,43h-0.2c-0.1,0-0.1,0.1-0.1,0.1v0.2c0,0.1,0.1,0.1,0.1,0.1h0.2c0.1,0,0.1-0.1,0.1-0.1v-0.2
				C74.8,43,74.7,43,74.7,43z"/>
		</g>
		<g>
			<path class="st3" d="M76.9,40.9c-0.2-0.1-0.5-0.1-0.7,0C76.1,41,76,41.1,76,41.2c0,0.1-0.1,0.2-0.1,0.3c0,0,0,0.1,0,0.1
				c0,0,0.1,0,0.1,0h0.2c0.1,0,0.1,0,0.1-0.1c0-0.1,0-0.2,0.1-0.2c0.1-0.1,0.3-0.1,0.4,0c0,0.1,0.1,0.1,0.1,0.2c0,0.1,0,0.1,0,0.2
				c0,0,0,0.1-0.1,0.1c0,0-0.1,0.1-0.1,0.2c-0.1,0.1-0.1,0.2-0.2,0.2c0,0.1-0.1,0.2-0.1,0.3c0,0.1,0,0.2,0,0.2c0,0,0,0.1,0,0.1
				c0,0,0.1,0,0.1,0h0.2c0.1,0,0.1,0,0.1-0.1c0-0.1,0-0.1,0-0.2c0-0.1,0.1-0.1,0.1-0.2c0-0.1,0.1-0.1,0.1-0.2
				c0.1-0.1,0.1-0.1,0.1-0.2c0-0.1,0.1-0.1,0.1-0.2c0-0.1,0-0.1,0-0.2c0-0.1,0-0.3-0.1-0.4C77.1,41,77,41,76.9,40.9z"/>
			<path class="st3" d="M76.6,43h-0.2c-0.1,0-0.1,0.1-0.1,0.1v0.2c0,0.1,0.1,0.1,0.1,0.1h0.2c0.1,0,0.1-0.1,0.1-0.1v-0.2
				C76.7,43,76.7,43,76.6,43z"/>
		</g>
	</g>
</g>
</svg>
