<svg id="Layer_1" data-name="Layer 1" xmlns="http://www.w3.org/2000/svg" viewBox="0 0 86.84 100"><defs><style>.cls-1{fill:#b8bdc1;}.cls-2{fill:#d9dee2;}.cls-3{fill:#fff;}.cls-4{fill:#2a7a9e;}.cls-5{fill:#0c5177;}.cls-6{fill:#f2a825;}.cls-7{fill:#db7d0e;}</style></defs><title>ic_header_calendar</title><path class="cls-1" d="M93.42,96.63A3.39,3.39,0,0,1,90,100H10.11a3.5,3.5,0,0,1-3.37-3.37V16.69a3.5,3.5,0,0,1,3.37-3.37H89.89a3.53,3.53,0,0,1,3.53,3.37V96.63Z" transform="translate(-6.58)"/><path class="cls-2" d="M93.42,95A3.39,3.39,0,0,1,90,98.39H10.11A3.5,3.5,0,0,1,6.74,95V15.09a3.5,3.5,0,0,1,3.37-3.37H89.89a3.53,3.53,0,0,1,3.53,3.37V95Z" transform="translate(-6.58)"/><path class="cls-3" d="M93.42,91.81A3.39,3.39,0,0,1,90,95.18H10.11a3.5,3.5,0,0,1-3.37-3.37V11.88a3.5,3.5,0,0,1,3.37-3.37H89.89a3.53,3.53,0,0,1,3.53,3.37V91.81Z" transform="translate(-6.58)"/><path class="cls-2" d="M6.58,12A3.43,3.43,0,0,1,10,8.51H90.21a3.44,3.44,0,0,1,3.21,3.69V92.46c0,1.93-1.61,2.89-3.37,2.89" transform="translate(-6.58)"/><path class="cls-4" d="M48.8,64.21c0,10.91-4.33,18.46-13.48,18.46s-13.16-8.19-13.16-18.3c0-10.27,4.33-18.3,13.48-18.3C45.1,46.07,48.8,54.57,48.8,64.21Zm-18.3.32c0,8.19,1.93,12,5.14,12s5-4,5-12c0-7.87-1.77-12-5-12C32.58,52.33,30.5,56.18,30.5,64.53Z" transform="translate(-6.58)"/><path class="cls-5" d="M77.37,53.45H62.92l-0.8,5.46a10.6,10.6,0,0,1,2.25-.16,16.58,16.58,0,0,1,9.31,2.57C76.4,63.08,78,66.13,78,70.14c0,6.58-5.62,12.36-15.25,12.36A23.19,23.19,0,0,1,53,80.58l1.44-6.26a19.84,19.84,0,0,0,8,1.77c3.37,0,7.06-1.61,7.06-5.46,0-3.69-2.89-5.94-10-5.94a37.44,37.44,0,0,0-4.82.48L57.14,47H77.37v6.42h0Z" transform="translate(-6.58)"/><path class="cls-4" d="M90.21,8.51H10A3.44,3.44,0,0,0,6.74,12.2V32.58H93.42V12.2A3.44,3.44,0,0,0,90.21,8.51Z" transform="translate(-6.58)"/><path class="cls-5" d="M35.79,46.07H35.63v6.26h0.16c3.37,0,5,4.17,5,12q0,12-4.82,12H35.79v6.26h0c9,0,13.48-7.54,13.48-18.46C49,54.57,45.26,46.07,35.79,46.07Z" transform="translate(-6.58)"/><rect class="cls-5" x="0.16" y="13.32" width="86.68" height="19.26"/><circle class="cls-6" cx="20.87" cy="22.31" r="6.9"/><path class="cls-7" d="M22.63,17.5a6.92,6.92,0,1,1,9.79,9.79" transform="translate(-6.58)"/><path class="cls-3" d="M30.82,22.15a3.31,3.31,0,0,1-3.21,3h0a3.19,3.19,0,0,1-3.21-3V3a3.31,3.31,0,0,1,3.21-3h0a3.19,3.19,0,0,1,3.21,3v19.1Z" transform="translate(-6.58)"/><path class="cls-2" d="M27.61,0h0a3.19,3.19,0,0,1,3.21,3v19.1a3.16,3.16,0,0,1-3,3h0" transform="translate(-6.58)"/><circle class="cls-6" cx="66.13" cy="22.31" r="6.9"/><path class="cls-7" d="M67.74,17.5a6.92,6.92,0,1,1,9.79,9.79" transform="translate(-6.58)"/><path class="cls-3" d="M75.76,22.15a3.31,3.31,0,0,1-3.21,3h0a3.19,3.19,0,0,1-3.21-3V3a3.31,3.31,0,0,1,3.21-3h0a3.19,3.19,0,0,1,3.21,3v19.1Z" transform="translate(-6.58)"/><path class="cls-2" d="M72.71,0h0a3,3,0,0,1,3,3v19.1a3.16,3.16,0,0,1-3,3h0" transform="translate(-6.58)"/></svg>