<?xml version="1.0" encoding="utf-8"?>
<!-- Generator: Adobe Illustrator 21.1.0, SVG Export Plug-In . SVG Version: 6.00 Build 0)  -->
<svg version="1.1" id="Layer_1" xmlns="http://www.w3.org/2000/svg" xmlns:xlink="http://www.w3.org/1999/xlink" x="0px" y="0px"
	 viewBox="0 0 100 81.7" style="enable-background:new 0 0 100 81.7;" xml:space="preserve">
<style type="text/css">
	.st0{fill:#1A2E35;}
	.st1{fill:#E1E1E1;}
	.st2{fill:#FAFAFA;}
	.st3{opacity:0.3;fill:#FFFFFF;}
	.st4{opacity:0.5;fill:#4BBEDB;}
	.st5{fill:#100857;}
	.st6{fill:#5E72EC;}
	.st7{fill:#7B8AFF;}
	.st8{fill:#F04394;}
	.st9{fill:#FFC843;}
	.st10{fill:#F7F7F7;}
	.st11{fill:#FFFFFF;}
	.st12{fill:#4BBEDB;}
	.st13{fill:#D0D0D0;}
	.st14{fill:#F7A800;}
	.st15{fill:#3294AD;}
	.st16{fill:#FFB819;}
	.st17{fill:#A47400;}
	.st18{fill:#6F561B;}
	.st19{fill:#1D5766;}
	.st20{fill:#898989;}
	.st21{fill:#3CB2D0;}
	.st22{fill:none;stroke:#031B89;stroke-width:6;stroke-linecap:round;stroke-miterlimit:10;}
	.st23{fill:#D8A940;}
	.st24{fill:none;stroke:#F04394;stroke-linecap:round;stroke-miterlimit:10;}
	.st25{fill:#FF4F5B;}
</style>
<g>
	<g>
		<ellipse class="st0" cx="41.5" cy="37.3" rx="0.1" ry="16.5"/>
	</g>
	<g>
		<path class="st0" d="M53.8,16.4c0,0,0.1,0,0.3,0c0.2,0,0.5,0,0.8,0c0.7,0,1.8,0,3.2,0c2.7,0,6.7,0,11.6,0c9.8,0,4.1,0,19.1,0
			c0.9,0,1.9,0.1,2.8,0.4c0.9,0.3,1.7,0.8,2.4,1.4c1.4,1.2,2.4,3,2.8,4.8c0.2,0.9,0.2,1.9,0.2,2.8c0,0.9,0,1.8,0,2.7
			c0,1.8,0,3.5,0,5.2c0,6.8,0,13,0,18.1c0,1.3,0,2.5,0,3.7c0,0.6,0,1.1,0,1.7c0,0.5-0.1,1.1-0.3,1.6c-0.4,1-1.2,1.6-2.1,1.8
			c-0.4,0.1-0.8,0.1-1.2,0.1c-0.4,0-0.7,0-1.1,0c-1.4,0-9.3,0-10.1,0c-0.4,0-0.6,0-0.8,0c-0.2,0-0.3,0-0.3,0s0.1,0,0.3,0
			c0.2,0,0.5,0,0.8,0c0.7,0,8.7,0,10.1,0c0.3,0,0.7,0,1.1,0c0.4,0,0.8,0,1.2-0.1c0.8-0.2,1.6-0.8,2-1.7c0.2-0.5,0.3-1,0.3-1.5
			c0-0.5,0-1.1,0-1.7c0-1.2,0-2.4,0-3.7c0-5.2,0-11.3,0-18.1c0-1.7,0-3.5,0-5.2c0-0.9,0-1.8,0-2.7c0-0.9,0-1.8-0.2-2.7
			c-0.4-1.8-1.3-3.5-2.7-4.7c-0.7-0.6-1.5-1.1-2.4-1.4c-0.9-0.3-1.8-0.4-2.7-0.4c-15,0-9.3,0-19.1,0c-4.9,0-8.9,0-11.6,0
			c-1.4,0-2.4,0-3.2,0c-0.4,0-0.6,0-0.8,0C53.9,16.4,53.8,16.4,53.8,16.4z"/>
	</g>
</g>
<g>
	<g>
		<path class="st1" d="M30.8,19.2c-0.7,0.4-1.5,0.8-2.2,1.4l1.2,2.9c-0.6,0.5-1.1,1-1.7,1.6l-3-1.1c-0.6,0.7-1,1.4-1.4,2.1l2.2,2.1
			c-0.4,0.7-0.7,1.5-0.8,2.2L22,30.7c-0.2,0.8-0.3,1.7-0.4,2.5l3,1c0,0.8,0,1.7,0.1,2.4L22,38.1c0.2,0.8,0.4,1.6,0.7,2.4l3.2-0.2
			c0.3,0.7,0.7,1.5,1.1,2.2L24.8,45c0.3,0.4,0.5,0.7,0.7,1c0.3,0.3,0.6,0.7,0.8,0.9l2.8-1.5c0.7,0.6,1.3,1.1,2,1.6l-0.8,3.1
			c0.7,0.5,1.5,0.7,2.2,1.1l2-2.5c0.7,0.3,1.6,0.5,2.4,0.6l0.5,3.1c0.8,0.1,1.7,0.1,2.5,0.1l0.7-3.1c0.7-0.1,1.6-0.2,2.3-0.5
			l1.7,2.6c0.8-0.3,1.6-0.6,2.3-0.9l-0.6-3.1c0.7-0.4,1.3-0.8,1.9-1.3l2.6,1.7c0.7-0.6,1.2-1.2,1.8-1.9l-1.6-2.7
			c0.5-0.6,0.8-1.2,1.1-1.9l3.1,0.5c0.4-0.8,0.7-1.7,0.9-2.5l-2.7-1.7c0.2-0.7,0.3-1.4,0.3-2.1l3.1-0.8c0-0.9-0.1-1.8-0.2-2.7
			l-3.2-0.5c-0.2-0.7-0.4-1.3-0.6-2l2.4-2c-0.4-0.8-0.7-1.6-1.3-2.4L51,26.1c-0.2-0.3-0.4-0.6-0.7-0.8c-0.2-0.3-0.5-0.6-0.7-0.7
			l1.4-2.8C50.5,21,49.7,20.5,49,20l-2.4,2.1c-0.6-0.4-1.2-0.7-1.9-0.9l0.2-3.2c-0.8-0.3-1.7-0.6-2.6-0.7l-1.4,2.8
			C40.1,20,39.5,20,38.7,20l-1.1-3c-0.8,0.1-1.8,0.2-2.6,0.4l0.1,3.3c-0.7,0.2-1.4,0.5-2.1,0.7L30.8,19.2z M45.6,29.4
			c3,3.5,2.4,8.9-1.1,11.7c-3.5,3-8.9,2.4-11.7-1.1c-3-3.5-2.4-8.9,1.1-11.7S42.6,25.9,45.6,29.4z"/>
		<ellipse transform="matrix(0.7706 -0.6373 0.6373 0.7706 -13.1478 32.9302)" class="st2" cx="39.2" cy="34.7" rx="5.4" ry="5.4"/>
		<path class="st2" d="M2.9,32.9l-2.1-0.2l-0.7,2.8l2.1,0.8c0,0.9,0.1,1.9,0.3,2.8l-1.8,1.2l1.2,2.6L4,42.3c0.6,0.7,1.2,1.4,2,1.9
			l-0.7,2.1l2.6,1.2l1.2-1.9c0.9,0.2,1.8,0.3,2.7,0.2l0.9,2.1l2.8-0.7l-0.3-2.3c0.7-0.4,1.5-0.9,2.1-1.6l2.1,1l1.7-2.4l-1.7-1.6
			c0.2-0.4,0.3-0.7,0.4-1.1c0.1-0.5,0.2-0.9,0.3-1.4l2.2-0.6L22,34.2L19.6,34c-0.3-0.8-0.7-1.7-1.1-2.3l1.3-1.9l-2.1-2.1l-1.9,1.4
			c-0.7-0.5-1.6-0.8-2.4-1.1l-0.2-2.2l-2.8-0.2l-0.6,2.1c-0.9,0.1-1.8,0.4-2.6,0.7l-1.5-1.6l-2.3,1.7l1,2C3.9,31.2,3.3,32,2.9,32.9z
			 M12.3,32.1c2.5,0.7,4.1,3.3,3.4,5.9c-0.7,2.5-3.3,4.1-5.9,3.4c-2.5-0.7-4.1-3.3-3.4-5.9C7,33,9.7,31.4,12.3,32.1z"/>
		<ellipse transform="matrix(0.2513 -0.9679 0.9679 0.2513 -27.2885 38.1646)" class="st1" cx="11" cy="36.7" rx="3.3" ry="3.3"/>
		<path class="st1" d="M26.1,10l-2.6,1.9c-0.5-0.3-0.9-0.4-1.5-0.5l-0.7-3l-1.6,0.1l-0.5,3c-0.5,0.2-0.9,0.4-1.4,0.7l-2.6-1.6
			l-1.1,1.2l1.9,2.6c-0.3,0.5-0.4,0.9-0.5,1.5l-3,0.7l0.1,1.6l3.1,0.6c0.2,0.5,0.4,0.9,0.7,1.4l-1.6,2.6l1.2,1.1l2.6-1.9
			c0.5,0.3,0.9,0.4,1.5,0.5l0.7,3l1.6-0.1l0.6-3.1c0.5-0.2,0.9-0.4,1.4-0.7l2.6,1.6l1.1-1.2l-1.9-2.6c0.3-0.5,0.4-0.9,0.5-1.5l3-0.7
			l-0.2-1.5l-3.1-0.6c-0.2-0.5-0.4-0.9-0.7-1.4l1.7-2.6L26.1,10z M22.7,18.6c-0.9,0.9-2.4,1-3.4,0.1c-0.9-0.9-1-2.4-0.1-3.4
			c0.9-0.9,2.4-1,3.4-0.1C23.6,16.1,23.6,17.6,22.7,18.6z"/>
		<ellipse transform="matrix(0.9694 -0.2454 0.2454 0.9694 -3.5194 5.6548)" class="st1" cx="20.9" cy="16.9" rx="1.7" ry="1.7"/>
	</g>
	<path class="st3" d="M49.6,7.7L49.6,7.7c-2.5,0-4.8,0.4-6.9,1.1c-1.1,0.4-2.1,0.8-3,1.3c-0.8,0.5-1.5,1-2.2,1.7
		c-2.2,2.1-3.3,5-4.3,7.8c-0.1,0.4-0.3,0.7-0.4,1.1c-0.2,0.6-0.4,1.1-0.7,1.7c-0.6,1.5-1.3,2.7-2.1,3.8c-0.9,1.2-2.1,2.3-3.7,3.5
		c-1.7,1.3-3.6,2.5-5.5,3.6l-0.4,0.2c-1.7,1-3.8,2.3-5.7,3.8c-1.6,1.3-2.9,2.8-3.8,4.4c-0.5,0.8-0.8,1.6-1.1,2.5
		c-0.3,0.8-0.5,1.7-0.6,2.8C9.1,48.7,9.3,50.8,10,53c0.6,2,1.6,4.1,2.8,6.2c1.1,1.8,2.5,3.7,4.2,5.6c1.5,1.6,3.1,3.2,5,4.8
		c1.8,1.5,3.8,3,6,4.5c2.1,1.4,4.3,2.8,6.6,4c1.1,0.6,2.2,1.1,3.4,1.7c1.2,0.5,2.4,1,3.5,1.3c1.6,0.5,3.2,0.7,4.9,0.7
		c0.6,0,1.1,0,1.7-0.1c1.2-0.1,2.4-0.4,3.6-0.7c1.2-0.4,2.4-0.9,3.7-1.5c1.1-0.6,2.3-1.2,3.6-2.1c0.2-0.1,0.3-0.2,0.5-0.3
		c0.1-0.1,0.3-0.2,0.4-0.3c0.3-0.2,0.6-0.4,1-0.6c0.6-0.3,1.2-0.6,1.8-0.9c1.1-0.4,2.3-0.8,3.7-1.1c0.6-0.1,1.2-0.3,2-0.4
		c0.8-0.2,1.5-0.3,2.1-0.4c0.6-0.1,1.2-0.1,1.8-0.1c0.2,0,0.5,0,0.7,0c0.9,0,1.7,0.1,2.5,0.2c0.4,0,0.7,0.1,1.1,0.2
		c1.5,0.2,3.1,0.4,4.7,0.4c0.5,0,1,0,1.5-0.1c1-0.1,1.9-0.3,2.8-0.6c0.8-0.3,1.6-0.7,2.4-1.2c1.4-0.9,2.6-2.2,3.5-3.7
		c0.4-0.7,0.8-1.5,1.1-2.4c0.3-0.8,0.5-1.7,0.7-2.6c0.1-0.6,0.2-1.3,0.3-2.1c0.1-0.8,0.1-1.6,0.1-2.4c0-1.5-0.1-2.9-0.4-4.3
		c-0.3-1.3-0.8-2.6-1.5-3.9c-0.3-0.6-0.8-1.3-1.3-1.9c-0.3-0.4-0.6-0.8-1-1.2c-0.2-0.2-0.4-0.5-0.6-0.7c-1.3-1.6-2.4-3.3-3.4-5
		c-1-1.6-1.9-3.4-2.7-5.4c-0.2-0.4-0.3-0.8-0.5-1.2c0-0.1-0.1-0.1-0.1-0.2l-0.1-0.3c-0.2-0.6-0.4-1.2-0.6-1.7
		c-0.7-2-1.5-3.8-2.3-5.6c-1.8-3.8-3.9-7-6.3-9.7c-1.3-1.4-2.8-2.7-4.4-3.9c-1.6-1.2-3.4-2.2-5.4-3.1c-2.1-0.9-4.3-1.7-6.5-2.2
		C54.3,8,51.9,7.7,49.6,7.7"/>
	<path class="st4" d="M65.4,12.2c-0.9,0-1.8-0.1-2.8,0c-1.7,0-3.4,0.2-5.3,0.6c-1.7,0.3-3.4,0.7-5.3,1.3c-0.5,0.1-1,0.3-1.5,0.4
		c-1.2,0.3-2.4,0.7-3.7,1c-0.9,0.2-1.8,0.4-2.6,0.6c-1,0.2-2,0.3-2.9,0.4c-2.5,0.2-5,0.1-7.4-0.1l-0.5,0c-1.3-0.1-2.6-0.1-4-0.1
		c-1.4,0-2.7,0.1-4,0.3c-1,0.1-2,0.3-3.4,0.7c-0.9,0.2-1.9,0.5-2.9,0.9c-1.8,0.6-3.5,1.5-5,2.6c-1.5,1.1-2.8,2.4-4,4
		c-0.6,0.8-1.2,1.8-1.6,2.8c-0.5,1-0.8,2-0.9,3c-0.1,1-0.1,2,0.1,3c0.2,1,0.7,2,1.3,3c1.1,1.8,2.7,3.3,4.3,4.7l0.4,0.3
		c0.2,0.2,0.5,0.4,0.7,0.6c0.6,0.7,1,1.2,1.4,1.7c1,1.3,1.7,2.5,2.1,3.7c0.4,0.9,0.6,1.9,0.9,3c0.2,1,0.3,2.1,0.4,3.1l0,0
		c0,0.3,0.1,0.7,0.1,1c0.2,1.7,0.4,3.5,0.8,5.3c0.3,1.1,0.6,2.1,1.1,3.1c0.5,1.1,1.2,2,1.8,2.9c1.2,1.6,2.8,3.1,4.5,4.5
		c1.6,1.3,3.5,2.4,5.5,3.4c0.9,0.4,1.9,0.9,3.2,1.4c1.1,0.4,2.3,0.9,3.5,1.3c2.4,0.8,4.8,1.4,7.3,1.9c3.1,0.6,6.3,1.1,9.4,1.2
		c1.9,0.1,3.9,0.1,5.7,0c2-0.1,3.9-0.3,5.7-0.5c2.2-0.3,4.1-0.7,5.9-1.2c2.1-0.6,3.8-1.4,5.3-2.3c0.8-0.5,1.5-1.1,2.1-1.7
		c0.4-0.4,0.7-0.8,1.1-1.2c0.3-0.4,0.5-0.9,0.8-1.5c0.3-0.6,0.5-1.3,0.6-2.1c0.1-0.7,0.2-1.4,0.2-2.2c0-1.3-0.1-2.7-0.3-4l-0.1-0.5
		c-0.3-3.3-0.2-6.5,0.3-9.5c0.3-1.4,0.6-2.8,1-4.1c0.4-1.2,0.9-2.4,1.6-3.8c0.4-0.8,0.8-1.6,1.2-2.3c0.6-1.1,1.2-2.3,1.8-3.5
		c0.5-1.1,0.9-2,1.2-3c0.3-1,0.5-2.1,0.6-3.2c0.1-1,0-2.1-0.2-3.3c-0.2-0.9-0.5-1.8-0.9-2.8c-0.7-1.5-1.8-3-3.4-4.6
		c-0.8-0.8-1.6-1.5-2.3-2c-1-0.8-1.8-1.5-2.6-2.1c-0.9-0.6-1.9-1.3-2.9-1.8c-0.9-0.5-1.9-1-3.1-1.5c-2-0.9-4.2-1.6-6.5-2
		C68.2,12.4,66.8,12.3,65.4,12.2 M20.6,55.6L20.6,55.6L20.6,55.6L20.6,55.6L20.6,55.6C20.6,55.6,20.6,55.6,20.6,55.6L20.6,55.6z"/>
	<path class="st5" d="M58.7,39.2c-1.9,5.7-3.9,11.5-5.8,17.2c-0.2,0.6,0.1,1.2,0.6,1.4c0.5,0.2,1.2-0.1,1.4-0.6
		c1.9-5.7,3.9-11.5,5.8-17.2c0.2-0.6-0.1-1.2-0.6-1.4c-0.4-0.2-1,0-1.2,0.4C58.8,39,58.7,39.1,58.7,39.2"/>
	<g>
		<path class="st6" d="M62.1,16.5l-4.9,14.9l-8.3,25.1c-0.5,1.4,0.3,3,1.6,3.4l23.9,7.9c1.3,0.4,2.9-0.4,3.3-1.8l13.3-40
			c0.5-1.4-0.3-3-1.6-3.4l-23.9-7.9C64.1,14.2,62.6,15,62.1,16.5"/>
		<path class="st7" d="M62.5,15.7c-0.2,0.2-0.3,0.5-0.4,0.8l-4.9,14.9l-6.4,19.4l0.1,0l0,0c1,0.1,2,0.2,3,0.2c1,0,2,0,3.1-0.2
			c1.3-0.2,2.6-0.4,3.9-0.7c1.3-0.3,2.5-0.8,3.8-1.3c3.2-1.3,6.4-3.1,9.5-5.5l0,0l0.1,0c3.4-2.6,6.4-5.6,9.1-8.9
			c0.3-0.4,0.7-0.9,1-1.4c0.7-1,1.3-1.9,1.9-2.9c0.9-1.4,1.6-2.9,2.2-4.3c0.4-1,0.8-2.1,1.2-3.2c-0.1,0-0.2-0.1-0.3-0.1l-23.9-7.9
			C64.4,14.3,63.2,14.7,62.5,15.7"/>
		<path class="st5" d="M75.1,45.5c-2.3,6.8-4.6,13.5-6.8,20.3l4.5,1.5c1.2-3.7,2.5-7.4,3.7-11.1c2.8-8.3,5.6-16.5,8.4-24.8
			c1-3.1,2.1-6.2,3.1-9.3l-4.5-1.5C80.7,28.9,77.9,37.2,75.1,45.5"/>
		<path class="st8" d="M63.4,30.3c1.8,0.5,3.8-0.5,4.3-2.4c0.5-1.8-0.5-3.8-2.4-4.3c-1.8-0.5-3.8,0.5-4.3,2.4
			C60.5,27.8,61.6,29.8,63.4,30.3"/>
		<path class="st9" d="M63,20.7c-0.2,0.3-0.4,0.7-0.5,1.1c-0.3,0.9-0.2,1.8,0.3,2.7c0.4,0.8,1.2,1.4,2.1,1.7c1.4,0.4,3-0.1,3.8-1.3
			c0.2-0.3,0.4-0.7,0.5-1.1c0.3-0.9,0.2-1.8-0.3-2.7c-0.4-0.8-1.2-1.4-2.1-1.7C65.5,18.9,63.9,19.5,63,20.7"/>
		<path class="st5" d="M66.2,34.4c-2.4,7-4.7,14-7.1,21c-0.3,0.9-0.6,1.9-0.9,2.8c-0.2,0.6,0.1,1.2,0.6,1.4c0.5,0.2,1.2-0.1,1.4-0.6
			c2.6-7.7,5.2-15.3,7.8-23c0.1-0.2,0.2-0.5,0.3-0.7c0.2-0.6-0.1-1.2-0.6-1.4c-0.4-0.2-1,0-1.2,0.4C66.3,34.2,66.2,34.3,66.2,34.4"
			/>
		<path class="st5" d="M70.5,35.3c-0.1,0.2-0.1,0.4-0.2,0.6c0,0,0,0,0,0c-2,5.8-3.9,11.6-5.9,17.5c-0.7,2-1.4,4.1-2,6.1
			c-0.2,0.5,0.1,1.2,0.6,1.4c0.5,0.2,1.2-0.1,1.4-0.6c2.5-7.5,5-14.9,7.5-22.4c0.1-0.4,0.3-0.8,0.4-1.2c0,0,0,0,0,0l0.2-0.6
			c0.2-0.6-0.1-1.2-0.6-1.4c-0.4-0.2-1,0-1.2,0.4C70.5,35.1,70.5,35.2,70.5,35.3"/>
	</g>
	<g>
		<path class="st10" d="M27.4,57.6l-10.8,5.5c-0.8,0.4-1.8,0.1-2.2-0.7L4.4,42.5c-0.4-0.8-0.1-1.8,0.7-2.2l10.8-5.5
			c0.8-0.4,1.8-0.1,2.2,0.7l10.1,19.9C28.5,56.2,28.2,57.2,27.4,57.6z"/>
		<path class="st11" d="M26,58.4l1.5-0.7c0.8-0.4,1.1-1.4,0.7-2.2L18.1,35.5c-0.4-0.8-1.4-1.1-2.2-0.7l-9.7,4.9
			C8.8,45.4,15.2,56.4,26,58.4z"/>
		
			<rect x="9.5" y="38.8" transform="matrix(0.8918 -0.4525 0.4525 0.8918 -20.4887 12.7526)" class="st12" width="13.8" height="20.9"/>
		
			<ellipse transform="matrix(0.8918 -0.4525 0.4525 0.8918 -15.3085 10.4013)" class="st13" cx="14.1" cy="37.2" rx="0.5" ry="0.5"/>
		
			<ellipse transform="matrix(0.8918 -0.4525 0.4525 0.8918 -24.5448 16.1991)" class="st13" cx="21.6" cy="59.4" rx="0.6" ry="0.6"/>
		<path class="st13" d="M9.4,40.1l3.7-1.9c0.2-0.1,0.3-0.4,0.2-0.6l0,0c-0.1-0.2-0.4-0.3-0.6-0.2l-3.7,1.9c-0.2,0.1-0.3,0.4-0.2,0.6
			l0,0C8.9,40.1,9.1,40.2,9.4,40.1z"/>
		<g>
			<defs>
				
					<rect id="SVGID_1_" x="9.5" y="38.8" transform="matrix(0.8918 -0.4525 0.4525 0.8918 -20.4887 12.7526)" width="13.8" height="20.9"/>
			</defs>
			<clipPath id="SVGID_2_">
				<use xlink:href="#SVGID_1_"  style="overflow:visible;"/>
			</clipPath>
		</g>
	</g>
	<g>
		<path class="st14" d="M76.4,50.5c-0.2,0-0.4,0-0.6,0c-0.2,0-0.5,0.1-0.7,0.2c-0.2,0.1-0.5,0.2-0.7,0.3c-0.5,0.2-0.9,0.5-1.3,0.9
			c-0.7,0.7-1.3,1.6-1.7,2.7c-0.3,1-0.4,2.1-0.3,3.2c0.1,0.6,0.2,1.2,0.4,1.7c0,0.1,0.1,0.1,0.1,0.1c0,0,0,0,0,0c0,0,0.1,0,0.1-0.1
			c0.1,0.1,0.2,0.1,0.3,0.1c0.1,0,0.2,0,0.3,0c0.1,0,0.2,0,0.2,0c0.1,0,0.1-0.1,0.2-0.1c0,0,0.1-0.1,0.1-0.1c0,0.1,0.1,0.2,0.1,0.3
			c0,0,0.1,0.1,0.1,0.1c0,0,0,0,0.1,0c0,0,0.1,0,0.1-0.1c0,0,0-0.1,0-0.1c0-0.1-0.1-0.2-0.1-0.2l0,0l0,0c-0.1-0.1-0.1-0.3-0.1-0.4
			c0-0.1,0-0.1,0-0.2c0,0,0,0,0-0.1c-0.1-0.3-0.1-0.5-0.2-0.8c-0.1-0.5-0.1-1.1,0-1.6c0.1-0.5,0.2-0.9,0.4-1.4
			c0.2-0.4,0.4-0.8,0.6-1.1c0.2-0.3,0.5-0.6,0.7-0.8c0.3-0.2,0.5-0.4,0.9-0.5c0.3-0.1,0.7-0.2,1-0.3c0.2,0,0.3,0,0.5,0
			c0.2,0,0.3,0,0.5,0c0.3,0.1,0.7,0.2,1,0.3c0.4,0.2,0.7,0.4,1,0.6l0,0c0.3,0.3,0.6,0.6,0.9,1c0.3,0.4,0.5,0.8,0.7,1.3
			c0.1,0.4,0.3,0.8,0.3,1.2c0,0-0.1,0.1,0,0.1c0,0.2,0.1,0.4,0.1,0.5c0,0.4,0,0.8,0,1.2l0,0l0,0c0,0,0,0,0,0c0,0,0,0,0,0l0,0
			c0,0.2-0.1,0.4-0.1,0.5l0,0c0,0.1,0,0.2,0.1,0.2c0,0,0,0,0,0c0.1,0,0.1,0,0.1-0.1c0.1-0.4,0.2-0.9,0.2-1.3c0-0.1,0-0.1,0-0.2
			c0,0,0.1,0,0.1,0.1c0,0,0.1,0,0.1,0c0,0,0.1,0,0.1,0c0.1,0,0.2-0.1,0.3-0.1c0,0,0.1-0.1,0.1-0.1c0,0.1,0.1,0.1,0.1,0.1
			c0,0,0.1,0,0.1,0c0,0,0-0.1,0-0.1c0-0.1,0-0.1,0-0.2c0,0,0,0,0,0c0-0.2,0-0.3-0.1-0.5c0-0.1,0-0.1,0-0.2c0-0.2-0.1-0.3-0.1-0.5
			l0-0.1l0,0c-0.3-1-0.7-1.9-1.2-2.7c-0.6-0.9-1.4-1.5-2.3-2c-0.5-0.2-1-0.4-1.5-0.5C77,50.5,76.7,50.5,76.4,50.5"/>
		<path class="st14" d="M72.1,58.5c-0.1,0-0.2,0-0.3,0.1c-0.2,0.1-0.4,0.2-0.6,0.4c-0.2,0.2-0.3,0.4-0.5,0.6c0,0.1-0.1,0.3-0.1,0.4
			c0,0.1,0,0.2,0,0.2c0,0,0,0,0,0.1v0c0,0,0,0,0,0c0,0,0,0.1,0,0.1c0,0,0,0,0,0c0.1,0.6,0.3,1.1,0.4,1.7c0.5,2.3,1,4.6,1.5,6.9
			c0.1,0.5,0.2,1,0.3,1.5c0,0,0.1,0.1,0.1,0.1c0,0,0,0,0,0v0c0,0,0,0,0,0c0,0,0,0,0,0c0,0.1,0.1,0.1,0.1,0.2
			c0.1,0.1,0.1,0.1,0.2,0.1c0.1,0,0.1,0.1,0.2,0.1c0.1,0,0.1,0.1,0.2,0.1v0c0.1,0.1,0.3,0.1,0.5,0.1c0.2,0,0.3,0,0.5,0
			c0,0,0.1,0,0.1,0c0.4,0,0.8,0,1.2-0.1c0,0,0.1,0,0.1-0.1c0,0,0-0.1,0-0.1c0-0.1-0.1-0.1-0.1-0.1c0,0,0,0,0,0c-0.1,0-0.2,0-0.3,0.1
			c-0.1,0-0.2,0-0.2,0c0,0,0,0,0-0.1c0.1-0.6,0.1-1.2,0.1-1.7c0-0.6,0-1.2-0.1-1.8c0-0.6-0.1-1.1-0.2-1.8c-0.1-0.6-0.2-1.1-0.3-1.7
			c-0.2-0.6-0.4-1.2-0.5-1.6c-0.1-0.2-0.1-0.4-0.2-0.5c-0.1-0.3-0.2-0.6-0.4-1c0-0.1-0.1-0.2-0.1-0.3c-0.1-0.3-0.2-0.6-0.4-1
			c-0.1-0.2-0.2-0.4-0.3-0.6c-0.1-0.2-0.2-0.3-0.3-0.4c0,0,0-0.1,0-0.1c0,0-0.1-0.1-0.1-0.1c0,0-0.1,0-0.1,0
			C72.3,58.5,72.2,58.5,72.1,58.5"/>
		<polyline class="st15" points="72.9,70.7 72.9,70.7 72.9,70.7 72.9,70.7 72.9,70.7 		"/>
		<path class="st15" d="M73.5,71.3C73.5,71.3,73.5,71.3,73.5,71.3C73.5,71.3,73.5,71.3,73.5,71.3C73.5,71.3,73.5,71.3,73.5,71.3"/>
		<path class="st15" d="M72.5,58.4c-0.2,0.1-0.4,0.2-0.6,0.2c-0.1,0-0.1,0.1-0.1,0.2c0,0.1,0.1,0.1,0.2,0.1c0.2-0.1,0.4-0.2,0.6-0.2
			c0,0,0.1,0,0.1-0.1c0,0,0-0.1,0-0.1c0,0,0-0.1-0.1-0.1C72.6,58.4,72.6,58.4,72.5,58.4C72.5,58.4,72.5,58.4,72.5,58.4"/>
		<path class="st15" d="M72.6,58.4c-0.3,0.1-0.5,0.2-0.8,0.3c-0.1,0-0.1,0.1-0.1,0.2c0,0.1,0.1,0.1,0.2,0.1c0.2-0.1,0.4-0.2,0.6-0.2
			c0,0,0.1,0,0.1,0c0,0,0.1,0,0.1-0.1c0,0,0-0.1,0-0.1C72.7,58.5,72.7,58.4,72.6,58.4C72.7,58.4,72.6,58.4,72.6,58.4
			C72.6,58.4,72.6,58.4,72.6,58.4"/>
		<path class="st15" d="M72.6,58.3c-0.3,0.1-0.6,0.2-0.9,0.3c-0.1,0-0.1,0.1-0.1,0.2c0,0.1,0.1,0.1,0.2,0.1c0.3-0.1,0.6-0.2,0.9-0.3
			c0,0,0.1,0,0.1-0.1c0,0,0-0.1,0-0.1c0,0,0-0.1-0.1-0.1C72.7,58.3,72.7,58.3,72.6,58.3C72.7,58.3,72.7,58.3,72.6,58.3"/>
		<path class="st15" d="M72.6,58.3c-0.3,0.1-0.6,0.2-0.8,0.3c-0.1,0-0.1,0.1-0.1,0.2c0,0.1,0.1,0.1,0.2,0.1c0.3-0.1,0.5-0.2,0.8-0.3
			c0,0,0.1,0,0.1-0.1c0,0,0-0.1,0-0.1c0,0,0-0.1-0.1-0.1C72.7,58.3,72.7,58.3,72.6,58.3C72.6,58.3,72.6,58.3,72.6,58.3"/>
		<path class="st15" d="M72.6,58.3c-0.3,0.1-0.6,0.2-0.8,0.3c-0.1,0-0.1,0.1-0.1,0.2c0,0.1,0.1,0.1,0.2,0.1c0.3-0.1,0.6-0.2,0.8-0.3
			c0,0,0.1,0,0.1-0.1c0,0,0-0.1,0-0.1c0,0,0-0.1-0.1-0.1C72.7,58.3,72.7,58.3,72.6,58.3C72.6,58.3,72.6,58.3,72.6,58.3"/>
		<path class="st15" d="M72.5,58.3c-0.3,0.1-0.6,0.2-0.8,0.3c-0.1,0-0.1,0.1-0.1,0.2c0,0.1,0.1,0.1,0.2,0.1c0.3-0.1,0.5-0.2,0.8-0.3
			c0,0,0.1,0,0.1-0.1c0,0,0-0.1,0-0.1c0,0,0-0.1-0.1-0.1C72.6,58.3,72.6,58.3,72.5,58.3C72.5,58.3,72.5,58.3,72.5,58.3"/>
		<path class="st15" d="M72.3,58.4c-0.2,0.1-0.4,0.1-0.6,0.2c-0.1,0-0.1,0.1-0.1,0.2c0,0.1,0.1,0.1,0.2,0.1c0.1-0.1,0.2-0.1,0.4-0.1
			c0.1,0,0.1,0,0.2-0.1c0.1,0,0.1-0.1,0.1-0.2C72.5,58.5,72.4,58.4,72.3,58.4C72.3,58.4,72.3,58.4,72.3,58.4"/>
		<path class="st15" d="M72.3,58.4c-0.2,0.1-0.4,0.1-0.6,0.2c-0.1,0-0.1,0.1-0.1,0.2c0,0.1,0.1,0.1,0.2,0.1c0.1-0.1,0.3-0.1,0.4-0.2
			c0,0,0.1,0,0.1,0c0.1,0,0.1-0.1,0.1-0.2C72.4,58.5,72.4,58.4,72.3,58.4C72.3,58.4,72.3,58.4,72.3,58.4"/>
		<path class="st9" d="M82.7,56l-2.8,0.6l-7.4,1.7c-0.4,0.1-0.7,0.6-0.6,1.1l2.6,11.3c0.1,0.5,0.6,0.8,1,0.7L85.7,69
			c0.4-0.1,0.7-0.6,0.6-1.1l-2.6-11.3C83.6,56.2,83.1,55.9,82.7,56"/>
		<path class="st16" d="M72.5,58.3c-0.2,0-0.4,0.2-0.5,0.4c-0.1,0.2-0.1,0.4-0.1,0.7l2.6,11.3c0.1,0.4,0.5,0.7,0.8,0.7
			c0.1,0,0.1,0,0.2,0L85.7,69c0.2,0,0.4-0.2,0.5-0.4c0-0.1,0.1-0.1,0.1-0.2c-0.2,0.1-0.4,0.1-0.6,0.2c-0.4,0.1-0.9,0.2-1.4,0.2
			c-0.5,0.1-0.9,0.1-1.4,0.1c-0.4,0-0.9,0-1.3,0c-0.2,0-0.4,0-0.6-0.1c-0.2,0-0.4-0.1-0.6-0.1c-0.8-0.2-1.5-0.5-2.3-0.9
			c-0.7-0.4-1.4-0.9-1.9-1.4c-1.2-1.1-2.1-2.5-2.7-4c-0.5-1.3-0.8-2.8-0.8-4.2L72.5,58.3z"/>
		<path class="st17" d="M78.3,60.1c-0.9,0.2-1.4,1.4-1.1,2.6c0.3,1.2,1.3,2,2.2,1.8c0.9-0.2,1.4-1.4,1.1-2.6
			C80.1,60.7,79.2,59.9,78.3,60.1"/>
		<path class="st17" d="M78.7,61.4c1,1.8,2.1,3.7,3.1,5.5c-1.1,0.3-2.2,0.5-3.4,0.8C78.5,65.6,78.6,63.5,78.7,61.4"/>
		<path class="st18" d="M78.4,60.1c0.1,0,0.2,0.1,0.4,0.2c0.1,0.1,0.2,0.1,0.3,0.2c0.1,0.1,0.1,0.1,0.2,0.2c0.1,0.1,0.1,0.2,0.2,0.3
			c0,0.1,0.1,0.2,0.1,0.3c0.1,0.2,0.1,0.5,0.2,0.7c0,0.2,0,0.4,0,0.7c0,0.1,0,0.2,0,0.3c0,0.1,0,0.2,0,0.3c0,0.1-0.1,0.2-0.1,0.3
			c0,0-0.1,0.1-0.1,0.1c0,0,0,0-0.1,0.1c0,0,0,0,0,0c0.5,1.2,1.1,2.2,1.8,3.3l0.6-0.1l-1.7-3c0.4-0.5,0.5-1.3,0.3-2
			c-0.3-1.1-1-1.8-1.9-1.8C78.5,60,78.5,60,78.4,60.1"/>
		<polygon class="st19" points="79.5,63.4 79.5,63.4 79.5,63.4 		"/>
	</g>
	<g>
		<g>
			<path class="st20" d="M72.6,62.9C72.6,62.9,72.6,62.9,72.6,62.9c0-0.1,0-0.1,0-0.1c0,0,0,0,0-0.1c0,0,0,0,0-0.1c0,0,0,0,0,0
				c0,0,0,0,0-0.1c0,0,0,0,0,0c0,0,0,0,0,0c0,0,0,0,0,0c0,0,0,0,0,0c0,0,0,0,0,0c0,0,0,0,0,0c0,0,0,0,0,0c0,0,0,0,0,0c0,0,0,0,0,0
				c0,0,0,0-0.1,0c0,0,0,0,0,0c0,0,0,0,0,0c0,0,0,0,0,0c0,0,0,0,0,0c0,0,0,0,0,0c0,0,0,0,0,0c0,0,0,0,0,0c0,0,0,0,0,0c0,0,0,0,0,0
				c0,0,0,0-0.1,0c0,0,0,0,0,0c-0.1,0.1-0.3,0.3-0.5,0.4c0,0,0,0,0,0c0,0,0,0-0.1,0c0,0,0,0,0,0c0,0,0,0-0.1,0c0,0,0,0,0,0
				c0,0,0,0-0.1,0c0,0,0,0,0,0c0,0,0,0-0.1,0c0,0,0,0,0,0c0,0,0,0-0.1,0c0,0,0,0,0,0c0,0,0,0-0.1,0c0,0,0,0,0,0c0,0-0.1,0-0.1,0l0,0
				c-0.1,0-0.2,0.1-0.4,0.1l-45.7,0.3c-0.6,0-1.1,0.3-1.4,0.7l-4.9,6.3c-0.9,1.2-0.1,2.9,1.4,2.9h47.9c0.7,0,1.4-0.4,1.7-1.1
				l0.4-1.1l0,0l2.7-7.9c0-0.1,0-0.1,0-0.2c0,0,0,0,0-0.1C72.6,63,72.6,62.9,72.6,62.9z"/>
			<path class="st10" d="M69.9,71.2l2.7-7.9c0.2-2.2-0.6,0-2,0l-45.7,0.3c-0.6,0-1.1,0.3-1.4,0.7l-4.9,6.3c-0.2,0.2-0.3,0.5-0.3,0.7
				H69.9z"/>
			<path class="st11" d="M70.5,64.6H25.6c-1.1,0-2.1-0.9-2.1-2.1V40.7c0-1.1,0.9-2.1,2.1-2.1h44.9c1.1,0,2.1,0.9,2.1,2.1v21.8
				C72.6,63.6,71.7,64.6,70.5,64.6z"/>
			<polygon class="st13" points="48.9,70.1 38.5,70.1 41,67.4 51.1,67.4 			"/>
			<g>
				<path class="st21" d="M68.6,62.5H27.4c-0.9,0-1.6-0.7-1.6-1.6v-18c0-0.9,0.7-1.6,1.6-1.6h41.2c0.9,0,1.6,0.7,1.6,1.6v18
					C70.2,61.8,69.5,62.5,68.6,62.5z"/>
				<path class="st12" d="M26.3,62.1c14.5-1.8,27.9-13.3,35.3-20.9H27.4c-0.9,0-1.6,0.7-1.6,1.6v18C25.7,61.4,26,61.8,26.3,62.1z"/>
			</g>
		</g>
		<g>
			<path class="st9" d="M54.8,47.5c-3.5,0-6.6-2.7-7.4-3.5v-0.2c0,0,0,0-0.1,0.1c-0.1-0.1-0.1-0.1-0.1-0.1V44
				c-0.8,0.7-3.9,3.5-7.4,3.5c0,0-1.3,9.9,7.4,13.1v0.1c0,0,0.1,0,0.1,0c0,0,0.1,0,0.1,0v-0.1C56.1,57.3,54.8,47.5,54.8,47.5z"/>
			<g>
				<path class="st22" d="M47.4,43.8c0,0-3.5,3.7-7.6,3.7c0,0-1.3,10,7.6,13.2"/>
				<path class="st22" d="M47.5,43.8c0,0,3.5,3.7,7.6,3.7c0,0,1.3,10-7.6,13.2"/>
			</g>
			<g>
				<path class="st8" d="M43.8,51.4c0.7,0.1,1.3,0.2,1.8,0.3c0.5,0.1,1,0.4,1.5,0.6c0.9,0.4,1.6,1,2.3,1.6l-4.6,0
					c0.6-1.2,1.5-2.3,2.7-3.2c0.6-0.4,1.2-0.8,2-1.1c0.8-0.3,1.6-0.6,2.6-0.7c0.2,1,0.2,1.9,0.1,2.7c-0.1,0.8-0.3,1.5-0.5,2.2
					c-0.5,1.4-1.3,2.5-2.2,3.5l-3,3.1l-1.6-3c-0.4-0.8-0.7-1.7-0.9-2.6c-0.1-0.5-0.1-1-0.1-1.6C43.6,52.7,43.7,52.1,43.8,51.4z"/>
			</g>
		</g>
	</g>
	<path class="st23" d="M22.2,18.7"/>
	<polygon class="st23" points="22.2,18.7 22.2,18.7 22.2,18.7 	"/>
	<path class="st23" d="M30.8,15.9"/>
	<path class="st23" d="M30.8,15.9L30.8,15.9L30.8,15.9z"/>
	<g>
		<circle class="st8" cx="81.8" cy="10.6" r="1.4"/>
		<path class="st24" d="M84.6,9c-1.6-1.6-4.1-1.6-5.7,0"/>
		<path class="st24" d="M85.7,7.3c-2.1-2.1-5.6-2.1-7.7,0"/>
		<path class="st24" d="M86.9,5.7c-2.8-2.8-7.4-2.8-10.3,0"/>
	</g>
	<g>
		<g>
			<path class="st25" d="M60.1,22.4c1.2-2.9,0.5-5.9-1.6-8.3c-2-2.4-5.5-3.5-8.5-2.8c-0.5-3-2.7-5.8-5.5-7c-2.8-1.3-6.3-1-8.9,0.6
				c-2.6,1.6-4.4,4.6-4.5,7.7c-2.1,0.4-4,1.7-5,3.5c-1,1.9-1.2,4.2-0.4,6.2L60.1,22.4z"/>
		</g>
		<polygon class="st11" points="40.2,22.3 40.2,17.5 37.7,17.5 41.4,12.3 45.1,17.4 42.7,17.4 42.7,22.3 		"/>
	</g>
</g>
</svg>
