<?xml version="1.0" encoding="utf-8"?>
<!-- Generator: Adobe Illustrator 23.1.0, SVG Export Plug-In . SVG Version: 6.00 Build 0)  -->
<svg version="1.1" id="Capa_1" xmlns="http://www.w3.org/2000/svg" xmlns:xlink="http://www.w3.org/1999/xlink" x="0px" y="0px"
	 viewBox="0 0 300 300" style="enable-background:new 0 0 300 300;" xml:space="preserve">
<style type="text/css">
	.st0{fill:#FFFFFF;}
</style>
<path class="st0" d="M36.7,250.1h139.8c20.2,0,36.8-16.6,36.8-36.8v-15.5l66.6,27.6c7.4,2.9,16.2-0.4,19.1-8.1
	c0.7-1.8,1.1-3.7,1.1-5.5V88.2c0-8.1-6.6-14.7-14.7-14.7c-1.8,0-3.7,0.4-5.5,1.1l-66.6,27.6V86.7c0-20.2-16.6-36.8-36.8-36.8H36.7
	c-20.2,0-36.8,16.6-36.8,36.8v126.6C-0.1,233.5,16.4,250.1,36.7,250.1z M285.4,88.2v123.3l-72.1-29.8V118L285.4,88.2z M14.6,86.7
	c0-12.1,9.9-22.1,22.1-22.1h139.8c12.1,0,22.1,9.9,22.1,22.1v126.6c0,12.1-9.9,22.1-22.1,22.1H36.7c-12.1,0-22.1-9.9-22.1-22.1
	C14.6,213.3,14.6,86.7,14.6,86.7z"/>
</svg>
