<?xml version="1.0" encoding="utf-8"?>
<!-- Generator: Adobe Illustrator 19.2.1, SVG Export Plug-In . SVG Version: 6.00 Build 0)  -->
<svg version="1.1" id="Layer_1" xmlns="http://www.w3.org/2000/svg" xmlns:xlink="http://www.w3.org/1999/xlink" x="0px" y="0px"
	 viewBox="0 0 60 60" style="enable-background:new 0 0 60 60;" xml:space="preserve">
<style type="text/css">
	.st0{fill:#FFFFFF;}
	.st1{fill:#DBA64C;}
</style>
<title>ic_other</title>
<path class="st0" d="M36,18.4h3.8l-4.2-4.2V18C35.5,18.2,35.7,18.4,36,18.4C35.9,18.4,36,18.4,36,18.4z"/>
<path class="st1" d="M30,0C13.4,0,0,13.4,0,30s13.4,30,30,30s30-13.4,30-30S46.6,0,30,0z M44,24.8v22.9c0,1.4-1.1,2.5-2.5,2.5
	c0,0,0,0,0,0H18.6c-1.4,0-2.6-1.1-2.6-2.5c0,0,0-0.1,0-0.1V12.4c0-1.4,1.1-2.5,2.5-2.6c0,0,0.1,0,0.1,0h15.7l9.7,9.8V24.8z"/>
<path class="st1" d="M33.4,18v-5.9H18.6c-0.2,0-0.4,0.2-0.5,0.4v35.1c0,0.2,0.2,0.4,0.5,0.5h22.9c0.2,0,0.4-0.2,0.5-0.5V20.5H36
	C34.6,20.5,33.4,19.4,33.4,18z M21.9,19c0-0.2,0.2-0.4,0.5-0.5h7.9c0.2,0,0.4,0.2,0.5,0.5v0.9c0,0.2-0.2,0.4-0.5,0.5h-7.9
	c-0.2,0-0.4-0.2-0.5-0.5V19z M21.9,22.7c0-0.2,0.2-0.4,0.5-0.5h7.9c0.2,0,0.4,0.2,0.5,0.5v0.9c0,0.2-0.2,0.4-0.5,0.5h-7.9
	c-0.2,0-0.4-0.2-0.5-0.5V22.7z M38,41.8c0,0.2-0.2,0.4-0.5,0.5H22.4c-0.2,0-0.4-0.2-0.5-0.5v-0.9c0-0.2,0.2-0.4,0.5-0.5h15.1
	c0.2,0,0.4,0.2,0.5,0.5V41.8z M38,38.2c0,0.2-0.2,0.4-0.5,0.5H22.4c-0.2,0-0.4-0.2-0.5-0.5v-0.9c0-0.2,0.2-0.4,0.5-0.5h15.1
	c0.2,0,0.4,0.2,0.5,0.5V38.2z M38,34.5c0,0.2-0.2,0.4-0.5,0.5H22.4c-0.2,0-0.4-0.2-0.5-0.5v-0.9c0-0.2,0.2-0.4,0.5-0.5h15.1
	c0.2,0,0.4,0.2,0.5,0.5V34.5L38,34.5z M38,30.8c0,0.2-0.2,0.4-0.5,0.5H22.4c-0.2,0-0.4-0.2-0.5-0.5v-0.9c0-0.2,0.2-0.4,0.5-0.5h15.1
	c0.2,0,0.4,0.2,0.5,0.5V30.8z M38,26.3v0.9c0,0.2-0.2,0.4-0.5,0.5H22.4c-0.2,0-0.4-0.2-0.5-0.5v-0.9c0-0.2,0.2-0.4,0.5-0.5h15.1
	C37.7,25.8,37.9,26,38,26.3L38,26.3z"/>
</svg>
