<svg id="Layer_1" data-name="Layer 1" xmlns="http://www.w3.org/2000/svg" viewBox="0 0 440 380"><defs><style>.cls-1{fill:#487771;}</style></defs><title>ic_plan_dark_green</title><path class="cls-1" d="M432.48,136.1a29.76,29.76,0,0,0-22.6-10.3V102.6A47.61,47.61,0,0,0,362,54.9H236.28a28.38,28.38,0,0,1-24.11-13.8L201.72,23.4A49.11,49.11,0,0,0,160.33,0H78A48.3,48.3,0,0,0,29.93,50.5L33.34,126H30.13a30.17,30.17,0,0,0-22.7,10.2A29.77,29.77,0,0,0,.29,160L25.1,338.5A48.44,48.44,0,0,0,72.82,380H367.48a48.55,48.55,0,0,0,47.82-41.7L439.72,160A30.16,30.16,0,0,0,432.48,136.1ZM57.65,28.9A28,28,0,0,1,77.95,20h82.28a28.38,28.38,0,0,1,24.11,13.8l10.45,17.7a48.72,48.72,0,0,0,41.39,23.6H361.86a27.57,27.57,0,0,1,27.83,27.7V126H53.43L49.92,49.7A28.46,28.46,0,0,1,57.65,28.9ZM419.93,157.2L395.41,335.6A28.35,28.35,0,0,1,367.59,360H72.92A28.35,28.35,0,0,1,45.1,335.7l-25-178.4a9.53,9.53,0,0,1,2.41-7.9A9.87,9.87,0,0,1,30,146H410a9.55,9.55,0,0,1,7.53,3.4A9.32,9.32,0,0,1,419.93,157.2Z" transform="translate(0)"/><path class="cls-1" d="M306.7,197.5a9.76,9.76,0,0,0-9.64-.3l-41.79,22V206a10.32,10.32,0,0,0-10.35-10H138.43a9.82,9.82,0,0,0-9.85,10v93.9a10,10,0,0,0,9.85,10.1H244.82a10.4,10.4,0,0,0,10.35-10.1V283l41.29,25.5a9.88,9.88,0,0,0,5.22,1.5,8.85,8.85,0,0,0,4.72-1.3,9.82,9.82,0,0,0,5-8.7V206A9.88,9.88,0,0,0,306.7,197.5ZM235.07,290h-86.4V216h86.4v74Zm56.26-7.9-36.17-22.6V241.8l36.17-19.2v59.5Z" transform="translate(0)"/></svg>