<?xml version="1.0" encoding="utf-8"?>
<!-- Generator: Adobe Illustrator 23.1.0, SVG Export Plug-In . SVG Version: 6.00 Build 0)  -->
<svg version="1.1" id="Layer_1" xmlns="http://www.w3.org/2000/svg" xmlns:xlink="http://www.w3.org/1999/xlink" x="0px" y="0px"
	 viewBox="0 0 120 120" style="enable-background:new 0 0 120 120;" xml:space="preserve">
<style type="text/css">
	.st0{fill:#9ECDF5;}
	.st1{fill:#6185AC;}
</style>
<path class="st0" d="M120,15v90c0,8.3-6.7,15-15,15H15c-8.3,0-15-6.7-15-15V15C0,6.7,6.7,0,15,0h90C113.3,0,120,6.7,120,15z"/>
<g>
	<g>
		<g>
			<path class="st1" d="M20.6,78.8c-2.7,0-4.8,2.2-4.8,4.8s2.2,4.8,4.8,4.8s4.8-2.2,4.8-4.8S23.3,78.8,20.6,78.8z"/>
			<rect x="19" y="72.4" class="st1" width="3.2" height="3.2"/>
			<rect x="19" y="65.9" class="st1" width="3.2" height="3.2"/>
			<rect x="19" y="59.5" class="st1" width="3.2" height="3.2"/>
		</g>
		<g>
			<path class="st1" d="M99.4,59.5c-2.7,0-4.8,2.2-4.8,4.8c0,2.7,2.2,4.8,4.8,4.8c2.7,0,4.8-2.2,4.8-4.8l0,0
				C104.2,61.7,102,59.5,99.4,59.5z"/>
			<rect x="97.8" y="72.4" class="st1" width="3.2" height="3.2"/>
			<rect x="97.8" y="78.8" class="st1" width="3.2" height="3.2"/>
			<rect x="97.8" y="85.2" class="st1" width="3.2" height="3.2"/>
		</g>
	</g>
	<g>
		<path class="st1" d="M55.5,46.8c0-0.1-0.1-0.2-0.1-0.3l-1.2-2c-0.2-0.3-0.4-0.6-0.7-0.8c-1.2-1.1-3-1.3-4.5-0.4l-0.7,0.4L47,44.5
			c-0.9,0.5-1.5,1.4-1.7,2.3c-0.2,0.9-0.1,2,0.4,2.8l1.2,2c0.7,1.2,2,1.8,3.2,1.8c0.7,0,1.3-0.2,2-0.5l2-1.2
			C55.8,50.6,56.4,48.5,55.5,46.8z"/>
		<path class="st1" d="M67.6,53.9c0.1-0.4,0-0.8-0.2-1.1s-0.5-0.6-0.9-0.6c-0.4-0.1-0.8,0-1.1,0.2l-12,7.3c-0.7,0.4-0.9,1.3-0.5,2
			c0.3,0.4,0.7,0.7,1.2,0.7c0.3,0,0.5-0.1,0.7-0.2l12-7.3C67.3,54.6,67.5,54.3,67.6,53.9z"/>
		<path class="st1" d="M69.9,55.1l-14,8.5c-0.3,0.2-0.6,0.5-0.6,0.9c-0.1,0.4,0,0.8,0.2,1.1c0.2,0.3,0.5,0.6,0.9,0.6
			c0.1,0,0.2,0,0.3,0c0.3,0,0.5-0.1,0.7-0.2l14-8.5c0.7-0.4,0.9-1.3,0.5-2C71.4,54.9,70.5,54.7,69.9,55.1z"/>
		<path class="st1" d="M83.3,62.2c5.6-1.8,9.5-6.7,10-12.5l0.6-0.4c2.8-1.7,3.7-5.3,2-8.1L84.7,22.9c-1.7-2.8-5.3-3.7-8.1-2L73.1,23
			c-0.6-0.1-1.1-0.1-1.7-0.1c-0.9,0-1.8,0.1-2.6,0.3c-3.5-4.4-8.9-7-14.7-7c-10.3,0-18.6,8.3-18.8,18.5c-6.8,0.8-12.1,6.6-12.1,13.6
			c0,6.2,4.2,11.6,10.1,13.1v13.9c0,0.8,0.2,1.6,0.6,2.2c-0.5,0.3-0.9,0.7-1.1,1.2L26,92.5c-0.3,0.7-0.4,1.3-0.3,2l0,0l0.1,5.4
			c0,2.2,1.7,3.9,4,3.9h60.7c2.2,0,3.9-1.9,3.9-4.3v-5.1l0,0c0.1-0.7-0.1-1.5-0.6-2.2l-9.9-13.8c-0.3-0.4-0.7-0.7-1.2-1
			c0.4-0.6,0.6-1.4,0.6-2.1V62.2z M40.4,49.9l11.1,18.3c1.1,1.8,3.1,2.8,5.1,2.8c1,0,2.1-0.3,3.1-0.9l20.5-12.5v17.6
			c0,0.7-0.6,1.3-1.2,1.3H37.7c-0.7,0-1.2-0.6-1.2-1.3V48c0-0.7,0.6-1.2,1.2-1.2h1.8C39.5,47.8,39.8,48.9,40.4,49.9z M83.3,58.8
			v-3.1l6.4-3.9C88.6,55,86.3,57.5,83.3,58.8z M78.1,23.3c1.4-0.9,3.3-0.4,4.2,1l11.1,18.3c0.7,1.1,0.6,2.5-0.2,3.5
			c-0.2,0.3-0.5,0.5-0.8,0.7l-2.2,1.3l-7,4.3l-3.1,1.9l-22,13.4c-1.4,0.9-3.3,0.4-4.2-1L42.8,48.4c-0.3-0.5-0.5-1.1-0.4-1.6
			c0-1,0.5-2,1.5-2.6l0.9-0.6l28.5-17.4l3.3-2L78.1,23.3z M33.4,48v10.1c-4.1-1.5-7-5.4-7-9.9c0-5.8,4.7-10.5,10.6-10.5
			c0.4,0,0.8-0.2,1.1-0.5s0.5-0.7,0.4-1.1c0-0.4,0-0.7,0-1.1c0-8.6,7-15.7,15.7-15.7c5.1,0,9.9,2.5,12.8,6.6
			c0.1,0.2,0.3,0.4,0.6,0.5L42.4,41.8c-0.8,0.5-1.4,1.1-1.9,1.9h-2.7C35.3,43.7,33.4,45.6,33.4,48z M91.2,99.5
			c0,0.5-0.2,1.2-0.7,1.2H29.8c-0.3,0-0.9-0.1-0.9-0.8V97c0.3,0,0.6,0.1,1,0.1h60.7c0.3,0,0.5,0,0.7,0L91.2,99.5L91.2,99.5z
			 M52.4,93.9l1.2-3.6h12.7l1.2,3.6H52.4z M91,93.9c-0.1,0-0.3,0-0.5,0H70.8c0-0.2-0.1-0.4-0.1-0.6L69.2,89
			c-0.4-1.1-1.5-1.9-2.6-1.9H53.4c-1.2,0-2.3,0.8-2.6,1.9l-1.5,4.3c-0.1,0.2-0.1,0.4-0.1,0.6H29.8c-0.5,0-0.8-0.1-1-0.2l6.8-13.6
			c0.2-0.2,0.9-0.5,1.7-0.5h41.9c1,0,1.9,0.4,2.1,0.6L91,93.9z"/>
		<path class="st1" d="M83.3,48.8c0.4,0.1,0.7,0.2,1.1,0.2c0.7,0,1.3-0.2,2-0.5c0.5-0.3,1-0.8,1.3-1.3c1-0.1,1.8-0.5,2.4-1.1
			c0.7-0.7,1.1-1.7,1.1-2.7c-0.1-2-1.7-3.7-3.8-3.7h-0.1c-0.3,0-0.5,0-0.7,0.1c-1,0.2-1.9,0.8-2.4,1.7c-0.9,0.1-1.8,0.5-2.5,1.2
			c-0.4,0.4-0.7,0.9-0.9,1.5c-0.1,0.4-0.2,0.8-0.2,1.2c0,0.7,0.2,1.3,0.6,1.9C81.7,48,82.4,48.6,83.3,48.8z M88.2,43.6
			c0,0.2-0.1,0.4-0.3,0.5c-0.2-0.6-0.5-1.1-0.9-1.5c0.1-0.1,0.3-0.1,0.4-0.1c0.2,0,0.5,0.1,0.6,0.3l0.1,0.1l0,0
			C88.3,43.1,88.3,43.4,88.2,43.6z M83.9,44.5c0.4-0.3,1-0.1,1.3,0.3c0.3,0.4,0.1,1-0.3,1.2c-0.4,0.3-1,0.1-1.3-0.3
			C83.3,45.3,83.5,44.7,83.9,44.5z"/>
	</g>
</g>
</svg>
