<?xml version="1.0" encoding="utf-8"?>
<!-- Generator: Adobe Illustrator 23.1.0, SVG Export Plug-In . SVG Version: 6.00 Build 0)  -->
<svg version="1.1" id="Layer_1" xmlns="http://www.w3.org/2000/svg" xmlns:xlink="http://www.w3.org/1999/xlink" x="0px" y="0px"
	 viewBox="0 0 150 150" style="enable-background:new 0 0 150 150;" xml:space="preserve">
<style type="text/css">
	.st0{fill:#FFFFFF;}
	.st1{fill:#B3B3B3;}
</style>
<g>
	<path class="st0" d="M142.91,63.52h-18.48V28.11c0-2.23-1.82-4.05-4.06-4.05H98.44V11.19c0-1.85-1.51-3.36-3.36-3.36H55.15
		c-1.85,0-3.35,1.51-3.35,3.36v12.87H30.08c-2.24,0-4.05,1.82-4.05,4.05v35.41H7.1c-1.71,0-3.1,1.39-3.1,3.09v26.07
		c0,1.7,1.39,3.09,3.1,3.09h60.63c1.7,0,3.09-1.39,3.09-3.09V76.51h8.35v16.16c0,1.7,1.39,3.09,3.09,3.09h60.64
		c1.7,0,3.09-1.39,3.09-3.09V66.61C146,64.9,144.61,63.52,142.91,63.52z M33.7,83.24H17.92v-6.96h10.81
		c0.42,0.15,0.88,0.24,1.36,0.24h3.61V83.24z M107.95,83.24H92.17v-6.72h15.78V83.24z M117.92,63.52H82.27
		c-1.7,0-3.09,1.39-3.09,3.09v3.4h-8.35v-3.4c0-1.7-1.39-3.09-3.09-3.09H32.55V30.58H51.8v12.87c0,1.85,1.5,3.36,3.35,3.36h39.92
		c1.85,0,3.36-1.51,3.36-3.36V30.58h19.48V63.52z"/>
	<rect x="92.17" y="76.51" class="st1" width="15.78" height="6.72"/>
	<path class="st1" d="M33.7,76.51v6.72H17.92v-6.96h10.81c0.42,0.15,0.88,0.24,1.36,0.24H33.7z"/>
	<path class="st0" d="M67.73,103.42H7.1c-1.71,0-3.1,1.39-3.1,3.1v26.06c0,1.7,1.39,3.09,3.1,3.09h4.79v6.5h6.27v-6.5h38.75v6.5
		h6.26v-6.5h4.57c1.7,0,3.09-1.39,3.09-3.09v-26.06C70.82,104.81,69.44,103.42,67.73,103.42z M33.7,123.61H17.92v-7.43H33.7V123.61z
		"/>
	<rect x="17.92" y="116.18" class="st1" width="15.78" height="7.43"/>
	<path class="st0" d="M142.91,103.42H82.27c-1.7,0-3.09,1.39-3.09,3.1v26.06c0,1.7,1.39,3.09,3.09,3.09h4.34v6.5h6.26v-6.5h37.35
		v6.5h6.27v-6.5h6.42c1.7,0,3.09-1.39,3.09-3.09v-26.06C146,104.81,144.61,103.42,142.91,103.42z M107.95,123.61H92.17v-7.43h15.78
		V123.61z"/>
	<rect x="92.17" y="116.18" class="st1" width="15.78" height="7.43"/>
</g>
</svg>
