<?xml version="1.0" encoding="utf-8"?>
<!-- Generator: Adobe Illustrator 23.1.0, SVG Export Plug-In . SVG Version: 6.00 Build 0)  -->
<svg version="1.1" id="Layer_1" xmlns="http://www.w3.org/2000/svg" xmlns:xlink="http://www.w3.org/1999/xlink" x="0px" y="0px"
	 viewBox="0 0 150 150" style="enable-background:new 0 0 150 150;" xml:space="preserve">
<style type="text/css">
	.st0{fill:#88A5CE;}
	.st1{fill:#FFFFFF;}
</style>
<g>
	<circle class="st0" cx="81.33" cy="75" r="52.83"/>
	<g>
		<path class="st1" d="M62.21,103.21c1.49,0,2.98-0.57,4.12-1.7l19.7-19.7c1.09-1.09,1.7-2.57,1.7-4.12V39.63
			c0-3.21-2.61-5.82-5.82-5.82c-3.21,0-5.82,2.61-5.82,5.82v35.65l-18,18c-2.27,2.27-2.27,5.96,0,8.23
			C59.23,102.64,60.72,103.21,62.21,103.21z"/>
		<path class="st1" d="M81.23,10.23c-3.25,0-5.89,2.64-5.89,5.89s2.64,5.89,5.89,5.89c29.22,0,52.99,23.77,52.99,52.99
			s-23.77,52.99-52.99,52.99c-27.71,0-50.52-21.38-52.8-48.51h12.73l-18.8-30.45L4,79.48h12.63c2.31,33.63,30.4,60.29,64.61,60.29
			c35.71,0,64.77-29.05,64.77-64.77S116.95,10.23,81.23,10.23z"/>
		<circle class="st1" cx="81.46" cy="112.16" r="3.58"/>
		<circle class="st1" cx="108.77" cy="99.18" r="3.58"/>
		<circle class="st1" cx="117.73" cy="75" r="3.58"/>
		<circle class="st1" cx="108.77" cy="49.93" r="3.58"/>
	</g>
</g>
</svg>
