<?xml version="1.0" encoding="utf-8"?>
<!-- Generator: Adobe Illustrator 23.1.0, SVG Export Plug-In . SVG Version: 6.00 Build 0)  -->
<svg version="1.1" id="Capa_1" xmlns="http://www.w3.org/2000/svg" xmlns:xlink="http://www.w3.org/1999/xlink" x="0px" y="0px"
	 viewBox="0 0 300 300" style="enable-background:new 0 0 300 300;" xml:space="preserve">
<style type="text/css">
	.st0{fill:#FFFFFF;}
	.st1{fill-rule:evenodd;clip-rule:evenodd;fill:#FFFFFF;}
</style>
<g>
	<g>
		<path shape-rendering="auto" image-rendering="auto" color-rendering="auto" class="st0" d="M150,0c-2.1,0-4.3,1.1-6.4,2.1
			c0,0-9.6,7.5-21.4,17.1c-20.4,16.1-43.9,28.9-68.6,37.5c-12.9,4.3-24.6,8.6-24.6,8.6c-4.3,1.1-7.5,5.4-7.5,9.6v46.1
			c0,79.3,50.4,151.1,125.4,177.9c1.1,0,2.1,1.1,3.2,1.1l0,0c1.1,0,2.1,0,3.2-1.1c75-26.8,125.4-98.6,125.4-177.9V75
			c0-4.3-3.2-8.6-7.5-9.6c0,0-11.8-4.3-24.6-8.6c-24.6-8.6-48.2-21.4-68.6-37.5c-10.7-8.6-21.4-17.1-21.4-17.1
			C154.3,1.1,152.1,0,150,0L150,0z M150,24.6c3.2,3.2,6.4,5.4,13.9,11.8c22.5,18.2,48.2,32.1,75,40.7c9.6,3.2,12.9,4.3,17.1,5.4
			v38.6c0,69.6-42.9,130.7-107.1,156.4C84.6,251.8,41.8,190.7,41.8,121.1V82.5c4.3-1.1,8.6-3.2,17.1-5.4c27.9-9.6,52.5-22.5,75-40.7
			C143.6,30,146.8,27.9,150,24.6z"/>
		<path class="st1" d="M150,117.9c-11.8,0-21.4,9.6-21.4,21.4l0,0c0,7.5,4.3,15,10.7,18.2v24.6c0,6.4,4.3,10.7,10.7,10.7
			s10.7-4.3,10.7-10.7l0,0v-24.6c6.4-4.3,10.7-10.7,10.7-18.2C171.4,127.5,161.8,117.9,150,117.9L150,117.9z"/>
	</g>
</g>
</svg>
