<?xml version="1.0" encoding="utf-8"?>
<!-- Generator: Adobe Illustrator 21.1.0, SVG Export Plug-In . SVG Version: 6.00 Build 0)  -->
<svg version="1.1" id="Layer_1" xmlns="http://www.w3.org/2000/svg" xmlns:xlink="http://www.w3.org/1999/xlink" x="0px" y="0px"
	 viewBox="0 0 62 49" style="enable-background:new 0 0 62 49;" xml:space="preserve">
<style type="text/css">
	.st0{fill:#FFFFFF;}
</style>
<g>
	<g>
		<path class="st0" d="M52.5,37.2c0-0.1-0.6-1.6-1.3-3.5c1-0.7,1.6-1.8,1.6-3.1V27c0-0.4,0-1-0.3-1.4c0-0.1-0.7-1.7-1.4-3.5
			c1-0.7,1.6-1.8,1.6-3.1v-3.6c0-0.4-0.1-1-0.3-1.4c-0.1-0.4-3.9-10.2-3.9-10.2c-0.3-0.6-1-1.1-1.8-1.1H15.1c-0.8,0-1.5,0.4-1.8,1.1
			c0,0-3.8,9.7-3.9,10.2c-0.2,0.5-0.2,1.1-0.2,1.4V19c0,1.2,0.6,2.4,1.6,3.1c-0.7,1.8-1.3,3.3-1.3,3.5c-0.2,0.5-0.2,1.1-0.2,1.4v3.6
			c0,1.2,0.6,2.3,1.6,3.1c-0.7,1.8-1.3,3.3-1.3,3.5c-0.2,0.5-0.2,1.1-0.2,1.4v3.6c0,2.3,2,4.1,4.5,4.1h34.7c2.5,0,4.5-1.8,4.5-4.1
			v-3.6C52.8,38.3,52.8,37.6,52.5,37.2z M16.4,4.8h29.2c0.4,0,0.7,0.3,0.9,0.6l1.1,3.4c0.1,0.5-0.2,0.9-0.7,0.9H15
			c-0.5,0-0.8-0.5-0.7-0.9l1.1-3.4C15.6,5,15.9,4.8,16.4,4.8z M48.3,44.1H13.6c-1.1,0-2-0.8-2-1.8v-3.6c0-1,0.9-1.8,2-1.8h34.7
			c1.1,0,2,0.8,2,1.8v3.6h0C50.3,43.3,49.4,44.1,48.3,44.1z M48.3,32.4H13.6c-1.1,0-2-0.8-2-1.8V27c0-1,0.9-1.8,2-1.8h34.7
			c1.1,0,2,0.8,2,1.8v3.6h0C50.3,31.6,49.4,32.4,48.3,32.4z M50.4,19c0,1-0.9,1.8-2,1.8H13.6c-1.1,0-2-0.8-2-1.8v-3.6h0
			c0-1,0.9-1.8,2-1.8h34.7c1.1,0,2,0.8,2,1.8V19z"/>
		<ellipse class="st0" cx="45.8" cy="40.4" rx="1.8" ry="1.8"/>
		<ellipse class="st0" cx="45.8" cy="28.8" rx="1.8" ry="1.8"/>
		<ellipse class="st0" cx="45.8" cy="17.2" rx="1.8" ry="1.8"/>
	</g>
	<path class="st0" d="M35.8,39.3c-0.6,0-1.1,0.5-1.1,1.1s0.5,1.1,1.1,1.1h5.3c0.6,0,1.1-0.5,1.1-1.1s-0.5-1.1-1.1-1.1H35.8z"/>
	<path class="st0" d="M35.8,27.7c-0.6,0-1.1,0.5-1.1,1.1s0.5,1.1,1.1,1.1h5.3c0.6,0,1.1-0.5,1.1-1.1s-0.5-1.1-1.1-1.1H35.8z"/>
	<path class="st0" d="M35.8,16.1c-0.6,0-1.1,0.5-1.1,1.1s0.5,1.1,1.1,1.1h5.3c0.6,0,1.1-0.5,1.1-1.1s-0.5-1.1-1.1-1.1H35.8z"/>
</g>
</svg>
