<svg xmlns="http://www.w3.org/2000/svg" width="60" height="60" viewBox="0 0 60 60">
  <metadata><?xpacket begin="﻿" id="W5M0MpCehiHzreSzNTczkc9d"?>
<x:xmpmeta xmlns:x="adobe:ns:meta/" x:xmptk="Adobe XMP Core 5.6-c140 79.160451, 2017/05/06-01:08:21        ">
   <rdf:RDF xmlns:rdf="http://www.w3.org/1999/02/22-rdf-syntax-ns#">
      <rdf:Description rdf:about=""/>
   </rdf:RDF>
</x:xmpmeta>
                                                                                                    
                                                                                                    
                                                                                                    
                                                                                                    
                                                                                                    
                                                                                                    
                                                                                                    
                                                                                                    
                                                                                                    
                                                                                                    
                                                                                                    
                                                                                                    
                                                                                                    
                                                                                                    
                                                                                                    
                                                                                                    
                                                                                                    
                                                                                                    
                                                                                                    
                                                                                                    
                           
<?xpacket end="w"?></metadata>
<defs>
    <style>
      .cls-1 {
        fill: #fff;
        fill-rule: evenodd;
      }
    </style>
  </defs>
  <path id="ic" class="cls-1" d="M59.982,30.01a28.905,28.905,0,0,1-8.743,21.233A28.917,28.917,0,0,1,30,59.986,28.908,28.908,0,0,1,8.766,51.243,28.9,28.9,0,0,1,.023,30.01,28.909,28.909,0,0,1,8.766,8.776,28.917,28.917,0,0,1,30,.032,28.926,28.926,0,0,1,51.239,8.776,28.915,28.915,0,0,1,59.982,30.01Zm-5,0a24.061,24.061,0,0,0-7.34-17.643A24.064,24.064,0,0,0,30,5.029a24.068,24.068,0,0,0-17.646,7.337A24.058,24.058,0,0,0,5.02,30.01a24.053,24.053,0,0,0,7.337,17.642A24.056,24.056,0,0,0,30,54.99a24.052,24.052,0,0,0,17.644-7.338A24.057,24.057,0,0,0,54.987,30.01ZM30,15.021A14.928,14.928,0,0,1,44.993,30.01,14.927,14.927,0,0,1,30,45,14.927,14.927,0,0,1,15.012,30.01,14.928,14.928,0,0,1,30,15.021Z"/>
</svg>
