<svg id="Layer_1" data-name="Layer 1" xmlns="http://www.w3.org/2000/svg" viewBox="0 0 120 120"><defs><style>.cls-1{fill:#6373a1;}.cls-2,.cls-3{fill:#fff;}.cls-3{stroke:#6373a1;stroke-miterlimit:10;}</style></defs><title>ic_record_lg</title><rect class="cls-1" width="120" height="120" rx="15" ry="15"/><circle class="cls-2" cx="60" cy="60" r="40"/><rect class="cls-1" x="33.33" y="45" width="40" height="30" rx="5" ry="5"/><path class="cls-1" d="M61.71,58.71l21.48-12.4a1.5,1.5,0,0,1,2.25,1.3V72.39a1.51,1.51,0,0,1-2.26,1.3L61.71,61.3A1.5,1.5,0,0,1,61.71,58.71Z"/><circle class="cls-2" cx="41.33" cy="60" r="5"/><path class="cls-2" d="M49.43,55.58a18.19,18.19,0,0,1,2.74-.19,4.64,4.64,0,0,1,2.94.72,2.31,2.31,0,0,1,.84,1.9,2.41,2.41,0,0,1-1.61,2.24v0A2.29,2.29,0,0,1,55.55,62c0.28,1,.57,2.21.74,2.56H54.19a11.41,11.41,0,0,1-.63-2.12C53.31,61.3,52.92,61,52.08,61H51.46v3.58h-2v-9Zm2,3.91h0.81a1.38,1.38,0,0,0,1.63-1.31,1.28,1.28,0,0,0-1.51-1.27,5,5,0,0,0-.93.07v2.51Z"/><path class="cls-2" d="M62.84,60.71H59.5v2.16h3.74v1.68h-5.8V55.46H63v1.69H59.5V59h3.35v1.67Z"/><path class="cls-2" d="M71.32,64.3a5.81,5.81,0,0,1-2.33.39c-3.14,0-4.76-2-4.76-4.55a4.64,4.64,0,0,1,5-4.83,5.38,5.38,0,0,1,2.24.4L71,57.35A4.43,4.43,0,0,0,69.28,57a3,3,0,0,0,0,6,5.15,5.15,0,0,0,1.71-.3Z"/><circle class="cls-3" cx="90" cy="30" r="15"/><g id="_Group_" data-name="&lt;Group&gt;"><path id="_Path_" data-name="&lt;Path&gt;" class="cls-1" d="M96.49,29.17a0.9,0.9,0,0,0-1.81,0,4.68,4.68,0,1,1-9.36,0,0.9,0.9,0,1,0-1.81,0,6.49,6.49,0,0,0,5.58,6.42v3.56H86.77a0.9,0.9,0,1,0,0,1.81h6.46a0.9,0.9,0,1,0,0-1.81H90.91V35.59A6.49,6.49,0,0,0,96.49,29.17Z"/><path id="_Compound_Path_" data-name="&lt;Compound Path&gt;" class="cls-1" d="M90,19h0a3.51,3.51,0,0,0-3.51,3.51v6.63A3.51,3.51,0,0,0,90,32.62h0a3.51,3.51,0,0,0,3.51-3.51V22.48A3.51,3.51,0,0,0,90,19Z"/></g></svg>