<?xml version="1.0" encoding="utf-8"?>
<!-- Generator: Adobe Illustrator 21.1.0, SVG Export Plug-In . SVG Version: 6.00 Build 0)  -->
<svg version="1.1" id="Layer_1" xmlns="http://www.w3.org/2000/svg" xmlns:xlink="http://www.w3.org/1999/xlink" x="0px" y="0px"
	 viewBox="0 0 62 49" style="enable-background:new 0 0 62 49;" xml:space="preserve">
<style type="text/css">
	.st0{fill:#FFFFFF;}
</style>
<g>
	<path class="st0" d="M8.2,42.4c-1.1,0-2.1,0.7-2.5,1.7H3.2c-0.6,0-1.1,0.5-1.1,1.1s0.5,1.1,1.1,1.1h2.4c0.6,1.4,2.2,2,3.6,1.4
		c0.6-0.3,1.1-0.8,1.4-1.4h47.9c0.6,0,1.1-0.5,1.1-1.1s-0.5-1.1-1.1-1.1H10.7C10.2,43.1,9.3,42.4,8.2,42.4z"/>
	<path class="st0" d="M56.5,1.1h-51c-2.2,0-4,1.8-4,4V37c0,2.2,1.8,4,4,4h51c2.2,0,4-1.8,4-4V5.1C60.6,2.9,58.7,1.1,56.5,1.1z
		 M55.8,33.9c0,1.8-1.5,3.3-3.4,3.3H9.6c-1.9,0-3.4-1.5-3.4-3.3V8.2c0-1.8,1.5-3.3,3.4-3.3h42.8c1.9,0,3.4,1.5,3.4,3.3V33.9z"/>
	<path class="st0" d="M37.8,20.4c0.3,0.4,0.2,1-0.2,1.4l-8.8,5.4c-0.1,0.1-0.2,0.1-0.3,0.1c-0.5,0-0.9-0.4-1-0.9V15.8
		c0-0.5,0.3-0.9,0.8-0.9c0.2,0,0.3,0,0.5,0.1l8.9,5.3C37.7,20.3,37.8,20.4,37.8,20.4z"/>
	<path class="st0" d="M31.1,7.1c-7.9,0-14.2,6.3-14.2,14c0,7.5,5.9,13.6,13.5,14c7.5,0.4,14.1-5.5,14.6-12.9
		C45.6,13.9,39.1,7.1,31.1,7.1z M31.1,31.9c-6.9,0-12.1-6.1-10.8-13c0.8-4.3,4.3-7.6,8.5-8.5c6.9-1.4,13.1,3.7,13.1,10.6
		C41.9,27,37,31.9,31.1,31.9z"/>
</g>
</svg>
