<?xml version="1.0" encoding="utf-8"?>
<!-- Generator: Adobe Illustrator 21.1.0, SVG Export Plug-In . SVG Version: 6.00 Build 0)  -->
<svg version="1.1" id="Layer_1" xmlns="http://www.w3.org/2000/svg" xmlns:xlink="http://www.w3.org/1999/xlink" x="0px" y="0px"
	 viewBox="0 0 62 49" style="enable-background:new 0 0 62 49;" xml:space="preserve">
<style type="text/css">
	.st0{fill:#FFFFFF;}
</style>
<g>
	<path class="st0" d="M8.4,42.8c-1.1,0-2.1,0.6-2.5,1.6H3.5c-0.6,0-1.1,0.5-1.1,1.1c0,0.6,0.5,1.1,1.1,1.1h2.4
		c0.6,1.4,2.2,2,3.6,1.4c0.6-0.3,1.1-0.8,1.4-1.4h47.4c0.6,0,1.1-0.5,1.1-1.1c0-0.6-0.5-1.1-1.1-1.1H10.9
		C10.4,43.4,9.5,42.8,8.4,42.8z"/>
	<path class="st0" d="M28.5,8.4c-4.9,1-8.8,4.8-9.7,9.7c-1.5,7.8,4.5,14.8,12.3,14.8c6.8,0,12.4-5.6,12.4-12.4
		C43.5,12.7,36.4,6.8,28.5,8.4z M38.6,21.4l-10.1,6.1c-0.1,0.1-0.3,0.1-0.4,0.1c-0.6,0-1.1-0.4-1.1-1V14.5c0-0.5,0.4-1,0.9-1
		c0.2,0,0.4,0,0.5,0.1l10.2,6c0.1,0.1,0.2,0.1,0.2,0.2C39.2,20.4,39.1,21.1,38.6,21.4z"/>
	<path class="st0" d="M56.3,0.8H5.7c-2.2,0-4,1.8-4,4v31.5c0,2.2,1.8,4,4,4h50.6c2.2,0,4-1.8,4-4V4.8C60.3,2.6,58.5,0.8,56.3,0.8z
		 M30.3,36.5c-8.6-0.4-15.4-7.4-15.4-15.9c0-8.8,7.2-16,16.2-16c9.2,0,16.6,7.8,15.9,17.2C46.4,30.3,38.9,36.9,30.3,36.5z"/>
</g>
</svg>
