<?xml version="1.0" encoding="utf-8"?>
<!-- Generator: Adobe Illustrator 25.2.3, SVG Export Plug-In . SVG Version: 6.00 Build 0)  -->
<svg version="1.1" xmlns="http://www.w3.org/2000/svg" xmlns:xlink="http://www.w3.org/1999/xlink" x="0px" y="0px"
	 viewBox="0 0 271 271" style="enable-background:new 0 0 271 271;" xml:space="preserve">
<style type="text/css">
	.st0{clip-path:url(#SVGID_2_);}
	.st1{opacity:0.3;fill:url(#SVGID_3_);}
	.st2{clip-path:url(#SVGID_5_);}
	.st3{opacity:0.3;fill:url(#SVGID_6_);}
	.st4{opacity:0.9;fill-rule:evenodd;clip-rule:evenodd;fill:#25A7DF;}
	.st5{fill:#003D72;}
	.st6{opacity:0.15;}
	.st7{clip-path:url(#SVGID_8_);}
	.st8{clip-path:url(#SVGID_10_);}
	.st9{clip-path:url(#SVGID_12_);}
	.st10{clip-path:url(#SVGID_16_);}
	.st11{fill:#3D3D3D;}
	.st12{fill:#FFFFFF;}
	.st13{fill-rule:evenodd;clip-rule:evenodd;fill:#B3B3B3;}
	.st14{fill:#B3B3B3;}
	.st15{fill:#999999;}
	.st16{opacity:0.5;}
	.st17{clip-path:url(#SVGID_20_);fill:#B3B3B3;}
	.st18{fill-rule:evenodd;clip-rule:evenodd;fill:#F9F9F9;}
	.st19{fill:#25A7DF;}
	.st20{fill:none;stroke:#E6E6E6;stroke-miterlimit:10;}
	.st21{opacity:0.1;fill:#9FD6F2;}
	.st22{fill:#3AA9E0;}
	.st23{opacity:0.1;}
	.st24{fill:#455A64;}
	.st25{fill:#393769;}
	.st26{fill:#EDB6A4;}
	.st27{opacity:0.3;fill:#EDB6A4;}
	.st28{fill:#263238;}
	.st29{fill:#1A2E35;}
	.st30{fill:#F5F5F5;}
	.st31{fill:#E0E0E0;}
	.st32{opacity:0.3;}
	.st33{fill:#393768;}
	.st34{fill:#E1E1E1;}
	.st35{fill:#25A6DE;}
	.st36{fill:#FAFAFA;}
	.st37{fill:#CCCCCC;}
	.st38{fill:#F2F2F2;}
	.st39{fill:#EBEBEB;}
	.st40{fill:#DCDCDC;}
	.st41{fill:#C8C8C8;}
	.st42{fill-rule:evenodd;clip-rule:evenodd;fill:#25A7DF;}
	.st43{fill:#A8A8A8;}
	.st44{fill-rule:evenodd;clip-rule:evenodd;fill:#F8F8F8;}
	.st45{fill:none;stroke:#E5E5E5;stroke-width:9.535846e-02;stroke-miterlimit:10;}
	.st46{display:none;}
	.st47{display:inline;opacity:0.1;fill:#9FD6F2;}
	.st48{display:inline;}
	.st49{opacity:0.2;}
	.st50{opacity:0.4;}
	.st51{fill:#0F4C81;}
	.st52{fill:none;stroke:#E5E5E5;stroke-width:9.173123e-02;stroke-miterlimit:10;}
	.st53{opacity:0.7;fill:#003D72;}
	.st54{fill:none;stroke:#25A7DF;stroke-width:6;stroke-miterlimit:10;}
	.st55{fill:none;stroke:#FFFFFF;stroke-width:5.9707;stroke-miterlimit:10;}
	.st56{fill:none;stroke:#FFFFFF;stroke-width:8;stroke-linecap:round;stroke-miterlimit:10;stroke-dasharray:0,18;}
	.st57{display:none;fill:none;stroke:#FFFFFF;stroke-width:8;stroke-linecap:round;stroke-miterlimit:10;stroke-dasharray:0,18;}
	.st58{fill:none;stroke:#FFFFFF;stroke-width:3;stroke-miterlimit:10;}
	.st59{fill:none;stroke:#FFFFFF;stroke-width:2.1213;stroke-miterlimit:10;}
	.st60{fill:none;stroke:#000000;stroke-width:2;stroke-miterlimit:10;}
	.st61{fill-rule:evenodd;clip-rule:evenodd;fill:#333333;}
	.st62{fill:#333333;}
	.st63{fill-rule:evenodd;clip-rule:evenodd;fill:#3D3D3D;}
	.st64{fill:none;stroke:#919191;stroke-width:0.9905;stroke-miterlimit:10;}
	.st65{fill:none;stroke:#3D3D3D;stroke-width:3;stroke-miterlimit:10;}
	.st66{fill:none;stroke:#000000;stroke-width:4.2715;stroke-miterlimit:10;}
</style>
<g id="Capa_1">
	<g>
		<path class="st19" d="M270,135.5c0,50.8-28.2,95-69.8,117.9c-0.5,0.3-1,0.6-1.6,0.9c-2,1-4,2-6,3c-2,1-4,1.8-6,2.7
			c-15.8,6.5-33,10.1-51.1,10.1c-14.6,0-28.7-2.4-41.9-6.7c-0.9-0.3-1.8-0.6-2.6-0.9c-2.7-0.9-5.3-1.9-7.9-3
			c-0.6-0.3-1.2-0.5-1.8-0.8c-8.7-3.8-17-8.6-24.6-14.1c-1.6-1.1-3.1-2.3-4.7-3.5c-1.9-1.5-3.8-3.1-5.7-4.8
			c-0.3-0.2-0.5-0.4-0.7-0.7C18.2,210.9,1,175.2,1,135.5C1,61.2,61.2,1,135.5,1C209.8,1,270,61.2,270,135.5z"/>
		<g>
			<path class="st5" d="M154.7,70.1c-6.1,2.5-8.9,9.5-6.4,15.6c2.5,6.1,9.5,8.9,15.6,6.4c6.1-2.5,8.9-9.5,6.4-15.6
				C167.8,70.4,160.8,67.6,154.7,70.1z M161.7,86.6c-3,1.3-6.5-0.1-7.8-3.2c-1.3-3,0.1-6.5,3.2-7.8c3-1.3,6.5,0.1,7.8,3.2
				C166.1,81.8,164.7,85.3,161.7,86.6z"/>
			<g>
				<path class="st5" d="M179.6,31.5c0,0-37.4,12.9-52.3,49.4c-3.5,8.6-6.5,18-8.9,27.4l-38.9,10.9l-19,30.8l52.1,5
					c0.7,10.2,3.3,17.6,8.5,19.7c5.2,2.1,12.2-1.4,19.8-8.2l40.8,32.9l8-35.3l-20.1-35c4.9-8.4,9.3-17.3,12.8-25.9
					C197.3,66.8,179.6,31.5,179.6,31.5z M70.6,145l12.8-20.7l33.4-9.4c-2.7,12.2-4.3,24.1-4.3,34.1L70.6,145z M153.6,143
					c-2.6,3.5-5.1,6.8-7.6,9.7l-27.2-11.1c0.3-3.8,0.7-8,1.4-12.3L153.6,143z M123.4,169.3c-3.4-1.4-5.1-9.5-4.9-21.3l23.3,9.5
					C133.7,166,126.8,170.6,123.4,169.3z M178.1,188.9l-32.8-26.4c7-7.2,14.2-16.8,20.8-27.4l17.3,30.1L178.1,188.9z M157.1,138
					l-35.9-14.6c2.3-12.7,6.1-26.6,11.6-40.2c10.5-25.8,33.3-39,43.6-43.8c3.9,10.6,11,36.1,0.5,61.8
					C171.3,114.7,164.3,127.4,157.1,138z"/>
				<g>
					
						<rect x="101.9" y="189.8" transform="matrix(0.3734 -0.9277 0.9277 0.3734 -108.503 229.5088)" class="st5" width="27.6" height="10.5"/>
					
						<rect x="130.5" y="189.9" transform="matrix(0.3734 -0.9277 0.9277 0.3734 -92.1036 253.8269)" class="st5" width="22.7" height="10.5"/>
					
						<rect x="85.4" y="171.7" transform="matrix(0.3734 -0.9277 0.9277 0.3734 -103.5269 200.6028)" class="st5" width="22.7" height="10.5"/>
				</g>
			</g>
		</g>
		<path class="st5" d="M176.9,234.7c-3.3-0.4-6.7-0.3-9.9,0.4c-4.8-8.4-13.3-14.2-23.1-15.4c-12.8-1.6-25.3,4.9-31.4,16
			c-4.9,0.1-9.7,1.3-14,3.7c-4.6-9-13.5-15.3-23.7-16.7c-11.7-1.5-22.8,3.7-29.3,12.7c0.2,0.2,0.5,0.4,0.7,0.7
			c1.8,1.7,3.7,3.2,5.7,4.8c4.1-6.1,11.2-10,18.9-10c1,0,2,0.1,2.9,0.2c7.9,1,14.7,6.1,17.9,13.3c-0.7,0.6-1.3,1.3-2,2
			c-0.2,0.2-0.4,0.4-0.5,0.7c-0.4,0.5-0.8,1-1.2,1.5c-0.2,0.3-0.4,0.6-0.6,0.9c-0.3,0.5-0.6,1-1,1.5c-0.2,0.3-0.4,0.7-0.6,1
			c-0.3,0.5-0.5,1-0.8,1.5c-0.2,0.4-0.3,0.7-0.5,1.1c-0.2,0.5-0.4,1.1-0.6,1.6c-0.1,0.3-0.3,0.7-0.4,1.1c-0.2,0.6-0.4,1.2-0.5,1.8
			c0,0.1,0,0.2-0.1,0.3c2.6,1.1,5.2,2.1,7.9,3c0.1-0.2,0.1-0.4,0.1-0.6c1.2-5.1,4-9.6,8.2-12.8c4-3.1,8.9-4.8,14-4.8
			c0.6,0,1.1,0,1.7,0.1l3,0.2l1.2-2.7c4-9.3,13.8-14.9,23.9-13.6c8,1,14.9,6.3,18.1,13.7l1.6,3.7l3.7-1.4c3-1.1,6.2-1.5,9.5-1
			c8.1,1,14.5,6.8,16.8,14.2c2-1,4-2,6-3c0.5-0.3,1.1-0.6,1.6-0.9C196.6,243.6,187.9,236.2,176.9,234.7z"/>
	</g>
</g>
<g id="guias" class="st46">
</g>
</svg>
