<?xml version="1.0" encoding="utf-8"?>
<!-- Generator: Adobe Illustrator 25.2.3, SVG Export Plug-In . SVG Version: 6.00 Build 0)  -->
<svg version="1.1" xmlns="http://www.w3.org/2000/svg" xmlns:xlink="http://www.w3.org/1999/xlink" x="0px" y="0px"
	 viewBox="0 0 271 271" style="enable-background:new 0 0 271 271;" xml:space="preserve">
<style type="text/css">
	.st0{clip-path:url(#SVGID_2_);}
	.st1{opacity:0.3;fill:url(#SVGID_3_);}
	.st2{clip-path:url(#SVGID_5_);}
	.st3{opacity:0.3;fill:url(#SVGID_6_);}
	.st4{opacity:0.9;fill-rule:evenodd;clip-rule:evenodd;fill:#25A7DF;}
	.st5{fill:#003D72;}
	.st6{opacity:0.15;}
	.st7{clip-path:url(#SVGID_8_);}
	.st8{clip-path:url(#SVGID_10_);}
	.st9{clip-path:url(#SVGID_12_);}
	.st10{clip-path:url(#SVGID_16_);}
	.st11{fill:#3D3D3D;}
	.st12{fill:#FFFFFF;}
	.st13{fill-rule:evenodd;clip-rule:evenodd;fill:#B3B3B3;}
	.st14{fill:#B3B3B3;}
	.st15{fill:#999999;}
	.st16{opacity:0.5;}
	.st17{clip-path:url(#SVGID_20_);fill:#B3B3B3;}
	.st18{fill-rule:evenodd;clip-rule:evenodd;fill:#F9F9F9;}
	.st19{fill:#25A7DF;}
	.st20{fill:none;stroke:#E6E6E6;stroke-miterlimit:10;}
	.st21{opacity:0.1;fill:#9FD6F2;}
	.st22{fill:#3AA9E0;}
	.st23{opacity:0.1;}
	.st24{fill:#455A64;}
	.st25{fill:#393769;}
	.st26{fill:#EDB6A4;}
	.st27{opacity:0.3;fill:#EDB6A4;}
	.st28{fill:#263238;}
	.st29{fill:#1A2E35;}
	.st30{fill:#F5F5F5;}
	.st31{fill:#E0E0E0;}
	.st32{opacity:0.3;}
	.st33{fill:#393768;}
	.st34{fill:#E1E1E1;}
	.st35{fill:#25A6DE;}
	.st36{fill:#FAFAFA;}
	.st37{fill:#CCCCCC;}
	.st38{fill:#F2F2F2;}
	.st39{fill:#EBEBEB;}
	.st40{fill:#DCDCDC;}
	.st41{fill:#C8C8C8;}
	.st42{fill-rule:evenodd;clip-rule:evenodd;fill:#25A7DF;}
	.st43{fill:#A8A8A8;}
	.st44{fill-rule:evenodd;clip-rule:evenodd;fill:#F8F8F8;}
	.st45{fill:none;stroke:#E5E5E5;stroke-width:9.535846e-02;stroke-miterlimit:10;}
	.st46{display:none;}
	.st47{display:inline;opacity:0.1;fill:#9FD6F2;}
	.st48{display:inline;}
	.st49{opacity:0.2;}
	.st50{opacity:0.4;}
	.st51{fill:#0F4C81;}
	.st52{fill:none;stroke:#E5E5E5;stroke-width:9.173123e-02;stroke-miterlimit:10;}
	.st53{opacity:0.7;fill:#003D72;}
	.st54{fill:none;stroke:#25A7DF;stroke-width:6;stroke-miterlimit:10;}
	.st55{fill:none;stroke:#FFFFFF;stroke-width:5.9707;stroke-miterlimit:10;}
	.st56{fill:none;stroke:#FFFFFF;stroke-width:8;stroke-linecap:round;stroke-miterlimit:10;stroke-dasharray:0,18;}
	.st57{display:none;fill:none;stroke:#FFFFFF;stroke-width:8;stroke-linecap:round;stroke-miterlimit:10;stroke-dasharray:0,18;}
	.st58{fill:none;stroke:#FFFFFF;stroke-width:3;stroke-miterlimit:10;}
	.st59{fill:none;stroke:#FFFFFF;stroke-width:2.1213;stroke-miterlimit:10;}
	.st60{fill:none;stroke:#000000;stroke-width:2;stroke-miterlimit:10;}
	.st61{fill-rule:evenodd;clip-rule:evenodd;fill:#333333;}
	.st62{fill:#333333;}
	.st63{fill-rule:evenodd;clip-rule:evenodd;fill:#3D3D3D;}
	.st64{fill:none;stroke:#919191;stroke-width:0.9905;stroke-miterlimit:10;}
	.st65{fill:none;stroke:#3D3D3D;stroke-width:3;stroke-miterlimit:10;}
	.st66{fill:none;stroke:#000000;stroke-width:4.2715;stroke-miterlimit:10;}
</style>
<g id="Capa_1">
	<g>
		<circle class="st19" cx="135.5" cy="135.5" r="134.5"/>
		<g>
			<g>
				<path class="st5" d="M167,127.5c4.6,0,8.3,3.7,8.3,8.3s-3.7,8.3-8.3,8.3c-4.6,0-8.3-3.7-8.3-8.3S162.4,127.5,167,127.5z"/>
				<path class="st5" d="M57.1,132.6c3.4-3.8,8-4.3,12.5-3.3c-2.5-4-7.4-5.2-7.4-5.2c-1.9-0.4-3.1-2.3-2.6-4.2
					c0.4-1.9,2.3-3.1,4.2-2.6c0.3,0.1,7.8,1.8,11.9,8.5c1.3,2.1,2,4.3,2.4,6.8c1,0.5,2,1.1,2.9,1.6c5.9-23.7,29.1-41.5,56.8-41.5
					c9,0,18,1.9,26,5.6l19.6-15.4c1.2-1,3-1,4.2-0.1c1.3,0.9,1.8,2.5,1.3,4l-8.2,23.2c5.8,5.8,10.1,12.7,12.6,20.2l11.5,5.1
					c1.3,0.6,2.1,1.8,2.1,3.2v14.9c0,1.4-0.8,2.7-2.1,3.2l-11.5,5.1c-3.7,10.9-11.1,20.4-21.1,27.2l-2.4,15.5c-0.3,1.7-1.7,3-3.5,3
					h-15.4c-1.7,0-3.2-1.3-3.5-3l-0.9-5.7c-5.9,0.8-11.7,0.8-17.6,0l-0.9,5.7c-0.3,1.7-1.7,3-3.5,3h-15.4c-1.7,0-3.2-1.3-3.5-3
					l-2.4-15.5c-14.9-10.1-23.8-26-23.8-43c0-1.4,0.1-2.8,0.2-4.2c-0.7-0.5-1.3-0.9-2-1.4c-0.1,0.3-0.1,0.6-0.2,0.9
					c-1.5,6.1-5.4,9.9-10.6,10.5c-0.4,0.1-0.9,0.1-1.3,0.1c-4.4,0-8.7-2.5-10.7-6.4C52.7,141.4,53.5,136.6,57.1,132.6z M108.4,184
					c0.9,0.5,1.4,1.4,1.6,2.4l2.2,14h9.4l1-6.3c0.1-0.9,0.7-1.8,1.5-2.3c0.8-0.5,1.8-0.8,2.7-0.6c7.3,1.5,14.7,1.5,22.1,0
					c0.9-0.2,1.9,0,2.7,0.6c0.8,0.5,1.3,1.4,1.5,2.3l1,6.3h9.4l2.2-14c0.2-1,0.7-1.9,1.6-2.4c9.8-6.2,16.9-15.3,20-25.7
					c0.3-1,1-1.8,1.9-2.2l10.9-4.8v-10.4L189,136c-0.9-0.4-1.6-1.2-1.9-2.2c-2.3-7.6-6.8-14.7-12.9-20.3c-1-1-1.4-2.4-0.9-3.8
					l4.9-13.9l-11.8,9.3c-1.1,0.8-2.5,1-3.8,0.4c-7.6-3.8-16.2-5.9-24.9-5.9c-28.3,0-51.2,20.8-51.2,46.3
					C86.5,161.1,94.7,175.3,108.4,184z M61.1,142.3c0.9,1.7,3,2.8,5,2.6c2.7-0.3,4-3,4.5-5.2c0.2-0.9,0.4-1.7,0.5-2.5
					c-3.6-1.3-7-1.7-8.7,0.2C60.7,139.1,60.3,140.8,61.1,142.3z"/>
			</g>
			<path class="st5" d="M124.4,112.5v7c-7.9,1.5-12.5,6.6-12.5,13.2c0,7.2,5.4,10.9,13.3,13.5c5.6,1.8,7.9,3.6,7.9,6.4
				c0,2.9-2.9,4.6-7.2,4.6c-4.8,0-9.2-1.6-12.3-3.3l-2.2,8.7c2.8,1.6,7.6,3,12.6,3.2v7h7.3v-7.6c8.5-1.4,13.1-7,13.1-13.6
				c0-6.7-3.5-10.8-12.3-13.9c-6.4-2.3-8.9-3.9-8.9-6.3c0-2.1,1.5-4.2,6.4-4.2c5.3,0,8.8,1.7,10.7,2.6l2.2-8.4
				c-2.6-1.2-5.9-2.3-10.8-2.5v-6.5H124.4L124.4,112.5z"/>
			<g>
				<path class="st5" d="M140.1,87.1c-1.1,0-2.3-0.4-3.3-1.1l-5.9-4.3L125,86c-2,1.4-4.6,1.4-6.5,0c-2-1.4-2.8-3.9-2-6.2l2.3-7
					l-5.9-4.3c-2-1.4-2.8-3.9-2-6.2c0.8-2.3,2.8-3.8,5.3-3.8h7.3l2.2-6.9c0.8-2.3,2.8-3.8,5.3-3.8h0c2.5,0,4.5,1.5,5.3,3.8v0l2.3,7
					l7.3,0c2.5,0,4.5,1.5,5.3,3.8c0.8,2.3,0,4.8-2,6.2l-5.9,4.3l2.3,6.9c0.8,2.3,0,4.8-2,6.2C142.4,86.8,141.3,87.1,140.1,87.1z
					 M116.1,64.1l6,4.2c2,1.4,2.8,3.9,2,6.2l-2.3,7l5.9-4.4c2-1.4,4.6-1.4,6.5,0l5.9,4.3l-2.3-6.9c-0.7-2.3,0.1-4.8,2-6.2l5.9-4.3
					l-7.3,0.1c-2.4,0-4.5-1.5-5.3-3.8l-2.3-7l-2.2,7c-0.7,2.3-2.9,3.8-5.3,3.8H116.1z"/>
			</g>
		</g>
	</g>
</g>
<g id="guias" class="st46">
</g>
</svg>
