<?xml version="1.0" encoding="utf-8"?>
<!-- Generator: Adobe Illustrator 25.2.3, SVG Export Plug-In . SVG Version: 6.00 Build 0)  -->
<svg version="1.1" xmlns="http://www.w3.org/2000/svg" xmlns:xlink="http://www.w3.org/1999/xlink" x="0px" y="0px"
	 viewBox="0 0 271 271" style="enable-background:new 0 0 271 271;" xml:space="preserve">
<style type="text/css">
	.st0{clip-path:url(#SVGID_2_);}
	.st1{opacity:0.3;fill:url(#SVGID_3_);}
	.st2{clip-path:url(#SVGID_5_);}
	.st3{opacity:0.3;fill:url(#SVGID_6_);}
	.st4{opacity:0.9;fill-rule:evenodd;clip-rule:evenodd;fill:#25A7DF;}
	.st5{fill:#003D72;}
	.st6{opacity:0.15;}
	.st7{clip-path:url(#SVGID_8_);}
	.st8{clip-path:url(#SVGID_10_);}
	.st9{clip-path:url(#SVGID_12_);}
	.st10{clip-path:url(#SVGID_16_);}
	.st11{fill:#3D3D3D;}
	.st12{fill:#FFFFFF;}
	.st13{fill-rule:evenodd;clip-rule:evenodd;fill:#B3B3B3;}
	.st14{fill:#B3B3B3;}
	.st15{fill:#999999;}
	.st16{opacity:0.5;}
	.st17{clip-path:url(#SVGID_20_);fill:#B3B3B3;}
	.st18{fill-rule:evenodd;clip-rule:evenodd;fill:#F9F9F9;}
	.st19{fill:#25A7DF;}
	.st20{fill:none;stroke:#E6E6E6;stroke-miterlimit:10;}
	.st21{opacity:0.1;fill:#9FD6F2;}
	.st22{fill:#3AA9E0;}
	.st23{opacity:0.1;}
	.st24{fill:#455A64;}
	.st25{fill:#393769;}
	.st26{fill:#EDB6A4;}
	.st27{opacity:0.3;fill:#EDB6A4;}
	.st28{fill:#263238;}
	.st29{fill:#1A2E35;}
	.st30{fill:#F5F5F5;}
	.st31{fill:#E0E0E0;}
	.st32{opacity:0.3;}
	.st33{fill:#393768;}
	.st34{fill:#E1E1E1;}
	.st35{fill:#25A6DE;}
	.st36{fill:#FAFAFA;}
	.st37{fill:#CCCCCC;}
	.st38{fill:#F2F2F2;}
	.st39{fill:#EBEBEB;}
	.st40{fill:#DCDCDC;}
	.st41{fill:#C8C8C8;}
	.st42{fill-rule:evenodd;clip-rule:evenodd;fill:#25A7DF;}
	.st43{fill:#A8A8A8;}
	.st44{fill-rule:evenodd;clip-rule:evenodd;fill:#F8F8F8;}
	.st45{fill:none;stroke:#E5E5E5;stroke-width:9.535846e-02;stroke-miterlimit:10;}
	.st46{display:none;}
	.st47{display:inline;opacity:0.1;fill:#9FD6F2;}
	.st48{display:inline;}
	.st49{opacity:0.2;}
	.st50{opacity:0.4;}
	.st51{fill:#0F4C81;}
	.st52{fill:none;stroke:#E5E5E5;stroke-width:9.173123e-02;stroke-miterlimit:10;}
	.st53{opacity:0.7;fill:#003D72;}
	.st54{fill:none;stroke:#25A7DF;stroke-width:6;stroke-miterlimit:10;}
	.st55{fill:none;stroke:#FFFFFF;stroke-width:5.9707;stroke-miterlimit:10;}
	.st56{fill:none;stroke:#FFFFFF;stroke-width:8;stroke-linecap:round;stroke-miterlimit:10;stroke-dasharray:0,18;}
	.st57{display:none;fill:none;stroke:#FFFFFF;stroke-width:8;stroke-linecap:round;stroke-miterlimit:10;stroke-dasharray:0,18;}
	.st58{fill:none;stroke:#FFFFFF;stroke-width:3;stroke-miterlimit:10;}
	.st59{fill:none;stroke:#FFFFFF;stroke-width:2.1213;stroke-miterlimit:10;}
	.st60{fill:none;stroke:#000000;stroke-width:2;stroke-miterlimit:10;}
	.st61{fill-rule:evenodd;clip-rule:evenodd;fill:#333333;}
	.st62{fill:#333333;}
	.st63{fill-rule:evenodd;clip-rule:evenodd;fill:#3D3D3D;}
	.st64{fill:none;stroke:#919191;stroke-width:0.9905;stroke-miterlimit:10;}
	.st65{fill:none;stroke:#3D3D3D;stroke-width:3;stroke-miterlimit:10;}
	.st66{fill:none;stroke:#000000;stroke-width:4.2715;stroke-miterlimit:10;}
</style>
<g id="Capa_1">
	<g>
		<circle class="st19" cx="135.5" cy="135.5" r="134.5"/>
		<g>
			<path class="st5" d="M174.5,90.4c0,2.4,2,4.4,4.5,4.4H189c2.5,0,4.5-2,4.5-4.4c0-2.4-2-4.4-4.5-4.4H179
				C176.5,86,174.5,88,174.5,90.4z"/>
			<path class="st5" d="M105.3,90.4c0,2.4,2,4.4,4.5,4.4h10.1c2.5,0,4.5-2,4.5-4.4c0-2.4-2-4.4-4.5-4.4h-10.1
				C107.4,86,105.3,88,105.3,90.4z"/>
			<path class="st5" d="M153.9,61.8V52c0-2.4-2-4.4-4.5-4.4s-4.5,2-4.5,4.4v9.8c0,2.4,2,4.4,4.5,4.4S153.9,64.2,153.9,61.8z"/>
			<path class="st5" d="M174.3,60.2l-7.2,7c-1.8,1.7-1.8,4.5,0,6.2c1.8,1.7,4.6,1.7,6.4,0l7.2-7c1.8-1.7,1.8-4.5,0-6.2
				C178.9,58.5,176.1,58.5,174.3,60.2L174.3,60.2z"/>
			<path class="st5" d="M128.6,74.5c2.5,0,4.5-1.9,4.5-4.3c0-1.2-0.5-2.3-1.3-3.1l-7.2-7c-1.8-1.7-4.6-1.7-6.4,0s-1.8,4.5,0,6.2l0,0
				l7.2,7C126.2,74.1,127.4,74.5,128.6,74.5z"/>
			<path class="st5" d="M74.5,124.7c-5,0-9,3.9-9,8.7v76.2c0,4.8,4,8.7,9,8.7h26.1c4.7,0,8.7-3.5,9-8.1l5.6,3.2
				c5.3,3.1,11.4,4.7,17.6,4.7h38c4.6,0,9.2-0.8,13.4-2.6c17.2-9.2,23.4-73.9,15.7-82.5c-0.4-0.3-0.8-0.7-1.2-1
				c-2-1.5-4.4-2.5-6.9-3h-0.2c-11.9-2.5-20-2.6-31.8-2.6c-0.4-2.6-0.4-8.2,3.1-18.6c3.3-9.6,3-17.6-0.9-23.7
				c-3.2-4.9-8.5-8.2-14.5-9H147c-4.2-0.1-8,2.6-9.3,6.5c-0.1,0.2-0.1,0.4-0.1,0.6l-1.3,9.4c-0.4,2.8-1.3,5.6-2.5,8.2l-13.1,26.7
				c-2,4.5-6.1,7.7-11,8.7v-2.1c0-4.8-4-8.7-9-8.7H74.5z M74.5,209.7v-76.2h26.1v76.2H74.5z M110.5,144.3
				c8.1-1.4,14.9-6.6,18.2-13.9l13-26.6c1.7-3.4,2.8-7,3.3-10.7l1.4-8.8c0.1-0.1,0.1-0.1,0.2-0.1c3.2,0.5,6,2.2,7.8,4.8
				c2.4,3.7,2.4,9.4,0,16.4c-3.5,10.2-4.6,18.2-3.2,23.9c0.8,3.6,4.2,6.2,8,6.1l0,0c11.9,0,19.2,0.1,30.6,2.4h0.2
				c1.2,0.2,2.3,0.7,3.3,1.4l0.6,0.5c4.6,4-3.3,63.9-13.1,68.1c-3.1,1.3-6.5,1.9-9.9,1.8h-38.1c-4.6,0-9-1.2-12.9-3.5l-10.1-5.9
				v-55.8L110.5,144.3z"/>
		</g>
	</g>
</g>
<g id="guias" class="st46">
</g>
</svg>
