<?xml version="1.0" encoding="utf-8"?>
<!-- Generator: Adobe Illustrator 25.2.3, SVG Export Plug-In . SVG Version: 6.00 Build 0)  -->
<svg version="1.1" id="Capa_1" xmlns="http://www.w3.org/2000/svg" xmlns:xlink="http://www.w3.org/1999/xlink" x="0px" y="0px"
	 viewBox="0 0 30 30" style="enable-background:new 0 0 30 30;" xml:space="preserve">
<style type="text/css">
	.st0{fill:#3D3D3D;}
	.st1{fill:#0F4C81;}
</style>
<path class="st0" d="M28.4,28.2L28.4,28.2c-2-2.3-4-4.6-6.1-6.8c-1.9-2.1-3.9-4.1-5.8-6.1c2-2,4.1-3.8,5.8-6.1C24.2,6.6,26,4,27.4,1
	c0-0.1,0-0.1,0-0.2c-0.1-0.1-0.2-0.2-0.3-0.1c-3,1.5-5.5,3.6-7.9,5.8c-2,1.8-3.5,4.1-5.1,6.3l-1.2-1.3c-1-1.1-2.2-2.1-3.4-3
	c-2.4-1.9-4.9-3.6-7.7-5c-0.1,0-0.1,0-0.2,0C1.5,3.4,1.5,3.6,1.5,3.7C2.9,6.6,4.9,9,6.9,11.3c1,1.1,2.1,2.2,3.3,3.1l1.7,1.3
	l-4.4,5.7c-1.9,2.5-3.9,5-5.9,7.5c-0.1,0.1-0.1,0.2,0,0.3c0.1,0.1,0.2,0.1,0.3,0c2.5-2,4.8-4.3,7.1-6.4c1.8-1.7,3.5-3.5,5.2-5.2
	l6.6,5.4c2.4,1.9,4.7,3.8,7,5.7l0.1,0c0.2,0.1,0.4,0.1,0.5,0C28.5,28.5,28.5,28.3,28.4,28.2"/>
</svg>
