<?xml version="1.0" encoding="utf-8"?>
<!-- Generator: Adobe Illustrator 25.2.3, SVG Export Plug-In . SVG Version: 6.00 Build 0)  -->
<svg version="1.1" xmlns="http://www.w3.org/2000/svg" xmlns:xlink="http://www.w3.org/1999/xlink" x="0px" y="0px"
	 viewBox="0 0 271 271" style="enable-background:new 0 0 271 271;" xml:space="preserve">
<style type="text/css">
	.st0{clip-path:url(#SVGID_2_);}
	.st1{opacity:0.3;fill:url(#SVGID_3_);}
	.st2{clip-path:url(#SVGID_5_);}
	.st3{opacity:0.3;fill:url(#SVGID_6_);}
	.st4{opacity:0.9;fill-rule:evenodd;clip-rule:evenodd;fill:#25A7DF;}
	.st5{fill:#003D72;}
	.st6{opacity:0.15;}
	.st7{clip-path:url(#SVGID_8_);}
	.st8{clip-path:url(#SVGID_10_);}
	.st9{clip-path:url(#SVGID_12_);}
	.st10{clip-path:url(#SVGID_16_);}
	.st11{fill:#3D3D3D;}
	.st12{fill:#FFFFFF;}
	.st13{fill-rule:evenodd;clip-rule:evenodd;fill:#B3B3B3;}
	.st14{fill:#B3B3B3;}
	.st15{fill:#999999;}
	.st16{opacity:0.5;}
	.st17{clip-path:url(#SVGID_20_);fill:#B3B3B3;}
	.st18{fill-rule:evenodd;clip-rule:evenodd;fill:#F9F9F9;}
	.st19{fill:#25A7DF;}
	.st20{fill:none;stroke:#E6E6E6;stroke-miterlimit:10;}
	.st21{opacity:0.1;fill:#9FD6F2;}
	.st22{fill:#3AA9E0;}
	.st23{opacity:0.1;}
	.st24{fill:#455A64;}
	.st25{fill:#393769;}
	.st26{fill:#EDB6A4;}
	.st27{opacity:0.3;fill:#EDB6A4;}
	.st28{fill:#263238;}
	.st29{fill:#1A2E35;}
	.st30{fill:#F5F5F5;}
	.st31{fill:#E0E0E0;}
	.st32{opacity:0.3;}
	.st33{fill:#393768;}
	.st34{fill:#E1E1E1;}
	.st35{fill:#25A6DE;}
	.st36{fill:#FAFAFA;}
	.st37{fill:#CCCCCC;}
	.st38{fill:#F2F2F2;}
	.st39{fill:#EBEBEB;}
	.st40{fill:#DCDCDC;}
	.st41{fill:#C8C8C8;}
	.st42{fill-rule:evenodd;clip-rule:evenodd;fill:#25A7DF;}
	.st43{fill:#A8A8A8;}
	.st44{fill-rule:evenodd;clip-rule:evenodd;fill:#F8F8F8;}
	.st45{fill:none;stroke:#E5E5E5;stroke-width:9.535846e-02;stroke-miterlimit:10;}
	.st46{display:none;}
	.st47{display:inline;opacity:0.1;fill:#9FD6F2;}
	.st48{display:inline;}
	.st49{opacity:0.2;}
	.st50{opacity:0.4;}
	.st51{fill:#0F4C81;}
	.st52{fill:none;stroke:#E5E5E5;stroke-width:9.173123e-02;stroke-miterlimit:10;}
	.st53{opacity:0.7;fill:#003D72;}
	.st54{fill:none;stroke:#25A7DF;stroke-width:6;stroke-miterlimit:10;}
	.st55{fill:none;stroke:#FFFFFF;stroke-width:5.9707;stroke-miterlimit:10;}
	.st56{fill:none;stroke:#FFFFFF;stroke-width:8;stroke-linecap:round;stroke-miterlimit:10;stroke-dasharray:0,18;}
	.st57{display:none;fill:none;stroke:#FFFFFF;stroke-width:8;stroke-linecap:round;stroke-miterlimit:10;stroke-dasharray:0,18;}
	.st58{fill:none;stroke:#FFFFFF;stroke-width:3;stroke-miterlimit:10;}
	.st59{fill:none;stroke:#FFFFFF;stroke-width:2.1213;stroke-miterlimit:10;}
	.st60{fill:none;stroke:#000000;stroke-width:2;stroke-miterlimit:10;}
	.st61{fill-rule:evenodd;clip-rule:evenodd;fill:#333333;}
	.st62{fill:#333333;}
	.st63{fill-rule:evenodd;clip-rule:evenodd;fill:#3D3D3D;}
	.st64{fill:none;stroke:#919191;stroke-width:0.9905;stroke-miterlimit:10;}
	.st65{fill:none;stroke:#3D3D3D;stroke-width:3;stroke-miterlimit:10;}
	.st66{fill:none;stroke:#000000;stroke-width:4.2715;stroke-miterlimit:10;}
</style>
<g id="Capa_1">
	<g>
		<circle class="st19" cx="135.5" cy="135.5" r="134.5"/>
		<g>
			<path class="st5" d="M207.6,83.8c0-3.3-2.6-6.1-6.1-6.4c-10.7-1.3-20.7-3.6-30-6.9c-10.7-3.9-21.5-8.7-32.5-14.4
				c-2.3-1.3-4.6-1.3-6.9,0c-10.7,5.7-21.5,10.5-32.3,14.1c-9.8,3.3-20,5.7-30,6.9c-3.3,0.3-5.9,3-6.2,6.4
				c-1,39.6,8.5,72.4,28.1,97.8c10.7,13.8,24.3,25.1,40.4,33.6c1,0.8,2.5,1,3.6,1s2.3-0.3,3.8-0.8c15.8-8.5,29.4-19.9,40.2-33.6
				C199,156.2,208.5,123.4,207.6,83.8z M200.4,86.1c-0.2,37.1-9.7,67.6-28.5,91c-9.7,11.9-21.9,22.2-36.4,30.3
				c-14.7-8.3-26.8-18.6-36.2-30.3c-18.7-23.6-28.3-54.1-28.5-91c9.9-1.6,19.8-4.1,30.5-7.4c11-3.7,22.6-8.5,34.2-14.2
				c12.3,5.9,23.7,10.6,34.2,14.2C180.7,82,190.8,84.5,200.4,86.1z"/>
			<g>
				<path class="st5" d="M156.9,120.4v-5c0-11-9-20-20-20s-20,9-20,20v5c-4.4,1.3-7.4,5.4-7.4,10v24.2c0,5.7,4.7,10.4,10.4,10.4
					h34.1c5.7,0,10.4-4.7,10.4-10.4v-24.2C164.4,125.8,161.3,121.7,156.9,120.4z M122.9,120v-4.6c0-7.7,6.3-14,14-14
					c7.7,0,14,6.3,14,14v4.6H122.9z M158.4,130.4v24.2c0,2.4-2,4.4-4.4,4.4h-34.1c-2.4,0-4.4-2-4.4-4.4v-24.2c0-2.4,2-4.4,4.4-4.4
					h34.1C156.4,126,158.4,127.9,158.4,130.4z"/>
				<path class="st5" d="M136.9,128.4c-5.1,0-9.3,4.2-9.3,9.3c0,2.6,1.1,5,3,6.8v5.8c0,3.4,2.8,6.2,6.2,6.2c3.4,0,6.2-2.8,6.2-6.2
					v-5.8c1.9-1.8,3-4.2,3-6.8C146.2,132.6,142,128.4,136.9,128.4z M140.2,137.7c0,1.8-1.5,3.3-3.3,3.3c-1.8,0-3.3-1.5-3.3-3.3
					c0-1.8,1.5-3.3,3.3-3.3C138.7,134.4,140.2,135.9,140.2,137.7z M138.9,145.5v7.4c0,0.6-4,0.6-4,0v-7.4
					C136.2,145.5,137.6,145.5,138.9,145.5z"/>
			</g>
		</g>
	</g>
</g>
<g id="guias" class="st46">
</g>
</svg>
