<?xml version="1.0" encoding="utf-8"?>
<!-- Generator: Adobe Illustrator 25.2.3, SVG Export Plug-In . SVG Version: 6.00 Build 0)  -->
<svg version="1.1" xmlns="http://www.w3.org/2000/svg" xmlns:xlink="http://www.w3.org/1999/xlink" x="0px" y="0px"
	 viewBox="0 0 271 271" style="enable-background:new 0 0 271 271;" xml:space="preserve">
<style type="text/css">
	.st0{clip-path:url(#SVGID_2_);}
	.st1{opacity:0.3;fill:url(#SVGID_3_);}
	.st2{clip-path:url(#SVGID_5_);}
	.st3{opacity:0.3;fill:url(#SVGID_6_);}
	.st4{opacity:0.9;fill-rule:evenodd;clip-rule:evenodd;fill:#25A7DF;}
	.st5{fill:#003D72;}
	.st6{opacity:0.15;}
	.st7{clip-path:url(#SVGID_8_);}
	.st8{clip-path:url(#SVGID_10_);}
	.st9{clip-path:url(#SVGID_12_);}
	.st10{clip-path:url(#SVGID_16_);}
	.st11{fill:#3D3D3D;}
	.st12{fill:#FFFFFF;}
	.st13{fill-rule:evenodd;clip-rule:evenodd;fill:#B3B3B3;}
	.st14{fill:#B3B3B3;}
	.st15{fill:#999999;}
	.st16{opacity:0.5;}
	.st17{clip-path:url(#SVGID_20_);fill:#B3B3B3;}
	.st18{fill-rule:evenodd;clip-rule:evenodd;fill:#F9F9F9;}
	.st19{fill:#25A7DF;}
	.st20{fill:none;stroke:#E6E6E6;stroke-miterlimit:10;}
	.st21{opacity:0.1;fill:#9FD6F2;}
	.st22{fill:#3AA9E0;}
	.st23{opacity:0.1;}
	.st24{fill:#455A64;}
	.st25{fill:#393769;}
	.st26{fill:#EDB6A4;}
	.st27{opacity:0.3;fill:#EDB6A4;}
	.st28{fill:#263238;}
	.st29{fill:#1A2E35;}
	.st30{fill:#F5F5F5;}
	.st31{fill:#E0E0E0;}
	.st32{opacity:0.3;}
	.st33{fill:#393768;}
	.st34{fill:#E1E1E1;}
	.st35{fill:#25A6DE;}
	.st36{fill:#FAFAFA;}
	.st37{fill:#CCCCCC;}
	.st38{fill:#F2F2F2;}
	.st39{fill:#EBEBEB;}
	.st40{fill:#DCDCDC;}
	.st41{fill:#C8C8C8;}
	.st42{fill-rule:evenodd;clip-rule:evenodd;fill:#25A7DF;}
	.st43{fill:#A8A8A8;}
	.st44{fill-rule:evenodd;clip-rule:evenodd;fill:#F8F8F8;}
	.st45{fill:none;stroke:#E5E5E5;stroke-width:9.535846e-02;stroke-miterlimit:10;}
	.st46{display:none;}
	.st47{display:inline;opacity:0.1;fill:#9FD6F2;}
	.st48{display:inline;}
	.st49{opacity:0.2;}
	.st50{opacity:0.4;}
	.st51{fill:#0F4C81;}
	.st52{fill:none;stroke:#E5E5E5;stroke-width:9.173123e-02;stroke-miterlimit:10;}
	.st53{opacity:0.7;fill:#003D72;}
	.st54{fill:none;stroke:#25A7DF;stroke-width:6;stroke-miterlimit:10;}
	.st55{fill:none;stroke:#FFFFFF;stroke-width:5.9707;stroke-miterlimit:10;}
	.st56{fill:none;stroke:#FFFFFF;stroke-width:8;stroke-linecap:round;stroke-miterlimit:10;stroke-dasharray:0,18;}
	.st57{display:none;fill:none;stroke:#FFFFFF;stroke-width:8;stroke-linecap:round;stroke-miterlimit:10;stroke-dasharray:0,18;}
	.st58{fill:none;stroke:#FFFFFF;stroke-width:3;stroke-miterlimit:10;}
	.st59{fill:none;stroke:#FFFFFF;stroke-width:2.1213;stroke-miterlimit:10;}
	.st60{fill:none;stroke:#000000;stroke-width:2;stroke-miterlimit:10;}
	.st61{fill-rule:evenodd;clip-rule:evenodd;fill:#333333;}
	.st62{fill:#333333;}
	.st63{fill-rule:evenodd;clip-rule:evenodd;fill:#3D3D3D;}
	.st64{fill:none;stroke:#919191;stroke-width:0.9905;stroke-miterlimit:10;}
	.st65{fill:none;stroke:#3D3D3D;stroke-width:3;stroke-miterlimit:10;}
	.st66{fill:none;stroke:#000000;stroke-width:4.2715;stroke-miterlimit:10;}
</style>
<g id="Capa_1">
	<g>
		<circle class="st19" cx="135.5" cy="135.5" r="134.5"/>
		<path class="st5" d="M209.9,109.9c-0.3-0.3-0.5-0.5-0.8-0.7c-2.7-2.1-6.2-3.3-9.6-3.3c-0.5,0-1,0-1.6,0.1c-0.1,0-0.1,0-0.2,0
			c1.8-7.1,2.2-14.3,0.9-21.2c-3.2-16.3-14.9-26.9-29.9-26.9c-7.8,0-16.4,3.1-24.8,9.1c-8.4-6.2-16.8-9.3-25-9.3
			c-15.1,0-26.6,10.4-30.1,27.2l0,0.1c-2.3,12,0.6,25.3,7.7,37.1c-2.3,1-4.3,2.5-6,4.2c-0.2,0.2-0.3,0.3-0.4,0.5l-35.3,42.7
			c-2.8,3.4-2.7,8.5,0.5,11.7l26.5,27.4c1.7,1.7,3.9,2.7,6.3,2.7c0.2,0,0.4,0,0.6,0c2.6-0.2,5-1.5,6.5-3.6l14.3-19.9l58.1-7.7
			c0.1,0,0.2,0,0.2,0c4.6-0.7,8.5-3,11.4-6.7l32.6-42.2c0-0.1,0.1-0.1,0.1-0.2C216.7,124.4,215.8,115.3,209.9,109.9z M97.5,86.6
			c2.6-12.6,10.6-20.1,21.5-20.1c6.5,0,13.5,2.8,20.7,8.2l0.2,0.2c2.5,1.7,5.7,1.7,8.2,0l0.2-0.1c7.1-5.2,14.4-8.1,20.5-8.1
			c10.9,0,18.9,7.4,21.3,19.7c1.7,9.1-0.2,19.3-5.3,28.6c-7.6,9.2-17.5,21.1-21.2,25.5l-24.8,5.9l-0.6-0.6l15.5-6.4
			c8-3.1,12.3-12.1,9.7-20.3c-1-3.8-3.7-7.2-7.4-9.2c-3.8-2.1-8.3-2.7-12.3-1.6l-39.2,9.8C98.1,108,95.6,96.7,97.5,86.6z
			 M204.9,125.8l-32.5,42.2c-1.5,2-3.6,3-5.9,3.4l-60.6,8.1c-0.7,0.2-1.4,0.5-1.9,1.1l-15.8,22.1l-26.5-27.4l35.3-42.7
			c1.4-1.4,3.1-2.3,4.8-2.9l42.9-11.3c0.5-0.1,1.1-0.2,1.6-0.2c2.7,0,5.3,1.8,6.1,4.5c1,3.4-0.5,7.2-3.8,8.4l-24.4,10.6
			c-0.9,0.4-1.4,1.1-1.5,2c-0.2,0.9,0,1.8,0.7,2.5l10,11.7c0.6,0.6,1.4,0.9,2.1,0.9c0.2,0,0.3,0,0.5,0l30.6-7.5
			c0.5-0.2,1-0.5,1.5-0.9c0,0,13.3-16.7,22.9-28.7c0,0,0-0.2,0.2-0.2c1.2-1.4,2.2-2.9,3.3-4.1c1-1.4,2.8-2.3,4.5-2.5
			c0.2,0,0.4,0,0.7,0c1.5,0,3,0.5,4.2,1.5l0.2,0.2C206.6,118.6,207.1,122.7,204.9,125.8z"/>
	</g>
</g>
<g id="guias" class="st46">
</g>
</svg>
