<?xml version="1.0" encoding="utf-8"?>
<!-- Generator: Adobe Illustrator 23.1.0, SVG Export Plug-In . SVG Version: 6.00 Build 0)  -->
<svg version="1.1" id="vectores" xmlns="http://www.w3.org/2000/svg" xmlns:xlink="http://www.w3.org/1999/xlink" x="0px" y="0px"
	 viewBox="0 0 343 370" style="enable-background:new 0 0 343 370;" xml:space="preserve">
<style type="text/css">
	.st0{fill:#A8CFEF;}
	.st1{fill:#EFF0F8;}
	.st2{fill:#E6E9F8;}
	.st3{fill:#F3EFF8;}
	.st4{fill:#D0DEF2;}
	.st5{fill:#B0BEEA;}
	.st6{fill:#FFFFFF;}
	.st7{fill:#C4E8EF;}
	.st8{fill:#E0E0E0;}
	.st9{fill:#E8505B;}
	.st10{fill:#9090FF;}
	.st11{fill:#D8CCFF;}
	.st12{fill:#ADADEA;}
	.st13{opacity:0.1;fill:#ADADEA;enable-background:new    ;}
	.st14{fill:#393768;}
	.st15{opacity:0.3;fill:#393768;enable-background:new    ;}
	.st16{fill:#263238;}
	.st17{fill:#EDB6A4;}
	.st18{fill:#DCDFF8;}
	.st19{fill:#4491FF;}
	.st20{opacity:6.000000e-02;enable-background:new    ;}
	.st21{fill:#8F98F8;}
	.st22{fill:#A1A9F8;}
	.st23{fill:#2C3955;}
	.st24{fill:#0D2F6B;}
	.st25{fill:#37486B;}
	.st26{fill:#5A66D4;}
	.st27{fill:#CCE9F1;}
	.st28{fill:#99CAD6;}
</style>
<g>
	<g>
		<path class="st0" d="M270.3,239.9l3.9-1c0,0-0.9-3.3,2.5-4.2c1.8-0.5,3,0.4,3.6,1.2c0.7,0.9,0.9,2.1,0.6,3.2
			c-0.4,1.3-1.6,2.6-4.3,2.9l2.3,8.8l3.9-1l-1.4-5.2c0,0,5.1-2.8,3.5-8.8c-1.5-5.7-7-5.7-9.2-5.1C274,231.1,268.4,233.1,270.3,239.9
			z"/>
		
			<rect x="279.8" y="252" transform="matrix(0.9669 -0.2551 0.2551 0.9669 -55.4388 80.3005)" class="st0" width="4.1" height="3.8"/>
	</g>
	<path class="st1" d="M199.7,299.9c-3.5-1.1-7.1-2.1-10.8-3c-43.3-10-89.2-5.9-132.4,3.3c-51,10.8-31.2,40.8,9,39.7
		c40.2-1.1,30.4,15.7,65.7,18.6s81.2-14.5,125.4-12.2s77.4-13.2,40.4-15.4c-16.9-1-33.6-6.5-49.4-12.3
		C231.3,312.7,216.2,305.1,199.7,299.9z"/>
	<path class="st2" d="M195.5,306.7c6.6-9.9,13.8-15.9,21-20.7c56.1-32,29.3-53,54.4-89.2c52.8-46.3,26.7-31.4,14.1-71.4
		c-4.3-21.7,11.5-49.2,3.5-61C253.5-1.9,176.3,93,160.7,99.5c-32,15.8-44.1-11.4-78,47.1c-24.6,49.9,2.3,55.3,2.7,89.2
		C84.9,373.4,199.3,309.8,195.5,306.7z"/>
	<path class="st3" d="M133.5,93.1c0,0.1,0,0.2,0,0.3c0.8,6.1-3.8,11.8-10,12.6c-31.3,4.1-62.6,4.1-93.7-0.1c-5.2-0.7-9.3-4.8-9.9-10
		c-0.2-1.7-0.3-3.5-0.1-5.4c1-11.9,10.9-21.5,22.7-22.4c3.7-0.3,7.2,0.3,10.4,1.5c5.5-9.8,15.9-16.4,27.9-16.4
		c14.8,0,27.3,10.1,30.9,23.8c1-0.2,2-0.2,3-0.2C124.1,76.9,132.2,83.9,133.5,93.1z"/>
	<path class="st3" d="M224.1,60.3c0,0.1,0,0.1,0,0.2c-0.6,5,3.1,9.6,8.1,10.2c25.5,3.4,51,3.3,76.3-0.1c4.2-0.6,7.5-3.9,8.1-8.1
		c0.2-1.4,0.2-2.9,0.1-4.4c-0.8-9.7-8.9-17.6-18.5-18.2c-3-0.2-5.8,0.2-8.5,1.2c-4.5-8-13-13.4-22.8-13.4
		c-12.1,0-22.3,8.2-25.2,19.4c-0.8-0.1-1.6-0.2-2.4-0.2C231.8,47.1,225.1,52.8,224.1,60.3z"/>
	<path class="st4" d="M41.3,218.2c-0.1,0-0.1,0-0.2-0.1c-0.5-0.4-1-0.9-1.5-1.4c-0.1-0.1-0.1-0.3,0-0.4s0.3-0.1,0.4,0
		c0.5,0.5,0.9,0.9,1.4,1.4c0.1,0.1,0.1,0.2,0,0.4C41.4,218.2,41.3,218.2,41.3,218.2z M38.5,215.4c-0.1,0-0.1,0-0.2-0.1
		c-0.4-0.5-0.9-1-1.3-1.6c-0.1-0.1-0.1-0.3,0-0.3c0.1-0.1,0.3-0.1,0.3,0c0.4,0.5,0.8,1,1.2,1.5c0.1,0.1,0.1,0.3,0,0.4
		C38.6,215.4,38.5,215.4,38.5,215.4z M36.1,212.2c-0.1,0-0.2,0-0.2-0.1c-0.4-0.6-0.7-1.1-1-1.7c-0.1-0.1,0-0.3,0.1-0.3
		c0.1-0.1,0.3,0,0.3,0.1c0.3,0.6,0.7,1.1,1,1.7C36.4,212,36.3,212.2,36.1,212.2C36.2,212.2,36.1,212.2,36.1,212.2z M275.5,209.6
		c-0.1,0-0.2-0.1-0.2-0.2s0.1-0.3,0.2-0.3c0.6-0.1,1.1-0.1,1.7-0.2c0.1,0,0.3,0.1,0.3,0.2s-0.1,0.3-0.2,0.3
		C276.7,209.5,276.1,209.5,275.5,209.6L275.5,209.6z M279.2,209.2c-0.1,0-0.2-0.1-0.2-0.2s0.1-0.3,0.2-0.3c0.7-0.1,1.3-0.2,2-0.3
		c0.1,0,0.3,0.1,0.3,0.2s-0.1,0.3-0.2,0.3C280.6,209,279.9,209.1,279.2,209.2L279.2,209.2z M34.1,208.7c-0.1,0-0.2-0.1-0.2-0.1
		c-0.3-0.6-0.6-1.2-0.8-1.8c-0.1-0.1,0-0.3,0.1-0.3c0.1-0.1,0.3,0,0.3,0.1c0.3,0.6,0.5,1.2,0.8,1.8
		C34.4,208.5,34.3,208.7,34.1,208.7C34.2,208.7,34.1,208.7,34.1,208.7z M283.2,208.6c-0.1,0-0.2-0.1-0.2-0.2s0.1-0.3,0.2-0.3
		c0.7-0.1,1.3-0.2,2-0.3c0.1,0,0.3,0.1,0.3,0.2s-0.1,0.3-0.2,0.3C284.5,208.4,283.9,208.5,283.2,208.6L283.2,208.6z M287.1,207.9
		c-0.1,0-0.2-0.1-0.2-0.2s0.1-0.3,0.2-0.3c0.7-0.1,1.3-0.3,1.9-0.4c0.1,0,0.3,0.1,0.3,0.2s-0.1,0.3-0.2,0.3
		C288.4,207.6,287.8,207.7,287.1,207.9L287.1,207.9z M291,207c-0.1,0-0.2-0.1-0.2-0.2s0-0.3,0.2-0.3c0.6-0.2,1.3-0.3,1.9-0.5
		c0.1,0,0.3,0,0.3,0.2c0,0.1,0,0.3-0.2,0.3C292.3,206.6,291.7,206.8,291,207L291,207z M294.8,205.9c-0.1,0-0.2-0.1-0.2-0.2
		s0-0.3,0.2-0.3c0.6-0.2,1.3-0.4,1.9-0.6c0.1,0,0.3,0,0.3,0.2c0,0.1,0,0.3-0.2,0.3C296.2,205.5,295.5,205.7,294.8,205.9
		C294.9,205.9,294.9,205.9,294.8,205.9z M32.6,205.1c-0.1,0-0.2-0.1-0.2-0.2c-0.2-0.6-0.4-1.3-0.6-1.9c0-0.1,0-0.3,0.2-0.3
		c0.1,0,0.3,0,0.3,0.2c0.2,0.6,0.4,1.3,0.6,1.9C32.8,204.9,32.8,205,32.6,205.1L32.6,205.1z M298.6,204.6c-0.1,0-0.2-0.1-0.2-0.2
		s0-0.3,0.1-0.3c0.6-0.2,1.2-0.5,1.9-0.7c0.1-0.1,0.3,0,0.3,0.1s0,0.3-0.1,0.3C300,204.1,299.3,204.4,298.6,204.6
		C298.7,204.6,298.6,204.6,298.6,204.6z M302.3,203.2c-0.1,0-0.2-0.1-0.2-0.2c-0.1-0.1,0-0.3,0.1-0.3c0.6-0.3,1.2-0.5,1.8-0.8
		c0.1-0.1,0.3,0,0.3,0.1c0.1,0.1,0,0.3-0.1,0.3C303.7,202.6,303,202.9,302.3,203.2C302.4,203.1,302.4,203.2,302.3,203.2z
		 M305.9,201.5c-0.1,0-0.2,0-0.2-0.1c-0.1-0.1,0-0.3,0.1-0.3c0.6-0.3,1.2-0.6,1.8-0.9c0.1-0.1,0.3,0,0.3,0.1c0.1,0.1,0,0.3-0.1,0.3
		C307.2,200.9,306.6,201.2,305.9,201.5C306,201.5,306,201.5,305.9,201.5z M31.4,201.2c-0.1,0-0.2-0.1-0.2-0.2
		c-0.1-0.7-0.3-1.3-0.4-2c0-0.1,0.1-0.3,0.2-0.3s0.3,0.1,0.3,0.2c0.1,0.6,0.2,1.3,0.4,1.9C31.7,201.1,31.6,201.2,31.4,201.2
		C31.5,201.2,31.5,201.2,31.4,201.2z M309.4,199.5c-0.1,0-0.2,0-0.2-0.1c-0.1-0.1,0-0.3,0.1-0.3c0.6-0.3,1.1-0.7,1.7-1
		c0.1-0.1,0.3,0,0.3,0.1c0.1,0.1,0,0.3-0.1,0.3c-0.6,0.4-1.1,0.7-1.7,1.1C309.5,199.5,309.5,199.5,309.4,199.5z M312.8,197.4
		c-0.1,0-0.2,0-0.2-0.1c-0.1-0.1-0.1-0.3,0.1-0.3c0.5-0.4,1.1-0.8,1.6-1.2c0.1-0.1,0.3-0.1,0.4,0s0.1,0.3,0,0.4
		c-0.5,0.4-1.1,0.8-1.6,1.2C312.9,197.4,312.8,197.4,312.8,197.4z M30.8,197.3c-0.1,0-0.2-0.1-0.2-0.2c-0.1-0.7-0.1-1.3-0.2-2
		c0-0.1,0.1-0.3,0.2-0.3s0.3,0.1,0.3,0.2c0,0.7,0.1,1.3,0.2,2C31,197.1,30.9,197.3,30.8,197.3L30.8,197.3z M316,194.9
		c-0.1,0-0.1,0-0.2-0.1s-0.1-0.3,0-0.4c0.5-0.4,1-0.9,1.5-1.3c0.1-0.1,0.3-0.1,0.4,0s0.1,0.3,0,0.4c-0.5,0.4-1,0.9-1.5,1.3
		C316.1,194.9,316,194.9,316,194.9z M30.5,193.3c-0.1,0-0.2-0.1-0.3-0.2v-0.4c0-0.5,0-1.1,0-1.6c0-0.1,0.1-0.3,0.3-0.2
		c0.1,0,0.2,0.1,0.2,0.3c0,0.5,0,1.1,0,1.6v0.4C30.8,193.2,30.7,193.3,30.5,193.3z M318.9,192.3c-0.1,0-0.1,0-0.2-0.1
		s-0.1-0.3,0-0.4c0.5-0.5,0.9-0.9,1.4-1.4c0.1-0.1,0.3-0.1,0.4,0s0.1,0.3,0,0.4c-0.5,0.5-0.9,1-1.4,1.4
		C319.1,192.2,319,192.3,318.9,192.3z M321.7,189.4c-0.1,0-0.1,0-0.2-0.1s-0.1-0.2,0-0.4c0.4-0.5,0.9-1,1.3-1.5
		c0.1-0.1,0.2-0.1,0.4,0c0.1,0.1,0.1,0.2,0,0.4c-0.4,0.5-0.8,1-1.3,1.5C321.8,189.3,321.8,189.4,321.7,189.4z M30.7,189.3
		c-0.2,0-0.3-0.1-0.2-0.3c0.1-0.7,0.1-1.3,0.2-2c0-0.1,0.1-0.2,0.3-0.2c0.1,0,0.2,0.1,0.2,0.3c-0.1,0.6-0.2,1.3-0.2,2
		C30.9,189.2,30.8,189.3,30.7,189.3z M324.2,186.2c-0.1,0-0.1,0-0.1,0c-0.1-0.1-0.1-0.2-0.1-0.3c0.4-0.5,0.8-1.1,1.1-1.6
		c0.1-0.1,0.2-0.1,0.3-0.1c0.1,0.1,0.1,0.2,0.1,0.3c-0.4,0.6-0.8,1.1-1.1,1.7C324.3,186.2,324.3,186.2,324.2,186.2z M31.3,185.4
		L31.3,185.4c-0.2,0-0.3-0.2-0.2-0.3c0.1-0.7,0.3-1.3,0.5-2c0-0.1,0.2-0.2,0.3-0.2c0.1,0,0.2,0.2,0.2,0.3c-0.2,0.6-0.3,1.3-0.5,1.9
		C31.5,185.3,31.4,185.4,31.3,185.4z M326.4,182.9h-0.1c-0.1-0.1-0.2-0.2-0.1-0.3c0.3-0.6,0.7-1.1,1-1.7c0.1-0.1,0.2-0.2,0.3-0.1
		c0.1,0.1,0.2,0.2,0.1,0.3c-0.3,0.6-0.6,1.2-1,1.7C326.5,182.9,326.5,182.9,326.4,182.9z M32.3,181.5L32.3,181.5
		c-0.2-0.1-0.3-0.2-0.2-0.3c0.2-0.6,0.4-1.3,0.7-1.9c0.1-0.1,0.2-0.2,0.3-0.1s0.2,0.2,0.1,0.3c-0.2,0.6-0.5,1.2-0.7,1.9
		C32.5,181.4,32.4,181.5,32.3,181.5z M328.3,179.4h-0.1c-0.1-0.1-0.2-0.2-0.1-0.3c0.3-0.6,0.6-1.2,0.8-1.8c0.1-0.1,0.2-0.2,0.3-0.1
		c0.1,0.1,0.2,0.2,0.1,0.3c-0.3,0.6-0.5,1.2-0.8,1.8C328.4,179.3,328.3,179.4,328.3,179.4z M33.8,177.8L33.8,177.8
		c-0.2-0.1-0.3-0.2-0.2-0.3c0.3-0.6,0.6-1.2,0.9-1.8c0.1-0.1,0.2-0.2,0.3-0.1s0.2,0.2,0.1,0.3c-0.3,0.6-0.6,1.2-0.9,1.8
		C34,177.7,33.9,177.8,33.8,177.8z M329.8,175.7C329.7,175.7,329.7,175.7,329.8,175.7c-0.2-0.1-0.3-0.2-0.2-0.3
		c0.2-0.6,0.4-1.3,0.6-1.9c0-0.1,0.2-0.2,0.3-0.2c0.1,0,0.2,0.2,0.2,0.3c-0.2,0.6-0.4,1.3-0.6,1.9
		C330,175.6,329.9,175.7,329.8,175.7z M35.7,174.3L35.7,174.3c-0.2-0.1-0.3-0.2-0.2-0.3c0.4-0.6,0.7-1.1,1.1-1.7
		c0.1-0.1,0.2-0.1,0.3-0.1c0.1,0.1,0.1,0.2,0.1,0.3c-0.4,0.5-0.8,1.1-1.1,1.6C35.9,174.3,35.8,174.3,35.7,174.3z M218.9,173.9
		c-0.2,0-0.5,0-0.7,0c-0.1,0-0.2-0.1-0.2-0.3c0-0.1,0.1-0.2,0.3-0.2c0.7,0,1.3,0,2,0c0.1,0,0.3,0.1,0.3,0.2s-0.1,0.3-0.2,0.3
		C219.7,173.9,219.3,173.9,218.9,173.9z M216.1,173.8c-0.7,0-1.4-0.1-2-0.1c-0.1,0-0.2-0.1-0.2-0.3c0-0.1,0.1-0.2,0.3-0.2
		c0.7,0.1,1.3,0.1,2,0.1c0.1,0,0.2,0.1,0.2,0.3C216.4,173.7,216.3,173.8,216.1,173.8z M222.1,173.8c-0.1,0-0.2-0.1-0.2-0.2
		s0.1-0.3,0.2-0.3c0.7,0,1.3-0.1,2-0.2c0.1,0,0.3,0.1,0.3,0.2s-0.1,0.3-0.2,0.3C223.5,173.7,222.8,173.8,222.1,173.8L222.1,173.8z
		 M212.2,173.5C212.1,173.5,212.1,173.5,212.2,173.5c-0.7-0.1-1.4-0.2-2-0.3c-0.1,0-0.2-0.2-0.2-0.3c0-0.1,0.2-0.2,0.3-0.2
		c0.6,0.1,1.3,0.2,2,0.3c0.1,0,0.2,0.1,0.2,0.3C212.4,173.4,212.3,173.5,212.2,173.5z M226.1,173.4c-0.1,0-0.2-0.1-0.2-0.2
		s0.1-0.3,0.2-0.3c0.7-0.1,1.3-0.2,2-0.3c0.1,0,0.3,0.1,0.3,0.2s-0.1,0.3-0.2,0.3C227.5,173.2,226.8,173.3,226.1,173.4L226.1,173.4z
		 M208.2,172.8L208.2,172.8c-0.7-0.1-1.4-0.3-2-0.5c-0.1,0-0.2-0.2-0.2-0.3c0-0.1,0.2-0.2,0.3-0.2c0.6,0.2,1.3,0.3,1.9,0.5
		c0.1,0,0.2,0.2,0.2,0.3C208.4,172.7,208.3,172.8,208.2,172.8z M230,172.7c-0.1,0-0.2-0.1-0.2-0.2s0.1-0.3,0.2-0.3
		c0.6-0.1,1.3-0.3,1.9-0.5c0.1,0,0.3,0,0.3,0.2c0,0.1,0,0.3-0.2,0.3C231.4,172.4,230.7,172.6,230,172.7
		C230.1,172.7,230,172.7,230,172.7z M330.9,171.9L330.9,171.9c-0.2,0-0.3-0.2-0.2-0.3c0.1-0.6,0.3-1.3,0.4-1.9
		c0-0.1,0.2-0.2,0.3-0.2c0.1,0,0.2,0.2,0.2,0.3c-0.1,0.7-0.2,1.3-0.4,2C331.1,171.8,331,171.9,330.9,171.9z M204.3,171.8
		L204.3,171.8c-0.7-0.2-1.4-0.4-2-0.6c-0.1,0-0.2-0.2-0.2-0.3c0-0.1,0.2-0.2,0.3-0.2c0.6,0.2,1.3,0.4,1.9,0.6c0.1,0,0.2,0.2,0.2,0.3
		C204.6,171.7,204.5,171.8,204.3,171.8z M233.9,171.7c-0.1,0-0.2-0.1-0.2-0.2s0-0.3,0.2-0.3c0.6-0.2,1.3-0.4,1.9-0.6
		c0.1,0,0.3,0,0.3,0.2c0,0.1,0,0.3-0.2,0.3C235.3,171.3,234.6,171.5,233.9,171.7L233.9,171.7z M38.1,171.1c-0.1,0-0.1,0-0.2-0.1
		c-0.1-0.1-0.1-0.2,0-0.4c0.4-0.5,0.9-1,1.3-1.5c0.1-0.1,0.3-0.1,0.4,0c0.1,0.1,0.1,0.3,0,0.4c-0.5,0.5-0.9,1-1.3,1.5
		C38.2,171,38.1,171.1,38.1,171.1z M200.6,170.5C200.5,170.5,200.5,170.5,200.6,170.5c-0.7-0.3-1.3-0.5-1.9-0.8
		c-0.1-0.1-0.2-0.2-0.1-0.3c0.1-0.1,0.2-0.2,0.3-0.1c0.6,0.3,1.2,0.5,1.8,0.8c0.1,0.1,0.2,0.2,0.1,0.3
		C200.8,170.4,200.7,170.5,200.6,170.5z M237.7,170.4c-0.1,0-0.2-0.1-0.2-0.2s0-0.3,0.1-0.3c0.4-0.1,0.7-0.3,1.1-0.4
		c0.2-0.1,0.5-0.2,0.7-0.3c0.1-0.1,0.3,0,0.3,0.1c0.1,0.1,0,0.3-0.1,0.3c-0.2,0.1-0.5,0.2-0.7,0.3
		C238.5,170.1,238.1,170.3,237.7,170.4L237.7,170.4z M241.4,168.9c-0.1,0-0.2-0.1-0.2-0.1c-0.1-0.1,0-0.3,0.1-0.3
		c0.6-0.3,1.2-0.6,1.8-0.9c0.1-0.1,0.3,0,0.3,0.1c0.1,0.1,0,0.3-0.1,0.3c-0.6,0.3-1.2,0.6-1.8,0.9
		C241.4,168.9,241.4,168.9,241.4,168.9z M196.9,168.8h-0.1c-0.6-0.3-1.2-0.6-1.8-0.9c-0.1-0.1-0.2-0.2-0.1-0.3
		c0.1-0.1,0.2-0.2,0.3-0.1c0.6,0.3,1.2,0.6,1.8,0.9c0.1,0.1,0.2,0.2,0.1,0.3C197.1,168.8,197,168.8,196.9,168.8z M40.8,168.2
		c-0.1,0-0.1,0-0.2-0.1c-0.1-0.1-0.1-0.3,0-0.4c0.5-0.4,1-0.9,1.5-1.3c0.1-0.1,0.3-0.1,0.4,0c0.1,0.1,0.1,0.3,0,0.4
		c-0.5,0.4-1,0.9-1.5,1.3C40.9,168.2,40.9,168.2,40.8,168.2z M331.6,167.9L331.6,167.9c-0.2,0-0.3-0.1-0.2-0.3
		c0-0.4,0.1-0.8,0.1-1.3c0-0.2,0-0.5,0-0.7c0-0.1,0.1-0.2,0.3-0.2c0.1,0,0.2,0.1,0.2,0.3c0,0.2,0,0.5,0,0.7c0,0.4-0.1,0.9-0.1,1.3
		C331.8,167.8,331.7,167.9,331.6,167.9z M244.9,167.1c-0.1,0-0.2,0-0.2-0.1c-0.1-0.1,0-0.3,0.1-0.3c0.6-0.3,1.2-0.7,1.7-1
		c0.1-0.1,0.3,0,0.3,0.1c0.1,0.1,0,0.3-0.1,0.3c-0.6,0.3-1.1,0.7-1.7,1C245,167,245,167.1,244.9,167.1z M193.5,166.9h-0.1
		c-0.6-0.4-1.1-0.7-1.7-1.1c-0.1-0.1-0.1-0.2-0.1-0.3c0.1-0.1,0.2-0.1,0.3-0.1c0.5,0.4,1.1,0.7,1.7,1.1c0.1,0.1,0.2,0.2,0.1,0.3
		C193.6,166.8,193.5,166.9,193.5,166.9z M43.9,165.7c-0.1,0-0.2,0-0.2-0.1c-0.1-0.1-0.1-0.3,0.1-0.3c0.5-0.4,1.1-0.8,1.6-1.2
		c0.1-0.1,0.3-0.1,0.3,0.1c0.1,0.1,0.1,0.3-0.1,0.3C45.1,164.9,44.5,165.3,43.9,165.7C44,165.6,44,165.7,43.9,165.7z M248.3,165
		c-0.1,0-0.2,0-0.2-0.1c-0.1-0.1,0-0.3,0.1-0.3c0.6-0.4,1.1-0.7,1.6-1.1c0.1-0.1,0.3-0.1,0.3,0.1c0.1,0.1,0.1,0.3-0.1,0.3
		C249.5,164.3,248.9,164.7,248.3,165C248.4,165,248.4,165,248.3,165z M190.2,164.6c-0.1,0-0.1,0-0.2-0.1c-0.5-0.4-1.1-0.8-1.6-1.3
		c-0.1-0.1-0.1-0.2,0-0.4c0.1-0.1,0.2-0.1,0.4,0c0.5,0.4,1,0.8,1.5,1.3c0.1,0.1,0.1,0.2,0,0.4C190.3,164.6,190.2,164.6,190.2,164.6z
		 M331.8,163.9c-0.1,0-0.2-0.1-0.2-0.2c0-0.6-0.1-1.3-0.2-2c0-0.1,0.1-0.3,0.2-0.3s0.3,0.1,0.3,0.2c0.1,0.7,0.1,1.3,0.2,2
		C332,163.8,331.9,163.9,331.8,163.9L331.8,163.9z M47.2,163.4c-0.1,0-0.2,0-0.2-0.1c-0.1-0.1,0-0.3,0.1-0.3l1.7-1.1
		c0.1-0.1,0.3,0,0.3,0.1c0.1,0.1,0,0.3-0.1,0.3L47.2,163.4L47.2,163.4z M251.6,162.7c-0.1,0-0.1,0-0.2-0.1c-0.1-0.1-0.1-0.3,0-0.4
		c0.5-0.4,1-0.9,1.5-1.3c0.1-0.1,0.3-0.1,0.4,0c0.1,0.1,0.1,0.3,0,0.4c-0.5,0.4-1,0.9-1.5,1.3C251.7,162.6,251.6,162.7,251.6,162.7z
		 M187.2,162c-0.1,0-0.1,0-0.2-0.1c-0.5-0.5-0.9-1-1.4-1.5c-0.1-0.1-0.1-0.3,0-0.4s0.3-0.1,0.4,0c0.4,0.5,0.9,1,1.4,1.4
		c0.1,0.1,0.1,0.3,0,0.4C187.3,161.9,187.2,162,187.2,162z M50.5,161.1c-0.1,0-0.2,0-0.2-0.1c-0.1-0.1-0.1-0.3,0.1-0.3
		c0.5-0.4,1.1-0.8,1.6-1.2c0.1-0.1,0.3-0.1,0.3,0.1c0.1,0.1,0.1,0.3-0.1,0.3C51.7,160.3,51.1,160.7,50.5,161.1
		C50.6,161.1,50.6,161.1,50.5,161.1z M331.3,160c-0.1,0-0.2-0.1-0.2-0.2c-0.1-0.6-0.3-1.3-0.5-1.9c0-0.1,0-0.3,0.2-0.3
		c0.1,0,0.3,0,0.3,0.2c0.2,0.7,0.3,1.3,0.5,2C331.5,159.8,331.5,159.9,331.3,160L331.3,160z M254.5,160c-0.1,0-0.1,0-0.2-0.1
		c-0.1-0.1-0.1-0.3,0-0.4c0.5-0.5,0.9-1,1.3-1.5c0.1-0.1,0.2-0.1,0.4,0c0.1,0.1,0.1,0.2,0,0.4c-0.4,0.5-0.9,1-1.3,1.5
		C254.7,159.9,254.6,160,254.5,160z M184.5,159c-0.1,0-0.2,0-0.2-0.1c-0.4-0.5-0.8-1.1-1.1-1.7c-0.1-0.1,0-0.3,0.1-0.3
		c0.1-0.1,0.3,0,0.3,0.1c0.4,0.6,0.7,1.1,1.1,1.6c0.1,0.1,0.1,0.3-0.1,0.3C184.6,158.9,184.6,159,184.5,159z M53.7,158.8
		c-0.1,0-0.1,0-0.2-0.1c-0.1-0.1-0.1-0.3,0-0.4c0.4-0.3,0.8-0.7,1.2-1l0.3-0.2c0.1-0.1,0.3-0.1,0.4,0c0.1,0.1,0.1,0.3,0,0.4
		l-0.3,0.2c-0.4,0.3-0.8,0.7-1.3,1C53.8,158.7,53.8,158.8,53.7,158.8z M257,156.8h-0.1c-0.1-0.1-0.1-0.2-0.1-0.3l1.1-1.6
		c0.1-0.1,0.2-0.1,0.3-0.1c0.1,0.1,0.1,0.2,0.1,0.3l-1.1,1.6C257.2,156.8,257.1,156.8,257,156.8z M56.7,156.1c-0.1,0-0.1,0-0.2-0.1
		c-0.1-0.1-0.1-0.3,0-0.4c0.5-0.4,1-0.9,1.5-1.4c0.1-0.1,0.3-0.1,0.4,0c0.1,0.1,0.1,0.3,0,0.4c-0.5,0.5-1,0.9-1.5,1.4
		C56.8,156.1,56.8,156.1,56.7,156.1z M330.2,156.1c-0.1,0-0.2-0.1-0.2-0.2c-0.2-0.6-0.5-1.2-0.7-1.8c-0.1-0.1,0-0.3,0.1-0.3
		c0.1-0.1,0.3,0,0.3,0.1c0.3,0.6,0.5,1.3,0.7,1.9C330.5,155.9,330.4,156.1,330.2,156.1C330.3,156.1,330.2,156.1,330.2,156.1z
		 M182.4,155.6c-0.1,0-0.2,0-0.2-0.1c-0.3-0.6-0.6-1.2-0.9-1.8c-0.1-0.1,0-0.3,0.1-0.3c0.1-0.1,0.3,0,0.3,0.1
		c0.3,0.6,0.6,1.2,0.9,1.8c0.1,0.1,0,0.3-0.1,0.3C182.5,155.6,182.4,155.6,182.4,155.6z M259.3,153.5h-0.1c-0.1-0.1-0.1-0.2-0.1-0.3
		c0.4-0.5,0.8-1.1,1.1-1.6c0.1-0.1,0.2-0.1,0.3-0.1c0.1,0.1,0.1,0.2,0.1,0.3c-0.4,0.5-0.8,1.1-1.1,1.6
		C259.4,153.5,259.4,153.5,259.3,153.5z M59.6,153.4c-0.1,0-0.1,0-0.2-0.1c-0.1-0.1-0.1-0.3,0-0.4c0.5-0.5,0.9-0.9,1.4-1.4
		c0.1-0.1,0.3-0.1,0.4,0c0.1,0.1,0.1,0.3,0,0.4c-0.5,0.5-0.9,1-1.4,1.4C59.7,153.3,59.7,153.4,59.6,153.4z M328.6,152.4
		c-0.1,0-0.2-0.1-0.2-0.1c-0.3-0.6-0.6-1.2-0.9-1.7c-0.1-0.1,0-0.3,0.1-0.3c0.1-0.1,0.3,0,0.3,0.1c0.3,0.6,0.7,1.2,1,1.8
		c0.1,0.1,0,0.3-0.1,0.3C328.7,152.4,328.7,152.4,328.6,152.4z M180.7,152c-0.1,0-0.2-0.1-0.2-0.2c-0.2-0.6-0.5-1.2-0.7-1.9
		c0-0.1,0-0.3,0.2-0.3c0.1,0,0.3,0,0.3,0.2c0.2,0.6,0.4,1.3,0.7,1.9C181,151.8,180.9,151.9,180.7,152C180.8,152,180.8,152,180.7,152
		z M62.4,150.5c-0.1,0-0.1,0-0.2-0.1c-0.1-0.1-0.1-0.3,0-0.4c0.4-0.5,0.9-1,1.3-1.5c0.1-0.1,0.2-0.1,0.4,0c0.1,0.1,0.1,0.2,0,0.4
		c-0.4,0.5-0.9,1-1.3,1.5C62.5,150.4,62.4,150.5,62.4,150.5z M261.6,150.3c-0.1,0-0.1,0-0.1,0c-0.1-0.1-0.1-0.2-0.1-0.3
		c0.4-0.5,0.8-1.1,1.2-1.6c0.1-0.1,0.2-0.1,0.3,0c0.1,0.1,0.1,0.2,0,0.4C262.5,149.3,262.1,149.9,261.6,150.3
		C261.7,150.2,261.7,150.3,261.6,150.3z M326.6,149c-0.1,0-0.2,0-0.2-0.1c-0.4-0.6-0.7-1.1-1.1-1.6c-0.1-0.1-0.1-0.3,0.1-0.3
		c0.1-0.1,0.3-0.1,0.3,0.1c0.4,0.5,0.8,1.1,1.1,1.7C326.9,148.9,326.8,149.1,326.6,149C326.7,149,326.7,149,326.6,149z M179.4,148.2
		c-0.1,0-0.2-0.1-0.2-0.2c-0.2-0.6-0.4-1.3-0.5-1.9c0-0.1,0-0.3,0.2-0.3c0.1,0,0.3,0,0.3,0.2c0.2,0.6,0.4,1.3,0.5,1.9
		C179.7,148,179.6,148.1,179.4,148.2C179.5,148.2,179.4,148.2,179.4,148.2z M65,147.5c-0.1,0-0.1,0-0.2-0.1s-0.1-0.2,0-0.4
		c0.4-0.5,0.8-1,1.3-1.5c0.1-0.1,0.2-0.1,0.4,0c0.1,0.1,0.1,0.2,0,0.4c-0.4,0.5-0.8,1-1.3,1.6C65.1,147.4,65.1,147.5,65,147.5z
		 M264,147.1c-0.1,0-0.1,0-0.2-0.1s-0.1-0.2,0-0.4c0.4-0.5,0.8-1,1.3-1.5c0.1-0.1,0.2-0.1,0.4,0c0.1,0.1,0.1,0.2,0,0.4
		c-0.4,0.5-0.9,1-1.3,1.5C264.2,147.1,264.1,147.1,264,147.1z M324.3,145.8c-0.1,0-0.1,0-0.2-0.1c-0.4-0.5-0.8-1-1.3-1.5
		c-0.1-0.1-0.1-0.3,0-0.4c0.1-0.1,0.3-0.1,0.4,0c0.4,0.5,0.9,1,1.3,1.5c0.1,0.1,0.1,0.3,0,0.4C324.4,145.7,324.3,145.8,324.3,145.8z
		 M178.4,144.3c-0.1,0-0.2-0.1-0.2-0.2c-0.2-0.6-0.3-1.3-0.5-1.9c0-0.1,0.1-0.3,0.2-0.3c0.1,0,0.3,0.1,0.3,0.2
		c0.1,0.6,0.3,1.3,0.5,1.9C178.7,144.2,178.6,144.3,178.4,144.3L178.4,144.3z M67.5,144.3c-0.1,0-0.1,0-0.1-0.1
		c-0.1-0.1-0.1-0.2,0-0.3c0.4-0.5,0.8-1.1,1.2-1.6c0.1-0.1,0.2-0.1,0.3-0.1c0.1,0.1,0.1,0.2,0.1,0.3c-0.4,0.5-0.8,1.1-1.2,1.6
		C67.6,144.3,67.5,144.3,67.5,144.3z M266.6,144.1c-0.1,0-0.1,0-0.2-0.1s-0.1-0.3,0-0.4c0.5-0.5,0.9-1,1.4-1.5
		c0.1-0.1,0.3-0.1,0.4,0s0.1,0.3,0,0.4c-0.5,0.5-0.9,0.9-1.4,1.4C266.7,144,266.7,144.1,266.6,144.1z M321.6,142.8
		c-0.1,0-0.1,0-0.2-0.1c-0.5-0.5-0.9-0.9-1.4-1.4c-0.1-0.1-0.1-0.3,0-0.4c0.1-0.1,0.3-0.1,0.4,0c0.5,0.5,1,0.9,1.4,1.4
		c0.1,0.1,0.1,0.3,0,0.4C321.8,142.7,321.7,142.8,321.6,142.8z M269.4,141.2c-0.1,0-0.1,0-0.2-0.1s-0.1-0.3,0-0.4
		c0.5-0.5,1-0.9,1.5-1.3c0.1-0.1,0.3-0.1,0.4,0s0.1,0.3,0,0.4c-0.5,0.4-1,0.9-1.5,1.3C269.5,141.2,269.5,141.2,269.4,141.2z
		 M69.8,141.1L69.8,141.1c-0.2-0.1-0.2-0.2-0.2-0.3c0.4-0.6,0.7-1.1,1.1-1.7c0.1-0.1,0.2-0.2,0.3-0.1c0.1,0.1,0.2,0.2,0.1,0.3
		c-0.4,0.6-0.7,1.1-1.1,1.7C69.9,141,69.9,141.1,69.8,141.1z M177.5,140.4c-0.1,0-0.2-0.1-0.2-0.2l-0.4-2c0-0.1,0.1-0.3,0.2-0.3
		c0.1,0,0.3,0.1,0.3,0.2l0.4,2C177.8,140.3,177.7,140.4,177.5,140.4L177.5,140.4z M318.7,140.1c-0.1,0-0.1,0-0.2-0.1
		c-0.5-0.4-1-0.8-1.5-1.2c-0.1-0.1-0.1-0.2,0-0.4c0.1-0.1,0.2-0.1,0.4,0c0.5,0.4,1.1,0.8,1.6,1.3c0.1,0.1,0.1,0.2,0,0.4
		C318.8,140,318.8,140.1,318.7,140.1z M272.5,138.7c-0.1,0-0.2,0-0.2-0.1c-0.1-0.1-0.1-0.3,0.1-0.3c0.5-0.4,1-0.8,1.5-1.1l0.1-0.1
		c0.1-0.1,0.3,0,0.3,0.1c0.1,0.1,0,0.3-0.1,0.3l-0.1,0.1C273.6,137.9,273.1,138.3,272.5,138.7C272.6,138.7,272.5,138.7,272.5,138.7z
		 M71.9,137.7L71.9,137.7c-0.2-0.1-0.3-0.2-0.2-0.3c0.3-0.6,0.7-1.1,1-1.7c0.1-0.1,0.2-0.2,0.3-0.1c0.1,0.1,0.2,0.2,0.1,0.3
		c-0.3,0.6-0.7,1.2-1,1.7C72.1,137.7,72,137.7,71.9,137.7z M315.5,137.6h-0.1c-0.5-0.4-1.1-0.7-1.7-1.1c-0.1-0.1-0.2-0.2-0.1-0.3
		s0.2-0.2,0.3-0.1c0.6,0.3,1.1,0.7,1.7,1.1c0.1,0.1,0.1,0.2,0.1,0.3C315.7,137.6,315.6,137.6,315.5,137.6z M176.6,136.5
		c-0.1,0-0.2-0.1-0.2-0.2c-0.1-0.6-0.3-1.3-0.4-1.9c0-0.1,0.1-0.3,0.2-0.3c0.1,0,0.3,0.1,0.3,0.2c0.2,0.6,0.3,1.3,0.4,2
		C176.9,136.4,176.8,136.5,176.6,136.5C176.7,136.5,176.7,136.5,176.6,136.5z M275.8,136.5c-0.1,0-0.2,0-0.2-0.1
		c-0.1-0.1,0-0.3,0.1-0.3c0.6-0.3,1.2-0.7,1.8-1c0.1-0.1,0.3,0,0.3,0.1c0.1,0.1,0,0.3-0.1,0.3c-0.6,0.3-1.2,0.6-1.7,1
		C275.9,136.5,275.9,136.5,275.8,136.5z M312.1,135.5H312c-0.6-0.3-1.2-0.6-1.8-0.9c-0.1-0.1-0.2-0.2-0.1-0.3s0.2-0.2,0.3-0.1
		c0.6,0.3,1.2,0.6,1.8,0.9c0.1,0.1,0.2,0.2,0.1,0.3C312.3,135.5,312.2,135.5,312.1,135.5z M279.4,134.6c-0.1,0-0.2-0.1-0.2-0.1
		c-0.1-0.1,0-0.3,0.1-0.3c0.6-0.3,1.2-0.5,1.9-0.8c0.1-0.1,0.3,0,0.3,0.1s0,0.3-0.1,0.3c-0.6,0.2-1.2,0.5-1.8,0.8
		C279.4,134.6,279.4,134.6,279.4,134.6z M73.9,134.2L73.9,134.2c-0.2-0.1-0.3-0.2-0.2-0.3c0.3-0.6,0.6-1.2,0.9-1.8
		c0.1-0.1,0.2-0.2,0.3-0.1c0.1,0.1,0.2,0.2,0.1,0.3c-0.3,0.6-0.6,1.2-0.9,1.8C74.1,134.2,74,134.2,73.9,134.2z M308.5,133.8
		L308.5,133.8c-0.7-0.3-1.3-0.5-2-0.7c-0.1,0-0.2-0.2-0.2-0.3s0.2-0.2,0.3-0.2c0.6,0.2,1.3,0.4,1.9,0.7c0.1,0.1,0.2,0.2,0.1,0.3
		C308.7,133.8,308.6,133.8,308.5,133.8z M283.1,133.2c-0.1,0-0.2-0.1-0.2-0.2c0-0.1,0-0.3,0.2-0.3c0.6-0.2,1.3-0.4,1.9-0.6
		c0.1,0,0.3,0,0.3,0.2c0,0.1,0,0.3-0.2,0.3C284.4,132.8,283.8,133,283.1,133.2L283.1,133.2z M175.7,132.6c-0.1,0-0.2-0.1-0.2-0.2
		c-0.2-0.6-0.3-1.3-0.5-1.9c0-0.1,0-0.3,0.2-0.3c0.1,0,0.3,0,0.3,0.2c0.2,0.6,0.4,1.3,0.5,1.9C176,132.5,175.9,132.6,175.7,132.6
		C175.8,132.6,175.7,132.6,175.7,132.6z M304.7,132.5L304.7,132.5c-0.7-0.2-1.3-0.3-2-0.5c-0.1,0-0.2-0.2-0.2-0.3s0.2-0.2,0.3-0.2
		c0.7,0.1,1.3,0.3,2,0.5c0.1,0,0.2,0.2,0.2,0.3C304.9,132.5,304.8,132.5,304.7,132.5z M286.9,132.1c-0.1,0-0.2-0.1-0.2-0.2
		c0-0.1,0.1-0.3,0.2-0.3c0.7-0.1,1.3-0.3,2-0.4c0.1,0,0.3,0.1,0.3,0.2c0,0.1-0.1,0.3-0.2,0.3C288.3,131.9,287.6,132,286.9,132.1
		C287,132.1,287,132.1,286.9,132.1z M300.8,131.7L300.8,131.7c-0.7-0.1-1.3-0.2-2-0.3c-0.1,0-0.2-0.1-0.2-0.3c0-0.1,0.1-0.2,0.3-0.2
		c0.7,0.1,1.3,0.2,2,0.3c0.1,0,0.2,0.1,0.2,0.3C301.1,131.6,301,131.7,300.8,131.7z M290.9,131.5c-0.1,0-0.2-0.1-0.2-0.2
		c0-0.1,0.1-0.3,0.2-0.3c0.7-0.1,1.3-0.1,2-0.2c0.2,0,0.3,0.1,0.3,0.2c0,0.1-0.1,0.3-0.2,0.3C292.2,131.4,291.6,131.4,290.9,131.5
		L290.9,131.5z M296.9,131.3c-0.6,0-1.2,0-1.8,0h-0.2c-0.1,0-0.3-0.1-0.3-0.2c0-0.1,0.1-0.3,0.2-0.3h0.2c0.6,0,1.2,0,1.8,0
		c0.1,0,0.2,0.1,0.2,0.3C297.1,131.2,297,131.3,296.9,131.3z M75.7,130.6L75.7,130.6c-0.2-0.1-0.3-0.2-0.2-0.3
		c0.3-0.6,0.5-1.2,0.8-1.8c0.1-0.1,0.2-0.2,0.3-0.1c0.1,0.1,0.2,0.2,0.1,0.3c-0.3,0.6-0.5,1.2-0.8,1.8
		C75.8,130.6,75.7,130.6,75.7,130.6z M174.6,128.8c-0.1,0-0.2-0.1-0.2-0.2c-0.2-0.6-0.4-1.3-0.6-1.9c0-0.1,0-0.3,0.1-0.3
		s0.3,0,0.3,0.1c0.2,0.6,0.4,1.2,0.7,1.9C174.9,128.6,174.8,128.7,174.6,128.8C174.7,128.8,174.6,128.8,174.6,128.8z M77.2,127
		C77.2,127,77.1,126.9,77.2,127c-0.2-0.1-0.3-0.2-0.2-0.3c0.2-0.6,0.5-1.2,0.7-1.9c0-0.1,0.2-0.2,0.3-0.2c0.1,0,0.2,0.2,0.2,0.3
		c-0.2,0.6-0.4,1.3-0.7,1.9C77.4,126.9,77.3,127,77.2,127z M173.2,125.1c-0.1,0-0.2-0.1-0.2-0.2c-0.3-0.6-0.5-1.2-0.8-1.8
		c-0.1-0.1,0-0.3,0.1-0.3c0.1-0.1,0.3,0,0.3,0.1c0.3,0.6,0.6,1.2,0.8,1.8C173.5,124.8,173.5,125,173.2,125.1
		C173.3,125.1,173.3,125.1,173.2,125.1z M78.5,123.2L78.5,123.2c-0.2-0.1-0.3-0.2-0.2-0.3c0.2-0.6,0.4-1.3,0.6-1.9
		c0-0.1,0.2-0.2,0.3-0.2c0.1,0,0.2,0.2,0.2,0.3c-0.2,0.6-0.4,1.3-0.6,1.9C78.7,123.1,78.6,123.2,78.5,123.2z M171.5,121.5
		c-0.1,0-0.2,0-0.2-0.1c-0.3-0.6-0.7-1.1-1-1.7c-0.1-0.1,0-0.3,0.1-0.3c0.1-0.1,0.3,0,0.3,0.1c0.4,0.6,0.7,1.1,1.1,1.7
		c0.1,0.1,0,0.3-0.1,0.3S171.5,121.5,171.5,121.5z M79.6,119.3C79.6,119.3,79.5,119.3,79.6,119.3c-0.2,0-0.3-0.2-0.2-0.3
		c0.2-0.6,0.3-1.3,0.4-1.9c0-0.1,0.2-0.2,0.3-0.2c0.1,0,0.2,0.2,0.2,0.3c-0.1,0.7-0.3,1.3-0.4,2C79.8,119.3,79.7,119.3,79.6,119.3z
		 M169.3,118.2c-0.1,0-0.1,0-0.2-0.1c-0.4-0.5-0.8-1-1.2-1.5c-0.1-0.1-0.1-0.3,0-0.4c0.1-0.1,0.3-0.1,0.4,0c0.4,0.5,0.9,1,1.3,1.6
		c0.1,0.1,0.1,0.3,0,0.4C169.4,118.1,169.3,118.2,169.3,118.2z M80.4,115.4C80.4,115.4,80.3,115.4,80.4,115.4
		c-0.2,0-0.3-0.2-0.2-0.3c0.1-0.7,0.2-1.3,0.3-2c0-0.1,0.1-0.2,0.3-0.2c0.1,0,0.2,0.1,0.2,0.3c-0.1,0.7-0.2,1.3-0.3,2
		C80.6,115.3,80.5,115.4,80.4,115.4z M166.7,115.1c-0.1,0-0.1,0-0.2-0.1c-0.5-0.5-0.9-0.9-1.4-1.4c-0.1-0.1-0.1-0.3,0-0.4
		c0.1-0.1,0.3-0.1,0.4,0c0.5,0.5,1,0.9,1.5,1.4c0.1,0.1,0.1,0.3,0,0.4C166.8,115.1,166.7,115.1,166.7,115.1z M163.7,112.5
		c-0.1,0-0.1,0-0.2-0.1c-0.5-0.4-1-0.8-1.6-1.2c-0.1-0.1-0.1-0.2-0.1-0.3c0.1-0.1,0.2-0.1,0.3-0.1c0.5,0.4,1.1,0.8,1.6,1.2
		c0.1,0.1,0.1,0.2,0,0.4C163.8,112.4,163.8,112.5,163.7,112.5z M80.9,111.5c-0.2,0-0.3-0.1-0.2-0.3c0.1-0.7,0.1-1.3,0.2-2
		c0-0.1,0.1-0.2,0.3-0.2c0.1,0,0.2,0.1,0.2,0.3c0,0.7-0.1,1.3-0.2,2C81.1,111.4,81,111.5,80.9,111.5z M160.4,110.1h-0.1
		c-0.5-0.4-1.1-0.7-1.7-1c-0.1-0.1-0.2-0.2-0.1-0.3c0.1-0.1,0.2-0.2,0.3-0.1c0.6,0.3,1.2,0.7,1.7,1c0.1,0.1,0.1,0.2,0.1,0.3
		C160.6,110.1,160.5,110.1,160.4,110.1z M157,108.1h-0.1c-0.6-0.3-1.2-0.6-1.8-0.9c-0.1-0.1-0.2-0.2-0.1-0.3
		c0.1-0.1,0.2-0.2,0.3-0.1c0.6,0.3,1.2,0.6,1.8,0.9c0.1,0.1,0.2,0.2,0.1,0.3C157.2,108.1,157.1,108.1,157,108.1z M82.1,108.1
		c-0.6,0-1.2,0-1.7,0c-0.1,0-0.2-0.1-0.2-0.3c0-0.1,0.1-0.2,0.3-0.2c0.6,0,1.1,0,1.7,0h0.3c0.1,0,0.3,0.1,0.3,0.2
		c0,0.1-0.1,0.3-0.2,0.3H82.1z M84.3,108.1c-0.1,0-0.2-0.1-0.2-0.2c0-0.1,0.1-0.3,0.2-0.3c0.7,0,1.3-0.1,2-0.1
		c0.1,0,0.3,0.1,0.3,0.2c0,0.1-0.1,0.3-0.2,0.3C85.7,108,85,108,84.3,108.1L84.3,108.1z M78.3,107.9L78.3,107.9
		c-0.7-0.1-1.4-0.2-2-0.3c-0.1,0-0.2-0.2-0.2-0.3s0.2-0.2,0.3-0.2c0.6,0.1,1.3,0.2,2,0.3c0.1,0,0.2,0.1,0.2,0.3
		C78.6,107.8,78.5,107.9,78.3,107.9z M88.3,107.7c-0.1,0-0.3-0.1-0.3-0.2c0-0.1,0.1-0.3,0.2-0.3c0,0,1.3-0.1,2-0.2
		c0.1,0,0.3,0.1,0.3,0.2c0,0.1-0.1,0.3-0.2,0.3C89.7,107.6,89,107.6,88.3,107.7C88.4,107.7,88.4,107.7,88.3,107.7z M81.2,107.5
		c-0.1,0-0.3-0.1-0.2-0.3c0-0.6,0-1.1,0-1.7v-0.3c0-0.1,0.1-0.3,0.2-0.3s0.3,0.1,0.3,0.2v0.3c0,0.6,0,1.1,0,1.7
		C81.4,107.4,81.3,107.5,81.2,107.5z M92.3,107.2c-0.1,0-0.2-0.1-0.2-0.2c0-0.1,0.1-0.3,0.2-0.3c0.7-0.1,1.3-0.2,2-0.3
		c0.1,0,0.3,0.1,0.3,0.2c0,0.1-0.1,0.3-0.2,0.3C93.6,107.1,93,107.2,92.3,107.2L92.3,107.2z M74.4,107.1L74.4,107.1
		c-0.4-0.1-0.6-0.2-0.9-0.3c-0.4-0.1-0.7-0.3-1.1-0.4c-0.1-0.1-0.2-0.2-0.1-0.3s0.2-0.2,0.3-0.1c0.3,0.1,0.7,0.3,1,0.4
		c0.3,0.1,0.5,0.2,0.8,0.3c0.1,0,0.2,0.2,0.2,0.3C74.6,107,74.5,107.1,74.4,107.1z M96.2,106.7c-0.1,0-0.2-0.1-0.2-0.2
		c0-0.1,0.1-0.3,0.2-0.3c0.7-0.1,1.3-0.2,2-0.3c0.1,0,0.3,0.1,0.3,0.2c0,0.1-0.1,0.3-0.2,0.3C97.6,106.5,96.9,106.6,96.2,106.7
		C96.3,106.7,96.2,106.7,96.2,106.7z M153.3,106.5L153.3,106.5c-0.7-0.3-1.3-0.5-2-0.7c-0.1,0-0.2-0.2-0.1-0.3
		c0-0.1,0.2-0.2,0.3-0.1c0.6,0.2,1.3,0.5,1.9,0.7c0.1,0.1,0.2,0.2,0.1,0.3C153.5,106.4,153.4,106.5,153.3,106.5z M100.2,106.1
		c-0.1,0-0.2-0.1-0.2-0.2c0-0.1,0.1-0.3,0.2-0.3c0.7-0.1,1.3-0.2,2-0.3c0.1,0,0.3,0.1,0.3,0.2c0,0.1-0.1,0.3-0.2,0.3
		C101.5,105.8,100.9,105.9,100.2,106.1L100.2,106.1z M70.8,105.5L70.8,105.5c-0.7-0.4-1.2-0.7-1.8-1.2c-0.1-0.1-0.1-0.2,0-0.4
		c0.1-0.1,0.2-0.1,0.4,0c0.5,0.4,1,0.8,1.6,1.1c0.1,0.1,0.2,0.2,0.1,0.3C71,105.4,70.9,105.5,70.8,105.5z M104.1,105.4
		c-0.1,0-0.2-0.1-0.2-0.2c0-0.1,0.1-0.3,0.2-0.3l2-0.3c0.1,0,0.3,0.1,0.3,0.2c0,0.1-0.1,0.3-0.2,0.3L104.1,105.4L104.1,105.4z
		 M149.6,105.1C149.6,105.1,149.5,105.1,149.6,105.1c-0.7-0.2-1.3-0.4-2-0.6c-0.1,0-0.2-0.2-0.2-0.3s0.2-0.2,0.3-0.2
		c0.6,0.2,1.3,0.4,1.9,0.6c0.1,0,0.2,0.2,0.2,0.3C149.8,105,149.7,105.1,149.6,105.1z M108.1,104.8c-0.1,0-0.2-0.1-0.2-0.2
		c0-0.1,0.1-0.3,0.2-0.3c0.7-0.1,1.3-0.2,2-0.3c0.1,0,0.3,0.1,0.3,0.2c0,0.1-0.1,0.3-0.2,0.3C109.4,104.5,108.8,104.6,108.1,104.8
		L108.1,104.8z M112,104.1c-0.1,0-0.2-0.1-0.2-0.2c0-0.1,0.1-0.3,0.2-0.3c0.7-0.1,1.3-0.2,2-0.3c0.1,0,0.3,0.1,0.3,0.2
		c0,0.1-0.1,0.3-0.2,0.3C113.4,103.9,112.7,104,112,104.1L112,104.1z M145.7,104L145.7,104c-0.7-0.2-1.4-0.3-2-0.4
		c-0.1,0-0.2-0.2-0.2-0.3s0.2-0.2,0.3-0.2c0.7,0.1,1.3,0.3,2,0.4c0.1,0,0.2,0.2,0.2,0.3C146,104,145.9,104,145.7,104z M116,103.6
		c-0.1,0-0.2-0.1-0.2-0.2c0-0.1,0.1-0.3,0.2-0.3c0.7-0.1,1.3-0.2,2-0.3c0.1,0,0.3,0.1,0.3,0.2c0,0.1-0.1,0.3-0.2,0.3
		C117.3,103.4,116.7,103.5,116,103.6L116,103.6z M81.2,103.5c-0.1,0-0.2-0.1-0.2-0.2c0-0.6,0-1.3-0.1-2c0-0.1,0.1-0.3,0.2-0.3
		s0.3,0.1,0.3,0.2c0,0.7,0.1,1.4,0.1,2C81.4,103.4,81.3,103.5,81.2,103.5L81.2,103.5z M141.8,103.2L141.8,103.2
		c-0.7-0.1-1.4-0.2-2-0.3c-0.1,0-0.2-0.1-0.2-0.3c0-0.1,0.1-0.2,0.3-0.2c0.7,0.1,1.3,0.2,2,0.3c0.1,0,0.2,0.2,0.2,0.3
		C142,103.2,141.9,103.2,141.8,103.2z M119.9,103.1c-0.1,0-0.2-0.1-0.2-0.2c0-0.1,0.1-0.3,0.2-0.3c0.7-0.1,1.3-0.1,2-0.2
		c0.1,0,0.3,0.1,0.3,0.2s-0.1,0.3-0.2,0.3C121.3,102.9,120.6,103,119.9,103.1L119.9,103.1z M67.7,103c-0.1,0-0.1,0-0.2-0.1
		c-0.5-0.5-0.9-1-1.3-1.6c-0.1-0.1-0.1-0.3,0.1-0.3c0.1-0.1,0.3-0.1,0.3,0.1c0.4,0.5,0.8,1,1.2,1.5C67.9,102.7,67.9,102.9,67.7,103
		C67.8,102.9,67.8,103,67.7,103z M137.9,102.7c-0.7-0.1-1.3-0.1-2-0.2c-0.1,0-0.2-0.1-0.2-0.3c0-0.1,0.1-0.2,0.3-0.2
		c0.7,0,1.3,0.1,2,0.2c0.1,0,0.2,0.1,0.2,0.3C138.1,102.6,138,102.7,137.9,102.7z M123.9,102.7c-0.1,0-0.2-0.1-0.2-0.2
		c0-0.1,0.1-0.3,0.2-0.3c0.7-0.1,1.3-0.1,2-0.1c0.1,0,0.3,0.1,0.3,0.2c0,0.1-0.1,0.3-0.2,0.3C125.2,102.6,123.9,102.7,123.9,102.7z
		 M127.9,102.5c-0.1,0-0.2-0.1-0.2-0.2c0-0.1,0.1-0.3,0.2-0.3c0.7,0,1.3,0,2-0.1c0.1,0,0.3,0.1,0.3,0.2c0,0.1-0.1,0.3-0.2,0.3
		C129.2,102.4,127.9,102.5,127.9,102.5z M133.9,102.4c-0.3,0-1.6,0-2,0c-0.1,0-0.2-0.1-0.2-0.3c0-0.1,0.1-0.2,0.3-0.2
		c0.4,0,1.8,0,2,0c0.1,0,0.2,0.1,0.2,0.3C134.1,102.3,134,102.4,133.9,102.4z M65.4,99.7c-0.1,0-0.2-0.1-0.2-0.1
		c-0.3-0.6-0.5-1.3-0.7-1.9c0-0.1,0-0.3,0.2-0.3c0.1,0,0.3,0,0.3,0.2c0.2,0.6,0.4,1.2,0.7,1.8c0.1,0.1,0,0.3-0.1,0.3
		C65.5,99.7,65.5,99.7,65.4,99.7z M80.9,99.5c-0.1,0-0.2-0.1-0.2-0.2c-0.1-0.7-0.1-1.4-0.2-2c0-0.1,0.1-0.3,0.2-0.3s0.3,0.1,0.3,0.2
		c0.1,0.6,0.2,1.3,0.2,2C81.2,99.3,81.1,99.5,80.9,99.5C81,99.5,80.9,99.5,80.9,99.5z M64.5,95.8c-0.1,0-0.2-0.1-0.2-0.2
		c0-0.1,0-0.2,0-0.3c0-0.6,0.1-1.2,0.2-1.7c0-0.1,0.2-0.2,0.3-0.2c0.1,0,0.2,0.2,0.2,0.3c-0.1,0.5-0.2,1.1-0.2,1.6
		c0,0.1,0,0.2,0,0.3C64.7,95.7,64.6,95.8,64.5,95.8L64.5,95.8z M80.4,95.5c-0.1,0-0.2-0.1-0.2-0.2c-0.1-0.7-0.3-1.3-0.5-1.9
		c0-0.1,0-0.3,0.2-0.3c0.1,0,0.3,0,0.3,0.2c0.2,0.6,0.4,1.3,0.5,2C80.6,95.4,80.6,95.5,80.4,95.5L80.4,95.5z M65.3,92L65.3,92
		c-0.2-0.1-0.3-0.2-0.2-0.3c0.3-0.6,0.6-1.2,1.1-1.8c0.1-0.1,0.2-0.1,0.3,0c0.1,0.1,0.1,0.2,0,0.3c-0.4,0.5-0.7,1.1-1,1.7
		C65.5,91.9,65.4,92,65.3,92z M79.1,91.7c-0.1,0-0.2-0.1-0.2-0.1c-0.3-0.6-0.6-1.2-1-1.7c-0.1-0.1-0.1-0.3,0.1-0.3
		c0.1-0.1,0.3-0.1,0.3,0.1c0.4,0.5,0.7,1.1,1,1.8c0.1,0.1,0,0.3-0.1,0.3C79.2,91.7,79.2,91.7,79.1,91.7z M67.7,88.8
		c-0.1,0-0.1,0-0.2-0.1s-0.1-0.3,0-0.4c0.5-0.5,1.1-0.8,1.7-1.1c0.1-0.1,0.3,0,0.3,0.1c0.1,0.1,0,0.3-0.1,0.3
		c-0.6,0.3-1.1,0.6-1.6,1.1C67.8,88.8,67.7,88.8,67.7,88.8z M76.8,88.6c-0.1,0-0.1,0-0.2-0.1c-0.5-0.4-1-0.7-1.6-1
		c-0.1-0.1-0.2-0.2-0.1-0.3s0.2-0.2,0.3-0.1c0.6,0.3,1.2,0.6,1.8,1.1c0.1,0.1,0.1,0.2,0,0.4C76.9,88.5,76.8,88.6,76.8,88.6z
		 M71.2,87c-0.1,0-0.2-0.1-0.2-0.2c0-0.1,0.1-0.3,0.2-0.3c0.7-0.1,1.4-0.1,2.1-0.1c0.1,0,0.2,0.1,0.2,0.3c0,0.1-0.1,0.2-0.3,0.2
		C72.5,86.9,71.9,86.9,71.2,87L71.2,87z"/>
	<g>
		<path class="st5" d="M56,197.4c3.8-2.3,6-5.4,6-8.7c0-7.1-10.3-12.9-22.9-12.9s-22.9,5.8-22.9,12.9s10.3,12.9,22.9,12.9
			c4.1,0,8-0.6,11.3-1.7c2.9,4.9,9.2,5.2,9.2,5.2C56.5,203.3,56,199.4,56,197.4z"/>
		<g>
			<path class="st6" d="M27.9,189c0-0.2,0-0.5,0.1-0.7s0.2-0.4,0.3-0.5c0.1-0.2,0.3-0.3,0.5-0.4s0.4-0.1,0.7-0.1
				c0.3,0,0.5,0,0.7,0.1s0.4,0.2,0.5,0.4c0.1,0.2,0.3,0.3,0.3,0.5c0.1,0.2,0.1,0.4,0.1,0.7c0,0.2,0,0.5-0.1,0.7s-0.2,0.4-0.3,0.5
				c-0.1,0.2-0.3,0.3-0.5,0.4s-0.4,0.1-0.7,0.1c-0.3,0-0.5,0-0.7-0.1s-0.4-0.2-0.5-0.4c-0.1-0.2-0.3-0.3-0.3-0.5
				S27.9,189.3,27.9,189z"/>
			<path class="st6" d="M37.4,189c0-0.2,0-0.5,0.1-0.7s0.2-0.4,0.3-0.5c0.1-0.2,0.3-0.3,0.5-0.4s0.4-0.1,0.7-0.1s0.5,0,0.7,0.1
				s0.4,0.2,0.5,0.4c0.1,0.2,0.3,0.3,0.3,0.5c0.1,0.2,0.1,0.4,0.1,0.7c0,0.2,0,0.5-0.1,0.7s-0.2,0.4-0.3,0.5
				c-0.1,0.2-0.3,0.3-0.5,0.4s-0.4,0.1-0.7,0.1s-0.5,0-0.7-0.1s-0.4-0.2-0.5-0.4c-0.1-0.2-0.3-0.3-0.3-0.5
				C37.4,189.5,37.4,189.3,37.4,189z"/>
			<path class="st6" d="M46.9,189c0-0.2,0-0.5,0.1-0.7s0.2-0.4,0.3-0.5c0.1-0.2,0.3-0.3,0.5-0.4s0.4-0.1,0.7-0.1s0.5,0,0.7,0.1
				s0.4,0.2,0.5,0.4c0.1,0.2,0.3,0.3,0.3,0.5c0.1,0.2,0.1,0.4,0.1,0.7c0,0.2,0,0.5-0.1,0.7s-0.2,0.4-0.3,0.5
				c-0.1,0.2-0.3,0.3-0.5,0.4s-0.4,0.1-0.7,0.1s-0.5,0-0.7-0.1s-0.4-0.2-0.5-0.4c-0.1-0.2-0.3-0.3-0.3-0.5
				C46.9,189.5,46.9,189.3,46.9,189z"/>
		</g>
	</g>
	<g>
		<path class="st5" d="M298.3,147.4c-8.1,3-12.3,12-9.3,20.2c1,2.8,2.8,5.2,5,6.9c0.4,1.3,0.8,4.4-2.1,7.2c0,0,4.8-0.7,6.3-4.8
			c3.4,1.3,7.3,1.4,11,0c8.1-3,12.3-12,9.3-20.2C315.4,148.6,306.4,144.4,298.3,147.4z"/>
		<path class="st6" d="M314.8,157.3h-22.1c-0.3,0-0.5-0.2-0.5-0.5s0.2-0.5,0.5-0.5h22.1c0.3,0,0.5,0.2,0.5,0.5
			S315.1,157.3,314.8,157.3z"/>
		<path class="st6" d="M314.8,160.9h-22.1c-0.3,0-0.5-0.2-0.5-0.5s0.2-0.5,0.5-0.5h22.1c0.3,0,0.5,0.2,0.5,0.5
			C315.3,160.7,315.1,160.9,314.8,160.9z"/>
		<path class="st6" d="M314.8,164.6h-22.1c-0.3,0-0.5-0.2-0.5-0.5s0.2-0.5,0.5-0.5h22.1c0.3,0,0.5,0.2,0.5,0.5
			S315.1,164.6,314.8,164.6z"/>
		<path class="st6" d="M306.1,168.3h-13.4c-0.3,0-0.5-0.2-0.5-0.5s0.2-0.5,0.5-0.5h13.4c0.3,0,0.5,0.2,0.5,0.5
			C306.6,168,306.3,168.3,306.1,168.3z"/>
	</g>
	<g>
		<path class="st5" d="M169.3,31.4c8.1,3,12.3,12,9.3,20.2c-1,2.8-2.8,5.2-5,6.9c-0.4,1.3-0.8,4.4,2.1,7.2c0,0-4.8-0.7-6.3-4.8
			c-3.4,1.3-7.3,1.4-11,0c-8.1-3-12.3-12-9.3-20.2C152.1,32.6,161.1,28.4,169.3,31.4z"/>
		<g>
			<circle class="st6" cx="156.8" cy="46" r="2"/>
			<circle class="st6" cx="163.8" cy="46" r="2"/>
			<circle class="st6" cx="170.8" cy="46" r="2"/>
		</g>
	</g>
	<g>
		<g>
			<g>
				<g>
					<g>
						<path class="st7" d="M209.7,331.9c-9.6-4.5-13.4-15.3-14.8-25.4c-0.2-1.7-0.7-3.4-0.2-5s2.2-2.9,3.8-2.5
							c1.3,0.4,2.1,1.7,3,2.8c1.2,1.4,2.8,2.5,4.5,3.1c1.2,0.4,2.5,0.5,3.5-0.3c1.3-1,1.1-3.1,0.8-4.7c-0.5-3.1-1.1-6.2-1.6-9.3
							c-0.3-1.7-0.6-3.4-0.3-5c0.2-1.7,1.1-3.3,2.6-4s3.6-0.1,4.2,1.4c0.3,0.7,0.2,1.4,0.4,2.1s0.6,1.4,1.3,1.5s1.3-0.5,1.7-1.1
							c1.4-2,2.2-4.3,3-6.7c0.7-2.3,1.4-4.7,2.7-6.8c1.2-2.1,3.2-3.9,5.5-4.4c2.4-0.5,5.1,0.5,6.1,2.7s0,4.8-1.1,7
							c-1.7,3.2-3.9,6.1-6.5,8.7c-0.5,0.5-1,1-1.1,1.6c-0.2,1.2,1.1,2.1,2.2,2.3c1.3,0.2,2.6-0.2,3.9-0.2c1.3-0.1,2.8,0.3,3.5,1.4
							c1,1.6-0.2,3.6-1.4,5c-2.4,2.8-5.3,5.2-8.5,7c-1.1,0.7-2.4,1.3-3.2,2.3s-1.2,2.6-0.4,3.7s2.4,1.2,3.6,0.7
							c1.2-0.5,2.3-1.3,3.4-2c2.1-1.2,5.1-1.6,6.9,0.1c1.2,1.1,1.6,2.9,1.3,4.6c-0.2,1.6-1,3.1-1.8,4.5c-2.9,4.9-7,9.2-12,11.9
							C220.1,331.6,215.3,332.9,209.7,331.9"/>
					</g>
				</g>
			</g>
		</g>
		<g>
			<g>
				<g>
					<g>
						<g>
							<path class="st2" d="M211.2,325.2c0.6-5.3,1.8-11,3.2-17c0.4-1.5,0.7-3,1.1-4.4c0.4-1.4,0.7-2.9,1.1-4.3
								c0.8-2.8,1.9-5.4,2.9-7.8c1.1-2.4,2.1-4.7,3.2-6.8c1-2.1,2-4.1,3-5.8c2-3.5,3.9-6.1,5.3-7.9c0.7-0.9,1.3-1.5,1.6-2
								c0.2-0.2,0.3-0.4,0.4-0.5c0.1-0.1,0.2-0.2,0.2-0.2s0,0.1-0.1,0.2s-0.2,0.3-0.4,0.5c-0.4,0.5-0.9,1.1-1.6,2
								c-1.4,1.8-3.2,4.4-5.2,7.9c-1,1.7-2,3.7-3,5.8c-1,2.1-2.1,4.4-3.1,6.8s-2.1,5-2.9,7.8c-0.4,1.4-0.8,2.8-1.1,4.3
								c-0.4,1.5-0.7,2.9-1.1,4.4c-1.4,6-2.6,11.7-3.2,17"/>
						</g>
					</g>
				</g>
			</g>
		</g>
		<g>
			<g>
				<g>
					<g>
						<g>
							<path class="st2" d="M216.7,299.5c0,0-0.1-0.2-0.3-0.7c-0.2-0.4-0.4-1.1-0.6-1.9c-0.5-1.6-1.1-3.9-1.8-6.4s-1.4-4.7-1.9-6.3
								c-0.3-0.8-0.5-1.4-0.6-1.9c-0.2-0.4-0.2-0.7-0.2-0.7s0.1,0.2,0.3,0.7c0.2,0.4,0.4,1.1,0.7,1.9c0.6,1.6,1.3,3.8,2,6.3
								s1.3,4.7,1.8,6.4c0.2,0.8,0.4,1.4,0.5,1.9C216.7,299.2,216.7,299.5,216.7,299.5z"/>
						</g>
					</g>
				</g>
			</g>
		</g>
		<g>
			<g>
				<g>
					<g>
						<g>
							<path class="st2" d="M237.4,291.9c0,0-0.3,0.1-0.8,0.2s-1.3,0.3-2.3,0.6c-1.9,0.5-4.5,1.4-7.4,2.4c-2.9,1.1-5.4,2.1-7.2,3
								c-0.9,0.4-1.6,0.8-2.1,1s-0.8,0.4-0.8,0.3c0,0,0.3-0.2,0.7-0.5c0.5-0.3,1.2-0.7,2.1-1.1c1.8-0.9,4.3-2,7.2-3
								c2.9-1.1,5.5-1.9,7.4-2.4c1-0.3,1.8-0.4,2.3-0.5C237.1,291.9,237.4,291.8,237.4,291.9z"/>
						</g>
					</g>
				</g>
			</g>
		</g>
		<g>
			<g>
				<g>
					<g>
						<g>
							<path class="st2" d="M211.4,324.8c0,0-0.1-0.1-0.2-0.2c-0.1-0.2-0.3-0.4-0.5-0.7c-0.4-0.6-1-1.5-1.7-2.7
								c-1.4-2.3-3.3-5.5-5.4-9c-2-3.6-3.9-6.8-5.3-9.1c-0.7-1.1-1.2-2-1.7-2.7c-0.2-0.3-0.3-0.5-0.4-0.7c-0.1-0.2-0.1-0.3-0.1-0.3
								s0.1,0.1,0.2,0.2c0.1,0.2,0.3,0.4,0.5,0.7c0.4,0.6,1,1.5,1.7,2.7c1.4,2.3,3.3,5.5,5.4,9c2,3.6,3.9,6.8,5.3,9.1
								c0.7,1.1,1.2,2,1.7,2.7c0.2,0.3,0.3,0.5,0.4,0.7C211.4,324.7,211.4,324.7,211.4,324.8z"/>
						</g>
					</g>
				</g>
			</g>
		</g>
		<g>
			<g>
				<g>
					<g>
						<g>
							<path class="st2" d="M238.2,310.8c0,0-0.1,0.1-0.3,0.2s-0.5,0.2-0.8,0.4c-0.7,0.4-1.7,0.9-2.9,1.5c-2.4,1.3-5.8,3.1-9.4,5
								c-3.7,2-7,3.7-9.5,5c-1.2,0.6-2.2,1.1-2.9,1.4c-0.3,0.1-0.6,0.3-0.8,0.4s-0.3,0.1-0.3,0.1s0.1-0.1,0.3-0.2s0.5-0.2,0.8-0.4
								c0.7-0.4,1.7-0.9,2.9-1.5c2.4-1.3,5.8-3.1,9.4-5c3.7-2,7-3.7,9.5-5c1.2-0.6,2.2-1.1,2.9-1.4c0.3-0.1,0.6-0.3,0.8-0.4
								C238.1,310.8,238.2,310.8,238.2,310.8z"/>
						</g>
					</g>
				</g>
			</g>
		</g>
	</g>
	<g>
		<g>
			<g>
				<path class="st0" d="M122.5,217.3c0,0-6.4,0.9-2.8,14.8s6.6,21.1,6.6,21.1s0.5,3.2-2.1,3.1c-2.5-0.1-7.7-2.2-9.5,0.6
					c-1.8,2.8-0.2,6.3,3.8,9.9s12.5,11.8,13.2,12.5s1.3,2.3-0.4,2.5s-14.1-1.2-14.5,4.7c-0.3,5.9,12.4,14.1,13.8,15
					c1.4,0.9,1.6,1.6,1.3,2.4s-4.4-0.1-8-0.3c-3.5-0.3-7.7,0-7.6,3.5c0.1,3.4,6.8,12.1,26.4,18.6l9.3,2.4l6.8-6.7
					c13.8-15.3,15.3-26.2,13.7-29.2s-5.4-1.2-8.3,0.8c-2.9,2-6.1,4.8-6.7,4.3c-0.7-0.5-0.8-1.3-0.1-2.8s7.8-14.9,4.5-19.9
					c-3.2-5-13.3,2.5-14.9,3.1c-1.6,0.7-1.9-0.9-1.6-1.9c0.3-1,3.6-12.3,5.2-17.4c1.7-5.1,1.4-8.9-1.6-10.4
					c-2.9-1.5-6.4,2.9-8.5,4.2c-2.2,1.4-3.3-1.6-3.3-1.6s-0.9-7.7-4.8-21.6c-3.8-13.9-9.9-11.4-9.9-11.4"/>
			</g>
		</g>
		<g>
			<g>
				<g>
					<path class="st8" d="M152,330.3c-2.8-10.2-7.4-28.4-11.4-44s-7.7-29.8-10.4-40c-1.4-5.1-2.5-9.2-3.2-12.1
						c-0.4-1.4-0.7-2.5-0.9-3.3c-0.1-0.4-0.2-0.7-0.2-0.9c0-0.2-0.1-0.3-0.1-0.3s0,0.1,0.1,0.3c0.1,0.2,0.1,0.5,0.2,0.8
						c0.2,0.8,0.5,1.9,0.9,3.3c0.8,2.8,1.9,7,3.3,12.1c2.8,10.2,6.5,24.3,10.5,39.9s8.6,33.8,11.4,44.1"/>
				</g>
			</g>
		</g>
		<g>
			<g>
				<g>
					<path class="st8" d="M121.9,260.1c0,0,0.2,0.1,0.6,0.3c0.4,0.2,0.9,0.6,1.6,1c1.3,0.9,3.2,2.1,5.1,3.5c1.9,1.4,3.7,2.6,5.1,3.6
						c0.6,0.4,1.1,0.8,1.5,1.1c0.4,0.3,0.6,0.4,0.5,0.4c0,0-0.2-0.1-0.6-0.3c-0.4-0.2-0.9-0.6-1.6-1c-1.3-0.9-3.1-2.1-5.1-3.5
						s-3.7-2.6-5.1-3.6c-0.6-0.4-1.1-0.8-1.5-1.1C122.1,260.2,121.9,260.1,121.9,260.1z"/>
				</g>
			</g>
		</g>
		<g>
			<g>
				<g>
					<path class="st8" d="M137.1,269.5c-0.1,0,2.3-3.9,5.3-8.6s5.5-8.5,5.6-8.4c0.1,0-2.3,3.9-5.3,8.6
						C139.7,265.8,137.2,269.6,137.1,269.5z"/>
				</g>
			</g>
		</g>
		<g>
			<g>
				<g>
					<path class="st8" d="M142.3,293.8c0,0,0.2-0.2,0.5-0.5c0.4-0.3,0.9-0.8,1.4-1.3c1.2-1.1,2.9-2.6,4.7-4.3
						c1.8-1.7,3.4-3.3,4.5-4.5c0.5-0.5,1-1,1.3-1.4c0.3-0.3,0.5-0.5,0.5-0.5s-0.1,0.2-0.4,0.6c-0.3,0.3-0.7,0.8-1.3,1.4
						c-1.1,1.2-2.6,2.8-4.4,4.5c-1.8,1.7-3.5,3.2-4.8,4.2c-0.6,0.5-1.1,0.9-1.5,1.2C142.5,293.7,142.3,293.8,142.3,293.8z"/>
				</g>
			</g>
		</g>
		<g>
			<g>
				<g>
					<path class="st8" d="M126.6,288.3c0,0,0.2,0,0.6,0.2c0.5,0.1,1,0.3,1.7,0.5c1.4,0.5,3.4,1.1,5.6,1.8c2.2,0.7,4.1,1.4,5.5,1.9
						c0.7,0.2,1.2,0.4,1.7,0.6c0.4,0.2,0.6,0.2,0.6,0.3c0,0-0.2,0-0.6-0.2c-0.5-0.1-1-0.3-1.7-0.5c-1.4-0.5-3.4-1.1-5.6-1.8
						c-2.2-0.7-4.1-1.4-5.5-1.9c-0.7-0.2-1.2-0.4-1.7-0.6C126.8,288.4,126.6,288.3,126.6,288.3z"/>
				</g>
			</g>
		</g>
		<g>
			<g>
				<g>
					<path class="st8" d="M128.4,310.3c0,0,0.3,0.1,0.8,0.2c0.6,0.2,1.3,0.4,2.2,0.7c1.8,0.6,4.4,1.4,7.1,2.3
						c2.8,0.9,5.3,1.8,7.1,2.4c0.9,0.3,1.6,0.6,2.1,0.8c0.5,0.2,0.8,0.3,0.8,0.3s-0.3-0.1-0.8-0.2c-0.6-0.2-1.3-0.4-2.2-0.7
						c-1.8-0.6-4.4-1.4-7.1-2.3c-2.8-0.9-5.3-1.8-7.1-2.4c-0.9-0.3-1.6-0.6-2.1-0.8S128.4,310.3,128.4,310.3z"/>
				</g>
			</g>
		</g>
		<g>
			<g>
				<g>
					<path class="st8" d="M148.1,316.6c0,0,0.2-0.2,0.6-0.6c0.5-0.4,1.1-1,1.8-1.7c1.5-1.4,3.6-3.4,5.8-5.6s4.2-4.3,5.6-5.8
						c0.7-0.7,1.2-1.3,1.7-1.8c0.4-0.4,0.6-0.6,0.6-0.6s-0.2,0.3-0.5,0.7c-0.4,0.4-0.9,1.1-1.6,1.8c-1.4,1.5-3.3,3.6-5.5,5.9
						c-2.2,2.2-4.3,4.2-5.8,5.5c-0.8,0.7-1.4,1.2-1.8,1.6C148.4,316.4,148.2,316.6,148.1,316.6z"/>
				</g>
			</g>
		</g>
	</g>
	<g>
		<g>
			<g>
				<g>
					<path class="st9" d="M43.5,309.2c0.7-2.7-1.1-5.4-3.1-7.4s-4.4-3.7-5.4-6.3c-1.7-4.2,0.6-9.6-2.3-13.2c-1.7-2.1-4.7-2.8-6.2-5
						c-0.8-1.2-1-2.6-1.3-3.9c-1.6-6.9-5-13.5-9.9-18.6c-0.3,6.2,1,12.5,3.9,17.9c1.2,2.2,2.6,4.4,3,6.8c0.6,4-1.6,8.1-0.6,12
						c1.1,4.5,6.2,7.5,6.4,12.1c0.2,3.9-3.2,7.3-2.9,11.2c0.1,1.7,0.9,3.2,1.7,4.6c3,5,7.5,8.5,14.2,8.4l8.2,0.3L43.5,309.2z"/>
				</g>
			</g>
		</g>
		<g>
			<g>
				<g>
					<g>
						<path class="st0" d="M43.5,309.2c0.7-2.7-1.1-5.4-3.1-7.4s-4.4-3.7-5.4-6.3c-1.7-4.2,0.6-9.6-2.3-13.2c-1.7-2.1-4.7-2.8-6.2-5
							c-0.8-1.2-1-2.6-1.3-3.9c-1.6-6.9-5-13.5-9.9-18.6c-0.3,6.2,1,12.5,3.9,17.9c1.2,2.2,2.6,4.4,3,6.8c0.6,4-1.6,8.1-0.6,12
							c1.1,4.5,6.2,7.5,6.4,12.1c0.2,3.9-3.2,7.3-2.9,11.2c0.1,1.7,0.9,3.2,1.7,4.6c3,5,7.5,8.5,14.2,8.4l8.2,0.3L43.5,309.2z"/>
					</g>
				</g>
			</g>
		</g>
		<g>
			<g>
				<g>
					<g>
						<g>
							<g>
								<path class="st10" d="M50.8,328.5c0,0,0.8,0.2,2.3,0c0.7-0.1,1.6-0.3,2.7-0.7c1-0.4,2.2-0.9,3.3-1.8c0.5-0.5,1.1-1,1.4-1.8
									c0.3-0.8,0.3-1.6,0.4-2.5c0-0.9,0-1.8,0.2-2.7c0.1-0.9,0.5-1.8,1-2.6c1-1.7,2.6-3.3,3.1-5.6c0.6-2.3,0.2-4.7-0.2-7.2
									c-0.4-2.5-0.8-5.2,0.2-7.7c0.9-2.6,2.7-4.9,3.6-7.8s0.5-6.1,0.7-9.2c0.1-1.6,0.4-3.1,1.1-4.6s1.6-2.8,2.3-4.4
									c1.5-3.1,1.7-6.6,2.1-10.1c0.2-1.7,0.4-3.5,0.6-5.3s0.4-3.6,0.9-5.3c0.5-1.7,1.2-3.4,2-5.1c0.4-0.9,0.7-1.7,1-2.7
									c0.2-1,0.2-1.9,0.3-2.8c0.1-1.9,0-3.8-0.2-5.7c-0.2-1.9-0.6-3.8-0.8-5.7c0-0.1,0-0.2,0-0.3v-0.4l-0.3,0.2
									c-1.8,0.9-3.3,2.2-4.4,3.7c-1.2,1.5-2,3.3-2.7,5c-1.4,3.5-1.9,7.2-2.6,10.8c-0.7,3.5-1.6,7-3.4,10c-0.9,1.5-2,2.8-2.9,4.2
									c-1,1.4-1.8,3-2,4.7c-0.5,3.5,1.4,6.5,1,9.6c-0.1,1.5-0.8,3-1.5,4.3s-1.6,2.5-2.5,3.8c-0.8,1.2-1.6,2.5-2.2,3.8
									c-0.6,1.3-0.9,2.7-1,4.1c-0.2,2.8,0.2,5.4,0,7.9s-1,4.7-2,6.8c-1,2-2.1,3.9-3,5.6c-0.5,0.9-0.9,1.8-1.2,2.6
									c-0.4,0.9-0.6,1.8-0.7,2.6c-0.3,1.7-0.2,3.3-0.1,4.7c0.4,2.8,1.4,4.9,2.4,6c0.2,0.3,0.5,0.5,0.7,0.7s0.4,0.3,0.5,0.5
									C50.6,328.4,50.8,328.5,50.8,328.5s-0.7-0.4-1.6-1.6c-0.9-1.1-1.9-3.2-2.2-6c-0.2-1.4-0.2-3,0.1-4.6
									c0.2-0.8,0.4-1.7,0.7-2.5c0.4-0.8,0.8-1.7,1.3-2.6c0.9-1.8,2.1-3.6,3.1-5.6s1.9-4.3,2.1-6.9c0.2-2.5-0.2-5.2,0-7.9
									c0.1-1.4,0.4-2.7,1-4s1.4-2.5,2.2-3.7s1.7-2.4,2.5-3.8c0.8-1.3,1.4-2.8,1.6-4.4c0.4-3.3-1.5-6.4-1-9.6c0.2-1.6,1-3.1,2-4.5
									c0.9-1.4,2-2.7,3-4.2c1.9-3,2.8-6.6,3.5-10.1c0.7-3.6,1.2-7.2,2.5-10.7c0.7-1.7,1.5-3.4,2.7-4.9c1.1-1.5,2.6-2.7,4.2-3.6
									L78,227c0,0.1,0,0.2,0,0.3c0.2,1.9,0.6,3.8,0.8,5.7c0.2,1.9,0.3,3.8,0.2,5.6c-0.1,0.9-0.1,1.9-0.3,2.7
									c-0.2,0.9-0.6,1.7-0.9,2.6c-0.7,1.7-1.5,3.4-2,5.2c-0.6,1.8-0.7,3.6-0.9,5.4c-0.2,1.8-0.4,3.5-0.6,5.3
									c-0.4,3.5-0.7,6.9-2.1,9.9c-0.7,1.5-1.6,2.9-2.3,4.4c-0.7,1.5-1,3.2-1.1,4.7c-0.2,3.2,0.2,6.3-0.6,9.1
									c-0.9,2.8-2.6,5.1-3.6,7.8c-1,2.7-0.6,5.5-0.2,7.9c0.4,2.5,0.8,4.9,0.3,7.1s-2,3.8-3,5.6c-0.5,0.9-0.9,1.8-1,2.8
									c-0.1,0.9-0.1,1.8-0.2,2.7c0,0.8-0.1,1.7-0.4,2.4c-0.3,0.7-0.8,1.3-1.3,1.7c-1.1,0.9-2.2,1.4-3.2,1.8s-1.9,0.6-2.6,0.7
									c-0.7,0.1-1.3,0.2-1.7,0.2C51,328.5,50.8,328.5,50.8,328.5z"/>
							</g>
						</g>
					</g>
				</g>
				<g>
					<g>
						<g>
							<g>
								<path class="st10" d="M76.8,231.5c0,0,0,0.1-0.1,0.2c0,0.2-0.1,0.4-0.2,0.7c-0.2,0.6-0.4,1.6-0.7,2.9
									c-0.3,1.2-1.1,2.6-1.7,4.3c-0.7,1.7-1.3,3.6-2,5.8c-0.6,2.2-1.2,4.6-1.8,7.2c-0.6,2.6-1.2,5.4-2.6,8c-0.7,1.3-1.4,2.7-2,4.2
									s-1,3.1-1.2,4.7c-0.4,3.3-1,6.6-1.8,10c-1.7,6.7-3.2,13.2-4.7,19s-2.8,11.1-3.9,15.5c-1.1,4.4-2,8-2.6,10.5
									c-0.3,1.2-0.5,2.2-0.7,2.9c-0.1,0.3-0.1,0.5-0.2,0.7c0,0.2,0,0.3,0,0.3s0-0.1,0.1-0.2c0.1-0.2,0.1-0.4,0.2-0.7
									c0.2-0.7,0.4-1.6,0.8-2.8c0.7-2.5,1.6-6.1,2.7-10.4c1.1-4.4,2.5-9.7,4-15.5c1.4-5.9,3-12.3,4.7-19c0.8-3.4,1.4-6.8,1.8-10
									c0.2-1.6,0.5-3.2,1.1-4.6s1.3-2.8,2-4.1c1.4-2.7,2.1-5.6,2.6-8.2c0.6-2.6,1.1-5.1,1.7-7.2c0.6-2.2,1.2-4.1,1.9-5.8
									c0.6-1.7,1.3-3.1,1.6-4.4c0.3-1.3,0.4-2.2,0.6-2.9c0.1-0.3,0.1-0.6,0.1-0.8C76.8,231.6,76.8,231.5,76.8,231.5z"/>
							</g>
						</g>
					</g>
				</g>
			</g>
			<g>
				<g>
					<g>
						<g>
							<path class="st11" d="M52.3,328.5c5.4-3.2,6.9-12.9,4.7-18.7c-2.2-5.8-6.2-11.2-6.8-17.4c-0.5-4.8,1.1-9.7,0-14.4
								c-1.5-6.3-7.7-11.2-7.6-17.7c0-3.6,2.1-7.1,1.9-10.7c-0.2-4.5-3.6-8-5.7-11.9c-3.2-6-3.5-13.1-4.6-19.9
								c-1.1-6.7-3.7-14-9.7-17.3c-0.9,5.7-2.4,9.7-1.9,17.4c0.2,2.8,3.4,8.1,3.8,14.2c0.3,3.7,0.4,7.3,0.7,11
								c0.2,3.6,0.4,7.2,1.7,10.5c1,2.5,2.5,4.9,3.3,7.5c1.4,5-0.4,10.3,0.7,15.3c0.9,4.2,3.9,7.9,4.5,12.2
								c0.8,6.1-3.1,12.3-1.1,18.1c1,2.9,3.4,5.2,4,8.1c0.5,2.3,0,4.7,0.4,7c0.8,3.7,7.8,6.6,11.6,6.4"/>
						</g>
					</g>
				</g>
				<g>
					<g>
						<g>
							<g>
								<path class="st11" d="M26,206.2c0,0,0,0.1,0,0.3c0,0.2,0.1,0.6,0.1,0.9c0.1,0.8,0.3,2,0.5,3.6c0.3,1.6,1.1,3.4,1.8,5.5
									c0.7,2.1,1.4,4.6,2,7.4s1.1,5.8,1.7,9.1c0.6,3.3,1.1,6.9,2.8,10.3c0.8,1.7,1.6,3.4,2.2,5.3c0.7,1.8,1,3.8,1.1,5.8
									c0.3,4.1,0.8,8.3,1.6,12.5c1.6,8.5,3.2,16.6,4.6,23.9c1.5,7.3,2.9,13.9,4,19.5c1.2,5.5,2.1,10,2.7,13.1
									c0.3,1.5,0.6,2.7,0.8,3.6c0.1,0.4,0.2,0.7,0.2,0.9c0.1,0.2,0.1,0.3,0.1,0.3s0-0.1,0-0.3c0-0.2-0.1-0.5-0.2-0.9
									c-0.2-0.9-0.4-2.1-0.7-3.6c-0.6-3.1-1.5-7.6-2.6-13.2s-2.4-12.2-3.9-19.5c-1.4-7.4-3-15.4-4.6-23.9
									c-0.8-4.3-1.3-8.4-1.6-12.5c-0.2-2-0.5-4.1-1.2-5.9c-0.7-1.9-1.5-3.6-2.3-5.3c-1.6-3.4-2.2-6.9-2.8-10.2
									c-0.6-3.3-1.1-6.3-1.7-9.1c-0.6-2.8-1.3-5.2-2.1-7.4c-0.7-2.2-1.5-3.9-1.8-5.5c-0.3-1.5-0.5-2.8-0.6-3.6
									c-0.1-0.4-0.1-0.7-0.2-0.9C26,206.3,26,206.2,26,206.2z"/>
							</g>
						</g>
					</g>
				</g>
			</g>
		</g>
	</g>
	<g>
		<g>
			<g>
				<path class="st12" d="M125.2,171h35.2c0,0,0-29.6,30.7-30.1c16-0.3,24.2,10.2,27.6,18.2c3.9,9.3,2.7,19.9-2.5,28.5
					c-6,9.8-18.8,19.7-42.6,15.6l-0.2,78.4h34.8v-46.5c0,0,48.8-12.6,48.8-66.4c0-51.5-41.6-62.6-64-63.3c-12.5-0.4-17-0.9-32.4,1.3
					C141.1,109.4,124.8,132.2,125.2,171z"/>
				<rect x="173.3" y="298" class="st12" width="35.3" height="33"/>
				<rect x="173.3" y="298" class="st13" width="35.3" height="33"/>
				<path class="st13" d="M125.2,171h35.2c0,0,0-29.6,30.7-30.1c16-0.3,24.2,10.2,27.6,18.2c3.9,9.3,2.7,19.9-2.5,28.5
					c-6,9.8-18.8,19.7-42.6,15.6l-0.2,78.4h34.8v-46.5c0,0,48.8-12.6,48.8-66.4c0-51.5-41.6-62.6-64-63.3c-12.5-0.4-17-0.9-32.4,1.3
					C141.1,109.4,124.8,132.2,125.2,171z"/>
			</g>
			<g>
				<path class="st14" d="M110.6,171h35.2c0,0,0-29.6,30.7-30.1c16-0.3,24.2,10.2,27.6,18.2c3.9,9.3,2.7,19.9-2.5,28.5
					c-6,9.8-19.1,18.8-42.8,14.6v79.4h34.8v-46.5c0,0,48.8-12.6,48.8-66.4c0-51.5-46.2-63.4-65.9-63.4
					C161.4,105.2,110,108.9,110.6,171z"/>
				<path class="st15" d="M110.6,171h35.2c0,0,0-29.6,30.7-30.1c16-0.3,24.2,10.2,27.6,18.2c3.9,9.3,2.7,19.9-2.5,28.5
					c-6,9.8-19.1,18.8-42.8,14.6v79.4h34.8v-46.5c0,0,48.8-12.6,48.8-66.4c0-51.5-46.2-63.4-65.9-63.4
					C161.4,105.2,110,108.9,110.6,171z"/>
				<rect x="158.7" y="298" class="st14" width="35.3" height="33"/>
				<rect x="158.7" y="298" class="st15" width="35.3" height="33"/>
			</g>
		</g>
		<g>
			<path class="st16" d="M180.5,141.1c0,0-0.2,0-0.5,0s-0.8-0.1-1.5-0.1c-1.3-0.1-3.2-0.1-5.5,0.2s-5.1,0.9-8,1.9
				c-1.5,0.5-3,1.1-4.4,1.9c-1.5,0.8-3,1.7-4.3,2.8c-1.4,1.1-2.5,2.4-3.6,3.8c-1,1.3-1.9,2.7-2.7,4c-1.5,2.7-2.5,5.3-3.2,7.6
				c-0.6,2.2-0.9,4.1-1.1,5.4c-0.1,0.6-0.1,1.2-0.1,1.5s0,0.5,0,0.5s0-0.2,0-0.5s0-0.9,0.1-1.5c0.1-1.3,0.3-3.2,1-5.5
				c0.6-2.3,1.6-4.9,3.1-7.6c0.8-1.4,1.6-2.7,2.7-4.1c1-1.3,2.2-2.7,3.6-3.8c1.4-1.1,2.9-2.1,4.4-2.8c1.5-0.8,3-1.4,4.5-1.9
				c2.9-1,5.7-1.6,8-1.8c2.3-0.3,4.2-0.3,5.6-0.1c0.7,0,1.2,0.1,1.5,0.2C180.3,141,180.5,141.1,180.5,141.1z"/>
		</g>
		<g>
			<path class="st16" d="M233.6,134.8c0,0,0,0-0.1-0.1s-0.2-0.2-0.3-0.4c-0.3-0.4-0.7-0.9-1.2-1.6c-0.3-0.4-0.5-0.8-0.8-1.2
				s-0.7-0.9-1.1-1.3c-0.4-0.5-0.8-1-1.3-1.5s-1-1.1-1.5-1.6c-0.5-0.6-1.1-1.2-1.7-1.8c-0.6-0.6-1.3-1.2-2-1.8
				c-0.3-0.3-0.7-0.6-1-0.9c-0.4-0.3-0.8-0.6-1.1-0.9c-0.8-0.6-1.5-1.2-2.4-1.8c-3.3-2.4-7.2-4.7-11.5-6.8c-1.1-0.5-2.2-1-3.2-1.5
				c-1.1-0.4-2.1-0.8-3.2-1.2c-1-0.4-2.1-0.7-3.1-1.1c-1-0.3-2-0.7-3-0.9c-1-0.3-2-0.5-2.9-0.8s-1.9-0.4-2.8-0.6
				c-0.9-0.2-1.8-0.4-2.6-0.5s-1.7-0.2-2.4-0.4c-1.5-0.3-3-0.3-4.2-0.4c-0.6,0-1.2-0.1-1.7-0.1s-1,0-1.5,0c-0.9,0-1.5,0-2-0.1
				c-0.2,0-0.4,0-0.5,0s-0.2,0-0.2,0s0.1,0,0.2,0c0.1,0,0.3,0,0.5,0c0.5,0,1.2,0,2,0c0.4,0,0.9,0,1.5,0c0.5,0,1.1,0.1,1.7,0.1
				c1.2,0.1,2.7,0.1,4.2,0.4c0.8,0.1,1.6,0.2,2.4,0.3c0.8,0.1,1.7,0.3,2.6,0.5c0.9,0.2,1.8,0.3,2.8,0.6c1,0.2,1.9,0.5,2.9,0.8
				c1,0.2,2,0.6,3,0.9c1,0.3,2.1,0.6,3.1,1.1c1.1,0.4,2.1,0.8,3.2,1.2c1.1,0.5,2.1,1,3.2,1.5c4.3,2.1,8.2,4.4,11.6,6.9
				c0.8,0.6,1.6,1.3,2.4,1.9c0.4,0.3,0.8,0.6,1.1,0.9c0.4,0.3,0.7,0.6,1,0.9c0.7,0.6,1.3,1.2,2,1.8c0.6,0.6,1.2,1.2,1.7,1.8
				s1.1,1.1,1.5,1.6s0.9,1.1,1.2,1.6c0.4,0.5,0.7,0.9,1.1,1.4c0.3,0.4,0.6,0.8,0.8,1.2c0.5,0.7,0.8,1.3,1.1,1.7
				c0.1,0.2,0.2,0.3,0.3,0.4C233.5,134.7,233.6,134.8,233.6,134.8z"/>
		</g>
		<g>
			<path class="st16" d="M229.9,210.4c0,0-0.1,0.1-0.3,0.4s-0.5,0.6-0.8,1c-0.4,0.4-0.8,1-1.3,1.6s-1.1,1.3-1.8,2s-1.5,1.5-2.3,2.3
				s-1.8,1.7-2.8,2.6c-2,1.7-4.3,3.6-6.8,5.3c-2.5,1.7-5.1,3.2-7.4,4.5c-1.2,0.6-2.3,1.2-3.4,1.7c-1.1,0.5-2.1,1-3,1.3
				c-0.9,0.4-1.8,0.7-2.5,1s-1.4,0.5-1.9,0.7s-0.9,0.3-1.2,0.4s-0.4,0.1-0.4,0.1s0.1-0.1,0.4-0.2c0.3-0.1,0.7-0.3,1.2-0.5
				s1.2-0.4,1.9-0.7c0.7-0.3,1.6-0.6,2.5-1s1.9-0.8,3-1.4c1.1-0.5,2.2-1.1,3.4-1.7c2.3-1.3,4.8-2.8,7.4-4.5c2.5-1.7,4.8-3.6,6.8-5.3
				c1-0.9,1.9-1.7,2.8-2.5c0.9-0.8,1.6-1.6,2.3-2.3c0.7-0.7,1.3-1.4,1.9-2c0.5-0.6,1-1.1,1.4-1.5s0.6-0.7,0.9-1
				C229.8,210.5,229.9,210.4,229.9,210.4z"/>
		</g>
		<g>
			<path class="st16" d="M193,278.8c-0.1,0-0.2-9.8-0.2-21.9s0.1-21.9,0.2-21.9c0.1,0,0.2,9.8,0.2,21.9
				C193.2,269.1,193.1,278.8,193,278.8z"/>
		</g>
		<g>
			<path class="st16" d="M194.4,328.7c-0.1,0-0.2-6.9-0.2-15.3c0-8.5,0.1-15.3,0.2-15.3c0.1,0,0.2,6.9,0.2,15.3
				C194.5,321.8,194.5,328.7,194.4,328.7z"/>
		</g>
	</g>
	<g>
		<g>
			<path class="st14" d="M73.5,220.5c0,0,2.6,0.4,2.9-1.3c0.3-1.7-3-3.8-4.8-5.2c-1.8-1.3-11.1-2.5-10.8,3.3c0,0-2.4,0.8-2.5,3.9
				s0.5,7.8,1.4,8.5C60.6,230.5,73.5,220.5,73.5,220.5z"/>
			<path class="st17" d="M102.5,299.4c0,0,2.2,4.6,2.6,6.3c0.5,1.6,4.5,0.7,4.5,0.7l3.2-3.1l-4-7.4L102.5,299.4z"/>
			<path class="st17" d="M92.1,315.5c0,0,0.3,5.1,0.2,6.8c-0.1,1.7,3.9,2.3,3.9,2.3l4.2-1.8l-1.1-8.4L92.1,315.5z"/>
			<path class="st14" d="M91.1,321.3c0.2-1.5,2.6,1.3,4.6,1.3s5-2.9,5-2.9s3.8,2.1,6.2,2.9c2.4,0.8,6.1,1.5,6.1,3.4v0.8
				c0,0.6-0.5,1-1,1H91.7c-0.6,0-1.1-0.5-1-1.1C90.8,325.3,90.9,322.7,91.1,321.3z"/>
			<path class="st18" d="M68.5,271.2c0,0,5.5-0.8,12.7-1.2c7.2-0.4,13.9-2.3,15.9,0.6s13.1,25.6,13.1,25.6l-8.2,4.6l-9.8-15.9
				l-23.6-9.6L68.5,271.2L68.5,271.2z"/>
			<path class="st2" d="M52.7,279.1c0,0,1.2,9.2,12.6,8.4c8.4-0.6,22.9,0,22.9,0l3.1,29.3c0,0,7,2,9.8-1.5c0,0-1.8-28.1-2.2-31.3
				c-0.4-3.2-1.1-6.6-5.8-7.7c-4.6-1.1-19.4-3.1-21.5-3.5S67,270,67,270L52.7,279.1z"/>
			<path class="st17" d="M68.6,217.2c6.6,0.4,6.8,3.9,6.3,7.1c-0.6,3.3-2,9.4-4.3,9.9s-6.2-2.7-6.7-4.7c-0.6-2-1.1-7.1-0.6-9.2
				C63.8,218.3,65.7,217.1,68.6,217.2z"/>
			<path class="st17" d="M67.3,232.8c0,0-2,4.7-2,6.6l-8-4.4c0,0,2.9-4.9,3.5-7.6l2.6,1.1L67.3,232.8z"/>
			<path class="st14" d="M73.2,218.5c-2-0.6-3.4,0.7-3.4,1.7s-0.5,3-2,3.5s-3.1,0.7-3.1,0.7l-3.9-1.5l1.7-4.9l4.9-1.8l5.2,0.5
				L73.2,218.5z"/>
			<path class="st17" d="M64.7,224.4c0,0-1.1-3.5-3.4-1.3c-2.3,2.2-0.7,5.7,0.5,6.3c1.1,0.6,2.6,0.1,2.6,0.1L64.7,224.4z"/>
			<path class="st0" d="M61.4,232.8c-2.8-0.1-7.3,0.8-10.8,11.8s-1.8,33.5,0.6,35.5c2.5,2,15.3-2,17.9-6.8c1-1.9-1.6-7.2-0.4-16.6
				C69.8,247.4,68,233,61.4,232.8z"/>
			<path class="st19" d="M94.5,271.4H75.4c-0.9,0-1.6-0.7-1.6-1.6l0,0c0-0.9,0.7-1.6,1.6-1.6h19.2c0.9,0,1.6,0.7,1.6,1.6l0,0
				C96.2,270.7,95.4,271.4,94.5,271.4z"/>
			<path class="st19" d="M93,269.6l6.6-18c0.3-0.8,1.2-1.3,2.1-1l0,0c0.8,0.3,1.3,1.2,1,2.1l-6.6,18c-0.3,0.8-1.2,1.3-2.1,1l0,0
				C93.1,271.4,92.7,270.4,93,269.6z"/>
			<path class="st17" d="M73.4,268.5c0,0,2.1,0.6,4.7,0.6s3.6-1.2,5.2-1.8c1.6-0.5,2.3,1.2,3.8,1.2c1.6,0,0.4-1.5-0.9-2.9
				s-2.3-3-3.7-3c-1.4,0-8.7,2.5-8.7,2.5L73.4,268.5z"/>
			<path class="st20" d="M55.5,241.2c4.3-0.6,6.5,4.8,6.2,9.4c-0.3,4.7-1.1,11.3-1.1,11.3s6.2,2.6,13.8,2.8c0,0,2.4,3.1-1,7
				c0,0-17.9,0.7-19.7-1.4c-1.9-2.2-3.1-3.9-2.5-13.8S51.9,241.7,55.5,241.2z"/>
			<path class="st14" d="M104.2,305.5c0-1.5,2.6,1,4.4,0.8c1.9-0.2,4.2-3.4,4.2-3.4s3.8,1.6,6,2.1c2.3,0.5,5.8,0.8,6,2.6l0.1,0.6
				c0.1,0.6-0.4,1.2-1,1.3l-18.1,2.3c-0.7,0.1-1.3-0.4-1.3-1.1C104.4,309.3,104.2,306.8,104.2,305.5z"/>
		</g>
		<path class="st21" d="M44.9,293.7h38c1.7,0,3.2-1.4,3.2-3.2l0,0c0-1.7-1.4-3.2-3.2-3.2h-38c-1.7,0-3.2,1.4-3.2,3.2l0,0
			C41.7,292.3,43.2,293.7,44.9,293.7z"/>
		<path class="st22" d="M45.3,293.7h37.3v30c0,2.3-1.9,4.2-4.2,4.2H49.5c-2.3,0-4.2-1.9-4.2-4.2V293.7z"/>
	</g>
	<g>
		<path class="st0" d="M256.8,41.7l8-3.1c0,0-2.6-6.8,4.4-9.6c3.6-1.5,6.4,0.2,7.9,1.7c1.7,1.8,2.4,4.3,1.9,6.7
			c-0.5,2.8-2.7,6-8.5,7.1l7,18.1l8-3.1l-4.1-10.6c0,0,10-7.2,5.3-19.5c-4.5-11.8-16.1-10.4-20.6-8.7
			C262.7,22.2,251.2,27.5,256.8,41.7z"/>
		
			<rect x="280.2" y="64.6" transform="matrix(0.9331 -0.3595 0.3595 0.9331 -5.6558 106.8671)" class="st0" width="8.6" height="8.1"/>
	</g>
	<g>
		<path class="st19" d="M174.8,123.3c0,0,1.5,3.3,1.5,5s0.1,2.1-1.8,2.9c-1.9,0.8-12.1,3.4-12.1,3.4l5.9-6.3l1.7-3.3L174.8,123.3z"
			/>
		<path class="st17" d="M166.9,131.1c0,0,8.6-2.2,9.1-4.2c-0.4-1.7-1.3-3.6-1.3-3.6l-4.9,1.6l-1.7,3.3l-1.9,2L166.9,131.1z"/>
		<path class="st23" d="M185,93.4c0,0-20.4,0.6-22.4,4.3c-2,3.6,5.8,28.5,5.8,28.5s4,0.6,7.6-2.2l-3.2-19.1l14.4-2.1L185,93.4z"/>
		<path class="st19" d="M163.3,128.5c0,0,0.3,3.4-6.4,5.2c-6.7,1.9-5.8,3.1-5.6,4.3c0.3,1.1,10,0.2,14,0s4.8-0.2,4.5-2.8
			s-0.6-4.4-0.6-6.7H163.3z"/>
		<path class="st17" d="M163.3,128.5c0,0,0.3,3.4-6.4,5.2c-1.2,0.3-2.1,0.6-2.8,0.9c0.6,0.4,2.3,1.1,6.5,0.9
			c4.7-0.3,8.2-1.6,9.2-1.9c-0.2-1.8-0.4-3.3-0.4-5.1L163.3,128.5L163.3,128.5z"/>
		<path class="st24" d="M194.2,50.8c-5.4-0.3-7.7,3.3-8,6.4c-0.3,3.1-0.3,5.8-1.1,7s0.5,3.2,1.7,4.8s-1.9,5.2-1.1,6.8
			s3.8,3.3,3.8,3.3s17.6-2.3,17.4-5.7c-0.3-3.4-1-5.5-3.6-8.1s-0.4-3.9-0.6-5.7c-0.2-1.9-2.4-2.1-3.1-4.6
			C198.8,52.6,197,51,194.2,50.8z"/>
		<path class="st25" d="M201.4,97c0,0-0.4,9.9-9.9,9.2c-7-0.5-19.1,0-19.1,0l-2.6,24.5c0,0-5.9,1.6-8.2-1.3c0,0,1.5-23.5,1.9-26.1
			c0.4-2.7,0.9-5.5,4.8-6.4c3.9-0.9,16.2-2.6,17.9-2.9c1.8-0.4,3.9-2.3,3.9-2.3L201.4,97z"/>
		<path class="st19" d="M195.9,66.1c3.7-0.4,8.4,2.6,9.5,6s-1.3,9-2.5,13.6c-1.2,4.7-1.5,11.3-1.5,11.3s-12,3-16.3-3.6
			c0,0,2.5-5.5,2-9.3s-1.3-5.7,0-8.4s2.7-7.4,4.4-8C193.2,67.1,195.9,66.1,195.9,66.1z"/>
		<path class="st17" d="M189.8,54.5c-2.3,1.1-3,3.2-1.8,6.7s2.9,6.7,6,4.7c3.1-2.1,3.5-5.5,3.4-7.2C197.3,57,194.7,52.2,189.8,54.5z
			"/>
		<path class="st17" d="M193.1,64.8l1.3,4.2c0,0,4.3-0.4,4.4-2.4c0.1-2-1.4-6.3-1.4-6.3L193.1,64.8z"/>
		<path class="st17" d="M201,73.8c0.6,3,4.4,13.7,4.4,14.5c0,0-7.2,2.6-11.2,2.9v3.2c0,0,6.3-0.1,10.4-0.7c4.1-0.7,6.4-1.7,6.4-2.3
			s-1.2-10.1-2.6-15.1c-1.4-5-3.1-7.8-5.8-7.2C199.9,69.5,201,73.8,201,73.8z"/>
		<path class="st17" d="M194.2,91.1c0,0-4.3-0.2-5.6-0.7c-1.2-0.4-4.6,0.3-5.3,1.6c-0.6,1.2,2.5,2.6,3.6,2.3s1.1-0.9,2.2-0.9
			c1.1,0.1,1.2,2.7,5.1,0.9V91.1z"/>
		<path class="st24" d="M188.1,54.6c0,0-0.2,1.6,2,2.5c2.3,0.9,4.3,1.2,4.6,3.8s1.3,2.5,2.7,4.1s3.9,3,3.9,1.6s-3.6-11.1-3.6-11.1
			s-2.7-3.1-5-2.9C190.4,52.7,188.1,54.6,188.1,54.6z"/>
		<path class="st26" d="M186.8,96.4H170c-0.8,0-1.4-0.6-1.4-1.4l0,0c0-0.8,0.6-1.4,1.4-1.4h16.8c0.8,0,1.4,0.6,1.4,1.4l0,0
			C188.2,95.8,187.6,96.4,186.8,96.4z"/>
		<path class="st26" d="M172.6,77.4l8.3,19h-12.2l-7.9-18.2c-0.3-0.7,0.2-1.5,1-1.5h9.9C172,76.7,172.4,77,172.6,77.4z"/>
	</g>
	<g>
		<g>
			<polygon class="st27" points="120.7,65 129.4,60.2 151.5,80.7 			"/>
			<polygon class="st28" points="118.5,71.1 120.7,65 151.5,80.7 			"/>
			<polygon class="st27" points="117.1,69.1 107.4,74.9 151.5,80.7 			"/>
		</g>
		<g>
			<g>
				<path class="st12" d="M115.3,67.5c-6.3-2.4-13.1-3.8-20.2-4.3l0.1-1.2c7.3,0.5,14.2,1.9,20.6,4.4L115.3,67.5z"/>
			</g>
			<g>
				<path class="st12" d="M62.7,68.3l-0.5-1.1c8.2-3.5,18.1-5.4,27.9-5.4h0.8V63h-0.8C80.5,63,70.8,64.9,62.7,68.3z"/>
			</g>
			<g>
				<path class="st12" d="M19.6,111.6c-0.1-1.2-0.1-2.5-0.1-3.7c0-9,2-17.6,5.7-24.9l1,0.5c-3.6,7.1-5.5,15.6-5.5,24.4
					c0,1.2,0,2.4,0.1,3.6L19.6,111.6z M51.4,98.8c-5.4,0-8.5-3.1-8.8-8.9v-0.6c0-4.5,1.9-8.9,5.6-12.9l0.8,0.8
					c-3.5,3.8-5.3,7.8-5.3,12.1v0.6c0.2,6.4,4.3,7.7,7.6,7.7c2.7,0,5.8-0.8,9.2-2.4l0.5,1.1C57.6,97.9,54.3,98.8,51.4,98.8z
					 M64.8,94.3l-0.6-1c6.3-3.9,12.6-10.5,12.6-16.5c0-2.2-0.8-4.2-2.5-5.9l0.8-0.8c1.9,1.9,2.8,4.2,2.8,6.7
					C78,83.7,70.9,90.5,64.8,94.3z M28.2,80l-1-0.6C34.6,67.7,46.3,62,59.6,63.8L59.4,65C46.7,63.1,35.4,68.6,28.2,80z"/>
			</g>
			<g>
				<path class="st12" d="M33.9,146.2c-4.7-5.1-8.4-11.2-10.9-18l1.1-0.4c2.4,6.7,6,12.6,10.6,17.6L33.9,146.2z"/>
			</g>
		</g>
	</g>
	<g>
		<path class="st0" d="M55.5,149.4l-6.4-2c0,0-1.7,5.4-7.3,3.7c-2.9-0.9-3.8-3.2-4-4.9c-0.2-1.9,0.6-3.8,2.1-5.1
			c1.6-1.5,4.5-2.3,8.6-0.2l4.5-14.5l-6.3-2l-2.6,8.5c0,0-9.6-0.5-12.7,9.3c-2.9,9.4,4.8,14.2,8.4,15.3
			C42.5,158.5,52.1,160.7,55.5,149.4z"/>
		
			<rect x="48.6" y="116.1" transform="matrix(0.2978 -0.9546 0.9546 0.2978 -77.7417 133.2831)" class="st0" width="6.3" height="6.7"/>
	</g>
</g>
</svg>
