<?xml version="1.0" encoding="utf-8"?>
<!-- Generator: Adobe Illustrator 25.2.1, SVG Export Plug-In . SVG Version: 6.00 Build 0)  -->
<svg version="1.1" id="Capa_1" xmlns="http://www.w3.org/2000/svg" xmlns:xlink="http://www.w3.org/1999/xlink" x="0px" y="0px"
	 viewBox="0 0 150 150" style="enable-background:new 0 0 150 150;" xml:space="preserve">
<style type="text/css">
	.st0{fill:#FFFFFF;}
</style>
<g>
	<g>
		<path class="st0" d="M45.2,58.8H28.5c-3.2,0-6,2.6-6,6V75c0,3.2,2.6,6,6,6h16.6c3.2,0,6-2.6,6-6V64.8
			C51.2,61.6,48.2,58.8,45.2,58.8z"/>
	</g>
	<g>
		<path class="st0" d="M129.3,21.2v6v2.4c0,5.8-4.8,10.6-10.6,10.6h-1.8c-5.8,0-10.6-4.8-10.6-10.6v-2.4v-6H44.1v6v2.4
			c0,5.8-4.8,10.6-10.6,10.6h-1.8c-5.8,0-10.6-4.8-10.6-10.6v-2.4v-6h-3.7C9,21.2,2.1,28.2,2.1,36.6v96.1c0,8.4,6.9,15.4,15.4,15.4
			h100.3h0.9v-0.2c1.1-0.2,2-0.7,2.9-1.6l24.1-25c0.9-1.1,2.2-2.2,2.2-3.7l0,0V36.4c0-8.4-6.9-15.4-15.4-15.4L129.3,21.2L129.3,21.2
			z M8.6,137.3V44.6h131.6V113h-14.3c-5.5,0-10,4.8-10,10.7v17.6H12.4C10.4,141.3,8.6,139.4,8.6,137.3z"/>
		<path class="st0" d="M117.8,32L117.8,32c-2.9,0-5.3-2.4-5.3-5.3V7.3c0-2.9,2.4-5.3,5.3-5.3l0,0c2.9,0,5.3,2.4,5.3,5.3v19.5
			C123,29.8,120.6,32,117.8,32z"/>
		<path class="st0" d="M32.2,32L32.2,32c-2.9,0-5.3-2.4-5.3-5.3V7.3C27,4.4,29.4,2,32.2,2l0,0c2.9,0,5.3,2.4,5.3,5.3v19.5
			C37.5,29.8,35.1,32,32.2,32z"/>
	</g>
</g>
</svg>
