<?xml version="1.0" encoding="utf-8"?>
<!-- Generator: Adobe Illustrator 25.2.1, SVG Export Plug-In . SVG Version: 6.00 Build 0)  -->
<svg version="1.1" id="Capa_1" xmlns="http://www.w3.org/2000/svg" xmlns:xlink="http://www.w3.org/1999/xlink" x="0px" y="0px"
	 viewBox="0 0 150 150" style="enable-background:new 0 0 150 150;" xml:space="preserve">
<style type="text/css">
	.st0{fill:#FFFFFF;}
</style>
<g>
	<g>
		<path class="st0" d="M78.4,135c-1.4,0-2.8-0.1-4.1-0.3l-61.8-10.7c-4.8-0.8-8.3-5-8.3-9.8V84c0-3.4,1.7-6.6,4.6-8.4l11.6-7.4
			c0.8-0.5,1.7-0.9,2.6-1.2c7.6-2.3,14.6-2,24.1,1.2L83.4,80c2.2,0.7,3.9,2.2,4.9,4.2c1,2,1.1,4.1,0.4,6.3c-1.5,3.7-5,6-8.7,5.6
			l-24.5-3.7c-0.1,0-0.4,0.1-0.6,0.3c-0.1,0.1-0.4,0.4-0.4,0.7c0,0.6,0.4,1.2,1,1.3l25.2,3.7c4.6,0,8.6-2.8,10.2-7.2
			c0.2-0.8,0.4-1.6,0.5-2.2c0.5-3.5,3-6.5,6.5-7.8l31.9-11.5c3.2-1.2,6.5-1.1,9.3,0.4c3,1.5,5.1,3.9,6.2,6.8
			c1.5,5.2,0,10.3-3.7,13.4l-41.6,36.8C93.7,132.3,86.1,135,78.4,135z M32.7,72.3c-2.6,0-5.1,0.4-7.7,1.2c-0.3,0.1-0.6,0.2-0.9,0.4
			l-11.6,7.4c-0.9,0.6-1.5,1.6-1.5,2.7v30.2c0,1.5,1.1,2.9,2.6,3.1L75.3,128c7.2,0.9,14.5-1.3,20.4-6.1l41.5-36.8
			c1.7-1.4,2.3-3.8,1.6-6.2c-0.4-1.1-1.4-2.1-2.8-2.8c-1.2-0.6-2.4-0.6-3.9-0.1l-32,11.5c-1.1,0.4-1.9,1.3-2,2.3
			c-0.1,1-0.4,2.1-0.8,3.4c-2.6,7.2-9.3,11.9-16.7,11.9l-1.8,0l-24.3-3.7c-4.1-0.3-7.4-4.2-7-8.6c0.4-4.4,4.2-7.6,8.6-7.2l24.5,3.7
			c0.6,0.1,1.2-0.6,1.5-1.2c0.1-0.4,0-0.7-0.1-0.9c-0.1-0.2-0.3-0.6-0.9-0.8L44.9,74.7C40.2,73.1,36.3,72.3,32.7,72.3z"/>
	</g>
	<g>
		<path class="st0" d="M81.8,74.5C65.4,74.5,52,61.1,52,44.7C52,28.3,65.4,15,81.8,15c16.4,0,29.7,13.3,29.7,29.7
			C111.5,61.1,98.2,74.5,81.8,74.5z M81.8,21.8c-12.6,0-22.9,10.3-22.9,22.9s10.3,22.9,22.9,22.9s22.9-10.3,22.9-22.9
			S94.4,21.8,81.8,21.8z M88.4,61.6H75.1V51.4H64.8V38h10.2V27.8h13.4V38h10.2v13.3H88.4V61.6z"/>
	</g>
</g>
</svg>
