<?xml version="1.0" encoding="utf-8"?>
<!-- Generator: Adobe Illustrator 23.1.0, SVG Export Plug-In . SVG Version: 6.00 Build 0)  -->
<svg version="1.1" id="Capa_1" xmlns="http://www.w3.org/2000/svg" xmlns:xlink="http://www.w3.org/1999/xlink" x="0px" y="0px"
	 viewBox="0 0 300 300" style="enable-background:new 0 0 300 300;" xml:space="preserve">
<style type="text/css">
	.st0{fill:#FFFFFF;}
</style>
<g>
	<path class="st0" d="M213.9,1.4H49.6c-3.7,0-6.2,2.5-6.2,6.2v241.6c0,3.7,2.5,6.2,6.2,6.2h19.2v36.4c0,2.5,1.2,4.9,3.7,5.6
		c2.5,1.2,4.9,0.6,6.8-1.2l13-13.6l13,13.6c1.9,1.9,4.3,2.5,6.8,1.2s3.7-3.1,3.7-5.6v-36.4h97.6c24.1,0,43.2-19.2,43.2-43.2V44.7
		C257.1,20.6,238,1.4,213.9,1.4z M55.7,13.8h30.9V243c-2.5,0-31.5,0-30.9,0C55.7,243,55.7,13.8,55.7,13.8z M103.9,277l-6.8-6.8
		c-1.2-1.2-2.5-1.9-4.3-1.9c-1.9,0-3.1,0.6-4.3,1.9l-6.8,6.8v-21h22.9v21H103.9z M244.8,212.1c0,17.3-13.6,30.9-30.9,30.9
		c-45.1,0-96.4,0-114.9,0V13.8h114.9c17.3,0,30.9,13.6,30.9,30.9V212.1z"/>
	<path class="st0" d="M205.9,73.7c-1.9,0-3.7,0-5.6,0.6c-7.4-6.8-16.7-11.1-27.2-11.1c-14.8,0-27.8,8-34.6,21
		c-18.5-0.6-32.7,14.2-32.7,32.1c0,13,8,24.7,19.2,29.7v42c0,3.7,2.5,6.2,6.2,6.2h81.5c3.7,0,6.2-2.5,6.2-6.2v-52.5
		c11.7-4.9,19.2-16.7,19.2-29.7C238,87.9,223.8,73.7,205.9,73.7z M137.3,181.8v-15.4h69.2v15.4H137.3z M210.8,125
		c-2.5,0.6-4.3,3.1-4.3,6.2V154h-69.2v-12.4c0-3.1-1.9-5.6-4.3-6.2c-8.6-2.5-14.8-9.9-14.8-19.2c0-10.5,9.3-19.8,19.8-19.8
		c1.2,0,2.5,0,3.7,0.6c3.1,0.6,6.2-1.2,6.8-3.7c3.7-10.5,13.6-17.3,25.3-17.3c8,0,15.4,3.1,20.4,9.3c1.9,1.9,4.3,2.5,6.8,1.9
		c1.9-0.6,3.7-0.6,6.2-0.6c11.1,0,19.8,8.6,19.8,19.8C225.6,114.5,219.5,122.5,210.8,125z"/>
</g>
</svg>
