<?xml version="1.0" encoding="utf-8"?>
<!-- Generator: Adobe Illustrator 25.2.3, SVG Export Plug-In . SVG Version: 6.00 Build 0)  -->
<svg version="1.1" id="Capa_1" xmlns="http://www.w3.org/2000/svg" xmlns:xlink="http://www.w3.org/1999/xlink" x="0px" y="0px"
	 viewBox="0 0 30 30" style="enable-background:new 0 0 30 30;" xml:space="preserve">
<style type="text/css">
	.st0{fill:#3D3D3D;}
	.st1{fill:#0F4C81;}
</style>
<path class="st1" d="M20.5,4.8c-2.2,1.7-4.2,3.6-5.9,5.8c-2.9,3.4-5.2,7.2-6.9,11.3c-0.4-1-0.9-1.9-1.4-2.8c-0.5-1-1.1-1.9-1.7-2.8
	c-0.6-0.9-1.3-1.8-2-2.6c0.4,1,0.8,2,1.2,3c0.4,1,0.7,2,1.1,3c0.3,1,0.6,2,0.9,3c0.3,1,0.6,2,0.8,3.1l0.8,3.8l1.6-3.6
	c2.1-4.8,4.8-9.3,7.9-13.6c1.6-2.1,3.2-4.2,5-6.1c1.8-2,3.7-3.9,5.6-5.8C25,1.6,22.7,3.1,20.5,4.8"/>
</svg>
