<?xml version="1.0" encoding="utf-8"?>
<!-- Generator: Adobe Illustrator 25.2.3, SVG Export Plug-In . SVG Version: 6.00 Build 0)  -->
<svg version="1.1" xmlns="http://www.w3.org/2000/svg" xmlns:xlink="http://www.w3.org/1999/xlink" x="0px" y="0px"
	 viewBox="0 0 124 124" style="enable-background:new 0 0 124 124;" xml:space="preserve">
<style type="text/css">
	.st0{display:none;}
	.st1{display:inline;}
	.st2{opacity:0.3;fill:#1A1A1A;}
	.st3{opacity:0.9;fill-rule:evenodd;clip-rule:evenodd;fill:#0073A5;}
	.st4{fill-rule:evenodd;clip-rule:evenodd;fill:#F9F9F9;}
	.st5{fill:#3D3D3D;}
	.st6{fill:#25A7DF;}
	.st7{fill:none;stroke:#E6E6E6;stroke-miterlimit:10;}
	.st8{fill:#FFFFFF;}
	.st9{fill:none;stroke:#FFFFFF;stroke-width:6;stroke-miterlimit:10;}
	.st10{opacity:0.8;fill:none;stroke:#FFFFFF;stroke-width:3.7644;stroke-miterlimit:10;}
	.st11{fill:none;stroke:#FFFFFF;stroke-width:3.3579;stroke-miterlimit:10;}
	.st12{opacity:0.8;}
	.st13{fill:none;stroke:#000000;stroke-width:2;stroke-miterlimit:10;}
</style>
<g id="vectores">
	<g class="st0">
		<defs>
			<rect id="SVGID_1_" x="-1198.3" y="-1435" width="2122.8" height="1114"/>
		</defs>
		<clipPath id="SVGID_2_" class="st1">
			<use xlink:href="#SVGID_1_"  style="overflow:visible;"/>
		</clipPath>
		<g style="display:inline;clip-path:url(#SVGID_2_);">
			
				<image style="overflow:visible;" width="4004" height="6000" xlink:href="../../partnership/fotografiÌas/goelu_op3_slider.jpg"  transform="matrix(0.5302 0 0 0.5302 -1198.2614 -1822.4805)">
			</image>
		</g>
	</g>
	<g class="st0">
		<defs>
			<rect id="SVGID_5_" x="-1197.3" y="-1442" width="2120.8" height="1121"/>
		</defs>
		<clipPath id="SVGID_4_" class="st1">
			<use xlink:href="#SVGID_5_"  style="overflow:visible;"/>
		</clipPath>
		<g style="display:inline;clip-path:url(#SVGID_4_);">
			
				<image style="overflow:visible;" width="5616" height="3744" xlink:href="../../partnership/fotos_recurso_partnership/business-partners-handshaking-at-group-meeting-making-project-investment-closeup.jpg"  transform="matrix(0.5071 0 0 0.5071 -1197.2614 -1826.2538)">
			</image>
		</g>
	</g>
	<g>
		<g class="st12">
			<path class="st8" d="M62,123C28.4,123,1,95.6,1,62S28.4,1,62,1s61,27.4,61,61S95.6,123,62,123z M62,4.7C30.4,4.7,4.7,30.4,4.7,62
				s25.7,57.3,57.3,57.3s57.3-25.7,57.3-57.3S93.6,4.7,62,4.7z"/>
		</g>
		<g>
			<path class="st8" d="M46.5,92.1c-1.2,0-2.5-0.3-3.6-1c-2.1-1.3-3.4-3.5-3.4-6V39.9c0-2.4,1.2-4.7,3.3-5.9
				c2.1-1.3,4.6-1.4,6.8-0.4l44.3,21.2c2.4,1.1,3.9,3.5,4,6.2c0.1,2.7-1.3,5.1-3.7,6.4l-44.3,24C48.8,91.9,47.7,92.1,46.5,92.1z
				 M46.5,36.2c-0.7,0-1.4,0.2-2,0.6c-1.1,0.7-1.7,1.8-1.7,3.1v45.2c0,1.3,0.7,2.5,1.8,3.2c1.1,0.7,2.5,0.7,3.7,0.1l44.3-24
				c1.2-0.7,2-1.9,1.9-3.3c0-1.4-0.8-2.6-2.1-3.2L48.1,36.6C47.6,36.3,47.1,36.2,46.5,36.2z"/>
		</g>
	</g>
</g>
<g id="guia" class="st0">
</g>
</svg>
