<?xml version="1.0" encoding="utf-8"?>
<!-- Generator: Adobe Illustrator 25.2.3, SVG Export Plug-In . SVG Version: 6.00 Build 0)  -->
<svg version="1.1" id="Capa_1" xmlns="http://www.w3.org/2000/svg" xmlns:xlink="http://www.w3.org/1999/xlink" x="0px" y="0px"
	 viewBox="0 0 30 30" style="enable-background:new 0 0 30 30;" xml:space="preserve">
<style type="text/css">
	.st0{fill:#2AA7E0;}
	.st1{fill:#FFFFFF;}
</style>
<g>
	<g>
		<g>
			<path class="st0" d="M29.6,15c0,1-1.8,1.9-2,2.9c-0.2,1,1,2.5,0.5,3.5c-0.4,0.9-2.4,0.9-3,1.7c-0.6,0.8-0.2,2.7-1,3.4
				s-2.5-0.2-3.5,0.3c-0.9,0.4-1.3,2.3-2.4,2.6C17.2,29.5,16,28,15,28s-2.3,1.5-3.2,1.3c-1-0.2-1.5-2.1-2.4-2.6
				c-0.9-0.4-2.7,0.4-3.5-0.3s-0.4-2.5-1-3.3c-0.6-0.8-2.6-0.8-3-1.7c-0.4-0.9,0.8-2.5,0.5-3.5c-0.2-1-2-1.8-2-2.9
				c0-1,1.8-1.9,2-2.9c0.2-1-1-2.5-0.5-3.5c0.4-0.9,2.4-0.9,3-1.7c0.6-0.8,0.2-2.7,1-3.4s2.5,0.2,3.5-0.3c0.9-0.4,1.3-2.3,2.4-2.6
				C12.8,0.5,14,2,15,2s2.3-1.5,3.2-1.3c1,0.2,1.5,2.1,2.4,2.6c0.9,0.4,2.7-0.4,3.5,0.3s0.4,2.5,1,3.4s2.6,0.8,3,1.7
				s-0.8,2.5-0.5,3.5C27.9,13.1,29.6,13.9,29.6,15z"/>
		</g>
	</g>
	<g>
		<path class="st1" d="M18.2,10.5c-0.3-0.6-0.8-1.2-1.4-1.5c-0.6-0.4-1.4-0.6-2.2-0.6c-0.8,0-1.6,0.2-2.2,0.6
			c-0.6,0.4-1.1,0.9-1.4,1.5c-0.3,0.6-0.5,1.3-0.5,2.1c0,0.8,0.2,1.5,0.5,2.1l0,0c0.1,0.1,0.1,0.2,0,0.4l-0.2,0.7
			c-0.1,0.2,0.1,0.5,0.3,0.5l0.2,0c0.5,0.1,0.9,0.1,1.3,0.1l0,0c0.2,0,0.4,0,0.5,0.1c0.5,0.2,1,0.2,1.5,0.2c0.8,0,1.6-0.2,2.2-0.6
			c0.6-0.4,1.1-0.9,1.4-1.5c0.3-0.6,0.5-1.3,0.5-2.1C18.7,11.9,18.6,11.2,18.2,10.5z M16,14.3c-0.3,0.4-0.8,0.6-1.4,0.6
			c-0.6,0-1.1-0.2-1.4-0.6c-0.3-0.4-0.5-1-0.5-1.7c0-0.7,0.2-1.3,0.5-1.7c0.3-0.4,0.8-0.6,1.4-0.6c0.6,0,1.1,0.2,1.4,0.6
			c0.3,0.4,0.5,1,0.5,1.7C16.5,13.3,16.3,13.9,16,14.3z"/>
		<path class="st1" d="M18,22.2c-2,0.9-4.1,1.3-6.4,1c-0.5-0.1-0.9-0.4-1-0.9l0-0.1c-0.1-0.6,0.2-1.3,0.7-1.2
			c2.1,0.5,4.3,0.2,6.4-0.9c0.4-0.2,0.9,0.3,1,0.9c0,0,0,0,0,0C18.7,21.6,18.4,22,18,22.2z"/>
		<path class="st1" d="M18,19.1c-1.9,1-4,1.4-6.4,1.2c-0.5,0-0.9-0.3-1-0.9l0-0.1c-0.1-0.6,0.2-1.3,0.6-1.2c2.2,0.5,4.3,0.1,6.4-1.1
			c0.4-0.2,0.9,0.3,1,0.9c0,0,0,0,0,0C18.7,18.4,18.4,18.9,18,19.1z"/>
		<circle class="st1" cx="18.5" cy="7.7" r="1"/>
	</g>
</g>
</svg>
