<svg id="Layer_1" data-name="Layer 1" xmlns="http://www.w3.org/2000/svg" viewBox="0 0 120 120"><defs><style>.cls-1{fill:#3a5784;}.cls-2{fill:#fff;}</style></defs><title>ic_contacts_lg</title><path class="cls-1" d="M15,0h90a15,15,0,0,1,15,15v90a15,15,0,0,1-15,15H15A15,15,0,0,1,0,105V15A15,15,0,0,1,15,0Z"/><circle class="cls-2" cx="60" cy="60" r="40"/><path class="cls-1" d="M48.7,67.8A25.77,25.77,0,0,1,60,65a27,27,0,0,1,11.3,2.7c3.9,1.8,5.9,4.2,5.9,7.2v5H42.8v-5C42.8,72,44.7,69.6,48.7,67.8ZM66,57.1a7.66,7.66,0,0,1-12,0,10.2,10.2,0,0,1-2.5-7A10.63,10.63,0,0,1,54,43a7.67,7.67,0,0,1,6-3,7.52,7.52,0,0,1,6,3,10.45,10.45,0,0,1,2.5,7.1A9.9,9.9,0,0,1,66,57.1Z"/></svg>