<svg xmlns="http://www.w3.org/2000/svg" width="60" height="60" viewBox="0 0 60 60">
  <metadata><?xpacket begin="﻿" id="W5M0MpCehiHzreSzNTczkc9d"?>
<x:xmpmeta xmlns:x="adobe:ns:meta/" x:xmptk="Adobe XMP Core 5.6-c140 79.160451, 2017/05/06-01:08:21        ">
   <rdf:RDF xmlns:rdf="http://www.w3.org/1999/02/22-rdf-syntax-ns#">
      <rdf:Description rdf:about=""/>
   </rdf:RDF>
</x:xmpmeta>
                                                                                                    
                                                                                                    
                                                                                                    
                                                                                                    
                                                                                                    
                                                                                                    
                                                                                                    
                                                                                                    
                                                                                                    
                                                                                                    
                                                                                                    
                                                                                                    
                                                                                                    
                                                                                                    
                                                                                                    
                                                                                                    
                                                                                                    
                                                                                                    
                                                                                                    
                                                                                                    
                           
<?xpacket end="w"?></metadata>
<defs>
    <style>
      .cls-1 {
        fill: #fff;
        fill-rule: evenodd;
      }
    </style>
  </defs>
  <path id="ic" class="cls-1" d="M15.675,31.7a2.358,2.358,0,0,1,0-3.36,2.529,2.529,0,0,1,1.8-.657H57.507a2.536,2.536,0,0,1,1.8.657,2.359,2.359,0,0,1,0,3.36,2.536,2.536,0,0,1-1.8.656H17.472A2.528,2.528,0,0,1,15.675,31.7Zm0-18.694a2.2,2.2,0,0,1-.7-1.68,2.2,2.2,0,0,1,.7-1.679,2.524,2.524,0,0,1,1.8-.657H57.507a2.531,2.531,0,0,1,1.8.657,2.2,2.2,0,0,1,.7,1.679,2.2,2.2,0,0,1-.7,1.68,2.531,2.531,0,0,1-1.8.657H17.472A2.523,2.523,0,0,1,15.675,13Zm0,37.388a2.358,2.358,0,0,1,0-3.36,2.528,2.528,0,0,1,1.8-.656H57.507a2.535,2.535,0,0,1,1.8.656,2.359,2.359,0,0,1,0,3.36,2.536,2.536,0,0,1-1.8.657H17.472A2.529,2.529,0,0,1,15.675,50.389ZM2.46,8.985a2.53,2.53,0,0,1,1.8.657,2.2,2.2,0,0,1,.7,1.679,2.2,2.2,0,0,1-.7,1.68,2.529,2.529,0,0,1-1.8.657A2.528,2.528,0,0,1,.661,13a2.2,2.2,0,0,1-.7-1.68,2.2,2.2,0,0,1,.7-1.679A2.528,2.528,0,0,1,2.46,8.985Zm0,18.693a2.535,2.535,0,0,1,1.8.657,2.355,2.355,0,0,1,0,3.36,2.534,2.534,0,0,1-1.8.656,2.533,2.533,0,0,1-1.8-.656,2.359,2.359,0,0,1,0-3.36A2.533,2.533,0,0,1,2.46,27.678Zm0,18.7a2.534,2.534,0,0,1,1.8.656,2.355,2.355,0,0,1,0,3.36,2.535,2.535,0,0,1-1.8.657,2.533,2.533,0,0,1-1.8-.657,2.359,2.359,0,0,1,0-3.36A2.532,2.532,0,0,1,2.46,46.373Z"/>
</svg>
