<svg xmlns="http://www.w3.org/2000/svg" width="60" height="60" viewBox="0 0 60 60">
  <metadata><?xpacket begin="﻿" id="W5M0MpCehiHzreSzNTczkc9d"?>
<x:xmpmeta xmlns:x="adobe:ns:meta/" x:xmptk="Adobe XMP Core 5.6-c140 79.160451, 2017/05/06-01:08:21        ">
   <rdf:RDF xmlns:rdf="http://www.w3.org/1999/02/22-rdf-syntax-ns#">
      <rdf:Description rdf:about=""/>
   </rdf:RDF>
</x:xmpmeta>
                                                                                                    
                                                                                                    
                                                                                                    
                                                                                                    
                                                                                                    
                                                                                                    
                                                                                                    
                                                                                                    
                                                                                                    
                                                                                                    
                                                                                                    
                                                                                                    
                                                                                                    
                                                                                                    
                                                                                                    
                                                                                                    
                                                                                                    
                                                                                                    
                                                                                                    
                                                                                                    
                           
<?xpacket end="w"?></metadata>
<defs>
    <style>
      .cls-1 {
        fill: #fff;
        fill-rule: evenodd;
      }
    </style>
  </defs>
  <path id="ic" class="cls-1" d="M60.037,10.542V56.21a3.8,3.8,0,0,1-3.753,3.747H3.737A3.613,3.613,0,0,1,1.1,58.844,3.6,3.6,0,0,1-.015,56.21V10.542H0.22A3.4,3.4,0,0,1,3.737,7.849H7.49V13.7a5.6,5.6,0,0,0,5.63,5.621,5.6,5.6,0,0,0,5.63-5.621V7.849H41.271V13.7a5.629,5.629,0,1,0,11.259,0V7.849h3.753A3.405,3.405,0,0,1,59.8,10.542h0.234ZM56.284,26.233H3.737V56.21H56.284V26.233ZM11.244,13.7V1.877A1.827,1.827,0,0,1,11.771.53,1.756,1.756,0,0,1,13.062,0,1.966,1.966,0,0,1,14.411.53,1.738,1.738,0,0,1,15,1.877V13.7a1.731,1.731,0,0,1-.586,1.347,1.962,1.962,0,0,1-1.349.528,1.753,1.753,0,0,1-1.291-.528,1.82,1.82,0,0,1-.527-1.347h0Zm33.779,0V1.877A1.807,1.807,0,0,1,46.9,0,1.832,1.832,0,0,1,48.249.53a1.827,1.827,0,0,1,.527,1.347V13.7a1.877,1.877,0,1,1-3.754,0h0Z"/>
</svg>
