<svg id="Layer_1" data-name="Layer 1" xmlns="http://www.w3.org/2000/svg" viewBox="0 0 97.2 119.75"><defs><style>.cls-1{fill:#9f7020;}.cls-2{fill:#fff;}</style></defs><title>ic_file_manager_lg</title><path class="cls-1" d="M34.19,0.25H84.32A2.28,2.28,0,0,1,86.6,2.52V95.73A2.28,2.28,0,0,1,84.32,98H13.68a2.28,2.28,0,0,1-2.28-2.27V24.12Z" transform="translate(-11.4 -0.25)"/><path class="cls-2" d="M31.91,24.12a2.28,2.28,0,0,0,2.28-2.27V0.25L11.4,24.12H31.91Z" transform="translate(-11.4 -0.25)"/><circle class="cls-2" cx="37.6" cy="53.43" r="22"/><path class="cls-1" d="M44.29,45.14a0.61,0.61,0,0,0-1,.57V61.63a0.61,0.61,0,0,0,1,.57l14-8a0.59,0.59,0,0,0,0-1.13Z" transform="translate(-11.4 -0.25)"/><path class="cls-2" d="M86.6,76a22,22,0,1,0,22,22A22,22,0,0,0,86.6,76Z" transform="translate(-11.4 -0.25)"/><path class="cls-1" d="M81.73,99.42a3.62,3.62,0,0,0-2.44-2V88.26a0.89,0.89,0,0,0-1.77,0v9.12a4.1,4.1,0,0,0-.62.21,3.65,3.65,0,0,0,.62,6.86v3.29a0.89,0.89,0,0,0,1.77,0v-3.28A3.64,3.64,0,0,0,81.73,99.42Zm-1.56,2.17a1.88,1.88,0,1,1-2.54-2.38A1.83,1.83,0,0,1,78.4,99a1.89,1.89,0,0,1,1.72,1.11,1.86,1.86,0,0,1,.06,1.44h0Z" transform="translate(-11.4 -0.25)"/><path class="cls-1" d="M98.12,99.42a3.62,3.62,0,0,0-2.44-2V88.26a0.89,0.89,0,1,0-1.77,0v9.12a4.1,4.1,0,0,0-.62.21,3.65,3.65,0,0,0,.62,6.86v3.29a0.89,0.89,0,0,0,1.77,0v-3.28A3.64,3.64,0,0,0,98.12,99.42Zm-1.56,2.17A1.88,1.88,0,1,1,94,99.21,1.85,1.85,0,0,1,94.79,99a1.89,1.89,0,0,1,1.72,1.11A1.86,1.86,0,0,1,96.55,101.59Z" transform="translate(-11.4 -0.25)"/><path class="cls-1" d="M87.89,91.81l-0.4-.12V88.26a0.89,0.89,0,1,0-1.77,0v3.43a3.65,3.65,0,0,0-.4,7l0.4,0.12v9a0.89,0.89,0,0,0,1.77,0v-9a3.41,3.41,0,0,0,.62-0.21A3.65,3.65,0,0,0,87.89,91.81Zm0.49,4.1a1.88,1.88,0,1,1-1.76-2.55,1.91,1.91,0,0,1,.66.12,1.87,1.87,0,0,1,1,1h0A1.86,1.86,0,0,1,88.37,95.9Z" transform="translate(-11.4 -0.25)"/></svg>