<?xml version="1.0" encoding="utf-8"?>
<!-- Generator: Adobe Illustrator 23.1.0, SVG Export Plug-In . SVG Version: 6.00 Build 0)  -->
<svg version="1.1" id="Capa_1" xmlns="http://www.w3.org/2000/svg" xmlns:xlink="http://www.w3.org/1999/xlink" x="0px" y="0px"
	 viewBox="0 0 175.6 96.8" style="enable-background:new 0 0 175.6 96.8;" xml:space="preserve">
<style type="text/css">
	.st0{fill:#B0B0B0;}
	.st1{fill:#FFFFFF;}
	.st2{fill:url(#SVGID_1_);}
	.st3{fill:#161D21;}
	.st4{fill:#64B8CB;}
	.st5{fill:#FFD11D;}
	.st6{fill:#F76031;}
	.st7{fill:#E2E2E2;}
	.st8{opacity:0.5;fill:#E2E2E2;}
	.st9{fill:#1B384C;}
</style>
<g>
	<g>
		<g>
			<g>
				<g>
					<path class="st0" d="M0.7,91.6c0,0-1.1,2,6.6,3.7h160.8c0,0,5.4-0.3,6.8-2.9l0-1.4L0.7,91.6z"/>
					<path class="st1" d="M0.8,87.5H175V92c0,0,0.3,0.6-1.8,0.4H2.4c0,0-1.6,0.5-1.8-0.6L0.8,87.5z"/>
					<path class="st0" d="M166.9,90.1c0,0.2-0.1,0.3-0.3,0.3h-5.9c-0.1,0-0.3-0.1-0.3-0.3l0,0c0-0.2,0.1-0.3,0.3-0.3h5.9
						C166.8,89.8,166.9,89.9,166.9,90.1L166.9,90.1z"/>
				</g>
				<path class="st0" d="M76,87.5c0,0-0.7,2.2,1.6,2.5h20.2c0,0,2.1,0.3,1.9-2.4L76,87.5z"/>
				<g>
					<linearGradient id="SVGID_1_" gradientUnits="userSpaceOnUse" x1="99.5757" y1="87.6526" x2="99.5757" y2="87.5992">
						<stop  offset="2.439020e-02" style="stop-color:#5F6767"/>
						<stop  offset="0.4756" style="stop-color:#676B6C"/>
						<stop  offset="0.5137" style="stop-color:#717576"/>
						<stop  offset="0.6192" style="stop-color:#878A8B"/>
						<stop  offset="0.7202" style="stop-color:#949899"/>
						<stop  offset="0.811" style="stop-color:#999C9D"/>
					</linearGradient>
					<path class="st2" d="M99.6,87.7L99.6,87.7L99.6,87.7C99.6,87.6,99.6,87.6,99.6,87.7z"/>
				</g>
			</g>
		</g>
		<path class="st3" d="M157.9,87.5V8.1c0-3.6-2.9-6.6-6.6-6.6h-127c-3.6,0-6.6,2.9-6.6,6.6v79.4H157.9z"/>
		<rect x="22.3" y="6.4" class="st4" width="131.1" height="76.2"/>
	</g>
	<g>
		<polygon class="st5" points="91.9,14.6 81.3,8.2 46.6,8.2 46.6,14.6 46.6,23.2 46.6,73.6 129,73.6 129,14.6 		"/>
		<rect x="51.8" y="18.7" class="st1" width="72" height="28.8"/>
		<polygon class="st6" points="83.8,29.4 94.3,23 129,23 129,29.4 129,38.1 129,74.2 46.6,74.2 46.6,29.4 		"/>
		<rect x="46.6" y="71.4" class="st5" width="82.4" height="3.9"/>
		<rect x="53.4" y="35.4" class="st1" width="28.6" height="2.5"/>
		<rect x="53.4" y="40.2" class="st1" width="13" height="2.5"/>
	</g>
	<g>
		<path class="st7" d="M118.7,59.5c0,0-0.6-2.5-2.4-3.9c-1.9-1.4-0.4-4.6,1.6-3.5c2,1.1,4.9,0.4,4.9,0.4L118.7,59.5z"/>
		<path class="st8" d="M118.6,40.5c2.6,9.1-2.7,18.5-11.7,21.1c-9.1,2.6-18.5-2.7-21.1-11.7c-2.6-9.1,2.7-18.5,11.7-21.1
			C106.5,26.2,116,31.4,118.6,40.5z"/>
		<path class="st7" d="M84.8,50.1c-2.7-9.6,2.8-19.6,12.4-22.3l0,0c9.6-2.7,19.6,2.8,22.3,12.4l0,0c2.7,9.6-2.8,19.6-12.4,22.3l0,0
			C97.5,65.3,87.5,59.7,84.8,50.1L84.8,50.1z M86.8,49.6c2.4,8.5,11.3,13.4,19.8,11l0,0c8.5-2.4,13.4-11.3,11-19.8l0,0
			c-2.4-8.5-11.3-13.4-19.8-11l0,0C89.3,32.2,84.3,41.1,86.8,49.6L86.8,49.6z"/>
		<polygon class="st9" points="125.8,54.2 125.8,54.2 122.8,52.4 118.7,59.5 124.4,62.7 124.4,62.7 146.8,75.7 150.9,68.7 		"/>
	</g>
	<g>
		<g>
			<g>
				<g>
					<g>
						<rect x="109.4" y="34.6" class="st1" width="1.6" height="1.6"/>
					</g>
					<g>
						<path class="st1" d="M111,37.9v1.7h-1.6v-1.7H111z M111,41.3V43h-1.6v-1.7H111z M111,44.6v1.7h-1.6v-1.7H111z M111,48v1.7
							h-1.6V48H111z M111,51.4v1.7h-1.6v-1.7H111z M111,54.8v1.7h-1.6v-1.7H111z M111,58.2v1.7h-1.6v-1.7H111z"/>
					</g>
					<g>
						<rect x="109.4" y="61.5" class="st1" width="1.6" height="1.6"/>
					</g>
					<g>
						<path class="st1" d="M107.7,61.5v1.6h-1.7v-1.6H107.7z M104.4,61.5v1.6h-1.7v-1.6H104.4z M101,61.5v1.6h-1.7v-1.6H101z
							 M97.6,61.5v1.6h-1.7v-1.6H97.6z M94.2,61.5v1.6h-1.7v-1.6H94.2z M90.9,61.5v1.6h-1.7v-1.6H90.9z M87.5,61.5v1.6h-1.7v-1.6
							H87.5z"/>
					</g>
					<g>
						<rect x="82.5" y="61.5" class="st1" width="1.6" height="1.6"/>
					</g>
					<g>
						<path class="st1" d="M84.1,37.9v1.7h-1.6v-1.7H84.1z M84.1,41.3V43h-1.6v-1.7H84.1z M84.1,44.6v1.7h-1.6v-1.7H84.1z M84.1,48
							v1.7h-1.6V48H84.1z M84.1,51.4v1.7h-1.6v-1.7H84.1z M84.1,54.8v1.7h-1.6v-1.7H84.1z M84.1,58.2v1.7h-1.6v-1.7H84.1z"/>
					</g>
					<g>
						<rect x="82.5" y="34.6" class="st1" width="1.6" height="1.6"/>
					</g>
					<g>
						<path class="st1" d="M107.7,34.6v1.6h-1.7v-1.6H107.7z M104.4,34.6v1.6h-1.7v-1.6H104.4z M101,34.6v1.6h-1.7v-1.6H101z
							 M97.6,34.6v1.6h-1.7v-1.6H97.6z M94.2,34.6v1.6h-1.7v-1.6H94.2z M90.9,34.6v1.6h-1.7v-1.6H90.9z M87.5,34.6v1.6h-1.7v-1.6
							H87.5z"/>
					</g>
				</g>
			</g>
			<rect x="90.3" y="42.3" class="st3" width="13.2" height="13.2"/>
		</g>
		<g>
			<g>
				<polygon class="st5" points="94,45.2 92.3,46.9 99.2,53.9 115.4,37.6 113.7,35.9 99.2,50.4 				"/>
			</g>
		</g>
	</g>
</g>
</svg>
