<?xml version="1.0" encoding="utf-8"?>
<!-- Generator: Adobe Illustrator 23.1.0, SVG Export Plug-In . SVG Version: 6.00 Build 0)  -->
<svg version="1.1" id="Capa_1" xmlns="http://www.w3.org/2000/svg" xmlns:xlink="http://www.w3.org/1999/xlink" x="0px" y="0px"
	 viewBox="0 0 177.2 175.1" style="enable-background:new 0 0 177.2 175.1;" xml:space="preserve">
<style type="text/css">
	.st0{opacity:0.66;}
	.st1{fill:#FFFFFF;}
	.st2{opacity:0.84;}
	.st3{opacity:0.81;}
	.st4{opacity:0.66;fill:#FFFFFF;}
	.st5{fill:#3E479B;}
	.st6{fill:#6D6CD4;}
	.st7{opacity:0.12;fill:#FFFFFF;}
	.st8{fill:#F28393;}
	.st9{fill:#C5D9FF;}
	.st10{fill:#599AF2;}
	.st11{opacity:0.35;}
	.st12{fill:#ECF1F7;}
	.st13{opacity:0.36;fill:#4C65BA;}
	.st14{opacity:0.47;fill:#FFFFFF;}
	.st15{opacity:0.39;fill:#F7A9B4;}
</style>
<g>
	<g>
		<g class="st0">
			<g>
				<g>
					<path class="st1" d="M146.2,74.4h-3.6c-1.5,0-2.8-1.2-2.8-2.8v-4.1c0-0.8-0.5-1.5-1.2-1.7c-0.4-0.2-0.9-0.3-1.3-0.5
						c-0.7-0.3-1.5-0.2-2.1,0.4l-2.9,2.9c-0.5,0.5-1.2,0.8-2,0.8c-0.7,0-1.4-0.3-2-0.8l-2.6-2.6c-1.1-1.1-1.1-2.8,0-3.9l2.9-2.9
						c0.5-0.5,0.7-1.4,0.4-2.1c-0.2-0.4-0.4-0.8-0.5-1.3c-0.3-0.7-1-1.2-1.7-1.2h-4.1c-1.5,0-2.8-1.2-2.8-2.8v-3.6
						c0-1.5,1.2-2.8,2.8-2.8h4.1c0.8,0,1.5-0.5,1.7-1.2c0.2-0.4,0.3-0.9,0.5-1.3c0.3-0.7,0.2-1.5-0.4-2.1l-2.9-2.9
						c-1.1-1.1-1.1-2.8,0-3.9l2.6-2.6c1.1-1.1,2.8-1.1,3.9,0l2.9,2.9c0.5,0.5,1.4,0.7,2.1,0.4c0.4-0.2,0.8-0.4,1.3-0.5
						c0.7-0.3,1.2-1,1.2-1.7v-4.1c0-1.5,1.2-2.8,2.8-2.8h3.6c1.5,0,2.8,1.2,2.8,2.8v4.1c0,0.8,0.5,1.5,1.2,1.7
						c0.4,0.2,0.9,0.3,1.3,0.5c0.7,0.3,1.5,0.2,2.1-0.4l2.9-2.9c1.1-1.1,2.8-1.1,3.9,0l2.6,2.6c1.1,1.1,1.1,2.8,0,3.9L160,41
						c-0.5,0.5-0.7,1.4-0.4,2.1c0.2,0.4,0.4,0.8,0.5,1.3c0.3,0.7,1,1.2,1.7,1.2h4.1c1.5,0,2.8,1.2,2.8,2.8v3.6
						c0,1.5-1.2,2.8-2.8,2.8h-4.1c-0.8,0-1.5,0.5-1.7,1.2c-0.2,0.4-0.3,0.9-0.5,1.3c-0.3,0.7-0.2,1.5,0.4,2.1l2.9,2.9
						c1.1,1.1,1.1,2.8,0,3.9l-2.6,2.6c-0.5,0.5-1.2,0.8-2,0.8c-0.7,0-1.4-0.3-2-0.8l-2.9-2.9c-0.5-0.5-1.4-0.7-2.1-0.4
						c-0.4,0.2-0.8,0.4-1.3,0.5c-0.7,0.3-1.2,1-1.2,1.7v4.1C149,73.2,147.7,74.4,146.2,74.4z M136.6,64.3c0.4,0,0.8,0.1,1.2,0.3
						c0.4,0.2,0.8,0.3,1.2,0.5c1.1,0.4,1.8,1.4,1.8,2.6v4.1c0,1,0.8,1.8,1.8,1.8h3.6c1,0,1.8-0.8,1.8-1.8v-4.1
						c0-1.2,0.7-2.2,1.8-2.6c0.4-0.1,0.8-0.3,1.2-0.5c1.1-0.5,2.3-0.3,3.1,0.5l2.9,2.9c0.7,0.7,1.9,0.7,2.6,0l2.6-2.6
						c0.7-0.7,0.7-1.9,0-2.6l-2.9-2.9c-0.8-0.8-1-2.1-0.5-3.1c0.2-0.4,0.3-0.8,0.5-1.2c0.4-1.1,1.4-1.8,2.6-1.8h4.1
						c1,0,1.8-0.8,1.8-1.8v-3.6c0-1-0.8-1.8-1.8-1.8h-4.1c-1.2,0-2.2-0.7-2.6-1.8c-0.1-0.4-0.3-0.8-0.5-1.2
						c-0.5-1.1-0.3-2.3,0.5-3.1l2.9-2.9c0.7-0.7,0.7-1.9,0-2.6l-2.6-2.6c-0.7-0.7-1.9-0.7-2.6,0l-2.9,2.9c-0.8,0.8-2.1,1-3.1,0.5
						c-0.4-0.2-0.8-0.3-1.2-0.5c-1.1-0.4-1.8-1.4-1.8-2.6v-4.1c0-1-0.8-1.8-1.8-1.8h-3.6c-1,0-1.8,0.8-1.8,1.8v4.1
						c0,1.2-0.7,2.2-1.8,2.6c-0.4,0.1-0.8,0.3-1.2,0.5c-1.1,0.5-2.3,0.3-3.1-0.5l-2.9-2.9c-0.7-0.7-1.9-0.7-2.6,0l-2.6,2.6
						c-0.7,0.7-0.7,1.9,0,2.6l2.9,2.9c0.8,0.8,1,2.1,0.5,3.1c-0.2,0.4-0.3,0.8-0.5,1.2c-0.4,1.1-1.4,1.8-2.6,1.8h-4.1
						c-1,0-1.8,0.8-1.8,1.8v3.6c0,1,0.8,1.8,1.8,1.8h4.1c1.2,0,2.2,0.7,2.6,1.8c0.1,0.4,0.3,0.8,0.5,1.2c0.5,1.1,0.3,2.3-0.5,3.1
						l-2.9,2.9c-0.7,0.7-0.7,1.9,0,2.6l2.6,2.6c0.7,0.7,1.9,0.7,2.6,0l2.9-2.9C135.2,64.5,135.9,64.3,136.6,64.3z M144.4,62.9
						c-7,0-12.7-5.7-12.7-12.7c0-7,5.7-12.7,12.7-12.7c7,0,12.7,5.7,12.7,12.7C157.2,57.2,151.4,62.9,144.4,62.9z M144.4,38.3
						c-6.5,0-11.8,5.3-11.8,11.8s5.3,11.8,11.8,11.8c6.5,0,11.8-5.3,11.8-11.8S150.9,38.3,144.4,38.3z"/>
				</g>
				<g class="st2">
					<path class="st1" d="M139.5,140.7H135c-1.1,0-2-0.7-2.4-1.7c-0.2-0.5-0.4-0.9-0.6-1.4c-0.5-1-0.3-2.1,0.5-2.9l3.2-3.2
						c1-1,1-2.6,0-3.6l-2.8-2.8c-1-1-2.6-1-3.6,0l-3.2,3.2c-0.8,0.8-1.9,1-2.9,0.5c-0.4-0.2-0.9-0.4-1.4-0.6c-1-0.4-1.7-1.3-1.7-2.4
						v-4.5c0-1.4-1.1-2.5-2.5-2.5h-4c-1.4,0-2.5,1.1-2.5,2.5v4.5c0,1.1-0.7,2-1.7,2.4c-0.5,0.2-0.9,0.4-1.4,0.6
						c-1,0.5-2.1,0.3-2.9-0.5l-3.2-3.2c-1-1-2.6-1-3.6,0l-2.8,2.8c-1,1-1,2.6,0,3.6l3.2,3.2c0.8,0.8,1,1.9,0.5,2.9
						c-0.2,0.4-0.4,0.9-0.6,1.4c-0.4,1-1.3,1.7-2.4,1.7h-4.5c-1.4,0-2.5,1.1-2.5,2.5v4c0,1.4,1.1,2.5,2.5,2.5h4.5
						c1.1,0,2,0.7,2.4,1.7c0.2,0.5,0.4,0.9,0.6,1.4c0.5,1,0.3,2.1-0.5,2.9l-3.2,3.2c-1,1-1,2.6,0,3.6l2.8,2.8c1,1,2.6,1,3.6,0
						l3.2-3.2c0.8-0.8,1.9-1,2.9-0.5c0.4,0.2,0.9,0.4,1.4,0.6c1,0.4,1.7,1.3,1.7,2.4v4.5c0,1.4,1.1,2.5,2.5,2.5h4
						c1.4,0,2.5-1.1,2.5-2.5v-4.5c0-1.1,0.7-2,1.7-2.4c0.5-0.2,0.9-0.4,1.4-0.6c1-0.5,2.1-0.3,2.9,0.5l3.2,3.2c1,1,2.6,1,3.6,0
						l2.8-2.8c1-1,1-2.6,0-3.6l-3.2-3.2c-0.8-0.8-1-1.9-0.5-2.9c0.2-0.4,0.4-0.9,0.6-1.4c0.4-1,1.3-1.7,2.4-1.7h4.5
						c1.4,0,2.5-1.1,2.5-2.5v-4C142,141.9,140.9,140.7,139.5,140.7z M115.6,158.9c-7.5,0-13.6-6.1-13.6-13.6
						c0-7.5,6.1-13.6,13.6-13.6c7.5,0,13.6,6.1,13.6,13.6C129.2,152.8,123.1,158.9,115.6,158.9z"/>
				</g>
				<g>
					<path class="st1" d="M68.7,167.8h-3c-1.3,0-2.4-1.1-2.4-2.4V162c0-0.6-0.4-1.2-1-1.4c-0.4-0.1-0.7-0.3-1.1-0.4
						c-0.6-0.3-1.2-0.1-1.7,0.3l-2.4,2.4c-0.5,0.5-1.1,0.7-1.7,0.7c-0.6,0-1.2-0.2-1.7-0.7l-2.2-2.2c-0.5-0.5-0.7-1.1-0.7-1.7
						c0-0.6,0.2-1.2,0.7-1.7l2.4-2.4c0.4-0.4,0.5-1.1,0.3-1.7c-0.2-0.3-0.3-0.7-0.4-1.1c-0.2-0.6-0.8-1-1.4-1h-3.4
						c-1.3,0-2.4-1.1-2.4-2.4v-3c0-1.3,1.1-2.4,2.4-2.4h3.4c0.6,0,1.2-0.4,1.4-1c0.1-0.4,0.3-0.7,0.4-1.1c0.3-0.6,0.1-1.2-0.3-1.7
						l-2.4-2.4c-0.5-0.5-0.7-1.1-0.7-1.7c0-0.6,0.2-1.2,0.7-1.7l2.2-2.2c0.9-0.9,2.5-0.9,3.4,0l2.4,2.4c0.4,0.4,1.1,0.5,1.7,0.3
						c0.3-0.2,0.7-0.3,1.1-0.4c0.6-0.2,1-0.8,1-1.4v-3.4c0-1.3,1.1-2.4,2.4-2.4h3c1.3,0,2.4,1.1,2.4,2.4v3.4c0,0.6,0.4,1.2,1,1.4
						c0.4,0.1,0.7,0.3,1.1,0.4c0.6,0.3,1.2,0.1,1.7-0.3l2.4-2.4c0.9-0.9,2.5-0.9,3.4,0l2.2,2.2c0.5,0.5,0.7,1.1,0.7,1.7
						c0,0.6-0.2,1.2-0.7,1.7l-2.4,2.4c-0.4,0.4-0.5,1.1-0.3,1.7c0.2,0.3,0.3,0.7,0.4,1.1c0.2,0.6,0.8,1,1.4,1h3.4
						c1.3,0,2.4,1.1,2.4,2.4v3c0,1.3-1.1,2.4-2.4,2.4h-3.4c-0.6,0-1.2,0.4-1.4,1c-0.1,0.4-0.3,0.7-0.4,1.1c-0.3,0.6-0.1,1.2,0.3,1.7
						l2.4,2.4c0.5,0.5,0.7,1.1,0.7,1.7c0,0.6-0.2,1.2-0.7,1.7l-2.2,2.2c-0.5,0.5-1.1,0.7-1.7,0.7s-1.2-0.2-1.7-0.7l-2.4-2.4
						c-0.4-0.4-1.1-0.5-1.7-0.3c-0.4,0.2-0.7,0.3-1.1,0.4c-0.6,0.2-1,0.8-1,1.4v3.4C71.1,166.7,70.1,167.8,68.7,167.8z M60.6,159.1
						c0.3,0,0.7,0.1,1,0.2c0.3,0.2,0.7,0.3,1,0.4c0.9,0.3,1.6,1.2,1.6,2.2v3.4c0,0.8,0.7,1.5,1.5,1.5h3c0.8,0,1.5-0.7,1.5-1.5V162
						c0-1,0.6-1.9,1.6-2.2c0.3-0.1,0.7-0.3,1-0.4c0.9-0.4,2-0.2,2.7,0.5l2.4,2.4c0.6,0.6,1.5,0.6,2.1,0l2.2-2.2
						c0.3-0.3,0.4-0.6,0.4-1s-0.2-0.8-0.4-1l-2.4-2.4c-0.7-0.7-0.9-1.8-0.5-2.7c0.2-0.3,0.3-0.7,0.4-1c0.3-0.9,1.2-1.6,2.2-1.6h3.4
						c0.8,0,1.5-0.7,1.5-1.5v-3c0-0.8-0.7-1.5-1.5-1.5h-3.4c-1,0-1.9-0.6-2.2-1.6c-0.1-0.3-0.3-0.7-0.4-1c-0.4-0.9-0.2-2,0.5-2.7
						l2.4-2.4c0.3-0.3,0.4-0.6,0.4-1s-0.2-0.8-0.4-1l-2.2-2.2c-0.6-0.6-1.5-0.6-2.1,0l-2.4,2.4c-0.7,0.7-1.8,0.9-2.7,0.5
						c-0.3-0.1-0.7-0.3-1-0.4c-0.9-0.3-1.6-1.2-1.6-2.2v-3.4c0-0.8-0.7-1.5-1.5-1.5h-3c-0.8,0-1.5,0.7-1.5,1.5v3.4
						c0,1-0.6,1.9-1.6,2.2c-0.3,0.1-0.7,0.3-1,0.4c-0.9,0.4-2,0.2-2.7-0.5l-2.4-2.4c-0.6-0.6-1.5-0.6-2.1,0l-2.2,2.2
						c-0.3,0.3-0.4,0.6-0.4,1s0.2,0.8,0.4,1l2.4,2.4c0.7,0.7,0.9,1.8,0.5,2.7c-0.2,0.3-0.3,0.7-0.4,1c-0.3,0.9-1.2,1.6-2.2,1.6h-3.4
						c-0.8,0-1.5,0.7-1.5,1.5v3c0,0.8,0.7,1.5,1.5,1.5h3.4c1,0,1.9,0.6,2.2,1.6c0.1,0.3,0.3,0.7,0.4,1c0.4,0.9,0.2,2-0.5,2.7
						l-2.4,2.4c-0.3,0.3-0.4,0.6-0.4,1s0.2,0.8,0.4,1l2.2,2.2c0.6,0.6,1.5,0.6,2.1,0l2.4-2.4C59.4,159.3,60,159.1,60.6,159.1z
						 M67.2,158.1c-5.9,0-10.8-4.8-10.8-10.8c0-5.9,4.8-10.8,10.8-10.8c5.9,0,10.8,4.8,10.8,10.8C78,153.2,73.2,158.1,67.2,158.1z
						 M67.2,137.4c-5.4,0-9.9,4.4-9.9,9.9s4.4,9.9,9.9,9.9s9.9-4.4,9.9-9.9S72.7,137.4,67.2,137.4z"/>
				</g>
			</g>
		</g>
		<g>
			<g class="st3">
				<path class="st1" d="M167.3,117.4h-6.1c-0.3,0-0.5-0.2-0.5-0.5c0-0.3,0.2-0.5,0.5-0.5h6.1c0.3,0,0.5,0.2,0.5,0.5
					C167.7,117.2,167.5,117.4,167.3,117.4z"/>
				<path class="st1" d="M167.3,127.4h-6.1c-0.3,0-0.5-0.2-0.5-0.5c0-0.3,0.2-0.5,0.5-0.5h6.1c0.3,0,0.5,0.2,0.5,0.5
					C167.7,127.2,167.5,127.4,167.3,127.4z"/>
				<g>
					<g>
						<g>
							<path class="st1" d="M171.5,137.5h-36.8c-0.7,0-1.3-0.6-1.3-1.3v-30.8c0-0.7,0.6-1.3,1.3-1.3h36.8c0.7,0,1.3,0.6,1.3,1.3
								v30.8C172.8,136.9,172.2,137.5,171.5,137.5z M134.7,105.1c-0.2,0-0.3,0.1-0.3,0.3v30.8c0,0.2,0.1,0.3,0.3,0.3h36.8
								c0.2,0,0.3-0.1,0.3-0.3v-30.8c0-0.2-0.1-0.3-0.3-0.3H134.7z"/>
							<path class="st4" d="M171.5,137.5h-36.8c-0.7,0-1.3-0.6-1.3-1.3v-30.8c0-0.7,0.6-1.3,1.3-1.3h36.8c0.7,0,1.3,0.6,1.3,1.3
								v30.8C172.8,136.9,172.2,137.5,171.5,137.5z M134.7,105.1c-0.2,0-0.3,0.1-0.3,0.3v30.8c0,0.2,0.1,0.3,0.3,0.3h36.8
								c0.2,0,0.3-0.1,0.3-0.3v-30.8c0-0.2-0.1-0.3-0.3-0.3H134.7z"/>
						</g>
					</g>
					<path class="st1" d="M167.3,112.6h-28.8c-0.3,0-0.5-0.2-0.5-0.5s0.2-0.5,0.5-0.5h28.8c0.3,0,0.5,0.2,0.5,0.5
						S167.5,112.6,167.3,112.6z"/>
					<path class="st1" d="M167.3,122.3h-28.8c-0.3,0-0.5-0.2-0.5-0.5c0-0.3,0.2-0.5,0.5-0.5h28.8c0.3,0,0.5,0.2,0.5,0.5
						C167.7,122.1,167.5,122.3,167.3,122.3z"/>
					<path class="st1" d="M154,117.4h-15.6c-0.3,0-0.5-0.2-0.5-0.5c0-0.3,0.2-0.5,0.5-0.5H154c0.3,0,0.5,0.2,0.5,0.5
						C154.4,117.2,154.2,117.4,154,117.4z"/>
					<path class="st1" d="M154,127.4h-15.6c-0.3,0-0.5-0.2-0.5-0.5c0-0.3,0.2-0.5,0.5-0.5H154c0.3,0,0.5,0.2,0.5,0.5
						C154.4,127.2,154.2,127.4,154,127.4z"/>
					<path class="st1" d="M148.9,132h-10.5c-0.3,0-0.5-0.2-0.5-0.5c0-0.3,0.2-0.5,0.5-0.5h10.5c0.3,0,0.5,0.2,0.5,0.5
						C149.4,131.8,149.2,132,148.9,132z"/>
				</g>
			</g>
			<g class="st3">
				<path class="st1" d="M49.5,66.6h-6.9c-0.3,0-0.5-0.2-0.5-0.5c0-0.3,0.2-0.5,0.5-0.5h6.9c0.3,0,0.5,0.2,0.5,0.5
					C49.9,66.4,49.7,66.6,49.5,66.6z"/>
				<path class="st1" d="M49.5,78h-6.9c-0.3,0-0.5-0.2-0.5-0.5c0-0.3,0.2-0.5,0.5-0.5h6.9c0.3,0,0.5,0.2,0.5,0.5
					C49.9,77.7,49.7,78,49.5,78z"/>
				<g>
					<g>
						<g>
							<path class="st1" d="M54.4,89.4h-42c-0.7,0-1.3-0.6-1.3-1.3V53c0-0.7,0.6-1.3,1.3-1.3h42c0.7,0,1.3,0.6,1.3,1.3v35.1
								C55.7,88.8,55.1,89.4,54.4,89.4z M12.5,52.7c-0.2,0-0.3,0.1-0.3,0.3v35.1c0,0.2,0.1,0.3,0.3,0.3h42c0.2,0,0.3-0.1,0.3-0.3V53
								c0-0.2-0.1-0.3-0.3-0.3H12.5z"/>
							<path class="st4" d="M54.4,89.4h-42c-0.7,0-1.3-0.6-1.3-1.3V53c0-0.7,0.6-1.3,1.3-1.3h42c0.7,0,1.3,0.6,1.3,1.3v35.1
								C55.7,88.8,55.1,89.4,54.4,89.4z M12.5,52.7c-0.2,0-0.3,0.1-0.3,0.3v35.1c0,0.2,0.1,0.3,0.3,0.3h42c0.2,0,0.3-0.1,0.3-0.3V53
								c0-0.2-0.1-0.3-0.3-0.3H12.5z"/>
						</g>
					</g>
					<path class="st1" d="M49.5,61.1H16.7c-0.3,0-0.5-0.2-0.5-0.5c0-0.3,0.2-0.5,0.5-0.5h32.7c0.3,0,0.5,0.2,0.5,0.5
						C49.9,60.9,49.7,61.1,49.5,61.1z"/>
					<path class="st1" d="M49.5,72.1H16.7c-0.3,0-0.5-0.2-0.5-0.5c0-0.3,0.2-0.5,0.5-0.5h32.7c0.3,0,0.5,0.2,0.5,0.5
						C49.9,71.9,49.7,72.1,49.5,72.1z"/>
					<path class="st1" d="M34.4,66.6H16.7c-0.3,0-0.5-0.2-0.5-0.5c0-0.3,0.2-0.5,0.5-0.5h17.6c0.3,0,0.5,0.2,0.5,0.5
						C34.9,66.4,34.6,66.6,34.4,66.6z"/>
					<path class="st1" d="M34.4,78H16.7c-0.3,0-0.5-0.2-0.5-0.5c0-0.3,0.2-0.5,0.5-0.5h17.6c0.3,0,0.5,0.2,0.5,0.5
						C34.9,77.7,34.6,78,34.4,78z"/>
					<path class="st1" d="M28.6,83.2H16.7c-0.3,0-0.5-0.2-0.5-0.5c0-0.3,0.2-0.5,0.5-0.5h11.9c0.3,0,0.5,0.2,0.5,0.5
						C29.1,83,28.9,83.2,28.6,83.2z"/>
				</g>
			</g>
		</g>
	</g>
	<g>
		<g>
			<g>
				<path class="st5" d="M170.4,51.1h-3.7H152h-2.5c-0.9,0-1.8,0.7-2.1,1.7l-0.7,2.3c-0.3,1-1.1,1.7-2.1,1.7h-29.9
					c-1.2,0-2.2,1.1-2.2,2.5l0,0v33.8c0,1.4,1,2.5,2.2,2.5h0.1h51.8h3.7c1.3,0,2.3-1.1,2.3-2.5V62v-5.2v-3.2
					C172.7,52.2,171.7,51.1,170.4,51.1z"/>
				<path class="st6" d="M149.1,57.1l0.7-2.3c0.3-1,1.2-1.7,2.2-1.7h18.4c1.3,0,2.3,1.1,2.3,2.5v3.2V64v31.1c0,1.4-1,2.5-2.3,2.5
					H115c-1.3,0-2.3-1.1-2.3-2.5V61.3c0-1.4,1-2.5,2.3-2.5h31.9C147.9,58.8,148.8,58.1,149.1,57.1z"/>
				<path class="st7" d="M150.4,59.4l0.7-2.2c0.3-1,1.1-1.6,2.1-1.6h17.3c1.2,0,2.2,1.1,2.2,2.4v3V66v29.4c0,1.3-1,2.4-2.2,2.4
					h-52.3c-1.2,0-2.2-1.1-2.2-2.4V63.4c0-1.3,1-2.4,2.2-2.4h30.1C149.3,61,150.1,60.4,150.4,59.4z"/>
			</g>
			<path class="st1" d="M166.4,94.8h-13.7c-0.3,0-0.5-0.2-0.5-0.5c0-0.3,0.2-0.5,0.5-0.5h13.7c0.9,0,1.6-0.7,1.6-1.6V81.4
				c0-0.3,0.2-0.5,0.5-0.5s0.5,0.2,0.5,0.5v10.9C168.9,93.7,167.8,94.8,166.4,94.8z"/>
		</g>
		<g>
			<g>
				<g>
					<path class="st8" d="M6.7,89.5h3.7h14.8h2.5c0.9,0,1.8,0.8,2.1,1.9l0.7,2.6c0.3,1.1,1.1,1.9,2.1,1.9h30.1
						c1.2,0,2.2,1.3,2.2,2.8v0v38.1c0,1.6-1,2.8-2.2,2.8h-0.1H10.4H6.7c-1.3,0-2.4-1.3-2.4-2.8v-35v-5.9v-3.6
						C4.3,90.8,5.4,89.5,6.7,89.5z"/>
					<path class="st7" d="M28.1,96.3l-0.7-2.6c-0.3-1.1-1.2-1.9-2.2-1.9H6.7c-1.3,0-2.4,1.3-2.4,2.8v3.6v5.9v35
						c0,1.6,1.1,2.8,2.4,2.8h55.8c1.3,0,2.4-1.3,2.4-2.8v-38.1c0-1.6-1.1-2.8-2.4-2.8H30.4C29.4,98.2,28.5,97.5,28.1,96.3z"/>
					<path class="st7" d="M26.8,99l-0.7-2.4c-0.3-1.1-1.2-1.8-2.1-1.8H6.5c-1.2,0-2.2,1.2-2.2,2.7v3.4v5.5v33c0,1.5,1,2.7,2.2,2.7
						h52.6c1.2,0,2.2-1.2,2.2-2.7v-35.9c0-1.5-1-2.7-2.2-2.7H28.9C27.9,100.8,27.1,100,26.8,99z"/>
				</g>
			</g>
			<path class="st1" d="M8.6,105.9c-0.2,0-0.4-0.2-0.4-0.5V99c0-0.9,0.6-1.6,1.4-1.6h8.7c0.2,0,0.4,0.2,0.4,0.5
				c0,0.3-0.2,0.5-0.4,0.5H9.6C9.3,98.3,9,98.6,9,99v6.4C9,105.7,8.8,105.9,8.6,105.9z"/>
		</g>
	</g>
	<g>
		<g>
			<g>
				<g>
					<path class="st9" d="M121.1,69.6H61.4c-9.9,0-17.9-8-17.9-17.9v0c0-9.9,8-17.9,17.9-17.9h59.7c9.9,0,17.9,8,17.9,17.9v0
						C139,61.5,131,69.6,121.1,69.6z"/>
					<circle class="st10" cx="91.2" cy="36.4" r="25.2"/>
				</g>
			</g>
			<g>
				<path class="st10" d="M121.1,64.3H61.4c-9.9,0-17.9-8-17.9-17.9v0c0-9.9,8-17.9,17.9-17.9h59.7c9.9,0,17.9,8,17.9,17.9v0
					C139,56.2,131,64.3,121.1,64.3z"/>
				
					<ellipse transform="matrix(0.9184 -0.3957 0.3957 0.9184 -4.8729 38.6432)" class="st10" cx="91.2" cy="31.1" rx="25.2" ry="25.2"/>
			</g>
			<g class="st11">
				<g>
					<path class="st12" d="M121.1,64.3H61.4c-9.9,0-17.9-8-17.9-17.9v0c0-9.9,8-17.9,17.9-17.9h59.7c9.9,0,17.9,8,17.9,17.9v0
						C139,56.2,131,64.3,121.1,64.3z"/>
					
						<ellipse transform="matrix(0.9184 -0.3957 0.3957 0.9184 -4.8729 38.6432)" class="st12" cx="91.2" cy="31.1" rx="25.2" ry="25.2"/>
				</g>
			</g>
			<g>
				<g>
					<path class="st1" d="M85.3,34.9c-0.3,0-0.6-0.1-0.8-0.3c-0.4-0.5-0.4-1.2,0-1.6l6.8-6.7l6.7,6.7c0.5,0.5,0.5,1.2,0,1.6
						c-0.5,0.5-1.2,0.5-1.6,0l-5-5l-5.1,5C85.9,34.8,85.6,34.9,85.3,34.9z"/>
					<path class="st1" d="M91.2,44.1c-0.6,0-1.2-0.5-1.2-1.2V27.9c0-0.6,0.5-1.2,1.2-1.2c0.6,0,1.2,0.5,1.2,1.2V43
						C92.4,43.6,91.9,44.1,91.2,44.1z"/>
				</g>
				<path class="st1" d="M102.2,51.3H80.1c-1.6,0-2.9-1.3-2.9-2.9v-8c0-0.6,0.5-1.2,1.2-1.2c0.6,0,1.2,0.5,1.2,1.2v8
					c0,0.3,0.2,0.6,0.6,0.6h22.1c0.4,0,0.7-0.3,0.7-0.7v-7.9c0-0.6,0.5-1.2,1.2-1.2c0.6,0,1.2,0.5,1.2,1.2v7.9
					C105.3,49.9,103.9,51.3,102.2,51.3z"/>
			</g>
		</g>
		<g>
			<path class="st13" d="M126.3,128.1L63,149c-1.5,0.5-3.2-0.3-3.7-1.9L38.4,83.8c-0.5-1.5,0.3-3.2,1.9-3.7l63.3-20.9
				c1.5-0.5,3.2,0.3,3.7,1.9l20.9,63.3C128.7,125.9,127.9,127.6,126.3,128.1z"/>
			<path class="st1" d="M118.5,126.8l-56.8,18.8c-3.3,1.1-6.9-0.7-8-4L34.8,84.7c-1.1-3.3,0.7-6.9,4-8l56.8-18.8
				c3.3-1.1,6.9,0.7,8,4l18.8,56.8C123.6,122.1,121.8,125.7,118.5,126.8z"/>
			<g>
				
					<rect x="48.5" y="71.7" transform="matrix(0.9495 -0.3137 0.3137 0.9495 -27.961 29.8009)" class="st9" width="60.2" height="60.2"/>
				<path class="st14" d="M59,140.3l-4.3-12.9l6.3-15.1c0.9-2.1,3.1-3.2,5.3-2.5l11.6,3.6c0.7,0.2,1.4-0.1,1.8-0.7l9.6-16
					c2-3.4,6.3-4.8,10-3.2l10.6,4.6l0.1,0.3l7.5,22.7l-0.7,0.2L59,140.3z M56.2,127.4l3.7,11.1l55.9-18.5l-7-21l-10-4.3
					c-3-1.3-6.6-0.2-8.3,2.7l-9.6,16c-0.7,1.2-2.1,1.7-3.4,1.3l-11.6-3.6c-1.5-0.5-3,0.3-3.6,1.7L56.2,127.4z"/>
				<path class="st14" d="M78.1,95.7c-3.1,0-6-2-7-5.1c-1.3-3.9,0.8-8.1,4.7-9.4c3.9-1.3,8.1,0.8,9.4,4.7c1.3,3.9-0.8,8.1-4.7,9.4
					C79.6,95.6,78.8,95.7,78.1,95.7z M78.1,82.3c-0.6,0-1.3,0.1-1.9,0.3c-3.2,1-4.9,4.5-3.8,7.6c1,3.2,4.5,4.9,7.6,3.8
					c3.2-1,4.9-4.5,3.8-7.6C82.9,83.9,80.6,82.3,78.1,82.3z"/>
			</g>
		</g>
		<g>
			<path class="st13" d="M142,139.5H99.4c-3.5,0-6.4-2.8-6.4-6.4V90.5c0-3.5,2.8-6.4,6.4-6.4H142c3.5,0,6.4,2.8,6.4,6.4v42.6
				C148.4,136.7,145.5,139.5,142,139.5z"/>
			<path class="st1" d="M139.2,136.7H96.6c-3.5,0-6.4-2.8-6.4-6.4V87.7c0-3.5,2.8-6.4,6.4-6.4h42.6c3.5,0,6.4,2.8,6.4,6.4v42.6
				C145.5,133.9,142.7,136.7,139.2,136.7z"/>
			<g>
				<rect x="94.9" y="86.1" class="st15" width="45.9" height="45.9"/>
				<path class="st14" d="M141.6,132.4H94.3v-10.6l8.2-9.5c1.2-1.4,3.2-1.6,4.7-0.6l7.5,5.4c0.4,0.3,0.9,0.2,1.3-0.1l10.8-9.3
					c2.4-2,5.9-2,8.2,0.1l6.6,5.9V132.4z M95.7,131h44.5v-16.7l-6.2-5.5c-1.8-1.6-4.6-1.6-6.4,0l-10.8,9.3c-0.8,0.7-2.1,0.8-3,0.1
					l-7.5-5.4c-0.9-0.6-2.1-0.5-2.8,0.3l-7.8,9.1V131z"/>
				<path class="st14" d="M120.7,105c-3.2,0-5.8-2.6-5.8-5.8c0-3.2,2.6-5.8,5.8-5.8c3.2,0,5.8,2.6,5.8,5.8
					C126.5,102.4,123.9,105,120.7,105z M120.7,94.7c-2.4,0-4.4,2-4.4,4.4s2,4.4,4.4,4.4s4.4-2,4.4-4.4S123.1,94.7,120.7,94.7z"/>
			</g>
		</g>
		<g>
			<path class="st13" d="M106.9,145.4l-21.6,8.1c-3.3,1.2-7-0.4-8.2-3.7l-8.1-21.6c-1.2-3.3,0.4-7,3.7-8.2l21.6-8.1
				c3.3-1.2,7,0.4,8.2,3.7l8.1,21.6C111.9,140.5,110.2,144.2,106.9,145.4z"/>
			<path class="st1" d="M104.6,144.4L83,152.5c-3.3,1.2-7-0.4-8.2-3.7l-8.1-21.6c-1.2-3.3,0.4-7,3.7-8.2l21.6-8.1
				c3.3-1.2,7,0.4,8.2,3.7l8.1,21.6C109.6,139.5,107.9,143.1,104.6,144.4z"/>
			<g>
				
					<rect x="72.7" y="116.9" transform="matrix(0.9364 -0.3509 0.3509 0.9364 -40.6413 39.0827)" class="st10" width="29.7" height="29.7"/>
				<path class="st14" d="M78.4,151.5l-2.5-6.7l2.8-7.7c0.4-1.2,1.7-1.9,3-1.5l5.8,1.5c0.2,0,0.4,0,0.5-0.2l4.4-8.1
					c1-1.9,3.3-2.7,5.3-1.9l5.5,2.1l4.4,11.6L78.4,151.5z M77.4,144.7l1.9,5l26.5-9.9L102,130l-4.9-1.9c-1.3-0.5-2.9,0-3.6,1.3
					l-4.4,8.1c-0.4,0.7-1.2,1.1-2,0.9l-5.8-1.5c-0.6-0.2-1.1,0.1-1.3,0.7L77.4,144.7z"/>
				<path class="st14" d="M87,129.1c-1.6,0-3.2-1-3.8-2.6c-0.8-2.1,0.3-4.4,2.3-5.2c2.1-0.8,4.4,0.3,5.2,2.3l0,0
					c0.8,2.1-0.3,4.4-2.3,5.2C87.9,129,87.5,129.1,87,129.1z M87,122.5c-0.3,0-0.6,0.1-0.9,0.2c-1.3,0.5-2,2-1.5,3.4
					c0.5,1.3,2,2,3.4,1.5c1.3-0.5,2-2,1.5-3.4C89,123.1,88.1,122.5,87,122.5z"/>
			</g>
		</g>
	</g>
</g>
</svg>
