<svg xmlns="http://www.w3.org/2000/svg" width="60" height="60" viewBox="0 0 60 60">
  <metadata><?xpacket begin="﻿" id="W5M0MpCehiHzreSzNTczkc9d"?>
<x:xmpmeta xmlns:x="adobe:ns:meta/" x:xmptk="Adobe XMP Core 5.6-c140 79.160451, 2017/05/06-01:08:21        ">
   <rdf:RDF xmlns:rdf="http://www.w3.org/1999/02/22-rdf-syntax-ns#">
      <rdf:Description rdf:about=""/>
   </rdf:RDF>
</x:xmpmeta>
                                                                                                    
                                                                                                    
                                                                                                    
                                                                                                    
                                                                                                    
                                                                                                    
                                                                                                    
                                                                                                    
                                                                                                    
                                                                                                    
                                                                                                    
                                                                                                    
                                                                                                    
                                                                                                    
                                                                                                    
                                                                                                    
                                                                                                    
                                                                                                    
                                                                                                    
                                                                                                    
                           
<?xpacket end="w"?></metadata>
<defs>
    <style>
      .cls-1 {
        fill: #898989;
        fill-rule: evenodd;
      }
    </style>
  </defs>
  <path id="ic_search" class="cls-1" d="M0.01,24.263A23.4,23.4,0,0,0,7.133,41.429,23.4,23.4,0,0,0,24.3,48.554a23.973,23.973,0,0,0,15.3-5.372l16,16A2.278,2.278,0,0,0,57.407,60a2.592,2.592,0,0,0,2.629-2.627,2.274,2.274,0,0,0-.817-1.811l-16-16a23.979,23.979,0,0,0,5.372-15.3A23.4,23.4,0,0,0,41.467,7.1,23.4,23.4,0,0,0,24.3-.028,23.411,23.411,0,0,0,7.133,7.1,23.41,23.41,0,0,0,.01,24.263Zm3.737,0A19.816,19.816,0,0,1,9.762,9.723,19.81,19.81,0,0,1,24.3,3.71,19.8,19.8,0,0,1,38.84,9.723a19.809,19.809,0,0,1,6.015,14.539A19.8,19.8,0,0,1,38.84,38.8,19.8,19.8,0,0,1,24.3,44.817,19.806,19.806,0,0,1,9.762,38.8,19.812,19.812,0,0,1,3.746,24.263Z"/>
</svg>
