<?xml version="1.0" encoding="utf-8"?>
<!-- Generator: Adobe Illustrator 23.1.0, SVG Export Plug-In . SVG Version: 6.00 Build 0)  -->
<svg version="1.1" id="Capa_1" xmlns="http://www.w3.org/2000/svg" xmlns:xlink="http://www.w3.org/1999/xlink" x="0px" y="0px"
	 viewBox="0 0 800 351" style="enable-background:new 0 0 800 351;" xml:space="preserve">
<style type="text/css">
	.st0{fill:#FFFFFF;}
</style>
<g>
	<path class="st0" d="M209.3,247.1c-12.8-7.8-22.7-18-29.6-31c-6.9-13-10.3-27.5-10.3-43c0-15.7,3.4-30.2,10.3-43.4
		c6.9-13.2,16.6-23.7,29.6-31.5c12.8-7.8,27.9-11.5,45.3-11.5s32.5,3.8,45.3,11.5s22.7,18.3,29.6,31.5c6.9,13.2,10.3,27.7,10.3,43.4
		s-3.4,30-10.3,43c-6.9,13-16.8,23.5-29.6,31c-12.8,7.8-27.9,11.5-45.3,11.5C237.2,258.7,222.1,254.7,209.3,247.1z M286.3,210.6
		c7.6-9.4,11.3-22,11.3-37.8c0-15.9-3.8-28.7-11.3-38.2c-7.6-9.7-18.3-14.5-31.7-14.5c-13.4,0-24.1,4.8-31.7,14.5
		c-7.6,9.7-11.3,22.4-11.3,38.2s3.8,28.3,11.3,37.8c7.6,9.4,18.3,14.3,31.7,14.3C268.1,224.9,278.8,220.1,286.3,210.6z"/>
	<path class="st0" d="M399,246.9c-13.6-7.8-23.7-18.3-30.4-31.5c-6.7-13.2-10.1-27.7-10.1-43.8c0-15.5,3.1-29.6,9.7-42.4
		c6.5-12.8,15.7-23.1,27.9-30.6c12.2-7.6,26.6-11.3,43.4-11.3c15.5,0,28.5,3.1,39.2,9.7c10.7,6.5,18.9,15.1,24.1,25.8
		c5.5,10.9,8.2,23.1,8.2,36.5c0,6.7-0.8,14.1-2.7,22.4h-107c2.3,14.5,8,25.4,17.2,32.7c9.2,7.1,20.4,10.7,33.6,10.7
		c17.8,0,34.4-4.6,49.7-13.6l1.9,34.8c-7.1,3.8-15.3,6.7-24.8,9c-9.4,2.3-19.5,3.6-30.6,3.6C429,258.7,412.6,254.7,399,246.9z
		 M469.1,153.6c0-8.6-2.5-16.2-7.3-22.9c-4.8-6.7-12.4-9.9-22.4-9.9c-10.1,0-18.3,2.9-24.5,9c-6.1,5.9-10.5,13.8-12.6,23.9h66.9
		V153.6z"/>
	<path class="st0" d="M549.6,246.5c-7.1-8-10.7-18.5-10.7-31.3V6.7h41.1v191.5c0,8.8,0.4,15.1,1.5,18.7c1,3.6,2.7,5.9,5.2,6.7
		c2.5,0.8,6.9,1.3,13,1.3l-3.6,33.8h-14.9C567.3,258.7,556.8,254.7,549.6,246.5z"/>
	<path class="st0" d="M137.4,122.9c-5.7-11.1-14.1-19.9-24.8-26.4c-10.7-6.5-23.5-9.7-38.2-9.7S47,90,36.3,96.5
		c-10.7,6.5-19.1,15.3-24.8,26.4c-5.7,11.1-8.6,23.3-8.6,36.5c0,13.2,2.9,25.2,8.6,36.3l0,0c1,1.9,1.3,4,0.4,6.1l-4,12.4
		c-1.3,3.8,1,8,5,8.6l4,0.8c8,1.7,15.3,2.3,22.4,2.3l0,0c2.9,0,6.1,0.4,9,1.5c7.8,2.7,16.4,4,26,4c14.7,0,27.5-3.1,38.2-9.7
		c10.7-6.5,19.1-15.3,24.8-26.2c5.7-10.9,8.6-23.1,8.6-36.3C146,146.2,143.3,134,137.4,122.9z M99,187.8
		c-5.7,6.9-13.8,10.5-24.3,10.5c-10.7,0-18.9-3.6-24.8-10.5c-5.7-6.9-8.6-16.6-8.6-28.7c0-12.2,2.9-21.8,8.6-28.7
		c5.7-6.9,13.8-10.5,24.8-10.5c10.5,0,18.7,3.6,24.3,10.5c5.7,6.9,8.6,16.6,8.6,28.7C107.6,171.2,104.7,180.8,99,187.8z"/>
	<path class="st0" d="M132.8,324.3c-33.8,15.5-70.3,22-110.6,17.4C14,340.9,6.5,335.7,5,325.4l-0.2-1.7c-1.5-10.3,4-22.4,11.7-20.6
		c37.1,9.2,74.1,4.2,110.8-15.9c6.9-3.8,15.5,6.1,17.2,15.9c0,0.2,0,0.2,0,0.4C146,313.6,140.1,320.8,132.8,324.3z"/>
	<path class="st0" d="M133,270.2C99.8,286.8,63.5,294.5,23,291.4c-8.2-0.6-15.9-5.5-17.8-15.7L4.8,274c-1.9-10.1,3.1-22.7,11.1-21
		c37.3,8,74.1,1.7,110.1-19.7c6.9-4.2,15.7,5.5,17.6,15.5c0,0.2,0,0.2,0,0.4C145.8,259.1,140.3,266.4,133,270.2z"/>
	<circle class="st0" cx="142.4" cy="74.5" r="17.8"/>
	<path class="st0" d="M643.6,238.1c-15.3-13.4-22.9-31.9-22.9-55.4V87.3h40.1v87.5c0,11.7,1.3,21.4,4,29.2
		c2.7,7.8,7.8,13.8,15.1,18.3c7.3,4.4,14.3,6.5,27.7,6.5c13.6,0,20.4-2.1,27.7-6.5c7.3-4.4,12.4-10.3,15.1-18.3
		c2.7-7.8,4-17.6,4-29.2V87.3h40.1v95.5c0,23.5-7.6,42.2-22.9,55.4c-15.3,13.4-34.2,20.1-64.2,20.1
		C677.8,258.2,658.7,251.5,643.6,238.1z"/>
</g>
</svg>
