<?xml version="1.0" encoding="utf-8"?>
<!-- Generator: Adobe Illustrator 23.1.0, SVG Export Plug-In . SVG Version: 6.00 Build 0)  -->
<svg version="1.1" id="Capa_1" xmlns="http://www.w3.org/2000/svg" xmlns:xlink="http://www.w3.org/1999/xlink" x="0px" y="0px"
	 viewBox="0 0 236.7 238.9" style="enable-background:new 0 0 236.7 238.9;" xml:space="preserve">
<style type="text/css">
	.st0{fill:#A8CFEF;}
	.st1{fill:#F0F3FC;}
	.st2{fill:#ADCDEA;}
	.st3{fill:#E6E9F8;}
	.st4{opacity:7.000000e-02;fill:#393768;enable-background:new    ;}
	.st5{fill:#97B7CE;}
	.st6{opacity:0.1;enable-background:new    ;}
	.st7{fill:#DAE9F8;}
	.st8{fill:#F2F2F2;}
	.st9{fill:#A8D7E2;}
	.st10{fill:#25A7DF;}
	.st11{fill:#FFFFFF;}
	.st12{fill:#08667F;}
	.st13{fill:#EDB6A4;}
	.st14{fill:#E6E6E6;}
	.st15{fill:#117FA5;}
	.st16{fill:#E0A494;}
	.st17{fill:#393768;}
	.st18{fill:#3D3D3D;}
	.st19{fill:#8DAFC4;}
	.st20{fill:#ADADEA;}
	.st21{fill:#8688EA;}
</style>
<title>1</title>
<g>
	<g>
		<g id="Capa_1-2">
			<rect y="133.8" class="st0" width="89" height="71"/>
			<g id="Bg">
				<path class="st1" d="M142.9,218.6c10.6-15.6,19.2-16.4,35.2-29.5s12-35.5,20.8-51.9s23.9-17.2,28.2-31.7s-22.7-19.3-10.9-55.4
					S192.4-5.3,159,18.5s-40.2,42.4-65.8,39.9s-60.1,52.9-44.1,78.9s-8.8,101,62.1,94.2C140.8,226.1,142.9,218.6,142.9,218.6z"/>
				<path class="st2" d="M93.2,229.1c-0.3,0.1-0.6,0.2-1,0.3c-0.9,0.3-1.9,0.5-2.9,0.6c-1.3-0.3-2.5-0.8-3.6-1.4
					c-4.4-2.6-11.4-10-10.2-29.6c0.8-13.4,1.8-13.9-5.2-22.6c-0.3-0.3-0.6-0.7-0.9-1.1c-8-9.8,2.7-23.3-3.8-37.3s10.6-18.8,10.8-2.8
					s21.8,20.4,16.6,39.3s1.5,16.4,7.6,30.9C105.9,217.9,101.3,226.3,93.2,229.1z"/>
				<path class="st3" d="M92.3,229.5c-0.2-0.7-21.8-73.3-22.6-97.2h1c0.8,23.8,22.3,96.3,22.5,97L92.3,229.5z"/>
				<path class="st3" d="M94.6,227.4c-1,1.5-3.6,0.8-7.3-1.4c-11.7-7.3-34.4-30.5-51.2-48.2c-11.3-11.9-20-21.4-20.8-21.8
					c9.2,2.7,18.2,6.2,26.8,10.6c15.2,7.7,33.3,19.8,44,37.6C90.4,211.2,93.3,219.1,94.6,227.4z"/>
				<path class="st4" d="M87.3,225.9c-11.7-7.3-34.4-30.5-51.2-48.2c4.3-1.4,13.6,4.6,8.7-2.6c-1.8-2.5-2.7-5.5-2.8-8.6
					c15.2,7.7,33.3,19.8,44,37.6C87.4,214,89.4,222.5,87.3,225.9z"/>
				<path class="st4" d="M90.4,222.9c0,1.2-0.4,2.3-1,3.3l-0.6,0.9l-0.2-0.1c-0.9,0.6-1.8,1.1-2.8,1.6c-4.5-2.6-11.5-10-10.3-29.6
					c0.8-13.4,1.8-13.9-5.2-22.6c2.4-0.5,4.8-1.2,7.1-2.1l1-0.3c6.7-2.2,12.6-3.4,10.1,8.4c-2.8,13,1.2,27.7,1.9,36.7
					C90.5,220.4,90.5,221.6,90.4,222.9z"/>
				<path class="st5" d="M89.5,228.8c5.8-3.9-4.2-26.1-0.2-44.6s-13.2-4.9-20.9-5.9S60.1,158,53,158.6s-10.8,9.8-5,18.2
					s-7.7-1-10.3,3.9s18.2,19.7,12.5,23s-19.2,1.4-4.3,14.5S77.1,237.2,89.5,228.8z"/>
				<path class="st3" d="M78.5,194.6l-1.5,0.3c1.5,7.8-1.8,17.2-2.9,20.2c-4.6-4.1-8.7-8.7-10.3-12.7c-1.6-4.3-2.7-8.7-3.5-13.2
					c-0.5-2.2-0.9-4.4-1.5-6.6c0.9-1.4,3.5-5.7,2.4-7.6l-1.3,0.7c0.4,0.7-0.5,2.8-1.6,4.8c-1.2-4.7-3.2-9.1-6-13.1l-1.2,0.9
					c4.7,6.5,6.2,14,7.7,21.3c0.1,0.3,0.2,0.7,0.2,1c-1,0.6-3.9,1.8-7.5-1.1l-1,1.2c3.9,3.1,7.2,2.2,8.8,1.4c0.7,3.7,1.8,7.4,3.1,11
					c0.9,2.1,2.1,4.1,3.6,5.9c-1.9,1.5-8.3,6.1-14.7,3.9l-0.5,1.4c6,2.1,11.9-1.1,14.8-3.1c0.6-0.4,1-0.7,1.3-1
					c7.9,9.3,22,18.4,22.7,18.9l0.8-1.3c-5.3-3.5-10.4-7.3-15.2-11.5C76.2,213.7,80.1,203.4,78.5,194.6z"/>
				<ellipse class="st6" cx="151.1" cy="232.5" rx="80.4" ry="6.4"/>
			</g>
			<path class="st7" d="M105.7,64.5h32.1c13.5,0,24.4,10.9,24.4,24.4v115.5c0,13.5-10.9,24.4-24.4,24.4h-32.1
				c-13.5,0-24.4-10.9-24.4-24.4V88.9C81.3,75.4,92.2,64.5,105.7,64.5z"/>
			<path class="st8" d="M159,79v140.5c0,2.9-1.1,5.7-3,7.8l0,0c-2.3,2.6-5.5,4-8.9,4H90c-6.6,0-11.9-5.3-11.9-11.9l0,0V79
				c0-4.3,2.4-8.3,6.2-10.4h0.1c1.7-1,3.7-1.5,5.7-1.5h57.1C153.7,67.1,159,72.4,159,79L159,79z"/>
			<path class="st9" d="M89.3,83.8h58.4c3.2,0,5.8,2.6,5.8,5.8v115.2c0,3.2-2.6,5.8-5.8,5.8H89.3c-3.2,0-5.8-2.6-5.8-5.8V89.7
				C83.5,86.5,86.1,83.8,89.3,83.8z"/>
			<circle class="st10" cx="118.5" cy="220.7" r="6.4"/>
			<path class="st10" d="M108.2,75.7c0,1.1-0.9,2.1-2,2.1s-2.1-0.9-2.1-2s0.9-2.1,2-2.1l0,0C107.2,73.7,108.2,74.6,108.2,75.7z"/>
			<path class="st10" d="M124.6,77h-12.2c-0.7,0-1.3-0.6-1.3-1.3l0,0c0-0.7,0.6-1.3,1.3-1.3h12.2c0.7,0,1.3,0.6,1.3,1.3l0,0
				C125.9,76.4,125.3,77,124.6,77L124.6,77z"/>
			<circle class="st11" cx="103.3" cy="112" r="16.3"/>
			<path class="st8" d="M133.4,110.4h9.6c2.9,0,5.3,2.4,5.3,5.3l0,0c0,2.9-2.4,5.3-5.3,5.3h-9.6c-2.9,0-5.3-2.4-5.3-5.3l0,0
				C128.1,112.8,130.5,110.4,133.4,110.4z"/>
			<circle class="st8" cx="138.9" cy="184.1" r="7.9"/>
			<path class="st8" d="M86.9,183v2.3c0,2.5,2,4.4,4.4,4.4h28.1l6,4c0.2,0.2,0.5,0.1,0.7-0.1c0.1-0.1,0.1-0.3,0.1-0.5l-1.7-3.9
				c1.5-0.8,2.4-2.3,2.4-4V183c0-2.5-2-4.4-4.5-4.4l0,0h-31C89,178.5,86.9,180.5,86.9,183C86.9,182.9,86.9,183,86.9,183z"/>
			<circle class="st8" cx="96.1" cy="153" r="7.9"/>
			<path class="st8" d="M148.1,151.9v2.3c0,2.5-2,4.4-4.4,4.4l0,0h-28.1l-6,4c-0.2,0.2-0.5,0.1-0.7-0.1c-0.1-0.1-0.1-0.3-0.1-0.5
				l1.7-3.9c-1.5-0.8-2.4-2.3-2.4-4v-2.3c0-2.5,2-4.4,4.5-4.4h31.1C146.1,147.4,148.1,149.4,148.1,151.9
				C148.1,151.8,148.1,151.9,148.1,151.9z"/>
			<path class="st3" d="M167.9,30.8l0.9,4.4c0,0.1,0.1,0.1,0.1,0.1l4.4,0.9c0.1,0,0.1,0.1,0.1,0.2c0,0.1-0.1,0.1-0.1,0.1l-4.4,0.9
				c-0.1,0-0.1,0.1-0.1,0.1l-0.9,4.4c0,0.1-0.1,0.1-0.2,0.1c-0.1,0-0.1-0.1-0.1-0.1l-0.9-4.4c0-0.1-0.1-0.1-0.1-0.1l-4.4-0.9
				c-0.1,0-0.1-0.1-0.1-0.2c0-0.1,0.1-0.1,0.1-0.1l4.4-0.9c0.1,0,0.1-0.1,0.1-0.1l0.9-4.4c0-0.1,0.1-0.1,0.2-0.1
				C167.9,30.7,167.9,30.7,167.9,30.8z"/>
			<path class="st3" d="M191.3,48.2l1.6,8c0,0.1,0.1,0.2,0.2,0.2l8,1.6c0.1,0,0.2,0.2,0.2,0.3s-0.1,0.2-0.2,0.2l-8,1.6
				c-0.1,0-0.2,0.1-0.2,0.2l-1.6,8c0,0.1-0.2,0.2-0.3,0.2s-0.2-0.1-0.2-0.2l-1.6-8c0-0.1-0.1-0.2-0.2-0.2l-8-1.6
				c-0.1,0-0.2-0.2-0.2-0.3s0.1-0.2,0.2-0.2l8-1.6c0.1,0,0.2-0.1,0.2-0.2l1.6-8c0-0.1,0.2-0.2,0.3-0.2
				C191.2,48.1,191.3,48.2,191.3,48.2z"/>
			<path class="st12" d="M227.1,213.7c1.2,0.8,0.8,5.3,0.7,8.5c-0.1,2,0.5,2.6,2.2,2c1.6-1,2.9-2.4,3.7-4.2c0.1-0.4,0.2-0.7,0.2-1.1
				c0.6-3-0.3-7.7-1.6-8.9c-0.6-0.4-2.3-1.3-2.6-0.6C228.4,210.5,227.4,212.1,227.1,213.7z"/>
			<path class="st13" d="M225.6,210.8l1.7,3c1.4-0.3,2.7-0.9,3.8-1.7c0.6-0.6,0.6-1.5,0-2.1l0,0l-1.7-1.8L225.6,210.8z"/>
			<path class="st12" d="M192.9,223.2c0.1,1.4-3.7,3.9-6.2,5.7c-1.6,1.2-1.7,2-0.2,2.9c1.8,0.7,3.7,0.8,5.5,0.3
				c0.4-0.1,0.7-0.3,1-0.5c2.7-1.4,5.8-5,5.9-6.7c-0.1-0.7-0.4-2.5-1.1-2.4C196.1,222.3,194.4,222.5,192.9,223.2z"/>
			<polygon class="st14" points="230.6,208.1 225.1,211.9 211.8,185.5 208,164 206.2,153.4 205.4,148.6 205,146.7 225,146 
				220.8,181.7 228.6,202.5 			"/>
			<path class="st14" d="M214.4,146.7l-2.9,7.9L208,164c0,0,0,0,0,0.1l-7.8,21.3l-1.2,23l-0.6,12.1h-6.5l-1.9-34.3l3.6-32.7l0.3-2.5
				l11.5-2.4L214.4,146.7z"/>
			<path class="st6" d="M228.6,202.5c-0.5-0.3-1-0.6-1.4-1c-1.6-1.4-6.6-15-7.4-16.6s-0.2-5.2-0.6-6.8s0.4-9,1.1-10.9
				s-0.4-11.5-0.4-11.5c-2.8-0.2-5.6-0.6-8.4-1.1c-0.7-0.1-1.4-0.3-2.1-0.6c-1-0.3-2.1-0.5-3.2-0.5c-3.9-0.2-10.1,0-12.6,0.1
				l0.3-2.5l11.5-2.4l-0.3-1.9l20-0.7l-4.2,35.7L228.6,202.5z"/>
			<path class="st15" d="M225.7,147c-0.9,0.8-2,1.4-3.2,1.8c-8.2,3-27.6,3.8-29.4,3.1c2.3-16.8,3.1-33.8,2.5-50.7l15.5-3.7l11.4,1.5
				c-1.2,6.4,0.9,26.1,2.8,44.5C225.4,144.7,225.6,145.9,225.7,147z"/>
			<path class="st16" d="M206.7,94.9c-0.3,1.9,0.2,3.6-1.9,4c0,2.6,2.7,3.7,5,4c4.2-0.3,6.2-2.5,5.5-4.5c-2.6-1-1.5-1.9-2.2-3.4
				L206.7,94.9z"/>
			<path class="st13" d="M216.7,86.8c0.2,1.4,0,2.9-0.4,4.3c-1.3,3.2-3.7,6.2-6.4,6.2c-0.7,0-1.4-0.2-2.1-0.6
				c-0.4-0.2-0.7-0.4-1-0.7c-0.1-0.1-0.2-0.2-0.3-0.3c-2.4-2.2-3.6-6.2-3.6-8.9c-0.1-3.8,2.9-7,6.8-7.1c0.1,0,0.1,0,0.2,0
				C216.1,79.6,216.7,82.9,216.7,86.8z"/>
			<path class="st3" d="M212.5,118.2h-4.4c-0.5,0-0.9-0.3-1-0.8l-1.3-8.4c0-0.4,0.2-0.7,0.6-0.8h0.1h4.3c0.5,0,0.9,0.3,1,0.8
				l1.3,8.3C213.2,117.7,212.9,118,212.5,118.2C212.6,118.2,212.5,118.2,212.5,118.2z"/>
			<path class="st17" d="M209.5,109.5c0,0.3-0.2,0.5-0.5,0.5s-0.6-0.2-0.7-0.5c0-0.3,0.2-0.5,0.4-0.5h0.1
				C209.2,109,209.5,109.2,209.5,109.5z"/>
			<path class="st17" d="M209.3,110.6c0,0.1-0.1,0.2-0.2,0.2l0,0c-0.1,0-0.2-0.1-0.2-0.2s0.1-0.2,0.1-0.2l0,0
				C209.2,110.4,209.3,110.4,209.3,110.6z"/>
			<path class="st13" d="M211.4,117.9c-0.8,0.3-1.7,0.4-2.5,0.2c-0.9-0.4-1.7-1-2.3-1.8c-0.4-1-0.5-2-0.4-3c0.2-0.7,5.7,1,6.5,0.6
				c0.2,0,0.5,0.6,0.4,0.9L211.4,117.9z"/>
			<path class="st13" d="M193.1,220.5l-0.4,3.4c1.5,0.8,3.2,0.9,4.7,0.3c0.4-0.2,0.6-0.6,0.6-1l-0.4-2.7H193.1z"/>
			<path class="st18" d="M236.2,125.4c-0.8,1.4-2.5,2.4-3.9,2c-2.8-1-5.6-2.1-8.3-3.4c-0.6-0.2-1.2-0.5-1.8-0.8l-0.8-0.4l1.1-2.2
				l1.2-2.4l5.1,2.2l-11-13.4l4.7-8c3.4,3.5,8.7,13.8,13.9,24.1C236.8,123.8,236.7,124.7,236.2,125.4z"/>
			<path class="st6" d="M225.7,147c-0.9,0.8-2,1.4-3.2,1.8l-5.5-1l-5.6-29.7h1.1c0,0,11.9,21.1,11.9,21.7c0.3,1.2,0.6,2.4,1,3.6
				C225.4,144.7,225.6,145.9,225.7,147z"/>
			<polygon class="st18" points="222.5,99 217.6,98.3 212.5,118.2 219.5,147.9 227.3,146.7 222.9,118.7 			"/>
			<polygon class="st18" points="195.6,101.2 200.6,100.1 205.8,120.2 201.9,150 191,148.7 194.4,120.6 			"/>
			<path class="st13" d="M213,114.7l-1.6,3.1c3.4,1.3,6.9,3.1,10.4,4.8l2.1-4.2L213,114.7z"/>
			<path class="st13" d="M201.7,146.6L200,148l-0.6,0.4c-0.1-0.1-0.1-0.1-0.3-0.2c-2.1-1.8-8.9-9.3-11.7-12.6l-0.1-0.1l1.1-0.9
				l2.8-2.4l10.8,14.2L201.7,146.6z"/>
			<path class="st13" d="M203.7,149.1c-0.3,0.3-0.6,0.5-0.9,0.7c-0.5,0.4-1.2,0.6-1.8,0.6c-1-0.3-1.8-1.2-1.8-2.3c0-0.1,0-0.2,0-0.3
				l0.5-0.2l0,0c0.7-0.4,1.5-0.7,2-1s0.8-0.5,0.8-0.6c0-0.3,0-0.5,0.1-0.8C203.6,145.5,204.4,148.4,203.7,149.1z"/>
			<path class="st18" d="M188.4,127.5l3.2,4.4l-0.3,0.3l-2.7,2.4l-1.1,0.9l-0.2,0.1c-1.4-1.6-2.6-3.3-3.7-4.6c-1.6-2-1.9-4.7-0.8-7
				v-0.1c4.8-9.8,9.7-20,12.8-22.6l5.7,8.9L188.4,127.5z"/>
			<path class="st6" d="M236.2,125.4c-0.8,1.4-2.5,2.4-3.9,2c-2.8-1-5.6-2.1-8.3-3.4c-0.4-0.3-0.6-0.6-0.6-0.6l-1.1-0.3
				c-2.1-0.4-4.1-1.1-6.1-1.8c-2-0.9-4-1.6-6.1-2.2c-2.2-0.3-3.9-2.2-3.9-4.4c0.7,0.5,1.4,0.9,2.2,1.1c1.1,0.1,2.6-0.1,3.6,0.4
				s3.3,2.2,4.3,2.5c0.7,0.2,3.8,1,6.4,1.9c1.2,0.4,2.3,0.8,3.4,1.4c1.9,1.2,6.3,4.2,9.7,3.4C235.9,125.4,236.1,125.4,236.2,125.4z"
				/>
			<path class="st6" d="M202.8,149.8c-0.5,0.4-1.2,0.6-1.8,0.6c-1-0.3-1.8-1.2-1.8-2.3c-2.1-1.8-8.9-9.3-11.7-12.6l-0.2,0.1
				c-1.4-1.6-2.6-3.3-3.7-4.6c-1.6-2-1.9-4.7-0.8-7c0.3,0.7,0.4,1.5,0.4,2.3c0,1.6,3.4,6,5.3,8.3h0.1c0.6,0.8,1.1,1.4,1.1,1.4
				s6.4,7.7,6.6,7.8c1.2,1.2,2.4,2.5,3.5,3.8l0,0c0.1,0.1,0.2,0.2,0.3,0.3s0.1,0.1,0.2,0.2C200.8,148.9,201.8,149.5,202.8,149.8z"/>
			<path class="st6" d="M208,164.1l-7.8,21.3l-1.2,23c-1-1.6-0.8-6.4-1.4-8.8c-0.7-2.8-0.1-12.4,1.1-15.4s4.9-13.1,5.9-14.1
				S207.7,164.6,208,164.1z"/>
			<path class="st19" d="M216.3,89.5l0.4-1.7c0,0,0-3.3,0.2-5.7c0.1-1.1-0.4-2.2-1.4-2.9c-0.8-0.7-0.3-0.7-1.1-1.5
				c-0.9-1-1.5-1.2-1.5-1.7c0,0-0.6,0.6-1.1,0.6s0.2-0.3,0.2-0.7c0-0.2,0-0.4,0-0.6c0,0-0.4,0.7-1,0.8s-0.3-0.1-0.3-0.1
				s0.1-0.7-0.1-1c-1,0.9-2.2,1.5-3.5,1.5c-2.6,0.3-2.4,1.8-2.4,1.8s-3.6,0.2-2.1,8.2c0.3,2.6,0.3,1.9,0.3,1.9l0.6,1.2
				c0,0-0.4-3.7,0.3-4.7s-0.2-3.7,2.4-3.6s4.6,0.9,8.6-0.2c0.2,0.2,0.2,2.6,0.7,3.4S216.3,89.5,216.3,89.5z"/>
			<path class="st16" d="M216.8,85.9c0,0,0.7-0.4,0.9,0.3s-0.4,1.5-0.4,2.1s-0.7,2.5-0.7,1.8C216.6,90,216.8,85.9,216.8,85.9z"/>
			<path class="st16" d="M202.9,86.6c0,0-0.8-0.3-0.9,0.4s0.6,1.4,0.6,2s1,2.3,0.9,1.6L202.9,86.6z"/>
			<path class="st6" d="M117.3,112.3v4.2c0,4.6-3.7,8.2-8.2,8.2l0,0h-16h-15V104h11h20C113.7,104,117.4,107.7,117.3,112.3
				C117.4,112.3,117.4,112.3,117.3,112.3z"/>
			<path class="st18" d="M116,109.9v4.2c0,4.5-3.7,8.2-8.2,8.2l0,0h-52l-11,7.4c-0.4,0.3-1,0.2-1.3-0.2c-0.2-0.3-0.2-0.6-0.1-0.9
				l3.2-7.2c-2.8-1.4-4.6-4.3-4.6-7.4v-4.2c0-4.6,3.7-8.2,8.2-8.2l0,0h57.5C112.3,101.6,116,105.3,116,109.9L116,109.9z"/>
			<rect x="57.5" y="106.4" class="st8" width="17.3" height="3.7"/>
			<rect x="57.5" y="113.4" class="st8" width="45" height="3.7"/>
			<path class="st0" d="M169.1,2.1c0,0-1.1,0-3.2,0.1l-0.2-2.1c2-0.1,3.2-0.1,3.2-0.1L169.1,2.1z"/>
			<path class="st0" d="M51.9,80.6l-1.6-0.5c0.3-2.6,0.9-5.2,1.7-7.7l1.5,0.9C52.7,75.7,52.2,78.2,51.9,80.6z M56.3,66.6l-1.4-1.2
				c1.1-2.2,2.4-4.2,3.8-6.2l1.3,1.5C58.6,62.6,57.4,64.6,56.3,66.6z M99.9,59.9L98.7,60l-0.2-2c2-0.2,4-0.6,5.9-1.3l0.5,2
				C103.3,59.3,101.6,59.7,99.9,59.9z M92.3,59.7c-2.3-0.4-4.5-1.5-6.3-3l0.8-1.7c1.6,1.4,3.5,2.3,5.6,2.6L92.3,59.7z M110.8,55.7
				l-0.9-1.7c1.8-1.2,3.2-2.9,4.1-4.8l1.4,1.1C114.5,52.5,112.8,54.4,110.8,55.7L110.8,55.7z M64.3,55.4l-1.1-1.6
				c1.6-1.7,3.2-3.2,4.9-4.7l1,1.7C67.4,52.3,65.8,53.8,64.3,55.4L64.3,55.4z M83.8,49.1l-1.6,0.2c-0.3-2.8,0-5.6,0.8-8.3l1.5,0.8
				C83.8,44.2,83.6,46.6,83.8,49.1z M113.8,42.6c-1-1.9-2.6-3.5-4.6-4.3l0.4-1.9c2.4,1,4.4,2.9,5.6,5.2L113.8,42.6z M74.2,46.9
				L73.3,45c1.8-1.2,3.7-2.4,5.5-3.4l0.7,1.9C77.8,44.5,75.9,45.7,74.2,46.9L74.2,46.9z M85.3,40.7l-0.6-2c2-0.8,4-1.5,6-2.2l0.5,2
				C89.1,39.2,87.2,39.9,85.3,40.7L85.3,40.7z M103.2,37c-1.9-0.1-3.7,0-5.6,0.2l-0.5,0.1l-0.3-2l0.5-0.1c1.9-0.3,3.9-0.4,5.8-0.3
				L103.2,37z M87.2,35.1l-1.4-1.2c1.1-2.2,2.4-4.2,3.9-6.1l1.2,1.5C89.5,31.1,88.2,33,87.2,35.1L87.2,35.1z M95.4,24.4l-1-1.7
				c1.6-1.5,3.4-2.9,5.2-4.2l0.8,1.8C98.7,21.5,97,22.9,95.4,24.4L95.4,24.4z M105.9,16.9l-0.7-1.9c1.8-1,3.7-2,5.7-2.9l0.6,1.9
				C109.5,14.9,107.6,15.9,105.9,16.9L105.9,16.9z M117.3,11.6l-0.6-2c1.9-0.7,3.9-1.4,6-2.1l0.5,2
				C121.2,10.2,119.2,10.9,117.3,11.6L117.3,11.6z M129.2,7.8l-0.4-2c2-0.6,4.1-1,6.1-1.5l0.4,2C133.2,6.8,131.2,7.2,129.2,7.8
				L129.2,7.8z M159.8,2.7c-1.9,0.2-3.9,0.3-6.2,0.6l-0.3-2c2.3-0.3,4.4-0.5,6.2-0.6L159.8,2.7z M141.3,5.1L141,3
				c2.1-0.4,4.2-0.7,6.2-1l0.3,2.1C145.4,4.3,143.4,4.7,141.3,5.1z"/>
			<path class="st0" d="M50.5,92.8c-0.2-1.4-0.4-2.8-0.5-4.2h1.6c0.1,1.3,0.2,2.7,0.4,4L50.5,92.8z"/>
			<polygon class="st20" points="199.6,12.9 198.5,3.8 176,0.6 			"/>
			<polygon class="st21" points="195.6,6.9 199.6,12.9 176,0.6 			"/>
			<polygon class="st7" points="176,0.6 187.1,17.8 195.6,6.9 			"/>
			<polygon class="st7" points="198.5,3.8 206.6,0 176,0.6 			"/>
		</g>
	</g>
</g>
</svg>
