<svg xmlns="http://www.w3.org/2000/svg" xmlns:xlink="http://www.w3.org/1999/xlink" viewBox="0 0 387.99 202.4"><defs><style>.cls-1{isolation:isolate;}.cls-2{fill:#a8cfef;}.cls-10,.cls-105,.cls-3,.cls-4,.cls-5,.cls-6,.cls-63,.cls-7,.cls-8,.cls-9{opacity:0.25;}.cls-3{fill:url(#linear-gradient);}.cls-4{fill:url(#linear-gradient-2);}.cls-5{fill:url(#linear-gradient-3);}.cls-6{fill:url(#linear-gradient-4);}.cls-7{fill:url(#linear-gradient-5);}.cls-8{fill:url(#linear-gradient-6);}.cls-9{fill:url(#linear-gradient-7);}.cls-10{fill:url(#linear-gradient-8);}.cls-11{fill:url(#linear-gradient-9);}.cls-12{fill:url(#linear-gradient-10);}.cls-13{fill:url(#linear-gradient-11);}.cls-14{fill:url(#linear-gradient-12);}.cls-15{fill:url(#linear-gradient-13);}.cls-16{fill:url(#linear-gradient-14);}.cls-17{fill:url(#linear-gradient-15);}.cls-18{fill:url(#linear-gradient-16);}.cls-19{fill:url(#linear-gradient-17);}.cls-20{fill:url(#linear-gradient-18);}.cls-21{fill:url(#linear-gradient-19);}.cls-22{fill:url(#linear-gradient-20);}.cls-23{fill:url(#linear-gradient-21);}.cls-24{fill:url(#linear-gradient-22);}.cls-25{fill:url(#linear-gradient-23);}.cls-26{fill:url(#linear-gradient-24);}.cls-27{fill:url(#linear-gradient-25);}.cls-28{fill:url(#linear-gradient-26);}.cls-29{fill:url(#linear-gradient-27);}.cls-30{fill:url(#linear-gradient-28);}.cls-31{fill:url(#linear-gradient-29);}.cls-32{fill:url(#linear-gradient-30);}.cls-33{fill:url(#linear-gradient-31);}.cls-34{fill:url(#linear-gradient-32);}.cls-35{fill:url(#linear-gradient-33);}.cls-36{fill:url(#linear-gradient-34);}.cls-37{fill:#1d1d1b;}.cls-38{fill:url(#linear-gradient-35);}.cls-39,.cls-79,.cls-98{opacity:0.7;}.cls-39,.cls-79{mix-blend-mode:multiply;}.cls-39{fill:url(#linear-gradient-36);}.cls-40{fill:url(#linear-gradient-37);}.cls-100,.cls-101,.cls-41,.cls-90,.cls-91,.cls-97,.cls-99{opacity:0.4;}.cls-42{fill:url(#linear-gradient-38);}.cls-43{fill:url(#linear-gradient-39);}.cls-44{fill:url(#linear-gradient-40);}.cls-45{fill:url(#linear-gradient-41);}.cls-46{fill:url(#linear-gradient-42);}.cls-47{fill:url(#linear-gradient-43);}.cls-48{fill:url(#linear-gradient-44);}.cls-49{fill:url(#linear-gradient-45);}.cls-50{fill:url(#linear-gradient-46);}.cls-51{fill:url(#linear-gradient-47);}.cls-52{fill:url(#linear-gradient-48);}.cls-53{fill:url(#linear-gradient-49);}.cls-54{fill:url(#linear-gradient-50);}.cls-55{fill:url(#linear-gradient-51);}.cls-56{fill:url(#linear-gradient-52);}.cls-57{fill:url(#linear-gradient-53);}.cls-58{fill:url(#linear-gradient-54);}.cls-59{fill:url(#linear-gradient-55);}.cls-60{fill:url(#linear-gradient-56);}.cls-61{fill:url(#linear-gradient-57);}.cls-62{fill:url(#linear-gradient-58);}.cls-63{fill:url(#linear-gradient-59);}.cls-64{fill:url(#linear-gradient-60);}.cls-65{fill:url(#linear-gradient-61);}.cls-66{fill:url(#linear-gradient-62);}.cls-67{fill:url(#linear-gradient-63);}.cls-68{fill:url(#linear-gradient-64);}.cls-69{fill:url(#linear-gradient-65);}.cls-70{fill:url(#linear-gradient-66);}.cls-71{fill:url(#linear-gradient-67);}.cls-72{fill:url(#linear-gradient-68);}.cls-73{fill:url(#linear-gradient-69);}.cls-74{fill:url(#linear-gradient-70);}.cls-75{fill:url(#linear-gradient-71);}.cls-76{fill:url(#linear-gradient-72);}.cls-77{fill:url(#linear-gradient-73);}.cls-78{fill:url(#linear-gradient-74);}.cls-79{fill:url(#linear-gradient-75);}.cls-80{fill:url(#linear-gradient-76);}.cls-81{fill:url(#linear-gradient-77);}.cls-82{fill:url(#linear-gradient-78);}.cls-83{fill:url(#linear-gradient-79);}.cls-84{fill:url(#linear-gradient-80);}.cls-85{fill:url(#linear-gradient-81);}.cls-86{fill:url(#linear-gradient-82);}.cls-87{fill:url(#linear-gradient-83);}.cls-88{fill:url(#linear-gradient-84);}.cls-89{fill:url(#linear-gradient-85);}.cls-90{fill:url(#linear-gradient-86);}.cls-91{fill:url(#linear-gradient-87);}.cls-92{fill:url(#linear-gradient-88);}.cls-93{fill:url(#linear-gradient-89);}.cls-94{fill:url(#linear-gradient-90);}.cls-95{fill:url(#linear-gradient-91);}.cls-96{fill:url(#linear-gradient-92);}.cls-97{fill:url(#linear-gradient-93);}.cls-99{fill:url(#linear-gradient-94);}.cls-100{fill:url(#linear-gradient-95);}.cls-101{fill:url(#linear-gradient-97);}.cls-102,.cls-103,.cls-104{opacity:0.3;}.cls-102{fill:url(#linear-gradient-98);}.cls-103{fill:url(#linear-gradient-99);}.cls-104{fill:url(#linear-gradient-100);}.cls-105{fill:url(#linear-gradient-101);}.cls-106{fill:url(#linear-gradient-102);}.cls-107{fill:url(#linear-gradient-103);}.cls-108{fill:url(#linear-gradient-104);}.cls-109{fill:url(#linear-gradient-105);}.cls-110{fill:url(#linear-gradient-106);}.cls-111{fill:url(#linear-gradient-107);}</style><linearGradient id="linear-gradient" x1="125.97" y1="110.3" x2="121.59" y2="131.08" gradientUnits="userSpaceOnUse"><stop offset="0" stop-color="#f6f6f6"/><stop offset="1" stop-color="#c9d6ff"/></linearGradient><linearGradient id="linear-gradient-2" x1="105.19" y1="114.67" x2="30.25" y2="212.59" xlink:href="#linear-gradient"/><linearGradient id="linear-gradient-3" x1="146.5" y1="139.37" x2="71.56" y2="237.29" xlink:href="#linear-gradient"/><linearGradient id="linear-gradient-4" x1="96.07" y1="107.69" x2="21.12" y2="205.61" xlink:href="#linear-gradient"/><linearGradient id="linear-gradient-5" x1="200.44" y1="187.57" x2="125.5" y2="285.49" xlink:href="#linear-gradient"/><linearGradient id="linear-gradient-6" x1="173.39" y1="166.87" x2="98.45" y2="264.79" xlink:href="#linear-gradient"/><linearGradient id="linear-gradient-7" x1="102.92" y1="112.94" x2="27.98" y2="210.86" xlink:href="#linear-gradient"/><linearGradient id="linear-gradient-8" x1="177.76" y1="111.58" x2="174.48" y2="119.6" xlink:href="#linear-gradient"/><linearGradient id="linear-gradient-9" x1="208.86" y1="82.28" x2="169.16" y2="112.17" xlink:href="#linear-gradient"/><linearGradient id="linear-gradient-10" x1="172.12" y1="94.08" x2="162.62" y2="71.95" xlink:href="#linear-gradient"/><linearGradient id="linear-gradient-11" x1="147.85" y1="91.92" x2="147.5" y2="91.08" xlink:href="#linear-gradient"/><linearGradient id="linear-gradient-12" x1="190.71" y1="158.08" x2="182.18" y2="138.21" xlink:href="#linear-gradient"/><linearGradient id="linear-gradient-13" x1="192.67" y1="115.6" x2="173.71" y2="115.6" gradientUnits="userSpaceOnUse"><stop offset="0" stop-color="#1d4891"/><stop offset="1" stop-color="#182e65"/></linearGradient><linearGradient id="linear-gradient-14" x1="114.13" y1="-7.89" x2="129.74" y2="43.41" xlink:href="#linear-gradient"/><linearGradient id="linear-gradient-15" x1="136.9" y1="13.5" x2="139.91" y2="57.33" xlink:href="#linear-gradient-13"/><linearGradient id="linear-gradient-16" x1="107.39" y1="54.15" x2="105.61" y2="10.44" xlink:href="#linear-gradient"/><linearGradient id="linear-gradient-17" x1="104.59" y1="130.73" x2="97.45" y2="-36.98" gradientUnits="userSpaceOnUse"><stop offset="0" stop-color="#f9b233"/><stop offset="1" stop-color="#e6007e"/></linearGradient><linearGradient id="linear-gradient-18" x1="134.87" y1="97.69" x2="67.96" y2="231.51" xlink:href="#linear-gradient"/><linearGradient id="linear-gradient-19" x1="195.41" y1="121.13" x2="195.41" y2="185.81" xlink:href="#linear-gradient"/><linearGradient id="linear-gradient-20" x1="99.53" y1="154.53" x2="101.32" y2="188.43" xlink:href="#linear-gradient-17"/><linearGradient id="linear-gradient-21" x1="157.88" y1="-1.14" x2="36.44" y2="146.06" xlink:href="#linear-gradient-13"/><linearGradient id="linear-gradient-22" x1="217.02" y1="80.8" x2="112.83" y2="114.29" xlink:href="#linear-gradient-17"/><linearGradient id="linear-gradient-23" x1="185.34" y1="25.65" x2="222.37" y2="197.82" xlink:href="#linear-gradient-17"/><linearGradient id="linear-gradient-24" x1="216.73" y1="47.41" x2="95.29" y2="194.61" xlink:href="#linear-gradient-13"/><linearGradient id="linear-gradient-25" x1="89.2" y1="142.47" x2="89.51" y2="140.89" gradientUnits="userSpaceOnUse"><stop offset="0" stop-color="#fad6c7"/><stop offset="1" stop-color="#e4857f"/></linearGradient><linearGradient id="linear-gradient-26" x1="90.19" y1="141.22" x2="89.37" y2="133.87" xlink:href="#linear-gradient-25"/><linearGradient id="linear-gradient-27" x1="-11088.77" y1="146.53" x2="-11080.36" y2="151.53" gradientTransform="matrix(-1, 0, 0, 1, -10990.85, 0)" xlink:href="#linear-gradient-25"/><linearGradient id="linear-gradient-28" x1="-11084.38" y1="177.25" x2="-11067.12" y2="165.75" gradientTransform="matrix(-1, 0, 0, 1, -10990.85, 0)" xlink:href="#linear-gradient-25"/><linearGradient id="linear-gradient-29" x1="-11078.62" y1="188.9" x2="-11078.3" y2="190.75" gradientTransform="matrix(-1, 0, 0, 1, -10990.85, 0)" xlink:href="#linear-gradient-13"/><linearGradient id="linear-gradient-30" x1="-11088.95" y1="182.49" x2="-11069" y2="169.2" gradientTransform="matrix(-1, 0, 0, 1, -10990.85, 0)" xlink:href="#linear-gradient-25"/><linearGradient id="linear-gradient-31" x1="-11067.95" y1="143.77" x2="-11067.19" y2="196.35" gradientTransform="matrix(-1, 0, 0, 1, -10979.12, 0)" xlink:href="#linear-gradient-13"/><linearGradient id="linear-gradient-32" x1="-11084.52" y1="193.53" x2="-11084.2" y2="195.38" gradientTransform="matrix(-1, 0, 0, 1, -10990.85, 0)" xlink:href="#linear-gradient-13"/><linearGradient id="linear-gradient-33" x1="-11148.94" y1="-358.61" x2="-11151.03" y2="-357.9" gradientTransform="matrix(-1, -0.1, -0.1, 1, -11039.89, -580.08)" xlink:href="#linear-gradient-25"/><linearGradient id="linear-gradient-34" x1="-11149.14" y1="-368.62" x2="-11147.14" y2="-383.52" gradientTransform="matrix(-1, -0.1, -0.1, 1, -11039.89, -580.08)" xlink:href="#linear-gradient-25"/><linearGradient id="linear-gradient-35" x1="98.72" y1="142.81" x2="93.43" y2="156.4" xlink:href="#linear-gradient-17"/><linearGradient id="linear-gradient-36" x1="184.98" y1="33.24" x2="184.43" y2="36.76" xlink:href="#linear-gradient"/><linearGradient id="linear-gradient-37" x1="169.48" y1="88.43" x2="169.45" y2="88.43" xlink:href="#linear-gradient-13"/><linearGradient id="linear-gradient-38" x1="-112.4" y1="119.1" x2="-112.4" y2="67.05" gradientTransform="translate(152.83)" xlink:href="#linear-gradient-17"/><linearGradient id="linear-gradient-39" x1="-112.4" y1="90.77" x2="-112.4" y2="86.35" gradientTransform="translate(152.83)" xlink:href="#linear-gradient-17"/><linearGradient id="linear-gradient-40" x1="-101.06" y1="111.05" x2="-101.06" y2="46.33" gradientTransform="translate(152.83)" xlink:href="#linear-gradient-17"/><linearGradient id="linear-gradient-41" x1="-101.06" y1="75.59" x2="-101.06" y2="71.16" gradientTransform="translate(152.83)" xlink:href="#linear-gradient-17"/><linearGradient id="linear-gradient-42" x1="-135.49" y1="130.51" x2="-135.49" y2="65.78" gradientTransform="translate(152.83)" xlink:href="#linear-gradient-17"/><linearGradient id="linear-gradient-43" x1="-135.49" y1="95.04" x2="-135.49" y2="90.62" gradientTransform="translate(152.83)" xlink:href="#linear-gradient-17"/><linearGradient id="linear-gradient-44" x1="-147.28" y1="141.26" x2="-147.28" y2="105.05" gradientTransform="translate(152.83)" xlink:href="#linear-gradient-17"/><linearGradient id="linear-gradient-45" x1="-147.28" y1="121.84" x2="-147.28" y2="117.42" gradientTransform="translate(152.83)" xlink:href="#linear-gradient-17"/><linearGradient id="linear-gradient-46" x1="-123.74" y1="121.73" x2="-123.74" y2="38" gradientTransform="translate(152.83)" xlink:href="#linear-gradient-17"/><linearGradient id="linear-gradient-47" x1="-123.74" y1="75.57" x2="-123.74" y2="71.15" gradientTransform="translate(152.83)" xlink:href="#linear-gradient-17"/><linearGradient id="linear-gradient-48" x1="177.31" y1="37.32" x2="191.89" y2="39.92" xlink:href="#linear-gradient-25"/><linearGradient id="linear-gradient-49" x1="-10557.04" y1="51.91" x2="-10558.69" y2="75.02" gradientTransform="matrix(-1, 0, 0, 1, -10378.56, 0)" xlink:href="#linear-gradient-25"/><linearGradient id="linear-gradient-50" x1="-10560.27" y1="54.11" x2="-10561.92" y2="77.22" gradientTransform="matrix(-1, 0, 0, 1, -10378.56, 0)" xlink:href="#linear-gradient-25"/><linearGradient id="linear-gradient-51" x1="186.9" y1="28.38" x2="183.59" y2="49.73" xlink:href="#linear-gradient-17"/><linearGradient id="linear-gradient-52" x1="185.11" y1="44.92" x2="180.06" y2="49.15" xlink:href="#linear-gradient"/><linearGradient id="linear-gradient-53" x1="179.93" y1="41.27" x2="178.12" y2="52.93" xlink:href="#linear-gradient"/><linearGradient id="linear-gradient-54" x1="185.91" y1="46.48" x2="185.48" y2="46.73" xlink:href="#linear-gradient"/><linearGradient id="linear-gradient-55" x1="176.72" y1="43.12" x2="175.45" y2="52.78" xlink:href="#linear-gradient-25"/><linearGradient id="linear-gradient-56" x1="190.75" y1="193.3" x2="185.46" y2="204.52" gradientTransform="translate(-7.8 -148.36) rotate(-1.58)" xlink:href="#linear-gradient-25"/><linearGradient id="linear-gradient-57" x1="185.87" y1="29.03" x2="186.21" y2="26.88" xlink:href="#linear-gradient-25"/><linearGradient id="linear-gradient-58" x1="-2810.42" y1="-1480.23" x2="-2810.7" y2="-1483.47" gradientTransform="matrix(0.96, 0.27, -0.27, 0.96, 2488.07, 2216.19)" xlink:href="#linear-gradient-25"/><linearGradient id="linear-gradient-59" x1="7073.05" y1="185.28" x2="7072.49" y2="178.72" gradientTransform="translate(-7044.14)" xlink:href="#linear-gradient"/><linearGradient id="linear-gradient-60" x1="-4277.11" y1="130.15" x2="-4277.11" y2="140.29" gradientTransform="matrix(-1, 0, 0, 1, -4235.24, 0)" xlink:href="#linear-gradient"/><linearGradient id="linear-gradient-61" x1="-4260.01" y1="144.81" x2="-4265.94" y2="157.81" gradientTransform="matrix(-1, 0, 0, 1, -4235.24, 0)" xlink:href="#linear-gradient"/><linearGradient id="linear-gradient-62" x1="-4240.75" y1="158.97" x2="-4240.56" y2="170.25" gradientTransform="matrix(-1, 0, 0, 1, -4235.24, 0)" xlink:href="#linear-gradient"/><linearGradient id="linear-gradient-63" x1="-4252.88" y1="144.28" x2="-4233" y2="158.81" gradientTransform="matrix(-1, 0, 0, 1, -4235.24, 0)" xlink:href="#linear-gradient"/><linearGradient id="linear-gradient-64" x1="7062.53" y1="132.57" x2="7081.87" y2="185.64" gradientTransform="translate(-7044.14)" xlink:href="#linear-gradient-13"/><linearGradient id="linear-gradient-65" x1="-15127.03" y1="129.64" x2="-15130.17" y2="133.22" gradientTransform="matrix(-1, 0, 0, 1, -15117.02, 0)" xlink:href="#linear-gradient-17"/><linearGradient id="linear-gradient-66" x1="7051.02" y1="121.19" x2="7079.6" y2="161.8" gradientTransform="translate(-7044.14)" xlink:href="#linear-gradient-17"/><linearGradient id="linear-gradient-67" x1="189.28" y1="345.77" x2="189.28" y2="457.18" gradientTransform="matrix(1, -0.05, 0.05, 1, 26.45, -251.33)" xlink:href="#linear-gradient-13"/><linearGradient id="linear-gradient-68" x1="158.25" y1="-471.02" x2="187.75" y2="-386.43" gradientTransform="matrix(0.99, 0.12, -0.12, 0.99, 19.29, 584.58)" xlink:href="#linear-gradient-13"/><linearGradient id="linear-gradient-69" x1="156.76" y1="-470.5" x2="186.26" y2="-385.91" gradientTransform="matrix(0.99, 0.12, -0.12, 0.99, 19.29, 584.58)" xlink:href="#linear-gradient-13"/><linearGradient id="linear-gradient-70" x1="155.23" y1="-469.97" x2="184.73" y2="-385.37" gradientTransform="matrix(0.99, 0.12, -0.12, 0.99, 19.29, 584.58)" xlink:href="#linear-gradient-13"/><linearGradient id="linear-gradient-71" x1="153.74" y1="-469.45" x2="183.24" y2="-384.85" gradientTransform="matrix(0.99, 0.12, -0.12, 0.99, 19.29, 584.58)" xlink:href="#linear-gradient-13"/><linearGradient id="linear-gradient-72" x1="152.21" y1="-468.91" x2="181.71" y2="-384.32" gradientTransform="matrix(0.99, 0.12, -0.12, 0.99, 19.29, 584.58)" xlink:href="#linear-gradient-13"/><linearGradient id="linear-gradient-73" x1="150.72" y1="-468.39" x2="180.22" y2="-383.8" gradientTransform="matrix(0.99, 0.12, -0.12, 0.99, 19.29, 584.58)" xlink:href="#linear-gradient-13"/><linearGradient id="linear-gradient-74" x1="149.13" y1="-467.84" x2="178.63" y2="-383.24" gradientTransform="matrix(0.99, 0.12, -0.12, 0.99, 19.29, 584.58)" xlink:href="#linear-gradient-13"/><linearGradient id="linear-gradient-75" x1="596.98" y1="1213.61" x2="596.81" y2="1214.71" gradientTransform="matrix(0.9, 0, 0, 1.12, -424.73, -1269.81)" xlink:href="#linear-gradient"/><linearGradient id="linear-gradient-76" x1="181.6" y1="289.14" x2="181.6" y2="400.56" gradientTransform="translate(26.57 -190.99) rotate(-2.14)" xlink:href="#linear-gradient-13"/><linearGradient id="linear-gradient-77" x1="111.4" y1="96.51" x2="111.71" y2="101.61" xlink:href="#linear-gradient-25"/><linearGradient id="linear-gradient-78" x1="-76.3" y1="1513.27" x2="-71.68" y2="1517.82" gradientTransform="translate(-208.04 -1386.07) rotate(-14.87)" xlink:href="#linear-gradient"/><linearGradient id="linear-gradient-79" x1="108.03" y1="91.67" x2="106.46" y2="88.68" xlink:href="#linear-gradient-13"/><linearGradient id="linear-gradient-80" x1="102.17" y1="85.08" x2="111" y2="110.5" xlink:href="#linear-gradient"/><linearGradient id="linear-gradient-81" x1="105.14" y1="95.54" x2="102.39" y2="101.37" xlink:href="#linear-gradient-25"/><linearGradient id="linear-gradient-82" x1="-10824.48" y1="757.37" x2="-10824.08" y2="754.91" gradientTransform="matrix(-0.99, 0.12, 0.12, 0.99, -10732.45, 664.9)" xlink:href="#linear-gradient-25"/><linearGradient id="linear-gradient-83" x1="-10735.36" y1="1283.74" x2="-10737.44" y2="1297.17" gradientTransform="matrix(-0.98, 0.21, 0.21, 0.98, -10648.11, 1142.17)" xlink:href="#linear-gradient"/><linearGradient id="linear-gradient-84" x1="100.2" y1="94.67" x2="101.56" y2="85.75" xlink:href="#linear-gradient-13"/><linearGradient id="linear-gradient-85" x1="5957.16" y1="-1909.12" x2="5956.92" y2="-1911.99" gradientTransform="matrix(0.93, 0.36, -0.36, 0.93, -6141.44, -291.81)" xlink:href="#linear-gradient-25"/><linearGradient id="linear-gradient-86" x1="1031.8" y1="19.8" x2="1056.96" y2="30.06" gradientTransform="translate(-833.12)" xlink:href="#linear-gradient-17"/><linearGradient id="linear-gradient-87" x1="208.66" y1="-1.76" x2="208.66" y2="0.09" xlink:href="#linear-gradient-17"/><linearGradient id="linear-gradient-88" x1="1033.63" y1="32.63" x2="1033.9" y2="33.83" gradientTransform="translate(-833.12)" xlink:href="#linear-gradient-17"/><linearGradient id="linear-gradient-89" x1="1033.63" y1="33.35" x2="1033.9" y2="34.55" gradientTransform="translate(-833.12)" xlink:href="#linear-gradient-17"/><linearGradient id="linear-gradient-90" x1="1033.63" y1="34.07" x2="1033.9" y2="35.27" gradientTransform="translate(-833.12)" xlink:href="#linear-gradient-17"/><linearGradient id="linear-gradient-91" x1="1033.63" y1="34.79" x2="1033.9" y2="35.99" gradientTransform="translate(-833.12)" xlink:href="#linear-gradient-17"/><linearGradient id="linear-gradient-92" x1="1034.19" y1="35.38" x2="1034.38" y2="36.23" gradientTransform="translate(-833.12)" xlink:href="#linear-gradient-17"/><linearGradient id="linear-gradient-93" x1="201.65" y1="26.59" x2="201.56" y2="27.3" xlink:href="#linear-gradient-17"/><linearGradient id="linear-gradient-94" x1="209.1" y1="12.48" x2="209.1" y2="14.24" xlink:href="#linear-gradient-17"/><linearGradient id="linear-gradient-95" x1="221.72" y1="12.87" x2="220.31" y2="14.1" xlink:href="#linear-gradient-17"/><linearGradient id="linear-gradient-97" x1="218.91" y1="24.17" x2="222.52" y2="32.1" xlink:href="#linear-gradient-17"/><linearGradient id="linear-gradient-98" x1="39.1" y1="67.47" x2="39.1" y2="68.56" xlink:href="#linear-gradient-17"/><linearGradient id="linear-gradient-99" x1="56.59" y1="41.52" x2="56.59" y2="43.59" xlink:href="#linear-gradient-17"/><linearGradient id="linear-gradient-100" x1="29.92" y1="10.48" x2="29.92" y2="12.55" xlink:href="#linear-gradient-17"/><linearGradient id="linear-gradient-101" x1="69.54" y1="122.18" x2="69.03" y2="123.7" xlink:href="#linear-gradient"/><linearGradient id="linear-gradient-102" x1="64.43" y1="120.03" x2="57.06" y2="139.37" xlink:href="#linear-gradient"/><linearGradient id="linear-gradient-103" x1="58.83" y1="116.9" x2="67.57" y2="116.9" xlink:href="#linear-gradient"/><linearGradient id="linear-gradient-104" x1="60.54" y1="117.65" x2="65.86" y2="117.65" xlink:href="#linear-gradient-13"/><linearGradient id="linear-gradient-105" x1="58.09" y1="91.22" x2="72.91" y2="123.15" xlink:href="#linear-gradient-17"/><linearGradient id="linear-gradient-106" x1="60.05" y1="105.67" x2="56.26" y2="118.88" xlink:href="#linear-gradient-17"/><linearGradient id="linear-gradient-107" x1="64.71" y1="110.59" x2="60.59" y2="123.51" xlink:href="#linear-gradient-17"/></defs><title>10</title><g class="cls-1"><g id="Capa_2" data-name="Capa 2"><g id="Capa_1-2" data-name="Capa 1"><rect class="cls-2" x="203.99" y="104.54" width="184" height="71"/><path class="cls-3" d="M111.82,152.34l4.31-2.49a1.45,1.45,0,0,1,1.45,0l4.3,2.49a1.45,1.45,0,0,1,0,2.52l-4.3,2.48a1.45,1.45,0,0,1-1.45,0l-4.31-2.48A1.46,1.46,0,0,1,111.82,152.34Z"/><path class="cls-4" d="M36.44,185.46l12.28-7.09a2,2,0,0,1,2,0L63,185.46a2,2,0,0,1,0,3.43L50.69,196a2,2,0,0,1-2,0l-12.28-7.08A2,2,0,0,1,36.44,185.46Z"/><path class="cls-5" d="M92,176.39l23.82-13.75a2,2,0,0,1,2,0l23.83,13.75a2,2,0,0,1,0,3.43l-23.83,13.76a2,2,0,0,1-2,0L92,179.82A2,2,0,0,1,92,176.39Z"/><path class="cls-6" d="M55.6,141.52l12.27-7.08a2,2,0,0,1,2,0l12.27,7.09a2,2,0,0,1,0,3.42L69.85,152a2,2,0,0,1-2,0L55.6,145A2,2,0,0,1,55.6,141.52Z"/><path class="cls-7" d="M192.43,187.39l5.85-3.37a2,2,0,0,1,2,0l5.85,3.37a2,2,0,0,1,0,3.43l-5.85,3.38a2,2,0,0,1-2,0l-5.85-3.38A2,2,0,0,1,192.43,187.39Z"/><path class="cls-8" d="M150.47,186.16l5.85-3.37a2,2,0,0,1,2,0l5.85,3.37a2,2,0,0,1,0,3.43L158.3,193a2,2,0,0,1-2,0l-5.85-3.38A2,2,0,0,1,150.47,186.16Z"/><path class="cls-9" d="M57.11,162.14,63,158.76a2,2,0,0,1,2,0l5.85,3.38a2,2,0,0,1,0,3.43L64.94,169a2,2,0,0,1-2,0l-5.86-3.38A2,2,0,0,1,57.11,162.14Z"/><polygon class="cls-10" points="80.97 122.29 212.93 198.48 241.08 182.69 109.12 106.5 80.97 122.29"/><path class="cls-11" d="M144,136.1l-21.84,3.11c6.06-.86,11.37-4.22,15.54-9.67l21.85-3.11C155.35,131.88,150,135.24,144,136.1Z"/><path class="cls-12" d="M147.74,90.27c0,.22-.06.44-.08.66,1.35-11.83,6.85-19.37,14.28-20.42l19.48-2.78,2.36-.33a11.59,11.59,0,0,0-2.34.57c-6.29,2.19-10.82,9.43-12,20.13h0Z"/><path class="cls-13" d="M147.57,91.77q0-.42.09-.84C147.63,91.21,147.59,91.49,147.57,91.77Z"/><path class="cls-14" d="M203.67,146.13l-21.84,3.11a16.37,16.37,0,0,1-10-2.14,29.79,29.79,0,0,1-5.62-4l21-3.89a30.34,30.34,0,0,0,6.46,4.78A16.33,16.33,0,0,0,203.67,146.13Z"/><path class="cls-15" d="M187.2,139.21l-21,3.88C156,134,148.25,116.48,147.41,99.78c0-1-.08-2.06-.08-3.09a50.1,50.1,0,0,1,.41-6.42l21.73-2.17a50.53,50.53,0,0,0-.29,5.48c0,15.62,6.32,32.45,15.33,42.81C185.39,137.39,186.28,138.34,187.2,139.21Z"/><path class="cls-16" d="M161,48.5l-21.84,3.11c-5.77-15-14.19-28.37-23.94-37.27A51.16,51.16,0,0,0,105.09,7c-6.15-3.31-12-4.45-17.28-3.7L109.66.22c5.28-.75,11.13.39,17.28,3.69a44.58,44.58,0,0,1,4.25,2.61Q133.28,8,135.3,9.67c.87.73,1.74,1.51,2.6,2.32.43.4.86.82,1.28,1.24h0C148,22.07,155.68,34.55,161,48.5Z"/><path class="cls-17" d="M161,48.5l-21.84,3.11c-5.77-15-14.19-28.37-23.94-37.27L135.3,9.67c.87.73,1.74,1.51,2.6,2.32.43.4.86.82,1.28,1.24h0C148,22.07,155.68,34.55,161,48.5Z"/><path class="cls-18" d="M136.76,107.53l-13.67,2-8.18,1.16a16.19,16.19,0,0,1-10-2.14C95.13,103.25,86.69,90,82.76,75.32a67.11,67.11,0,0,1-2.34-16.68v-.55c0-15.13,6-25,14.61-26.18l21.84-3.11C108.3,30,102.29,39.85,102.26,55c0,19.43,9.81,40.72,22.33,49.11h0a24.1,24.1,0,0,0,2.15,1.3A16.33,16.33,0,0,0,136.76,107.53Z"/><path class="cls-19" d="M124.59,104.09l-1.5,5.39-8.18,1.16a16.19,16.19,0,0,1-10-2.14C95.13,103.25,86.69,90,82.76,75.32a67.11,67.11,0,0,1-2.34-16.68v-.55L102.26,55C102.23,74.41,112.07,95.7,124.59,104.09Z"/><path class="cls-20" d="M172,45.63a29.91,29.91,0,0,0-14.13-3.92c-7.36,0-13.81,3.51-18.69,9.9-5.77-15-14.19-28.37-23.94-37.27A51.16,51.16,0,0,0,105.09,7C81.73-5.52,62.67,13.09,62.6,48.52c0,.94,0,1.89,0,2.83,0,.54,0,1.08.06,1.63s0,1.05.07,1.59C64.68,88,82.51,123.1,104.31,135.22l.54.3c6.15,3.3,12,4.44,17.28,3.69,6.05-.86,11.37-4.22,15.54-9.67l.37.94a107.81,107.81,0,0,0,16.68,29.05,59.09,59.09,0,0,0,17.05,14.59c22.67,12.18,41.3-5,42.42-38.43q.06-1.51.06-3.06C214.32,97.2,195.36,58.17,172,45.63ZM129.3,89.19c-1,10.9-5.43,18.34-11.65,20.74-3.73,1.44-8.09,1.07-12.75-1.43C91.48,101.3,80.57,79,80.42,58.62v-.53C80.46,37.56,91.5,26.78,105,34s24.52,29.89,24.48,50.42C129.52,86.1,129.44,87.68,129.3,89.19Zm42.51,57.91a29.4,29.4,0,0,1-5.62-4h0C156,134,148.25,116.48,147.41,99.78c0-1-.08-2.06-.08-3.09,0-.74,0-1.46,0-2.17.06-1.47.18-2.89.36-4.25,1.48-11.46,6.91-18.73,14.2-19.76h0a16.33,16.33,0,0,1,10,2.14c13.54,7.28,24.52,29.89,24.48,50.42S185.35,154.37,171.81,147.1Z"/><path class="cls-21" d="M236.09,129.52c0,1.11,0,2.22-.06,3.3a81.09,81.09,0,0,1-1.19,11.39c-.17.94-.35,1.86-.55,2.76-3.59,16.07-12.23,26.14-23.4,27.73l-21.84,3.11c13.92-2,23.92-17.14,25.08-40.68q.12-2.2.12-4.5c.07-35.43-18.89-74.46-42.25-87a29.94,29.94,0,0,0-14.13-3.92,23.47,23.47,0,0,0-3.15.22l3.6-.51,18.25-2.6c5.28-.75,11.13.4,17.28,3.7C217.21,55.06,236.16,94.09,236.09,129.52Z"/><path class="cls-22" d="M127.88,123.47l-5.75,15.74c-5.29.75-11.13-.39-17.28-3.69l-.54-.3C82.51,123.1,64.68,88,62.77,54.57c0-.54-.05-1.07-.07-1.59s0-1.09-.06-1.63l.12-.3,3.38,8.82c2.35,7.11,4.42,1.38,14.28-1.78h0c0,20.53,11,43.14,24.48,50.41,4.64,2.49,9,2.87,12.7,1.45l.13,0,10.36,7C130.14,119.41,128.82,120.45,127.88,123.47Z"/><path class="cls-23" d="M129.52,84.46c0-20.53-11-43.14-24.48-50.42l-4.63-8.24c-3.34-5.41-2.71-7.69,3.49-9l11.34-2.41c9.75,8.9,18.17,22.23,23.94,37.27h0a67.13,67.13,0,0,0-8.71,25.44Z"/><path class="cls-24" d="M214.25,132.63c0,1-.08,3.5-.12,4.5l-9.27,5.55c-3.4,2-4.39-1.88-5.27-5.74l-3.16-13.88c0-20.53-10.94-43.14-24.48-50.42a16.33,16.33,0,0,0-10-2.14L168,59.57c.88-2.32,0-3-1.08-5.2l-9.08-12.66A29.91,29.91,0,0,1,172,45.63C195.36,58.17,214.32,97.2,214.25,132.63Z"/><path class="cls-25" d="M236.09,129.52c0,1.11-22,7.61-22,7.61q.12-2.2.12-4.5c.07-35.43-18.89-74.46-42.25-87a29.94,29.94,0,0,0-14.13-3.92l.45-.29,18.25-2.6c5.28-.75,11.13.4,17.28,3.7C217.21,55.06,236.16,94.09,236.09,129.52Z"/><path class="cls-26" d="M166.19,143.09l-4.14.32a9.22,9.22,0,0,0-8.35,11l1,5.13A107.81,107.81,0,0,1,138,130.48l-.37-.94c6.38-12.34,8.87-27.26,9.71-35,0,.71,0,1.43,0,2.17,0,1,0,2.06.08,3.09.84,16.7,8.58,34.19,18.78,43.31Z"/><path class="cls-27" d="M90.74,140.88a2.19,2.19,0,0,0-.79,2c.16,1.3-.93,1-.93,1l-.77-2.79Z"/><circle class="cls-28" cx="89.95" cy="139.05" r="2.21"/><path class="cls-29" d="M94.79,146a5.14,5.14,0,0,0-.92,2.1l-3.4,4.13-2-4.13,2.1,6.88L94,149.69a.26.26,0,0,1,.39,0c.42.44,1.42,1.1,2.15-1.3l-1.7-1.11Z"/><polygon class="cls-30" points="86.83 152.94 85.05 188.43 85.11 189.72 85.24 192.14 85.61 192.14 85.71 190.68 88.15 191.86 89.79 191.79 87.4 189.81 85.9 188.57 90.63 154.89 86.83 152.94"/><path class="cls-31" d="M85.12,189.72l.12,2.42h.38l.09-1.46,2.44,1.18,1.64-.07-2.39-2C87.05,190.17,86.39,190.32,85.12,189.72Z"/><polygon class="cls-32" points="88.23 157.57 88.4 159.69 89.15 169.47 89.22 170.51 90.95 193.06 91.02 194.35 91.14 196.78 91.52 196.78 91.61 195.31 94.05 196.5 95.69 196.43 93.3 194.44 91.81 193.21 92.14 170.73 92.03 159.53 91.47 159.24 88.75 157.84 88.23 157.57"/><path class="cls-33" d="M92.48,149.68a10.13,10.13,0,0,0,.09,5.17s2.58,6.79-.26,33c0,0-5.2-3.62-8.47-4.08,0,0-1.74-21.36,1-27.09,1.34-2.78,2.09-6.6,1.15-8.51-.65-1.34.09-3.74.71-5.29a1.64,1.64,0,0,1,2.11-.94h0a6.93,6.93,0,0,1,3.28,3.51A5.76,5.76,0,0,1,92.48,149.68Z"/><path class="cls-34" d="M91,194.35l.12,2.43h.38l.09-1.46,2.44,1.18,1.64-.07-2.39-2C93,194.8,92.3,195,91,194.35Z"/><path class="cls-35" d="M92,163.86l-.89.14a.51.51,0,0,0-.43.45h0l1.11.11Z"/><path class="cls-36" d="M92.11,148.38l-.34,7.28,1.58,8.83-.76,1.18a1.61,1.61,0,0,1-2.31.43l-.65-.48a.4.4,0,0,1,.19-.73l1.47-.16.7-.87-1.44-6.23a9.31,9.31,0,0,1-.56-5.34l.17-6.7a.83.83,0,0,1,1.61-.06A7.19,7.19,0,0,1,92.11,148.38Z"/><path class="cls-37" d="M85.61,155c1.22-2,.74-.11,2.87-1.36s1.52-5.08.36-7,.1-3,1.16-5c.11-.19.4-.27.46-.44a1.58,1.58,0,0,1-1-.49c-.33-.37-.43-.82-.21-1s.66-.06,1,.31a1.29,1.29,0,0,1,.24.35,2.15,2.15,0,0,0,0-.93,2.07,2.07,0,0,1-.06-.5,1.94,1.94,0,0,1,0-.24l-.32-.41.36.21a1.64,1.64,0,0,1,.18-.48l-.23-.39.36.19h0c.19-.25.37-.23.36-.52l.19.22.27-.19c-.25-1.56-1.78-1.54-3.81-.82-1.83.66-3.26,3.73-3.75,9A19.1,19.1,0,0,0,85.61,155Z"/><polygon class="cls-38" points="99.86 144.21 97.79 153.6 93.87 150.95 95.32 143.14 99.86 144.21"/><path class="cls-39" d="M185.74,46.15s5.85-2.26,4,2.29A13.57,13.57,0,0,1,183.78,55s-6.92,35.21-8.73-4.94Z"/><path class="cls-40" d="M169.47,88.1c0,.22-.05.44-.07.66,0-.22,0-.44.07-.66Z"/><g class="cls-41"><path class="cls-42" d="M43.07,124.19h0V89.81H37.78v34.38h0a1.3,1.3,0,0,0,.77,1.1,4.13,4.13,0,0,0,3.75,0A1.3,1.3,0,0,0,43.07,124.19Z"/><path class="cls-43" d="M38.55,90.89a1.14,1.14,0,0,1,0-2.16,4.13,4.13,0,0,1,3.75,0,1.14,1.14,0,0,1,0,2.16A4.19,4.19,0,0,1,38.55,90.89Z"/></g><g class="cls-41"><path class="cls-44" d="M54.41,117.75h0V74.62H49.12v43.13h0a1.31,1.31,0,0,0,.78,1.11,4.17,4.17,0,0,0,3.74,0A1.32,1.32,0,0,0,54.41,117.75Z"/><ellipse class="cls-45" cx="51.77" cy="74.62" rx="2.65" ry="1.53"/></g><g class="cls-41"><path class="cls-46" d="M20,137.21h0V94.08H14.69v43.13h0a1.3,1.3,0,0,0,.77,1.1,4.13,4.13,0,0,0,3.75,0A1.3,1.3,0,0,0,20,137.21Z"/><path class="cls-47" d="M15.46,95.16a1.14,1.14,0,0,1,0-2.16,4.13,4.13,0,0,1,3.75,0,1.14,1.14,0,0,1,0,2.16A4.19,4.19,0,0,1,15.46,95.16Z"/></g><g class="cls-41"><path class="cls-48" d="M8.18,144.32h0V120.88H2.9v23.44h0a1.3,1.3,0,0,0,.77,1.11,4.17,4.17,0,0,0,3.74,0A1.29,1.29,0,0,0,8.18,144.32Z"/><ellipse class="cls-49" cx="5.54" cy="120.88" rx="2.65" ry="1.53"/></g><g class="cls-41"><path class="cls-50" d="M31.73,130.86h0V74.61H26.44v56.25h0a1.32,1.32,0,0,0,.77,1.11A4.17,4.17,0,0,0,31,132,1.32,1.32,0,0,0,31.73,130.86Z"/><ellipse class="cls-51" cx="29.08" cy="74.61" rx="2.65" ry="1.53"/></g><path class="cls-52" d="M182,30.5l-.44,4.08a11.1,11.1,0,0,1-2.65,6.08l-2.81,3.22.25,1.32,2.46-1.5a11.08,11.08,0,0,0,5.27-9.05l.14-4.15Z"/><polygon class="cls-53" points="171.71 68.26 175.05 65.86 175.26 64.74 177.7 52.12 180.87 49.77 185.74 46.15 185.74 42.49 182.59 41.68 175.73 49.84 174.25 64.17 174.17 64.99 171.71 68.26"/><polygon class="cls-37" points="185.74 46.15 177.7 52.12 175.9 61.46 173.45 61.46 175.05 50.02 182.59 41.68 185.74 42.49 185.74 46.15"/><path class="cls-54" d="M174.94,70.46l3.33-2.4.29-1.47,2.37-12.27,6.82-5.07A3.21,3.21,0,0,0,189,46.66v-2l-3.15-.82-.07.09-4.87,5.8L179,52l-1.44,14-.13,1.18Z"/><path class="cls-37" d="M187.75,49.25l-6.82,5.07-1.8,9.34h-2.45l1.59-11.43,3.36-3.72a5.25,5.25,0,0,0,1.18-4.35l-.13-.77,3.13.49,3.15.81v2A3.21,3.21,0,0,1,187.75,49.25Z"/><polygon class="cls-37" points="177.39 67.19 174.94 70.46 178.27 68.06 178.56 66.59 177.51 66.01 177.39 67.19"/><polygon class="cls-37" points="175.05 65.86 175.26 64.74 174.25 64.17 174.17 64.99 171.71 68.26 175.05 65.86"/><path class="cls-55" d="M183.11,28.72h0A1.84,1.84,0,0,0,182,30.5l.57,11.18s-2.69,4.43,6.37,3l.94-12a2.87,2.87,0,0,0-.82-2.25l-.13-.13A6,6,0,0,0,183.11,28.72Z"/><polygon class="cls-56" points="182.89 50.95 186.41 48.51 180.07 44.47 176.78 47.34 182.89 50.95"/><polygon class="cls-57" points="175.53 40.82 176.78 47.34 182.89 50.95 182.08 44.56 175.53 40.82"/><path class="cls-58" d="M182.79,50.2l1.29-.89a.93.93,0,0,0,0-1.55l-1.7-1.08Z"/><path class="cls-59" d="M176.12,43.88l1.17,3.18-.51.28s-1.25-.1-1.36-2.49C175.4,44.46,175.86,44.39,176.12,43.88Z"/><path class="cls-60" d="M182.83,48.74s.47-1.91,1.56-1.23,4.83-7.88,4.83-7.88l-1.16-3.57a8.1,8.1,0,0,1-.23-4.2h0a1,1,0,0,1,1.93-.09l2.33,7.65s-3.44,8.18-7.4,9.59C184.05,49.23,183.49,48.91,182.83,48.74Z"/><path class="cls-61" d="M185.57,27l-.48,1.31s-.75,2.51-.2,2.61.41-1.26,1.21-1.77,1.14-2.53,1.14-2.53Z"/><circle class="cls-62" cx="187.01" cy="25.83" r="2.69"/><path class="cls-37" d="M193.46,22.18a7.41,7.41,0,0,1-4,4.76,3.47,3.47,0,0,0,.19-.6l-1.87-.49s-.52.62-.91.47-.67.56-.67.56-.1-1.95-.73-.71a1.24,1.24,0,0,0,0,1.17,1.27,1.27,0,0,1-1.06.17,7.54,7.54,0,0,1-4.91-9.27,7.24,7.24,0,0,1,13.94,3.94Z"/><path class="cls-63" d="M1.59,165.41s2.73,16,13.47,14.74l34.13-20c4.15-2.26,3.53-6.27-.49-8.76l-4.2-2.59Z"/><polygon class="cls-64" points="36.41 135.45 36.41 131.25 47.33 137.56 43.66 139.68 36.41 135.45"/><path class="cls-65" d="M47.33,145.43v-7.87l-36.41,21v12.61l32.31-18.65A8.21,8.21,0,0,0,47.33,145.43Z"/><path class="cls-66" d="M4,167.18l6.94,4V158.58L0,152.27v8A8,8,0,0,0,4,167.18Z"/><polygon class="cls-67" points="0 152.27 36.41 131.25 36.41 135.45 3.64 154.37 0 152.27"/><polygon class="cls-68" points="43.66 139.68 36.41 135.45 3.64 154.37 10.92 158.58 43.66 139.68"/><path class="cls-69" d="M36.41,141.45s-2.93-8.21-9-5.67,1.59,8.87-6.75,4.59-6.38,13.69-6.38,13.69Z"/><path class="cls-70" d="M39.1,139.92s-.32-10.8-5.25-10.25S35.68,147,28.8,139.84s-4.93,8.22-11.8,6.33-11.38-12.7-11.81-1S10.89,156,10.89,156Z"/><path class="cls-71" d="M242,195.41a1.28,1.28,0,0,1-1.34-1.14L228.89,85.88a1.28,1.28,0,1,1,2.55-.28L243.19,194a1.28,1.28,0,0,1-1.13,1.42Z"/><path class="cls-72" d="M216.54,105.39a1.28,1.28,0,0,1-.36-2.45l14.59-6.27a1.28,1.28,0,1,1,1,2.35L217.2,105.3A1.27,1.27,0,0,1,216.54,105.39Z"/><path class="cls-73" d="M218,119.3a1.3,1.3,0,0,1-1-.77,1.28,1.28,0,0,1,.67-1.68l14.59-6.28a1.28,1.28,0,0,1,1,2.36l-14.59,6.27A1.35,1.35,0,0,1,218,119.3Z"/><path class="cls-74" d="M219.46,133.35a1.28,1.28,0,0,1-.35-2.44l14.58-6.28a1.28,1.28,0,1,1,1,2.35l-14.59,6.28A1.25,1.25,0,0,1,219.46,133.35Z"/><path class="cls-75" d="M220.93,147.26a1.28,1.28,0,0,1-.36-2.45l14.59-6.27a1.28,1.28,0,0,1,1,2.35l-14.58,6.28A1.27,1.27,0,0,1,220.93,147.26Z"/><path class="cls-76" d="M222.39,161.32a1.28,1.28,0,0,1-.36-2.45l14.59-6.27a1.28,1.28,0,0,1,1,2.35l-14.58,6.28A1.27,1.27,0,0,1,222.39,161.32Z"/><path class="cls-77" d="M223.85,175.23a1.28,1.28,0,0,1-.35-2.45l14.58-6.28a1.29,1.29,0,0,1,1.69.67,1.27,1.27,0,0,1-.67,1.68l-14.59,6.28A1.37,1.37,0,0,1,223.85,175.23Z"/><path class="cls-78" d="M225.3,189.51a1.28,1.28,0,0,1-.36-2.45l14.59-6.27a1.28,1.28,0,1,1,1,2.35L226,189.41A1.13,1.13,0,0,1,225.3,189.51Z"/><ellipse class="cls-79" cx="110.73" cy="102.61" rx="9.37" ry="4.06" transform="translate(-20.17 27.4) rotate(-12.94)"/><path class="cls-80" d="M226.07,202.4a1.28,1.28,0,0,1-1.32-1.16L214.51,92.69a1.28,1.28,0,0,1,2.55-.24L227.3,201a1.29,1.29,0,0,1-1.15,1.4Z"/><path class="cls-81" d="M117.78,95.27c-.63.46-1.09,1-1.87,1.08-4.83.18-10.93-2.22-10.93-2.22l-.39-4.7-.22-2.69L104.22,85a1.14,1.14,0,0,1,.29-.88,1.23,1.23,0,0,1,.87-.37,1.11,1.11,0,0,1,.94.52A9.14,9.14,0,0,1,107.59,87h0a8.84,8.84,0,0,1,.27,1.62v.15l.24,3.74s6.6,3.25,7.48,2.06S117.78,95.27,117.78,95.27Z"/><path class="cls-37" d="M103.05,105.24l1.29-8.19,5.7-2.21L119,97.05l-1.84,1.76-3.43.59a8.67,8.67,0,0,0-6.06,4.23h0l-2.1,2.59Z"/><path class="cls-37" d="M107.62,105.52l.47,4,1.46-4s9.65-4.36,10.22-5.43c.48-.9.42-5.82-4.76-1.28S107.62,105.52,107.62,105.52Z"/><path class="cls-37" d="M103.05,105.24l-.15,1.88c-.1,1.37,1.82,2,3.29,1.14l11.17-5.6,3.75,1.09-3.91-2.59Z"/><polygon class="cls-82" points="112.37 95.3 105.83 101.03 111.8 102.74 117.78 97.16 112.37 95.3"/><path class="cls-83" d="M108.54,88.51l-.68.16-3.27.76-.22-2.69.14-2.66a1.23,1.23,0,0,1,.87-.37,1.11,1.11,0,0,1,.94.52A9.14,9.14,0,0,1,107.59,87h0Z"/><path class="cls-84" d="M104.54,83.71h0a2.84,2.84,0,0,1,2.79,2.38L108.54,93s6.09,1.06-3.76,7.13l-5.46-9a3.37,3.37,0,0,1-.22-2.74l.08-.2A7,7,0,0,1,104.54,83.71Z"/><path class="cls-85" d="M112.3,100.07c-.63.47-1.09,1.05-1.87,1.08-4.83.18-10.92-2.22-10.92-2.22l-.4-4.73-.37-4.44a1.14,1.14,0,0,1,1.16-1.25,1.11,1.11,0,0,1,.94.52,9.19,9.19,0,0,1,1.55,4.59l.06,1h0l.17,2.77s6.6,3.25,7.48,2.06S112.3,100.07,112.3,100.07Z"/><path class="cls-86" d="M103.37,82.65l-.06,1.81s2,2.39,1.41,2.58-1.88-1.14-2.87-1.62-.16-3-.16-3Z"/><polygon class="cls-87" points="117.57 89.52 117.78 97.16 111.8 102.74 111.14 95.35 117.57 89.52"/><path class="cls-88" d="M102.45,94.59l-3.34-.39-.7-.08.33-4.36a1.14,1.14,0,0,1,1.16-1.25,1.11,1.11,0,0,1,.94.52,9.19,9.19,0,0,1,1.55,4.59Z"/><circle class="cls-89" cx="103.23" cy="82.08" r="2.39"/><path class="cls-37" d="M105.62,82s9.87-.92,9.86-5.08-14.76,3.47-14.76,3.47l.15,2.08s.45-1.51.92-.94-.11,1.64-.11,1.64l1-1.3Z"/><polygon class="cls-90" points="196.68 41.17 220.65 27.33 220.65 6.57 196.68 20.41 196.68 41.17"/><polygon class="cls-91" points="220.65 3.11 220.65 6.57 196.68 20.41 196.68 16.95 220.65 3.11"/><g class="cls-41"><path class="cls-92" d="M199.19,34.19l.06,0,2.9-1.67a.12.12,0,0,0,0-.16.13.13,0,0,0-.17-.05L199.13,34a.12.12,0,0,0,0,.16A.11.11,0,0,0,199.19,34.19Z"/></g><g class="cls-41"><path class="cls-93" d="M199.19,34.91l.06,0,2.9-1.67a.12.12,0,0,0,0-.16A.13.13,0,0,0,202,33l-2.9,1.68a.12.12,0,0,0,0,.16A.11.11,0,0,0,199.19,34.91Z"/></g><g class="cls-41"><path class="cls-94" d="M199.19,35.63l.06,0,2.9-1.67a.12.12,0,0,0,0-.16.13.13,0,0,0-.17-.05l-2.9,1.68a.12.12,0,0,0,0,.16A.11.11,0,0,0,199.19,35.63Z"/></g><g class="cls-41"><path class="cls-95" d="M199.19,36.35l.06,0,2.9-1.67a.12.12,0,0,0,0-.16.13.13,0,0,0-.17,0l-2.9,1.67a.14.14,0,0,0,0,.17A.11.11,0,0,0,199.19,36.35Z"/></g><g class="cls-41"><path class="cls-96" d="M200.23,36.46s.05,0,.06,0l1.86-1.06a.12.12,0,0,0,0-.16.13.13,0,0,0-.17,0l-1.86,1.07a.12.12,0,0,0,0,.16A.11.11,0,0,0,200.23,36.46Z"/></g><path class="cls-97" d="M202.21,30.53c0-.14-.09-.2-.21-.13l-2,1.14a.46.46,0,0,0-.21.37v.89c0,.13.09.19.21.12l2-1.13a.48.48,0,0,0,.21-.38Z"/><g class="cls-98"><path class="cls-99" d="M210.48,28.77a2.53,2.53,0,0,0,1-.2c1.75-.71,2.25-3.35,2.73-5.9.39-2.07.79-4.2,1.84-4.62a.76.76,0,0,1,.76.05c1.33.86,1.76,5.41,1.82,7.09a.3.3,0,1,0,.59,0c0-.65-.27-6.38-2.09-7.56a1.36,1.36,0,0,0-1.3-.11c-1.35.55-1.76,2.74-2.2,5.06s-.92,4.87-2.37,5.47-1.93-.36-2.67-1.38-1.66-2.29-3.37-1.27a1.3,1.3,0,0,1-1,.22c-.7-.19-1.23-1.17-1.75-2.12s-1.1-2-1.94-2.23a1.6,1.6,0,0,0-1.27.26.3.3,0,1,0,.32.5,1,1,0,0,1,.8-.19c.6.15,1.09,1.06,1.57,1.95.58,1.05,1.17,2.14,2.12,2.4a1.92,1.92,0,0,0,1.5-.28c1.2-.72,1.74-.08,2.6,1.11C208.65,27.81,209.35,28.77,210.48,28.77Z"/></g><path class="cls-100" d="M218.45,16.45c0-1.54-1.09-2.17-2.42-1.4a5.37,5.37,0,0,0-2.42,4.19c0,1.54,1.09,2.16,2.42,1.4A5.38,5.38,0,0,0,218.45,16.45Z"/><path class="cls-100" d="M217.38,17.06c0-.86-.61-1.21-1.35-.78a3,3,0,0,0-1.36,2.34c0,.86.61,1.22,1.36.79A3,3,0,0,0,217.38,17.06Z"/><path class="cls-101" d="M216.69,17.46c0-.42-.3-.59-.66-.38a1.44,1.44,0,0,0-.66,1.14c0,.42.29.6.66.39A1.48,1.48,0,0,0,216.69,17.46Z"/><path class="cls-102" d="M39.1,69.18l.2,2.71c.09,1.16.5,2.08,1,2.27l1.22.45-1.22.44c-.53.19-.94,1.11-1,2.28L39.1,80l-.2-2.7c-.09-1.17-.5-2.09-1-2.28l-1.22-.44,1.22-.45c.53-.19.94-1.11,1-2.27Z"/><path class="cls-103" d="M56.59,44.75l.38,5.1c.16,2.2.94,3.92,1.93,4.28l2.3.84-2.3.84c-1,.37-1.77,2.09-1.93,4.29l-.38,5.09-.38-5.09c-.17-2.2-.94-3.92-1.94-4.29L52,55l2.3-.84c1-.36,1.77-2.08,1.94-4.28Z"/><path class="cls-104" d="M29.92,13.71l.38,5.1c.16,2.19.94,3.92,1.93,4.28l2.31.84-2.31.84c-1,.36-1.77,2.08-1.93,4.28l-.38,5.1-.38-5.1c-.16-2.2-.94-3.92-1.93-4.28l-2.31-.84,2.31-.84c1-.36,1.77-2.09,1.93-4.28Z"/><ellipse class="cls-105" cx="65.86" cy="133.21" rx="5.36" ry="3"/><path class="cls-106" d="M58.83,116.9l.2.36a10.73,10.73,0,0,1,1.21,7.36l-.91,4.74a3.9,3.9,0,0,0,1.9,4.14h0a3.93,3.93,0,0,0,3.91,0h0A3.9,3.9,0,0,0,67,129.37l-.91-4.72a10.82,10.82,0,0,1,1.24-7.41l.2-.34Z"/><path class="cls-107" d="M67.57,116.9c0,.41-.67.78-1.71,1a13.24,13.24,0,0,1-5.32,0c-1-.23-1.71-.6-1.71-1,0-.7,2-1.27,4.37-1.27S67.57,116.2,67.57,116.9Z"/><path class="cls-108" d="M65.86,117.9h0a13.24,13.24,0,0,1-5.32,0h0c0-.43,1.19-.78,2.66-.78S65.86,117.47,65.86,117.9Z"/><path class="cls-109" d="M64.78,106c.06-2.26.1-4.64.08-7L63,98.86,64.85,98c0-1.7-.09-3.33-.19-4.84L63,91.86l1.49-.73c-.37-3.31-1-5.62-2.15-5.8s-1.51,1.54-1.7,4.24l1.63.47-1.68.47c0,.8,0,1.68,0,2.6l1.71.34-1.7.39c0,2.15.19,4.53.38,6.94l1.32.12L61,102.09c.06.69.06.7.13,1.39l1.54.69-1.43.51c.67,6.94,1.57,13.08,1.57,13.08h1.33s.29-3.47.49-9.18l-1.47.25Z"/><path class="cls-110" d="M63.44,117.77H61.61s-.52-1.5-1.22-3.76l1.51-.38-1.81-.6c-.79-2.57-1.74-5.89-2.48-9.09l2.18-.68-2.48-.65c-1.07-5-1.5-9.43.21-9.92,1.2-.35,2.21,1.67,3,4.7l-1.72,1.45,2.1.1c.49,2.13.79,3.77,1.13,6.18l-1.3,1.2,1.53.41c.14,1,.17,1.32.29,2.3l-1.23.88,1.39.42C63.21,114.51,63.44,117.77,63.44,117.77Z"/><path class="cls-111" d="M65.37,114c.39-1.29.81-2.78,1.18-4.29l-1.27-1.07,1.44.38a34.17,34.17,0,0,0,.79-4.38l-1.34-.54h1.38c.08-1.41-.1-2.4-.72-2.58-.86-.25-1.56,1.36-2.12,3.65l.57,1.58-.86-.29A107.23,107.23,0,0,0,63,117.77h1.19s.49-1.44,1.1-3.47l-.72-.77Z"/></g></g></g></svg>