<svg xmlns="http://www.w3.org/2000/svg" xmlns:xlink="http://www.w3.org/1999/xlink" viewBox="0 0 310.12 180.82"><defs><style>.cls-1{fill:#a8cfef;}.cls-2{fill:#f0f3fc;}.cls-3{fill:#e3eeff;}.cls-4{fill:#fcc;}.cls-5{fill:#ffdcdc;}.cls-6{fill:#fff;}.cls-7{fill:#f2f2f2;}.cls-8{fill:#59499e;}.cls-9{fill:#d8ccff;}.cls-10{fill:#ccdfff;}.cls-11{fill:#aa96f0;}.cls-12{fill:#c64a9a;}.cls-13{fill:#cee2ff;}.cls-14{fill:#83a7e1;}.cls-15{fill:#ff8686;}.cls-16{fill:#ff5e5d;}.cls-17{fill:#6b6b6b;}.cls-18{fill:#c6dce0;}.cls-19{fill:#aaa;}.cls-20{fill:#b4c8e6;}.cls-21{fill:#5886ce;}.cls-22{fill:#77c8e5;}.cls-23{fill:#cb1213;opacity:0.31;}.cls-24{fill:#b72985;}.cls-25{fill:#5c3dc6;}.cls-26{fill:#775dd4;}.cls-27{fill:url(#linear-gradient);}.cls-28{fill:#25a7df;}.cls-29{fill:#ffb3b3;}.cls-30{fill:#174287;}.cls-31{fill:#ccc;}.cls-32{fill:#d972b5;}.cls-33{fill:#edb6a4;}.cls-34{fill:#3f1cbc;}.cls-35{fill:#d3d1d1;}.cls-36{fill:#e6e6e6;}.cls-37{fill:#e0a494;}.cls-38{fill:#117fa5;}.cls-39{fill:#0d2f6b;}</style><linearGradient id="linear-gradient" x1="268.41" y1="84.44" x2="269.8" y2="84.44" gradientUnits="userSpaceOnUse"><stop offset="0" stop-color="#6655da"/><stop offset="1" stop-color="#ad4aaa"/></linearGradient></defs><title>2</title><g id="Capa_2" data-name="Capa 2"><g id="Capa_1-2" data-name="Capa 1"><rect class="cls-1" y="93.55" width="140" height="62"/><path class="cls-2" d="M164.82,12.55c-7,10.15-13.65,11.46-25.07,20.74s-6.56,21.76-12.08,32.12S110.41,77.88,108.18,86.7s19.17,8.7,12.82,30.77,22.86,29.46,47,12.18,27.91-28.72,48.07-30,42.63-36.88,28.14-50.15S243.18-9.6,188.55,1.8C165.9,8,164.82,12.55,164.82,12.55Z"/><path class="cls-3" d="M122.59,113.65C50,113.65-25.17,147.1,42.66,155.5c82.12,10.16,146.52,5.12,201.88,21.76,52.22,15.7,100.68-24.87,30.69-37.08C207.83,128.42,122.59,113.65,122.59,113.65Z"/><path class="cls-1" d="M219.51,77.43v-37A3.46,3.46,0,0,1,223,36.94h34.39a3.46,3.46,0,0,1,3.47,3.46V87.09a3.47,3.47,0,0,1-3.47,3.47H232.63Z"/><path class="cls-4" d="M255.5,56.23v37A3.46,3.46,0,0,1,252,96.73h-34.4a3.46,3.46,0,0,1-3.46-3.47V46.57a3.46,3.46,0,0,1,3.46-3.46h24.74Z"/><path class="cls-5" d="M255.5,56.23h-12a1.12,1.12,0,0,1-1.12-1.13v-12Z"/><rect class="cls-6" x="219.12" y="51.68" width="11.67" height="11.67"/><path class="cls-6" d="M234.26,70.09H220.61a1.49,1.49,0,0,1-1.49-1.49h0a1.5,1.5,0,0,1,1.49-1.5h13.65a1.5,1.5,0,0,1,1.49,1.5h0A1.49,1.49,0,0,1,234.26,70.09Z"/><rect class="cls-7" x="219.12" y="72.56" width="13.17" height="2.99"/><rect class="cls-7" x="219.12" y="80.87" width="16.63" height="2.99"/><path class="cls-6" d="M251.15,70.09h-9.49a1.49,1.49,0,0,1-1.49-1.49h0a1.5,1.5,0,0,1,1.49-1.5h9.49a1.5,1.5,0,0,1,1.49,1.5h0A1.49,1.49,0,0,1,251.15,70.09Z"/><path class="cls-6" d="M248.55,75.55h-6.89a1.5,1.5,0,0,1-1.49-1.5h0a1.49,1.49,0,0,1,1.49-1.49h6.89A1.49,1.49,0,0,1,250,74.05h0A1.5,1.5,0,0,1,248.55,75.55Z"/><rect class="cls-7" x="240.17" y="80.87" width="12.47" height="2.99"/><rect class="cls-7" x="219.12" y="86.33" width="13.17" height="2.99"/><rect class="cls-7" x="240.17" y="86.33" width="9.88" height="2.99"/><path class="cls-8" d="M269.19,73.19l.25,0h-.25Z"/><path class="cls-4" d="M245.49,159.46a11.13,11.13,0,0,1-4.4-4.23,7.6,7.6,0,0,1-.49-1c-.07-.17-.14-.35-.2-.53-1.46-4.56.53-10.17,4.26-13.06,5.41-4.18,12-1.84,17.85-.2a30.62,30.62,0,0,1,9.3,3.88c1,.7,2.3,1.91,1.9,3.28-.3,1.05-1.62,1.72-2.58,2a15.79,15.79,0,0,1-3.63.49,22.56,22.56,0,0,0-7.64,1.83,14.67,14.67,0,0,0-6.07,4.89c-.41.59-.78,1.22-1.2,1.79a5.17,5.17,0,0,1-1.33,1.31C249.55,161,247.26,160.44,245.49,159.46Z"/><path class="cls-6" d="M251.37,152.88a10.46,10.46,0,0,0-6.56-2.36c.54-.37,1.08-.72,1.63-1.07a57.78,57.78,0,0,1,5.89-3.22c.27-.13.55-.26.84-.38A3.14,3.14,0,0,1,256,147.7c.22.38.83.08.61-.31a4.54,4.54,0,0,0-2.25-2.06,15.89,15.89,0,0,1,6.25-1.36c1.25.1,1.9,1.27,2.43,2.26.2.39.81.08.61-.3a7.57,7.57,0,0,0-1.17-1.72,7.67,7.67,0,0,1,2.79,1.29c.35.26.73-.31.37-.57a8.62,8.62,0,0,0-2.2-1.16.19.19,0,0,0,0-.08h0l.09-.07h0a2.82,2.82,0,0,1,.29-.18.72.72,0,0,0,.39-.73.34.34,0,0,0-.67.09h0l0,0s0,0,0,0l-.08,0-.14.09a.92.92,0,0,0-.47.59,9.16,9.16,0,0,0-2.09-.29h-.16a12.41,12.41,0,0,0-2.77.28,4.84,4.84,0,0,0,.15-1,4.56,4.56,0,0,0,0-.64,1.74,1.74,0,0,1-.05-.75.35.35,0,0,0-.65-.23,2.65,2.65,0,0,0,0,1.12,4.16,4.16,0,0,1-.21,1.6.14.14,0,0,0,0,.07,24.3,24.3,0,0,0-4,1.43,2.79,2.79,0,0,0-.4.07.39.39,0,0,0-.24.21l-.73.35c-.92.44-1.82.9-2.71,1.4a6.3,6.3,0,0,0-.09-5.22c-.18-.39-.79-.09-.61.31a5.61,5.61,0,0,1-.21,5.22.3.3,0,0,0-.05.22c-1.22.71-2.42,1.46-3.59,2.26s-2.24,1.55-3.29,2.4a2.75,2.75,0,0,0-1,1.24,8.08,8.08,0,0,0,.49,1,.26.26,0,0,0,.19-.36c-.35-1.05,2-2.32,2.61-2.79l.46-.33a10.37,10.37,0,0,1,7.16,2.25C251.33,153.73,251.7,153.16,251.37,152.88Z"/><path class="cls-6" d="M263.48,136.86Z"/><polygon class="cls-6" points="263.48 136.86 263.48 136.86 263.48 136.86 263.48 136.85 263.48 136.86"/><path class="cls-9" d="M293.33,118c-.62-.28-1.24-.61-1.86-1l-1.9-1-2-1a22.64,22.64,0,0,1-2-1.09c-.69-.4-1.39-.89-2.12-1.36a14.49,14.49,0,0,0-2.25-1.22,7.47,7.47,0,0,0-2.34-.49,8.29,8.29,0,0,0-2.32.29,9.7,9.7,0,0,0-2.22.93c-.71.43-1.4.88-2.07,1.38l-1,.71c-.33.22-.66.45-1,.65a8.87,8.87,0,0,1-1,.53,8.25,8.25,0,0,1-1,.42c-.36.12-.72.19-1.09.28a4.77,4.77,0,0,1-1.15.13,8.06,8.06,0,0,1-2.81-.7l-1.66-.72c-.57-.25-1.15-.48-1.73-.7l-.44-.16-.43-.13a5.35,5.35,0,0,0-.82-.19,5.54,5.54,0,0,0-1.54-.12,4.35,4.35,0,0,0-2.39,1,7.17,7.17,0,0,0-1.68,2,19.27,19.27,0,0,0-1.58,5.66,11.69,11.69,0,0,1-1.63,4.76,7.1,7.1,0,0,1-3.6,2.62c-.74.32-1.53.63-2.25,1a6.6,6.6,0,0,0-1.8,1.39,5.93,5.93,0,0,0-1.07,1.92,15.93,15.93,0,0,0-.64,2.17,13.39,13.39,0,0,0-.31,2.31c0,.41,0,.81,0,1.21s0,.83.08,1.26a16,16,0,0,0,.48,2.61l.2.69.25.71c.09.23.17.46.28.71s.21.48.35.74v0a4.12,4.12,0,0,0,4.09,2.15,24.16,24.16,0,0,0,5.29-1.24c.72-.26,1.39-.54,2-.82s1.19-.61,1.73-.93,1-.68,1.5-1a7,7,0,0,0,.65-.55,3.13,3.13,0,0,0,.5-.65,4.09,4.09,0,0,0,.5-1.68c.09-.62.11-1.31.17-2a5.52,5.52,0,0,1,.43-1.83,3.1,3.1,0,0,1,1.08-1.27,4.24,4.24,0,0,1,1.71-.61,8.6,8.6,0,0,1,2.19.06c.78.11,1.6.31,2.33.46a5.07,5.07,0,0,1,.56.13c.19,0,.35.07.53.11a5.87,5.87,0,0,0,.95.12,2.74,2.74,0,0,0,1.45-.2,1.28,1.28,0,0,0,.85-1,10.19,10.19,0,0,0,.11-2.49c0-.51,0-1,0-1.57v-.81c0-.25,0-.5,0-.74a4.55,4.55,0,0,1,.71-2.24,3.08,3.08,0,0,1,1.36-.93,4,4,0,0,1,.78-.19,4.59,4.59,0,0,1,.83,0,7,7,0,0,1,1.73.41c.57.18,1.14.44,1.68.62.27.07.54.18.8.24a4.82,4.82,0,0,0,2.27.05,4,4,0,0,0,1.5-.67,15.19,15.19,0,0,0,1.58-1.21,15,15,0,0,1,1.71-1.19,17.81,17.81,0,0,1,3.62-1.3c.62-.13,1.25-.28,1.88-.38s1.27-.16,1.9-.19h.14a2.54,2.54,0,0,0,.94-4.85Z"/><path class="cls-6" d="M244.06,135c-1.24,1.53-1.37,4.38-.73,6.39,2.22-6.14,7.26-11,12.72-14.82a10.26,10.26,0,0,1,2.37-8c.33-.38.88.17.55.56a9.42,9.42,0,0,0-2.19,7l.45-.31a51.76,51.76,0,0,1,15.66-7.21s0,0,0,0a15.4,15.4,0,0,0,1.68-2.6,12.18,12.18,0,0,1,1.66-1.93.4.4,0,0,1,.56.56,10.94,10.94,0,0,0-1.79,2.17c-.31.5-.59,1.05-.92,1.55a38,38,0,0,1,8.63-1,.39.39,0,0,1,0,.78,36.91,36.91,0,0,0-5.26.38c.65,1.08,1.25,2.35,2.43,2.86.46.19.07.87-.38.67-1.42-.61-2.1-2.17-2.89-3.4a47,47,0,0,0-15.44,5.68c1.16,1.66,3.3,2.65,5.17,3.3.47.17.27.92-.2.76-2.09-.73-4.37-1.81-5.65-3.67-.54.31-1.08.63-1.6,1a42.35,42.35,0,0,0-11.85,10.45,4.48,4.48,0,0,0,3,.4,13.51,13.51,0,0,0,3.2-.86c.46-.2.85.48.39.68a15.23,15.23,0,0,1-4,1,4.92,4.92,0,0,1-3-.62,20.27,20.27,0,0,0-3.72,11.19.39.39,0,0,1-.78,0,19.81,19.81,0,0,1,.82-5.34c-1.12-2.33-1.09-6.05.56-8.1C243.82,134.06,244.37,134.62,244.06,135Z"/><path class="cls-10" d="M247.45,129.19a10.42,10.42,0,0,1-5.62-1.06,10.74,10.74,0,0,1-.92-.56c-.14-.1-.29-.21-.42-.32a11.75,11.75,0,0,1-3.36-12.42c2.09-6,8.43-7.58,13.88-9.31a28.75,28.75,0,0,1,9.28-1.73c1.14,0,2.78.31,3.17,1.6.3,1-.39,2.17-1,2.9a15.12,15.12,0,0,1-2.6,2.25,21.23,21.23,0,0,0-5,5.35,13.83,13.83,0,0,0-2.25,7c0,.66,0,1.35,0,2a4.77,4.77,0,0,1-.37,1.71C251.4,128.29,249.34,129.05,247.45,129.19Z"/><path class="cls-6" d="M248.68,121a9.82,9.82,0,0,0-6.35,1.52c.23-.56.47-1.12.73-1.67a54.59,54.59,0,0,1,3-5.55l.46-.73a3,3,0,0,1,3.19,0c.37.18.69-.37.32-.56a4.31,4.31,0,0,0-2.82-.46,15,15,0,0,1,4.2-4.27c1-.56,2.14,0,3.06.53a.32.32,0,0,0,.32-.55,7.42,7.42,0,0,0-1.79-.76,7.33,7.33,0,0,1,2.84-.41c.41,0,.42-.62,0-.64a7.73,7.73,0,0,0-2.33.23.24.24,0,0,0,0-.08h0a.33.33,0,0,0,0-.1h0c0-.1.1-.19.14-.29a.66.66,0,0,0-.07-.77c-.26-.3-.7.11-.47.42h0l0,0a.11.11,0,0,1,0,0l0,.07s0,.1-.07.14a.85.85,0,0,0-.06.71,9.13,9.13,0,0,0-1.79.84l-.06,0-.07,0a12.09,12.09,0,0,0-2,1.64,4.65,4.65,0,0,0-.39-.85,4.26,4.26,0,0,0-.34-.49c-.14-.17-.37-.35-.43-.57a.32.32,0,0,0-.62.16,2.64,2.64,0,0,0,.59.86,3.66,3.66,0,0,1,.66,1.36.14.14,0,0,0,0,.06,24.12,24.12,0,0,0-2.42,3.19,3.25,3.25,0,0,0-.27.26.31.31,0,0,0-.08.28l-.39.65q-.75,1.23-1.41,2.49a5.92,5.92,0,0,0-2.74-4c-.35-.22-.67.33-.33.55a5.25,5.25,0,0,1,2.51,4.2.4.4,0,0,0,.08.2c-.59,1.18-1.15,2.39-1.66,3.61s-.95,2.36-1.34,3.57a2.56,2.56,0,0,0-.15,1.48,7.18,7.18,0,0,0,.91.56.24.24,0,0,0,0-.38c-.8-.64.36-2.83.62-3.53.07-.16.13-.33.2-.49a9.66,9.66,0,0,1,6.76-1.9C249.08,121.7,249.09,121.06,248.68,121Z"/><path class="cls-6" d="M253.46,107.6Z"/><polygon class="cls-6" points="253.46 107.6 253.46 107.6 253.46 107.59 253.46 107.59 253.46 107.6"/><path class="cls-10" d="M196.08,40.45c0,1.76-.87,3.7-2.67,4.18a3,3,0,0,1-2.35-.33,3.76,3.76,0,0,1-1.45-1.77,7.61,7.61,0,0,1-.05-5.78,7,7,0,0,1,5.55-4c.32,0,.65-.06,1-.07a.18.18,0,0,1,.18.18.18.18,0,0,1-.14.18,7.43,7.43,0,0,0-3.45,3.08s1,.45,1.15.52a5.19,5.19,0,0,1,1.1.88A4.25,4.25,0,0,1,196.06,40C196.07,40.16,196.08,40.3,196.08,40.45Z"/><path class="cls-10" d="M206.68,40.45c0,1.76-.87,3.7-2.67,4.18a3,3,0,0,1-2.35-.33,3.76,3.76,0,0,1-1.45-1.77,7.61,7.61,0,0,1-.05-5.78,7,7,0,0,1,5.55-4c.32,0,.65-.06,1-.07a.18.18,0,0,1,.18.18.18.18,0,0,1-.14.18,7.43,7.43,0,0,0-3.45,3.08s1,.45,1.15.52a5.19,5.19,0,0,1,1.1.88A4.25,4.25,0,0,1,206.66,40C206.67,40.16,206.68,40.3,206.68,40.45Z"/><path class="cls-11" d="M64,71.34a1.82,1.82,0,0,1,0,.32.11.11,0,0,0,0,0L44.85,148.12a.74.74,0,0,1-.87.49.65.65,0,0,1-.57-.74L59.71,71a2.76,2.76,0,0,1,.08-.27,3.4,3.4,0,0,0,2,.64Z"/><path class="cls-12" d="M104.32,68.27a3.16,3.16,0,0,1-.93,2.24,1.27,1.27,0,0,1-.13.11,3.13,3.13,0,0,1-2.12.82H61.81a3.18,3.18,0,0,1,0-6.35h39.33A3.18,3.18,0,0,1,104.32,68.27Z"/><path class="cls-11" d="M77.66,133.71a.67.67,0,0,1-.65.72.71.71,0,0,1-.8-.54L65.15,71.6l0-.26h4.32Z"/><path class="cls-11" d="M98,71.34a1.82,1.82,0,0,1,0,.32s0,0,0,0L78.84,148.12a.73.73,0,0,1-.87.49.64.64,0,0,1-.56-.74L93.62,71.34Z"/><path class="cls-11" d="M110.16,133.71a.67.67,0,0,1-.64.72.74.74,0,0,1-.82-.54l-11-62.29a2.6,2.6,0,0,1,0-.26h2a3.38,3.38,0,0,0,2.13-.72,1.33,1.33,0,0,1,.12.4s0,0,0,.07Z"/><path class="cls-13" d="M71.26,137.62h48.2a0,0,0,0,1,0,0v14.83a0,0,0,0,1,0,0H71.26A7.41,7.41,0,0,1,63.85,145v0a7.41,7.41,0,0,1,7.41-7.41Z"/><path class="cls-14" d="M120.73,153.72H69.19a6.62,6.62,0,0,1-6.61-6.61V143a6.62,6.62,0,0,1,6.61-6.61h51.54ZM69.19,138.89A4.07,4.07,0,0,0,65.12,143v4.15a4.07,4.07,0,0,0,4.07,4.07h49V138.89Z"/><path class="cls-13" d="M59.45,118h48.2a0,0,0,0,1,0,0v14.83a0,0,0,0,1,0,0H59.45A7.41,7.41,0,0,1,52,125.38v0A7.41,7.41,0,0,1,59.45,118Z" transform="translate(-22.03 17.14) rotate(-10.78)"/><path class="cls-14" d="M110,128.47,59.4,138.11a6.62,6.62,0,0,1-7.73-5.26l-.77-4.08a6.6,6.6,0,0,1,5.25-7.72l50.64-9.64Zm-53.41-4.93a4.07,4.07,0,0,0-3.24,4.76l.78,4.08a4.07,4.07,0,0,0,4.75,3.23l48.15-9.16-2.3-12.07Z"/><path class="cls-15" d="M64.58,137.61l-2.89-2a.11.11,0,0,0-.15,0l-2,2.89a.1.1,0,0,1-.19,0L57.2,126.85a.11.11,0,0,1,.09-.13l5.15-1a.1.1,0,0,1,.12.09l2.19,11.68A.11.11,0,0,1,64.58,137.61Z"/><path class="cls-15" d="M74.41,154l-2.47-2.47a.11.11,0,0,0-.15,0L69.32,154a.11.11,0,0,1-.19-.07V142.25a.11.11,0,0,1,.11-.11h5.25a.11.11,0,0,1,.1.11V153.9A.1.1,0,0,1,74.41,154Z"/><path class="cls-16" d="M85.1,116.68h25.29a0,0,0,0,1,0,0v38.74a0,0,0,0,1,0,0H85.1a4.57,4.57,0,0,1-4.57-4.57V121.25A4.57,4.57,0,0,1,85.1,116.68Z"/><path class="cls-15" d="M110.38,116.68V155c-.36-.24-.73-.46-1.1-.68-7.41-4.35-15.82-5.2-25-3.4v-38.3c9.16-1.81,17.57-.94,25,3.4C109.65,116.22,110,116.44,110.38,116.68Z"/><path class="cls-16" d="M115,116.68h25.29a0,0,0,0,1,0,0v38.74a0,0,0,0,1,0,0H115a4.57,4.57,0,0,1-4.57-4.57V121.25a4.57,4.57,0,0,1,4.57-4.57Z" transform="translate(250.62 272.1) rotate(180)"/><path class="cls-16" d="M136.46,112.61v38.3c-9.16-1.8-17.56-.95-25,3.4-.36.22-.73.44-1.1.68V116.68c.37-.24.74-.46,1.1-.67C118.9,111.67,127.3,110.8,136.46,112.61Z"/><path class="cls-17" d="M241.2,68.55H123.11a3.68,3.68,0,0,0-3.28,2,3.63,3.63,0,0,0-.41,1.68V147.9H244.89V72.24A3.69,3.69,0,0,0,241.2,68.55Zm0,66.7a1.47,1.47,0,0,1-1.47,1.47H124.58a1.47,1.47,0,0,1-1.47-1.47V76.67a1.47,1.47,0,0,1,1.47-1.47H239.73a1.47,1.47,0,0,1,1.47,1.47Z"/><path class="cls-18" d="M241.2,76.67v71H123.11v-71a1.48,1.48,0,0,1,1.47-1.48H239.73A1.48,1.48,0,0,1,241.2,76.67Z"/><path class="cls-19" d="M112.44,147.9H251.87a.77.77,0,0,1,.77.77v0a9.58,9.58,0,0,1-9.58,9.58H121.25a9.58,9.58,0,0,1-9.58-9.58v0a.77.77,0,0,1,.77-.77Z"/><path class="cls-17" d="M192.64,153.62h-21A5.72,5.72,0,0,1,166,147.9h32.4A5.73,5.73,0,0,1,192.64,153.62Z"/><rect class="cls-20" x="129.87" y="89.27" width="31.27" height="32.75" rx="4"/><path class="cls-20" d="M145.6,133.37h-13a2.75,2.75,0,0,1-2.75-2.74h0a2.75,2.75,0,0,1,2.75-2.74h13a2.74,2.74,0,0,1,2.74,2.74h0A2.74,2.74,0,0,1,145.6,133.37Z"/><path class="cls-20" d="M154.87,142.18H132.62a2.75,2.75,0,0,1-2.75-2.74h0a2.75,2.75,0,0,1,2.75-2.74h22.25a2.74,2.74,0,0,1,2.74,2.74h0A2.74,2.74,0,0,1,154.87,142.18Z"/><path class="cls-21" d="M168.53,68.55h-9.9a5,5,0,0,1,9.9,0Z"/><path class="cls-22" d="M212.27,63.6H163.58a4.94,4.94,0,0,1,4.95,4.94h0V129a3,3,0,0,0,2.95,3h42.78a3,3,0,0,0,3-3V68.55A5,5,0,0,0,212.27,63.6Z"/><rect class="cls-13" x="175.08" y="70.08" width="14.15" height="14.15" rx="4"/><path class="cls-13" d="M205.2,76.61h-9.15a2,2,0,0,1-2-2h0a2,2,0,0,1,2-2h9.15a2,2,0,0,1,2,2h0A2,2,0,0,1,205.2,76.61Z"/><path class="cls-13" d="M207.75,84.23h-11.7a2,2,0,0,1-2-2h0a2,2,0,0,1,2-2h11.7a2,2,0,0,1,2,2h0A2,2,0,0,1,207.75,84.23Z"/><path class="cls-13" d="M203.15,96.78H177a2,2,0,0,1-2-2h0a2,2,0,0,1,2-1.95h26.11a2,2,0,0,1,2,1.95h0A2,2,0,0,1,203.15,96.78Z"/><path class="cls-13" d="M209,105.6H177a2,2,0,0,1-2-2h0a2,2,0,0,1,2-2h32a2,2,0,0,1,2,2h0A2,2,0,0,1,209,105.6Z"/><path class="cls-13" d="M203.15,114.42H177a2,2,0,0,1-2-2h0a2,2,0,0,1,2-2h26.11a2,2,0,0,1,2,2h0A2,2,0,0,1,203.15,114.42Z"/><path class="cls-13" d="M209,123.24H177a2,2,0,0,1-2-1.95h0a2,2,0,0,1,2-2h32a2,2,0,0,1,2,2h0A2,2,0,0,1,209,123.24Z"/><path class="cls-15" d="M266.87,92.79l-3.81,2.36-3,1.58-.88.46a4.13,4.13,0,0,1-1.77.4,3.9,3.9,0,0,1-3.09-1.6c-1.61-2.76-3-4.55-5.38-12.85l2.87-1c1.83,3.17,5.76,10.67,5.76,10.67l5.54-3.77Z"/><polygon class="cls-16" points="288.84 77.16 217.6 101.44 201.17 98.8 199.92 95.14 211.32 82.99 282.55 58.71 288.84 77.16"/><path class="cls-23" d="M214.94,92.06h0a3.09,3.09,0,0,1,1.93-3.93l62.35-21.26a2.26,2.26,0,0,1,2.87,1.41l.54,1.58a2.26,2.26,0,0,1-1.41,2.87L218.87,94A3.09,3.09,0,0,1,214.94,92.06Z"/><path class="cls-23" d="M218.25,98.84h0a2.25,2.25,0,0,1,1.4-2.87l62.26-21.22a2.26,2.26,0,0,1,2.87,1.4h0A2.26,2.26,0,0,1,283.37,79l-62.26,21.23A2.25,2.25,0,0,1,218.25,98.84Z"/><path class="cls-23" d="M213.42,84.67h0a2.25,2.25,0,0,0,2.86,1.41l62.26-21.23A2.25,2.25,0,0,0,280,62h0a2.25,2.25,0,0,0-2.87-1.41L214.82,81.8A2.25,2.25,0,0,0,213.42,84.67Z"/><path class="cls-16" d="M217.46,101.45l-.42-.07-15.89-2.63-2.62-.43a.72.72,0,0,1-.41-1.19l1.82-1.95,11-11.79.3-.32a.29.29,0,0,1,.46.06.28.28,0,0,1,0,.13A31.4,31.4,0,0,0,217.75,101a.31.31,0,0,1,.05.12A.29.29,0,0,1,217.46,101.45Z"/><path class="cls-24" d="M290.92,60.63h0a9.74,9.74,0,0,1,9.74,9.74v1.29a0,0,0,0,1,0,0H281.18a0,0,0,0,1,0,0V70.38A9.74,9.74,0,0,1,290.92,60.63Z" transform="translate(259.65 -230.55) rotate(71.17)"/><path class="cls-25" d="M283.74,109.13l-10.12,29.61c-.19.59-.37,1.93-.56,3l-.56,3.42L271.37,152l-2.24,13.66-6.21-.87,1.62-13.75.8-6.88.41-3.44c.16-1.18.19-2.15.54-3.8a143.33,143.33,0,0,1,6-27Z"/><path class="cls-26" d="M287.77,105.61c3.25,9.13-1.1,30.19-1.1,30.19a9.29,9.29,0,0,0-.07,2.35l5.93,26.35L287,166l-8.25-26.08c-.45-1.53-2.76-20.41-2.19-30Z"/><path class="cls-27" d="M269.8,83.93l-1.39,1A9,9,0,0,1,269.8,83.93Z"/><path class="cls-28" d="M288.91,111.63c-1.17,1.82-14.38,3.13-18,2.12a59,59,0,0,0,.47-9.42c-.18-4.8-.16-5.11-2.05-7.89a13.75,13.75,0,0,1-1.75-3.76,11.25,11.25,0,0,1-3.95,2.21c-.59,0-2.42-4.47-2.42-4.47s2.55-2,7.15-5.46l1.39-1a15.29,15.29,0,0,1,5.83-2.07C284.77,81.37,290.09,109.82,288.91,111.63Z"/><path class="cls-29" d="M276.58,94.82,273.45,98l-2.51,2.25-.75.65a4.1,4.1,0,0,1-1.63.81,3.89,3.89,0,0,1-3.38-.8c-2.12-1.88-4-3.71-8.3-11.19l2.17-.93c2.53,2.63,5.63,5.17,8.41,8.69l.06-.07.29-.31,3.88-5.25Z"/><path class="cls-29" d="M256.88,96.58a1.46,1.46,0,0,0,1.85-.43,3.32,3.32,0,0,0,1.08-2.77c-.66-4-1.49-3.08-1.82-2.66-1.48,1.87.36,3.12-1.54,4.2C255.71,95.34,255.81,96.29,256.88,96.58Z"/><path class="cls-8" d="M270.3,81.94l-.39.29a4.17,4.17,0,0,1-.37.26h0a1.74,1.74,0,0,1-2.34-.18c.71.14,1.8-3.79,1-6.35l.74-.9C269,76.45,271.14,80.43,270.3,81.94Z"/><path class="cls-30" d="M255.37,170.27l14-.25c.8-2,.83-3.81-.1-5.26a6.11,6.11,0,0,1-5.32-.52c-2.68,2.11-5.65,2.84-8.65,3.45C253.89,168.45,254.18,169.8,255.37,170.27Z"/><path class="cls-30" d="M280.42,173.24l13.42-4.1c.21-2.17-.24-3.88-1.54-5a6.06,6.06,0,0,1-5.26.95c-2,2.77-4.65,4.29-7.37,5.71C278.5,171.9,279.16,173.12,280.42,173.24Z"/><path class="cls-15" d="M273.4,79.56c.47,1.32,2.69,2.3,2.69,2.3s-3.63,2.67-7.25,2.78c0,0,1.72-1.24,1.46-2.7Z"/><path class="cls-29" d="M275.17,76.82a7.73,7.73,0,0,1-.59,1.36,3.7,3.7,0,0,1-.21.33,8,8,0,0,1-1,1l-.07.06c-.14.13-.29.25-.44.37l-2.59,2-.39.29a4.17,4.17,0,0,1-.37.26h0a1.74,1.74,0,0,1-2.34-.18l-.11-.22L266.52,81a3.57,3.57,0,0,1-1.16.16c-.44,0-.33-2.24-.28-3l-1.51-1.71a4,4,0,0,1-.37-.71h0a4.29,4.29,0,0,1,1.58-4.84l3-2.28,0,0,.32-.12c.29-.1.6-.19.89-.27l.1,0h.05l.1,0a4.43,4.43,0,0,1,1.31,0l.26,0,.19,0a1.15,1.15,0,0,0,.64-.09l.18,0c.19.06.37.14.56.22a3.44,3.44,0,0,1,.62.4,4.57,4.57,0,0,1,.71.79s0,0,0,0a.13.13,0,0,0,0,.1c-.2.34.73,2.71,1.21,4.34,0,.15.08.28.11.41s.08.35.1.5A4.35,4.35,0,0,1,275.17,76.82Z"/><path class="cls-30" d="M262.77,75.66a.31.31,0,0,0,.18.07h.36a.09.09,0,0,0,.07,0c1.86.06,2.39-.5,3-.1s-.19-.51-1.42-.62a7,7,0,0,0,.84-.67c1.91-1.67,2,.83,2.44,1.74.25.46.85,1.15.68-.38s.7-2.63,1.61-2.06.21,2,.35,3.26c.18,1.73,1,3.29,2.51,2.64a3.24,3.24,0,0,0,1-1l.21-.33a4.63,4.63,0,0,0,.59-1.36,4.51,4.51,0,0,0,0-1.81c0-.15-.07-.32-.11-.5s-.07-.27-.11-.41a30.1,30.1,0,0,1-1.21-4.34.13.13,0,0,1,0-.1l0,0a.76.76,0,0,1,.5-.23c1.34,0,1.21,1.14,1.94.31,1.31-1.48-2-5.62-4-3.31a1.09,1.09,0,0,0-.33,1,.59.59,0,0,1-.27.71,1.3,1.3,0,0,1-.83.06,4.76,4.76,0,0,0-1.57-.06l-.14,0a5.06,5.06,0,0,0-1,.29l-.32.12a13.46,13.46,0,0,0-2.67,1.46C261.38,72.69,262.49,75.47,262.77,75.66Z"/><path class="cls-6" d="M274,69.71a.21.21,0,0,0,.16-.08.19.19,0,0,0-.06-.25A14.83,14.83,0,0,1,272,67.84a.18.18,0,0,0-.25,0,.19.19,0,0,0,0,.26,13.87,13.87,0,0,0,2.12,1.58A.16.16,0,0,0,274,69.71Z"/><path class="cls-31" d="M109.88,30.81a6.39,6.39,0,0,1-3.1-5.15,11.1,11.1,0,0,0,2.6-.41.4.4,0,0,0,.07.19A21.8,21.8,0,0,1,111,28.68s0,.07.06.11a1.45,1.45,0,0,1-.68,2.1A.68.68,0,0,1,109.88,30.81Z"/><path class="cls-12" d="M157.17,67.29a1.77,1.77,0,0,1-.51,1.44L140.52,84.88a1.78,1.78,0,0,1-2.51,0L112.52,59.39a1.79,1.79,0,0,1,0-2.51l9.39-9.38,2.92-2.92,3.84-3.84a1.79,1.79,0,0,1,2.52,0l25.47,25.48A1.64,1.64,0,0,1,157.17,67.29Z"/><path class="cls-32" d="M157.18,67.38,135.8,63.15a1.84,1.84,0,0,1-1.44-1.45l-4.24-21.38a1.74,1.74,0,0,1,1.07.51l25.48,25.48A1.66,1.66,0,0,1,157.18,67.38Z"/><path class="cls-33" d="M76.62,60.84c-1.69-.13-6.67,1.5-6.48.52s3.53-5.2,4.4-5,1.36.12,2.14.27c1,.19.84.28.84.28Z"/><path class="cls-34" d="M75.53,56.53c.4-.47-1.22-2.23-2.48-2.36-.16.17-7.16,10.36-7.16,10.36.14.43.26.64.69.54a28.34,28.34,0,0,1,8-3.89.22.22,0,0,0,.16-.25,2,2,0,0,0-.88-1.49A7.64,7.64,0,0,1,75.53,56.53Z"/><path class="cls-34" d="M62.91,58.84H75.5a0,0,0,0,1,0,0v0a.65.65,0,0,1-.65.65H63.56a.65.65,0,0,1-.65-.65v0A0,0,0,0,1,62.91,58.84Z" transform="translate(157.22 35.87) rotate(124.64)"/><path class="cls-35" d="M104.83,60.86a5.52,5.52,0,0,1-1.15,2.22,6.48,6.48,0,0,1-1.53,1.29,8.27,8.27,0,0,1-1.7.75L99.81,65l-3.45-.64L76.83,61.08,77.46,57l.08-.52,17.18,1.23,2.53.18,3.48.42.83.09A21.84,21.84,0,0,1,91.2,48.5l4.79-3,6.91,9.18.53.7.29.39a7.45,7.45,0,0,1,.46.74,6.87,6.87,0,0,1,.69,1.84A5.53,5.53,0,0,1,104.83,60.86Z"/><path class="cls-33" d="M71.5,61c-1.69-.13-6.67,1.5-6.47.52s3.52-5.2,4.4-5,1.36.12,2.13.27c1,.19.84.28.84.28Z"/><path class="cls-34" d="M69.54,56.72c.4-.48-1.22-2.24-2.48-2.36-.16.17-7.16,10.36-7.16,10.36.14.43.26.64.7.54a28.23,28.23,0,0,1,8-3.9.21.21,0,0,0,.17-.24,2,2,0,0,0-.89-1.5A7.74,7.74,0,0,1,69.54,56.72Z"/><path class="cls-34" d="M56.92,59H69.51a0,0,0,0,1,0,0v0a.65.65,0,0,1-.65.65H57.57a.65.65,0,0,1-.65-.65v0a0,0,0,0,1,0,0Z" transform="translate(147.98 41.09) rotate(124.64)"/><path class="cls-36" d="M104,60.89a5.53,5.53,0,0,1-1.16,2.22,6.05,6.05,0,0,1-1.53,1.28,7.55,7.55,0,0,1-1.69.76,9.18,9.18,0,0,1-1.19.27,10.36,10.36,0,0,1-2.66.09l-.37-.05a2.35,2.35,0,0,1-.24,0l-.44-.07-.85-.17-3.45-.64L70.85,61.27l.71-4.65,5,.35L91.27,58l3.47.41.83.1c-.59-.26-1.16-.55-1.72-.85a22.53,22.53,0,0,1-8.64-9l8.37-5.19,1.54,2L102,54.72l.53.7.29.4a6.45,6.45,0,0,1,.46.74,6.8,6.8,0,0,1,.69,1.83A5.58,5.58,0,0,1,104,60.89Z"/><path class="cls-37" d="M124.83,44.58l-2.92,2.92-3.75-1.79-2.07-1-1-.5-.61-.3-.65-.37a12.12,12.12,0,0,1-2.31-1.9,11.14,11.14,0,0,1-.93-1.15c-.15-.2-.28-.4-.41-.61l-.32-.56-1.61-3.8,4.58-1.94,2,3.77s.71,1.12.86,1.31a5.27,5.27,0,0,0,1.05,1.06,2.26,2.26,0,0,0,.31.23,4.19,4.19,0,0,0,.39.24l1,.59,2,1.16,3.92,2.33Z"/><path class="cls-38" d="M114.42,36.66a11.19,11.19,0,0,1-5.21,2.09s-.23-.59-.27-.53c-.71.88-1.32,2.26-2.21,2.68-2.92,1.39-5.5.72-7.13,2-2.31,1.84-.84,4.24-1,5.54-.24,2.57-8.78,2-13.19.65A.85.85,0,0,1,84.91,48c1.68-3.95,9.24-20.43,19.75-22.28,6.65-1.17,8.94,7.17,9,7.32a2.72,2.72,0,0,1,.11.38Z"/><path class="cls-33" d="M110.59,20.4a8.56,8.56,0,0,0-1.22,4.85.52.52,0,0,0,.07.18,24.08,24.08,0,0,1,1.66,3.36c.63,1.19,1.37,1.75,3.67.19.15.28.53.78.83.78.53,0,1.12-1.85,1.56-2.8,2.92-2.1,4.76-4.48,1.93-8C116.82,16.06,113.77,16.79,110.59,20.4Z"/><path class="cls-33" d="M124.86,49.15l-1.62,2.72-8.25-4-4.13-2-2.06-1-1-.49-.6-.31-.65-.38a11.14,11.14,0,0,1-2.31-1.9,5.34,5.34,0,0,1-.69-.95c-.89-1.48-2-3.89-2-3.89a8.31,8.31,0,0,0,4.89-1.52s.81,1.39,1.41,2.39c.3.52.56.94.61,1a5.27,5.27,0,0,0,1,1.06,2.49,2.49,0,0,0,.31.23,3.16,3.16,0,0,0,.39.24l1,.58,2,1.16L117,44.5Z"/><path class="cls-25" d="M107.81,37.9c-.64,1-3.18,2.51-4.3,3-.89-1.48-2-3.89-2-3.89a8.31,8.31,0,0,0,4.89-1.52S107.21,36.9,107.81,37.9Z"/><path class="cls-39" d="M120.72,24.27c2.27-.74,2.89-5.43-.35-6.12-2.32-.5-2.63-2.41-4.35-3.4-2.94-1.71-7.16-.49-8.39,1.89-1.13,2.17-1.74,1.3-4,2.58s-3.2,3.59-3.38,7.88,1.37,5.16-1.37,8.06c-1.77,1.88-4.76,4.21-5.18,6.56s7.73.85,9-.73a13.2,13.2,0,0,1,4.47-3.63c1.91-1.15,2.6-1.23,2.44-4.1s.21-4.12,2.25-5.24c1.66-.91,1.87-2.44,1.43-4.57S116.17,25.75,120.72,24.27Z"/><path class="cls-33" d="M123.24,51.87c1.57,1.53,4,2.12,5.67.93s2.27-3,1.47-2.8-3.87-.2-2.94-.56,1.84-.63,1.09-1-3.67.74-3.67.74Z"/></g></g></svg>