<svg xmlns="http://www.w3.org/2000/svg" viewBox="0 0 246.97 208.24"><defs><style>.cls-1{fill:#f0f3fc;}.cls-2{opacity:0.1;}.cls-3{fill:#e6e9f8;}.cls-4{fill:#a8cfef;}.cls-5{fill:#9090ff;}.cls-6{fill:#cce9f1;}.cls-7{fill:#aee1ed;}.cls-8{fill:#edb6a4;}.cls-9{fill:#6868ed;}.cls-10{fill:#2f2f6b;}.cls-11{fill:#adadea;}.cls-12{fill:#393768;}.cls-13{fill:#d8a598;}.cls-14{fill:#6a6ae5;}.cls-15{fill:#e8ac9c;}.cls-16{fill:#8b8bf7;}.cls-17{fill:#7878dd;}.cls-18{fill:#99cad6;}</style></defs><title>3</title><g id="Capa_2" data-name="Capa 2"><g id="Capa_1-2" data-name="Capa 1"><g id="Image_Sharing" data-name="Image Sharing"><path class="cls-1" d="M85.42,176.41c-68-2.63-98.27,11.28-65.72,17.38C65.51,202.37,56,210.63,95.45,207.6c26.46-2,6-15.75,40.26-15.89,79-.33,21.28-20.54-.48-23C94.43,164,51.15,167.6,85.42,176.41Z"/><ellipse class="cls-2" cx="219.85" cy="185.62" rx="27.11" ry="3.39"/><path class="cls-1" d="M197.89,80.57c-31.67-17.12-3.44-48.29-32.37-71.08C121.47-25.21,50.71,43,40.67,90c-10.24,47.63,38.14,65.4,75,65.82C169.75,156.53,230.32,98.06,197.89,80.57ZM147.61,53.68A21.33,21.33,0,1,1,169,32.33,21.35,21.35,0,0,1,147.61,53.68Z"/><path class="cls-3" d="M18.16,167.25a.16.16,0,0,0,0,.08v-.08Z"/><path class="cls-3" d="M33.48,167.25v.08a.14.14,0,0,0,0-.08Z"/><path class="cls-4" d="M33.48,167.33v.07c0,.08,0,.12,0,.16a0,0,0,0,1,0,0c-.43.82-3.68,1.45-7.6,1.45s-7.17-.63-7.6-1.45a0,0,0,0,1,0,0l0-.23a.16.16,0,0,1,0-.08c.4-.86,3.69-1.49,7.64-1.49s7.25.63,7.64,1.49A.14.14,0,0,1,33.48,167.33Z"/><path class="cls-4" d="M32.62,129.22a10.2,10.2,0,0,1-1.95,2.72l-1.17-2-.62-1.11-.05,1.67-.11,3.11c-2.59,1.77-5.75,2.53-7.91,1-1.66-1.16-2.17-3.33-1.85-5.63l2-1.79,1.54-1.41-2.91.86a11.32,11.32,0,0,1,2.9-4.38l3.37-.45-1.53-.92c2.57-1.64,5.9-2.82,7.78-2.16a2,2,0,0,1,.59.27c1,.71,1.37,2.23,1.36,4l-1.6.16-1.24.13,1.12.58,1.59.82A15.3,15.3,0,0,1,32.62,129.22Z"/><path class="cls-5" d="M27.9,122.16A23.39,23.39,0,0,0,22.73,131a27,27,0,0,0-1.3,10.47c.22,1.78.37,3.56.63,5.34l.84,5.33c.57,3.56,1.19,7.11,1.81,10.66-.92-3.47-1.69-7-2.38-10.53-.36-1.77-.64-3.55-.94-5.33s-.47-3.61-.71-5.41a26.81,26.81,0,0,1,1.51-10.77A20.67,20.67,0,0,1,27.9,122.16Z"/><path class="cls-2" d="M28.83,130.47l-.11,3.11c-2.59,1.77-5.75,2.53-7.91,1-1.66-1.16-2.17-3.33-1.85-5.63l2-1.79.19.08A11.73,11.73,0,0,0,22,130a1.76,1.76,0,0,0,.52.76,1.7,1.7,0,0,0,.63.27,7.36,7.36,0,0,0,4.64,0A5.8,5.8,0,0,0,28.83,130.47Z"/><path class="cls-2" d="M32.21,119.24a1.78,1.78,0,0,1-.12-.54,2,2,0,0,1,.59.27c1,.71,1.37,2.23,1.36,4l-1.6.16A8,8,0,0,0,32.21,119.24Z"/><path class="cls-2" d="M32.62,129.22a10.2,10.2,0,0,1-1.95,2.72l-1.17-2A7.46,7.46,0,0,0,31,128a14.3,14.3,0,0,0,1.35-4.21l1.59.82A15.3,15.3,0,0,1,32.62,129.22Z"/><path class="cls-4" d="M20,156.7c-.5,1.51-2.29,2.3-4.18,2.39L14.3,157.2l-.31-.37,0,.27.26,1.9a6.41,6.41,0,0,1-1.93-.59,9.47,9.47,0,0,1-2.3-1.76l.61-1.28.19-.38-.4.24-1.07.66a2.88,2.88,0,0,1-.79-2.41,1.57,1.57,0,0,1,.43-.65,7.64,7.64,0,0,1,4.3-1.49l-.4,1,1.77-1a6.7,6.7,0,0,1,3,1.06l-1.72.65,2.86.25a5.42,5.42,0,0,1,.69.86A3,3,0,0,1,20,156.7Z"/><path class="cls-5" d="M12.05,153.28a14,14,0,0,1,5.73,2.4,16.42,16.42,0,0,1,4.44,4.58c.54.94,1.11,1.85,1.63,2.81L25.39,166c1,1.92,2,3.86,3,5.8-.82-2-1.73-4-2.68-5.95-.47-1-1-2-1.49-2.92S23.14,161,22.6,160A16.1,16.1,0,0,0,18,155.37,12.52,12.52,0,0,0,12.05,153.28Z"/><path class="cls-2" d="M10.45,155.23l-1.07.66a2.88,2.88,0,0,1-.79-2.41,1.57,1.57,0,0,1,.43-.65c.22.47.36,1.28.56,1.56A4.94,4.94,0,0,0,10.45,155.23Z"/><path class="cls-2" d="M14,157.1l.26,1.9a6.41,6.41,0,0,1-1.93-.59,9.47,9.47,0,0,1-2.3-1.76l.61-1.28c.28.19.58.36.88.53A23.5,23.5,0,0,0,14,157.1Z"/><path class="cls-2" d="M20,156.7c-.5,1.51-2.29,2.3-4.18,2.39L14.3,157.2c.87.34,2,.58,2.63-.06a1.09,1.09,0,0,0,.3-.53,1.77,1.77,0,0,0-.1-.75c-.14-.67-.07-1.54.55-1.83a1.76,1.76,0,0,1,1.09-.05,4.68,4.68,0,0,1,.76.18A3,3,0,0,1,20,156.7Z"/><path class="cls-6" d="M19.82,147.05c-3.81,3.81-12.37,1.42-16-2.22L3.6,141.4l-1.37,1.5C.77,140.73-.22,138.09,0,136.21a2.74,2.74,0,0,1,.79-1.66c1-1,2.94-1.26,5.15-1.2L6,136.12l2.06-2.59a23.73,23.73,0,0,1,5.72,1.39,13,13,0,0,1,3.34,2l-4.23,1.67,5.89.3.3,0C21.24,141.62,22,144.9,19.82,147.05Z"/><path class="cls-5" d="M5.35,138.33a22.8,22.8,0,0,1,10.5,5.38,26.2,26.2,0,0,1,6.87,9.72c.61,1.89,1.28,3.78,1.83,5.68s1.07,3.8,1.52,5.72c.95,3.83,1.79,7.69,2.45,11.58-1-3.81-2.05-7.61-3.14-11.4l-1.64-5.67c-.57-1.88-1.26-3.7-1.88-5.56a26.42,26.42,0,0,0-6.49-9.55A25.18,25.18,0,0,0,5.35,138.33Z"/><path class="cls-2" d="M19.82,147.05c-3.81,3.81-12.37,1.42-16-2.22L3.6,141.4l-1.37,1.5C.77,140.73-.22,138.09,0,136.21a3.78,3.78,0,0,1,.86.4c2.44,1.65,4.52,3.79,6.94,5.46s5.39,2.89,8.28,2.31a2.3,2.3,0,0,0,1.31-.62,2.65,2.65,0,0,0,.54-1.22c.24-.94.32-2.83.85-3.63l.3,0C21.24,141.62,22,144.9,19.82,147.05Z"/><path class="cls-3" d="M36.2,140.23l.06.17c-1.82,3.62-7.58,7.5-11.35,5.62-2.15-1.07-2.39-3.69-1.49-6.19l3.46-1.37,1.05-.41L26.78,138l-2.4-.14a10.43,10.43,0,0,1,2-2.31l.43-.35a19.72,19.72,0,0,1,3.47-2.1l2.18,1.42-.64-2.07c1.62-.6,3.14-.85,4.13-.4,1.65.78,1.75,3.88,1,6.56l-1.39-.79Z"/><path class="cls-5" d="M33.49,136A17.84,17.84,0,0,0,27,142.56a20.38,20.38,0,0,0-2.69,8.91c0,1.55,0,3.12.05,4.66s.14,3.09.28,4.62c.25,3.08.58,6.15,1,9.2-.17-3.08-.36-6.15-.49-9.23l-.18-4.62c-.05-1.53,0-3,0-4.58a20.69,20.69,0,0,1,2.45-8.69A19.71,19.71,0,0,1,33.49,136Z"/><path class="cls-2" d="M26.78,138l-2.4-.14a10.43,10.43,0,0,1,2-2.31l.43-.35a1.08,1.08,0,0,1,0,.69A5.76,5.76,0,0,0,26.78,138Z"/><path class="cls-2" d="M36.26,140.4c-1.82,3.62-7.58,7.5-11.35,5.62-2.15-1.07-2.39-3.69-1.49-6.19l3.46-1.37a6.28,6.28,0,0,0,1.51,2.8,3.48,3.48,0,0,0,1,.73,3.88,3.88,0,0,0,1.35.28,6.76,6.76,0,0,0,5.41-2l.06-.08Z"/><path class="cls-4" d="M35.32,147.92a6,6,0,0,1-1.49,1.23l-.36-1.31-.18-.72-.28.94-.52,1.72c-1.71.61-3.59.57-4.57-.61a3.25,3.25,0,0,1-.21-3.43l1.37-.71,1.07-.56-1.75.05a6.62,6.62,0,0,1,2.27-2l2,.26-.72-.75c1.68-.54,3.72-.7,4.67-.06a1.16,1.16,0,0,1,.29.24,2.75,2.75,0,0,1,.18,2.43l-.92-.15-.71-.11.53.49.78.7A9,9,0,0,1,35.32,147.92Z"/><path class="cls-5" d="M33.72,143.26a13.64,13.64,0,0,0-4.21,4.21,15.58,15.58,0,0,0-2.27,5.67c-.14,1-.32,2.05-.44,3.08l-.32,3.12c-.21,2.07-.38,4.15-.56,6.24,0-2.09.09-4.17.22-6.26.07-1,.17-2.08.27-3.12s.27-2.09.4-3.14a15.51,15.51,0,0,1,2.44-5.81A12.07,12.07,0,0,1,33.72,143.26Z"/><path class="cls-2" d="M33,148.06l-.52,1.72c-1.71.61-3.59.57-4.57-.61a3.25,3.25,0,0,1-.21-3.43l1.37-.71.1.08a6.58,6.58,0,0,0,.06,1.66,1.11,1.11,0,0,0,.18.51,1,1,0,0,0,.31.24,4.21,4.21,0,0,0,2.6.69A3.18,3.18,0,0,0,33,148.06Z"/><path class="cls-2" d="M36.57,142.26a1.57,1.57,0,0,1,0-.32,1.16,1.16,0,0,1,.29.24,2.75,2.75,0,0,1,.18,2.43l-.92-.15A4.77,4.77,0,0,0,36.57,142.26Z"/><path class="cls-2" d="M35.32,147.92a6,6,0,0,1-1.49,1.23l-.36-1.31a4.12,4.12,0,0,0,1.1-.84A8,8,0,0,0,36,144.84l.78.7A9,9,0,0,1,35.32,147.92Z"/><path class="cls-4" d="M24.19,161.44a2.53,2.53,0,0,1-2.7.72l-.57-1.29-.11-.25,0,.16-.13,1.1a3.45,3.45,0,0,1-1-.62,5.35,5.35,0,0,1-1-1.32l.53-.63.17-.18-.26.07-.7.21a1.65,1.65,0,0,1-.09-1.47.89.89,0,0,1,.34-.29,4.33,4.33,0,0,1,2.63-.2l-.37.5,1.14-.3a3.94,3.94,0,0,1,1.53,1l-1.06.11,1.56.56a3,3,0,0,1,.26.59A1.72,1.72,0,0,1,24.19,161.44Z"/><path class="cls-5" d="M20.25,158.34a8.29,8.29,0,0,1,2.85,2.2,9.38,9.38,0,0,1,1.8,3.22c.17.61.35,1.2.5,1.81l.44,1.84c.29,1.23.55,2.46.82,3.7-.16-1.25-.38-2.49-.62-3.73-.12-.62-.26-1.24-.4-1.85s-.33-1.23-.49-1.85a9.42,9.42,0,0,0-1.91-3.29A7.4,7.4,0,0,0,20.25,158.34Z"/><path class="cls-2" d="M19.06,159.2l-.7.21a1.65,1.65,0,0,1-.09-1.47.89.89,0,0,1,.34-.29c.06.29,0,.77.09.95A2.28,2.28,0,0,0,19.06,159.2Z"/><path class="cls-2" d="M20.78,160.78l-.13,1.1a3.45,3.45,0,0,1-1-.62,5.35,5.35,0,0,1-1-1.32l.53-.63c.13.15.28.29.42.43A14.78,14.78,0,0,0,20.78,160.78Z"/><path class="cls-2" d="M24.19,161.44a2.53,2.53,0,0,1-2.7.72l-.57-1.29c.44.32,1,.62,1.49.36a.64.64,0,0,0,.24-.25,1.09,1.09,0,0,0,.06-.44c0-.4.18-.87.57-.94a1,1,0,0,1,.62.13,2.56,2.56,0,0,1,.4.22A1.72,1.72,0,0,1,24.19,161.44Z"/><path class="cls-6" d="M25.52,156c-2.7,1.56-7.14-1-8.66-3.62l.41-1.95-1,.64A6.33,6.33,0,0,1,16,147a1.59,1.59,0,0,1,.69-.81,4.27,4.27,0,0,1,3.06.09l-.38,1.55L21,146.7a13.23,13.23,0,0,1,3,1.63A7.32,7.32,0,0,1,25.52,150l-2.61.31,3.25,1,.16.06C27.11,153.18,27.05,155.12,25.52,156Z"/><path class="cls-5" d="M18.7,149a13.31,13.31,0,0,1,5.09,4.57,15.13,15.13,0,0,1,2.4,6.46c.06,1.15.16,2.3.19,3.45s0,2.29,0,3.43c0,2.29-.14,4.57-.35,6.85,0-2.29,0-4.57-.07-6.85l-.08-3.42c0-1.14-.16-2.26-.23-3.39a15.21,15.21,0,0,0-2.22-6.31A14.56,14.56,0,0,0,18.7,149Z"/><path class="cls-2" d="M25.52,156c-2.7,1.56-7.14-1-8.66-3.62l.41-1.95-1,.64A6.33,6.33,0,0,1,16,147a2.11,2.11,0,0,1,.42.35c1.13,1.29,2,2.79,3.08,4.09a6.48,6.48,0,0,0,4.3,2.51,1.31,1.31,0,0,0,.83-.15,1.56,1.56,0,0,0,.47-.6,8.49,8.49,0,0,1,1-1.91l.16.06C27.11,153.18,27.05,155.12,25.52,156Z"/><path class="cls-7" d="M35.7,154.61v.11c-1.56,1.75-5.36,3.07-7.19,1.46-1-.92-.79-2.42.08-3.68l2.14-.26.65-.07-.63-.21-1.33-.43a6,6,0,0,1,1.45-1,1.57,1.57,0,0,1,.29-.13,11.18,11.18,0,0,1,2.25-.67l1,1.12,0-1.26a3.43,3.43,0,0,1,2.37.39c.81.69.41,2.43-.4,3.82l-.66-.64Z"/><path class="cls-5" d="M34.81,151.82a10.37,10.37,0,0,0-4.59,2.74,11.88,11.88,0,0,0-2.83,4.59c-.22.87-.47,1.74-.66,2.62s-.37,1.75-.52,2.63c-.32,1.76-.59,3.53-.78,5.31.36-1.75.71-3.5,1.09-5.25l.58-2.61c.21-.87.47-1.71.69-2.57a12.1,12.1,0,0,1,2.66-4.5A11.58,11.58,0,0,1,34.81,151.82Z"/><path class="cls-2" d="M30.76,152l-1.33-.43a6,6,0,0,1,1.45-1,1.57,1.57,0,0,1,.29-.13.55.55,0,0,1-.1.38A3.44,3.44,0,0,0,30.76,152Z"/><path class="cls-2" d="M35.71,154.72c-1.56,1.75-5.36,3.07-7.19,1.46-1-.92-.79-2.42.08-3.68l2.14-.26a3.61,3.61,0,0,0,.43,1.79,2.46,2.46,0,0,0,.45.56,2.29,2.29,0,0,0,.72.35,3.91,3.91,0,0,0,3.31-.29l.05,0Z"/><path class="cls-6" d="M30.7,182.13a0,0,0,0,0,0,0c0,.59-2.2,1.06-4.94,1.06s-4.89-.47-4.89-1.06v0L18.2,167.6c.43.82,3.69,1.45,7.6,1.45s7.17-.63,7.6-1.45Z"/><path class="cls-3" d="M108.62,66.16l-6.38,1.49V59.33l4.54-1a.64.64,0,0,1,.78.47l1.15,4.92.4,1.71A.64.64,0,0,1,108.62,66.16Z"/><path class="cls-3" d="M128.36,102.8l-6.45-8.47,12.35-5.52,4.58,6a1,1,0,0,1-.19,1.47l-6.53,5L129.84,103A1,1,0,0,1,128.36,102.8Z"/><path class="cls-3" d="M119.29,125.45l-6.48,6.83-6.94-11.09,4.62-4.85a.91.91,0,0,1,1.34,0l5.49,5.68,1.91,2A1,1,0,0,1,119.29,125.45Z"/><path class="cls-3" d="M154.37,156.67l-4.13,4.16-4-6.31,3-3a.57.57,0,0,1,.81,0l3.2,3.18,1.12,1.11A.59.59,0,0,1,154.37,156.67Z"/><path class="cls-3" d="M127.87,156.44l-2.44,2.45-2.33-3.72,1.74-1.74a.34.34,0,0,1,.48,0l1.89,1.88.66.65A.36.36,0,0,1,127.87,156.44Z"/><path class="cls-3" d="M143.29,130.28l-3,3-2.89-4.61,2.15-2.17a.42.42,0,0,1,.6,0l2.34,2.32.82.82A.43.43,0,0,1,143.29,130.28Z"/><path class="cls-3" d="M130,79l-6.11-3,5.53-6.67,4.35,2.17a.68.68,0,0,1,.31.9l-2.35,4.71-.82,1.64A.69.69,0,0,1,130,79Z"/><path class="cls-8" d="M53.74,119.73a53.15,53.15,0,0,1,1.2,10.75,7.72,7.72,0,0,1-.83,4c-3.1,4.16-5.83,4.31-11.49,4.71l-1.22-4.07c1.49-1.61,5.42-2,8.75-2.46l.28-2.81,1-9.7Z"/><path class="cls-8" d="M53.74,119.74a3.2,3.2,0,0,0,1-1.51,7.31,7.31,0,0,0-.8-2.5c-.36-.55-2-.13-2.11.73l-.34,1.78-.44-.36c-.36-.08-.48.13-.28.74l.63,1.5Z"/><path class="cls-9" d="M55.29,130.36c0,1.79-.44,3.7-1.08,4.38-3.44,3.71-5.78,4.45-11.44,4.85l-1.37-4.5c1.49-1.61,5.07-2.12,8.4-2.62l.44-2.58C51,129.8,53.79,129.49,55.29,130.36Z"/><path class="cls-10" d="M50.08,129.47a13.63,13.63,0,0,1,5.38.44,2.43,2.43,0,0,1,.11,1.58,31.34,31.34,0,0,1-5.6-.7C49.73,130.48,49.92,129.92,50.08,129.47Z"/><path class="cls-11" d="M72.36,95.88,88.46,112a2.19,2.19,0,0,1,0,3L63.78,139.76a2.24,2.24,0,0,1-3.08,0L44.6,123.69a2.2,2.2,0,0,1,0-3.09L69.31,95.85A2.15,2.15,0,0,1,72.36,95.88Z"/><path class="cls-3" d="M86.07,109.54l2.39,2.39a2.17,2.17,0,0,1,0,3.06L63.77,139.74a2.19,2.19,0,0,1-3.07,0l-4.16-4.15L59.68,122l10.7-1.69,2.28-8.59Z"/><path class="cls-3" d="M73.33,99.43a3.65,3.65,0,1,1-5.15,0A3.65,3.65,0,0,1,73.33,99.43Z"/><path class="cls-2" d="M72.36,95.88,88.46,112a2.19,2.19,0,0,1,0,3L63.78,139.76a2.24,2.24,0,0,1-3.08,0l-5.18-5.17c2.08-1.08,4.31-1.65,6.39-2.59,5.42-2.48,9.54-7,13-11.93a22.58,22.58,0,0,0,2.66-4.67,13.42,13.42,0,0,0-1.24-11.84,13,13,0,0,0-4.7-4.34c-1.19-.68-2.91-.9-4.2-1.47l1.9-1.9A2.15,2.15,0,0,1,72.36,95.88Z"/><path class="cls-2" d="M25.84,190.24c0-.5,2-.91,4.46-.91s4.46.41,4.46.91-2,.91-4.46.91S25.84,190.75,25.84,190.24Z"/><path class="cls-8" d="M32.73,182.24l-1.79.8a1.13,1.13,0,0,0-1.13,0l-1.13.93,4.59,5,1-.68-1-2.87,1-.87Z"/><path class="cls-12" d="M29.92,182.82c-.61.07-1,.47-1.58,1.17l5.31,6c.84.87,1.56.67,1.18-.35l-1.35-4.18a1.5,1.5,0,0,1-1.33-.47,6.82,6.82,0,0,1-1.24-1.48c.24-.21.44-.42.22-.81Z"/><path class="cls-12" d="M38,155.13l6.19-2.36c2.23,3.83,4.08,12,2.73,16.9-2.11,4.72-3.72,8.5-12,15.56l-2.73-3.29,8.18-12.06C38.74,164.23,37.2,159.21,38,155.13Z"/><path class="cls-2" d="M46.88,169.68A35,35,0,0,1,42,178.15c.63-2,1.83-3.72,2.35-5.73a17.46,17.46,0,0,0,.4-3.54,9,9,0,0,0-.12-2.37c-.33-1.5-1.54-2.93-1.63-4.48s1.88-1.79,3-1.52a3.19,3.19,0,0,1,.89.38A21.14,21.14,0,0,1,46.88,169.68Z"/><path class="cls-8" d="M49.6,186.3l-.86,1.76a1.15,1.15,0,0,0-.85.75l-.28,1.44,6.72.9.36-1.18-2.56-1.6.23-1.32Z"/><path class="cls-12" d="M47.8,188.54a2.53,2.53,0,0,0-.46,1.91l7.92,1.24c1.21.13,1.63-.48.69-1l-3.71-2.35a1.46,1.46,0,0,1-1.32.48,6.47,6.47,0,0,1-1.9-.35c0-.3.07-.6-.35-.75Z"/><path class="cls-12" d="M40.74,154.79l7.39-3.92c2.95,3.5,5.48,11.46,7.16,14.92,1.73,3.8-.26,10.73-2.16,21.46l-4.19-.78.39-16.32C45.52,164.79,41,160,40.74,154.79Z"/><path class="cls-9" d="M50.71,141.11c-.11,3.51-1.52,7.77-1.12,10.08-.09.14-.19.27-.3.41-2.53,3.05-9.83,4.87-11.3,4.06-1-.56-.43-16.93,3-21.55,1.86-2.19,6.7-1.92,8.07,1C50,137.5,50.76,139.34,50.71,141.11Z"/><path class="cls-13" d="M43.51,132.87a4.52,4.52,0,0,0,.34-2.48l2.92-.2.81,3.3A9.19,9.19,0,0,1,43.51,132.87Z"/><path class="cls-2" d="M47.15,131.89H46.5a2.43,2.43,0,0,0-1.2.23,3.37,3.37,0,0,0-.85.75.5.5,0,0,1-.22.19,1.9,1.9,0,0,1-.71-.19,4.63,4.63,0,0,0,.31-2.49l2.92-.2Z"/><path class="cls-8" d="M43.73,132.17c2.16-.39,4-1,4.64-2.14-1.19-2.59-2.87-4.55-5.55-5.22l-3.31,4.43Z"/><path class="cls-2" d="M46.12,126.64a2.59,2.59,0,0,1-.32.56,6.37,6.37,0,0,1-.52.52c-.59.44-1.18.88-1.78,1.28a2.77,2.77,0,0,1-.81.31,1.74,1.74,0,0,1-1.51-.34,2,2,0,0,1-.43-.55,1.21,1.21,0,0,1-.09-.68l1.58-2.17s0,0,.08-.07c.33-.18.67-.32,1-.52A7.39,7.39,0,0,1,46.12,126.64Z"/><path class="cls-12" d="M46.07,125.58a3.15,3.15,0,0,1-2.32,1.76,2.7,2.7,0,0,0,1.32,1.08.48.48,0,0,1-.07.51c-.52-.16-1.08-.42-1.3-.16a1,1,0,0,0,.19,1.16c.41.45,1.33.51,2.27.62-.36.8-.65,1.33-1.2,1.52-.64.5-1.46.31-2.57.08s-1.2-1.24-2.06-1.46S38,128.23,39,127.75s.93-.6.84-2,.86-1.81,1.84-1.33.78-.06,1.32-.94,2.48-.41,2,.36C45.69,124.51,46.12,124.87,46.07,125.58Z"/><path class="cls-8" d="M65.33,137.93a53.38,53.38,0,0,1-9.1,5.84,7.6,7.6,0,0,1-3.93,1c-5.1-.93-6.44-3.31-9.31-8.2l3.1-2.9c2.1.62,4.17,4,6.09,6.75l2.64-1L64,136Z"/><path class="cls-8" d="M65.32,137.93a3.18,3.18,0,0,0,1.8.22A7.05,7.05,0,0,0,69,136.33c.34-.57-.78-1.87-1.59-1.57l-1.74.49.13-.56c-.12-.47-.44-.24-.79.08L63.94,136Z"/><path class="cls-9" d="M56.49,144c-1.63.76-3.51,1.24-4.4,1-4.85-1.43-6.55-3.2-9.42-8.1l3.42-3.22c2.1.62,4.15,3.6,6.07,6.37l2.51-.76C55.09,140,56.61,142.3,56.49,144Z"/><path class="cls-10" d="M55,139a13.57,13.57,0,0,1,2,5,2.35,2.35,0,0,1-1.37.8,31.18,31.18,0,0,1-1.85-5.33C53.92,139.1,54.5,139,55,139Z"/><path class="cls-14" d="M46.05,124.64c-2.47,1.53-3.24,4.55-6.09,5.84-1.16.51-1.86-.24-2.12-1.39-.4-1.73.15-4.39,1.39-5.33,1.75-1.35,3-.52,5.57-1.62a3.25,3.25,0,0,1,1.71-.29C47.75,122.12,47.85,123.53,46.05,124.64Z"/><path class="cls-2" d="M46.05,124.64c-2.47,1.53-3.24,4.55-6.09,5.84-1.16.51-1.86-.24-2.12-1.39H38a2.41,2.41,0,0,0,1-.42,16.11,16.11,0,0,0,1.51-1,6.53,6.53,0,0,0,1.24-1l.69-.89a10.35,10.35,0,0,1,2.85-2.14,3,3,0,0,0,1-.88,1.15,1.15,0,0,0,.22-.64c0-.12,0-.2,0-.29C47.75,122.12,47.85,123.53,46.05,124.64Z"/><path class="cls-2" d="M53.63,145a3.45,3.45,0,0,1-1.55,0c-.65-.18-1.23-.37-1.75-.57-.41,2.58-1,5.15-.73,6.76l-.31.39a7,7,0,0,1-1.18,1.12,1.66,1.66,0,0,1-.21-1c.06-1.42,1-2.66,1.22-4.09a5.5,5.5,0,0,0-.21-2.09,10.37,10.37,0,0,0-.84-2.25l-.11-.16a10.58,10.58,0,0,0-.91-1.41A11.69,11.69,0,0,0,50.41,144l.1,0a11.64,11.64,0,0,0,1.48.58,7,7,0,0,0,.74.23,3,3,0,0,0,.75.17A.21.21,0,0,0,53.63,145Z"/><path class="cls-8" d="M212.84,113.61l-6.77.6c-.54,4.26,1.18,11.8,1.63,15.39.58,3.87,5.89,8.27,12.88,15.75l1.4-2.42-8-12.84C214.19,123.92,215.34,117.81,212.84,113.61Z"/><path class="cls-8" d="M222,142.93l1.58.95a1.09,1.09,0,0,1,1.05.15l1,1-4.83,4.14-.89-.75,1.2-2.56-.86-.93Z"/><path class="cls-12" d="M226.48,146.85c-.54-.59,0-.86-.6-1.8-.44-.72-.78-1.13-1.34-1.27l-1.12-.23c-.25.34.3,1.92-.21,2.29a8.17,8.17,0,0,1-3.36,2.58l-.63,1.2s0,.07,0,.12-.12.14-.15.21c-.86,1.79,1,1.06,2.72,0s1.69-3.06,2.71-3.61,1.83,1.24,1.83,1.24S227,147.44,226.48,146.85Z"/><path class="cls-8" d="M213.66,111.19l-6.08,3c1.08,4.16,5.45,10.54,7.18,13.71,2,3.39,8.53,5.52,17.78,9.9l.41-2.76-12.21-9C218.71,120.28,217.53,114.18,213.66,111.19Z"/><path class="cls-8" d="M233,135.09l1.82.3a1.08,1.08,0,0,1,1-.25l1.26.58-3,5.63L233,141l.18-2.83-1.14-.54Z"/><path class="cls-12" d="M238.58,137.08c-.72-.35-.28-.82-1.22-1.46a2.39,2.39,0,0,0-1.72-.69l-1.12.21c-.11.4,1,1.67.64,2.21A8.12,8.12,0,0,1,233,141l-.15,1.34c0,.06,0,.08,0,.13a1.36,1.36,0,0,0-.07.25c-.14,2,1.34.61,2.52-1s.45-3.46,1.2-4.35,2.15.48,2.15.48S239.3,137.43,238.58,137.08Z"/><path class="cls-15" d="M196.56,81.48a79.16,79.16,0,0,0-2.07,10.11c-.16,1.68-.33,2.8.09,3.57,2.43,4.22,4.58,3.44,10.19,5.66l1.58-3.65c-1.21-1.67-4.83-2.44-7.88-3.27l.06-2.65.16-9.15Z"/><path class="cls-15" d="M196.56,81.49a3,3,0,0,1-.75-1.52,6.64,6.64,0,0,1,1-2.24c.4-.48,1.91.1,1.89.92l.12,1.68.45-.28c.45,0,.35.31.18.72l-.76,1.33Z"/><path class="cls-16" d="M202.35,94.84c-1.41-.29-1.88,4.09-1.61,5.12s3.65,1.62,4.39,1.15,1.55-3.66,1.37-4.11S203.88,95.15,202.35,94.84Z"/><path class="cls-16" d="M204.31,116.29c1-2.42-.28-8.42-2.28-11.91-.09-.18-.23-.37-.32-.56-.89-1.39.18-3.44.7-5.76.83-3,5.25-3.91,7.3-2.19,4.65,3.39,4.19,13.86,7.72,18.93C218.73,116.66,205.62,120.52,204.31,116.29Z"/><path class="cls-2" d="M205.71,103.45a5.47,5.47,0,0,0,1.07-.37c-.1.14-.14.23-.23.37a10.46,10.46,0,0,0-1.17,4.42c0,1.4.19,2.75.24,4.14a6.6,6.6,0,0,1-1,4,1.48,1.48,0,0,1-.28.28c1-2.42-.28-8.42-2.28-11.91a8.77,8.77,0,0,0,2.47-.56A11.17,11.17,0,0,0,205.71,103.45Z"/><path class="cls-13" d="M207.18,95.12a4.18,4.18,0,0,1-.68-2.25l-2.74.24-.27,3.19A8.73,8.73,0,0,0,207.18,95.12Z"/><path class="cls-2" d="M203.65,94.75l.61-.09a2.35,2.35,0,0,1,1.15,0,3.37,3.37,0,0,1,.9.58.46.46,0,0,0,.23.14,1.92,1.92,0,0,0,.63-.28,4.3,4.3,0,0,1-.66-2.26l-2.74.24Z"/><path class="cls-8" d="M209.2,89.45l-1.45,1.86-1.48,2c-2.05.28-3.35.61-4.33-.23-.42-.74-.09-2.32.6-3.81a7.81,7.81,0,0,1,2.38-2.79Z"/><path class="cls-2" d="M209.2,89.45l-1.45,1.86a2,2,0,0,0-.83-.42c-.75-.23-1.44-.46-2.14-.7a7.43,7.43,0,0,1-1.72-.65c-.14-.09-.33-.18-.52-.32a7.81,7.81,0,0,1,2.38-2.79Z"/><path class="cls-12" d="M221.65,123.18c-3,3.1-12.83,6.91-15.34,5.53-1.46-.79-1.52-12.08-1.52-12.08l12.1-1.94Z"/><polygon class="cls-11" points="173.5 68.21 193.65 80.92 194.06 60.84 196.93 60.9 196.42 86.06 171.96 70.64 173.5 68.21"/><path class="cls-17" d="M190.24,85.31a5.14,5.14,0,0,1,3-6.61,5.05,5.05,0,0,1,5.59,1.37,4.46,4.46,0,0,1,1,1.63,5.13,5.13,0,0,1-3,6.58,5,5,0,0,1-3.39,0A4.94,4.94,0,0,1,190.24,85.31Z"/><path class="cls-17" d="M190.7,62.66a5.14,5.14,0,0,1,3-6.62,5.06,5.06,0,0,1,6,1.9,3.59,3.59,0,0,1,.62,1.12,5.13,5.13,0,0,1-3,6.6,5.25,5.25,0,0,1-4.56-.46A5,5,0,0,1,190.7,62.66Z"/><path class="cls-17" d="M167.91,71.22a5.13,5.13,0,0,1,9.26-4.34,6.18,6.18,0,0,1,.36.73,5.14,5.14,0,0,1-3,6.61,4.68,4.68,0,0,1-2.49.24A5.06,5.06,0,0,1,167.91,71.22Z"/><path class="cls-2" d="M167.91,71.22a5.13,5.13,0,0,1,9.26-4.34l-.39.15c-1,.25-2,.55-3,.85-1.29.37-2.82.9-3.28,2.18-.53,1.51.57,3.35,1.58,4.4A5.06,5.06,0,0,1,167.91,71.22Z"/><path class="cls-2" d="M190.7,62.66a5.14,5.14,0,0,1,3-6.62,5.06,5.06,0,0,1,6,1.9,1.77,1.77,0,0,1-.37.55,3,3,0,0,1-.87.41c-1,.25-2,.54-3,.85-1.3.36-2.82.89-3.28,2.17a4.11,4.11,0,0,0,.66,3.28A5,5,0,0,1,190.7,62.66Z"/><path class="cls-2" d="M190.24,85.31a5.14,5.14,0,0,1,3-6.61,5.05,5.05,0,0,1,5.59,1.37s-.06.07-.09.08a2.77,2.77,0,0,1-.87.41c-1,.26-2,.56-3,.85-1.33.38-2.85.91-3.3,2.23s.6,3.34,1.56,4.37a1.68,1.68,0,0,0,.36.31A4.94,4.94,0,0,1,190.24,85.31Z"/><path class="cls-8" d="M191.91,89.82a77,77,0,0,0,2.82,9.93c.63,1.56,1,2.64,1.72,3.13,4.1,2.63,5.64,1,11.65.34l-.27-4c-1.84-.93-5.42,0-8.51.72l-1.16-2.38-4.07-8.2Z"/><path class="cls-8" d="M191.92,89.83a2.89,2.89,0,0,1-1.37-1,6.55,6.55,0,0,1-.13-2.45c.13-.61,1.74-.79,2.1-.06l.88,1.45.27-.47c.38-.24.45.12.49.56l-.06,1.53Z"/><path class="cls-16" d="M203.2,99c-1.38.39.22,4.5.93,5.29s4-.25,4.42-1-.31-4-.67-4.28S204.7,98.59,203.2,99Z"/><path class="cls-12" d="M202.62,88.31c.45.78,2.11,1.43,3.36,1.49s-1.18,1.71.28,3.48,1.07,2.81,1,5.88,6.35,6.8,9.89,7.69-2.58-3.13-2.07-6.79,2.07-7.24-.4-7.67-3-1.43-4.42-4.39-3.47-4.1-5.8-2.94S202.06,87.32,202.62,88.31Z"/><path class="cls-4" d="M182.64,59.24H151.31a12.75,12.75,0,0,1,0-25.5A12.32,12.32,0,0,1,154,34a16.23,16.23,0,0,1,28.72,3.24,11,11,0,0,1-.11,22Zm-31.33-22a9.26,9.26,0,1,0,0,18.52h31.33a7.49,7.49,0,0,0,0-15,5.75,5.75,0,0,0-.84,0l-1.55.27-.42-1.52a12.74,12.74,0,0,0-23.46-2.66l-.7,1.29-1.4-.48A9.19,9.19,0,0,0,151.31,37.23Z"/><polygon class="cls-6" points="134.78 24.7 143.49 19.83 165.51 40.39 134.78 24.7"/><polygon class="cls-18" points="132.58 30.75 134.78 24.7 165.51 40.39 132.58 30.75"/><polygon class="cls-6" points="131.16 28.81 121.47 34.6 165.51 40.39 131.16 28.81"/><path class="cls-11" d="M129.4,27.13a69.51,69.51,0,0,0-20.25-4.32l.08-1.15A70.27,70.27,0,0,1,129.82,26Z"/><path class="cls-11" d="M76.78,27.93l-.45-1.07a73.18,73.18,0,0,1,27.9-5.36h.8v1.16h-.79A72.1,72.1,0,0,0,76.78,27.93Z"/><path class="cls-11" d="M33.67,71.26c-.08-1.23-.11-2.48-.11-3.7a55.09,55.09,0,0,1,5.66-24.9l1,.52a54.18,54.18,0,0,0-5.53,24.38c0,1.2,0,2.42.11,3.63Zm31.81-12.8c-5.43,0-8.54-3.14-8.75-8.85V49c0-4.55,1.88-8.88,5.58-12.86l.85.79C59.66,40.7,57.88,44.76,57.88,49v.56c.24,6.39,4.26,7.73,7.59,7.73a22.39,22.39,0,0,0,9.16-2.39l.5,1.05A23.5,23.5,0,0,1,65.48,58.46ZM78.86,54l-.61-1c6.29-3.87,12.63-10.47,12.63-16.51a8.16,8.16,0,0,0-2.51-5.86l.83-.81a9.27,9.27,0,0,1,2.85,6.67C92.05,43.38,84.94,50.2,78.86,54ZM42.28,39.61l-1-.62c7.43-11.75,19.12-17.41,32.37-15.56l-.16,1.15C60.72,22.79,49.46,28.26,42.28,39.61Z"/><path class="cls-11" d="M48,105.89a52.89,52.89,0,0,1-10.87-18l1.09-.4A52,52,0,0,0,48.8,105.1Z"/></g></g></g></svg>