<svg xmlns="http://www.w3.org/2000/svg" viewBox="0 0 166.69 150.75"><defs><style>.cls-1{fill:#f7f8fc;}.cls-2{fill:#f7cac8;}.cls-3,.cls-9{fill:#fff;}.cls-4{fill:#c9d5ff;}.cls-5{fill:#c4c9ff;}.cls-6{fill:#e6eeff;}.cls-7{fill:#969fff;}.cls-8{fill:#7a86ff;}.cls-9{opacity:0.2;}.cls-10{fill:#ffcb3b;}.cls-11{fill:#ffe9ad;}.cls-12{fill:#501857;}.cls-13{fill:#ff9400;}.cls-14{fill:#1a006d;}.cls-15{fill:#2a00ad;}.cls-16{fill:#f7567e;}.cls-17{fill:#de355f;}.cls-18{fill:#ffb1d0;}.cls-19{fill:#fe7592;}.cls-20{fill:#70227a;}.cls-21{fill:#feab00;}.cls-22{fill:#3e4bf6;}.cls-23{fill:#8ba3ec;}.cls-24{fill:#43b3ff;}.cls-25{fill:#3d67ff;}.cls-26{fill:#ff91ad;}.cls-27{fill:#6ecbff;}.cls-28{fill:#7070cf;}.cls-29,.cls-31{fill:#b4e4ff;}.cls-29{opacity:0.5;}.cls-30{fill:#2c34ac;}.cls-32{fill:#bfc5ff;}</style></defs><title>6</title><g id="Capa_2" data-name="Capa 2"><g id="Capa_1-2" data-name="Capa 1"><path class="cls-1" d="M70.23,141.84c7.15-10.53,12.93-11,23.7-19.87S102,98.05,107.91,87s16.1-11.6,19-21.36-15.27-13-7.32-37.3S103.58-9,81,7.07,54,35.64,36.74,33.92-3.74,69.56,7,87s-5.93,68,41.8,63.43C68.79,146.87,70.23,141.84,70.23,141.84Z"/><path class="cls-2" d="M19,147.63s-30-14.8-13.21-17.12c9.6-1.32-8.62-8.8-5.43-15.58s11.15-.68,13,4.93,4.46,7.93,5.91,5.23.79-5.39,4.44-4.75,4.09,3.86,3.66,7-.28,7.73,1.76,6.49-.52-4.45,2-5.47,8.54,9.26,2.69,13.31Z"/><path class="cls-3" d="M23.51,145.83a28.74,28.74,0,0,0-3.35-7.66,101,101,0,0,0-5.81-8.77c-4.1-5.65-8-10.19-8-10.23a.21.21,0,0,1,0-.3l.06,0a.2.2,0,0,1,.23.06h0c.42.5,4.22,5,8.15,10.38,5.23,7.2,8.29,12.71,9.11,16.39Z"/><path class="cls-3" d="M23.14,144.15c-.7.28-3.61-1.12-8.92-4.29-4.09-2.45-8.11-5.07-8.15-5.09a.2.2,0,0,1-.09-.13.22.22,0,0,1,0-.16.24.24,0,0,1,.09-.08.27.27,0,0,1,.2,0c3.65,2.38,7.47,4.74,10.48,6.46,3.43,2,5.48,2.93,6.1,2.88H23l.05-.09c.6-1.29.92-12,1-18.87a.2.2,0,0,1,.13-.19l.08,0a.18.18,0,0,1,.14.06.22.22,0,0,1,.06.15c0,1.69-.07,6.09-.24,10.32-.28,7.1-.68,8.61-.89,8.89A.35.35,0,0,1,23.14,144.15Z"/><path class="cls-3" d="M30.58,143c1.52-3.17,1.8-9.64,1.85-11v0a.21.21,0,0,1,.13-.19h.08a.19.19,0,0,1,.15.07.24.24,0,0,1,.05.14c0,.29-.17,7.08-1.71,10.77Z"/><path class="cls-4" d="M145.29,74.2s-7.24-12.16-9-7.42,5.64,19.83,5.64,19.83-3.82-4.49-5.66-2.41,4.06,10.09,4.06,10.09-3.58-.57-4,1.62,4.79,2.43,4.79,2.43l20.53-8.27s4.49-2.47,5.06-6-5.77,2.32-5.77,2.32,4.75-17.32.82-20.43-7.13,8.9-7.13,8.9S153.49,52.14,147,51.06,142.62,67.57,145.29,74.2Z"/><path class="cls-3" d="M152.36,94h0a.16.16,0,0,1-.18-.14L147.5,59.7a.14.14,0,0,1,.13-.17.16.16,0,0,1,.17.13l4.66,34.13A.16.16,0,0,1,152.36,94Z"/><path class="cls-3" d="M150.43,82.24a5,5,0,0,1-4,0c-1.92-.84-3.76-2.8-5.47-5.84A28.86,28.86,0,0,1,139,72a.14.14,0,0,1,.09-.19h0a.16.16,0,0,1,.2.09c0,.08,2.86,8,7.29,10a4.76,4.76,0,0,0,3.91,0,.17.17,0,0,1,.21.08.16.16,0,0,1-.08.2Z"/><path class="cls-3" d="M152.25,89.51a3.11,3.11,0,0,1-.49.16.15.15,0,0,1-.19-.11.16.16,0,0,1,.11-.19c6.1-1.65,8.08-18.57,8.1-18.74a.16.16,0,0,1,.31,0,63.9,63.9,0,0,1-1.76,8.83C156.74,85.16,154.69,88.53,152.25,89.51Z"/><path class="cls-5" d="M71.17,27h0a64.77,64.77,0,0,1,64.77,64.77v21.82a0,0,0,0,1,0,0H6.4a0,0,0,0,1,0,0V91.76A64.77,64.77,0,0,1,71.17,27Z" transform="translate(-21.1 31.66) rotate(-21.93)"/><rect class="cls-6" x="33.46" y="10.13" width="75.63" height="120.22" transform="translate(109.82 -22.11) rotate(68.07)"/><path class="cls-7" d="M12.72,110.13h152.5a1,1,0,0,1,1,1v0a7.79,7.79,0,0,1-7.79,7.79H19.53a7.79,7.79,0,0,1-7.79-7.79v0a1,1,0,0,1,1-1Z" transform="translate(-36.33 41.51) rotate(-21.93)"/><path class="cls-8" d="M54,110.29h68.32a0,0,0,0,1,0,0v0a4.39,4.39,0,0,1-4.39,4.39H58.39A4.39,4.39,0,0,1,54,110.29v0A0,0,0,0,1,54,110.29Z" transform="translate(-35.63 41.05) rotate(-21.93)"/><polygon class="cls-9" points="88.17 16.77 89.2 109.69 109.58 101.49 102.74 11.15 102.66 10.94 88.17 16.77"/><polygon class="cls-9" points="73.81 115.89 86.27 110.88 79.41 20.3 72.78 22.97 73.81 115.89"/><polygon class="cls-10" points="40.95 85.56 59.47 78.11 62.96 86.77 60.81 92.86 46.25 98.72 40.95 85.56"/><polygon class="cls-11" points="60.81 92.86 62.96 86.77 59 88.36 60.81 92.86"/><rect class="cls-11" x="45.34" y="87.11" width="4.34" height="0.95" rx="0.48" transform="translate(-29.27 24.08) rotate(-21.93)"/><path class="cls-11" d="M57.28,86.45,46.91,90.63a.48.48,0,0,1-.62-.27h0a.48.48,0,0,1,.26-.62l10.38-4.18a.48.48,0,0,1,.62.27h0A.48.48,0,0,1,57.28,86.45Z"/><path class="cls-11" d="M53.79,90.14,47.7,92.59a.48.48,0,0,1-.62-.26h0a.48.48,0,0,1,.26-.62l6.1-2.46a.48.48,0,0,1,.62.27h0A.48.48,0,0,1,53.79,90.14Z"/><rect class="cls-11" x="50.2" y="84.86" width="5.78" height="0.95" rx="0.48" transform="translate(-28.03 26) rotate(-21.93)"/><path class="cls-7" d="M31.3,66.65,8.36,75.88,1.09,57.81,24,48.58ZM8.74,75l21.67-8.72L23.65,49.46,2,58.19Z"/><path class="cls-7" d="M53.61,57.67,30.67,66.9,23.4,48.83,46.33,39.6ZM31.05,66l21.67-8.72L46,40.49,24.28,49.21Z"/><path class="cls-7" d="M75.91,48.69,53,57.92,45.7,39.85l22.94-9.23ZM53.35,57,75,48.31l-6.76-16.8L46.59,40.23Z"/><path class="cls-7" d="M98.22,39.71,75.28,48.94,68,30.87l22.94-9.23ZM75.66,48.05l21.67-8.72-6.77-16.8L68.89,31.25Z"/><path class="cls-7" d="M120.52,30.73,97.58,40,90.31,21.9l22.94-9.24ZM98,39.08l21.67-8.73-6.76-16.8L91.2,22.27Z"/><path class="cls-7" d="M38.32,84.08,15.38,93.31,8.11,75.24,31.05,66ZM15.76,92.43,37.43,83.7,30.67,66.9,9,75.62Z"/><path class="cls-7" d="M60.63,75.1,37.69,84.34,30.41,66.27,53.35,57ZM38.07,83.45l21.67-8.73L53,57.92,31.3,66.65Z"/><path class="cls-7" d="M82.93,66.12,60,75.36,52.72,57.29l22.94-9.24ZM60.37,74.47,82,65.75,75.28,48.94,53.61,57.67Z"/><path class="cls-7" d="M105.23,57.15,82.3,66.38,75,48.31,98,39.08ZM82.67,65.49l21.68-8.72L97.58,40,75.91,48.69Z"/><path class="cls-7" d="M127.54,48.17,104.6,57.4,97.33,39.33l22.94-9.23ZM105,56.51l21.67-8.72L119.89,31,98.22,39.71Z"/><path class="cls-7" d="M45.34,101.52,22.4,110.75,15.13,92.68l22.94-9.23Zm-22.56,8.34,21.67-8.72-6.76-16.8L16,93.06Z"/><path class="cls-7" d="M67.64,92.54l-22.93,9.23L37.43,83.7l22.94-9.23Zm-22.56,8.34,21.68-8.72L60,75.36,38.32,84.08Z"/><path class="cls-7" d="M90,83.56,67,92.79,59.74,74.72l22.93-9.23ZM67.39,91.9l21.67-8.72L82.3,66.38,60.63,75.1Z"/><path class="cls-7" d="M112.25,74.58,89.31,83.81,82,65.75,105,56.51ZM89.69,82.93l21.67-8.73L104.6,57.4,82.93,66.12Z"/><path class="cls-7" d="M134.56,65.6l-22.94,9.24-7.27-18.07,22.93-9.24ZM112,74l21.67-8.73-6.77-16.8-21.67,8.73Z"/><path class="cls-7" d="M52.36,119l-22.94,9.23-7.27-18.06,22.93-9.24ZM29.8,127.3l21.67-8.73-6.76-16.8L23,110.49Z"/><path class="cls-7" d="M74.66,110l-22.94,9.24-7.27-18.07L67.39,91.9ZM52.1,118.32l21.67-8.73L67,92.79l-21.67,8.73Z"/><path class="cls-7" d="M97,101,74,110.23,66.76,92.16l22.93-9.23Zm-22.56,8.35,21.67-8.72L89.31,83.81,67.64,92.54Z"/><path class="cls-7" d="M119.27,92l-22.94,9.23L89.06,83.18,112,74Zm-22.56,8.34,21.67-8.72-6.76-16.8L90,83.56Z"/><path class="cls-7" d="M141.58,83l-22.94,9.23L111.36,74.2,134.3,65ZM119,91.38l21.67-8.72-6.77-16.8-21.67,8.72Z"/><path class="cls-12" d="M57.56,29.93a2.55,2.55,0,0,0,1.28-.52c.25-.23-.62-3-1-2.95s-.31,1.79-.36,1.94l-.27.75Z"/><path class="cls-13" d="M40.46,37.28c2.89-1.16,7.19-3.58,8.6-4s7.19-2.32,8.65-3.25a3.17,3.17,0,0,0-.6-1.48s-7.52.63-9.18,1.07-8.32,4-8.32,4Z"/><path class="cls-14" d="M32,19.77c-.06.71-.27,1-1.75,1.62s-2.58,1.84-1.31,3.27,3.54-.28,4.57-1.15S38.63,21,38,19.3s-1.88-1-2.51-2Z"/><path class="cls-15" d="M49.11,25.56h0a.36.36,0,0,0,.23-.35V20.49a.27.27,0,0,0-.37-.25l-.07,0a.27.27,0,0,0-.17.25v4.79A.27.27,0,0,0,49.11,25.56Z"/><path class="cls-15" d="M43.7,26.94l5.12-2.06a.36.36,0,0,1,.48.2h0a.37.37,0,0,1-.2.49L44,27.63a.37.37,0,0,1-.48-.21h0A.36.36,0,0,1,43.7,26.94Z"/><path class="cls-16" d="M35.83,20.84c1.84-.28,4.17,1.53,5.31,2.67s3.29.51,4.3-.13c0,0,.8.59.65,1.34a7.38,7.38,0,0,1-6.46,2.14Z"/><path class="cls-16" d="M33.59,21.52c-1.28,1.09-2.85,2.86-.91,7.68.87,2.17,1.82,4,1.82,4l7.58-3s-3.17-9-6.25-9.27Z"/><path class="cls-17" d="M41.74,29.21a6.75,6.75,0,0,1-4.41.75,4.6,4.6,0,0,1-3.39-2.25,6.1,6.1,0,0,0,2.93,3,8.78,8.78,0,0,0,1.5.4l-3.09,1.73,6.8-2.74S42,29.76,41.74,29.21Z"/><path class="cls-17" d="M41.32,26.24c-.46-.69-3-3.6-3-3.6a22.12,22.12,0,0,1,2.42,4.18l.08.17a7,7,0,0,0,3-.65l1-.53A5.07,5.07,0,0,1,41.32,26.24Z"/><path class="cls-18" d="M33.83,20.23a1,1,0,0,1-.24,1.29s.73,2.06,2.35,1c.9-.59.07-1.52-.11-1.68s-.59.24-.8-.59Z"/><path class="cls-19" d="M35.36,20.78c-.13-.06-.25-.19-.33-.53l-1.2,0a1,1,0,0,1,.13.52h0A1.22,1.22,0,0,0,35.36,20.78Z"/><path class="cls-16" d="M33.22,24.3c.92-1.85,3.07-.9,4.83,1.48s3.73,1.59,3.73,1.59.37.08.55,1.38c0,0-1.51,1.64-5,1.21S32.65,25.44,33.22,24.3Z"/><path class="cls-20" d="M55.12,29.55a8.91,8.91,0,0,0,2.09.07c.87-.12,1.26-.27,1.28.06s-2.14,1.21-2.73,1.44-1.11-.47-1.11-.47Z"/><path class="cls-21" d="M34.5,33.16c.76,2.44,2.73,5.65,6.59,3.87s5.53-5.31,6.86-6,5.35.48,6.8.13a2.64,2.64,0,0,0,.35-2s-6.55-3.77-8.81-2.86-6,4.47-6,4.47Z"/><path class="cls-18" d="M41.89,27.45s1.35-1.24,1.82-1.08S44,28,42.3,28.53Z"/><path class="cls-18" d="M45.51,23.58s1.16-1.38,1.76-1-1.16,2-1.16,2Z"/><path class="cls-17" d="M41.78,27.37s-2,.79-3.73-1.59A8.17,8.17,0,0,0,36.29,24s2.59,1.9,3.18,2.51A2.42,2.42,0,0,0,41.78,27.37Z"/><path class="cls-18" d="M33.37,16.83c-1,.51-.66,2-.07,3a1.43,1.43,0,0,0,2.09.52c.72-.36.75-1.4.25-2.39S34.18,16.42,33.37,16.83Z"/><path class="cls-22" d="M31.12,17.94c-.47.59.36,2,.85,1.83a16.66,16.66,0,0,0,2-1.37c.8-.55,2-.79,1.77-1.28s-.44-1.65-.91-1.69A7.94,7.94,0,0,0,31.12,17.94Z"/><path class="cls-22" d="M31.2,18.13a2,2,0,0,1,.15-3c1.69-1.48,3.47.66,3.47.66Z"/><path class="cls-23" d="M32.55,19.4h0a1.86,1.86,0,0,1-1.13-1.2.69.69,0,0,1,0-.65s0,0,.05,0,0,0,0,0-.08.32,0,.59c.18.5.64,1.08,1.08,1.15,0,0,0,0,0,0A0,0,0,0,1,32.55,19.4Z"/><path class="cls-23" d="M33.59,18.68c-.15.05-.38-.13-.55-.31-.43-.45-1-1.34-.83-1.55a0,0,0,0,1,0,0,0,0,0,0,1,0,.05c-.11.15.36,1,.83,1.47.23.23.4.33.49.28a0,0,0,0,1,0,.05S33.6,18.67,33.59,18.68Z"/><path class="cls-23" d="M34.36,18.19a0,0,0,0,1,0,0,0,0,0,0,1,0,0c.08,0,.08-.18,0-.41-.18-.62-.83-1.6-1.19-1.53,0,0,0,0,0,0s0,0,0,0c.43-.08,1.09,1,1.26,1.58.09.27.07.44,0,.49Z"/><path class="cls-23" d="M35.37,17.68h0a0,0,0,0,1,0-.05c.1-.15-.23-.9-.6-1.46-.26-.39-.44-.56-.51-.55s0,0,0,0a0,0,0,0,1,0,0c.15,0,.39.3.57.57.33.5.74,1.33.61,1.54Z"/><path class="cls-23" d="M34.12,15.67a0,0,0,0,1,0,0,2.55,2.55,0,0,0-2.21-.87s0,0,0,0,0,0,0,0a2.58,2.58,0,0,1,2.29.89,0,0,0,0,1,0,.05Z"/><path class="cls-23" d="M32.33,16.8s0,0,0,0-.27-.4-.5-.82c-.31-.58-.39-.94-.23-1.07h0a0,0,0,0,1,0,0c-.13.1,0,.45.25,1s.5.81.5.82,0,0,0,0Z"/><path class="cls-23" d="M31.58,17.47h0a2.65,2.65,0,0,1-.62-1.71.58.58,0,0,1,.12-.4h.05a0,0,0,0,1,0,.05.53.53,0,0,0-.11.35,2.61,2.61,0,0,0,.6,1.66s0,0,0,.05Z"/><path class="cls-13" d="M37.34,32.87l3-2-5.8,2.33c.08.24.16.49.26.75Z"/><polygon class="cls-10" points="94.79 56.38 114.04 51.09 116.52 60.09 113.69 65.89 98.55 70.06 94.79 56.38"/><polygon class="cls-11" points="113.69 65.89 116.52 60.09 112.4 61.22 113.69 65.89"/><path class="cls-11" d="M102.84,59.15l-3.27.9a.48.48,0,0,1-.59-.34h0a.47.47,0,0,1,.33-.58l3.27-.9a.48.48,0,0,1,.59.33h0A.48.48,0,0,1,102.84,59.15Z"/><path class="cls-11" d="M110.91,59.13l-10.78,3a.48.48,0,0,1-.59-.33h0a.48.48,0,0,1,.34-.59l10.78-3a.48.48,0,0,1,.59.33h0A.48.48,0,0,1,110.91,59.13Z"/><path class="cls-11" d="M107,62.39l-6.34,1.74a.48.48,0,0,1-.59-.33h0a.48.48,0,0,1,.34-.59l6.33-1.74a.48.48,0,0,1,.59.34h0A.47.47,0,0,1,107,62.39Z"/><path class="cls-11" d="M109.33,57.36l-4.65,1.28a.48.48,0,0,1-.59-.33h0a.48.48,0,0,1,.33-.59l4.66-1.28a.47.47,0,0,1,.58.34h0A.47.47,0,0,1,109.33,57.36Z"/><path class="cls-18" d="M122.7,93a18.05,18.05,0,0,1,7.52,8.58c-.46.12-.5.91-.77,1.31A45.22,45.22,0,0,0,119,93.91Z"/><path class="cls-18" d="M115.62,95.6c1.48,4.37,3.56,7.94,5.7,12,.42-.17.55-.68,1-.85a71.53,71.53,0,0,0-4.1-12.1C117.34,95,116.47,95.26,115.62,95.6Z"/><path class="cls-22" d="M122.31,106.79s1.2,1.14.82,1.29l-3.87,1.55c-.31.13-.9.15-.28-.69S122.31,106.79,122.31,106.79Z"/><path class="cls-22" d="M130.22,101.54s1.21.47,1,1.43a6.29,6.29,0,0,1-2.4,2.81c-.51.21-1.46.59-.85-.46a18,18,0,0,0,1.07-2.28A2.35,2.35,0,0,1,130.22,101.54Z"/><path class="cls-24" d="M115.82,96.24a12.64,12.64,0,0,0,7.57-3,2.62,2.62,0,0,1-2-2.35,12.27,12.27,0,0,0-4.54-10.29,14.64,14.64,0,0,0-5,2.29h0a15.16,15.16,0,0,0,3.91,13.38Z"/><path class="cls-16" d="M110.94,84.23a8.07,8.07,0,0,0,7.25-2.72,6.24,6.24,0,0,1-1.46-2.83A13,13,0,0,0,115,65.91c-.48.2-1.11.55-1.59.74.84,1.79,1.67,3.79,1.09,5.67a4.82,4.82,0,0,1-3.86,3.14,7,7,0,0,1-5-1.31,13,13,0,0,1-3.47-3.89c-.36.18-1.07.59-1.43.76a18.94,18.94,0,0,0,9.94,9.9A9.61,9.61,0,0,1,110.94,84.23Z"/><path class="cls-18" d="M114.67,66.21a3.15,3.15,0,0,0,.46-3.53c-.86.31-1.11,1.34-1.47,2.18-.14.33-.66-.78-1.07-.69s-.16.51.11,1a12.17,12.17,0,0,0,1,1.35Z"/><path class="cls-18" d="M102,70.33a2.39,2.39,0,0,0,.14-1.67c-.31-.77-.11-1.73-.56-1.4s0,1-.06,1.13-.74-1.47-1.19-1.29-1,1.05-.79,1.5.62,2.1,1.18,2.39Z"/><path class="cls-18" d="M110.05,69.77c1.09-.44,2.08.88,2.42,2a1.5,1.5,0,0,1-1,2c-.79.32-1.65-.37-2.08-1.46S109.16,70.13,110.05,69.77Z"/><path class="cls-18" d="M110.81,74.72a.64.64,0,0,0,.41-.68,2.62,2.62,0,0,0-.32-1l.92-.39a3.35,3.35,0,0,0,1.47,2.27c-.12.45-.13,1-.53,1.23a1.18,1.18,0,0,1-1.28-.13C111.11,75.76,111,75.14,110.81,74.72Z"/><path class="cls-14" d="M108.83,69.9a2.07,2.07,0,0,0,.66,2.61c.64.38,1.5.34,2.05.84s.57,1.36.86,2.05a2.65,2.65,0,0,0,5.1-.88,1.37,1.37,0,0,0-.31-1c-.32-.34-.86-.4-1.18-.74s-.26-1.17-.49-1.73c-.32-.78-1.25-1.06-2.06-1.27a4.32,4.32,0,0,1-1.4-.58c-.3-.2-.53-.58-.89-.68C110.29,68.24,109.18,69.18,108.83,69.9Z"/><path class="cls-25" d="M25.21,148.46l.07,0a.43.43,0,0,0,.25-.49l-1.36-6.38,11-4.42,1.33,6.24a.42.42,0,0,0,.5.32l.07,0a.42.42,0,0,0,.26-.48L25.16,86.3a.42.42,0,0,0-.83.17l1,4.54-11,4.43L13.37,91a.42.42,0,1,0-.83.18L24.7,148.13A.43.43,0,0,0,25.21,148.46Zm8.15-19.7-11,4.42-1.43-6.71,11-4.42ZM16.1,103.83l11-4.43,1.43,6.71-11,4.42ZM28.7,107l1.44,6.71-11,4.42-1.43-6.71Zm1.62,7.55,1.43,6.71-11,4.42-1.43-6.71ZM25.48,91.86l1.43,6.7-11,4.42-1.43-6.7ZM24,140.73,22.55,134l11-4.42L35,136.3Z"/><polygon class="cls-22" points="33.44 67.09 51.96 59.63 55.45 68.29 53.3 74.38 38.73 80.25 33.44 67.09"/><polygon class="cls-7" points="53.3 74.38 55.45 68.29 51.49 69.88 53.3 74.38"/><rect class="cls-7" x="37.83" y="68.63" width="4.34" height="0.95" rx="0.48" transform="matrix(0.93, -0.37, 0.37, 0.93, -22.91, 19.94)"/><path class="cls-7" d="M49.77,68,39.4,72.15a.47.47,0,0,1-.62-.26h0a.47.47,0,0,1,.26-.62l10.38-4.18a.48.48,0,0,1,.62.26h0A.47.47,0,0,1,49.77,68Z"/><path class="cls-7" d="M46.28,71.66l-6.09,2.46a.47.47,0,0,1-.62-.27h0a.48.48,0,0,1,.26-.62l6.1-2.45a.48.48,0,0,1,.62.26h0A.47.47,0,0,1,46.28,71.66Z"/><rect class="cls-7" x="42.69" y="66.39" width="5.78" height="0.95" rx="0.48" transform="translate(-21.67 21.86) rotate(-21.93)"/><polygon class="cls-16" points="93.49 23.48 112.01 16.02 115.49 24.68 113.35 30.77 98.78 36.64 93.49 23.48"/><polygon class="cls-26" points="113.35 30.77 115.49 24.68 111.54 26.28 113.35 30.77"/><rect class="cls-26" x="97.87" y="25.02" width="4.34" height="0.95" rx="0.48" transform="translate(-2.29 39.2) rotate(-21.93)"/><path class="cls-26" d="M109.82,24.37,99.44,28.54a.48.48,0,0,1-.62-.26h0a.47.47,0,0,1,.27-.62l10.37-4.18a.47.47,0,0,1,.62.27h0A.48.48,0,0,1,109.82,24.37Z"/><path class="cls-26" d="M106.33,28.06l-6.1,2.45a.48.48,0,0,1-.62-.27h0a.48.48,0,0,1,.27-.62L106,27.17a.47.47,0,0,1,.62.27h0A.48.48,0,0,1,106.33,28.06Z"/><rect class="cls-26" x="102.74" y="22.78" width="5.78" height="0.95" rx="0.48" transform="translate(-1.04 41.13) rotate(-21.93)"/><path class="cls-27" d="M12.68,90.72c-1.61,2.09-3.71,6.92-2.87,9s5.53.94,5.53.94Z"/><rect class="cls-10" x="26.64" y="80.12" width="3.14" height="7.03" transform="translate(-2.64 166.34) rotate(-140.9)"/><path class="cls-22" d="M12.81,102.59h0a2.19,2.19,0,0,0,3.08-.32L29,86.1l-3.4-2.75L12.5,99.51A2.2,2.2,0,0,0,12.81,102.59Z"/><path class="cls-28" d="M29.7,81.81a15,15,0,1,0-2.18-21A15,15,0,0,0,29.7,81.81ZM29.54,62.4a12.36,12.36,0,1,1,1.79,17.39A12.36,12.36,0,0,1,29.54,62.4Z"/><circle class="cls-29" cx="39.13" cy="70.2" r="12.36"/><path class="cls-3" d="M42.92,79.57A10.11,10.11,0,0,1,32.76,78a1.36,1.36,0,0,1-.2-1.92,1.37,1.37,0,0,1,1.92-.2,7.37,7.37,0,0,0,10.37-1.07A1.37,1.37,0,0,1,47,76.57,10,10,0,0,1,42.92,79.57Z"/><path class="cls-3" d="M42.08,63.07a1.36,1.36,0,0,1-.89,0,7.45,7.45,0,0,0-4.21,0,1.36,1.36,0,0,1-.79-2.61,10.08,10.08,0,0,1,5.76,0,1.37,1.37,0,0,1,.13,2.58Z"/><path class="cls-14" d="M21,122.74s.09,1.05.13,1.38,1.6.64,1.6.64l2.23-.9a2.54,2.54,0,0,0-.91-.37c-.56-.13-1.25-.36-1.42-1Z"/><path class="cls-14" d="M26.44,112.43s-.24.8,0,1.15,1.51.91,1.51.91l1.5-.61a2.75,2.75,0,0,1-.85-.66,9.94,9.94,0,0,1-.43-1.66Z"/><path class="cls-30" d="M28.11,101.86c.82,3,.48,9.63.48,9.63a2.83,2.83,0,0,1-2.6,1.05l-1.73-8.49Z"/><path class="cls-22" d="M15.31,102.86a29.73,29.73,0,0,0,1.51,5.42c.7,1.26,3.84,14.61,3.84,14.61s.66.27,2.54-.43c0,0-.62-8.91-1.44-13.5a10.72,10.72,0,0,0-.54-2.31s.73.07,3.73-1.19c6-2.52,2.77-5.67-1.34-5.51Z"/><path class="cls-30" d="M15.51,103.85l-.2-1L21.78,100h1.83A11.09,11.09,0,0,1,19.09,103C16.1,104.16,15.51,103.85,15.51,103.85Z"/><polygon class="cls-18" points="15.35 88.23 16.04 90.39 13.7 90.85 13.22 88.53 15.35 88.23"/><path class="cls-31" d="M13.94,89.73c2.36-.8,4.29,2,5.68,3.66a39.8,39.8,0,0,1,3.5,6.33s-1,1.1-4.47,2.43a19,19,0,0,1-4,1S9.37,91.29,13.94,89.73Z"/><path class="cls-27" d="M19.62,93.39c-.93-1.12-2.11-2.75-3.5-3.45-.37.16-.6.57-.63,1.35-.07,1.88,2.48,4.95,5.39,4.32l.18,0A15.54,15.54,0,0,0,19.62,93.39Z"/><path class="cls-31" d="M15.43,91.14c-.18,1.61,2.14,4.12,5,3.41s5.85-3,6.85-5.47l-1-1a8.82,8.82,0,0,1-4.76,2.35C18.67,90.73,15.71,88.48,15.43,91.14Z"/><path class="cls-18" d="M27,88.78s2-1.66,1.85-2-.67-.39-1.24,0A7.45,7.45,0,0,0,26.27,88Z"/><path class="cls-19" d="M14,88.9a2.8,2.8,0,0,0,1.6.19l-.28-.86-1.44.2Z"/><path class="cls-18" d="M11.83,84.87c-1.37,1.27.15,3.11.9,3.65a3,3,0,0,0,2.95-.13c.87-.49.49-1.2,0-2S13.87,83,11.83,84.87Z"/><path class="cls-14" d="M13.67,86.79s.74.64.81.23a7.8,7.8,0,0,0-.84-2.08s1.52-3.15,0-3.63-1.86,3-1.86,3-.17-1.1-.82-.77-1.16,2-.52,2.55l.4.35a.46.46,0,0,0-.54.49c0,.58.7.79,1.1.69,0,0,1.44,1.72,2.13,1.22.32-.23-.22-1-.22-1Z"/><path class="cls-18" d="M13.67,86.79s-.65-.64-1-.19.47,1.72,1.57,1Z"/><polygon class="cls-22" points="49.01 41.38 67.53 33.93 71.02 42.59 68.87 48.68 54.3 54.54 49.01 41.38"/><polygon class="cls-7" points="68.87 48.68 71.02 42.59 67.06 44.18 68.87 48.68"/><rect class="cls-7" x="53.4" y="42.93" width="4.34" height="0.95" rx="0.48" transform="translate(-12.19 23.89) rotate(-21.93)"/><path class="cls-7" d="M65.34,42.27,55,46.45a.47.47,0,0,1-.62-.27h0a.48.48,0,0,1,.26-.62L65,41.39a.47.47,0,0,1,.62.26h0A.48.48,0,0,1,65.34,42.27Z"/><path class="cls-7" d="M61.85,46l-6.09,2.45a.47.47,0,0,1-.62-.26h0a.48.48,0,0,1,.26-.62l6.1-2.46a.48.48,0,0,1,.62.27h0A.48.48,0,0,1,61.85,46Z"/><rect class="cls-7" x="58.26" y="40.68" width="5.78" height="0.95" rx="0.48" transform="translate(-10.95 25.81) rotate(-21.93)"/><polygon class="cls-7" points="70.05 93.66 88.57 86.2 92.06 94.86 89.91 100.95 75.34 106.81 70.05 93.66"/><polygon class="cls-32" points="89.91 100.95 92.06 94.86 88.1 96.45 89.91 100.95"/><rect class="cls-32" x="74.44" y="95.2" width="4.34" height="0.95" rx="0.48" transform="translate(-30.19 35.53) rotate(-21.93)"/><path class="cls-32" d="M86.38,94.54,76,98.72a.47.47,0,0,1-.62-.27h0a.48.48,0,0,1,.26-.62L86,93.66a.48.48,0,0,1,.62.26h0A.48.48,0,0,1,86.38,94.54Z"/><path class="cls-32" d="M82.89,98.23l-6.09,2.45a.48.48,0,0,1-.62-.26h0a.48.48,0,0,1,.26-.62l6.1-2.45a.48.48,0,0,1,.62.26h0A.48.48,0,0,1,82.89,98.23Z"/><rect class="cls-32" x="79.3" y="92.95" width="5.78" height="0.95" rx="0.48" transform="translate(-28.94 37.45) rotate(-21.93)"/></g></g></svg>