<?xml version="1.0" encoding="utf-8"?>
<!-- Generator: Adobe Illustrator 23.1.0, SVG Export Plug-In . SVG Version: 6.00 Build 0)  -->
<svg version="1.1" id="Capa_1" xmlns="http://www.w3.org/2000/svg" xmlns:xlink="http://www.w3.org/1999/xlink" x="0px" y="0px"
	 viewBox="0 0 264.1 213.7" style="enable-background:new 0 0 264.1 213.7;" xml:space="preserve">
<style type="text/css">
	.st0{fill:#EFF0F8;}
	.st1{opacity:0.5;}
	.st2{fill:#F9C6B5;}
	.st3{fill:#B5EFF9;}
	.st4{fill:#DDF7FC;}
	.st5{fill:#ABB8FC;}
	.st6{fill:#E6E9F8;}
	.st7{fill:#C6B5F9;}
	.st8{fill:#DDE6FC;}
	.st9{fill:#8497FA;}
	.st10{fill:#9A92EA;}
	.st11{fill:#A8CFEF;}
	.st12{fill:#9F91D3;}
	.st13{fill:#393768;}
	.st14{fill:#ADADEA;}
	.st15{fill:#DADEEA;}
	.st16{fill:#CCE9F1;}
	.st17{fill:#CCD7F1;}
	.st18{opacity:0.1;enable-background:new    ;}
	.st19{fill:#9DA8F3;}
	.st20{opacity:0.1;}
	.st21{fill:#EDB6A4;}
	.st22{fill:#635FB5;}
	.st23{fill:#8D9DD8;}
	.st24{fill:#E0A494;}
	.st25{fill:#A2F8DE;}
	.st26{fill:#6172CC;}
</style>
<title>4</title>
<g>
	<g>
		<g id="Capa_1-2">
			<g id="Data_Center">
				<path class="st0" d="M51.2,185.3c-45.4,0-44.5,13-25.5,13.1s8.1,10.6,43,10.8c14.8,0.1,24-5.6,51.6-6.4s50,8,87.7,6.2
					c33-1.6,38.8-15.8,4.3-16.1c-31.6-0.3,4.8-6.8-8.6-7.6S51.2,185.3,51.2,185.3z"/>
				<path class="st0" d="M51.2,159.7c-28.7-12.8-10.9-30.7-23.6-48S13.8,63.8,39.4,74.8S99.1,54,78.1,29.2s0.6-38.9,22.1-21.3
					s39.3,57.8,73.5,39.2s61,1.1,41.1,23.9s-2.8,91.9-32.8,91.3S51.2,159.7,51.2,159.7z"/>
				<g class="st1">
					<path class="st2" d="M84.5,10.2c-1.2,0-2.2-1-2.2-2.2h1.2c0,0.5,0.4,0.9,0.9,0.9s0.9-0.4,0.9-0.9S85,7.1,84.5,7.1V5.8
						c1.2,0.1,2.1,1.1,2,2.3C86.5,9.2,85.6,10.1,84.5,10.2z"/>
					<path class="st2" d="M112.9,44.9c-1.2,0-2.2-1-2.2-2.2h1.2c0,0.5,0.4,0.9,0.9,0.9s0.9-0.4,0.9-0.9s-0.4-0.9-0.9-0.9l0,0v-1.3
						c1.2,0.1,2.1,1.1,2,2.3C114.9,43.9,114,44.8,112.9,44.9L112.9,44.9z"/>
					<path class="st2" d="M94.6,77.6c-1.2,0-2.2-1-2.2-2.2h1.2c0,0.5,0.4,0.9,0.9,0.9s0.9-0.4,0.9-0.9s-0.4-0.9-0.9-0.9v-1.2
						c1.2,0,2.2,1,2.2,2.2S95.8,77.6,94.6,77.6z"/>
					<path class="st2" d="M155.8,76c-1.2,0-2.2-1-2.2-2.2h1.3c0.1,0.5,0.5,0.9,1,0.8c0.4,0,0.8-0.4,0.8-0.8c0-0.5-0.4-0.9-0.9-0.9
						v-1.3c1.2-0.1,2.3,0.8,2.3,2c0.1,1.2-0.8,2.3-2,2.3C156,76,155.9,76,155.8,76L155.8,76z"/>
					<path class="st2" d="M195,53.8c-1.2,0-2.2-1-2.2-2.2h1.3c0,0.5,0.4,0.9,0.9,0.9s0.9-0.4,0.9-0.9s-0.4-0.9-0.9-0.9l0,0v-1.2
						c1.2,0,2.2,1,2.2,2.2S196.2,53.8,195,53.8z"/>
					<path class="st2" d="M35.7,88.9c-1.2,0-2.2-1-2.2-2.2h1.2c0,0.5,0.4,0.9,0.9,0.9s0.9-0.4,0.9-0.9s-0.4-0.9-0.9-0.9v-1.2
						c1.2,0,2.2,1,2.2,2.2S36.9,88.9,35.7,88.9z"/>
					<path class="st2" d="M35.5,111.9c-1.2,0-2.2-1-2.2-2.2h1.3c0,0.5,0.4,0.9,0.9,0.9s0.9-0.4,0.9-0.9s-0.4-0.9-0.9-0.9l0,0v-1.2
						c1.2-0.1,2.3,0.8,2.3,2c0.1,1.2-0.8,2.3-2,2.3C35.7,111.9,35.6,111.9,35.5,111.9z"/>
					<path class="st2" d="M72.3,87.5c-1.2,0-2.2-1-2.2-2.2l0,0h1.3c-0.1,0.5,0.3,1,0.8,1c0.5,0.1,1-0.3,1-0.8c0-0.1,0-0.1,0-0.2
						c0-0.5-0.4-0.9-0.9-0.9v-1.3c1.2,0.1,2.1,1.1,2,2.3C74.2,86.6,73.4,87.4,72.3,87.5z"/>
					<path class="st2" d="M126.5,81.8c-1.2,0-2.2-1-2.2-2.2h1.2c0,0.5,0.4,0.9,0.9,0.9s0.9-0.4,0.9-0.9s-0.4-0.9-0.9-0.9l0,0v-1.3
						c1.2,0.1,2.1,1.1,2,2.3C128.5,80.8,127.6,81.7,126.5,81.8z"/>
					<path class="st2" d="M134.7,55.7c-1.2,0-2.2-1-2.2-2.2h1.2c0,0.5,0.4,0.9,0.9,0.9s0.9-0.4,0.9-0.9s-0.4-0.9-0.9-0.9l0,0v-1.2
						c1.2,0,2.2,1,2.2,2.2S135.9,55.7,134.7,55.7z"/>
					<path class="st2" d="M189.5,133.2c-1.2,0-2.2-1-2.2-2.2h1.2c0,0.5,0.4,0.9,0.9,0.9s0.9-0.4,0.9-0.9s-0.4-0.9-0.9-0.9l0,0v-1.3
						c1.2,0.1,2.1,1.1,2,2.3C191.5,132.2,190.6,133.1,189.5,133.2z"/>
					<path class="st2" d="M89.5,55.5c-1.2,0-2.2-1-2.2-2.2l0,0h1.2c0,0.5,0.4,0.9,0.9,0.9s0.9-0.4,0.9-0.9s-0.4-0.9-0.9-0.9v-1.2
						c1.2,0,2.2,1,2.2,2.2S90.7,55.5,89.5,55.5z"/>
					<path class="st2" d="M98.8,23.6c-1.2,0-2.2-1-2.2-2.2h1.3c0,0.5,0.4,0.9,0.9,0.9s0.9-0.4,0.9-0.9s-0.4-0.9-0.9-0.9l0,0v-1.3
						c1.2-0.1,2.3,0.8,2.3,2c0.1,1.2-0.8,2.3-2,2.3C99,23.7,98.9,23.7,98.8,23.6z"/>
					<path class="st3" d="M76.9,17.8c-1.2,0-2.2-1-2.2-2.2s1-2.2,2.2-2.2s2.2,1,2.2,2.2l0,0h-1.2c0-0.5-0.4-0.9-0.9-0.9
						s-0.9,0.4-0.9,0.9c0,0.5,0.4,0.9,0.9,0.9L76.9,17.8L76.9,17.8z"/>
					<path class="st3" d="M104.2,35.4c-1.2,0-2.2-1-2.2-2.2s1-2.2,2.2-2.2s2.2,1,2.2,2.2h-1.3c0-0.5-0.4-0.9-0.9-0.9
						s-0.9,0.4-0.9,0.9s0.4,0.9,0.9,0.9C104.2,34.1,104.2,35.4,104.2,35.4z"/>
					<path class="st3" d="M113.6,60.8c-1.2,0-2.2-1-2.2-2.2s1-2.2,2.2-2.2s2.2,1,2.2,2.2h-1.3c0-0.5-0.4-0.9-0.9-0.9
						s-0.9,0.4-0.9,0.9s0.4,0.9,0.9,0.9C113.6,59.5,113.6,60.8,113.6,60.8z"/>
					<path class="st3" d="M78.7,76.8c-1.2,0-2.2-1-2.2-2.2s1-2.2,2.2-2.2s2.2,1,2.2,2.2h-1.2c0-0.5-0.4-0.9-0.9-0.9
						s-0.9,0.4-0.9,0.9s0.4,0.9,0.9,0.9L78.7,76.8L78.7,76.8z"/>
					<path class="st3" d="M44.3,104.4c-1.2,0-2.2-1-2.2-2.2s1-2.2,2.2-2.2s2.2,1,2.2,2.2h-1.3c0-0.5-0.4-0.9-0.9-0.9
						s-0.9,0.4-0.9,0.9s0.4,0.9,0.9,0.9V104.4z"/>
					<path class="st3" d="M46.5,85.7c-1.2,0-2.2-1-2.2-2.2s1-2.2,2.2-2.2s2.2,1,2.2,2.2l0,0h-1.2c0-0.5-0.4-0.9-0.9-0.9
						s-0.9,0.4-0.9,0.9s0.4,0.9,0.9,0.9l0,0L46.5,85.7L46.5,85.7z"/>
					<path class="st3" d="M27,84.1c-1.2,0-2.2-1-2.2-2.2s1-2.2,2.2-2.2s2.2,1,2.2,2.2c0,0,0,0,0,0.1H28c0-0.5-0.4-0.9-0.9-0.9
						s-0.9,0.4-0.9,0.9s0.4,0.9,0.9,0.9l0,0v1.2H27z"/>
					<path class="st3" d="M111.9,87.9c-1.2,0-2.2-1-2.2-2.2s1-2.2,2.2-2.2s2.2,1,2.2,2.2l0,0h-1.2c0-0.5-0.4-0.9-0.9-0.9
						s-0.9,0.4-0.9,0.9s0.4,0.9,0.9,0.9L111.9,87.9L111.9,87.9z"/>
					<path class="st3" d="M153.3,67c-1.2,0-2.2-1-2.2-2.2c0-1.2,1-2.2,2.2-2.2s2.2,1,2.2,2.2h-1.3c0-0.5-0.4-0.9-0.9-0.9
						s-0.9,0.4-0.9,0.9s0.4,0.9,0.9,0.9l0,0V67z"/>
					<path class="st3" d="M149.4,86.7c-1.2,0-2.2-1-2.2-2.2s1-2.2,2.2-2.2s2.2,1,2.2,2.2l0,0h-1.2c0-0.5-0.4-0.9-0.9-0.9
						s-0.9,0.4-0.9,0.9s0.4,0.9,0.9,0.9l0,0v1.3H149.4z"/>
					<path class="st3" d="M187.8,51.6c-1.2,0-2.2-1-2.2-2.2s1-2.2,2.2-2.2s2.2,1,2.2,2.2l0,0h-1.3c0-0.5-0.4-0.9-0.9-0.9
						s-0.9,0.4-0.9,0.9s0.4,0.9,0.9,0.9l0,0V51.6z"/>
					<path class="st3" d="M212.4,58.8c-1.2,0-2.2-1-2.2-2.2s1-2.2,2.2-2.2s2.2,1,2.2,2.2l0,0h-1.2c0-0.5-0.4-0.9-0.9-0.9
						s-0.9,0.4-0.9,0.9s0.4,0.9,0.9,0.9l0,0v1.3H212.4z"/>
					<path class="st3" d="M188.1,143.5c-1.2,0-2.2-1-2.2-2.2s1-2.2,2.2-2.2s2.2,1,2.2,2.2H189c0-0.5-0.4-0.9-0.9-0.9
						s-0.9,0.4-0.9,0.9s0.4,0.9,0.9,0.9l0,0V143.5z"/>
				</g>
				<path class="st4" d="M51.8,167.8c-8.3-3.9-12.4-7.6-10.3-13s1.6-5.8-2.6-10.1s-1-5.6-0.3-9.2s-2.6-5.9-5-9.7s2.4-11.2,7.2-8.4
					s-0.1,7.7,3.6,11.7c3.6,4.1,11.6,3.2,10.7,8.2s-6.8,8.7-2,12.2s8.1,5.9,5.3,11.4S51.8,167.8,51.8,167.8z"/>
				<path class="st5" d="M39.4,125.8c3.1,9.6,6.2,19.2,9.2,28.8c1.5,4.8,3.1,9.6,4.5,14.4s2.7,9.7,3.8,14.6h-0.1
					c-1.8-4.7-3.4-9.5-5-14.3s-2.9-9.6-4.3-14.5c-2.8-9.7-5.6-19.4-8.4-29.1L39.4,125.8z"/>
				<path class="st6" d="M47.5,138c-0.9,0.7-1.8,1.3-2.9,1.7c-2.1,0.9-3.9,2.1-5.4,3.8c-0.5-2.5-1.6-4.9-3.2-6.9
					c-0.2-0.2-0.3-0.4-0.5-0.6c0.2-2.1,1.5-3.9,2.7-5.5c0.7-0.8,1.2-1.7,1.6-2.7c0.1-0.2,0-0.4-0.2-0.4c-0.2-0.1-0.4,0-0.4,0.2
					c0,0,0,0,0,0.1c-0.4,0.9-0.9,1.8-1.5,2.5c-1.3,1.5-2.2,3.3-2.7,5.2c-2-2.2-4.3-4.1-6.9-5.6c0.1-0.1,0.1-0.2,0-0.3
					c-0.8-1.8-0.5-3.9-0.2-5.7c0.2-1,0.3-2,0.2-3c0-0.2-0.2-0.3-0.4-0.2c-0.2,0-0.3,0.2-0.2,0.4c0.1,0.9,0,1.8-0.2,2.7
					c-0.5,1.9-0.4,3.9,0.1,5.8c-1-0.6-2.1-1.2-3.2-1.8c0-0.1-0.1-0.1-0.2-0.2h-0.1c-1.1-0.6-2.2-1.1-3.2-1.6l2.7,1.6
					c-1.9,0.1-3.7,0.7-5.3,1.6c-0.8,0.5-1.7,0.8-2.6,1c-0.2,0-0.3,0.2-0.3,0.3l0,0c0,0.2,0.2,0.3,0.3,0.3l0,0c1-0.2,1.9-0.5,2.8-1
					c1.7-0.8,3.6-1.7,5.5-1.5c0.1,0,0.2,0,0.3-0.2l0,0c1.5,0.9,3,1.9,4.4,2.9c0.6,0.4,1.2,0.9,1.8,1.4c-1.9,0.2-3.7,0.8-5.4,1.8
					c-0.9,0.5-1.8,0.9-2.7,1.1c-0.2,0-0.3,0.2-0.2,0.4c0,0.2,0.2,0.3,0.3,0.3c1.1-0.2,2.1-0.6,3-1.2c1.8-0.9,3.8-1.9,5.9-1.7l0,0
					c1.5,1.3,2.9,2.7,4.1,4.3c0.4,0.6,0.8,1.2,1.1,1.8c-2.3,0.3-4.4,1.7-6.1,2.9c-0.9,0.7-1.8,1.2-2.9,1.6c-0.2,0-0.3,0.3-0.3,0.5
					l0,0c0.1,0.2,0.3,0.3,0.5,0.3c1.1-0.4,2.2-1,3.1-1.8c1.8-1.2,3.8-2.6,6-2.8c0.2,0.5,0.5,1,0.7,1.5c0.5,1.4,0.9,2.9,1,4.4
					c0.1,1.4,0.1,2.7,0,4.1c-1.6-0.2-3.3-0.1-4.9,0.3c-0.8,0.2-1.7,0.3-2.5,0.3c-0.2,0-0.3,0.1-0.3,0.2c0,0.2,0.1,0.3,0.2,0.3
					c0.9,0,1.8-0.1,2.7-0.3c1.6-0.4,3.2-0.6,4.8-0.3c-0.1,1.5-0.3,3.1-0.4,4.6s-0.3,3.4-0.3,5.1c-1.1-0.6-2.3-0.9-3.5-1.1
					c-0.7-0.1-1.4-0.2-2-0.5c-0.1-0.1-0.2,0-0.3,0.1l0,0c-0.1,0.1,0,0.3,0.1,0.3l0,0c0.7,0.3,1.4,0.5,2.1,0.6
					c1.3,0.1,2.5,0.5,3.6,1.1c0,1.3,0,2.6,0.1,3.8c0.2,3.2,0.9,6.3,2,9.3c2.3,5.9,5.7,11.3,10,15.9c-1.9-2.5-3.7-5.1-5.3-7.8
					s-2.9-5.5-3.9-8.4s-1.6-6-1.8-9.1v-0.1h0.1c1.1-1,2.4-1.6,3.9-1.8c0.7-0.1,1.4-0.4,2.1-0.7c0.1-0.1,0.1-0.2,0.1-0.3
					c-0.1-0.1-0.2-0.1-0.3-0.1c-0.6,0.3-1.3,0.6-1.9,0.7c-1.4,0.3-2.7,0.8-3.9,1.7c-0.1-2.9,0-5.7,0.4-8.6c0-0.1,0-0.3,0-0.4
					c1.6-0.6,3.4-0.8,5.1-0.6c0.9,0.1,1.8,0.1,2.8-0.1c0.2,0,0.2-0.2,0.2-0.3l0,0c-0.1-0.2-0.2-0.2-0.4-0.2
					c-0.8,0.2-1.7,0.2-2.5,0.1c-1.7-0.2-3.5,0-5.1,0.5c0.3-2.8,0.4-5.6,0.3-8.4c0-0.3-0.1-0.7-0.1-1c1.3-2,3.5-3.1,5.5-4.1
					c1.1-0.5,2.1-1.2,3-2c0.1-0.1,0.1-0.4,0-0.5l0,0C47.9,137.8,47.6,137.8,47.5,138L47.5,138z"/>
				<path class="st3" d="M27,126.8c-0.1,0.1-0.3,0.1-0.4,0c0,0,0-0.1-0.1-0.1c-1.8-4,0.1-5.7-0.2-8c-0.2-2,1.6,2.2,2.9,3.1
					C30.4,122.5,27.9,125.8,27,126.8z"/>
				<path class="st3" d="M36.5,132.8c-0.1,0.1-0.3,0-0.4-0.2v-0.1c0.3-4.7,2.9-5.5,3.8-7.7c0.8-2,0.5,2.9,1.2,4.4
					C41.8,130.3,37.8,132.2,36.5,132.8z"/>
				<path class="st3" d="M42.1,141.8c-0.2,0-0.3-0.2-0.3-0.4v-0.1c2.8-4.6,5.7-4,7.8-5.8c1.8-1.6-1,3.1-1,5
					C48.6,142.1,43.7,141.9,42.1,141.8z"/>
				<path class="st3" d="M41.8,153.9c-0.1-0.1-0.1-0.2-0.1-0.3c0,0,0-0.1,0.1-0.1c3.6-2,5.3-0.5,7.4-0.9c1.8-0.4-1.9,1.7-2.6,3
					C46.1,156.5,42.9,154.5,41.8,153.9z"/>
				<path class="st3" d="M40.9,162.8c-0.1,0-0.2-0.1-0.1-0.2c0,0,0-0.1,0.1-0.1c2.2-2.4,4-1.7,5.4-2.5c1.3-0.7-1,1.8-1.3,2.9
					C44.8,163.8,41.8,163,40.9,162.8z"/>
				<path class="st3" d="M20.7,128.4c0.1-0.1,0-0.3-0.1-0.4h-0.1c-4.4-0.5-5.5,1.7-7.7,2.2c-2,0.4,2.6,0.9,3.8,1.9
					C17.6,132.8,20,129.5,20.7,128.4z"/>
				<path class="st3" d="M27.8,133.3c0.1-0.1,0-0.3-0.1-0.4h-0.1c-4.7-0.5-5.9,2-8.2,2.5c-2.1,0.4,2.8,0.9,4.1,1.9
					C24.5,138.1,27,134.5,27.8,133.3z"/>
				<path class="st3" d="M33.4,140.6c0.1-0.2,0-0.3-0.2-0.4h-0.1c-5.4,0.2-6.3,3-8.9,4c-2.3,0.8,3.2,0.6,4.9,1.6
					C30.5,146.5,32.7,142.1,33.4,140.6z"/>
				<path class="st3" d="M36,150.1c0.1-0.1,0.1-0.2,0-0.3c0,0-0.1,0-0.1-0.1c-3.8-1.4-5.3,0.3-7.4,0.2c-1.9-0.1,2.1,1.4,3,2.5
					C32.3,153.4,35.1,150.9,36,150.1z"/>
				<path class="st3" d="M36,159.7c0.1,0,0.1-0.2,0.1-0.3c0,0,0,0,0-0.1c-2.5-2.2-4.1-1.3-5.6-2c-1.4-0.6,1.2,1.7,1.5,2.8
					C32.2,161.1,35,160.1,36,159.7z"/>
				<path class="st3" d="M22.1,126.3c0,0.1,0,0.3-0.2,0.3h-0.1c-4-0.5-4.4-2.8-6.2-3.6c-1.6-0.8,2.5-0.2,3.7-0.8
					C20.4,121.8,21.7,125.2,22.1,126.3z"/>
				<path class="st6" d="M27.4,155.4c-0.3,0.8-0.7,1.6-1.2,2.3c-1,1.4-1.8,2.9-2.1,4.6c-1.3-1.5-2.9-2.6-4.8-3.3l-0.6-0.2
					c-0.6-1.5-0.7-3.1-0.4-4.7c0.1-0.8,0.1-1.6,0-2.5c0-0.1-0.2-0.2-0.3-0.2c-0.1,0-0.2,0.2-0.2,0.3c0.1,0.8,0.1,1.5,0,2.3
					c-0.3,1.5-0.2,3.1,0.3,4.6c-2.2-0.6-4.5-1-6.8-1c0-0.1,0-0.2-0.1-0.2c-1.1-1-1.9-2.3-2.4-3.8c-0.2-0.7-0.6-1.4-1-2
					c-0.1-0.1-0.2-0.1-0.3,0c-0.1,0.1-0.1,0.2,0,0.3c0.4,0.6,0.7,1.2,0.9,1.9c0.4,1.4,1.2,2.7,2.3,3.8c-0.9,0-1.9,0-2.8,0.1
					c-0.1,0-0.1,0-0.2,0l0,0c-0.9,0.1-1.9,0.1-2.8,0.2h2.4c-1.2,0.8-2.2,1.9-3,3.1c-0.4,0.6-0.8,1.2-1.3,1.6c-0.1,0.1-0.1,0.2,0,0.3
					s0.2,0.1,0.3,0.1c0.6-0.5,1.1-1.1,1.4-1.8c0.7-1.3,1.8-2.4,3.1-3.2c0.1,0,0.1-0.1,0.1-0.2l0,0c1.4,0,2.7,0.1,4.1,0.2
					c0.6,0,1.1,0.1,1.7,0.2c-1.2,0.9-2.2,2-2.9,3.4c-0.4,0.7-0.8,1.3-1.4,1.8c-0.1,0.1-0.1,0.2-0.1,0.4c0.1,0.1,0.3,0.1,0.4,0l0,0
					c0.6-0.6,1.1-1.2,1.5-1.9c0.7-1.4,1.9-2.7,3.3-3.5l0,0c1.5,0.2,3,0.7,4.5,1.3c0.5,0.2,1,0.5,1.5,0.7c-1.3,1.2-2.3,2.7-2.9,4.3
					c-0.3,0.8-0.7,1.6-1.3,2.2c-0.1,0.1-0.2,0.3-0.1,0.4s0.3,0.2,0.4,0.1c0,0,0,0,0.1-0.1c0.6-0.7,1-1.5,1.3-2.4
					c0.6-1.6,1.7-3.1,3-4.2c0.4,0.2,0.7,0.5,1,0.7c0.9,0.7,1.7,1.6,2.4,2.6c0.6,0.9,1.1,1.8,1.6,2.7c-1.2,0.5-2.3,1.2-3.1,2.1
					c-0.5,0.5-1,0.9-1.5,1.2c-0.1,0-0.2,0.2-0.1,0.3s0.2,0.2,0.3,0.1c0.6-0.3,1.2-0.8,1.7-1.3c0.9-0.9,1.9-1.6,3-2.1
					c0.5,1.1,1,2.1,1.5,3.2s1.1,2.4,1.8,3.5c-1,0.1-1.9,0.3-2.8,0.7c-0.5,0.2-1,0.4-1.5,0.4c-0.1,0-0.2,0.1-0.2,0.2
					c0,0.1,0.1,0.2,0.2,0.2l0,0c0.6-0.1,1.1-0.2,1.6-0.5c0.9-0.4,1.9-0.6,2.8-0.7c0.5,0.9,1,1.7,1.6,2.5c1.4,2,3.1,3.8,4.9,5.4
					c3.8,3,8.2,5.3,12.9,6.7c-2.2-0.9-4.4-1.9-6.5-3.1c-2.1-1.1-4.1-2.5-5.9-4.1c-1.8-1.6-3.4-3.4-4.7-5.3l-0.1-0.1c0,0,0,0,0-0.1
					c0.4-1.1,1-2,1.9-2.7c0.4-0.4,0.8-0.8,1.1-1.3c0-0.1,0-0.2-0.1-0.2l0,0c-0.1,0-0.2,0-0.2,0.1l0,0c-0.3,0.5-0.6,0.9-1,1.2
					c-0.8,0.7-1.5,1.6-1.9,2.7c-1.2-1.9-2.2-3.8-3.1-5.8l-0.1-0.3c0.8-1.1,1.9-1.9,3.2-2.4c0.7-0.3,1.3-0.7,1.8-1.1
					c0.1-0.1,0.1-0.2,0-0.3s-0.2-0.1-0.3,0c0,0,0,0-0.1,0.1c-0.5,0.4-1.1,0.8-1.7,1.1c-1.2,0.5-2.3,1.3-3.2,2.3
					c-0.9-2-1.9-3.9-3.1-5.7l-0.5-0.6c0-1.9,1.1-3.5,2.1-4.9c0.6-0.7,1-1.6,1.3-2.4c0-0.1,0-0.3-0.2-0.3l0,0
					C27.5,155.2,27.4,155.3,27.4,155.4z"/>
				<path class="st3" d="M9.4,156c0,0.1-0.1,0.2-0.2,0.2H9.1c-2.8-2-2.2-3.8-3.2-5.2c-0.9-1.2,1.9,0.8,3.1,0.9
					C10,151.9,9.6,155,9.4,156z"/>
				<path class="st3" d="M18.1,156.3c-0.1,0.1-0.2,0.1-0.3,0.1c0,0-0.1,0-0.1-0.1c-1.7-3.3-0.2-4.8-0.5-6.6
					c-0.3-1.6,1.5,1.7,2.5,2.4C20.6,152.6,18.7,155.4,18.1,156.3z"/>
				<path class="st3" d="M25.3,160.1c-0.1,0.1-0.3,0-0.3-0.1v-0.1c0-4.1,2.2-4.9,2.9-6.9c0.6-1.8,0.5,2.5,1.3,3.7
					C29.8,157.7,26.4,159.5,25.3,160.1z"/>
				<path class="st3" d="M29.9,168.2c-0.1,0-0.2-0.1-0.2-0.2c0,0,0,0,0-0.1c1.6-2.8,3.3-2.4,4.5-3.5s-0.6,1.9-0.5,3
					C33.7,168.3,30.8,168.2,29.9,168.2z"/>
				<path class="st3" d="M32.7,174.5c-0.1,0-0.2,0-0.2-0.1c0,0,0,0,0-0.1c0.5-2.5,2-2.6,2.6-3.8s0,1.6,0.3,2.4
					S33.4,174.3,32.7,174.5z"/>
				<path class="st3" d="M5.9,159.6c0-0.1-0.1-0.2-0.2-0.2H5.6c-3.1,1.4-3,3.3-4.3,4.4c-1.1,1,2.1-0.4,3.2-0.2
					C5.6,163.7,5.8,160.6,5.9,159.6z"/>
				<path class="st3" d="M12.5,160.1c0-0.1-0.1-0.2-0.2-0.2h-0.1c-3.3,1.5-3.1,3.6-4.5,4.9c-1.2,1.1,2.2-0.5,3.5-0.3
					C12.2,164.5,12.4,161.1,12.5,160.1z"/>
				<path class="st3" d="M19.1,162.7c0-0.1-0.1-0.2-0.3-0.2h-0.1c-3.5,2.2-3,4.5-4.3,6.1c-1.2,1.4,2.4-0.8,3.8-0.9
					C19.5,167.8,19.2,164,19.1,162.7z"/>
				<path class="st3" d="M24.5,167.9c0-0.1,0-0.2-0.1-0.2c0,0,0,0-0.1,0c-3.1,0.6-3.4,2.3-4.9,3.1c-1.3,0.7,2,0.1,3,0.5
					C23.3,171.6,24.2,168.8,24.5,167.9z"/>
				<path class="st3" d="M28.3,174.4c0.1-0.1,0-0.1,0-0.2c0,0,0,0-0.1,0c-2.5-0.5-3.2,0.7-4.5,0.9s1.4,0.6,2.1,1.2
					S27.8,175,28.3,174.4z"/>
				<path class="st3" d="M6,157.7c0.1,0.1,0.1,0.2,0.1,0.2s0,0-0.1,0.1c-2.8,1.2-4-0.1-5.6,0c-1.4,0.1,1.5-1.1,2.2-2
					S5.3,157.1,6,157.7z"/>
				<path class="st7" d="M63.5,170c-2.2-2.8-2.8,4.9-6.9,5.1s-3.9-7.3-0.3-8.6s1.7-9.3-0.9-11s-1.8,8.1-5,7.5s-2.8-2.4-2.1-4.6
					s-1.5-6.9-4.3-6.2s0.8,6.4,2,9.9s-2.2,2.6-4.5-2.2s-12-12.4-15.9-11.2s-5,3.2-0.5,8.8s11.8,6.1,16,9.1s1.2,6.3-4.4,3.1
					s-12.6-6.9-16.4-4.9s1.1,7.9,9.8,8s12.5,2.8,13.9,6.6s-3.8,1.6-8.2,0.9s-3.8,4.4,2.3,5.2c10.7,0.4,10,5.6,15.8,3.9
					c4.9-1.4,2.8-9.3,6.7-10.4c3.1-1.1,4.7-4.4,3.7-7.5C64.1,170.9,63.8,170.4,63.5,170z M53.3,164.2c0.2-0.9,0.6-1.7,1-2.4
					c1-2.3,1.5-3.6,2.1-2.2s1.1,3.2-0.2,4S53.2,165.2,53.3,164.2L53.3,164.2z M30.2,157.2c-3-0.5-3.9-2.1-4.3-4.3s-0.2-1,3.1-0.2
					s2.4,2.8,3.6,4.8S30.2,157.2,30.2,157.2L30.2,157.2z M25.7,169.8c-1.6,0.2-3.6-1.1-4.4-1.9s2.1-1.9,4.8-0.4c0,0,3.2,1.8,3.2,2.2
					S27.3,169.6,25.7,169.8L25.7,169.8z M40.6,183.9c-0.7,0.5-2.4,0.3-4.6-0.6s0.6-1.5,3-0.7C40.2,183,41.3,183.4,40.6,183.9
					L40.6,183.9z M44.8,156.1c-0.6-1-0.4-2.3,1-2s1.2,1.6,0.3,3.5C45.5,157.2,45.1,156.6,44.8,156.1L44.8,156.1z M51.4,183.2
					c-2.2,0.2-3-4-3-4c-0.2-3.2-4.2-3.8-3-7.4s3-6.3,3.5-2.2c0.4,3.4,0.2,5.8,5.5,7.4C58.4,178.3,53.6,183,51.4,183.2L51.4,183.2z
					 M62.8,175.2c-1.1,0.6-3.1,1.2-1.4-1.2c1-1.4,1.3-2.9,1.7-1.9S64,174.6,62.8,175.2L62.8,175.2z"/>
				<path class="st8" d="M188.8,166c7-5.4,10.2-9.6,7.2-13.6s-2.5-4.4,0.6-9.1s-0.1-5-1.4-7.8s1.4-5.6,2.9-9.4s-4.3-8.7-8.2-5.2
					s1.4,6.4-1.2,10.8c-2.7,4.3-10.3,5.7-8.5,9.6s8,5.5,4.1,9.7s-6.5,7-2.9,11S188.8,166,188.8,166z"/>
				<path class="st9" d="M192.8,127.6c-1.2,8.8-2.3,17.7-3.4,26.5c-0.6,4.4-1.2,8.8-1.6,13.3s-0.8,8.8-0.9,13.3h0.1
					c0.9-4.4,1.4-8.8,2.1-13.3s0.9-8.8,1.4-13.3c0.9-8.8,1.7-17.7,2.6-26.5L192.8,127.6z"/>
				<path class="st6" d="M187.4,139.9c1,0.4,2,0.6,3,0.7c2,0.2,4,0.8,5.7,1.8c0-2.3,0.6-4.5,1.7-6.6c0.1-0.2,0.3-0.4,0.4-0.6
					c-0.5-1.7-2.1-2.9-3.5-3.9c-0.8-0.5-1.4-1.1-2-1.9c-0.1-0.2,0-0.3,0.1-0.4l0,0c0.1-0.1,0.3-0.1,0.4,0.1l0,0
					c0.5,0.7,1.2,1.3,1.9,1.7c1.5,0.9,2.7,2.2,3.5,3.7c1.5-2.4,3.4-4.6,5.4-6.5c-0.1-0.1-0.1-0.2-0.1-0.3c0.4-1.7-0.3-3.4-0.9-4.8
					c-0.4-0.8-0.6-1.6-0.7-2.4c0-0.2,0.1-0.3,0.3-0.3c0.1,0,0.3,0.1,0.3,0.2l0,0c0.1,0.8,0.3,1.5,0.7,2.2c0.8,1.5,1.1,3.2,1,4.9
					c0.9-0.8,1.7-1.6,2.6-2.3c0-0.1,0.1-0.2,0.2-0.2h0.1c0.9-0.7,1.8-1.5,2.7-2.2l-2.3,2c1.7-0.4,3.5-0.4,5.2,0
					c0.8,0.2,1.7,0.2,2.6,0.2c0.1,0,0.3,0.1,0.3,0.2l0,0c0,0.2-0.1,0.3-0.3,0.3c-0.9,0.1-1.9,0-2.8-0.2c-1.8-0.4-3.7-0.4-5.4,0.2
					c-0.1,0.1-0.2,0.1-0.3,0l0,0c-1.3,1.1-2.5,2.3-3.6,3.6c-0.5,0.5-1,1.1-1.4,1.6c1.8-0.3,3.6-0.3,5.4,0.1c0.9,0.2,1.8,0.3,2.8,0.2
					c0.1,0,0.3,0,0.3,0.2l0,0c0,0.2-0.1,0.3-0.3,0.4c-1,0.1-2,0-3-0.2c-1.9-0.5-4-0.5-5.9,0.1l0,0c-1.2,1.4-2.2,3-3,4.7
					c-0.3,0.6-0.5,1.2-0.7,1.8c2.1-0.2,4.2,0.1,6.2,0.8c1,0.4,2,0.6,3,0.6c0.2,0,0.3,0.1,0.3,0.3c0,0,0,0,0,0.1
					c0,0.2-0.2,0.3-0.4,0.4c-1.1,0-2.2-0.3-3.2-0.6c-2-0.7-4.1-1-6.1-0.8c-0.1,0.5-0.3,0.9-0.4,1.4c-0.2,1.3-0.3,2.7-0.1,4
					c0.2,1.2,0.4,2.3,0.8,3.4c1.5-0.6,3.1-1,4.7-1c0.8,0,1.6-0.1,2.4-0.4c0.1-0.1,0.3,0,0.4,0.1c0,0.1,0,0.3-0.2,0.4
					c-0.8,0.3-1.7,0.4-2.6,0.4c-1.6,0-3.1,0.4-4.5,1c0.4,1.3,0.8,2.5,1.2,3.8s0.9,2.8,1.2,4.2c0.9-0.8,2-1.4,3.1-1.8
					c0.6-0.2,1.2-0.6,1.8-0.9c0.1-0.1,0.2-0.1,0.3,0s0.1,0.2,0,0.3l0,0c-0.6,0.4-1.2,0.8-1.9,1c-1.2,0.4-2.2,1.1-3.2,1.9
					c0.3,1.1,0.5,2.1,0.6,3.2c0.4,2.8,0.3,5.6-0.1,8.3c-0.9,5.6-3.4,11-6.4,16c1.3-2.5,2.5-5.2,3.5-7.9c1-2.6,1.7-5.3,2.1-8.1
					c0.4-2.7,0.4-5.4,0-8.1v-0.1h-0.1c-1.3-0.5-2.6-0.7-4-0.5c-0.7,0.1-1.4,0-2.1-0.1c-0.1,0-0.2-0.1-0.1-0.2l0,0
					c0.1-0.1,0.2-0.2,0.3-0.1c0.6,0.1,1.3,0.1,1.9,0.1c1.3-0.2,2.7,0,3.9,0.4c-0.4-2.4-1.1-4.8-1.9-7.1c0-0.1-0.1-0.2-0.1-0.3
					c-1.7-0.1-3.3,0.2-4.9,0.8c-0.8,0.3-1.7,0.5-2.6,0.6c-0.1,0-0.2-0.1-0.3-0.2c0,0,0,0,0-0.1s0.2-0.3,0.3-0.3
					c0.8-0.1,1.6-0.3,2.4-0.6c1.5-0.6,3.2-0.9,4.8-0.9c-0.8-2.3-1.4-4.6-1.8-7c0-0.3,0-0.6-0.1-0.9c-1.6-1.4-3.9-1.7-5.9-2
					c-1.1-0.1-2.2-0.3-3.2-0.8c-0.1-0.1-0.2-0.3-0.1-0.4l0,0C187.1,140,187.3,139.9,187.4,139.9z"/>
				<path class="st3" d="M204.5,125.2c0.1,0.1,0.3,0,0.4-0.1c0,0,0,0,0-0.1c0.9-3.8-1.1-4.8-1.3-6.7c-0.2-1.7-1.1,2.3-2.1,3.3
					C200.6,122.5,203.5,124.6,204.5,125.2z"/>
				<path class="st3" d="M196.7,132.7c0.2,0,0.3-0.1,0.3-0.2v-0.1c-1.1-3.9-3.7-3.8-4.9-5.5c-1.1-1.5,0.1,2.6-0.4,4
					C191.3,132,195.4,132.5,196.7,132.7z"/>
				<path class="st3" d="M193.1,141.7c0.1,0,0.2-0.2,0.2-0.3c0,0,0-0.1-0.1-0.1c-3.4-3.1-6.1-1.8-8.3-2.8c-2-0.9,1.5,2.4,1.9,3.9
					C187.1,143.6,191.6,142.2,193.1,141.7z"/>
				<path class="st3" d="M195.5,151.7c0.1-0.1,0.1-0.2,0-0.3l-0.1-0.1c-3.7-0.8-5.1,1-7.1,1.1c-1.8,0.2,2.1,1,2.9,1.8
					S194.7,152.6,195.5,151.7z"/>
				<path class="st3" d="M198.1,159c0.1,0,0.1-0.1,0.1-0.2c0,0,0,0-0.1-0.1c-2.5-1.4-4-0.4-5.5-0.7c-1.3-0.3,1.3,1.2,1.7,2.1
					C194.6,160.8,197.2,159.4,198.1,159z"/>
				<path class="st3" d="M210.7,125c-0.1-0.1-0.1-0.2,0-0.3c0,0,0.1,0,0.1-0.1c4-1.6,5.4,0,7.6-0.2c1.9-0.2-2.2,1.4-3.2,2.5
					C214.4,127.8,211.6,125.7,210.7,125z"/>
				<path class="st3" d="M204.9,130.9c-0.1-0.1-0.1-0.3,0-0.4c0,0,0.1,0,0.1-0.1c4.3-1.6,5.8,0.1,8.1-0.1c2-0.2-2.4,1.5-3.5,2.7
					C208.9,134.1,205.9,131.7,204.9,130.9z"/>
				<path class="st3" d="M201,138.5c-0.1-0.1,0-0.4,0.2-0.4c5-1.3,6.4,0.9,9,1c2.3,0.1-2.9,1.4-4.3,2.6
					C204.8,142.6,201.9,139.5,201,138.5z"/>
				<path class="st3" d="M200.3,147.1c-0.1-0.1-0.1-0.2-0.1-0.3c0,0,0-0.1,0.1-0.1c3.3-2.2,5.1-1.1,7-1.7c1.7-0.6-1.7,1.7-2.3,2.9
					C204.4,148.8,201.3,147.5,200.3,147.1z"/>
				<path class="st3" d="M202.1,155.1c-0.1,0-0.1-0.1-0.1-0.2v-0.1c1.9-2.5,3.6-2.2,4.9-3.1c1.1-0.9-0.8,1.7-0.9,2.7
					C205.9,155.3,203,155.2,202.1,155.1z"/>
				<path class="st3" d="M209,123.6c0,0.2,0.1,0.2,0.3,0.2c3.6-1.5,3.6-3.4,5.2-4.7c1.4-1.1-2.3,0.4-3.6,0.3
					C209.8,119.3,209.1,122.5,209,123.6z"/>
				<path class="st6" d="M215.6,140.6c0.5,0.9,1.1,1.7,1.9,2.4c1.5,1.4,2.6,3.1,3.4,5c1.5-1.8,3.3-3.1,5.4-4
					c0.2-0.1,0.5-0.2,0.7-0.3c0.7-1.7,0.2-3.6-0.2-5.3c-0.3-0.9-0.4-1.8-0.4-2.7c0-0.2,0.2-0.3,0.4-0.2c0.2,0,0.3,0.2,0.3,0.3
					c0,0.9,0.1,1.7,0.4,2.5c0.6,1.6,0.7,3.4,0.4,5.1c2.7-0.9,5.5-1.5,8.3-1.7c0-0.1,0-0.2,0.1-0.3c1.2-1.2,2-2.7,2.4-4.3
					c0.2-0.8,0.5-1.6,1-2.3c0.1-0.1,0.3-0.1,0.4-0.1c0.1,0.1,0.2,0.2,0.1,0.4l0,0c-0.4,0.7-0.7,1.4-0.9,2.2
					c-0.3,1.7-1.1,3.2-2.3,4.4c1.2-0.1,2.3-0.1,3.5-0.1c0.1,0,0.2,0,0.2,0h0.1c1.2,0,2.3,0,3.5,0l-3,0.2c1.6,0.8,3,1.9,4.1,3.3
					c0.5,0.7,1.2,1.2,1.9,1.7c0.1,0.1,0.2,0.2,0.1,0.3l0,0c-0.1,0.1-0.3,0.2-0.4,0.1c-0.8-0.5-1.5-1.1-2.1-1.9
					c-1.1-1.5-2.6-2.6-4.4-3.3c-0.1,0-0.2-0.1-0.2-0.2l0,0c-1.7,0.1-3.3,0.3-5,0.5c-0.7,0.1-1.4,0.2-2.1,0.4c1.6,0.9,3,2.1,4.1,3.5
					c0.6,0.7,1.2,1.4,2,1.9c0.1,0.1,0.2,0.2,0.1,0.4l0,0c-0.1,0.1-0.3,0.2-0.4,0.1c-0.8-0.6-1.6-1.2-2.2-2c-1.2-1.6-2.8-2.8-4.6-3.6
					l0,0c-1.8,0.4-3.6,1-5.3,1.8c-0.6,0.3-1.2,0.6-1.7,0.9c1.8,1.2,3.2,2.7,4.3,4.5c0.5,0.9,1.2,1.7,2,2.4c0.1,0.1,0.2,0.3,0.1,0.4
					l0,0c-0.1,0.1-0.4,0.1-0.5,0c-0.8-0.7-1.5-1.6-2.1-2.5c-1.1-1.8-2.5-3.3-4.3-4.4c-0.4,0.3-0.8,0.6-1.2,0.9c-1,0.9-1.9,1.9-2.6,3
					c-0.6,1-1.1,2-1.6,3.1c1.5,0.4,3,1.2,4.3,2.1c0.6,0.5,1.4,0.9,2.1,1.2c0.1,0,0.2,0.2,0.2,0.3c-0.1,0.1-0.2,0.2-0.4,0.2
					c-0.8-0.3-1.6-0.8-2.3-1.3c-1.2-1-2.6-1.7-4.1-2.1c-0.5,1.2-0.9,2.5-1.4,3.7s-1.1,2.7-1.7,4c1.2,0,2.4,0.2,3.6,0.5
					c0.6,0.2,1.3,0.3,2,0.4c0.1,0,0.2,0.1,0.2,0.2c0,0.1-0.1,0.2-0.2,0.2l0,0c-0.7,0-1.4-0.2-2.1-0.4c-1.2-0.4-2.4-0.6-3.6-0.5
					c-0.5,1-1,2-1.6,2.9c-1.4,2.4-3.2,4.5-5.3,6.4c-4.2,3.8-9.5,6.4-15,8.4c2.6-1.2,5.2-2.5,7.7-3.9c2.4-1.4,4.7-3.1,6.7-5
					s3.7-4,5.1-6.3l0.1-0.1c0,0-0.1,0-0.1-0.1c-0.6-1.2-1.6-2.2-2.8-2.9c-0.6-0.4-1.1-0.8-1.6-1.4c-0.1-0.1-0.1-0.2,0-0.2
					c0,0,0,0,0.1,0c0.1-0.1,0.2,0,0.3,0.1c0.4,0.5,0.9,0.9,1.5,1.2c1.1,0.7,2.1,1.7,2.8,2.8c1.2-2.2,2.2-4.4,2.9-6.7l0.1-0.3
					c-1.2-1.1-2.7-2-4.3-2.4c-0.9-0.3-1.7-0.6-2.4-1.1c-0.1-0.1-0.1-0.2,0-0.3l0,0c0.1-0.1,0.3-0.1,0.4,0c0.7,0.4,1.5,0.8,2.2,1
					c1.5,0.5,2.9,1.4,4.1,2.4c0.8-2.3,1.8-4.5,3-6.6c0.2-0.2,0.3-0.5,0.5-0.7c-0.4-2-1.9-3.8-3.4-5.3c-0.8-0.8-1.5-1.6-2-2.6
					c-0.1-0.2,0-0.3,0.2-0.4l0,0C215.3,140.4,215.5,140.4,215.6,140.6z"/>
				<path class="st3" d="M238.1,139.8c0.1,0.1,0.2,0.2,0.3,0.2c0,0,0,0,0.1,0c3.1-2.4,2.2-4.4,3.2-6.1c0.9-1.4-2.3,1-3.7,1.2
					C236.8,135.3,237.7,138.7,238.1,139.8z"/>
				<path class="st3" d="M227.3,140.8c0.1,0.1,0.3,0.1,0.4,0c0,0,0,0,0-0.1c1.6-3.8-0.4-5.3-0.4-7.4c0.1-1.8-1.6,2-2.8,2.9
					C223.6,136.9,226.4,139.9,227.3,140.8z"/>
				<path class="st3" d="M218.9,145.6c0.1,0.1,0.3,0,0.4-0.2v-0.1c-0.7-4.6-3.6-5.2-4.7-7.4c-1-1.9-0.3,2.8-1,4.2
					C213,143.3,217.4,145,218.9,145.6z"/>
				<path class="st3" d="M214.5,154.9c0.1,0,0.2-0.1,0.2-0.2c0,0,0-0.1-0.1-0.1c-2.4-2.9-4.6-2.4-6.2-3.5c-1.5-1,1,2,1.2,3.2
					C209.7,155.4,213.3,155.1,214.5,154.9z"/>
				<path class="st3" d="M211.9,162.1c0.1,0,0.2,0,0.2-0.1v-0.1c-1.1-2.7-2.9-2.8-3.9-4s0.2,1.7,0,2.7
					C208.1,161.4,211,162,211.9,162.1z"/>
				<path class="st3" d="M243.1,143.5c0-0.1,0.1-0.2,0.2-0.2h0.1c4.1,1.3,4.2,3.4,6,4.6c1.6,1-2.6-0.3-4.1,0
					C244.1,148.1,243.3,144.6,243.1,143.5z"/>
				<path class="st3" d="M234.9,144.6c0-0.1,0.1-0.3,0.2-0.3h0.1c4.4,1.4,4.5,3.8,6.4,5.1c1.7,1.1-2.9-0.3-4.4-0.1
					C235.9,149.5,235.1,145.8,234.9,144.6z"/>
				<path class="st3" d="M227.1,148c0-0.2,0.2-0.3,0.4-0.2c4.7,2.2,4.4,4.7,6.4,6.4c1.7,1.5-3.1-0.7-4.9-0.7
					C227.4,153.6,227.1,149.4,227.1,148z"/>
				<path class="st3" d="M221.1,154.2c-0.1-0.1,0.1-0.3,0.2-0.3c4,0.4,4.6,2.3,6.5,3c1.7,0.6-2.4,0.3-3.6,0.8
					C223.2,158.2,221.6,155.2,221.1,154.2z"/>
				<path class="st3" d="M217.5,161.7c-0.1-0.1-0.1-0.2,0-0.2c0,0,0,0,0.1,0c3-0.8,4.1,0.6,5.8,0.6c1.4,0.1-1.7,0.8-2.4,1.5
					S218.1,162.3,217.5,161.7z"/>
				<path class="st3" d="M242.6,141.4c-0.1,0.1,0,0.3,0.1,0.3c3.7,1.1,5-0.4,6.9-0.4c1.8,0-2.1-1.1-3-2
					C245.9,138.6,243.4,140.7,242.6,141.4z"/>
				<path class="st4" d="M183.4,179.8c3.8,0,3.2,7.1,8.1,7c5.8-0.1,4.1-4.3,14-7.4c5.6-2.2,5.1-6.7,1.2-4.9s-8.4,4.9-7.8,1.4
					s3.7-6.8,11.8-9.1s11.6-8.5,7.7-9.2s-9.7,4.2-14.4,8.4s-8,2.1-4.7-1.5s10.1-5.8,13.2-11.7s1.8-7.3-2.1-7.3s-11.5,8.9-12.8,13.5
					s-4.3,6.2-3.8,3.1s2.8-8.9,0.1-8.8s-4,4.6-2.9,6.3s1.7,3.1-1.1,4.4s-3.8-7.1-6-5s-2.5,9.4,1.1,9.5s5.2,6.4,1.3,7.2
					s-5.8-5.4-7.4-2.5c-1.1,2.3-0.2,5.1,2.1,6.2C181.9,179.7,182.7,179.9,183.4,179.8z M184.8,165.9c-1.4-0.3-1.2-2-0.9-3.3
					s1.1-0.4,2.4,1.3c0.5,0.5,1,1.1,1.3,1.8C187.9,166.5,186.1,166.2,184.8,165.9L184.8,165.9z M205.8,154.7c0.8-2-0.4-3.5,2.5-5
					s2.9-2.5,2.9-0.6s-0.6,3.5-3.2,4.7C207.9,153.8,205,156.7,205.8,154.7L205.8,154.7z M211,164c-0.1-0.3,2.6-2.7,2.6-2.7
					c2.2-1.9,5.1-1.8,4.5-0.9c-0.9,1.3-2.3,2.3-3.8,2.8C212.8,163.4,211.1,164.3,211,164z M204.3,177.4c2.1-1.2,4.8-1.5,2.9-0.2
					s-3.5,1.9-4.2,1.7S203.2,178,204.3,177.4L204.3,177.4z M193.1,158.2c-1.2-1.4-1.6-2.3-0.4-3s1.7,0.4,1.3,1.4
					C193.8,157.2,193.5,157.7,193.1,158.2L193.1,158.2z M188.9,176.7c4.7-2.8,4.1-4.7,3.8-7.6c-0.3-3.5,1.9-1.8,3.6,1
					s-1.9,4.2-1.5,7c0,0,0,3.7-2,4.1S185.4,178.8,188.9,176.7L188.9,176.7z M179.8,174.9c0.2-1,0.8,0.2,1.9,1.1
					c2.1,1.6,0.1,1.6-1.1,1.3S179.6,175.8,179.8,174.9L179.8,174.9z"/>
				<polygon class="st10" points="35.2,34.8 35.2,42 38.5,42 38.5,34.8 41.8,34.8 36.9,26.2 32,34.8 				"/>
				<polygon class="st10" points="54,33.5 54,26.2 57.3,26.2 57.3,33.5 60.6,33.5 55.7,42 50.8,33.5 				"/>
				<path class="st11" d="M64.5,21.2c-5.6-8.2-16.8-10.4-25-4.8c-0.8,0.6-1.6,1.2-2.4,1.9c-0.9-0.1-1.8-0.2-2.7-0.2
					c-8.6,0-15.6,7-15.6,15.6s7,15.6,15.6,15.6h25.3c8,0,14.5-6.5,14.4-14.5C74.1,28.7,70.3,23.2,64.5,21.2z M59.7,43.7H34.4
					c-5.5,0-10-4.5-10-10s4.5-10,10-10c1,0,1.9,0.1,2.9,0.4l1.7,0.5l1.2-1.4c4.5-5.2,12.3-5.8,17.5-1.4c1,0.9,1.9,1.9,2.6,3.1l0.6,1
					l1.1,0.2c4.7,1.3,7.5,6.2,6.2,11C67.2,41,63.7,43.7,59.7,43.7z"/>
				<path class="st10" d="M38.2,94.9V63.6c2.3-0.6,3.9-2.6,3.9-5c0-2.9-2.3-5.2-5.2-5.2s-5.2,2.3-5.2,5.2c0,2.4,1.6,4.5,3.9,5v31.3
					c0,6.5,5.3,11.8,11.8,11.8h12v-2.6h-12C42.3,104.1,38.2,100,38.2,94.9z M34.2,58.7c0-1.5,1.2-2.7,2.7-2.7s2.7,1.2,2.7,2.7
					s-1.2,2.7-2.7,2.7l0,0C35.4,61.3,34.2,60.1,34.2,58.7L34.2,58.7z"/>
				<path class="st10" d="M159.8,34.5H90.1c-0.6-2.3-2.6-3.9-5-3.9c-2.9,0-5.2,2.3-5.3,5.2S82.1,41,85,41c2.4,0,4.5-1.6,5.1-3.9
					h69.7c5.1,0,9.2,4.1,9.2,9.2v19h2.6v-19C171.5,39.8,166.3,34.5,159.8,34.5z M85.2,38.5c-1.5,0-2.7-1.2-2.7-2.7s1.2-2.6,2.7-2.6
					s2.7,1.2,2.7,2.6S86.6,38.5,85.2,38.5L85.2,38.5z"/>
				<path class="st10" d="M168.4,58.5H207c1.9,0,3.4,1.5,3.4,3.4v54.3c0,1.9-1.5,3.4-3.4,3.4h-38.7c-1.9,0-3.4-1.5-3.4-3.4V61.9
					C165,60,166.5,58.5,168.4,58.5z"/>
				<path class="st12" d="M43,176.7h153l0,0v4.3c0,4.9-4,8.9-8.9,8.9H51.9c-4.9,0-8.9-4-8.9-8.9l0,0V176.7L43,176.7L43,176.7z"/>
				<path class="st13" d="M107.2,176.7h24.7l0,0v2.3c0,2.7-2.2,4.9-4.9,4.9l0,0h-15c-2.7,0-4.9-2.2-4.9-4.9l0,0L107.2,176.7
					L107.2,176.7z"/>
				<path class="st14" d="M63.6,89.3h111.9c6.8,0,12.4,5.5,12.4,12.3v62.6c0,6.8-5.5,12.4-12.4,12.4H63.6c-6.8,0-12.3-5.5-12.3-12.4
					v-62.6C51.2,94.8,56.7,89.3,63.6,89.3z"/>
				<path class="st6" d="M59.5,94.3h120c2.6,0,4.6,2.1,4.6,4.6v63.7c0,2.6-2.1,4.6-4.6,4.6h-120c-2.6,0-4.6-2.1-4.6-4.6V98.9
					C54.9,96.3,56.9,94.3,59.5,94.3z"/>
				<path class="st14" d="M136.8,138.9h-14.6c-1.4,0-2.7-0.8-3.2-2.1l-0.9-1.9c-0.4-1-1.4-1.6-2.4-1.6h-10.5c-0.7,0-1.5,0.2-2.1,0.7
					l-2.8,1.9l1.3,1.1v21.3c0,2,1.6,3.6,3.5,3.6l0,0h30l0.9,1.1l2.6-1.7l0.1-0.1h0.1l0,0c0.9-0.7,1.5-1.7,1.5-2.9v-15.9
					C140.3,140.5,138.7,138.9,136.8,138.9z"/>
				<path class="st13" d="M137.4,144.3v15.8c0,2-1.6,3.6-3.6,3.6l0,0h-31.6c-2,0-3.6-1.6-3.6-3.6l0,0v-21.4c0-2,1.6-3.6,3.5-3.6l0,0
					h10.5c1,0,2,0.6,2.4,1.6l0.8,1.9c0.6,1.3,1.8,2.1,3.2,2.1h14.6C135.8,140.8,137.4,142.4,137.4,144.3L137.4,144.3z"/>
				<path class="st14" d="M87.2,117.1l5-8.7c0.7-1.2,2.2-1.6,3.4-0.9l14.8,8.6c1.2,0.7,1.6,2.2,0.9,3.4l-5,8.7
					c-0.7,1.2-2.2,1.6-3.4,0.9l-14.8-8.6C86.9,119.8,86.5,118.3,87.2,117.1z"/>
				<path class="st15" d="M107.3,126.6l-1,1.7c-0.7,1.2-2.2,1.6-3.4,0.9l0,0l-14.8-8.6c-1.2-0.7-1.6-2.2-0.9-3.4l2.1-3.6l8.4,2.2
					c0.5,0.1,0.8,0.5,1,0.9l1.1,3.4c0.2,0.6,0.8,1,1.4,1l3.2-0.2c0.6,0,1.2,0.4,1.4,1L107.3,126.6z"/>
				<path class="st6" d="M109.5,118.7c-0.5,0.8-1.5,1.1-2.4,0.6s-1.1-1.5-0.6-2.4c0.5-0.8,1.5-1.1,2.4-0.6
					C109.7,116.8,110,117.9,109.5,118.7z"/>
				<path class="st16" d="M132.6,114.6l7,7c1.1,1.1,1.1,2.8,0,3.9l-10.7,10.7c-1.1,1.1-2.8,1.1-3.9,0l-7-7c-1.1-1.1-1.1-2.8,0-3.9
					l10.7-10.7C129.8,113.6,131.5,113.6,132.6,114.6z"/>
				<path class="st11" d="M132.1,116.6l5.6,5.6c1,1,1,2.5,0,3.5l-1.7,1.7c-1,1-2.5,1-3.5,0l-5.6-5.6c-1-1-1-2.5,0-3.5l1.7-1.7
					C129.6,115.7,131.2,115.7,132.1,116.6z"/>
				<path class="st11" d="M129.8,129.2l-5.6-5.6c-0.3-0.3-0.3-0.8,0-1.2l0,0c0.3-0.3,0.8-0.3,1.2,0l0,0l5.6,5.6
					c0.3,0.3,0.3,0.8,0,1.2l0,0l0,0C130.6,129.5,130.1,129.6,129.8,129.2L129.8,129.2z"/>
				<path class="st11" d="M123.1,124.4l5.3,5.3c0.2,0.2,0.2,0.6,0,0.8l-0.4,0.4c-0.2,0.2-0.6,0.2-0.8,0l-5.3-5.3
					c-0.2-0.2-0.2-0.6,0-0.8l0.4-0.4C122.5,124.2,122.9,124.2,123.1,124.4z"/>
				<path class="st11" d="M126.8,134.6l-6.8-6.8c-0.3-0.3-0.3-0.8,0-1.2l0,0c0.3-0.3,0.8-0.3,1.2,0l0,0l6.8,6.8
					c0.3,0.3,0.3,0.8,0,1.2l0,0C127.6,134.9,127.1,134.9,126.8,134.6z"/>
				<path class="st13" d="M133.6,123.2c-0.1,0-0.2,0-0.3,0c-0.9-0.2-1.7-0.5-2.5-0.9c-0.2-0.1-0.2-0.3-0.1-0.5
					c0.2-0.3,0.4-0.5,0.6-0.8c0.2-0.2,0.5-0.5,0.8-0.7c0.2-0.1,0.4-0.1,0.5,0.1c0.4,0.8,0.7,1.6,0.9,2.5
					C133.7,123,133.7,123.1,133.6,123.2z"/>
				<path class="st17" d="M117.3,97.3c-4.4,0-7.9,3.5-7.9,7.9s3.5,7.9,7.9,7.9s7.9-3.5,7.9-7.9l0,0
					C125.2,100.9,121.7,97.3,117.3,97.3L117.3,97.3z M117.3,108.1c-1.6,0-2.9-1.3-2.9-2.9s1.3-2.9,2.9-2.9s2.9,1.3,2.9,2.9l0,0
					C120.2,106.8,118.9,108.1,117.3,108.1z"/>
				<path class="st13" d="M117.3,102.4c-1.6,0-2.9,1.3-2.9,2.9s1.3,2.9,2.9,2.9s2.9-1.3,2.9-2.9l0,0
					C120.2,103.7,118.9,102.4,117.3,102.4L117.3,102.4z M117.3,107.5c-1.2,0-2.3-1-2.3-2.2s1-2.3,2.2-2.3s2.3,1,2.3,2.2l0,0
					C119.6,106.5,118.6,107.5,117.3,107.5z"/>
				<path class="st18" d="M187.8,94.5v39h-31.5c-1,0-1.9-0.4-2.6-1.1l-0.1-0.1c-0.6-0.7-1-1.6-1-2.5V89.3h30
					C185.5,89.3,187.8,91.6,187.8,94.5L187.8,94.5z"/>
				<path class="st16" d="M165,62.7h31.3c4.8,0,8.7,3.9,8.7,8.7v48c0,4.8-3.9,8.7-8.7,8.7H165c-4.8,0-8.7-3.9-8.7-8.7v-48
					C156.3,66.6,160.2,62.7,165,62.7z"/>
				<path class="st11" d="M165.6,72.2h9.6c1,0,1.8,0.8,1.8,1.8v1.7c0,1-0.8,1.8-1.8,1.8h-9.6c-1,0-1.8-0.8-1.8-1.8V74
					C163.9,73,164.7,72.2,165.6,72.2z"/>
				<path class="st11" d="M165.6,82.2h9.6c1,0,1.8,0.8,1.8,1.8v1.7c0,1-0.8,1.8-1.8,1.8h-9.6c-1,0-1.8-0.8-1.8-1.8V84
					C163.9,83,164.7,82.2,165.6,82.2z"/>
				<path class="st11" d="M165.6,96.5h26.6c1,0,1.8,0.8,1.8,1.8v1.7c0,1-0.8,1.8-1.8,1.8h-26.6c-1,0-1.8-0.8-1.8-1.8v-1.7
					C163.9,97.3,164.7,96.5,165.6,96.5z"/>
				<path class="st11" d="M165.6,105.8h23.8c1,0,1.8,0.8,1.8,1.8v1.7c0,1-0.8,1.8-1.8,1.8h-23.8c-1,0-1.8-0.8-1.8-1.8v-1.7
					C163.9,106.6,164.7,105.8,165.6,105.8z"/>
				<path class="st11" d="M196.8,120.4h-30.3c-1.4,0-2.6-1.2-2.6-2.6l0,0l0,0c0-1.4,1.1-2.6,2.6-2.6l0,0h30.3c1.4,0,2.6,1.2,2.6,2.6
					l0,0l0,0C199.4,119.3,198.2,120.4,196.8,120.4L196.8,120.4z"/>
				<path class="st18" d="M187.8,151.5v16.8h-42.2c-0.7,0-1.3-0.3-1.8-0.7c-0.1-0.1-0.2-0.3-0.3-0.4c-0.3-0.4-0.4-0.9-0.4-1.3v-9.8
					c0-0.3,0.1-0.6,0.2-0.9l0.1-0.3c0.1-0.2,0.2-0.3,0.3-0.4c0.1-0.1,0.2-0.2,0.2-0.3c0.2-0.2,0.4-0.3,0.6-0.4l3.5-1.9v0.1
					c0.4-0.3,0.9-0.4,1.3-0.4L187.8,151.5z"/>
				<path class="st13" d="M211.4,147h-59.1c-0.5,0-0.9,0.2-1.3,0.4l0,0l-3.5,1.9c0,0,1.3,0.5,2.4,0.9v9c0,1.4,1.1,2.5,2.5,2.5h57.4
					l-0.2,1.3l3-1.5l0,0c0.9-0.4,1.5-1.3,1.5-2.3v-9.8C213.9,148.2,212.8,147,211.4,147L211.4,147z"/>
				<path class="st19" d="M150.9,149h54.2c2.8,0,5,2.2,5,5v4.8c0,2.8-2.2,5-5,5h-54.2c-2.8,0-5-2.2-5-5V154
					C145.9,151.2,148.2,149,150.9,149z"/>
				<path class="st13" d="M152.7,153.6c0,1-0.8,1.8-1.8,1.8s-1.8-0.8-1.8-1.8s0.8-1.8,1.8-1.8l0,0
					C151.9,151.8,152.7,152.6,152.7,153.6z"/>
				<path class="st13" d="M159.1,153.6c0,1-0.8,1.8-1.8,1.8s-1.8-0.8-1.8-1.8s0.8-1.8,1.8-1.8l0,0
					C158.3,151.8,159.1,152.6,159.1,153.6z"/>
				<path class="st13" d="M165.5,153.6c0,1-0.8,1.8-1.8,1.8s-1.8-0.8-1.8-1.8s0.8-1.8,1.8-1.8l0,0
					C164.7,151.8,165.5,152.6,165.5,153.6z"/>
				<path class="st13" d="M170.8,152.6h14.9c1.4,0,2.6,1.2,2.6,2.6v2.5c0,1.4-1.2,2.6-2.6,2.6h-14.9c-1.4,0-2.6-1.2-2.6-2.6v-2.5
					C168.2,153.7,169.3,152.6,170.8,152.6z"/>
				<path class="st16" d="M182.1,157.7h-7.7c-0.7,0-1.3-0.6-1.3-1.3l0,0l0,0c0-0.7,0.6-1.3,1.3-1.3l0,0h7.7c0.7,0,1.3,0.6,1.3,1.3
					l0,0l0,0C183.4,157.1,182.8,157.7,182.1,157.7L182.1,157.7z"/>
				<circle class="st13" cx="195.2" cy="156.4" r="3.3"/>
				<circle class="st13" cx="203.7" cy="156.4" r="3.3"/>
				<g class="st20">
					<path d="M43.6,176.7H43v1.4c0,2.9,1.1,5.6,3,7.8C45.3,182.8,44.5,179.7,43.6,176.7z M81.2,120c0-0.9-0.4-1.8-1-2.4l-1.9-1.9
						l1.1-1.1c0.1-0.1,0.2-0.2,0.2-0.3c0.2-0.4,0.1-0.8-0.2-1.1l-0.4-0.4c-0.1-0.1-0.2-0.2-0.3-0.2c-0.4-0.1-0.8-0.1-1.1,0.2
						l-1.1,1.1l-1.2-1.2l1.1-1.1c0.1-0.1,0.2-0.2,0.2-0.3c0.1-0.2,0.1-0.5,0-0.7c0-0.1-0.1-0.2-0.2-0.3l-0.3-0.4
						c-0.1-0.1-0.2-0.2-0.3-0.2c-0.2-0.1-0.5-0.1-0.8,0c-0.1,0.1-0.2,0.1-0.3,0.2l-1,1.1l-1.2-1.2l1-1.1c0.1-0.1,0.2-0.2,0.2-0.3
						c0.1-0.2,0.1-0.5,0-0.7c-0.1-0.1-0.1-0.2-0.2-0.3l-0.4-0.4c-0.1-0.1-0.2-0.2-0.3-0.2c-0.4-0.1-0.8-0.1-1.1,0.2l-1.1,1.1
						l-1.9-1.9c-1.3-1.3-3.5-1.3-4.8,0l0,0l-1.9,1.9l-1.1-1c-0.2-0.2-0.4-0.3-0.7-0.3h-0.1c-0.2,0-0.5,0.1-0.6,0.3l-0.2,0.2
						l-0.1,0.1c-0.2,0.2-0.3,0.4-0.3,0.6l0,0c0,0.3,0.1,0.5,0.3,0.7l1.1,1.1l-1.2,1.2l-1.1-1.1c-0.4-0.4-1-0.4-1.4,0l0,0l-0.4,0.4
						c-0.2,0.2-0.3,0.5-0.3,0.7c0,0.3,0.1,0.5,0.3,0.7l1.1,1.1l-1.2,1.2l-1.1-1.1c-0.1-0.1-0.1-0.1-0.2-0.2c0,0,0,0-0.1-0.1
						c-0.4-0.2-0.8-0.1-1.1,0.2l-0.4,0.4c-0.4,0.4-0.4,1,0,1.4l1.1,1.1l-1.2,1.2l-1.1-1.1c-0.1-0.1-0.2-0.2-0.3-0.2
						c-0.2-0.1-0.4-0.1-0.6,0H51c-0.1,0-0.2,0.1-0.3,0.2l-0.4,0.4c-0.4,0.4-0.4,1,0,1.4l0.8,0.8l0.2,0.2l-0.2,0.2v14l0.3,0.3
						l-0.3,0.3v8.2c0.7-0.4,1.4-0.8,2-1.3c0.4-0.3,0.7-0.7,1-1.1c0.1,0,0.1,0.1,0.2,0.1h0.1c0.1,0,0.3,0,0.4-0.1
						c0.1,0,0.2-0.1,0.3-0.2l1.1-1.1l1.4,1.4l-1.1,0.5l-1.7,0.8l-0.3,0.1l-3.3,1.5v4.7c1.3-0.7,2.5-1.4,3.7-2c1.6-0.8,3-1.8,4.3-2.9
						c0.9-0.1,1.7-0.3,2.4-0.8c0.2-0.3,0.3-0.6,0.5-0.9c0.3-0.1,0.6-0.3,0.8-0.6l1.9-1.9l0.6,0.5l0.5,0.5c0.1,0.1,0.2,0.2,0.3,0.2
						c0.1,0,0.2,0.1,0.4,0.1c0.3,0,0.5-0.1,0.7-0.3l0.3-0.4c0.3-0.3,0.4-0.7,0.2-1.1c-0.1-0.1-0.1-0.2-0.2-0.3l-1-1.1l1.2-1.2l1,1.1
						c0.4,0.4,1,0.4,1.4,0l0.4-0.4c0.3-0.3,0.4-0.7,0.2-1.1c-0.1-0.1-0.1-0.2-0.2-0.3l-1.1-1.1l1.2-1.2l1.1,1c0.4,0.4,1,0.4,1.4,0
						l0.4-0.4c0.1-0.1,0.2-0.2,0.2-0.3c0.1-0.2,0.1-0.5,0-0.7c0-0.2-0.1-0.3-0.2-0.4l-1.1-1.1l1.2-1.1l1.1,1.1c0.4,0.4,1,0.4,1.4,0
						l0,0l0.2-0.2l0.2-0.2c0.1-0.1,0.2-0.2,0.2-0.3c0.1-0.1,0.1-0.2,0.1-0.4c0-0.3-0.1-0.5-0.3-0.7l-1.1-1.1l1.2-1.2l1.1,1.1
						c0.4,0.4,1,0.4,1.4,0l0.4-0.4c0.1-0.1,0.2-0.2,0.2-0.3c0-0.1,0.1-0.3,0.1-0.4c0-0.3-0.1-0.5-0.3-0.7l-1.1-1.1l1.9-1.9
						C80.9,121.7,81.2,120.9,81.2,120z"/>
				</g>
				<path class="st21" d="M63.7,115.3c-0.4,0.8-1,1.4-1.7,1.9c-0.5,2.3-7.7,14.4-9.6,15.8c-1.1,1-7.3,4.2-8.3,3.6
					c0.3-1.7,0.1-3.4-0.5-4.9l5.6-1.3l1.6-2.3l6.6-9.6l1.2-1.8l0.7-1c-0.4-0.8-0.6-1.6-0.6-2.5c0.3-0.5,0.5-0.5,0.9-0.4
					c0.2,0.5,0.3,0.8,0.8,0.9c0.7-0.7,0.6-2.5,0.8-2.5c0.6,0,1.2,0.8,1.8,1.6C63.5,113.5,63.8,114.4,63.7,115.3z"/>
				<path class="st22" d="M42.9,131.7l3.8-1.2c0.7,1.1,2,3.4,2.1,5.2c-1.8,1.3-4.1,3.2-7,3.9L42.9,131.7z"/>
				<path class="st14" d="M48.9,113l11.2-11.2c3-3,8-3,11,0l5.3,5.3c3,3,3,8,0,11l-11.2,11.2c-3,3-8,3-11,0l-5.3-5.3
					C45.9,121,45.9,116.1,48.9,113z"/>
				<path class="st6" d="M49.8,115.3l12.6-12.6c1.8-1.8,4.6-1.8,6.4,0l6.7,6.7c1.8,1.8,1.8,4.6,0,6.4l-12.6,12.6
					c-1.8,1.8-4.6,1.8-6.4,0l-6.7-6.7C48.1,119.9,48.1,117.1,49.8,115.3z"/>
				<path class="st14" d="M61,116.5l-2.7,2.7c-0.7,0.7-1.8,0.7-2.5,0l0,0l0,0c-0.7-0.7-0.7-1.9,0-2.6l2.7-2.7c0.7-0.7,1.9-0.7,2.6,0
					l0,0l0,0C61.7,114.7,61.7,115.8,61,116.5z"/>
				<path class="st14" d="M67.9,117.1L62,123c-0.7,0.7-1.9,0.7-2.6,0l0,0c-0.7-0.7-0.7-1.9,0-2.6l5.8-5.9c0.7-0.7,1.9-0.7,2.6,0l0,0
					C68.6,115.3,68.6,116.4,67.9,117.1z"/>
				<path class="st13" d="M52.4,106l0.6-0.6c0.3-0.3,0.9-0.3,1.2,0l1.2,1.2l0,0l-1.8,1.8l0,0l-1.2-1.2
					C52.1,106.9,52.1,106.3,52.4,106L52.4,106z"/>
				<path class="st13" d="M49.5,108.9l0.6-0.6c0.3-0.3,0.9-0.3,1.2,0l1.2,1.2l0,0l-1.8,1.8l0,0l-1.2-1.2
					C49.1,109.8,49.1,109.3,49.5,108.9z"/>
				<path class="st13" d="M46.5,111.9l0.6-0.6c0.3-0.3,0.9-0.3,1.2,0l1.2,1.2l0,0l-1.8,1.8l0,0l-1.2-1.2
					C46.2,112.8,46.2,112.2,46.5,111.9z"/>
				<path class="st13" d="M58.3,103.6l-1.8,1.8l0,0l-1.2-1.2c-0.3-0.3-0.3-0.9,0-1.2l0.6-0.6c0.3-0.3,0.9-0.3,1.2,0L58.3,103.6
					L58.3,103.6z"/>
				<path class="st13" d="M61.3,100.7l-1.8,1.8l0,0l-1.2-1.2c-0.3-0.3-0.3-0.9,0-1.2l0.6-0.6c0.3-0.3,0.9-0.3,1.2,0
					C60.1,99.5,61.3,100.7,61.3,100.7z"/>
				<path class="st13" d="M69.9,124.6l1.8-1.8l0,0l1.2,1.2c0.3,0.3,0.3,0.9,0,1.2l-0.6,0.6c-0.3,0.3-0.9,0.3-1.2,0L69.9,124.6
					L69.9,124.6z"/>
				<path class="st13" d="M67,127.6l1.8-1.8l0,0L70,127c0.3,0.3,0.3,0.9,0,1.2l0,0l-0.6,0.6c-0.3,0.3-0.9,0.3-1.2,0l0,0L67,127.6
					L67,127.6z"/>
				<path class="st13" d="M64,130.6l1.8-1.8l0,0L67,130c0.3,0.3,0.3,0.9,0,1.2l0,0l-0.6,0.6c-0.3,0.3-0.9,0.3-1.2,0l0,0L64,130.6
					L64,130.6z"/>
				<path class="st13" d="M75.8,122.3l-0.5,0.5c-0.3,0.3-0.9,0.3-1.2,0l-1.2-1.2l0,0l1.7-1.7l0,0l1.2,1.2
					C76.1,121.4,76.1,121.9,75.8,122.3L75.8,122.3z"/>
				<path class="st13" d="M78.8,119.3l-0.6,0.6c-0.3,0.3-0.9,0.3-1.2,0l-1.2-1.2l0,0l1.8-1.8l0,0l1.2,1.2
					C79.1,118.5,79.1,119,78.8,119.3z"/>
				<path class="st13" d="M75.2,102.5l0.6,0.6c0.3,0.3,0.3,0.9,0,1.2l-1.2,1.2l0,0l-1.8-1.8l0,0l1.2-1.2
					C74.3,102.1,74.9,102.1,75.2,102.5z"/>
				<path class="st13" d="M72.3,99.5l0.6,0.6c0.3,0.3,0.3,0.9,0,1.2l-1.2,1.2l0,0l-1.8-1.8l0,0l1.2-1.2
					C71.3,99.2,71.9,99.2,72.3,99.5C72.2,99.5,72.3,99.5,72.3,99.5z"/>
				<path class="st13" d="M77.6,108.4l-1.8-1.8l0,0l1.2-1.2c0.3-0.3,0.9-0.3,1.2,0l0.6,0.6c0.3,0.3,0.3,0.9,0,1.2L77.6,108.4
					L77.6,108.4z"/>
				<path class="st13" d="M50.7,125.8l1.8,1.8l0,0l-1.2,1.2c-0.3,0.3-0.9,0.3-1.2,0l0,0l-0.6-0.6c-0.3-0.3-0.3-0.9,0-1.2l0,0
					L50.7,125.8L50.7,125.8z"/>
				<path class="st13" d="M47.7,122.9l1.8,1.8l0,0l-1.2,1.2c-0.3,0.3-0.9,0.3-1.2,0l-0.6-0.6c-0.3-0.3-0.3-0.9,0-1.2L47.7,122.9
					L47.7,122.9z"/>
				<path class="st13" d="M53,131.7l-0.6-0.6c-0.3-0.3-0.3-0.9,0-1.2l0,0l1.2-1.2l0,0l1.8,1.8l0,0l-1.2,1.2
					C53.9,132,53.4,132,53,131.7L53,131.7z"/>
				<path class="st21" d="M41.5,207.3c0,0-0.1,1.7,0.4,2.2s-4.4,0.6-4.4,0.6s1.4-2.5,0.8-3.6S41.5,207.3,41.5,207.3z"/>
				<path class="st6" d="M46.9,213.3l-9.5-0.8c-0.6-1-0.5-2.2,0.2-3.1c1.4,0.3,2.9,0.2,4.3-0.3c1.5,1.3,3.2,2.2,5,2.9
					C47.6,212.4,47.5,212.9,46.9,213.3z"/>
				
					<rect x="41.9" y="208.4" transform="matrix(7.915197e-02 -0.9969 0.9969 7.915197e-02 -173.7263 238.3258)" class="st11" width="0.4" height="9.5"/>
				<path class="st23" d="M27.6,162.8c0.2,0.3,0.4,0.7,0.5,1c0.6,2.7,7.6,13.8,9.6,19.5c1.8,5.8,1.3,14.6,0.3,24.5
					c1.3,0.5,2.7,0.6,4,0.2c2-9.9,5-22.4,4-25.4c-1.2-7.3-3.2-14.4-6-21.2l-0.3-1.2l-0.5-1.8l-2,0.8l-7.1,2.7L27.6,162.8z"/>
				<path class="st21" d="M19.4,204.1c0,0-0.7,1.5-0.5,2.2s-4.3-1.1-4.3-1.1s2.2-1.8,2.1-3.1S19.4,204.1,19.4,204.1z"/>
				<path class="st6" d="M22.1,211.7l-8.5-4.2c-0.2-1.1,0.4-2.2,1.4-2.8c1.2,0.8,2.6,1.3,4.1,1.3c0.9,1.7,2.1,3.3,3.5,4.6
					C23.1,211.1,22.8,211.5,22.1,211.7z"/>
				
					<rect x="17.5" y="205" transform="matrix(0.447 -0.8945 0.8945 0.447 -177.8647 131.8682)" class="st11" width="0.4" height="9.5"/>
				<path class="st23" d="M27.2,158.8c0,0.4-3.8,3.3-3.9,3.6c-2.3,6.9,1.4,12.2,1.5,18c-0.5,6-4.2,14-8.9,22.8
					c1,0.9,2.2,1.5,3.5,1.7c5.5-8.5,13-18.9,13.2-22c1.6-7.2,2.4-14.5,2.4-21.9l0.1-1.2l0.2-1.9h-2.1l-7.6-0.1L27.2,158.8z"/>
				<path class="st22" d="M21.8,165.8c0.3,2.5,19.5-0.1,19.6-1.9c-2-8.2-1.4-11.6,0.2-20.4l0,0c0.2-1.4,0.5-3,0.7-4.6
					c0-0.4,0.1-0.7,0.1-1.1c0.2-1.8,0.4-3.8,0.5-5.9c-1.5-0.2-2.9-0.3-4.4-0.2c-1.7,0.2-3.3-0.1-4.8,0.1c-1.9,0.2-3.6,0.1-6.2,1.8
					C22.6,138.1,26.1,152.5,21.8,165.8z"/>
				<path class="st24" d="M39,128l-5.4,0.9c0.5,2.1,0.5,1.9-1.2,2.8c0.4,3.8,9.7,4.5,6.8-0.1C37.2,131.3,38.3,130.1,39,128z"/>
				<path class="st21" d="M40.4,129.1c-0.3,0.7-3.8,0.8-7.3,0.6l-3.1-8.4l7.3-2.7C40.6,121.8,41.3,128,40.4,129.1z"/>
				<path class="st13" d="M40.6,115.9c1.2,0.4,1.3,4.7-1,6.1c-1.4,0.6-2.9,0.7-4.4,0.2c0.1,1.2,0.2,3,0.8,3.3
					c-0.3,0.4-0.7,0.7-1.2,0.7c-0.1-0.6-0.6-1.2-1.2-1.3c-0.4,0-0.5,0-0.8,0.4s0,1,0.6,1.3c1.4,0.5,1.3,2.8,1.2,3.7
					c-1,0.1-2.7-1-3.4-1.6c-1.4-1.7-2-2.1-2.5-5.7C29.5,116,34,118.7,40.6,115.9z"/>
				<path class="st21" d="M60.8,133.9c-0.7,0.4-1.6,0.7-2.4,0.7c-1.6,1.7-14,8.3-16.4,8.6c-1.5,0.3-8.4-0.1-9-1.2
					c1.1-1.3,1.8-2.8,2.1-4.5l5.5,1.8l2.5-1.1l10.6-4.8l2-0.9l1.1-0.5c0.1-0.9,0.4-1.7,0.8-2.4c0.6-0.3,0.7-0.2,1,0.2
					c-0.1,0.5-0.2,0.8,0.2,1.2c0.9-0.2,1.8-1.9,1.9-1.8c0.5,0.7,0.8,1.5,0.8,2.3C61.5,132.3,61.3,133.2,60.8,133.9z"/>
				<path class="st21" d="M218.3,194.2l0.1,1.1c0,0,0,0,0,0.1l0,0c0,0.5-0.1,1.1-0.2,1.6c0,0.1-0.1,0.2-0.2,0.3
					c-0.4,0.5,4,0.7,4,0.7c-0.1-0.2-0.2-0.4-0.3-0.6c-0.1-0.8-0.1-1.6,0-2.4L218.3,194.2z"/>
				<path class="st25" d="M213,200.6l9.1-0.3c0.6-0.9,0.6-2.1-0.1-3c-1.4,0.2-2.8,0-4.1-0.5c-1.5,1.1-3.1,2-4.9,2.6
					C212.4,199.7,212.5,200.1,213,200.6z"/>
				
					<rect x="213" y="200.4" transform="matrix(0.9994 -3.542179e-02 3.542179e-02 0.9994 -6.9693 7.8321)" class="st13" width="9.1" height="0.4"/>
				<path class="st13" d="M218.1,168.5c-1.4,0.3-3.1,1.6-3.2,3c-0.6,4.6,3.2,23.6,3.2,24c1.1,0.2,2.3,0.2,3.5-0.1h0.2
					c1.1-5.6,1.3-11.3,0.7-16.9c1.1,2.1,17.4,5.8,17.9,4.6l0.3-1l2.4-7l-0.3-0.1c-0.7-0.1-1.3-0.3-1.9-0.5
					C237.4,173,220.5,168,218.1,168.5z"/>
				<path class="st21" d="M258,196.4c0,0,1.6-0.1,2.1,0.3s0.5-4.1,0.5-4.1s-2.3,1.3-3.4,0.8S258,196.4,258,196.4z"/>
				<path class="st25" d="M263.8,201.2l-0.9-8.8c-0.9-0.5-2.1-0.4-2.9,0.3c0.3,1.3,0.2,2.7-0.2,4c1.2,1.4,2.2,2.9,2.8,4.6
					C263,202,263.4,201.8,263.8,201.2z"/>
				<path class="st21" d="M238,149.4c-0.3,1-5.2,6.1-6.1,5.9c-0.2,1-15.2,2.9-16.7,2.4c-2.2,0-1-1.3-1.8-4.4c0-0.4-0.3-2,0.3-2.1
					c1,1.2,1.6,2.6,2,4.1l14.4-3.8l2.9-4.1C234.5,148.4,236.2,149.1,238,149.4z"/>
				
					<rect x="263.3" y="192.4" transform="matrix(0.9952 -9.827367e-02 9.827367e-02 0.9952 -18.0706 26.8495)" class="st13" width="0.4" height="8.9"/>
				<path class="st13" d="M249.6,172.3c0.8,8-5.5,16.3-8.7,21.1c5.8-0.6,11.7-0.7,17.6-0.2c0.3,1.1,0.5,2.3,0.4,3.4l-19.5,4.2
					c-11.2,1.1-6.3-18.3-1.3-24.1L249.6,172.3z"/>
				<path class="st19" d="M249.6,172.3c-8,5.6-16.1,3.2-16.4-0.4c0.6-7.4,0.2-7.8-2.4-15.2c0,0-1.6-9.8,4.2-11.8
					c1.6-0.5,3.3,0.1,4.8,0.8C248.8,153.5,244,161.5,249.6,172.3z"/>
				<path class="st24" d="M229.9,143l4.9-1.6c0.1,1.8,0.7,2.1,2.1,3.4c0,2.1-5.8,4.8-4.9,2.3C231.7,145.6,231,144.2,229.9,143z"/>
				<path class="st21" d="M229.8,146.3c0.7,0.4,3.4-1.2,6.1-3.3l-2.1-8.2l-7.1,1.8C225.8,141,228.4,146,229.8,146.3z"/>
				<path class="st26" d="M224.9,137.6c-0.8,0.9,0.7,2.2,1.7,3c1.4-0.3,2.6-1.1,3.5-2.2c0.6,1,1.4,2.4,1.1,3.1
					c0.4,0.2,0.9,0.1,1.3-0.1c-0.2-0.6-0.1-1.2,0.3-1.7c0.3-0.2,0.3-0.3,0.8-0.1s0.6,0.8,0.2,1.3c-0.8,1.1,0.8,1.8,1.4,2.6
					c0.8-0.4,1.3-1.1,1.4-2c0.2-2,0.2-3.8-1.8-5.5c-1.1-1.8-3.9-2.9-5.8-1.6C227.3,137.2,226.3,136,224.9,137.6z"/>
				<path class="st21" d="M237.1,153.6c-0.4,1-5.8,5.6-6.6,5.3c-0.3,0.9-15.4,1.4-16.9,0.9c-2.2-0.2-0.9-1.4-1.4-4.5
					c0-0.4-0.1-2,0.5-2c0.8,1.3,1.4,2.7,1.6,4.3l14.7-2.5l3.3-3.9C233.7,152.2,235.3,153.1,237.1,153.6z"/>
			</g>
		</g>
	</g>
</g>
</svg>
