<svg xmlns="http://www.w3.org/2000/svg" viewBox="0 0 153.47 155.5"><defs><style>.cls-1{fill:#f0f3fc;}.cls-2{fill:#2f69ea;}.cls-3{fill:#6197f7;}.cls-4{fill:#f2f1f0;}.cls-5{fill:#ffbc48;}.cls-6{fill:#1e43c6;}.cls-7{fill:#e1ecf4;}.cls-8{fill:#97b7ce;}.cls-9{fill:#adcdea;}.cls-10{fill:#eaeaea;}.cls-11{fill:#6d4d26;}.cls-12{fill:#e0a494;}.cls-13{fill:#22a3c6;}.cls-14{fill:#08667f;}.cls-15{fill:#e6e6e6;}.cls-16{fill:#bab9b9;}.cls-17{fill:#1884aa;}.cls-18{fill:#edb6a4;}.cls-19{fill:#f9a935;}.cls-20{fill:#9b7a4b;}.cls-21{fill:#876842;}.cls-22{fill:#0a0189;}.cls-23{fill:#19758e;}</style></defs><title>5</title><g id="Capa_2" data-name="Capa 2"><g id="Capa_1-2" data-name="Capa 1"><path class="cls-1" d="M146.28,50.68c-5.75,5-14.75,8-26.37,6.58C91.84,53.78,69.74,74.4,51.18,74.92c-10.94.31-27.2-1.54-38.44-8.31C4.91,61.88-.49,54.76,0,44.3.53,34.48,9,24.2,18.55,18.43,36.63,7.57,52,7.81,69.14,11.35c4.4.9,10,1.82,16.94,2.63,24.65,2.87,45.87-2.61,61,9.39C156.24,30.67,155.18,43,146.28,50.68Z"/><path class="cls-1" d="M146.28,50.68c-5.75,5-14.75,8-26.37,6.58C91.84,53.78,69.74,74.4,51.18,74.92c-10.94.31-27.2-1.54-38.44-8.31A20.23,20.23,0,0,1,8.92,53.25c.45-8.84,8-18.1,16.67-23.29,16.28-9.78,30.08-9.57,45.55-6.38,4,.81,9,1.64,15.25,2.37,22.19,2.58,41.3-2.35,54.9,8.46A14.43,14.43,0,0,1,146.28,50.68Z"/><path class="cls-2" d="M75.85,3.77l-.41,74.1A3.46,3.46,0,0,1,73,81.22L25.4,91.57a1.78,1.78,0,0,1-1.57-.36,2.16,2.16,0,0,1-.65-1,3,3,0,0,1-.15-1l0-2.79.4-71.31a3.47,3.47,0,0,1,2.4-3.35L73.48,1.46a1.82,1.82,0,0,1,1.81.6h0A2.53,2.53,0,0,1,75.85,3.77Z"/><path class="cls-3" d="M39.9,32.49A10.26,10.26,0,0,1,38,38.24a7.92,7.92,0,0,1-4.67,3.35,4.86,4.86,0,0,1-4.64-1.33,6.86,6.86,0,0,1-1.8-5c0-4.25,2.94-8.32,6.53-9.1S39.92,28.24,39.9,32.49Z"/><path class="cls-4" d="M38,38.24a7.92,7.92,0,0,1-4.67,3.35,4.86,4.86,0,0,1-4.64-1.33c.6-2.79,2.47-5.14,4.68-5.62S37.47,35.71,38,38.24Z"/><ellipse class="cls-5" cx="66.14" cy="26.79" rx="2.63" ry="2.02" transform="translate(16.24 77.8) rotate(-67.68)"/><path class="cls-4" d="M35.23,31.37a2.63,2.63,0,0,1-1.82,2.54c-1,.21-1.8-.57-1.79-1.76a2.62,2.62,0,0,1,1.82-2.53C34.44,29.4,35.24,30.18,35.23,31.37Z"/><path class="cls-4" d="M67.2,27.55l-.16.22a.33.33,0,0,1-.36.15l-.37-.18c-.12-.07-.26-.12-.37-.2a1.12,1.12,0,0,1-.28-.25,3.7,3.7,0,0,1-.21-.33c-.1-.17-.2-.35-.29-.53h0a.44.44,0,0,1,.06-.44l.16-.22c.12-.17.31-.21.43-.09l.11.1a.42.42,0,0,1,0,.52l-.09.13a1.56,1.56,0,0,0,.75.73l.09-.13a.3.3,0,0,1,.44-.1l.1.1A.42.42,0,0,1,67.2,27.55Z"/><path class="cls-5" d="M32.17,24.2a.53.53,0,0,1-.36.5c-.2.05-.36-.11-.36-.34a.5.5,0,0,1,.36-.5A.31.31,0,0,1,32.17,24.2Z"/><path class="cls-5" d="M33.9,23.83a.53.53,0,0,1-.36.5c-.2,0-.36-.11-.36-.35a.54.54,0,0,1,.36-.5C33.74,23.44,33.9,23.59,33.9,23.83Z"/><path class="cls-5" d="M35.49,23.48a.5.5,0,0,1-.36.5c-.2.05-.36-.11-.36-.34a.53.53,0,0,1,.36-.5C35.33,23.09,35.49,23.25,35.49,23.48Z"/><path class="cls-3" d="M43,30.2a.24.24,0,0,1-.23-.19.24.24,0,0,1,.18-.29l9.29-2a.24.24,0,0,1,.29.18.26.26,0,0,1-.19.29L43,30.2Z"/><path class="cls-3" d="M42.93,33.93a.24.24,0,0,1,0-.47l14.71-3.2a.25.25,0,0,1,.29.19.24.24,0,0,1-.19.28L43,33.93Z"/><path class="cls-3" d="M39.79,52.48a10.26,10.26,0,0,1-1.86,5.75,7.92,7.92,0,0,1-4.67,3.35,4.9,4.9,0,0,1-4.65-1.32,6.9,6.9,0,0,1-1.79-5c0-4.25,2.94-8.32,6.52-9.1S39.81,48.23,39.79,52.48Z"/><path class="cls-4" d="M37.93,58.23a7.92,7.92,0,0,1-4.67,3.35,4.9,4.9,0,0,1-4.65-1.32c.61-2.8,2.48-5.15,4.69-5.63S37.35,55.7,37.93,58.23Z"/><path class="cls-5" d="M68.14,46.32a3.07,3.07,0,0,1-2.13,3c-1.17.25-2.11-.67-2.1-2a3.07,3.07,0,0,1,2.13-3C67.21,44,68.15,44.93,68.14,46.32Z"/><path class="cls-4" d="M35.12,51.36A2.64,2.64,0,0,1,33.3,53.9c-1,.21-1.8-.57-1.79-1.76a2.6,2.6,0,0,1,1.82-2.53C34.32,49.39,35.13,50.17,35.12,51.36Z"/><path class="cls-4" d="M67.09,47.54l-.16.22a.34.34,0,0,1-.36.15,2.53,2.53,0,0,1-.37-.18c-.13-.07-.26-.12-.38-.2a1.06,1.06,0,0,1-.27-.25,3.7,3.7,0,0,1-.21-.33,5.45,5.45,0,0,1-.29-.53h0a.44.44,0,0,1,.06-.44l.15-.22c.13-.17.32-.21.44-.09l.1.1a.42.42,0,0,1,0,.52l-.09.13a1.56,1.56,0,0,0,.75.73l.09-.13a.29.29,0,0,1,.43-.1l.11.1A.42.42,0,0,1,67.09,47.54Z"/><path class="cls-5" d="M32.05,44.19a.5.5,0,0,1-.36.5c-.19.05-.35-.11-.35-.34a.51.51,0,0,1,.36-.5C31.9,43.81,32.05,44,32.05,44.19Z"/><path class="cls-5" d="M33.78,43.82a.52.52,0,0,1-.35.5c-.2,0-.36-.11-.36-.35a.51.51,0,0,1,.36-.5C33.63,43.43,33.79,43.58,33.78,43.82Z"/><path class="cls-5" d="M35.38,43.47A.53.53,0,0,1,35,44c-.2.05-.36-.11-.36-.34a.5.5,0,0,1,.36-.5C35.22,43.08,35.38,43.24,35.38,43.47Z"/><path class="cls-3" d="M42.84,50.19a.24.24,0,0,1-.23-.19.24.24,0,0,1,.18-.29l9.28-2a.24.24,0,0,1,.11.47l-9.29,2Z"/><path class="cls-3" d="M42.82,53.93a.25.25,0,0,1-.24-.2.24.24,0,0,1,.19-.28l14.7-3.2a.25.25,0,0,1,.29.19.24.24,0,0,1-.18.29L42.87,53.92Z"/><path class="cls-3" d="M39.67,72.47a10.25,10.25,0,0,1-1.85,5.75,8,8,0,0,1-4.67,3.36,4.92,4.92,0,0,1-4.65-1.33,6.94,6.94,0,0,1-1.8-5c0-4.26,2.95-8.33,6.53-9.11S39.7,68.22,39.67,72.47Z"/><path class="cls-4" d="M37.82,78.22a8,8,0,0,1-4.67,3.36,4.92,4.92,0,0,1-4.65-1.33c.61-2.8,2.48-5.15,4.68-5.62S37.24,75.69,37.82,78.22Z"/><path class="cls-5" d="M68,66.31a3.07,3.07,0,0,1-2.13,3c-1.17.25-2.11-.66-2.1-2a3.05,3.05,0,0,1,2.13-3C67.1,64,68,64.92,68,66.31Z"/><ellipse class="cls-4" cx="33.2" cy="71.74" rx="2.25" ry="1.72" transform="translate(-45.77 75.21) rotate(-67.68)"/><path class="cls-4" d="M67,67.53l-.15.22a.34.34,0,0,1-.36.15,3.26,3.26,0,0,1-.38-.18l-.37-.19a1.69,1.69,0,0,1-.28-.26,3.62,3.62,0,0,1-.2-.33,5.45,5.45,0,0,1-.29-.53h0A.47.47,0,0,1,65,66l.16-.22a.3.3,0,0,1,.44-.09l.1.1a.42.42,0,0,1,0,.52l-.09.13a1.58,1.58,0,0,0,.74.73l.1-.13a.29.29,0,0,1,.43-.1L67,67A.41.41,0,0,1,67,67.53Z"/><path class="cls-5" d="M31.94,64.18a.53.53,0,0,1-.36.51c-.2,0-.35-.12-.35-.35a.51.51,0,0,1,.36-.5C31.78,63.8,31.94,64,31.94,64.18Z"/><path class="cls-5" d="M33.67,63.81a.51.51,0,0,1-.36.5c-.19,0-.35-.11-.35-.35a.52.52,0,0,1,.36-.5C33.51,63.42,33.67,63.57,33.67,63.81Z"/><path class="cls-5" d="M35.26,63.46a.5.5,0,0,1-.36.5c-.19.05-.35-.11-.35-.34a.5.5,0,0,1,.36-.5C35.11,63.07,35.26,63.23,35.26,63.46Z"/><path class="cls-3" d="M42.73,70.18a.26.26,0,0,1-.24-.19.25.25,0,0,1,.19-.29l9.28-2a.24.24,0,1,1,.1.47l-9.28,2Z"/><path class="cls-3" d="M42.71,73.92a.25.25,0,0,1-.24-.2.23.23,0,0,1,.19-.28l14.7-3.2a.25.25,0,0,1,.29.19.24.24,0,0,1-.19.29l-14.7,3.19Z"/><path class="cls-3" d="M75.85,3.77l0,5.18L23.42,20.33l0-5.17a3.47,3.47,0,0,1,2.4-3.35L73.48,1.46C74.8,1.18,75.86,2.21,75.85,3.77Z"/><path class="cls-5" d="M71.73,6.81l-3.49.76c-.45.09-.82-.26-.81-.8h0a1.18,1.18,0,0,1,.82-1.14l3.49-.76c.45-.1.81.26.81.79h0A1.18,1.18,0,0,1,71.73,6.81Z"/><path class="cls-6" d="M26.32,17.7h0c-.24.05-.43-.13-.43-.42v-1.5a.61.61,0,0,1,.43-.6h0c.24-.06.43.13.43.42v1.5A.61.61,0,0,1,26.32,17.7Z"/><path class="cls-6" d="M28,17.34h0c-.24.05-.43-.14-.43-.42V14.68a.63.63,0,0,1,.44-.6h0c.24-.06.43.13.43.42v2.23A.62.62,0,0,1,28,17.34Z"/><path class="cls-4" d="M29.66,17h0c-.23.05-.43-.14-.43-.42l0-3a.64.64,0,0,1,.44-.61h0c.24-.05.43.14.43.42l0,3A.64.64,0,0,1,29.66,17Z"/><path class="cls-6" d="M50.4,11.44l-1.52.33c-.45.1-.82-.26-.81-.79h0a1.18,1.18,0,0,1,.82-1.15l1.52-.33c.45-.1.81.26.81.79h0A1.18,1.18,0,0,1,50.4,11.44Z"/><path class="cls-4" d="M72.16,75.33h0c-.24,0-.43-.13-.43-.41l.33-58.83a.64.64,0,0,1,.43-.6h0c.24-.06.43.13.43.41l-.33,58.83A.62.62,0,0,1,72.16,75.33Z"/><path class="cls-6" d="M72.39,34.05h0c-.51.11-.91-.29-.91-.89V30.52a1.35,1.35,0,0,1,.93-1.29h0c.5-.11.91.29.91.89l0,2.64A1.32,1.32,0,0,1,72.39,34.05Z"/><path class="cls-6" d="M75.29,2.06a1.82,1.82,0,0,0-1.81-.6L25.85,11.81a3.47,3.47,0,0,0-2.4,3.35l-.4,71.31,0,2.79a3,3,0,0,0,.15,1,2.16,2.16,0,0,0,.65,1s-2.64-.59-2.63-2.91v-.42l.41-74.09A3.49,3.49,0,0,1,24,10.43L69,.67h.11l.12,0,.13,0h.12l.08,0,.1,0,.1,0,.24,0,.07,0,.21,0h.09l.15,0L71.65.09l.12,0A3.15,3.15,0,0,1,75.29,2.06Z"/><path class="cls-7" d="M131.3,122.4a102.54,102.54,0,0,0-56.85-10.55c-3.93.39-8.51.86-13.84,1.42C30.66,116.42-9.85,129,27,134.85s48.15,6.07,41.78,10.2-15,8,5.92,10.18,87.11-9.24,71-23.42A70.89,70.89,0,0,0,131.3,122.4Z"/><path class="cls-8" d="M136.23,139.5s-1.75-5.05,1.12-9,4.72-4.31,5.11-6.73c.69-4.23-1.51-5.42-1.23-7.82.42-3.57,4.28-2.27,3.93-6.51-.28-3.36,1.74-9.52-4.32-6.34-5.43,2.86-6.85,11.07-7.7,19a83.47,83.47,0,0,0,.52,17.43Z"/><path class="cls-9" d="M131.08,139.5s1.59-4.6-1-8.22-4.29-3.92-4.65-6.13c-.62-3.84,1.38-4.92,1.12-7.11-.38-3.25-3.89-2.06-3.57-5.91.25-3.06-1.59-8.67,3.92-5.77,4.94,2.6,6.24,10.06,7,17.29a76.29,76.29,0,0,1-.47,15.85Z"/><path class="cls-10" d="M134.8,139.59a.09.09,0,0,1-.09-.07,22.52,22.52,0,0,1-.67-4.64c0-2.3,1.56-8.85,3.76-11.42,1.46-1.71,1-3.88.49-6.19a17,17,0,0,1-.52-3.66,8.29,8.29,0,0,1,2.56-5.68.09.09,0,0,1,.13,0,.09.09,0,0,1,0,.13,8.16,8.16,0,0,0-2.49,5.54,16.12,16.12,0,0,0,.51,3.62c.51,2.36,1,4.58-.53,6.35-2.17,2.54-3.75,9-3.71,11.3a22.35,22.35,0,0,0,.66,4.59.11.11,0,0,1-.07.12Z"/><path class="cls-10" d="M132.37,139.59h0a.1.1,0,0,1-.09-.1c0-.08.57-8.35-.29-10.56a16.3,16.3,0,0,0-.74-1.56c-1-2-2.21-4.37-1.58-7.28.48-2.25-.71-3.86-1.76-5.28a4.83,4.83,0,0,1-1.24-2.47c0-2.19-2.17-4.62-2.19-4.65a.09.09,0,0,1,0-.13.09.09,0,0,1,.13,0c.09.1,2.24,2.51,2.24,4.77a4.6,4.6,0,0,0,1.21,2.35c1,1.39,2.28,3.11,1.78,5.44-.62,2.84.6,5.23,1.57,7.15.29.57.56,1.11.75,1.59.87,2.24.32,10.29.3,10.63A.1.1,0,0,1,132.37,139.59Z"/><path class="cls-9" d="M30.36,131.12s-1.41-4.07.91-7.29,3.8-3.47,4.12-5.43c.55-3.41-1.22-4.37-1-6.31.34-2.88,3.45-1.82,3.16-5.24-.22-2.72,1.41-7.69-3.48-5.12-4.38,2.3-5.53,8.93-6.21,15.34a67,67,0,0,0,.42,14.05Z"/><path class="cls-8" d="M26.21,131.12s1.28-3.7-.83-6.63-3.46-3.16-3.75-4.94c-.5-3.1,1.11-4,.91-5.74-.31-2.61-3.15-1.66-2.89-4.77.21-2.47-1.27-7,3.17-4.65,4,2.1,5,8.12,5.65,14a60.92,60.92,0,0,1-.38,12.78Z"/><path class="cls-10" d="M29.2,131.2a.07.07,0,0,1-.07-.06,19,19,0,0,1-.53-3.74c0-1.85,1.25-7.14,3-9.21,1.18-1.38.8-3.14.4-5a13.19,13.19,0,0,1-.41-3,6.67,6.67,0,0,1,2.06-4.58.06.06,0,0,1,.1,0,.07.07,0,0,1,0,.1,6.52,6.52,0,0,0-2,4.47,12.77,12.77,0,0,0,.41,2.92c.41,1.9.79,3.69-.43,5.13-1.75,2-3,7.27-3,9.11a17.7,17.7,0,0,0,.53,3.7.09.09,0,0,1-.06.1Z"/><path class="cls-10" d="M27.24,131.2h0a.08.08,0,0,1-.07-.08c0-.07.45-6.74-.24-8.52a12.42,12.42,0,0,0-.59-1.26c-.8-1.57-1.79-3.53-1.28-5.87.39-1.82-.57-3.12-1.42-4.27a3.89,3.89,0,0,1-1-2c0-1.76-1.75-3.73-1.76-3.75a.07.07,0,0,1,0-.1.08.08,0,0,1,.11,0c.07.09,1.8,2,1.8,3.85a3.71,3.71,0,0,0,1,1.91c.82,1.11,1.84,2.5,1.43,4.38-.49,2.29.49,4.22,1.27,5.77a10.93,10.93,0,0,1,.6,1.28c.71,1.81.27,8.3.25,8.58A.08.08,0,0,1,27.24,131.2Z"/><path class="cls-6" d="M73.26,107.8a1.33,1.33,0,0,1-.26,0,.16.16,0,0,1-.09-.21.16.16,0,0,1,.2-.1s1.63.46,3.73-4c1.39-3,1.1-7.22.85-11a37.32,37.32,0,0,1-.11-6c.54-5.17,2.84-9.73,6.13-12.18a7.76,7.76,0,0,1,6.16-1.63c3,.56,4.81,3.22,5.25,7.69A28.41,28.41,0,0,1,94.88,87a.16.16,0,0,1-.19.13.15.15,0,0,1-.13-.18c0-.13,2.15-12.63-4.75-13.91a7.45,7.45,0,0,0-5.9,1.57c-3.18,2.36-5.48,6.94-6,12A36.72,36.72,0,0,0,78,92.46c.26,3.8.55,8.11-.88,11.14C75.35,107.38,73.84,107.8,73.26,107.8Z"/><path class="cls-11" d="M65.42,127.07a.3.3,0,0,1-.31.28c-.85,0-3.44-.08-5-.13l-1,0,.93-.43c.71-.34,1.36-.66,2-1a2,2,0,0,0,.48,0c.64-.06,2.29-.36,2.71.27A1.75,1.75,0,0,1,65.42,127.07Z"/><path class="cls-12" d="M94.05,72.85c-.38.71.11,1.49-.33,2.73s-1.86,2.8-4.55,1.37A2.92,2.92,0,0,1,88,72.4c.59-.7,2.24-1.49,2.67-2.05s1.06-1.68,1.06-1.68h1.74L95,71.21Z"/><path class="cls-13" d="M97.87,55.11s-2.5,5.37-4,7.77-2.75,4.61-2.75,4.61a7.54,7.54,0,0,0,1.9,2.8,5,5,0,0,0,3.06,1.06s2.1-3.72,2.66-5.13a25.62,25.62,0,0,0,.85-2.43Z"/><path class="cls-14" d="M106.62,133a22.94,22.94,0,0,0-4.81,3,7.79,7.79,0,0,0-2.14,3.45,1.36,1.36,0,0,0,1.42,1.78,31.76,31.76,0,0,0,4.86-.88,26.53,26.53,0,0,0,7.8-3.16v-2.33a2.4,2.4,0,0,0-1-1.84Z"/><path class="cls-14" d="M99.28,130.72a23.22,23.22,0,0,0-4.81,3,7.64,7.64,0,0,0-2.13,3.44A1.36,1.36,0,0,0,93.76,139a34.75,34.75,0,0,0,4.86-.88,26.87,26.87,0,0,0,7.79-3.16V132.6a2.38,2.38,0,0,0-1-1.84Z"/><path class="cls-12" d="M106.62,130.72V133a4.37,4.37,0,0,0,3,.91,4.74,4.74,0,0,0,3.12-.87v-2l-4.29-1.34Z"/><path class="cls-12" d="M99.28,128.43v2.29a4.37,4.37,0,0,0,3,.91,4.75,4.75,0,0,0,3.13-.87v-2l-4.3-1.34Z"/><path class="cls-15" d="M111,77.77c-.12,2.07-1,3.85-1.11,5.62v0l-2.74,44.45a7.28,7.28,0,0,1-4.85,1.34,6.77,6.77,0,0,1-4.63-2L98,71.35l7.67-4.62,5,4.38A64.45,64.45,0,0,1,111,77.77Z"/><polygon class="cls-16" points="102.91 72.28 104.96 121.93 109.13 71.35 102.91 72.28"/><path class="cls-15" d="M118.29,80.06c-.11,2.07-1,3.85-1.1,5.63v0l-2.73,44.45a7.24,7.24,0,0,1-4.85,1.34,6.78,6.78,0,0,1-4.64-2l.37-55.87L113,69l5,4.37A64.45,64.45,0,0,1,118.29,80.06Z"/><path class="cls-17" d="M108.79,36.55a64.4,64.4,0,0,1,7.55,4.76c2.8,2.21,3.72,16.68,3.48,19.76s.08,3.31.48,6.22a17.36,17.36,0,0,1-.73,6.47,49.11,49.11,0,0,1-13,.49c-6.87-.73-9.38-2.35-9.38-2.35s-.37-4-.47-8.36,1.53-5.95,1.12-10.32-2.26-7,0-11.16a8.66,8.66,0,0,1,4.51-3.47l4-1.14Z"/><path class="cls-12" d="M101.73,37.54s.19.22.21,1.76-.37,2.26,0,4.58a9.69,9.69,0,0,0,1.08,3,1,1,0,0,0,1.61.25,12.57,12.57,0,0,0,3.54-5.55,15.87,15.87,0,0,0,.62-5.06S108,34,107.9,33.34s-.43-.84-.43-.84l-2.43.68Z"/><path class="cls-18" d="M96.21,25.48a44.92,44.92,0,0,0,0,6.11A19.91,19.91,0,0,0,98.26,38s2.6.68,6-1.85C108.4,33,109,31.78,109,31.78s-2.14-5.61-2.26-5.85-3-4-3-4Z"/><path class="cls-19" d="M90.1,33.19l.3-.22a1.16,1.16,0,0,1,.59-.2l5.14-.37a.36.36,0,0,1,.36.24l2.19,6.73-.28,1.11L96,33.17a.48.48,0,0,0-.5-.34Z"/><path class="cls-5" d="M91.46,37.49,90,33.55a.28.28,0,0,1,.24-.37l5.32-.35a.48.48,0,0,1,.5.34l1.94,6,.52,1.57L97,42.63l-1.9-1.26Z"/><path class="cls-12" d="M95.55,46.19s-.1-.37-1.13-1.42A11.32,11.32,0,0,1,92,40.56a13.74,13.74,0,0,1-.57-3,9.1,9.1,0,0,1,2.63-.69,4.59,4.59,0,0,1,3.29,1.42,12.27,12.27,0,0,1,.7,2.09s0-1.93.49-1.42a2.3,2.3,0,0,1,.54,2.11c-.14,1-.79,1.75-.5,2.27S98.2,45,98,45.15,95.55,46.19,95.55,46.19Z"/><path class="cls-20" d="M79.14,98a2.63,2.63,0,0,1-.37.75c-.54.71-1.22.64-1.76,1-.17.12-.05.25.2.39h0c.53.31,1.61.71,1.55,1.31a.32.32,0,0,1-.08.2l0,0h0a3.83,3.83,0,0,1-1.8.67h0a9.69,9.69,0,0,0-2.41.66c-1,.62-1,1.65-1.4,3.51,0,.1,0,.2,0,.3h0a5.48,5.48,0,0,0,0,.57c0,1.61.43,3.45-.39,6.73a7,7,0,0,1-3.88,5,23.14,23.14,0,0,0-1.29,2.75,4,4,0,0,1-1.26,1.54,9,9,0,0,1-.79.57A33.83,33.83,0,0,1,62,125.79c-.6.31-1.25.63-2,1l-.93.43a18.15,18.15,0,0,1-5.23,1.31l-.68.07c-1.62.12-3.16.07-4.63.05-3.42,0-9,.75-10.19.79s1.31-1.4,3.86-2,7.38-.39,9.68-1.28,1.66-1.33,3-6,6.38-10.48,8.16-12.6a26.45,26.45,0,0,0,2-2.74h0c.12-.18.23-.36.34-.54h0a8.52,8.52,0,0,0,1.34-3.09,6.14,6.14,0,0,1,1.59-4.26,6.26,6.26,0,0,1,3.18-1.69,6.18,6.18,0,0,1,2,0,4.62,4.62,0,0,1,1.92,1.29c.38.3,1.79.19,2.75.14a3.41,3.41,0,0,1,.87,0C79.33,96.72,79.34,97.38,79.14,98Z"/><path class="cls-21" d="M59.28,128.48a7.28,7.28,0,0,1-1.7.25,11.26,11.26,0,0,0,1.7.3h.32c.64-.07,2.29-.37,2.71.26a1.75,1.75,0,0,1,.21,1,.29.29,0,0,1-.31.28c-.84,0-3.44-.08-5-.13s-2.69,0-3.36-.48a1,1,0,0,1-.44-.55c-.32-1,2.72-2.16,2.93-2.34a7.68,7.68,0,0,1-.49-.61,3.81,3.81,0,0,1-.67-1.46,3.69,3.69,0,0,1,1.56-3.18,3.85,3.85,0,0,1,.87-.55,4.94,4.94,0,0,1,1.68-.42,4,4,0,0,1,.49,0c1.91,0,2.93,2,2.77,3.79a3.62,3.62,0,0,1-1.46,2.94,4.07,4.07,0,0,1-.59.4h0a5.92,5.92,0,0,1-1.27.51Z"/><path class="cls-11" d="M69.93,128H68.62a3.83,3.83,0,0,0-.83-.29,15.39,15.39,0,0,1-.16-2.94,12.47,12.47,0,0,1,.37-1.84c0,.1,0,.2,0,.31a14.47,14.47,0,0,0,.15,2.74,2.87,2.87,0,0,1,1.5.82A1.41,1.41,0,0,1,69.93,128Z"/><path class="cls-11" d="M59.34,120.83v0a4.94,4.94,0,0,0-1.68.42,3.85,3.85,0,0,0-.87.55A3.69,3.69,0,0,0,55.23,125a3.81,3.81,0,0,0,.67,1.46,7.68,7.68,0,0,0,.49.61,14.94,14.94,0,0,0-2.49,1.43l-.68.07a5.14,5.14,0,0,1,2.38-1.65,4.15,4.15,0,0,1-.76-1.45c-.43-1.14,0-2,1.29-3.53A3.82,3.82,0,0,1,59.34,120.83Z"/><path class="cls-11" d="M59.28,129h0a9,9,0,0,1-2.44-.14c-.64-.25.16-.39.79-.32a8.92,8.92,0,0,0,1.65-.09,7.28,7.28,0,0,1-1.7.25A11.26,11.26,0,0,0,59.28,129Z"/><path class="cls-20" d="M61.59,126.34a3.71,3.71,0,0,1-1,1.63h0a5.92,5.92,0,0,1-1.27.51h0a2.8,2.8,0,0,0,.78-2.08c-.07-1.3-3.17-2.9-1.89-4a2.32,2.32,0,0,1,3.45.89A4.47,4.47,0,0,1,61.59,126.34Z"/><path class="cls-11" d="M66.77,119.56l-.64,3.84a9,9,0,0,1-.79.57,11.3,11.3,0,0,1-1.19-3c-.14-.81.68-2.78.46-3.67s-1.08-1.88-.81-3.58,2.4-1.8,2.4-1.8Z"/><path class="cls-11" d="M70.07,95.68s-.47.48,0,1.55,1.48,2.4,1.56,3.33.12,2.81-.5,2.75-1.36-1-2.06-1.25a6.86,6.86,0,0,1-2.33-.9c-.5-.5,0-2.51.69-3.51A4.34,4.34,0,0,1,70.07,95.68Z"/><path class="cls-11" d="M78.76,101.48a.32.32,0,0,1-.08.2l0,0h0a4.92,4.92,0,0,1-4,.06c-2.3-1-.48-1.66.65-1.48a2.92,2.92,0,0,0,1.88-.12h0C77.74,100.48,78.82,100.88,78.76,101.48Z"/><path class="cls-11" d="M79.14,98c-.29.21-1-.32-1.15-.72a.7.7,0,0,1,.17-.65,3.41,3.41,0,0,1,.87,0C79.33,96.72,79.34,97.38,79.14,98Z"/><path class="cls-6" d="M91.69,34.12a.35.35,0,0,0-.35-.35.36.36,0,0,0,0,.71A.36.36,0,0,0,91.69,34.12Z"/><path class="cls-5" d="M73,106.85a5.48,5.48,0,0,0,0,.57,9.56,9.56,0,0,1-4.66-.4,6.87,6.87,0,0,1-3.23-2.23h0c.12-.18.23-.36.34-.54h0a5.13,5.13,0,0,0,3,2.38A7.82,7.82,0,0,0,73,106.85Z"/><path class="cls-5" d="M73.22,109.83h-.09c-.33,0-.62-.42-.68-.92a1,1,0,0,1,.43-1.07l.09,0c.35,0,.7.37.77.92S73.58,109.78,73.22,109.83Z"/><path class="cls-19" d="M73.13,109.83l-.09,0c-.35.05-.7-.37-.77-.92s.16-1,.52-1.09h.09a1,1,0,0,0-.43,1.07C72.51,109.41,72.8,109.8,73.13,109.83Z"/><path class="cls-19" d="M72.94,107.86h0c-.07,0-.14-.09-.16-.21s0-.22.1-.24h0c.08,0,.16.08.18.21S73,107.85,72.94,107.86Z"/><path class="cls-22" d="M95.45,18.57s-2.77,5.56.76,6.91,6.06-.44,7.51.53.54,2.24.3,3.41a3.28,3.28,0,0,0,.1,1.72s1.7-2.42,2.71-1.15-.26,2-.69,2.57a1,1,0,0,0,.46,1.7c1,.24,4.53-1.7,4.83-5,.31-3.44-1.46-4-1.46-4s-.35-5.77-5.55-6.3c-4.43-.44-4.83,1.74-6.65,1.5A2.89,2.89,0,0,1,95.45,18.57Z"/><path class="cls-23" d="M117.49,43.09s.93,10.25-.41,15c-1.18,4.16-3.92,8.46-9.53,4.61a28.69,28.69,0,0,1-8.44-9.31s1.84-1.06,2-.82,12.53,7.68,12.53,7.68Z"/><path class="cls-13" d="M117.49,44.87c-.08,2.53.36,15.29-5.33,17.65S94.84,47.78,94.84,47.78a13.46,13.46,0,0,1,1.68-3.13A4.43,4.43,0,0,1,99,43.26S105.74,50,109,53h0c.69.64,1.22,1.12,1.49,1.33.83.64,1.08-1,1.2-3.25.12-2.1.13-4.75.38-6.64a5.9,5.9,0,0,1,.94-2.67,2.28,2.28,0,0,1,3.86.2A5.54,5.54,0,0,1,117.49,44.87Z"/><path class="cls-23" d="M111.38,55.48c-.6,1.36-2.34-2.39-2.39-2.49.69.64,1.22,1.12,1.49,1.33.83.64,1.08-1,1.2-3.25C111.68,51.07,112,54.11,111.38,55.48Z"/><path class="cls-18" d="M93.72,75.58c-.43,1.24-1.86,2.8-4.55,1.37A2.92,2.92,0,0,1,88,72.4a4.1,4.1,0,0,1,3.15.51A6.68,6.68,0,0,1,93.72,75.58Z"/><path class="cls-21" d="M69.75,129.9h-4s0-.81.06-1.66a30.17,30.17,0,0,0-.41-5,7.4,7.4,0,0,1-.26-3.76c.33-1.9-.6-2.22-.76-4.36a4.23,4.23,0,0,1,.42-2,1.94,1.94,0,0,1,.56-.72,2,2,0,0,1,3,.63,4,4,0,0,1,.5,1.63,17.82,17.82,0,0,1-.57,4.15,26.18,26.18,0,0,1,0,2.67c0,.18,0,.34-.08.5h0c-.06.38-.13.69-.2,1a12.47,12.47,0,0,0-.37,1.84,15.39,15.39,0,0,0,.16,2.94,3.83,3.83,0,0,1,.83.29,2.4,2.4,0,0,1,.79.6A1.51,1.51,0,0,1,69.75,129.9Z"/></g></g></svg>