<svg xmlns="http://www.w3.org/2000/svg" viewBox="0 0 234.55 129.51"><defs><style>.cls-1{fill:#f9f1ed;}.cls-2{fill:#f98f7a;}.cls-3{fill:#fcb490;}.cls-4{fill:#fca17a;}.cls-5{fill:#fc9c72;}.cls-6{fill:#f77d69;}.cls-7{fill:#f9a17a;}.cls-8{fill:#f78d69;}.cls-9{fill:#fcc5b1;}.cls-10{fill:#f9ad95;}.cls-11{fill:#f9b7a2;}.cls-12{fill:#f2f9f7;}.cls-13{fill:#fc8856;}.cls-14{fill:#8b8bf2;}.cls-15{fill:#f2604c;}.cls-16{fill:#e4edeb;}.cls-17{fill:#324570;}.cls-18{fill:#7d7dea;}.cls-19{fill:#f26b51;}.cls-20{fill:#122c3f;}.cls-21{fill:#caddda;}.cls-22{fill:#f9d5c5;}.cls-23{fill:#6f6fef;}.cls-24{fill:#5252d1;}.cls-25{fill:#edb09a;}.cls-26{fill:#7070e5;}</style></defs><title>8</title><g id="Capa_2" data-name="Capa 2"><g id="Capa_1-2" data-name="Capa 1"><path class="cls-1" d="M7.49,114H224.9s1.16-19.4-14.24-19.4-4.61-30.36-29.24-30.36S156.41,0,124.28,0,92.77,34.92,86.91,50.08c-6.69,17.28-32,6.39-32,27.26S7.49,74.89,7.49,114Z"/><ellipse class="cls-1" cx="35.36" cy="125.65" rx="16.07" ry="3.86"/><ellipse class="cls-1" cx="198.86" cy="121.79" rx="16.07" ry="3.86"/><path class="cls-2" d="M12.84,91.94l-1,1a8.66,8.66,0,0,1-3.71-.66L9.91,90.5,7.26,91.86a5.8,5.8,0,0,1-.52-.34,17.67,17.67,0,0,0-1.58-1.07L6.55,89l-2.7.78A10.18,10.18,0,0,0,0,88.61a16.83,16.83,0,0,1,5.18-2.76l1.37,1.77-.29-2.06a10,10,0,0,1,3.55-.18l.47,2.24V85.46A8.61,8.61,0,0,1,13.69,87v1.45l.49-1.07a13.35,13.35,0,0,1,2.87,3.43L15.9,92.15a12.37,12.37,0,0,1-3.4.79Z"/><path class="cls-3" d="M8,61.11H1.17a10.23,10.23,0,0,1-.43-1.53,34.65,34.65,0,0,1-.21-9.94c2.07-.56,4.14-1.17,4.14-1.17L.91,46.29c.74-6,1.66-11.72-.17-15.38a21.47,21.47,0,0,1,10.18,4L9.7,39.75l4.19-2.14a22.33,22.33,0,0,1,4.38,7.1c.34.88.65,1.78.94,2.68l-3.25,3,4-.3a65.22,65.22,0,0,1,1.83,12.49l-2.6.83,2.69,1.47a67.43,67.43,0,0,1-.24,8l-3.4,1.6s-7.39-2.45-12.63-7.16Z"/><path class="cls-4" d="M34.8,89.08l.42.65V88.59a19.75,19.75,0,0,1,2.53-2.35l.88,1.38.12-2.11A22.46,22.46,0,0,1,41.35,84L42,85V83.64a21.42,21.42,0,0,1,3.48-1.34,15.28,15.28,0,0,1-1.74,4.89L42,87.41l1.33.44a13,13,0,0,1-2.16,2.51l-2.33-.63L40,91.27a15.59,15.59,0,0,1-2,1.19l-.63-.52.2.72a15.21,15.21,0,0,1-5,1.34l-.38-.55A16,16,0,0,1,34.8,89.08Z"/><path class="cls-3" d="M38.6,70.53a19.56,19.56,0,0,0,.61,1.86,24.15,24.15,0,0,0,.88-2.48,20.79,20.79,0,0,1,4.75-1.16L45.46,72,47,68.59a22.25,22.25,0,0,1,4.56.4l-.73,3.4,3-2.83a25.57,25.57,0,0,1,3.93,1.54l-.3,1.29.93-1A23.3,23.3,0,0,1,62.37,74c-.92.72-1.82,1.35-2.71,1.92l-2.17-1.19,1.11,1.85a29.6,29.6,0,0,1-3.75,1.86l-3.12-1.47.6,2.34A22,22,0,0,1,48,80l-2.11-2.27.47,2.32a20,20,0,0,1-4.11-.45l-3.08-3.31.48,2.55A17.62,17.62,0,0,1,34.49,76L33.4,73.69A26.13,26.13,0,0,1,38.6,70.53Z"/><path class="cls-5" d="M23.28,114s3.68-16.3,4.8-20.37,4.71-19,4.71-19L39.51,74h-7.2s-4.23,18.14-4.71,19.1S21,114,21,114Z"/><path class="cls-6" d="M20.49,114l-2.4-22.29L9.14,88.61s8.07,3.28,8.15,3.52.4,21.89.4,21.89Z"/><path class="cls-7" d="M21.52,114c0-.48-.56-39.15-.56-39.15L7.14,43.16,20,75.11,18.57,114Z"/><path class="cls-8" d="M22.8,114s2.57-15,3.28-15.1S37.83,88.61,37.83,88.61L26.08,100l-2.39,14Z"/><path class="cls-9" d="M20,114S18,98.25,30.24,65.44A159.88,159.88,0,0,0,21.92,114Z"/><path class="cls-10" d="M21,114s1.36-20.77-3.27-30.2c0,0,3.46,9.67,1.73,30.2Z"/><path class="cls-11" d="M21.52,114s1.36-19.81,4.32-25.41c0,0-2.28,8.19-3,25.41Z"/><path class="cls-9" d="M22.32,114s.2-12,2.74-16.62c0,0-1.38,3.91-1.78,16.62Z"/><path class="cls-9" d="M20,114s-1.36-13.66-2.32-18l1.73,18Z"/><polygon class="cls-10" points="22.8 114.02 29.36 94 23.69 114.02 22.8 114.02"/><path class="cls-10" d="M23.28,114S26,104.44,28.4,101.8c0,0-2.56,4.2-4.08,12.22Z"/><path class="cls-2" d="M221.71,91.94l1,1a8.73,8.73,0,0,0,3.72-.66l-1.78-1.82,2.66,1.36c.17-.1.34-.22.51-.34.55-.42,1.08-.76,1.58-1.07L228,89l2.71.78a10.16,10.16,0,0,1,3.84-1.13,16.85,16.85,0,0,0-5.17-2.76L228,87.62l.29-2.06a10,10,0,0,0-3.55-.18l-.47,2.24V85.46a8.67,8.67,0,0,0-3.41,1.5v1.45l-.49-1.07a13.35,13.35,0,0,0-2.87,3.43l1.15,1.38a12.37,12.37,0,0,0,3.4.79Z"/><path class="cls-3" d="M226.57,61.11h6.81a11.62,11.62,0,0,0,.44-1.53,34.66,34.66,0,0,0,.2-9.94c-2.06-.56-4.13-1.17-4.13-1.17l3.76-2.18c-.75-6-1.67-11.72.17-15.38a21.49,21.49,0,0,0-10.19,4l1.22,4.8-4.19-2.14a22.31,22.31,0,0,0-4.37,7.1c-.35.88-.66,1.78-.95,2.68l3.25,3-4-.3a65.22,65.22,0,0,0-1.83,12.49l2.61.83-2.7,1.47a67.43,67.43,0,0,0,.24,8l3.41,1.6a40.94,40.94,0,0,0,12.62-7.16Z"/><path class="cls-4" d="M199.76,89.08l-.42.65V88.59a19.75,19.75,0,0,0-2.53-2.35l-.88,1.38-.13-2.11A22.37,22.37,0,0,0,193.21,84L192.57,85V83.64a21,21,0,0,0-3.48-1.34,15,15,0,0,0,1.75,4.89l1.73.22-1.33.44a13,13,0,0,0,2.16,2.51l2.33-.63-1.2,1.54a15.68,15.68,0,0,0,2,1.19l.62-.52-.2.72A15.26,15.26,0,0,0,202,94l.38-.55A16,16,0,0,0,199.76,89.08Z"/><path class="cls-3" d="M196,70.53a19.56,19.56,0,0,1-.61,1.86,24.15,24.15,0,0,1-.88-2.48,20.79,20.79,0,0,0-4.75-1.16L189.09,72l-1.53-3.43A22.35,22.35,0,0,0,183,69l.74,3.4-3-2.83a25.57,25.57,0,0,0-3.93,1.54l.31,1.29-.94-1A23.3,23.3,0,0,0,172.18,74c.92.72,1.82,1.35,2.71,1.92l2.18-1.19L176,76.53a29,29,0,0,0,3.76,1.86l3.11-1.47-.6,2.34a22.17,22.17,0,0,0,4.29.78l2.12-2.27-.47,2.32a19.87,19.87,0,0,0,4.1-.45l3.08-3.31-.48,2.55a17.62,17.62,0,0,0,5.2-2.92l1.09-2.27A25.85,25.85,0,0,0,196,70.53Z"/><path class="cls-5" d="M211.27,114s-3.68-16.3-4.79-20.37-4.72-19-4.72-19L195.05,74h7.19s4.24,18.14,4.71,19.1S213.59,114,213.59,114Z"/><path class="cls-6" d="M214.07,114l2.39-22.29,9-3.12s-8.08,3.28-8.16,3.52-.4,21.89-.4,21.89Z"/><path class="cls-7" d="M213,114c0-.48.56-39.15.56-39.15l13.82-31.71-12.86,32L216,114Z"/><path class="cls-8" d="M211.75,114s-2.57-15-3.28-15.1-11.74-10.31-11.74-10.31L208.47,100l2.39,14Z"/><path class="cls-9" d="M214.55,114s2-15.77-10.23-48.58A160.05,160.05,0,0,1,212.63,114Z"/><path class="cls-10" d="M213.59,114s-1.36-20.77,3.27-30.2c0,0-3.46,9.67-1.73,30.2Z"/><path class="cls-11" d="M213,114s-1.36-19.81-4.32-25.41c0,0,2.28,8.19,3,25.41Z"/><path class="cls-9" d="M212.23,114s-.2-12-2.74-16.62c0,0,1.38,3.91,1.78,16.62Z"/><path class="cls-9" d="M214.55,114s1.36-13.66,2.31-18l-1.73,18Z"/><polygon class="cls-10" points="211.75 114.02 205.2 94 210.86 114.02 211.75 114.02"/><path class="cls-10" d="M211.27,114s-2.72-9.58-5.11-12.22c0,0,2.55,4.2,4.07,12.22Z"/><path class="cls-12" d="M46.22,23.61h137a4,4,0,0,1,4,4v82.49a4,4,0,0,1-4,4h-137a4,4,0,0,1-4-4V27.57A4,4,0,0,1,46.22,23.61Z"/><path class="cls-13" d="M187.2,27.57v1.79H42.26V27.57a4,4,0,0,1,4-4h137A4,4,0,0,1,187.2,27.57Z"/><path class="cls-13" d="M187.2,103.42v6.64a4,4,0,0,1-4,4h-137a4,4,0,0,1-4-4v-6.64Z"/><path class="cls-3" d="M182.39,109.62H66.16a.91.91,0,1,1,0-1.81H182.39a.91.91,0,1,1,0,1.81Z"/><path class="cls-14" d="M47.39,105.68v6.07a.28.28,0,0,0,.45.23l4.32-3.26a.28.28,0,0,0,0-.46l-4.31-2.81A.28.28,0,0,0,47.39,105.68Z"/><circle class="cls-14" cx="114.73" cy="66.39" r="28.23"/><rect class="cls-15" x="55.05" y="105.4" width="1.68" height="6.6" rx="0.75"/><circle class="cls-16" cx="114.73" cy="66.39" r="24.87"/><rect class="cls-15" x="57.57" y="105.4" width="1.68" height="6.6" rx="0.75"/><circle class="cls-14" cx="85.84" cy="108.72" r="2.93"/><circle class="cls-15" cx="85.84" cy="108.72" r="1.9"/><circle class="cls-14" cx="47" cy="26.49" r="1.31"/><path class="cls-17" d="M47.54,26.49a.55.55,0,0,1-1.09,0,.55.55,0,1,1,1.09,0Z"/><circle class="cls-16" cx="51.58" cy="26.49" r="1.31"/><path class="cls-17" d="M52.12,26.49a.54.54,0,0,1-.54.54.55.55,0,0,1-.55-.54.55.55,0,0,1,.55-.55A.55.55,0,0,1,52.12,26.49Z"/><circle class="cls-3" cx="56.16" cy="26.49" r="1.31"/><path class="cls-17" d="M56.71,26.49a.55.55,0,0,1-1.09,0,.55.55,0,1,1,1.09,0Z"/><path class="cls-13" d="M105.93,52.51V82.2a1.37,1.37,0,0,0,2.2,1.1l21.12-15.94a1.38,1.38,0,0,0-.08-2.25L108.06,51.36A1.38,1.38,0,0,0,105.93,52.51Z"/><path class="cls-18" d="M36.09,50.41l.25.24s1.7,8.43,1.8,8.58,1.34-7.76,1.34-7.76,2.54,1.17,3,1.85c0,0-1.43,12.66-1.5,12.81s-1,.33-1.08.34-5-6.12-5-6.12Z"/><path class="cls-19" d="M34.64,123.94s2.6,3,2.69,3.23v.24a5,5,0,0,1-2.69-.2c-1-.52-.83-.62-.83-.62l-.22-2.81Z"/><path class="cls-19" d="M35.19,116.82a21.56,21.56,0,0,0,2,2.75c.31.13.19.28.19.28a2.36,2.36,0,0,1-1.87.12,10.91,10.91,0,0,1-1.52-.9l.25-2.63Z"/><path class="cls-17" d="M38.61,93.12c0,.46-2.55,21.34-2.84,23.76a1.17,1.17,0,0,0,0,.22s-1.47.6-2.23-.21c0,0,0-2.45.09-5.71.09-6.36.24-15.78.24-16S32.64,92,31.44,89,29,82.87,29,82.87l.14-4.31.18-5.78,3.31-2,2,2.22S38.61,92.64,38.61,93.12Z"/><path class="cls-20" d="M31.92,80.28a25,25,0,0,0-1,4.24L31.44,89c-1.21-3-2.43-6.08-2.43-6.08l.14-4.31,2.72-2S32.4,79.24,31.92,80.28Z"/><path class="cls-20" d="M35.77,116.88a1.17,1.17,0,0,0,0,.22s-1.47.6-2.23-.21c0,0,0-2.45.09-5.71Z"/><path class="cls-17" d="M32.05,74.19s-.28,4.61-.66,5.21-1.19,2.33-1.19,2.33.82,16.39.87,17.2,4.29,24.9,4.29,24.9-1.31,1.36-2.23.65c0,0-6.08-22.19-6.35-22.78s-5.48-17.91-6-18.29-2.17-5.68-2.39-7.26c.27-.12,8-.71,8-.71Z"/><path class="cls-17" d="M44.65,66.47a.38.38,0,0,1-.38-.36l-.41-9a.69.69,0,0,0-.13-.36l-2.57-3.55a.37.37,0,0,1,.08-.53.38.38,0,0,1,.53.09l2.58,3.54a1.43,1.43,0,0,1,.27.77l.42,9a.39.39,0,0,1-.37.4Z"/><path class="cls-14" d="M37.51,73.57a40,40,0,0,0-5.64,1.71c-1.31.7-.23,2.22-2.83,2.47S21.33,76,19.62,76.48a5.71,5.71,0,0,0-2.09.89s-.3-3.59-.24-8.23c0-.63,0-1.29.05-2,.05-1.33.13-2.7.26-4.08a44.29,44.29,0,0,1,1.1-6.66c.16-.62.34-1.21.54-1.78,2.91-8.42,4.87-9.56,5.12-9.68a59.28,59.28,0,0,1,5.72,1.81l2.34,1.33s3.67,2.16,3.67,2.29-1,10.22,0,15l.29,1.41a2.88,2.88,0,0,0-.22.48C36.15,67.45,37.51,73.57,37.51,73.57Z"/><path class="cls-21" d="M36.22,47.55s.24-1.43,1.29-1.38L42.11,52l-1.52,1.28Z"/><path class="cls-22" d="M37.83,49.62s.09,1.82.3,1.85a11.14,11.14,0,0,0,3-1.06,13.24,13.24,0,0,0-1.42-2.29l-1.1.19Z"/><path class="cls-23" d="M27.72,67.55,25.8,68.81l-1.2.88-2.67-.88-2.05,2.35-2.59-2c0-.63,0-1.29.05-2l.86-.71,8.69.66Z"/><path class="cls-23" d="M24.6,55.5c-.47,1.17-5.1,5.75-7,7.6a44.29,44.29,0,0,1,1.1-6.66l6.12-6S25.2,54,24.6,55.5Z"/><polygon class="cls-13" points="40.73 53.2 41.14 53.49 42.21 52.65 42.02 52.12 40.73 53.2"/><path class="cls-14" d="M16.83,61c.17.18,5.63,5.21,5.63,5.21s-1.2,2.65-2.05,3.23c0,0-6.46-3.57-8.83-7.13v-.5S22,45.07,24.36,45c0,0,1.26,7.43-.41,9.78C24,54.76,16.65,60.8,16.83,61Z"/><path class="cls-24" d="M22.46,66.18l-.1.21c-.15.32-.46.94-.81,1.54a5.34,5.34,0,0,1-1.14,1.48,3.94,3.94,0,0,1,.69-1.65,9,9,0,0,1,1.15-1.38Z"/><circle class="cls-13" cx="44.19" cy="56.91" r="1.09"/><path class="cls-22" d="M25.08,68.31c.06.12,1.41.25,1.43.37a13.37,13.37,0,0,1-2.28.25l-2.68-1-.45-.17a9,9,0,0,1,1.15-1.38h.11a12.69,12.69,0,0,0,1.37.19c.18,0,2.6-.45,2.76-.4a10.71,10.71,0,0,1,1.62.65C28.14,66.93,25,68.18,25.08,68.31Z"/><path class="cls-22" d="M33.66,45.67,33,46.78l-.57,1.34-.36,0-.26,0a2.22,2.22,0,0,1-1-.57l-.68-.67,1.82-2.57,1.69,1.39Z"/><path class="cls-25" d="M33.66,45.67,33,46.78l-.57,1.34-.36,0-.26,0a5.25,5.25,0,0,1,.52-.81c.31-.34,0-1.33,0-1.33l1.27-.28Z"/><path class="cls-22" d="M35.65,42.94s-.68,2.11-1.07,3a1.18,1.18,0,0,1-1.8.7c-.78-.57-.43-1.86-.43-1.86L31,44.29l.19-3,3.83-.66S35.9,42.18,35.65,42.94Z"/><path class="cls-17" d="M32.61,43.06s0-.84-.54-.84-.72,1.72.39,1.94l-.11.64-1,.77s-1.63-3.79-1.74-4.15,3.08-4.37,6.25-1.77l.11.42s.13,0,.18,0,.37,2.35.37,2.68-1.18,1-1.18,1A4.65,4.65,0,0,1,35,42.17l-2.13.64-.06.33Z"/><path class="cls-23" d="M31.4,75.3V70.47S32.58,74.69,31.4,75.3Z"/><path class="cls-20" d="M34.26,94.62c.27,1.41,2.57-.55,2.57-.55Z"/><path class="cls-22" d="M179.78,75.13s-2.43.6-2.31.78.9,0,.9,0-1.91,1.65-1.76,1.91,2.21.38,2.21.38l1.83-2.44Z"/><path class="cls-19" d="M197,119.06a3.1,3.1,0,0,1-1.29,2c-.95.44-1.14.39-1.17.73,0,0,2.62.86,2.93.91a6.11,6.11,0,0,0,1.4-.21l-.38-3.74Z"/><path class="cls-17" d="M198,83.22s.39,5.56.76,8.54c.07.61.14,1.12.21,1.44.4,1.86,4.54,14.35,4.67,14.74h0c2.48.26,2.29-3.44,2.29-3.44s-3.3-11.69-3.31-12.61,1.9-7,3.9-11S208,71.62,208,71.62l-4.92-1.68-1.3,3.42Z"/><path class="cls-20" d="M198,83.22s.39,5.56.76,8.54c0,0,1.66-7.1,2.22-8.15s3.13-5.22,1.6-8.7a9.3,9.3,0,0,0-.85-1.55Z"/><path class="cls-17" d="M198.86,119.57s-2,.77-3,.37c0,0-2.85-21.43-3-23.16s-1.1-20.61-1.25-21.26-.69-2.23-.69-2.23l11.73-1.44s.46,6.47-1.6,10.14-3.5,13-3.43,14.9S198.86,119.57,198.86,119.57Z"/><path class="cls-18" d="M202.22,48c1.31,1.82,4.48,9.9,6.33,20.15,1.06-2.95,2.45-7.64,1.47-9.57C208.69,55.94,203.31,49.32,202.22,48Z"/><polygon class="cls-22" points="192.03 44.74 192.03 45.84 192.33 46.34 192.91 47.29 195.29 47 193.72 44.35 192.03 44.74"/><path class="cls-14" d="M209,70.77c.07.45-6.4,4.42-11.12,3.33a23.6,23.6,0,0,0-9.44,0,11,11,0,0,0,2.48-5.76,6.81,6.81,0,0,0-.16-2.09c-.29-1.21-.71-2.92-1.17-4.75h0c-.46-1.85-.94-3.83-1.35-5.54s.16-1.83,0-2.61a5.9,5.9,0,0,1,0-1,43.2,43.2,0,0,1,.64-4.32,30.86,30.86,0,0,1,5.32-1.17c1.35-.18,6.58-.36,7.83.94h0a2.67,2.67,0,0,1,.18.23h0c1.31,1.81,4.48,9.89,6.33,20.14C208.71,69,208.86,69.88,209,70.77Z"/><path class="cls-20" d="M203.66,107.94h0a2,2,0,0,0,.71,0c1.06-.27,1.41-1.48,1.53-2.38a6.68,6.68,0,0,0,0-1,5,5,0,0,0-.5.26,4.17,4.17,0,0,0-1.55,1.49A2.39,2.39,0,0,0,203.66,107.94Z"/><path class="cls-25" d="M192,45v.83l.3.5a1.56,1.56,0,0,0,.29-1.22Z"/><path class="cls-22" d="M190.94,41.56a23.78,23.78,0,0,0-.18,2.55c0,1,.12,1.77,1,1.79s1-1.18,1-1.18l1.45-.1V42.31a21.92,21.92,0,0,0-1.71-1.43C192.41,40.92,191,40.86,190.94,41.56Z"/><path class="cls-26" d="M192,67.59l-1.12.74a6.81,6.81,0,0,0-.16-2.09c-.29-1.21-.71-2.92-1.17-4.75h0c-.46-1.85-.94-3.83-1.35-5.54a9,9,0,0,1,0-1c.12-.18,3.34-4.25,3.34-4.25A16.71,16.71,0,0,1,194,57C194.27,60.15,192,67.59,192,67.59Z"/><path class="cls-17" d="M192.38,43.73s.07-1,.54-.86.3,1.45-.27,1.48l.86,1.35,1.09.12s2.24-1.58,2.26-3.33l-2.24-2.42-.43.46v-.64l-1.14-.71-.37.92,0-.92-2.06-.4.27,3.52.22-.22s-.16.68.41.71.73.89.73.89Z"/><path class="cls-14" d="M188.87,48a14.81,14.81,0,0,0-1.67,4.72c-.1,1.84-.72,11.82-.9,12.53s-7,9.9-7,9.9.37,1.56,1.38,1.65l9.9-10L193.1,57S193.18,50,188.87,48Z"/><path class="cls-19" d="M203.66,112c.57,1.22,3.89-3.24,3.05-5.11l-.81-1.37-.45-.75a4.17,4.17,0,0,0-1.55,1.49,11.05,11.05,0,0,1,.47,1.64,1.3,1.3,0,0,1,0,.68C204.15,109.19,203.09,110.77,203.66,112Z"/><path class="cls-26" d="M186.3,65.23l1.93-.38A1.37,1.37,0,0,0,186.3,65.23Z"/><path class="cls-15" d="M39.46,27.55c0-2.85-3.39-5.2-7.66-5.26S24.05,24.5,24,27.35s3.39,5.2,7.66,5.26a10.6,10.6,0,0,0,4.44-.88,2.1,2.1,0,0,1,0,1.83s1.36-1.1.9-2.29h0A4.57,4.57,0,0,0,39.46,27.55Z"/><path class="cls-1" d="M29.91,25.27a1.85,1.85,0,0,1,1.83,1.88,1.86,1.86,0,0,1,1.88-1.84h.11A1.51,1.51,0,0,1,34.58,28l-2.89,2.55-2.82-2.62a1.51,1.51,0,0,1,.93-2.62Z"/></g></g></svg>