<svg xmlns="http://www.w3.org/2000/svg" viewBox="0 0 279.24 217.95"><defs><style>.cls-1{fill:#f3eff8;}.cls-2{fill:#eff0f8;}.cls-3{fill:#c4e8ef;}.cls-4{fill:#a8cfef;}.cls-5{fill:#c9c2f8;}.cls-6{fill:#e6e9f8;}.cls-7{fill:#adadea;}.cls-8{fill:#393768;}.cls-9{fill:#cce9f1;}.cls-10{fill:#e6e6e6;}.cls-11{fill:#c8e9f8;}.cls-12{fill:#f2f2f2;}.cls-13{fill:#5d7def;}.cls-14{fill:#80a0ef;}.cls-15{fill:#8ab4ef;}.cls-16{isolation:isolate;}.cls-17{fill:#edb6a4;}.cls-18{fill:#a8beef;}.cls-19{fill:#e0a494;}.cls-20{fill:#7ea3ef;}.cls-21{opacity:0.05;}.cls-22{fill:#f1f1f2;}.cls-23{opacity:0.1;}.cls-24{fill:#dcdff8;}.cls-25{opacity:0.06;}.cls-26{opacity:0.03;}</style></defs><title>9</title><g id="Capa_2" data-name="Capa 2"><g id="Capa_1-2" data-name="Capa 1"><g id="Heart_Post_Comment" data-name="Heart Post Comment"><path class="cls-1" d="M75.69,22.24c0,.05,0,.1,0,.15a6.39,6.39,0,0,1-5.56,7A196.24,196.24,0,0,1,18,29.31a6.47,6.47,0,0,1-5.53-5.57,13.44,13.44,0,0,1-.06-3A13.71,13.71,0,0,1,30.86,9.14a17.81,17.81,0,0,1,32.78,4.13,10.1,10.1,0,0,1,1.65-.12A10.75,10.75,0,0,1,75.69,22.24Z"/><path class="cls-1" d="M175.65,31.21s0,.07,0,.11a4.88,4.88,0,0,0,4.25,5.36,150.17,150.17,0,0,0,40-.06,5,5,0,0,0,4.23-4.26,10.9,10.9,0,0,0,0-2.29A10.51,10.51,0,0,0,210,21.17a13.65,13.65,0,0,0-25.12,3.16,7.6,7.6,0,0,0-1.27-.08A8.21,8.21,0,0,0,175.65,31.21Z"/><path class="cls-2" d="M169.51,158.89c-58.32-8.21-90.23-8.49-139.82,2s-30.37,39.67,8.76,38.62,29.63,15.29,64,18.1,79-14.12,122-11.85,75.3-12.83,39.26-14.95C228.27,188.75,169.51,158.89,169.51,158.89Z"/><path class="cls-3" d="M224.24,138.67c-6.3-7.23-4.64-11.85-4.45-18.37s-12.26-10.93-13.4-9,10.38,6.66,5.22,15.94-11.07,7.29-9.48,17.42,9.25,18.88,7.61,23,19.58,21.61,20.66,15.52S224.24,138.67,224.24,138.67Z"/><path class="cls-4" d="M231.23,171.2s-1.57-7-7-11.15-10.57-13.9-5.48-21.34,10.18-15.65,8.42-22.89,5.48-10,6.46-18.6,3.32-.78,1.56,4.5,11.55,23.29,11.55,32.49-2.35,27.4-7.83,31.51S231.23,171.2,231.23,171.2Z"/><path class="cls-3" d="M230.64,167.29c1.89-5,3.64-10.14,5.12-15.34a63.67,63.67,0,0,0,2.77-16,41.67,41.67,0,0,0-2.89-16,68.31,68.31,0,0,1-2.4-7.64,29.14,29.14,0,0,1-.75-3.92,13.28,13.28,0,0,1-.06-2,3.2,3.2,0,0,1,.56-1.88,3.19,3.19,0,0,0-.79,1.85,12.7,12.7,0,0,0-.12,2,29.09,29.09,0,0,0,.41,4.06,68.23,68.23,0,0,0,2,7.87A45.55,45.55,0,0,1,237,135.89a75.84,75.84,0,0,1-2.37,15.76c-.59,2.61-1.29,5.21-2,7.81S231.26,164.66,230.64,167.29Z"/><path class="cls-3" d="M235.14,183.53s3.71-9,12.22-9.59,15.77-.46,20.1-7.42,1.71-9.44.78-15.16,1.39-9.74,8.2-7c2.78,1.08-3.87-9.9-12.84-6S254,154.14,249.52,156s-21.34,6-21,16.86S235.14,183.53,235.14,183.53Z"/><path class="cls-5" d="M136,163.41l1.47,16.44,1.19,13.1H263s5.32-5.32-13.29-11.22-13.58-26.9-29.54-28.95-20.38,4.13-31,15.65S161.36,173.75,136,163.41Z"/><path class="cls-6" d="M137.43,179.85l1.33,13.1H244.37l1-.37c-15.63-8.64-50.86-10.64-67-7.75s-40.43-5.32-40.43-5.32Z"/><path class="cls-7" d="M144.56,191.38l.46.3c4.21-6.46,4.69-9.41,5-11.36a5.88,5.88,0,0,1,2.28-4.25c4.33-4,5.42-6.77,5.46-6.88l-.51-.2s-1.1,2.75-5.33,6.68a6.39,6.39,0,0,0-2.44,4.56C149.18,182.13,148.71,185,144.56,191.38Z"/><path class="cls-8" d="M157,166.73c-.41.92.49,2.72.49,2.72s1.95-.53,2.36-1.45a1.58,1.58,0,1,0-2.85-1.27Z"/><path class="cls-7" d="M157.89,166.53s.08,0,.09,0l.36.83.42-.92a.07.07,0,1,1,.12.06l-.74,1.64,1.08-.08a.07.07,0,0,1,.07.06s0,.07-.06.08l-1.15.08-.52,1.15s-.05.05-.09,0a.07.07,0,0,1,0-.09l.83-1.85-.41-.95A.07.07,0,0,1,157.89,166.53Z"/><path class="cls-8" d="M152.6,170.89c.12,1,1.83,2.07,1.83,2.07s1.39-1.46,1.27-2.46a1.58,1.58,0,1,0-3.1.39Z"/><path class="cls-7" d="M153.25,170.27a.06.06,0,0,1,.09,0l.75.53-.13-1s0-.07.06-.07.07,0,.08.06l.22,1.79.88-.63a.07.07,0,1,1,.08.11l-.94.67.19,1.42s0,.08-.06.08a.08.08,0,0,1-.08-.06l-.28-2.18-.84-.6A.06.06,0,0,1,153.25,170.27Z"/><path class="cls-8" d="M157.58,174.62c-1-.06-2.19-1.69-2.19-1.69s1.36-1.49,2.37-1.43a1.58,1.58,0,1,1-.18,3.12Z"/><path class="cls-7" d="M158.16,173.93a.09.09,0,0,0,0-.1l-.58-.71,1,.06a.07.07,0,0,0,.07-.06.09.09,0,0,0-.06-.08l-1.8-.1.57-.92a.06.06,0,0,0,0-.09.07.07,0,0,0-.09,0l-.61,1-1.43-.09s-.07,0-.07.06a.06.06,0,0,0,.06.07l2.2.14.65.81A.08.08,0,0,0,158.16,173.93Z"/><path class="cls-8" d="M145.93,182.58c.51.87,2.5,1.16,2.5,1.16s.69-1.89.18-2.76a1.58,1.58,0,1,0-2.68,1.6Z"/><path class="cls-7" d="M146.27,181.75a.06.06,0,0,1,.08-.05l.89.18-.51-.87a.07.07,0,0,1,0-.09.08.08,0,0,1,.1,0l.92,1.55.55-.93a.07.07,0,0,1,.09,0,.06.06,0,0,1,0,.09l-.59,1,.74,1.23a.08.08,0,0,1,0,.1.07.07,0,0,1-.1,0L147.34,182l-1-.21A.07.07,0,0,1,146.27,181.75Z"/><path class="cls-8" d="M150.93,186.62c-1,0-2.32-1.5-2.32-1.5s1.24-1.59,2.25-1.62a1.58,1.58,0,1,1,.07,3.12Z"/><path class="cls-7" d="M151.45,185.89a.07.07,0,0,0,0-.1l-.63-.66,1,0a.07.07,0,0,0,.07-.07.08.08,0,0,0-.07-.07L150,185l.5-1a.07.07,0,0,0,0-.09s-.08,0-.09,0l-.53,1-1.44,0a.07.07,0,0,0-.06.07.07.07,0,0,0,.07.07l2.2,0,.71.75A.08.08,0,0,0,151.45,185.89Z"/><path class="cls-8" d="M147.41,177c.44.9,2.41,1.35,2.41,1.35s.83-1.83.38-2.74a1.58,1.58,0,1,0-2.79,1.39Z"/><path class="cls-7" d="M147.81,176.24a.07.07,0,0,1,.09-.05l.87.25-.44-.9a.07.07,0,0,1,0-.1.07.07,0,0,1,.09,0l.8,1.61.62-.88a.07.07,0,1,1,.11.08l-.66.94.64,1.28s0,.08,0,.09a.06.06,0,0,1-.09,0l-1-2-1-.29A.07.07,0,0,1,147.81,176.24Z"/><path class="cls-8" d="M153.28,179.22c-1,.12-2.44-1.29-2.44-1.29s1.09-1.69,2.09-1.81a1.58,1.58,0,1,1,.35,3.1Z"/><path class="cls-7" d="M153.73,178.45a.07.07,0,0,0,0-.1l-.69-.6,1-.11a.08.08,0,0,0,.07-.08.09.09,0,0,0-.08-.06l-1.79.2.41-1a.09.09,0,0,0,0-.09.08.08,0,0,0-.09,0l-.44,1.07-1.42.15a.06.06,0,0,0-.06.07.06.06,0,0,0,.07.06l2.19-.23.78.68A.06.06,0,0,0,153.73,178.45Z"/><path class="cls-9" d="M144.48,178.27a16.86,16.86,0,0,1-2.25,6.42c-1.54,3-1.57,1.9-.23,3.16s1.2,4.75,1.2,4.75a8.55,8.55,0,0,0,.88.72l.21.14c.36.22.71.35.9.16a6.42,6.42,0,0,1,3.17-1.75c1.57-.29,1-2.25,3-3.6s3.26-2.3,1.49-3.22l-.15-.06a1.79,1.79,0,0,0-1,0,2.57,2.57,0,0,0-.5.15l-.27.1-.13.05a11.33,11.33,0,0,0-1.27.69,22.33,22.33,0,0,0-1.93,1.38c-.55.45-.92.78-.92.78s0-.1,0-.25h0a3,3,0,0,1,1-2,2.37,2.37,0,0,1,.3-.23l.59-.41h0s0,0,0,0a1.09,1.09,0,0,0,.17-.13,1,1,0,0,0,.42-.61.68.68,0,0,0-.12-.49,3,3,0,0,0-.4-.51l-.14-.15-.05-.05a1.71,1.71,0,0,1-.37-1.11,2,2,0,0,1,0-.25c0-.41,0-.89,0-1.4a19.52,19.52,0,0,0,0-2.74,8.44,8.44,0,0,0-.27-1.4h0l0-.1a6.46,6.46,0,0,0-.39-1,5.14,5.14,0,0,0-.46-.78C144.72,171.21,144.92,175.64,144.48,178.27Z"/><path class="cls-8" d="M145.59,176.57a14,14,0,0,1,.37,4c0,.08,0,.16,0,.23,0,.56,0,1.12-.09,1.67-.07.86-.17,1.71-.27,2.56-.18,1.4-.41,2.8-.67,4.2s-.52,2.75-.84,4.11l.21.14c.42-.55.86-1.1,1.3-1.65s.91-1.08,1.38-1.6,1-1,1.49-1.5a7.11,7.11,0,0,1,1.71-1.22,6.65,6.65,0,0,0-1.77,1.15c-.54.46-1.06,1-1.55,1.46-.85.9-1.66,1.82-2.42,2.8.1-.47.21-.94.31-1.41,0-.19.09-.39.13-.59l.33-1.64c.25-1.4.46-2.81.63-4.22.09-.77.17-1.53.21-2.3s.07-1.3.07-2c0-.14,0-.27,0-.41a16.37,16.37,0,0,0-.09-1.72A9.82,9.82,0,0,0,145.59,176.57Z"/><path class="cls-7" d="M223.25,195.54l-1,.14c-2-13.81-.59-19,.36-22.48.76-2.76,1.22-4.42-.54-8.7-4.09-9.91-3.8-15.24-3.78-15.46l1,.07s-.28,5.34,3.7,15c1.9,4.59,1.38,6.48.59,9.34C222.66,176.84,221.25,181.93,223.25,195.54Z"/><path class="cls-8" d="M221.41,145.57c0,1.82-2.86,4.1-2.86,4.1s-2.8-2.33-2.78-4.15a2.86,2.86,0,1,1,5.64,0Z"/><path class="cls-7" d="M220.12,144.58a.14.14,0,0,0-.18,0l-1.23,1.1,0-1.82a.13.13,0,0,0-.12-.13.13.13,0,0,0-.13.13l0,3.26-1.71-1a.13.13,0,1,0-.12.22l1.83,1,0,2.28a.12.12,0,0,0,.12.13.13.13,0,0,0,.13-.13l0-3.66,1.4-1.25A.14.14,0,0,0,220.12,144.58Z"/><path class="cls-8" d="M225.53,155.75c-1,1.55-4.58,2-4.58,2s-1.19-3.44-.22-5a2.86,2.86,0,1,1,4.8,3Z"/><path class="cls-7" d="M224.93,154.24a.12.12,0,0,0-.15-.1l-1.62.3,1-1.55a.12.12,0,0,0,0-.17.12.12,0,0,0-.17,0l-1.72,2.77-1-1.7a.12.12,0,0,0-.17,0,.12.12,0,0,0-.05.16l1,1.82-1.39,2.2a.12.12,0,0,0,0,.17.12.12,0,0,0,.17,0l2.12-3.37,1.84-.35A.12.12,0,0,0,224.93,154.24Z"/><path class="cls-8" d="M214.52,158.12c1.7.66,4.88-1.13,4.88-1.13s-1.12-3.47-2.82-4.13a2.86,2.86,0,1,0-2.06,5.26Z"/><path class="cls-7" d="M214.09,156.55a.12.12,0,0,1,.06-.17l1.48-.73-1.71-.66a.14.14,0,0,1-.07-.16.12.12,0,0,1,.17-.07l3,1.18-.24-1.94a.12.12,0,0,1,.11-.13.12.12,0,0,1,.14.1l.26,2.08,2.42.93a.11.11,0,0,1,.07.16.13.13,0,0,1-.16.07l-3.71-1.44-1.68.83A.13.13,0,0,1,214.09,156.55Z"/><path class="cls-8" d="M227.67,180c-1.51,1-5,0-5,0s.3-3.64,1.8-4.67a2.86,2.86,0,1,1,3.21,4.65Z"/><path class="cls-7" d="M227.73,178.4a.13.13,0,0,0-.1-.15l-1.6-.37,1.5-1a.12.12,0,0,0,0-.17.13.13,0,0,0-.17,0l-2.69,1.85-.2-1.94a.12.12,0,0,0-.14-.11.12.12,0,0,0-.11.13l.22,2.08-2.15,1.46a.12.12,0,0,0,0,.17.12.12,0,0,0,.17,0l3.29-2.24,1.83.42A.12.12,0,0,0,227.73,178.4Z"/><path class="cls-8" d="M216.38,182.9c1.64.8,5-.73,5-.73s-.84-3.55-2.48-4.35a2.86,2.86,0,1,0-2.47,5.08Z"/><path class="cls-7" d="M216.08,181.3a.11.11,0,0,1,.07-.16l1.53-.61-1.64-.8a.13.13,0,0,1-.06-.17.13.13,0,0,1,.17-.05l2.93,1.43-.09-2a.14.14,0,0,1,.12-.13.12.12,0,0,1,.13.12l.09,2.09,2.35,1.12a.14.14,0,0,1,.06.17.13.13,0,0,1-.17.05L218,180.68l-1.74.69A.13.13,0,0,1,216.08,181.3Z"/><path class="cls-8" d="M229.42,169.79c-1.42,1.15-5,.41-5,.41s0-3.65,1.44-4.8a2.86,2.86,0,1,1,3.55,4.39Z"/><path class="cls-7" d="M229.36,168.17a.13.13,0,0,0-.11-.15l-1.63-.24,1.42-1.15a.14.14,0,0,0,0-.18.12.12,0,0,0-.17,0l-2.54,2.05-.36-1.93a.11.11,0,0,0-.14-.09.12.12,0,0,0-.1.14l.38,2-2,1.62a.13.13,0,0,0,0,.18.12.12,0,0,0,.17,0l3.11-2.49,1.85.28A.14.14,0,0,0,229.36,168.17Z"/><path class="cls-8" d="M218.1,169c1.57.94,5-.29,5-.29s-.52-3.61-2.08-4.55A2.86,2.86,0,1,0,218.1,169Z"/><path class="cls-7" d="M217.94,167.33a.13.13,0,0,1,.09-.16l1.58-.47-1.57-.94a.14.14,0,0,1,0-.17.12.12,0,0,1,.17,0l2.8,1.68.08-1.95a.13.13,0,0,1,.25,0l-.09,2.09,2.23,1.32a.13.13,0,0,1,.05.17.13.13,0,0,1-.17,0l-3.42-2-1.8.53A.13.13,0,0,1,217.94,167.33Z"/><path class="cls-9" d="M233.3,174c-1.25,4.66-1.45,6.22-1.15,12.26s1.14,4.31-2,5.37-5.58,6.9-5.58,6.9a14.29,14.29,0,0,1-2,.53l-.45.07c-.75.09-1.44,0-1.6-.43a11.57,11.57,0,0,0-3.9-5.26c-2.36-1.68,0-4.48-2.22-8.21s-3.62-6.23,0-6.42h.28a3.28,3.28,0,0,1,1.71.76,5.84,5.84,0,0,1,.71.63q.18.17.36.36l.18.2a19.25,19.25,0,0,1,1.56,2.09,38.3,38.3,0,0,1,2.13,3.73c.57,1.15.92,2,.92,2a3.33,3.33,0,0,0,.17-.4h0a5.51,5.51,0,0,0-.18-4.17,5.83,5.83,0,0,0-.32-.6c-.27-.42-.49-.8-.66-1.13,0,0,0,0,0,0a0,0,0,0,1,0,0,2.79,2.79,0,0,1-.18-.34,2,2,0,0,1-.24-1.33,1.38,1.38,0,0,1,.58-.72,5.84,5.84,0,0,1,1-.53l.35-.13.11,0a3.17,3.17,0,0,0,1.46-1.55c.07-.13.15-.26.21-.4.34-.67.67-1.46,1-2.33a35.8,35.8,0,0,1,2.14-4.45,16.27,16.27,0,0,1,1.5-2.12h0a1.5,1.5,0,0,0,.11-.13,11.92,11.92,0,0,1,1.4-1.35,9.27,9.27,0,0,1,1.35-.94C238.24,162.24,234.56,169.38,233.3,174Z"/><path class="cls-8" d="M232.77,170.4a25,25,0,0,0-3.62,6.27c-.06.13-.12.25-.17.38-.4.93-.76,1.87-1.11,2.82-.53,1.46-1,2.93-1.49,4.42-.77,2.44-1.45,4.92-2.07,7.4s-1.23,4.93-1.73,7.41l-.45.07c-.27-1.23-.58-2.47-.9-3.7s-.67-2.46-1.06-3.67-.82-2.42-1.32-3.6a12.76,12.76,0,0,0-1.88-3.31,12.36,12.36,0,0,1,2,3.25,33.12,33.12,0,0,1,1.44,3.56c.73,2.12,1.36,4.26,1.88,6.44q.25-1.27.54-2.55l.24-1.07c.23-1,.46-2,.7-3,.65-2.48,1.36-5,2.15-7.41.43-1.33.88-2.65,1.39-4,.43-1.1.88-2.19,1.36-3.26.1-.23.2-.45.31-.66.45-.95.93-1.88,1.46-2.77A16.63,16.63,0,0,1,232.77,170.4Z"/><path class="cls-10" d="M106.24,199.69s2.55-8.6,6-8.6,8.55-11.18,12.73-11.18,7.91,6.36,13.33,6.36,10.11,6.44,13.77,6.44,5.44-6.15,10.63-6.15,11.08,13.13,11.08,13.13Z"/><path class="cls-11" d="M125.71,190.47c-2.44,2.3-10-7.2-18.19-8.63s0-7.89.68-12.17-7-8.3-5.74-11.92,5.58-3.81,8.19.82.73-4.28,3.12-4.7,5.33,13.39,7.55,11,3.4-9.92,6.54.52S131,185.51,125.71,190.47Z"/><path class="cls-12" d="M113.37,178.09l.34-.74c3,2.28,7.28,2.36,8.68,2.32-1-3.2-2.25-6.26-3.65-7.87a35.86,35.86,0,0,0-4.88-4.39c-.83-.66-1.67-1.34-2.5-2-.69.21-2.83.75-3.48-.18l.5-.58c.22.32,1.21.3,2.21.08a20.67,20.67,0,0,1-4.47-5.66l.54-.49c2,3.72,4.8,6,7.55,8.15l.38.31c.39-.42,1.32-1.72.67-4.19l.62-.27a5.4,5.4,0,0,1-.71,4.92,30.41,30.41,0,0,1,4,3.71,13.78,13.78,0,0,1,1.86,3c.88-.7,3.71-3.22,3.74-7h.66a10.09,10.09,0,0,1-3.46,7.23c-.24.22-.45.39-.6.51,2.62,6,4.28,15.16,4.36,15.65l-.64.19c0-.09-.94-5.2-2.45-10.25C121.52,180.58,116.74,180.67,113.37,178.09Z"/><path class="cls-4" d="M132.89,189.09c-3.7.8-7-17.29-13.93-20.23-10.4-4.4.72-11.3,3.37-15.55s-4.26-14.3-1.28-17.4,7.86-.22,8.77,6.81,2.66-4.24,5.49-3,.19,18.76,3.68,17.72,8-8.6,7.06,5.29S140.87,187.36,132.89,189.09Z"/><path class="cls-6" d="M124.48,166.42l.69-.58c2.33,4.68,7.09,7.87,8.66,8.83.25-4.29.18-8.59-.68-11.39a60.51,60.51,0,0,0-3.55-8.4c-.64-1.34-1.29-2.7-1.9-4.08-.86-.27-3.48-1.21-3.79-2.72l.79-.28c.11.52,1.23,1.2,2.44,1.68a34.12,34.12,0,0,1-2.56-9.53l.82-.14c.59,5.55,2.78,10.1,4.9,14.5l.3.62c.61-.18,2.2-1,2.53-4.18l.82.15c-.36,3.43-2,4.59-2.9,5a52.52,52.52,0,0,1,2.86,7,21.15,21.15,0,0,1,.77,4.71c1.29-.14,5.52-.92,7.18-5.1l.73.49a9.1,9.1,0,0,1-7,5.55,8.68,8.68,0,0,1-.89.13c.36,8.55-1.74,20-1.85,20.57l-.8-.25c0-.11,1.19-6.46,1.67-13.17C132.48,175.07,127.11,171.71,124.48,166.42Z"/><path class="cls-5" d="M120,199.69s5.87-17.36,16.72-17.36,10.59,11.6,17.16,11.6,4.76-2.92,10.41-2.92,9.49,8.68,9.49,8.68Z"/><path class="cls-7" d="M91.05,188l.57.09c1.17-8,.34-11-.21-13a6.18,6.18,0,0,1,.31-5c2.36-5.71,2.19-8.78,2.18-8.91l-.57,0s.16,3.08-2.13,8.65a6.73,6.73,0,0,0-.34,5.39C91.4,177.26,92.21,180.19,91.05,188Z"/><path class="cls-8" d="M92.11,159.24c0,1,1.65,2.37,1.65,2.37s1.61-1.35,1.61-2.4a1.65,1.65,0,1,0-3.26,0Z"/><path class="cls-7" d="M92.86,158.67a.08.08,0,0,1,.1,0l.71.63v-1.05a.07.07,0,1,1,.14,0l0,1.88,1-.55a.09.09,0,0,1,.1,0,.07.07,0,0,1,0,.1l-1.05.58v1.32a.07.07,0,1,1-.14,0l0-2.11-.81-.72A.09.09,0,0,1,92.86,158.67Z"/><path class="cls-8" d="M89.74,165.11c.56.89,2.64,1.17,2.64,1.17s.68-2,.13-2.89a1.65,1.65,0,1,0-2.77,1.72Z"/><path class="cls-7" d="M90.09,164.24a.06.06,0,0,1,.08-.06l.93.17-.55-.89a.08.08,0,0,1,0-.1.08.08,0,0,1,.1,0l1,1.6.56-1a.08.08,0,0,1,.1,0,.07.07,0,0,1,0,.09l-.59,1.05.8,1.27a.07.07,0,1,1-.13.07l-1.21-1.94-1.07-.2A.07.07,0,0,1,90.09,164.24Z"/><path class="cls-8" d="M96.08,166.47c-1,.39-2.81-.64-2.81-.64s.65-2,1.63-2.39a1.65,1.65,0,1,1,1.18,3Z"/><path class="cls-7" d="M96.33,165.57a.08.08,0,0,0,0-.1l-.85-.42,1-.38a.09.09,0,0,0,0-.09.07.07,0,0,0-.1,0l-1.75.68.14-1.12s0-.07-.06-.08a.08.08,0,0,0-.08.07l-.15,1.19-1.4.54a.08.08,0,0,0,0,.09.1.1,0,0,0,.1,0l2.14-.83,1,.48A.07.07,0,0,0,96.33,165.57Z"/><path class="cls-8" d="M88.51,179.1c.87.59,2.88,0,2.88,0s-.17-2.1-1-2.69a1.65,1.65,0,1,0-1.85,2.68Z"/><path class="cls-7" d="M88.48,178.16a.07.07,0,0,1,0-.09l.93-.21-.87-.6a.07.07,0,0,1,.08-.12l1.55,1.07.12-1.12a.06.06,0,0,1,.08-.06s.06,0,.06.08l-.13,1.19,1.24.84a.08.08,0,0,1,0,.1.07.07,0,0,1-.1,0L89.62,178l-1.06.24A.06.06,0,0,1,88.48,178.16Z"/><path class="cls-8" d="M95,180.75c-.94.46-2.85-.42-2.85-.42s.48-2,1.43-2.5A1.64,1.64,0,1,1,95,180.75Z"/><path class="cls-7" d="M95.19,179.83a.08.08,0,0,0,0-.09l-.89-.35.95-.47a.07.07,0,0,0,0-.09.06.06,0,0,0-.09,0l-1.69.82.05-1.13a.08.08,0,0,0-.07-.07.08.08,0,0,0-.08.07l0,1.2-1.35.65a.07.07,0,1,0,.06.12l2.07-1,1,.4A.1.1,0,0,0,95.19,179.83Z"/><path class="cls-8" d="M87.5,173.2c.82.66,2.87.23,2.87.23s0-2.1-.82-2.76a1.65,1.65,0,1,0-2,2.53Z"/><path class="cls-7" d="M87.54,172.26s0-.07.06-.08l.94-.14-.82-.66a.07.07,0,0,1,0-.1.07.07,0,0,1,.1,0l1.46,1.19.2-1.11a.08.08,0,0,1,.09-.06.07.07,0,0,1,0,.09l-.21,1.18,1.17.93a.08.08,0,0,1,0,.1.07.07,0,0,1-.1,0l-1.79-1.43-1.07.16A.06.06,0,0,1,87.54,172.26Z"/><path class="cls-8" d="M94,172.71c-.9.55-2.88-.16-2.88-.16s.3-2.08,1.2-2.62A1.64,1.64,0,1,1,94,172.71Z"/><path class="cls-7" d="M94.11,171.78a.07.07,0,0,0,0-.09l-.91-.27.9-.54a.07.07,0,0,0,0-.1.08.08,0,0,0-.1,0l-1.61,1-.05-1.12a.08.08,0,0,0-.08-.07s-.06,0-.06.08l0,1.2-1.29.76a.08.08,0,0,0,0,.1.08.08,0,0,0,.1,0l2-1.17,1,.31A.07.07,0,0,0,94.11,171.78Z"/><path class="cls-9" d="M85.26,175.64a17.41,17.41,0,0,1,.67,7.07c-.17,3.48-.66,2.48,1.15,3.09s3.22,4,3.22,4a7.85,7.85,0,0,0,1.14.3l.26,0c.43,0,.83,0,.92-.24a6.62,6.62,0,0,1,2.25-3c1.36-1,0-2.58,1.28-4.73s2.09-3.6,0-3.7H96a2,2,0,0,0-1,.44,4.59,4.59,0,0,0-.41.36l-.21.21-.1.12a10.15,10.15,0,0,0-.9,1.2,21.11,21.11,0,0,0-1.23,2.15c-.33.66-.53,1.13-.53,1.13a1.69,1.69,0,0,1-.1-.23h0a3.23,3.23,0,0,1,.1-2.4l.19-.35a7.08,7.08,0,0,0,.38-.65h0v0a1.86,1.86,0,0,0,.1-.2,1.07,1.07,0,0,0,.14-.76.86.86,0,0,0-.33-.42,3.14,3.14,0,0,0-.61-.3l-.19-.08-.07,0a1.83,1.83,0,0,1-.84-.89l-.12-.23c-.2-.38-.39-.84-.59-1.34a20,20,0,0,0-1.24-2.57,10,10,0,0,0-.86-1.22h0l-.06-.07a6.65,6.65,0,0,0-.81-.78,5.3,5.3,0,0,0-.77-.54C82.42,168.85,84.54,173,85.26,175.64Z"/><path class="cls-8" d="M85.57,173.55a14.46,14.46,0,0,1,2.09,3.61l.09.22c.23.54.44,1.08.64,1.62.31.85.59,1.7.86,2.55.45,1.4.84,2.83,1.2,4.26s.7,2.84,1,4.27l.26,0c.16-.71.33-1.42.52-2.13s.38-1.42.61-2.11a20.4,20.4,0,0,1,.76-2.07,7.19,7.19,0,0,1,1.08-1.91,7.13,7.13,0,0,0-1.18,1.87,19,19,0,0,0-.82,2c-.42,1.22-.78,2.45-1.09,3.71-.1-.49-.2-1-.31-1.47,0-.2-.09-.41-.13-.61-.14-.57-.27-1.14-.41-1.71-.37-1.43-.78-2.86-1.24-4.27-.24-.77-.51-1.53-.8-2.28s-.5-1.25-.78-1.87l-.18-.39c-.26-.54-.53-1.08-.84-1.59A9.3,9.3,0,0,0,85.57,173.55Z"/><path class="cls-13" d="M90.81,189.38c-.64-.64-.32-1-.1-1.42a.92.92,0,0,0-.06-1.24c-.4-.53,1.07-1,1.24-.45s-.51,1.28.13,1.65,1.11.45.26.87A9.6,9.6,0,0,1,90.81,189.38Z"/><path class="cls-14" d="M91,190.8s-.33-1.24-.87-1.31-.71.45-1.4,0-1.77-1-1.93-.63.68.28.92.91.21,1.29,1,1.35A3.58,3.58,0,0,0,91,190.8Z"/><path class="cls-15" d="M90.88,190.8s1.87-.7,1.58-1.36-.92-.62-.91-1.58-.17-2.92-.44-3-.8,1.21-.79,1.86-.51.79-.91,1.57A1.45,1.45,0,0,0,90,190.2,3.72,3.72,0,0,0,90.88,190.8Z"/><path class="cls-6" d="M90.88,190.8a9.15,9.15,0,0,1-.31-2.61,9.67,9.67,0,0,1,.13-1.32,7.08,7.08,0,0,1,.33-1.28,17.62,17.62,0,0,0-.26,2.6c0,.44,0,.87,0,1.31S90.85,190.37,90.88,190.8Z"/><path class="cls-6" d="M91,190.8a6.82,6.82,0,0,1-1.1-.18,6.73,6.73,0,0,1-1.07-.36,3.06,3.06,0,0,1-.49-.3,1.84,1.84,0,0,1-.39-.4,2.4,2.4,0,0,0-.4-.38A.89.89,0,0,0,87,189a.93.93,0,0,1,.53.17,2.16,2.16,0,0,1,.43.37,2.79,2.79,0,0,0,.4.37,2.4,2.4,0,0,0,.47.27,7.52,7.52,0,0,0,1,.39C90.24,190.62,90.6,190.72,91,190.8Z"/><path class="cls-4" d="M90.85,190.82s1.35.67,1.82.24.15-1,1.08-1.24,2.25-.78,2-1.22-.77.38-1.5.12-1.31-.81-2-.11A4.15,4.15,0,0,0,90.85,190.82Z"/><path class="cls-6" d="M90.85,190.82a8.81,8.81,0,0,1,1-.83,7.19,7.19,0,0,1,1.14-.66,2.74,2.74,0,0,1,.63-.21,2.12,2.12,0,0,1,.66,0,2.78,2.78,0,0,0,.64-.06,1.09,1.09,0,0,0,.57-.25,1.08,1.08,0,0,1-.55.33,3,3,0,0,1-.66.1,3.21,3.21,0,0,0-.63.06,4.27,4.27,0,0,0-.6.21,8.91,8.91,0,0,0-1.13.62C91.56,190.32,91.2,190.57,90.85,190.82Z"/><path class="cls-6" d="M165.35,56v44.72a15.66,15.66,0,0,1-15.66,15.66H88.28l-28,16a2,2,0,0,1-2.66-2.63l5.15-15.08a15.64,15.64,0,0,1-8.54-14V56A15.65,15.65,0,0,1,69.86,40.32h79.83A15.66,15.66,0,0,1,165.35,56Z"/><rect class="cls-4" x="69.99" y="51.43" width="39.79" height="23.78" rx="6.95"/><rect class="cls-4" x="82.25" y="82.03" width="68.09" height="10.58" rx="5.29"/><rect class="cls-4" x="82.25" y="96.21" width="68.09" height="10.58" rx="5.29"/><g class="cls-16"><path class="cls-7" d="M206.55,153.53H158.68c-4.86-5.32-9.42-10.7-13.94-16.56-1.06-1.34-2.1-2.79-3.15-4.24-.48-.79-.93-1.61-1.35-2.44-.12-.23-.24-.48-.35-.72-.32-.66-.61-1.33-.89-2-.09-.22-.19-.45-.28-.68-.17-.45-.32-.91-.47-1.37-.1-.3-.2-.6-.29-.91-.16-.51-.29-1-.42-1.56-.06-.26-.13-.51-.19-.77a35.15,35.15,0,0,1-.59-3.58c0-.24,0-.48-.08-.72-.09-1-.15-2-.16-3,0-.27,0-.54,0-.81q0-1.41.15-2.79c0-.2,0-.4.05-.59.12-1,.28-2,.48-3,0-.2.09-.4.13-.6.23-1,.49-2,.8-3a.56.56,0,0,1,0-.12,32.91,32.91,0,0,1,1.29-3.31c.07-.16.13-.32.2-.47.22-.45.44-.89.67-1.33l.35-.67c.34-.61.7-1.21,1.07-1.79l.06-.1a32.89,32.89,0,0,1,2-2.68l.3-.37a28.87,28.87,0,0,1,2.12-2.29l.42-.4a30,30,0,0,1,2.37-2c.12-.1.25-.18.38-.28a28.59,28.59,0,0,1,2.7-1.78L140.87,93a30.2,30.2,0,0,0-2.71,1.79l-.38.27c-.82.63-1.6,1.3-2.36,2l-.42.4c-.74.73-1.45,1.49-2.12,2.29-.11.12-.2.25-.31.38a30.42,30.42,0,0,0-1.95,2.67h0l-.06.09c-.37.59-.73,1.19-1.08,1.81-.12.22-.22.44-.34.66-.23.44-.46.88-.67,1.33,0,.07-.07.13-.1.2s-.07.19-.11.28a33.69,33.69,0,0,0-1.29,3.3v0s0,.06,0,.09a30.26,30.26,0,0,0-.8,3c0,.12-.07.24-.1.36s0,.17,0,.25c-.2,1-.36,2-.47,3l0,.2c0,.13,0,.27,0,.4-.09.91-.14,1.84-.15,2.78,0,.13,0,.25,0,.38s0,.29,0,.43c0,1,.07,2,.16,3,0,.11,0,.23,0,.34s.05.25.06.38c.14,1.22.33,2.42.58,3.58a.64.64,0,0,0,0,.07c0,.24.12.47.18.7.13.53.26,1,.41,1.57.09.3.2.6.3.9.15.46.3.92.47,1.37,0,.08,0,.17.08.25s.14.29.2.44c.27.68.57,1.36.89,2,.11.24.22.48.34.72.43.83.87,1.65,1.36,2.43,1,1.45,2.09,2.9,3.15,4.25,4.52,5.86,9.07,11.24,13.94,16.56h47.87Z"/><path class="cls-7" d="M245.89,114.81c0-.21,0-.43,0-.65.12-1.2.18-2.42.2-3.65,0-.2,0-.4,0-.61v-.61c0-1.55-.11-3.09-.26-4.6v0c-.14-1.32-.35-2.62-.59-3.91-.05-.29-.11-.58-.17-.88S245,99.3,245,99c-.18-.79-.4-1.55-.62-2.33-.08-.28-.14-.58-.22-.87-.36-1.18-.75-2.35-1.19-3.5a1.89,1.89,0,0,1-.11-.25c-.12-.31-.26-.6-.39-.91-.38-.91-.78-1.81-1.22-2.7-.2-.4-.4-.79-.61-1.18-.42-.79-.86-1.56-1.31-2.31-.23-.37-.45-.75-.69-1.11-.54-.85-1.12-1.67-1.72-2.48-.16-.22-.32-.45-.49-.67-.77-1-1.59-2-2.44-2.9-.22-.24-.46-.46-.69-.7-.65-.68-1.32-1.34-2-2l-1-.85c-.65-.56-1.32-1.1-2-1.62-.33-.25-.67-.51-1-.75l-.53-.4c-.78-.53-1.57-1-2.38-1.52l-.12-.07c-.87-.51-1.75-1-2.66-1.43-.21-.11-.44-.2-.66-.3l-.6-.28c-1-.45-2-.87-3.07-1.23a1.17,1.17,0,0,0-.2-.06c-.65-.23-1.33-.39-2-.58s-1.16-.37-1.75-.51l-.21,0c-.51-.12-1-.18-1.56-.28-.69-.13-1.38-.29-2.09-.38l-.33,0c-.55-.07-1.1-.08-1.65-.13s-1.28-.13-1.93-.14h-.94c-1,0-1.92,0-2.87.11h-.24l-.36,0c-1.35.13-2.68.31-4,.57h-.06c-.86.18-1.71.38-2.55.61l-.8.25c-.57.17-1.14.34-1.69.54l-.22.07c-.16,0-.31.13-.46.19-.77.28-1.53.6-2.28.93l-.78.35c-.92.44-1.83.9-2.72,1.41l-3.9,2.24-.53-.38c-.3-.2-.6-.38-.9-.57s-.83-.54-1.25-.79-.88-.51-1.33-.76-.86-.47-1.3-.69l-.39-.21c-.17-.08-.34-.13-.51-.21-1.09-.52-2.21-1-3.35-1.4-.15-.06-.29-.14-.45-.19l-.2-.06a35.63,35.63,0,0,0-3.53-1l-.22-.07L167,65.4c-.85-.18-1.7-.33-2.57-.46l-.55-.1c-.22,0-.44,0-.66,0q-1.22-.14-2.43-.18c-.26,0-.52-.06-.78-.06h-.94c-1,0-1.94,0-2.89.11H156c-.43,0-.85.1-1.27.15-.27,0-.55,0-.82.09-.7.1-1.39.22-2.08.35l-.26,0h0l-.27.06c-.76.16-1.51.34-2.26.55l-.86.26c-.54.17-1.08.33-1.62.52l-.23.07c-.16.06-.31.14-.46.19-.77.29-1.52.6-2.26.93l-.78.35c-.92.44-1.83.9-2.72,1.41l-11.21,6.43c.88-.5,1.79-1,2.72-1.4l.78-.36c.74-.33,1.49-.64,2.25-.92l.7-.27c.53-.18,1.08-.35,1.62-.51.29-.09.57-.19.86-.27.73-.2,1.48-.38,2.23-.54l.31-.07.23,0c.7-.14,1.41-.26,2.12-.36l.81-.09q.75-.09,1.53-.15c.95-.07,1.91-.12,2.88-.12.58,0,1.15,0,1.72.07.82,0,1.63.1,2.44.19.4,0,.81.09,1.21.15.86.12,1.72.28,2.57.46l.93.19c1.19.29,2.37.63,3.53,1l.65.25c1.14.42,2.26.89,3.35,1.4.3.14.6.27.89.42.44.22.87.46,1.31.7s.89.49,1.33.75.83.52,1.25.79,1.11.72,1.65,1.1l7.37-4.22c.68-.31,1.38-.6,2.09-.86l.67-.26c.56-.19,1.13-.37,1.7-.54l.79-.24c.84-.23,1.69-.44,2.55-.62h.06a37.92,37.92,0,0,1,4-.56l.61-.06c1-.07,1.9-.12,2.87-.12s1.92.09,2.87.16c.55,0,1.1.06,1.64.12.83.1,1.63.26,2.44.41.51.09,1,.16,1.54.27.67.16,1.32.37,2,.55s1.34.36,2,.58c1.11.38,2.2.82,3.26,1.3l.61.27c1.13.53,2.24,1.1,3.32,1.73l.11.08c1,.59,2,1.24,2.92,1.91l1,.76c.68.52,1.35,1,2,1.61l1,.85q1,1,2,2c.23.23.46.45.68.69.86.93,1.67,1.9,2.45,2.9.17.22.32.45.49.68.6.8,1.17,1.62,1.72,2.47.24.37.46.74.68,1.11.46.76.9,1.53,1.31,2.31.21.39.42.79.62,1.19.43.88.84,1.78,1.22,2.69.12.31.27.61.39.92q.72,1.83,1.29,3.75c.09.28.15.58.23.86.29,1,.56,2.1.78,3.18.06.29.11.58.17.88.24,1.3.45,2.61.59,3.94.15,1.51.24,3,.25,4.61,0,.41,0,.81,0,1.22,0,1.23-.09,2.44-.2,3.65,0,.36-.06.73-.1,1.09-.17,1.42-.38,2.83-.67,4.21,0,.17-.08.35-.12.52-.29,1.31-.64,2.6-1,3.86-.12.4-.24.79-.37,1.18s-.25.73-.39,1.09c-.21.58-.44,1.16-.67,1.74-.15.35-.29.7-.45,1s-.32.7-.49,1a42.1,42.1,0,0,1-2.17,4.1c-1.42,2-2.85,4-4.29,5.94-13.61,18.13-27.94,33-45.64,51.51a9.21,9.21,0,0,1-2,1.61l11.21-6.44a8.93,8.93,0,0,0,2.05-1.61c17.7-18.55,32-33.37,45.64-51.51,1.45-1.9,2.87-3.91,4.3-5.94.79-1.31,1.5-2.69,2.17-4.09.07-.16.17-.31.24-.47s.16-.38.25-.57l.44-1.05c.24-.57.46-1.15.68-1.74.13-.36.26-.72.38-1.08s.16-.41.22-.61.1-.39.15-.57c.4-1.26.74-2.55,1-3.86,0-.13.08-.26.11-.39a.68.68,0,0,1,0-.14c.28-1.38.49-2.78.66-4.21C245.84,115.1,245.87,115,245.89,114.81Z"/><path class="cls-8" d="M193.41,71c22.72,0,41.32,20,41.53,44.76a46.92,46.92,0,0,1-6.69,24.74c-1.42,2-2.85,4-4.29,5.94-13.61,18.13-27.94,33-45.64,51.51a9.05,9.05,0,0,1-6.57,2.81,9.19,9.19,0,0,1-6.61-2.81c-18-18.55-32.63-33.38-46.52-51.51-1.48-1.91-2.94-3.91-4.4-5.94a47.86,47.86,0,0,1-7.11-24.74C106.9,91,125.19,71,147.88,71a38.94,38.94,0,0,1,22.83,7.49A38.37,38.37,0,0,1,193.41,71Zm18.66,68.19a33.67,33.67,0,0,0,4.79-17.74c-.15-17.68-13.47-32-29.74-32a27.45,27.45,0,0,0-16.27,5.37,28,28,0,0,0-16.36-5.37c-16.25,0-29.33,14.37-29.18,32.05a34.14,34.14,0,0,0,5.07,17.74c1,1.45,2.09,2.9,3.15,4.25,4.52,5.86,9.07,11.24,13.94,16.56h47.87c4.77-5.32,9.26-10.7,13.66-16.56,1-1.35,2.05-2.8,3.07-4.25"/></g><path class="cls-17" d="M175.7,170.66l.68,1.28s0,0,.06.13v0a6.53,6.53,0,0,1,.61,2,1.28,1.28,0,0,1-.05.53c-.27.86,5.28-1.35,5.28-1.35a3.24,3.24,0,0,1-.67-.62,15.77,15.77,0,0,1-1.37-3Z"/><path class="cls-6" d="M172.81,181.51l11-5.47a3.5,3.5,0,0,0-1.79-3.6,11.09,11.09,0,0,1-5.35,1.72,21.61,21.61,0,0,1-4.57,5.93C171.47,180.81,171.87,181.24,172.81,181.51Z"/><rect class="cls-6" x="172.28" y="178.75" width="12.31" height="0.53" transform="translate(-61.03 98.12) rotate(-26.43)"/><path class="cls-17" d="M153.37,149.69l-.45,1.38s0,0,0,.13l0,0a6.66,6.66,0,0,1-1,1.85,1.35,1.35,0,0,1-.41.33c-.81.4,4.64,2.85,4.64,2.85a3.65,3.65,0,0,1,0-.91,14.89,14.89,0,0,1,1.21-3.08Z"/><path class="cls-12" d="M143.56,155.17l11.59,4.09a3.51,3.51,0,0,0,1.34-3.8,11,11,0,0,1-5-2.64,21.45,21.45,0,0,1-7.44.85C143.14,153.72,143.1,154.3,143.56,155.17Z"/><rect class="cls-12" x="143.12" y="157.2" width="12.31" height="0.53" transform="translate(60.94 -40.72) rotate(19.45)"/><path class="cls-18" d="M152,152.08l.41.15,4.16,1.54h0l.42.17c3.65-7.92,7.76-16.86,8.35-20.12a35.6,35.6,0,0,0,7.6,7.27c1.7,1.29,3.47,2.52,5.26,3.76l14.47,0,3.59,0c-1.47-1.06-3-2.17-4.47-3.29s-3-2.25-4.47-3.38c-6-4.57-11.88-9.05-16.53-11.71-.39-.24-.79-.45-1.16-.65h0a20.49,20.49,0,0,0-1.92-.92c-1.87-.8-3.41-1.11-4.52-.74a1.51,1.51,0,0,0-.51.25,6.37,6.37,0,0,0-1.82,2.17,27.27,27.27,0,0,0-1.61,3.32c-.09.19-.18.41-.25.6C156.58,136.52,154.18,145.43,152,152.08Z"/><path class="cls-4" d="M181,171.11l-4.35,2c-5.25-11.61-11.83-27.86-10-30.37,1.92-2.86,21.69-1.66,36.78,0,1.3,4.75.12,11.53-4.13,12.7-6.32,1.37-14.78-2.08-23.31-5.66Z"/><path class="cls-6" d="M187,139a8.09,8.09,0,0,0,1.67,2.44,26.27,26.27,0,0,0,4,3.48c3.3,2.43,7.47,4.55,10.86,4.82a1.73,1.73,0,0,0,.32,0c1-3.48,5.82-10.87,6-25.57h0c0-.32,0-.66,0-1a83,83,0,0,0-1-12.26h0v0A28.44,28.44,0,0,0,205,109.1a19.61,19.61,0,0,0-5.31-1.17,16.16,16.16,0,0,0-4.34.27A40.82,40.82,0,0,0,190.8,118a3.55,3.55,0,0,0-.11.36v0a29.45,29.45,0,0,0-.95,4.66c-.17,1.2-.27,2.35-.35,3.49,0,.44-.06.89-.08,1.33-.06.64-.1,1.27-.15,1.93a29,29,0,0,1-1.83,8.46C187.24,138.49,187.15,138.73,187,139Z"/><path class="cls-19" d="M162.62,124.11l0,.36.19,1.41.09.65c2.26-.25,4.52-.45,6.67-.65h0c5.12-.44,9.51-.8,11.21-1.53h0c.5-.21,1-.44,1.45-.67s1.06-.51,1.56-.77c.94-.5,1.79-1,2.56-1.49s1.55-1,2.21-1.56h0A23.8,23.8,0,0,0,190.8,118l4.54-9.79-.22.14c-.12.08-.25.14-.37.23l-1.13.71-.65.42-.08,0c-2.15,1.44-4.33,3-6.61,4.77l-.4.32q-2.28,1.77-4.72,3.71a1.14,1.14,0,0,1-.16.14h0a.47.47,0,0,0-.13.12c-.16.11-.31.23-.46.35s-.51.43-.79.64l-.86.22h0l-.32.08h0l-.23.06-1.05.27h0Z"/><path class="cls-19" d="M205.19,108.77c2,3.44-9.58,4.09-5.56.33.4-1.28,0-1.42-.71-2.42l5-2.85A5.66,5.66,0,0,0,205.19,108.77Z"/><path class="cls-17" d="M204.19,104.07c-1.74,1.91-3.74,4-5.22,4.15-1.69.23-5.23-7.8-4.76-11.54A12.82,12.82,0,0,1,201,94.26L205.6,99Z"/><path class="cls-20" d="M181.33,122s.46-.31.46-.31l-.65-.45Z"/><polygon class="cls-20" points="175.29 110.89 174.84 111.2 175.46 111.65 175.29 110.89"/><path class="cls-20" d="M181.62,121.69l-2.56-1.35a1.84,1.84,0,0,1-.65-.88l-3.1-8.09c-.14-.37-.08-.58.14-.46l2.56,1.34a1.89,1.89,0,0,1,.65.88l3.09,8.09C181.89,121.59,181.83,121.8,181.62,121.69Z"/><path class="cls-18" d="M181.16,122l-2.56-1.34a1.84,1.84,0,0,1-.65-.88l-3.09-8.09c-.14-.37-.08-.58.13-.47l2.56,1.35a1.84,1.84,0,0,1,.65.88l3.1,8.09C181.44,121.9,181.38,122.11,181.16,122Z"/><path class="cls-6" d="M177.49,113.52l-.8-.42a.87.87,0,0,1-.3-.4h0c-.06-.17,0-.27.06-.22l.81.42a.91.91,0,0,1,.3.41h0C177.62,113.48,177.59,113.58,177.49,113.52Z"/><path class="cls-17" d="M179.73,122.17l2.6,1.5c2.41,1.41,4.76,2.83,7,4.18,6.52,4,11.93,7.15,14.05,6.79,2.53-2.44,4-5.47,5.56-9.14l0-.1c.31-.71.61-1.46.93-2.23.38-.94.77-1.91,1.19-2.92.11-.26.2-.53.32-.81a20.59,20.59,0,0,0,0-4.27s0-.07,0-.12a6,6,0,0,0-1.76-3.57,5.31,5.31,0,0,0-.65-.6l0,0h0l-.09.17-.06.14c-.71,1.47-3.69,7.75-5.86,12.28-1.32,2.78-2.32,4.9-2.35,4.91L189.74,123l-3.29-1.62-5.15-2.56-.24.53-.32.67-.18.36-.27.58-.2.42Z"/><path class="cls-5" d="M199.79,98.24c-2.1,1.54-4.15,2.89-5.73,2.36a8.61,8.61,0,0,1-2-5.34c2.2.61,4.14.6,5.37-1a10.68,10.68,0,0,1,5.66.38,9,9,0,0,1,3.41,5.69,11.3,11.3,0,0,1-2.22,6c-1-.16-1.78-.46-2-1.2a5.14,5.14,0,0,0,.74-3.3,2,2,0,0,0-1-1.32,2.69,2.69,0,0,0-.83,1.68A5.92,5.92,0,0,1,199.79,98.24Z"/><path class="cls-17" d="M179.73,122.17l-2.14-.55a8.59,8.59,0,0,1-1-4.2c.66-.52,1.3-.83,1.89-.47l1.35,1.08.84.48.57.34Z"/><path class="cls-17" d="M181.29,118.85a8.41,8.41,0,0,1-.63-2.16.65.65,0,0,0-.82.11,1.72,1.72,0,0,0,.1,1.35Z"/><path class="cls-19" d="M158.33,130.23a1.34,1.34,0,0,0,.91-.27,4.89,4.89,0,0,1,.5-.43,14.67,14.67,0,0,1,3.21-3l-.09-.65-.19-1.41,0-.36c-1.16-.32-3.24,1-3.82,2.21a5.27,5.27,0,0,0-.6,2.14h0A3.21,3.21,0,0,0,158.33,130.23Z"/><path class="cls-6" d="M188.75,120s-3.34-4.63-2.84-5.44,9.43-6.34,9.43-6.34L191.13,118A23.48,23.48,0,0,1,188.75,120Z"/><path class="cls-6" d="M202.52,123.29c.12.07.25.15.4.22a34.92,34.92,0,0,0,6.46,2c.8-1.86,1.11-3.88,2-6,.55-3,0-6.67-2.47-8.57l-.1.2Z"/><path class="cls-21" d="M177,120v0l.12.45.5,2s1.44.81,3.29,1.9c.5-.21,1-.44,1.45-.67,2.41,1.41,4.76,2.83,7,4.18-.06.64-.1,1.27-.15,1.93.85,1.24,7.93,6.42,9.18,6.68s7.37.56,7.18-.56,4-9.37,4-9.37-.28-.56-.57-1l-.09-.13c-.18-.29-.37-.53-.47-.53s-.12.13-.24.36c-.54,1-1.81,4.09-3.67,5.39-2.27,1.58-6.82-.57-10-1.51a27.84,27.84,0,0,1-5.09-2.56c-1.95-1.18-4-2.53-5.5-3.62a23,23,0,0,1-2.13-1.68,3.81,3.81,0,0,0-.81-.62,2.33,2.33,0,0,0-.39-.19,5.25,5.25,0,0,0-1.74-.28l-.41,0h-.31C177.76,120.07,177.38,120,177,120Z"/><path class="cls-21" d="M158.33,130.23a1.34,1.34,0,0,0,.91-.27c-.09.19-.18.41-.25.6.62,0,2.06-1.33,2.51-1.56s5.65-1.24,7-1.72a20.35,20.35,0,0,1,2.33-.75c-.39-.24-.79-.45-1.16-.65,5.12-.44,9.51-.8,11.21-1.53h0l-1.72-1a23.27,23.27,0,0,1-6.13,1.13,30.73,30.73,0,0,0-5.33.49c-1.11.16-2.15.35-3,.47a15.18,15.18,0,0,0-1.88.45,19.66,19.66,0,0,0-2,.76,6.51,6.51,0,0,0-2.65,1.82h0A3.21,3.21,0,0,0,158.33,130.23Z"/><rect class="cls-22" x="31.63" y="39.42" width="70.78" height="19.66" rx="8.37" transform="translate(-14.76 34.13) rotate(-25.84)"/><rect class="cls-7" x="52.65" y="42.85" width="32.66" height="2.23" transform="translate(-12.26 34.46) rotate(-25.84)"/><rect class="cls-7" x="53.94" y="43.67" width="43.64" height="3.36" transform="translate(-12.19 37.55) rotate(-25.84)"/><rect class="cls-7" x="55.89" y="47.7" width="43.64" height="3.36" transform="translate(-13.75 38.8) rotate(-25.84)"/><path class="cls-8" d="M50.11,54.85a4.23,4.23,0,0,1,.53,2.6c0,.23-.09.47-.14.71A68.1,68.1,0,0,1,48.56,65a65.84,65.84,0,0,1-6.91-1.84L41,63a4.31,4.31,0,0,1-2-1.78,4.27,4.27,0,0,1,3.72-6.38h0a4.26,4.26,0,0,1,7.38.06Z"/><path class="cls-23" d="M97.05,50.55a2.18,2.18,0,0,0-2.15-1.72H89.31a1.61,1.61,0,0,0-1.71,1.53l0,.68L87,67.91H61.38l.47-14.43,0-1.07h5.31a1.58,1.58,0,0,0,1.67-1.28,1.05,1.05,0,0,0,0-.5,2.16,2.16,0,0,0-2.16-1.8h-7A1.61,1.61,0,0,0,58,50.36l-.22,6.7-2.55,94.48c.26.82.52,1,.82,1L37,190.59c-.27.56.37,1,1.44,1.14h.3a2.43,2.43,0,0,0,2.12-.84l4.93-9.62H72.16l-4.75,9.32c-.28.56.36,1,1.43,1.14h.3a2.43,2.43,0,0,0,2.12-.84L88.09,158H88L91.45,52.41h3.9a1.72,1.72,0,0,0,.9-.23,1.5,1.5,0,0,0,.82-1.55S97.07,50.57,97.05,50.55ZM73.17,179.3H46.81l3.06-6H76.21Zm4-8H50.88l3.07-6H80.29Zm4.07-8H54.93L58,157.44l26.21.21Zm2.9-8.53H59.3l.43-.83a16.74,16.74,0,0,1-1.24-1.14c-.13-.13-.26-.3-.41-.45a2.84,2.84,0,0,1,.54.45L58.9,144H84.55Zm.47-14.51H59l.37-10.88H85Zm.49-14.49H59.48L59.84,115H85.49Zm.45-14.48H60l.34-10.91H86Zm.47-14.49H60.44L60.8,86H86.44Zm.48-14.49H60.91l.37-10.91H86.91Z"/><path class="cls-7" d="M95.76,48.83H90a2,2,0,0,0-2,1.69L85.13,70H58.78l2.59-17.21h5.44a2,2,0,0,0,0-4H59.65a2,2,0,0,0-2,1.69L36.79,189.45a2,2,0,0,0,1.67,2.26,1.51,1.51,0,0,0,.3,0,2,2,0,0,0,2-1.69l2.93-19.49H70l-2.84,18.9a2,2,0,0,0,1.67,2.26,1.51,1.51,0,0,0,.3,0,2,2,0,0,0,2-1.69L91.74,52.81h4a2,2,0,0,0,0-4ZM84.53,74,82.71,86.11H56.36L58.18,74Zm-4.24,28.2H53.94l1.82-12.11H82.11Zm-2.42,16.09H51.52l1.82-12.11H79.69Zm-2.42,16.09H49.1l1.82-12.11H77.27ZM73,150.47H46.68l1.82-12.11H74.85ZM44.26,166.56l1.82-12.1H72.43l-1.82,12.1Z"/><path class="cls-24" d="M74.51,70.84,73,75.14l-3,8.47-.93,2.64-1,2.83v0l-2.1,6-8.17,36H52.47l.07-.47L57.86,96.4c-.11-2.18-.2-4.42-.3-6.62-.26-5.89-.51-11.55-.53-15.36,0-.77,0-1.46,0-2.08a4.59,4.59,0,0,1,0-.76c0-.27,0-.51,0-.74Z"/><path class="cls-6" d="M81.63,95.11l-8.17,36h-5.4l.26-1.71,5.14-33a49,49,0,0,1-2.89-6.31c-.47-1.2-1-2.49-1.45-3.84-1.43-3.91-2.79-8.14-3.61-11.37A25.52,25.52,0,0,1,64.76,71l3.47-.16,10-.45,2.81-.11h.18l0,.84,0,3.51v.3Z"/><path class="cls-4" d="M81.86,74a.81.81,0,0,1-.35.8,1.6,1.6,0,0,1-.19.11A.94.94,0,0,1,81,75c-2.65,0-5.36.1-8,.14-1.64,0-3.23,0-4.75,0-4.35-.19-8.16-.9-10.76-3.16l-.25-.21a1.06,1.06,0,0,1-.15-.15,2.25,2.25,0,0,1-.84-2l2.13-13.1v0l1-5.94c0-.11,0-.19,0-.28s.06-.35.09-.53L62,34.5c1.24-.07,2.48-.14,3.71-.17a33.94,33.94,0,0,1,7.44.42,11.75,11.75,0,0,1,5.5,2.46c.18,3.06.33,6.2.42,9.3v.05c.09,3.09.11,6.09,0,8.91-.23,5.69,1,10.69,2,14.81.07.28.13.56.2.84C81.49,72.15,81.7,73.11,81.86,74Z"/><path class="cls-17" d="M62,34.5,60.48,46.14,60,50a16.86,16.86,0,0,1-.54,4.24,13.32,13.32,0,0,1-1.07,2.31v0c-1.73,3.3-5.19,9.26-7.7,13.76L49.56,70l-2-.44,7.13-15.79.85-5.89.77-5.4a10.31,10.31,0,0,1,3.9-6.67Z"/><path class="cls-17" d="M101.27,38.78l-13.35,15a2.63,2.63,0,0,1-4.23-.41l-3.21-4.71L79,46.56l-.09-.14,0-.07-.28-9.14,1.71,1.43a9.22,9.22,0,0,1,2.2,2.69l2.54,4.74,1.1,2,13.82-12,.82,1.69Z"/><path class="cls-4" d="M85.06,46.07c-.81.59-3.09,1.85-4.2,2.43l-.38.21L79,46.56l-.09-.14,0-.07-.28-9.14,1.71,1.43a9.22,9.22,0,0,1,2.2,2.69Z"/><path class="cls-4" d="M62,34.5,60,50c-1.23-.44-3.3-1.45-4.46-2l.77-5.4C56.49,39.82,58.94,34.86,62,34.5Z"/><path class="cls-17" d="M102.2,38.1c-.06.53-.46.65-.93.68l-.47-1L100,36.11l-.79-1.61a2.77,2.77,0,0,1,2.67.86,1.69,1.69,0,0,1,.34.51A3,3,0,0,1,102.2,38.1Z"/><path class="cls-17" d="M50.68,70.28c-.32.88-.63,1.71-1.07,1.94s-2.1.12-3.49,0a3.5,3.5,0,0,1-.62-.1A4.09,4.09,0,0,1,44,71.26l3.6-1.66,2,.44Z"/><polygon class="cls-17" points="53.7 131.12 53.22 133.06 53.7 134.08 55.95 134.08 57.23 132.8 57.08 131.12 53.7 131.12"/><path class="cls-8" d="M53.12,132.6a3.49,3.49,0,0,0-.44,1.92c.14.34,1.67.61,2.78.39a39.36,39.36,0,0,0,4.72-2.44c.25-.33.28-.7-.08-.9a10.18,10.18,0,0,1-3,.41c0,.38-.06.75-.35.87C55.29,133,53.62,133,53.12,132.6Z"/><polygon class="cls-17" points="69.02 131.12 68.54 133.06 69.02 134.08 71.27 134.08 72.55 132.8 72.4 131.12 69.02 131.12"/><path class="cls-8" d="M68.44,132.6a3.67,3.67,0,0,0-.44,1.92c.14.34,1.67.61,2.78.39a39.36,39.36,0,0,0,4.72-2.44c.26-.33.28-.7-.08-.9a10.16,10.16,0,0,1-2.94.41c0,.38-.07.75-.36.87C70.62,133,68.94,133,68.44,132.6Z"/><path class="cls-19" d="M65.62,34.23c.45,1.61,5.21,1.21,7.55.51-2.2-1.11-1.43-3.44-1-4.68l-5.66-.31C66.84,30.62,66,32.56,65.62,34.23Z"/><path class="cls-17" d="M74.41,29.52a4,4,0,0,1-1.26.91c-.38.2-.83.41-1.29.61l-1.61.67-.58.05a7.34,7.34,0,0,1-3.32-.25,3.52,3.52,0,0,1-.77-.45A21.77,21.77,0,0,1,63,23.32c2.87-2.15,5.76-3.86,8.67-4.1a13.7,13.7,0,0,1,1.65,2.85,14.57,14.57,0,0,1,1.11,5A16.09,16.09,0,0,1,74.41,29.52Z"/><path class="cls-8" d="M65.35,31.87a5.13,5.13,0,0,0,3.92.61c.62-1.14,1.35-2.45.85-3.69-1.15-1.36-1.53-1.59-1.59-2.41,0-.41.39-.94,1.14-1.13a1.93,1.93,0,0,1,1.11.95l.65-.34c-.3-.84-1-2.58-1.68-2.76,1.62-.33,3.59-.54,3.71-1.31.45-2,.69-4.75.1-5.09-.33-.14-2.81,1.59-4.78,2.09a13.85,13.85,0,0,0-5.64,1.46,5.35,5.35,0,0,0-1.25,4.36A16.87,16.87,0,0,0,65.35,31.87Z"/><path class="cls-8" d="M74.41,29.52a4,4,0,0,1-1.26.91,2.27,2.27,0,0,1-.74-1l-1.63-3.2.65-.36,1.74,2.51c.69,0,1.06-.5,1.26-1.25A16.09,16.09,0,0,1,74.41,29.52Z"/><path class="cls-25" d="M102.2,38.1c-.06.53-.46.65-.93.68l-13.35,15a2.63,2.63,0,0,1-4.23-.41l-3.21-4.71L79,46.56c.09,3.09.11,6.09,0,8.91-.23,5.69,1,10.69,2,14.81h.18l0,.84c.22,1,.43,2,.59,2.9a.81.81,0,0,1-.35.8,1.7,1.7,0,0,1-.19-.19,31,31,0,0,1-2.71-3.14,3,3,0,0,1-.35-1.1c-.37-2.34,0-7-.56-8.6a17.56,17.56,0,0,1-.49-7.06c.28-.87,1.68-8.38,1.68-8.38l0,.07a.26.26,0,0,1,.09.09c.28.33,1,1.1,1.83,2,1.56,1.67,3.6,3.77,4.2,3.89,1,.21,6.06-3.54,6.76-4.24s8-9,8.58-9.66a4.9,4.9,0,0,0,.4-.69c.51-1,1.06-2.44,1.06-2.44a1.69,1.69,0,0,1,.34.51A3,3,0,0,1,102.2,38.1Z"/><path class="cls-25" d="M61.14,48.2a35.08,35.08,0,0,0-1,5.89c.05,1.59-1.75,8.47-1.41,9.94.24,1.08-.28,5.06-.56,7a1.24,1.24,0,0,1-.67.92,4.16,4.16,0,0,1-.4-.31l0,0a2.25,2.25,0,0,1-.84-2l2.13-13.1c-1.73,3.3-5.19,9.26-7.7,13.76-.32.88-.63,1.71-1.07,1.94s-2.1.12-3.49,0a3.5,3.5,0,0,1-.62-.1c1.42-.32,3.53-1,4.06-2.08.82-1.7,2.09-4.21,2.91-5.68s6.19-10.69,6.87-13.8c0-.11,0-.19,0-.28s.06-.35.09-.53h0a21,21,0,0,1,1-3.61c.35-1,.66-1.66.66-1.66Z"/><path class="cls-25" d="M74.21,95.28c0,1-.35,7.17-.49,8.16s-.73,9.16-1.47,10.9-2.32,11.8-2.46,12.67a9.92,9.92,0,0,1-1.47,2.39l5.14-33a49,49,0,0,1-2.89-6.31C72.11,92,74.23,94.62,74.21,95.28Z"/><path class="cls-25" d="M58.9,94.44a76.3,76.3,0,0,1-1.18,10.08,117.46,117.46,0,0,0-2.21,13.61c0,2.08-.13,9.67-1.58,11.33a8.28,8.28,0,0,1-1.39,1.18L57.86,96.4c-.11-2.18-.2-4.42-.3-6.62A25.44,25.44,0,0,1,58.9,94.44Z"/><path class="cls-26" d="M69.12,86.25l-1,2.83c-.32-1.8-1-5.43-1.12-5.59a44.41,44.41,0,0,0-2.69-4.8,47,47,0,0,0-5.82-3.87L57,74.42c0-.77,0-1.46,0-2.08a4.59,4.59,0,0,1,0-.76l0,0a4.16,4.16,0,0,0,.4.31,15.43,15.43,0,0,0,4.6,2.35l.28.07h.1a10.78,10.78,0,0,0,2.61.49,2.46,2.46,0,0,0,.4,0l.24,1a2.43,2.43,0,0,0,.09.3C66.54,78.9,68.27,85.39,69.12,86.25Z"/></g></g></g></svg>